<svg width="208" height="208" viewBox="0 0 208 208" fill="none" xmlns="http://www.w3.org/2000/svg">
<path d="M183.234 89.115H173.354V158.47H183.234V89.115Z" fill="#000001"/>
<path d="M163.41 178.295H64.4148V168.415H54.4698V178.295H44.5898V208H183.235V178.295H173.355V158.47H163.41V178.295ZM163.41 198.12H143.65V188.175H163.41V198.12Z" fill="#000001"/>
<path d="M173.354 79.235H163.409V89.115H173.354V79.235Z" fill="#000001"/>
<path d="M153.529 89.115H143.649V118.885H153.529V89.115Z" fill="#000001"/>
<path d="M163.409 69.355H143.649V79.235H163.409V69.355Z" fill="#000001"/>
<path d="M123.824 89.115H113.944V118.885H123.824V89.115Z" fill="#000001"/>
<path d="M94.1198 89.115H84.1748V118.885H94.1198V89.115Z" fill="#000001"/>
<path d="M84.1748 69.355H143.65V59.41H94.1198V9.88H84.1748V69.355Z" fill="#000001"/>
<path d="M84.175 0H64.415V9.88H84.175V0Z" fill="#000001"/>
<path d="M54.4698 128.765H64.4148V9.88H54.4698V79.235H44.5898V89.115H54.4698V128.765Z" fill="#000001"/>
<path d="M54.4698 158.47H44.5898V168.415H54.4698V158.47Z" fill="#000001"/>
<path d="M44.59 138.645H34.71V158.47H44.59V138.645Z" fill="#000001"/>
<path d="M44.59 89.115H34.71V99.06H44.59V89.115Z" fill="#000001"/>
<path d="M34.7097 99.0601H24.7646V138.645H34.7097V99.0601Z" fill="#000001"/>
</svg>
