<svg width="52" height="52" viewBox="0 0 52 52" fill="none" xmlns="http://www.w3.org/2000/svg">
<g filter="url(#filter0_d_1017_2068)">
<circle cx="26" cy="25" r="21" fill="#FDFDFD"/>
</g>
<path fill-rule="evenodd" clip-rule="evenodd" d="M13 25.3375C13 28.3851 15.4439 30.8663 18.4459 30.8663C21.4438 30.8663 23.8878 28.3851 23.8878 25.3375C23.8878 23.7077 23.1855 22.241 22.0779 21.2306L22.8686 20.0204L27.1587 25.806C27.3033 26.0177 27.5361 26.1279 27.7767 26.1279H30.1725C30.5498 28.8047 32.8091 30.8663 35.5541 30.8663C38.5561 30.8663 41 28.3851 41 25.3374C41 22.2898 38.5561 19.8127 35.5541 19.8127C34.607 19.8127 33.72 20.0572 32.9416 20.4891L31.276 18.2319H31.4927C31.9181 18.2319 32.2713 17.8734 32.2713 17.4414C32.2713 17.0095 31.9181 16.6509 31.4927 16.6509H29.3336V18.2317H21.9533L21.9734 14.581H24.5018C24.9273 14.581 25.2804 14.2224 25.2804 13.7905C25.2804 13.3585 24.9273 13 24.5018 13H21.3915C20.9862 13 20.7656 13.0816 20.7494 13.3463L20.7776 20.3542C20.0754 20.0079 19.2847 19.8123 18.446 19.8123C15.4441 19.8123 13.0001 22.2894 13.0001 25.337L13 25.3375ZM27.8529 24.7874L23.9401 19.4908H30.4618L31.8062 21.3119C30.8953 22.2205 30.2852 23.4345 30.0925 24.7874H27.8529Z" fill="#282B3A"/>
<path d="M26.092 27.1586L26.092 27.1586C26.2534 27.0259 26.3666 26.8493 26.4316 26.6609C26.4968 26.4722 26.5152 26.2685 26.4876 26.0719C26.4599 25.8757 26.3858 25.683 26.2632 25.5204L26.092 27.1586ZM26.092 27.1586C25.9287 27.2926 25.723 27.3749 25.4998 27.3749C25.4997 27.3749 25.4997 27.3749 25.4996 27.3749H22.815L24.4633 34.0708C24.4633 34.0709 24.4633 34.071 24.4634 34.0711C24.4634 34.0711 24.4634 34.0712 24.4634 34.0712C24.5183 34.2939 24.5117 34.5319 24.4431 34.7514C24.3748 34.9704 24.2423 35.1766 24.0457 35.3195L23.7516 34.9152L24.0457 35.3195C23.8453 35.4653 23.594 35.5319 23.3386 35.4854C23.0865 35.4395 22.8787 35.2929 22.7365 35.1039C22.7364 35.1039 22.7364 35.1038 22.7364 35.1038L14.737 24.4799C14.6143 24.3172 14.5401 24.1244 14.5124 23.9281C14.4848 23.7315 14.5032 23.5277 14.5684 23.3391C14.6334 23.1507 14.7466 22.974 14.908 22.8414L26.092 27.1586ZM18.2636 14.8962L26.263 25.5201L15.5002 22.6251C15.5003 22.6251 15.5003 22.6251 15.5004 22.6251H18.185L16.5367 15.9303C16.5367 15.9302 16.5367 15.9301 16.5366 15.93C16.4816 15.707 16.4883 15.4687 16.5571 15.249C16.5982 15.118 16.6622 14.9915 16.7491 14.8805V14.8292L16.9557 14.6794C17.1562 14.5341 17.4072 14.4681 17.6623 14.5147L17.5723 15.0066L17.6623 14.5147C17.914 14.5608 18.1216 14.7074 18.2636 14.8962Z" fill="#FFBF25" stroke="white"/>
<defs>
<filter id="filter0_d_1017_2068" x="0" y="0" width="52" height="52" filterUnits="userSpaceOnUse" color-interpolation-filters="sRGB">
<feFlood flood-opacity="0" result="BackgroundImageFix"/>
<feColorMatrix in="SourceAlpha" type="matrix" values="0 0 0 0 0 0 0 0 0 0 0 0 0 0 0 0 0 0 127 0" result="hardAlpha"/>
<feMorphology radius="1" operator="dilate" in="SourceAlpha" result="effect1_dropShadow_1017_2068"/>
<feOffset dy="1"/>
<feGaussianBlur stdDeviation="2"/>
<feComposite in2="hardAlpha" operator="out"/>
<feColorMatrix type="matrix" values="0 0 0 0 0 0 0 0 0 0 0 0 0 0 0 0 0 0 0.25 0"/>
<feBlend mode="normal" in2="BackgroundImageFix" result="effect1_dropShadow_1017_2068"/>
<feBlend mode="normal" in="SourceGraphic" in2="effect1_dropShadow_1017_2068" result="shape"/>
</filter>
</defs>
</svg>
