<svg width="52" height="52" viewBox="0 0 52 52" fill="none" xmlns="http://www.w3.org/2000/svg">
<g filter="url(#filter0_d_1017_2078)">
<circle cx="26" cy="25" r="21" fill="#FDFDFD"/>
</g>
<path d="M19.4727 34.3076V15.2646H25.9854C27.585 15.2646 28.9645 15.527 30.124 16.0518C31.292 16.568 32.1891 17.3086 32.8154 18.2734C33.4417 19.2298 33.7549 20.3724 33.7549 21.7012C33.7549 23.0299 33.4417 24.181 32.8154 25.1543C32.1891 26.1191 31.2962 26.8639 30.1367 27.3887C28.9857 27.9134 27.6146 28.1758 26.0234 28.1758H23.3828V34.3076H19.4727ZM23.3828 24.748H25.6172C26.946 24.748 27.9658 24.4857 28.6768 23.9609C29.3962 23.4277 29.7559 22.6745 29.7559 21.7012C29.7559 20.7448 29.3962 20.0042 28.6768 19.4795C27.9658 18.9463 26.946 18.6797 25.6172 18.6797H23.3828V24.748Z" fill="#131313"/>
<defs>
<filter id="filter0_d_1017_2078" x="0" y="0" width="52" height="52" filterUnits="userSpaceOnUse" color-interpolation-filters="sRGB">
<feFlood flood-opacity="0" result="BackgroundImageFix"/>
<feColorMatrix in="SourceAlpha" type="matrix" values="0 0 0 0 0 0 0 0 0 0 0 0 0 0 0 0 0 0 127 0" result="hardAlpha"/>
<feMorphology radius="1" operator="dilate" in="SourceAlpha" result="effect1_dropShadow_1017_2078"/>
<feOffset dy="1"/>
<feGaussianBlur stdDeviation="2"/>
<feComposite in2="hardAlpha" operator="out"/>
<feColorMatrix type="matrix" values="0 0 0 0 0 0 0 0 0 0 0 0 0 0 0 0 0 0 0.25 0"/>
<feBlend mode="normal" in2="BackgroundImageFix" result="effect1_dropShadow_1017_2078"/>
<feBlend mode="normal" in="SourceGraphic" in2="effect1_dropShadow_1017_2078" result="shape"/>
</filter>
</defs>
</svg>
