<svg width="290" height="175" viewBox="0 0 290 175" fill="none" xmlns="http://www.w3.org/2000/svg">
<rect x="148" y="88" width="4" height="11" rx="2" fill="#282B3A"/>
<g filter="url(#filter0_d_1017_2097)">
<rect x="5" y="4" width="280" height="165" rx="11" fill="white"/>
</g>
<rect x="25" y="130" width="240" height="24" rx="5" fill="#FFBF25" fill-opacity="0.4"/>
<rect x="25" y="130" width="120" height="24" rx="5" fill="#FFBF25"/>
<path d="M31.2264 147.453V138.726H34.1752C34.8599 138.726 35.4195 138.849 35.8542 139.097C36.2917 139.341 36.6156 139.672 36.8258 140.089C37.036 140.507 37.1411 140.973 37.1411 141.487C37.1411 142.001 37.036 142.469 36.8258 142.889C36.6184 143.31 36.2974 143.645 35.8627 143.895C35.4281 144.142 34.8712 144.266 34.1923 144.266H32.0786V143.328H34.1582C34.6269 143.328 35.0034 143.247 35.2874 143.085C35.5715 142.923 35.7775 142.705 35.9053 142.429C36.036 142.151 36.1014 141.837 36.1014 141.487C36.1014 141.138 36.036 140.825 35.9053 140.55C35.7775 140.274 35.5701 140.058 35.2832 139.902C34.9962 139.743 34.6156 139.663 34.1411 139.663H32.2832V147.453H31.2264ZM40.6333 147.607C40.2186 147.607 39.8421 147.528 39.5041 147.372C39.166 147.213 38.8975 146.984 38.6987 146.686C38.4998 146.385 38.4004 146.021 38.4004 145.595C38.4004 145.22 38.4742 144.916 38.622 144.683C38.7697 144.447 38.9671 144.263 39.2143 144.129C39.4614 143.996 39.7342 143.896 40.0325 143.831C40.3336 143.763 40.6362 143.709 40.9401 143.669C41.3379 143.618 41.6603 143.58 41.9075 143.554C42.1575 143.526 42.3393 143.479 42.4529 143.413C42.5694 143.348 42.6276 143.234 42.6276 143.072V143.038C42.6276 142.618 42.5126 142.291 42.2825 142.058C42.0552 141.825 41.71 141.709 41.247 141.709C40.7668 141.709 40.3904 141.814 40.1177 142.024C39.845 142.234 39.6532 142.459 39.5424 142.697L38.5879 142.357C38.7583 141.959 38.9856 141.649 39.2697 141.428C39.5566 141.203 39.8691 141.047 40.2072 140.959C40.5481 140.868 40.8833 140.822 41.2129 140.822C41.4231 140.822 41.6646 140.848 41.9373 140.899C42.2129 140.947 42.4785 141.048 42.7342 141.202C42.9927 141.355 43.2072 141.587 43.3776 141.896C43.5481 142.206 43.6333 142.621 43.6333 143.141V147.453H42.6276V146.567H42.5765C42.5083 146.709 42.3947 146.861 42.2356 147.023C42.0765 147.185 41.8649 147.322 41.6007 147.436C41.3364 147.55 41.014 147.607 40.6333 147.607ZM40.7867 146.703C41.1845 146.703 41.5197 146.625 41.7924 146.469C42.068 146.312 42.2754 146.111 42.4146 145.864C42.5566 145.616 42.6276 145.357 42.6276 145.084V144.163C42.585 144.214 42.4913 144.261 42.3464 144.304C42.2043 144.344 42.0396 144.379 41.8521 144.411C41.6674 144.439 41.487 144.464 41.3109 144.487C41.1376 144.507 40.997 144.524 40.889 144.538C40.6276 144.572 40.3833 144.628 40.156 144.705C39.9316 144.778 39.7498 144.891 39.6106 145.041C39.4742 145.189 39.406 145.391 39.406 145.646C39.406 145.996 39.5353 146.26 39.7938 146.439C40.0552 146.615 40.3862 146.703 40.7867 146.703ZM45.4689 147.453V140.908H46.4405V141.896H46.5087C46.628 141.572 46.8439 141.31 47.1564 141.108C47.4689 140.906 47.8212 140.805 48.2132 140.805C48.2871 140.805 48.3794 140.807 48.4902 140.81C48.601 140.812 48.6848 140.817 48.7416 140.822V141.845C48.7075 141.837 48.6294 141.824 48.5073 141.807C48.3879 141.787 48.2615 141.777 48.128 141.777C47.8098 141.777 47.5257 141.844 47.2757 141.977C47.0286 142.108 46.8325 142.29 46.6877 142.523C46.5456 142.753 46.4746 143.016 46.4746 143.311V147.453H45.4689ZM50.8712 145.067L50.8542 143.822H51.0587L53.9224 140.908H55.1667L52.1156 143.993H52.0303L50.8712 145.067ZM49.9337 147.453V138.726H50.9394V147.453H49.9337ZM54.0928 147.453L51.536 144.214L52.2519 143.516L55.3712 147.453H54.0928ZM56.4611 147.453V140.908H57.4668V147.453H56.4611ZM56.9725 139.817C56.7764 139.817 56.6074 139.75 56.4654 139.616C56.3261 139.483 56.2565 139.322 56.2565 139.135C56.2565 138.947 56.3261 138.787 56.4654 138.653C56.6074 138.52 56.7764 138.453 56.9725 138.453C57.1685 138.453 57.3361 138.52 57.4753 138.653C57.6173 138.787 57.6884 138.947 57.6884 139.135C57.6884 139.322 57.6173 139.483 57.4753 139.616C57.3361 139.75 57.1685 139.817 56.9725 139.817ZM60.3144 143.516V147.453H59.3087V140.908H60.2803V141.93H60.3656C60.519 141.598 60.7519 141.331 61.0644 141.129C61.3769 140.925 61.7803 140.822 62.2747 140.822C62.7178 140.822 63.1056 140.913 63.438 141.095C63.7704 141.274 64.0289 141.547 64.2136 141.913C64.3982 142.277 64.4906 142.737 64.4906 143.294V147.453H63.4849V143.362C63.4849 142.848 63.3514 142.447 63.0843 142.161C62.8173 141.871 62.4508 141.726 61.9849 141.726C61.6639 141.726 61.3769 141.795 61.1241 141.935C60.8741 142.074 60.6766 142.277 60.5318 142.544C60.3869 142.811 60.3144 143.135 60.3144 143.516ZM68.9703 150.044C68.4845 150.044 68.0669 149.982 67.7175 149.857C67.3681 149.734 67.0769 149.572 66.8439 149.371C66.6138 149.172 66.4306 148.959 66.2942 148.732L67.0953 148.169C67.1862 148.288 67.3013 148.425 67.4405 148.578C67.5797 148.734 67.77 148.869 68.0115 148.983C68.2558 149.099 68.5754 149.158 68.9703 149.158C69.4987 149.158 69.9348 149.03 70.2786 148.774C70.6223 148.518 70.7942 148.118 70.7942 147.572V146.243H70.709C70.6351 146.362 70.53 146.51 70.3936 146.686C70.2601 146.859 70.0669 147.014 69.8141 147.151C69.5641 147.284 69.226 147.351 68.7999 147.351C68.2715 147.351 67.797 147.226 67.3766 146.976C66.959 146.726 66.628 146.362 66.3837 145.885C66.1422 145.408 66.0215 144.828 66.0215 144.146C66.0215 143.476 66.1394 142.892 66.3752 142.395C66.611 141.895 66.9391 141.509 67.3595 141.236C67.78 140.96 68.2658 140.822 68.8169 140.822C69.2431 140.822 69.5811 140.893 69.8311 141.036C70.084 141.175 70.2771 141.334 70.4107 141.513C70.547 141.689 70.6521 141.834 70.726 141.947H70.8283V140.908H71.7999V147.641C71.7999 148.203 71.672 148.661 71.4163 149.013C71.1635 149.368 70.8226 149.628 70.3936 149.793C69.9675 149.96 69.4931 150.044 68.9703 150.044ZM68.9362 146.447C69.3396 146.447 69.6806 146.355 69.959 146.17C70.2374 145.986 70.449 145.72 70.5939 145.374C70.7388 145.027 70.8112 144.612 70.8112 144.129C70.8112 143.658 70.7402 143.241 70.5982 142.881C70.4561 142.52 70.2459 142.237 69.9675 142.033C69.6891 141.828 69.3453 141.726 68.9362 141.726C68.5101 141.726 68.155 141.834 67.8709 142.05C67.5896 142.266 67.378 142.555 67.236 142.919C67.0967 143.283 67.0271 143.686 67.0271 144.129C67.0271 144.584 67.0982 144.986 67.2402 145.335C67.3851 145.682 67.5982 145.955 67.8794 146.153C68.1635 146.349 68.5158 146.447 68.9362 146.447ZM79.4874 147.589C78.9419 147.589 78.4604 147.452 78.0428 147.176C77.6252 146.898 77.2985 146.506 77.0627 146C76.8269 145.491 76.709 144.891 76.709 144.197C76.709 143.51 76.8269 142.913 77.0627 142.408C77.2985 141.902 77.6266 141.511 78.047 141.236C78.4675 140.96 78.9533 140.822 79.5044 140.822C79.9306 140.822 80.2672 140.893 80.5144 141.036C80.7644 141.175 80.9547 141.334 81.0854 141.513C81.2189 141.689 81.3226 141.834 81.3965 141.947H81.4817V138.726H82.4874V147.453H81.5158V146.447H81.3965C81.3226 146.567 81.2175 146.717 81.0811 146.899C80.9448 147.078 80.7502 147.239 80.4973 147.381C80.2445 147.52 79.9078 147.589 79.4874 147.589ZM79.6237 146.686C80.0271 146.686 80.3681 146.581 80.6465 146.371C80.9249 146.158 81.1365 145.864 81.2814 145.489C81.4263 145.111 81.4987 144.675 81.4987 144.18C81.4987 143.692 81.4277 143.264 81.2857 142.898C81.1436 142.528 80.9334 142.241 80.655 142.037C80.3766 141.83 80.0328 141.726 79.6237 141.726C79.1976 141.726 78.8425 141.835 78.5584 142.054C78.2771 142.27 78.0655 142.564 77.9235 142.936C77.7842 143.305 77.7146 143.72 77.7146 144.18C77.7146 144.646 77.7857 145.07 77.9277 145.45C78.0726 145.828 78.2857 146.129 78.5669 146.354C78.851 146.575 79.2033 146.686 79.6237 146.686ZM84.4689 147.453V140.908H85.4746V147.453H84.4689ZM84.9803 139.817C84.7842 139.817 84.6152 139.75 84.4732 139.616C84.334 139.483 84.2644 139.322 84.2644 139.135C84.2644 138.947 84.334 138.787 84.4732 138.653C84.6152 138.52 84.7842 138.453 84.9803 138.453C85.1763 138.453 85.3439 138.52 85.4831 138.653C85.6252 138.787 85.6962 138.947 85.6962 139.135C85.6962 139.322 85.6252 139.483 85.4831 139.616C85.3439 139.75 85.1763 139.817 84.9803 139.817ZM91.9529 142.374L91.0495 142.629C90.9927 142.479 90.9089 142.332 90.7981 142.19C90.6901 142.045 90.5424 141.926 90.3549 141.832C90.1674 141.739 89.9274 141.692 89.6347 141.692C89.2342 141.692 88.9004 141.784 88.6333 141.969C88.3691 142.151 88.237 142.382 88.237 142.663C88.237 142.913 88.3279 143.111 88.5097 143.256C88.6916 143.401 88.9757 143.521 89.362 143.618L90.3336 143.857C90.9188 143.999 91.3549 144.216 91.6418 144.509C91.9288 144.798 92.0722 145.172 92.0722 145.629C92.0722 146.004 91.9643 146.339 91.7484 146.635C91.5353 146.93 91.237 147.163 90.8535 147.334C90.47 147.504 90.0239 147.589 89.5154 147.589C88.8478 147.589 88.2953 147.445 87.8578 147.155C87.4203 146.865 87.1433 146.442 87.0268 145.885L87.9813 145.646C88.0722 145.999 88.2441 146.263 88.497 146.439C88.7526 146.615 89.0864 146.703 89.4984 146.703C89.9671 146.703 90.3393 146.604 90.6149 146.405C90.8933 146.203 91.0325 145.962 91.0325 145.68C91.0325 145.453 90.9529 145.263 90.7938 145.109C90.6347 144.953 90.3904 144.837 90.0609 144.76L88.97 144.504C88.3705 144.362 87.9302 144.142 87.6489 143.844C87.3705 143.543 87.2313 143.166 87.2313 142.714C87.2313 142.345 87.335 142.018 87.5424 141.734C87.7526 141.45 88.0382 141.227 88.3989 141.065C88.7626 140.903 89.1745 140.822 89.6347 140.822C90.2825 140.822 90.791 140.964 91.1603 141.249C91.5325 141.533 91.7967 141.908 91.9529 142.374ZM93.5861 149.908V140.908H94.5577V141.947H94.677C94.7509 141.834 94.8531 141.689 94.9838 141.513C95.1173 141.334 95.3077 141.175 95.5548 141.036C95.8048 140.893 96.1429 140.822 96.569 140.822C97.1202 140.822 97.606 140.96 98.0264 141.236C98.4469 141.511 98.775 141.902 99.0108 142.408C99.2466 142.913 99.3645 143.51 99.3645 144.197C99.3645 144.891 99.2466 145.491 99.0108 146C98.775 146.506 98.4483 146.898 98.0307 147.176C97.6131 147.452 97.1315 147.589 96.5861 147.589C96.1656 147.589 95.829 147.52 95.5761 147.381C95.3233 147.239 95.1287 147.078 94.9923 146.899C94.856 146.717 94.7509 146.567 94.677 146.447H94.5918V149.908H93.5861ZM94.5747 144.18C94.5747 144.675 94.6472 145.111 94.7921 145.489C94.9369 145.864 95.1486 146.158 95.427 146.371C95.7054 146.581 96.0463 146.686 96.4497 146.686C96.8702 146.686 97.221 146.575 97.5023 146.354C97.7864 146.129 97.9994 145.828 98.1415 145.45C98.2864 145.07 98.3588 144.646 98.3588 144.18C98.3588 143.72 98.2878 143.305 98.1457 142.936C98.0065 142.564 97.7949 142.27 97.5108 142.054C97.2296 141.835 96.8759 141.726 96.4497 141.726C96.0406 141.726 95.6969 141.83 95.4185 142.037C95.1401 142.241 94.9298 142.528 94.7878 142.898C94.6457 143.264 94.5747 143.692 94.5747 144.18ZM103.558 147.589C102.967 147.589 102.448 147.449 102.002 147.168C101.559 146.886 101.213 146.493 100.963 145.987C100.715 145.482 100.592 144.891 100.592 144.214C100.592 143.533 100.715 142.937 100.963 142.429C101.213 141.92 101.559 141.526 102.002 141.244C102.448 140.963 102.967 140.822 103.558 140.822C104.149 140.822 104.666 140.963 105.109 141.244C105.555 141.526 105.901 141.92 106.149 142.429C106.399 142.937 106.524 143.533 106.524 144.214C106.524 144.891 106.399 145.482 106.149 145.987C105.901 146.493 105.555 146.886 105.109 147.168C104.666 147.449 104.149 147.589 103.558 147.589ZM103.558 146.686C104.007 146.686 104.376 146.571 104.666 146.341C104.955 146.111 105.17 145.808 105.309 145.433C105.448 145.058 105.518 144.652 105.518 144.214C105.518 143.777 105.448 143.369 105.309 142.991C105.17 142.614 104.955 142.308 104.666 142.075C104.376 141.842 104.007 141.726 103.558 141.726C103.109 141.726 102.739 141.842 102.45 142.075C102.16 142.308 101.945 142.614 101.806 142.991C101.667 143.369 101.597 143.777 101.597 144.214C101.597 144.652 101.667 145.058 101.806 145.433C101.945 145.808 102.16 146.111 102.45 146.341C102.739 146.571 103.109 146.686 103.558 146.686ZM109.064 143.516V147.453H108.059V140.908H109.03V141.93H109.116C109.269 141.598 109.502 141.331 109.814 141.129C110.127 140.925 110.53 140.822 111.025 140.822C111.468 140.822 111.856 140.913 112.188 141.095C112.52 141.274 112.779 141.547 112.964 141.913C113.148 142.277 113.241 142.737 113.241 143.294V147.453H112.235V143.362C112.235 142.848 112.101 142.447 111.834 142.161C111.567 141.871 111.201 141.726 110.735 141.726C110.414 141.726 110.127 141.795 109.874 141.935C109.624 142.074 109.427 142.277 109.282 142.544C109.137 142.811 109.064 143.135 109.064 143.516ZM115.078 147.453V140.908H116.084V147.453H115.078ZM115.59 139.817C115.394 139.817 115.225 139.75 115.083 139.616C114.943 139.483 114.874 139.322 114.874 139.135C114.874 138.947 114.943 138.787 115.083 138.653C115.225 138.52 115.394 138.453 115.59 138.453C115.786 138.453 115.953 138.52 116.092 138.653C116.235 138.787 116.306 138.947 116.306 139.135C116.306 139.322 116.235 139.483 116.092 139.616C115.953 139.75 115.786 139.817 115.59 139.817ZM118.062 147.453V138.726H119.068V141.947H119.153C119.227 141.834 119.329 141.689 119.46 141.513C119.594 141.334 119.784 141.175 120.031 141.036C120.281 140.893 120.619 140.822 121.045 140.822C121.596 140.822 122.082 140.96 122.503 141.236C122.923 141.511 123.251 141.902 123.487 142.408C123.723 142.913 123.841 143.51 123.841 144.197C123.841 144.891 123.723 145.491 123.487 146C123.251 146.506 122.925 146.898 122.507 147.176C122.089 147.452 121.608 147.589 121.062 147.589C120.642 147.589 120.305 147.52 120.052 147.381C119.8 147.239 119.605 147.078 119.469 146.899C119.332 146.717 119.227 146.567 119.153 146.447H119.034V147.453H118.062ZM119.051 144.18C119.051 144.675 119.123 145.111 119.268 145.489C119.413 145.864 119.625 146.158 119.903 146.371C120.182 146.581 120.523 146.686 120.926 146.686C121.346 146.686 121.697 146.575 121.978 146.354C122.263 146.129 122.476 145.828 122.618 145.45C122.763 145.07 122.835 144.646 122.835 144.18C122.835 143.72 122.764 143.305 122.622 142.936C122.483 142.564 122.271 142.27 121.987 142.054C121.706 141.835 121.352 141.726 120.926 141.726C120.517 141.726 120.173 141.83 119.895 142.037C119.616 142.241 119.406 142.528 119.264 142.898C119.122 143.264 119.051 143.692 119.051 144.18ZM126.385 138.726V147.453H125.379V138.726H126.385ZM130.971 147.589C130.34 147.589 129.796 147.45 129.339 147.172C128.884 146.891 128.534 146.499 128.286 145.996C128.042 145.49 127.92 144.902 127.92 144.232C127.92 143.561 128.042 142.97 128.286 142.459C128.534 141.945 128.877 141.544 129.318 141.257C129.761 140.967 130.278 140.822 130.869 140.822C131.21 140.822 131.546 140.879 131.879 140.993C132.211 141.107 132.514 141.291 132.786 141.547C133.059 141.8 133.276 142.135 133.438 142.553C133.6 142.97 133.681 143.484 133.681 144.095V144.521H128.636V143.652H132.659C132.659 143.283 132.585 142.953 132.437 142.663C132.292 142.374 132.085 142.145 131.815 141.977C131.548 141.81 131.232 141.726 130.869 141.726C130.468 141.726 130.122 141.825 129.829 142.024C129.539 142.22 129.316 142.476 129.16 142.791C129.004 143.107 128.926 143.445 128.926 143.805V144.385C128.926 144.879 129.011 145.298 129.181 145.642C129.355 145.983 129.595 146.243 129.901 146.422C130.208 146.598 130.565 146.686 130.971 146.686C131.235 146.686 131.474 146.649 131.687 146.575C131.903 146.499 132.089 146.385 132.245 146.234C132.401 146.081 132.522 145.891 132.607 145.663L133.579 145.936C133.477 146.266 133.305 146.555 133.063 146.805C132.822 147.053 132.524 147.246 132.168 147.385C131.813 147.521 131.414 147.589 130.971 147.589ZM139.847 142.374L138.944 142.629C138.887 142.479 138.803 142.332 138.693 142.19C138.585 142.045 138.437 141.926 138.249 141.832C138.062 141.739 137.822 141.692 137.529 141.692C137.129 141.692 136.795 141.784 136.528 141.969C136.264 142.151 136.132 142.382 136.132 142.663C136.132 142.913 136.222 143.111 136.404 143.256C136.586 143.401 136.87 143.521 137.257 143.618L138.228 143.857C138.813 143.999 139.249 144.216 139.536 144.509C139.823 144.798 139.967 145.172 139.967 145.629C139.967 146.004 139.859 146.339 139.643 146.635C139.43 146.93 139.132 147.163 138.748 147.334C138.364 147.504 137.918 147.589 137.41 147.589C136.742 147.589 136.19 147.445 135.752 147.155C135.315 146.865 135.038 146.442 134.921 145.885L135.876 145.646C135.967 145.999 136.139 146.263 136.391 146.439C136.647 146.615 136.981 146.703 137.393 146.703C137.862 146.703 138.234 146.604 138.509 146.405C138.788 146.203 138.927 145.962 138.927 145.68C138.927 145.453 138.847 145.263 138.688 145.109C138.529 144.953 138.285 144.837 137.955 144.76L136.864 144.504C136.265 144.362 135.825 144.142 135.543 143.844C135.265 143.543 135.126 143.166 135.126 142.714C135.126 142.345 135.23 142.018 135.437 141.734C135.647 141.45 135.933 141.227 136.293 141.065C136.657 140.903 137.069 140.822 137.529 140.822C138.177 140.822 138.686 140.964 139.055 141.249C139.427 141.533 139.691 141.908 139.847 142.374Z" fill="black"/>
<path d="M160.858 138.051L163.449 145.397H163.551L166.142 138.051H167.25L164.046 146.778H162.955L159.75 138.051H160.858ZM170.608 146.914C169.977 146.914 169.433 146.775 168.976 146.497C168.521 146.215 168.171 145.823 167.923 145.32C167.679 144.815 167.557 144.227 167.557 143.556C167.557 142.886 167.679 142.295 167.923 141.784C168.171 141.269 168.514 140.869 168.955 140.582C169.398 140.292 169.915 140.147 170.506 140.147C170.847 140.147 171.183 140.204 171.516 140.318C171.848 140.431 172.151 140.616 172.423 140.872C172.696 141.124 172.914 141.46 173.075 141.877C173.237 142.295 173.318 142.809 173.318 143.42V143.846H168.273V142.977H172.296C172.296 142.607 172.222 142.278 172.074 141.988C171.929 141.698 171.722 141.47 171.452 141.302C171.185 141.134 170.869 141.051 170.506 141.051C170.105 141.051 169.759 141.15 169.466 141.349C169.176 141.545 168.953 141.801 168.797 142.116C168.641 142.431 168.563 142.769 168.563 143.13V143.71C168.563 144.204 168.648 144.623 168.818 144.967C168.992 145.308 169.232 145.568 169.539 145.747C169.845 145.923 170.202 146.011 170.608 146.011C170.872 146.011 171.111 145.974 171.324 145.9C171.54 145.823 171.726 145.71 171.882 145.559C172.039 145.406 172.159 145.215 172.244 144.988L173.216 145.261C173.114 145.59 172.942 145.88 172.7 146.13C172.459 146.377 172.161 146.57 171.806 146.71C171.45 146.846 171.051 146.914 170.608 146.914ZM169.994 139.346L171.034 137.369H172.21L170.881 139.346H169.994ZM175.854 138.051V146.778H174.848V138.051H175.854ZM180.355 146.914C179.764 146.914 179.246 146.774 178.8 146.492C178.356 146.211 178.01 145.818 177.76 145.312C177.513 144.806 177.389 144.215 177.389 143.539C177.389 142.857 177.513 142.262 177.76 141.754C178.01 141.245 178.356 140.85 178.8 140.569C179.246 140.288 179.764 140.147 180.355 140.147C180.946 140.147 181.463 140.288 181.906 140.569C182.352 140.85 182.699 141.245 182.946 141.754C183.196 142.262 183.321 142.857 183.321 143.539C183.321 144.215 183.196 144.806 182.946 145.312C182.699 145.818 182.352 146.211 181.906 146.492C181.463 146.774 180.946 146.914 180.355 146.914ZM180.355 146.011C180.804 146.011 181.173 145.896 181.463 145.666C181.753 145.436 181.967 145.133 182.106 144.758C182.246 144.383 182.315 143.977 182.315 143.539C182.315 143.102 182.246 142.694 182.106 142.316C181.967 141.938 181.753 141.633 181.463 141.4C181.173 141.167 180.804 141.051 180.355 141.051C179.906 141.051 179.537 141.167 179.247 141.4C178.957 141.633 178.743 141.938 178.604 142.316C178.464 142.694 178.395 143.102 178.395 143.539C178.395 143.977 178.464 144.383 178.604 144.758C178.743 145.133 178.957 145.436 179.247 145.666C179.537 145.896 179.906 146.011 180.355 146.011ZM189.492 141.698L188.589 141.954C188.532 141.803 188.448 141.657 188.338 141.515C188.23 141.37 188.082 141.251 187.894 141.157C187.707 141.063 187.467 141.016 187.174 141.016C186.774 141.016 186.44 141.109 186.173 141.293C185.909 141.475 185.776 141.707 185.776 141.988C185.776 142.238 185.867 142.436 186.049 142.58C186.231 142.725 186.515 142.846 186.901 142.943L187.873 143.181C188.458 143.323 188.894 143.541 189.181 143.833C189.468 144.123 189.612 144.497 189.612 144.954C189.612 145.329 189.504 145.664 189.288 145.96C189.075 146.255 188.776 146.488 188.393 146.659C188.009 146.829 187.563 146.914 187.055 146.914C186.387 146.914 185.835 146.769 185.397 146.48C184.96 146.19 184.683 145.766 184.566 145.21L185.521 144.971C185.612 145.323 185.784 145.587 186.036 145.764C186.292 145.94 186.626 146.028 187.038 146.028C187.507 146.028 187.879 145.928 188.154 145.73C188.433 145.528 188.572 145.286 188.572 145.005C188.572 144.778 188.492 144.587 188.333 144.434C188.174 144.278 187.93 144.161 187.6 144.085L186.509 143.829C185.91 143.687 185.47 143.467 185.188 143.168C184.91 142.867 184.771 142.491 184.771 142.039C184.771 141.67 184.874 141.343 185.082 141.059C185.292 140.775 185.578 140.552 185.938 140.39C186.302 140.228 186.714 140.147 187.174 140.147C187.822 140.147 188.33 140.289 188.7 140.573C189.072 140.857 189.336 141.232 189.492 141.698ZM196.972 146.914C196.427 146.914 195.945 146.776 195.528 146.501C195.11 146.222 194.783 145.83 194.547 145.325C194.312 144.816 194.194 144.215 194.194 143.522C194.194 142.835 194.312 142.238 194.547 141.732C194.783 141.227 195.111 140.836 195.532 140.561C195.952 140.285 196.438 140.147 196.989 140.147C197.415 140.147 197.752 140.218 197.999 140.36C198.249 140.499 198.439 140.659 198.57 140.837C198.704 141.014 198.807 141.159 198.881 141.272H198.966V138.051H199.972V146.778H199.001V145.772H198.881C198.807 145.891 198.702 146.042 198.566 146.224C198.43 146.403 198.235 146.563 197.982 146.705C197.729 146.845 197.393 146.914 196.972 146.914ZM197.108 146.011C197.512 146.011 197.853 145.906 198.131 145.695C198.41 145.482 198.621 145.188 198.766 144.813C198.911 144.436 198.983 143.999 198.983 143.505C198.983 143.016 198.912 142.589 198.77 142.222C198.628 141.853 198.418 141.566 198.14 141.362C197.861 141.154 197.518 141.051 197.108 141.051C196.682 141.051 196.327 141.16 196.043 141.379C195.762 141.595 195.55 141.889 195.408 142.261C195.269 142.63 195.199 143.045 195.199 143.505C195.199 143.971 195.27 144.394 195.412 144.775C195.557 145.153 195.77 145.454 196.052 145.678C196.336 145.9 196.688 146.011 197.108 146.011ZM201.954 146.778V140.232H202.959V146.778H201.954ZM202.465 139.141C202.269 139.141 202.1 139.075 201.958 138.941C201.819 138.808 201.749 138.647 201.749 138.46C201.749 138.272 201.819 138.112 201.958 137.978C202.1 137.845 202.269 137.778 202.465 137.778C202.661 137.778 202.829 137.845 202.968 137.978C203.11 138.112 203.181 138.272 203.181 138.46C203.181 138.647 203.11 138.808 202.968 138.941C202.829 139.075 202.661 139.141 202.465 139.141ZM209.438 141.698L208.534 141.954C208.477 141.803 208.394 141.657 208.283 141.515C208.175 141.37 208.027 141.251 207.84 141.157C207.652 141.063 207.412 141.016 207.119 141.016C206.719 141.016 206.385 141.109 206.118 141.293C205.854 141.475 205.722 141.707 205.722 141.988C205.722 142.238 205.813 142.436 205.994 142.58C206.176 142.725 206.46 142.846 206.847 142.943L207.818 143.181C208.404 143.323 208.84 143.541 209.127 143.833C209.414 144.123 209.557 144.497 209.557 144.954C209.557 145.329 209.449 145.664 209.233 145.96C209.02 146.255 208.722 146.488 208.338 146.659C207.955 146.829 207.509 146.914 207 146.914C206.333 146.914 205.78 146.769 205.343 146.48C204.905 146.19 204.628 145.766 204.512 145.21L205.466 144.971C205.557 145.323 205.729 145.587 205.982 145.764C206.237 145.94 206.571 146.028 206.983 146.028C207.452 146.028 207.824 145.928 208.1 145.73C208.378 145.528 208.517 145.286 208.517 145.005C208.517 144.778 208.438 144.587 208.279 144.434C208.119 144.278 207.875 144.161 207.546 144.085L206.455 143.829C205.855 143.687 205.415 143.467 205.134 143.168C204.855 142.867 204.716 142.491 204.716 142.039C204.716 141.67 204.82 141.343 205.027 141.059C205.237 140.775 205.523 140.552 205.884 140.39C206.247 140.228 206.659 140.147 207.119 140.147C207.767 140.147 208.276 140.289 208.645 140.573C209.017 140.857 209.281 141.232 209.438 141.698ZM211.071 149.232V140.232H212.042V141.272H212.162C212.236 141.159 212.338 141.014 212.469 140.837C212.602 140.659 212.792 140.499 213.04 140.36C213.29 140.218 213.628 140.147 214.054 140.147C214.605 140.147 215.091 140.285 215.511 140.561C215.932 140.836 216.26 141.227 216.496 141.732C216.731 142.238 216.849 142.835 216.849 143.522C216.849 144.215 216.731 144.816 216.496 145.325C216.26 145.83 215.933 146.222 215.515 146.501C215.098 146.776 214.616 146.914 214.071 146.914C213.65 146.914 213.314 146.845 213.061 146.705C212.808 146.563 212.613 146.403 212.477 146.224C212.341 146.042 212.236 145.891 212.162 145.772H212.077V149.232H211.071ZM212.059 143.505C212.059 143.999 212.132 144.436 212.277 144.813C212.422 145.188 212.633 145.482 212.912 145.695C213.19 145.906 213.531 146.011 213.934 146.011C214.355 146.011 214.706 145.9 214.987 145.678C215.271 145.454 215.484 145.153 215.626 144.775C215.771 144.394 215.844 143.971 215.844 143.505C215.844 143.045 215.773 142.63 215.631 142.261C215.491 141.889 215.28 141.595 214.996 141.379C214.714 141.16 214.361 141.051 213.934 141.051C213.525 141.051 213.182 141.154 212.903 141.362C212.625 141.566 212.415 141.853 212.273 142.222C212.131 142.589 212.059 143.016 212.059 143.505ZM221.042 146.914C220.452 146.914 219.933 146.774 219.487 146.492C219.044 146.211 218.697 145.818 218.447 145.312C218.2 144.806 218.077 144.215 218.077 143.539C218.077 142.857 218.2 142.262 218.447 141.754C218.697 141.245 219.044 140.85 219.487 140.569C219.933 140.288 220.452 140.147 221.042 140.147C221.633 140.147 222.15 140.288 222.594 140.569C223.04 140.85 223.386 141.245 223.633 141.754C223.883 142.262 224.008 142.857 224.008 143.539C224.008 144.215 223.883 144.806 223.633 145.312C223.386 145.818 223.04 146.211 222.594 146.492C222.15 146.774 221.633 146.914 221.042 146.914ZM221.042 146.011C221.491 146.011 221.861 145.896 222.15 145.666C222.44 145.436 222.655 145.133 222.794 144.758C222.933 144.383 223.003 143.977 223.003 143.539C223.003 143.102 222.933 142.694 222.794 142.316C222.655 141.938 222.44 141.633 222.15 141.4C221.861 141.167 221.491 141.051 221.042 141.051C220.594 141.051 220.224 141.167 219.934 141.4C219.645 141.633 219.43 141.938 219.291 142.316C219.152 142.694 219.082 143.102 219.082 143.539C219.082 143.977 219.152 144.383 219.291 144.758C219.43 145.133 219.645 145.436 219.934 145.666C220.224 145.896 220.594 146.011 221.042 146.011ZM226.549 142.84V146.778H225.544V140.232H226.515V141.255H226.6C226.754 140.923 226.987 140.656 227.299 140.454C227.612 140.249 228.015 140.147 228.509 140.147C228.953 140.147 229.34 140.238 229.673 140.42C230.005 140.599 230.264 140.872 230.448 141.238C230.633 141.602 230.725 142.062 230.725 142.619V146.778H229.72V142.687C229.72 142.173 229.586 141.772 229.319 141.485C229.052 141.195 228.686 141.051 228.22 141.051C227.899 141.051 227.612 141.12 227.359 141.259C227.109 141.399 226.911 141.602 226.767 141.869C226.622 142.136 226.549 142.46 226.549 142.84ZM232.563 146.778V140.232H233.569V146.778H232.563ZM233.074 139.141C232.878 139.141 232.709 139.075 232.567 138.941C232.428 138.808 232.358 138.647 232.358 138.46C232.358 138.272 232.428 138.112 232.567 137.978C232.709 137.845 232.878 137.778 233.074 137.778C233.27 137.778 233.438 137.845 233.577 137.978C233.719 138.112 233.79 138.272 233.79 138.46C233.79 138.647 233.719 138.808 233.577 138.941C233.438 139.075 233.27 139.141 233.074 139.141ZM235.547 146.778V138.051H236.553V141.272H236.638C236.712 141.159 236.814 141.014 236.945 140.837C237.078 140.659 237.269 140.499 237.516 140.36C237.766 140.218 238.104 140.147 238.53 140.147C239.081 140.147 239.567 140.285 239.987 140.561C240.408 140.836 240.736 141.227 240.972 141.732C241.208 142.238 241.325 142.835 241.325 143.522C241.325 144.215 241.208 144.816 240.972 145.325C240.736 145.83 240.409 146.222 239.992 146.501C239.574 146.776 239.093 146.914 238.547 146.914C238.127 146.914 237.79 146.845 237.537 146.705C237.284 146.563 237.09 146.403 236.953 146.224C236.817 146.042 236.712 145.891 236.638 145.772H236.519V146.778H235.547ZM236.536 143.505C236.536 143.999 236.608 144.436 236.753 144.813C236.898 145.188 237.11 145.482 237.388 145.695C237.666 145.906 238.007 146.011 238.411 146.011C238.831 146.011 239.182 145.9 239.463 145.678C239.747 145.454 239.96 145.153 240.102 144.775C240.247 144.394 240.32 143.971 240.32 143.505C240.32 143.045 240.249 142.63 240.107 142.261C239.968 141.889 239.756 141.595 239.472 141.379C239.191 141.16 238.837 141.051 238.411 141.051C238.002 141.051 237.658 141.154 237.379 141.362C237.101 141.566 236.891 141.853 236.749 142.222C236.607 142.589 236.536 143.016 236.536 143.505ZM243.869 138.051V146.778H242.864V138.051H243.869ZM248.456 146.914C247.825 146.914 247.281 146.775 246.824 146.497C246.369 146.215 246.018 145.823 245.771 145.32C245.527 144.815 245.405 144.227 245.405 143.556C245.405 142.886 245.527 142.295 245.771 141.784C246.018 141.269 246.362 140.869 246.802 140.582C247.246 140.292 247.763 140.147 248.354 140.147C248.694 140.147 249.031 140.204 249.363 140.318C249.696 140.431 249.998 140.616 250.271 140.872C250.544 141.124 250.761 141.46 250.923 141.877C251.085 142.295 251.166 142.809 251.166 143.42V143.846H246.121V142.977H250.143C250.143 142.607 250.069 142.278 249.922 141.988C249.777 141.698 249.569 141.47 249.3 141.302C249.032 141.134 248.717 141.051 248.354 141.051C247.953 141.051 247.606 141.15 247.314 141.349C247.024 141.545 246.801 141.801 246.645 142.116C246.488 142.431 246.41 142.769 246.41 143.13V143.71C246.41 144.204 246.496 144.623 246.666 144.967C246.839 145.308 247.079 145.568 247.386 145.747C247.693 145.923 248.05 146.011 248.456 146.011C248.72 146.011 248.959 145.974 249.172 145.9C249.388 145.823 249.574 145.71 249.73 145.559C249.886 145.406 250.007 145.215 250.092 144.988L251.064 145.261C250.961 145.59 250.79 145.88 250.548 146.13C250.307 146.377 250.008 146.57 249.653 146.71C249.298 146.846 248.899 146.914 248.456 146.914ZM257.332 141.698L256.429 141.954C256.372 141.803 256.288 141.657 256.177 141.515C256.069 141.37 255.922 141.251 255.734 141.157C255.547 141.063 255.307 141.016 255.014 141.016C254.613 141.016 254.28 141.109 254.013 141.293C253.748 141.475 253.616 141.707 253.616 141.988C253.616 142.238 253.707 142.436 253.889 142.58C254.071 142.725 254.355 142.846 254.741 142.943L255.713 143.181C256.298 143.323 256.734 143.541 257.021 143.833C257.308 144.123 257.452 144.497 257.452 144.954C257.452 145.329 257.344 145.664 257.128 145.96C256.915 146.255 256.616 146.488 256.233 146.659C255.849 146.829 255.403 146.914 254.895 146.914C254.227 146.914 253.675 146.769 253.237 146.48C252.8 146.19 252.523 145.766 252.406 145.21L253.361 144.971C253.452 145.323 253.623 145.587 253.876 145.764C254.132 145.94 254.466 146.028 254.878 146.028C255.346 146.028 255.719 145.928 255.994 145.73C256.273 145.528 256.412 145.286 256.412 145.005C256.412 144.778 256.332 144.587 256.173 144.434C256.014 144.278 255.77 144.161 255.44 144.085L254.349 143.829C253.75 143.687 253.309 143.467 253.028 143.168C252.75 142.867 252.611 142.491 252.611 142.039C252.611 141.67 252.714 141.343 252.922 141.059C253.132 140.775 253.417 140.552 253.778 140.39C254.142 140.228 254.554 140.147 255.014 140.147C255.662 140.147 256.17 140.289 256.54 140.573C256.912 140.857 257.176 141.232 257.332 141.698Z" fill="black"/>
<path d="M32.7031 31H30.3623L25.3569 18.5488H27.6646L31.5327 28.5264L35.4092 18.5488H37.7085L32.7031 31ZM41.7012 31.166C40.8545 31.166 40.0964 30.9779 39.4268 30.6016C38.7627 30.2253 38.237 29.7134 37.8496 29.0659C37.4678 28.4129 37.2769 27.6742 37.2769 26.8496C37.2769 26.0251 37.4678 25.2891 37.8496 24.6416C38.237 23.9886 38.7627 23.474 39.4268 23.0977C40.0964 22.7214 40.8545 22.5332 41.7012 22.5332C42.5423 22.5332 43.2949 22.7214 43.959 23.0977C44.623 23.474 45.1432 23.9886 45.5195 24.6416C45.9014 25.2891 46.0923 26.0251 46.0923 26.8496C46.0923 27.6742 45.9014 28.4129 45.5195 29.0659C45.1432 29.7134 44.623 30.2253 43.959 30.6016C43.2949 30.9779 42.5423 31.166 41.7012 31.166ZM41.6846 29.3315C42.1273 29.3315 42.5229 29.2236 42.8716 29.0078C43.2202 28.792 43.4941 28.4959 43.6934 28.1196C43.8981 27.7433 44.0005 27.3172 44.0005 26.8413C44.0005 26.3709 43.8981 25.9504 43.6934 25.5796C43.4941 25.2033 43.2202 24.9072 42.8716 24.6914C42.5229 24.4756 42.1273 24.3677 41.6846 24.3677C41.2474 24.3677 40.8517 24.4756 40.4976 24.6914C40.1489 24.9072 39.8722 25.2033 39.6675 25.5796C39.4683 25.9504 39.3687 26.3709 39.3687 26.8413C39.3687 27.3172 39.4683 27.7433 39.6675 28.1196C39.8722 28.4959 40.1489 28.792 40.4976 29.0078C40.8517 29.2236 41.2474 29.3315 41.6846 29.3315ZM51.3301 35.1504H49.147L50.8735 30.9668L46.7563 22.6992H49.0557L51.8447 28.6343L54.3018 22.6992H56.4849L51.3301 35.1504ZM64.8188 31H63.0425L62.9263 29.979C62.6219 30.3553 62.2428 30.6486 61.7891 30.8589C61.3353 31.0636 60.8317 31.166 60.2783 31.166C59.6917 31.166 59.1688 31.0526 58.7095 30.8257C58.2502 30.5933 57.8877 30.2778 57.6221 29.8794C57.362 29.481 57.2319 29.0272 57.2319 28.5181C57.2319 27.9813 57.373 27.5109 57.6553 27.1069C57.943 26.6974 58.3332 26.3765 58.8257 26.144C59.3237 25.9116 59.891 25.7954 60.5273 25.7954C60.9147 25.7954 61.3021 25.8397 61.6895 25.9282C62.0824 26.0168 62.4448 26.1413 62.7769 26.3018V26.0361C62.7769 25.6709 62.6772 25.3555 62.478 25.0898C62.2788 24.8242 62.0104 24.6195 61.6729 24.4756C61.3353 24.3262 60.9562 24.2515 60.5356 24.2515C60.1538 24.2515 59.772 24.3179 59.3901 24.4507C59.0083 24.578 58.6514 24.7689 58.3193 25.0234L57.7383 23.4214C58.2695 23.1281 58.8118 22.9067 59.3652 22.7573C59.9242 22.6079 60.4692 22.5332 61.0005 22.5332C61.7808 22.5332 62.4559 22.6882 63.0259 22.998C63.5959 23.3024 64.0358 23.7396 64.3457 24.3096C64.6611 24.874 64.8188 25.5409 64.8188 26.3101V31ZM60.7017 29.5225C61.0614 29.5225 61.3934 29.4478 61.6978 29.2983C62.0076 29.1489 62.2594 28.9414 62.4531 28.6758C62.6523 28.4046 62.7575 28.0947 62.7686 27.7461V27.6548C62.5085 27.4666 62.2152 27.3228 61.8887 27.2231C61.5622 27.118 61.2329 27.0654 60.9009 27.0654C60.3918 27.0654 59.974 27.1816 59.6475 27.4141C59.321 27.641 59.1577 27.9398 59.1577 28.3105C59.1577 28.5374 59.2241 28.745 59.3569 28.9331C59.4897 29.1157 59.6724 29.2596 59.9048 29.3647C60.1427 29.4699 60.4084 29.5225 60.7017 29.5225ZM70.3057 31.0664C69.5365 31.0664 68.8503 30.881 68.2471 30.5103C67.6439 30.1395 67.168 29.6331 66.8193 28.9912C66.4707 28.3438 66.2964 27.6133 66.2964 26.7998C66.2964 25.9808 66.4707 25.2503 66.8193 24.6084C67.168 23.9665 67.6439 23.4601 68.2471 23.0894C68.8503 22.7186 69.5365 22.5332 70.3057 22.5332C70.9089 22.5332 71.465 22.6494 71.9741 22.8818C72.4832 23.1143 72.9149 23.438 73.269 23.853L73.3687 22.6992H75.1616V30.7759C75.1616 31.6945 74.9652 32.4941 74.5723 33.1748C74.1849 33.8555 73.637 34.3812 72.9287 34.752C72.2204 35.1283 71.382 35.3164 70.4136 35.3164C69.0688 35.3164 67.8652 34.8875 66.8027 34.0298L67.6411 32.3613C68.3826 33.1084 69.2625 33.4819 70.2808 33.4819C70.8563 33.4819 71.3543 33.3657 71.7749 33.1333C72.201 32.9064 72.5303 32.5827 72.7627 32.1621C73.0007 31.7471 73.1196 31.2601 73.1196 30.7012V29.9043C72.7655 30.2695 72.3477 30.5545 71.8662 30.7593C71.3848 30.964 70.8646 31.0664 70.3057 31.0664ZM70.7539 29.2485C71.1911 29.2485 71.5868 29.1517 71.9409 28.958C72.3006 28.7588 72.5856 28.4876 72.7959 28.1445C73.0117 27.8014 73.1196 27.4113 73.1196 26.9741V26.6089C73.1196 26.1717 73.0117 25.7843 72.7959 25.4468C72.5856 25.1092 72.3006 24.8436 71.9409 24.6499C71.5812 24.4507 71.1855 24.3511 70.7539 24.3511C70.3001 24.3511 69.8934 24.459 69.5337 24.6748C69.174 24.8851 68.889 25.1756 68.6787 25.5464C68.474 25.9172 68.3716 26.335 68.3716 26.7998C68.3716 27.2646 68.474 27.6825 68.6787 28.0532C68.889 28.424 69.174 28.7173 69.5337 28.9331C69.8934 29.1434 70.3001 29.2485 70.7539 29.2485ZM84.8154 30.0371C83.7806 30.7897 82.6489 31.166 81.4204 31.166C80.5295 31.166 79.7298 30.9723 79.0215 30.585C78.3132 30.1976 77.7515 29.6691 77.3364 28.9995C76.9269 28.3244 76.7222 27.5662 76.7222 26.7251C76.7222 25.9227 76.9076 25.2061 77.2783 24.5752C77.6546 23.9443 78.1665 23.4463 78.814 23.0811C79.467 22.7158 80.203 22.5332 81.022 22.5332C81.8742 22.5332 82.6213 22.7352 83.2632 23.1392C83.9106 23.5376 84.4142 24.0938 84.7739 24.8076C85.1336 25.516 85.3135 26.3405 85.3135 27.2812V27.5469H78.9219C79.0215 27.9232 79.1958 28.2552 79.4448 28.543C79.6994 28.8307 80.0148 29.0549 80.3911 29.2153C80.7674 29.3758 81.1908 29.4561 81.6611 29.4561C82.5465 29.4561 83.3656 29.1683 84.1182 28.5928L84.8154 30.0371ZM78.8389 26.3516H83.4209C83.3766 25.9365 83.2493 25.5741 83.0391 25.2642C82.8343 24.9543 82.5659 24.7135 82.2339 24.542C81.9074 24.3649 81.5394 24.2764 81.1299 24.2764C80.7148 24.2764 80.3441 24.3649 80.0176 24.542C79.6911 24.7191 79.4255 24.9653 79.2207 25.2808C79.016 25.5907 78.8887 25.9476 78.8389 26.3516ZM94.3281 31H86.4009V29.9458L90.875 24.5337H86.6333V22.6992H94.0625V23.5874L89.4639 29.1655H94.3281V31ZM104.405 21.3379H102.936L101.309 18.5488H103.185L104.405 21.3379ZM107.103 31H105.327L105.21 29.979C104.906 30.3553 104.527 30.6486 104.073 30.8589C103.619 31.0636 103.116 31.166 102.562 31.166C101.976 31.166 101.453 31.0526 100.994 30.8257C100.534 30.5933 100.172 30.2778 99.9062 29.8794C99.6462 29.481 99.5161 29.0272 99.5161 28.5181C99.5161 27.9813 99.6572 27.5109 99.9395 27.1069C100.227 26.6974 100.617 26.3765 101.11 26.144C101.608 25.9116 102.175 25.7954 102.812 25.7954C103.199 25.7954 103.586 25.8397 103.974 25.9282C104.367 26.0168 104.729 26.1413 105.061 26.3018V26.0361C105.061 25.6709 104.961 25.3555 104.762 25.0898C104.563 24.8242 104.295 24.6195 103.957 24.4756C103.619 24.3262 103.24 24.2515 102.82 24.2515C102.438 24.2515 102.056 24.3179 101.674 24.4507C101.292 24.578 100.936 24.7689 100.604 25.0234L100.022 23.4214C100.554 23.1281 101.096 22.9067 101.649 22.7573C102.208 22.6079 102.753 22.5332 103.285 22.5332C104.065 22.5332 104.74 22.6882 105.31 22.998C105.88 23.3024 106.32 23.7396 106.63 24.3096C106.945 24.874 107.103 25.5409 107.103 26.3101V31ZM102.978 29.5225C103.343 29.5225 103.683 29.4422 103.999 29.2817C104.319 29.1157 104.574 28.8944 104.762 28.6177C104.956 28.341 105.053 28.0366 105.053 27.7046V27.6548C104.809 27.4666 104.524 27.3228 104.198 27.2231C103.877 27.118 103.545 27.0654 103.202 27.0654C102.681 27.0654 102.258 27.1816 101.932 27.4141C101.605 27.641 101.442 27.9398 101.442 28.3105C101.442 28.5374 101.508 28.745 101.641 28.9331C101.774 29.1157 101.957 29.2596 102.189 29.3647C102.421 29.4699 102.684 29.5225 102.978 29.5225ZM115.138 35.1504H113.096V22.6992H114.897L114.997 23.8613C115.362 23.4463 115.802 23.1226 116.317 22.8901C116.832 22.6522 117.393 22.5332 118.002 22.5332C118.777 22.5332 119.468 22.7214 120.077 23.0977C120.691 23.474 121.173 23.9886 121.521 24.6416C121.876 25.2891 122.053 26.0251 122.053 26.8496C122.053 27.6742 121.876 28.4129 121.521 29.0659C121.173 29.7134 120.691 30.2253 120.077 30.6016C119.468 30.9779 118.777 31.166 118.002 31.166C117.432 31.166 116.903 31.0636 116.417 30.8589C115.93 30.6541 115.503 30.3664 115.138 29.9956V35.1504ZM117.562 29.3232C118.027 29.3232 118.439 29.2181 118.799 29.0078C119.164 28.792 119.446 28.4987 119.646 28.1279C119.85 27.7516 119.953 27.3228 119.953 26.8413C119.953 26.3599 119.85 25.9338 119.646 25.563C119.441 25.1867 119.159 24.8934 118.799 24.6831C118.439 24.4673 118.027 24.3594 117.562 24.3594C117.125 24.3594 116.729 24.459 116.375 24.6582C116.021 24.8519 115.736 25.1203 115.52 25.4634C115.304 25.8009 115.177 26.1883 115.138 26.6255V27.082C115.177 27.5192 115.301 27.9066 115.512 28.2441C115.728 28.5817 116.013 28.8473 116.367 29.041C116.721 29.2292 117.119 29.3232 117.562 29.3232ZM125.888 31H123.705V18.2168H125.888V31ZM136.048 31H134.363L134.296 29.6636C133.998 30.1506 133.605 30.5241 133.118 30.7842C132.631 31.0387 132.055 31.166 131.391 31.166C130.323 31.166 129.479 30.8395 128.859 30.1865C128.245 29.528 127.938 28.6232 127.938 27.4722V22.6992H129.98V27.082C129.98 27.7738 130.154 28.3216 130.503 28.7256C130.857 29.124 131.336 29.3232 131.939 29.3232C132.564 29.3232 133.065 29.1102 133.441 28.6841C133.818 28.258 134.006 27.6908 134.006 26.9824V22.6992H136.048V31ZM137.683 30.2861L138.148 28.5098C138.331 28.6924 138.557 28.8584 138.829 29.0078C139.1 29.1572 139.388 29.2762 139.692 29.3647C140.002 29.4478 140.303 29.4893 140.597 29.4893C140.99 29.4893 141.305 29.409 141.543 29.2485C141.781 29.0825 141.9 28.8667 141.9 28.6011C141.9 28.3908 141.828 28.2165 141.684 28.0781C141.54 27.9342 141.352 27.8097 141.12 27.7046C140.887 27.5939 140.633 27.486 140.356 27.3809C139.991 27.248 139.62 27.0903 139.244 26.9077C138.867 26.7196 138.552 26.4733 138.297 26.1689C138.048 25.859 137.924 25.4495 137.924 24.9404C137.924 24.4479 138.048 24.0218 138.297 23.6621C138.552 23.3024 138.906 23.0257 139.36 22.832C139.814 22.6328 140.342 22.5332 140.945 22.5332C141.897 22.5332 142.846 22.7712 143.792 23.2471L143.203 24.9238C143.026 24.791 142.81 24.6693 142.556 24.5586C142.301 24.4479 142.041 24.3594 141.775 24.293C141.51 24.2266 141.269 24.1934 141.053 24.1934C140.738 24.1934 140.486 24.2625 140.298 24.4009C140.11 24.5392 140.016 24.7218 140.016 24.9487C140.016 25.1037 140.068 25.2448 140.173 25.3721C140.278 25.4938 140.442 25.6128 140.663 25.729C140.884 25.8452 141.169 25.9753 141.518 26.1191C141.894 26.263 142.271 26.4318 142.647 26.6255C143.029 26.8136 143.347 27.0654 143.602 27.3809C143.862 27.6908 143.992 28.103 143.992 28.6177C143.992 29.1268 143.853 29.5723 143.577 29.9541C143.306 30.3359 142.924 30.6348 142.431 30.8506C141.944 31.0609 141.374 31.166 140.721 31.166C139.637 31.166 138.624 30.8727 137.683 30.2861ZM146.656 20.4995C146.368 20.4995 146.125 20.3999 145.926 20.2007C145.732 19.9959 145.635 19.7497 145.635 19.4619C145.635 19.1797 145.732 18.939 145.926 18.7397C146.125 18.535 146.368 18.4326 146.656 18.4326C146.95 18.4326 147.196 18.535 147.395 18.7397C147.594 18.939 147.694 19.1797 147.694 19.4619C147.694 19.7497 147.594 19.9959 147.395 20.2007C147.196 20.3999 146.95 20.4995 146.656 20.4995ZM147.677 31H145.635V22.6992H147.677V31ZM157.447 30.0371C156.412 30.7897 155.281 31.166 154.052 31.166C153.161 31.166 152.362 30.9723 151.653 30.585C150.945 30.1976 150.383 29.6691 149.968 28.9995C149.559 28.3244 149.354 27.5662 149.354 26.7251C149.354 25.9227 149.539 25.2061 149.91 24.5752C150.286 23.9443 150.798 23.4463 151.446 23.0811C152.099 22.7158 152.835 22.5332 153.654 22.5332C154.506 22.5332 155.253 22.7352 155.895 23.1392C156.542 23.5376 157.046 24.0938 157.406 24.8076C157.765 25.516 157.945 26.3405 157.945 27.2812V27.5469H151.554C151.653 27.9232 151.828 28.2552 152.077 28.543C152.331 28.8307 152.647 29.0549 153.023 29.2153C153.399 29.3758 153.823 29.4561 154.293 29.4561C155.178 29.4561 155.997 29.1683 156.75 28.5928L157.447 30.0371ZM151.471 26.3516H156.053C156.008 25.9365 155.881 25.5741 155.671 25.2642C155.466 24.9543 155.198 24.7135 154.866 24.542C154.539 24.3649 154.171 24.2764 153.762 24.2764C153.347 24.2764 152.976 24.3649 152.649 24.542C152.323 24.7191 152.057 24.9653 151.853 25.2808C151.648 25.5907 151.521 25.9476 151.471 26.3516ZM167.541 31H165.856L165.79 29.6636C165.491 30.1506 165.098 30.5241 164.611 30.7842C164.124 31.0387 163.548 31.166 162.884 31.166C161.816 31.166 160.972 30.8395 160.353 30.1865C159.738 29.528 159.431 28.6232 159.431 27.4722V22.6992H161.473V27.082C161.473 27.7738 161.647 28.3216 161.996 28.7256C162.35 29.124 162.829 29.3232 163.432 29.3232C164.057 29.3232 164.558 29.1102 164.935 28.6841C165.311 28.258 165.499 27.6908 165.499 26.9824V22.6992H167.541V31ZM171.799 31H169.757V22.6992H171.534L171.608 24.21C171.896 23.6787 172.284 23.2664 172.771 22.9731C173.263 22.6799 173.827 22.5332 174.464 22.5332C174.63 22.5332 174.799 22.5443 174.97 22.5664C175.147 22.5885 175.322 22.6217 175.493 22.666L175.244 24.5088C174.901 24.4092 174.569 24.3594 174.248 24.3594C173.761 24.3594 173.332 24.4728 172.961 24.6997C172.596 24.9266 172.311 25.242 172.106 25.646C171.902 26.0444 171.799 26.5093 171.799 27.0405V31ZM176.116 30.2861L176.581 28.5098C176.763 28.6924 176.99 28.8584 177.261 29.0078C177.532 29.1572 177.82 29.2762 178.125 29.3647C178.434 29.4478 178.736 29.4893 179.029 29.4893C179.422 29.4893 179.738 29.409 179.976 29.2485C180.214 29.0825 180.333 28.8667 180.333 28.6011C180.333 28.3908 180.261 28.2165 180.117 28.0781C179.973 27.9342 179.785 27.8097 179.552 27.7046C179.32 27.5939 179.065 27.486 178.789 27.3809C178.423 27.248 178.053 27.0903 177.676 26.9077C177.3 26.7196 176.985 26.4733 176.73 26.1689C176.481 25.859 176.356 25.4495 176.356 24.9404C176.356 24.4479 176.481 24.0218 176.73 23.6621C176.985 23.3024 177.339 23.0257 177.792 22.832C178.246 22.6328 178.775 22.5332 179.378 22.5332C180.33 22.5332 181.279 22.7712 182.225 23.2471L181.636 24.9238C181.459 24.791 181.243 24.6693 180.988 24.5586C180.734 24.4479 180.474 24.3594 180.208 24.293C179.942 24.2266 179.702 24.1934 179.486 24.1934C179.17 24.1934 178.919 24.2625 178.73 24.4009C178.542 24.5392 178.448 24.7218 178.448 24.9487C178.448 25.1037 178.501 25.2448 178.606 25.3721C178.711 25.4938 178.874 25.6128 179.096 25.729C179.317 25.8452 179.602 25.9753 179.951 26.1191C180.327 26.263 180.703 26.4318 181.08 26.6255C181.461 26.8136 181.78 27.0654 182.034 27.3809C182.294 27.6908 182.424 28.103 182.424 28.6177C182.424 29.1268 182.286 29.5723 182.009 29.9541C181.738 30.3359 181.356 30.6348 180.864 30.8506C180.377 31.0609 179.807 31.166 179.154 31.166C178.069 31.166 177.056 30.8727 176.116 30.2861Z" fill="black"/>
<path d="M34.7412 52.6807C34.2764 53.1592 33.7181 53.5329 33.0664 53.8018C32.4147 54.0706 31.7061 54.2051 30.9404 54.2051C30.1702 54.2051 29.4616 54.0729 28.8145 53.8086C28.1673 53.5443 27.6045 53.1729 27.126 52.6943C26.652 52.2113 26.2829 51.6462 26.0186 50.999C25.7588 50.3473 25.6289 49.6387 25.6289 48.873C25.6289 48.1029 25.7588 47.3942 26.0186 46.7471C26.2829 46.0954 26.652 45.5303 27.126 45.0518C27.6045 44.5732 28.1673 44.2018 28.8145 43.9375C29.4616 43.6732 30.1702 43.541 30.9404 43.541C31.7061 43.541 32.4124 43.6755 33.0596 43.9443C33.7113 44.2132 34.2718 44.5846 34.7412 45.0586L34.1055 45.7012C33.7181 45.2773 33.251 44.9469 32.7041 44.71C32.1618 44.4684 31.5671 44.3477 30.9199 44.3477C30.291 44.3477 29.71 44.4616 29.1768 44.6895C28.6436 44.9128 28.181 45.2295 27.7891 45.6396C27.3971 46.0452 27.0918 46.5238 26.873 47.0752C26.6589 47.6221 26.5518 48.2214 26.5518 48.873C26.5518 49.5247 26.6589 50.1263 26.873 50.6777C27.0918 51.2246 27.3971 51.7031 27.7891 52.1133C28.181 52.5189 28.6436 52.8356 29.1768 53.0635C29.71 53.2868 30.291 53.3984 30.9199 53.3984C31.5671 53.3984 32.1618 53.2799 32.7041 53.043C33.251 52.8014 33.7181 52.4688 34.1055 52.0449L34.7412 52.6807ZM36.6553 54V43.7461H37.4961V48.3877C37.9883 47.4808 38.8223 47.0273 39.998 47.0273C40.9049 47.0273 41.6113 47.2985 42.1172 47.8408C42.6276 48.3831 42.8828 49.1419 42.8828 50.1172V54H42.042V50.2881C42.042 49.4997 41.8438 48.8867 41.4473 48.4492C41.0508 48.0072 40.4993 47.7861 39.793 47.7861C39.082 47.7861 38.5215 48.0094 38.1113 48.4561C37.7012 48.9027 37.4961 49.5133 37.4961 50.2881V54H36.6553ZM48.0166 54.1367C47.3421 54.1367 46.736 53.9818 46.1982 53.6719C45.6605 53.362 45.2367 52.9404 44.9268 52.4072C44.6169 51.8695 44.4619 51.2611 44.4619 50.582C44.4619 49.9076 44.6169 49.3037 44.9268 48.7705C45.2367 48.2327 45.6605 47.8089 46.1982 47.499C46.736 47.1846 47.3421 47.0273 48.0166 47.0273C48.6865 47.0273 49.2881 47.1846 49.8213 47.499C50.3545 47.8089 50.776 48.2327 51.0859 48.7705C51.3958 49.3037 51.5508 49.9076 51.5508 50.582C51.5508 51.2565 51.3958 51.8626 51.0859 52.4004C50.776 52.9382 50.3545 53.362 49.8213 53.6719C49.2881 53.9818 48.6865 54.1367 48.0166 54.1367ZM48.0098 53.3779C48.5202 53.3779 48.9759 53.2549 49.377 53.0088C49.7826 52.7627 50.1016 52.43 50.334 52.0107C50.571 51.5869 50.6895 51.1084 50.6895 50.5752C50.6895 50.0511 50.571 49.5794 50.334 49.1602C50.1016 48.7363 49.7826 48.4014 49.377 48.1553C48.9759 47.9092 48.5202 47.7861 48.0098 47.7861C47.4993 47.7861 47.0413 47.9092 46.6357 48.1553C46.2301 48.4014 45.9089 48.7363 45.6719 49.1602C45.4395 49.5794 45.3232 50.0511 45.3232 50.5752C45.3232 51.1084 45.4395 51.5869 45.6719 52.0107C45.9089 52.43 46.2301 52.7627 46.6357 53.0088C47.0413 53.2549 47.4993 53.3779 48.0098 53.3779ZM53.7451 44.7646C53.5856 44.7646 53.4512 44.71 53.3418 44.6006C53.237 44.4867 53.1846 44.3499 53.1846 44.1904C53.1846 44.0355 53.237 43.9033 53.3418 43.7939C53.4512 43.6846 53.5856 43.6299 53.7451 43.6299C53.9092 43.6299 54.0459 43.6846 54.1553 43.7939C54.2692 43.9033 54.3262 44.0355 54.3262 44.1904C54.3262 44.3499 54.2692 44.4867 54.1553 44.6006C54.0459 44.71 53.9092 44.7646 53.7451 44.7646ZM54.1689 54H53.3281V47.1641H54.1689V54ZM56.0146 53.4053L56.2607 52.626C56.4294 52.7809 56.6162 52.9131 56.8213 53.0225C57.0309 53.1318 57.2474 53.2161 57.4707 53.2754C57.6986 53.3346 57.9287 53.3643 58.1611 53.3643C58.626 53.3643 59.0042 53.2503 59.2959 53.0225C59.5876 52.7946 59.7334 52.4984 59.7334 52.1338C59.7334 51.874 59.6605 51.6621 59.5146 51.498C59.3688 51.3294 59.1774 51.1859 58.9404 51.0674C58.7035 50.9489 58.4528 50.8372 58.1885 50.7324C57.8831 50.6139 57.5846 50.4818 57.293 50.3359C57.0013 50.1855 56.7598 49.9919 56.5684 49.7549C56.3815 49.5179 56.2881 49.2057 56.2881 48.8184C56.2881 48.4538 56.377 48.1393 56.5547 47.875C56.737 47.6061 56.9899 47.3988 57.3135 47.2529C57.6416 47.1025 58.0199 47.0273 58.4482 47.0273C59.0635 47.0273 59.6696 47.1777 60.2666 47.4785L60.0068 48.2373C59.8656 48.1507 59.7061 48.0755 59.5283 48.0117C59.3506 47.9434 59.1683 47.891 58.9814 47.8545C58.7946 47.818 58.6169 47.7998 58.4482 47.7998C58.0609 47.7998 57.7487 47.8932 57.5117 48.0801C57.2747 48.2624 57.1562 48.5039 57.1562 48.8047C57.1562 49.0007 57.2087 49.1715 57.3135 49.3174C57.4229 49.4587 57.5869 49.5908 57.8057 49.7139C58.0244 49.8369 58.2979 49.9668 58.626 50.1035C58.9404 50.2311 59.248 50.377 59.5488 50.541C59.8496 50.7005 60.098 50.9056 60.2939 51.1562C60.4945 51.4069 60.5947 51.7327 60.5947 52.1338C60.5947 52.5257 60.4922 52.8743 60.2871 53.1797C60.0866 53.4805 59.8063 53.7152 59.4463 53.8838C59.0908 54.0524 58.6761 54.1367 58.2021 54.1367C57.4137 54.1367 56.6846 53.8929 56.0146 53.4053ZM62.8506 44.7646C62.6911 44.7646 62.5566 44.71 62.4473 44.6006C62.3424 44.4867 62.29 44.3499 62.29 44.1904C62.29 44.0355 62.3424 43.9033 62.4473 43.7939C62.5566 43.6846 62.6911 43.6299 62.8506 43.6299C63.0146 43.6299 63.1514 43.6846 63.2607 43.7939C63.3747 43.9033 63.4316 44.0355 63.4316 44.1904C63.4316 44.3499 63.3747 44.4867 63.2607 44.6006C63.1514 44.71 63.0146 44.7646 62.8506 44.7646ZM63.2744 54H62.4336V47.1641H63.2744V54ZM65.1201 53.4053L65.3662 52.626C65.5348 52.7809 65.7217 52.9131 65.9268 53.0225C66.1364 53.1318 66.3529 53.2161 66.5762 53.2754C66.804 53.3346 67.0342 53.3643 67.2666 53.3643C67.7314 53.3643 68.1097 53.2503 68.4014 53.0225C68.693 52.7946 68.8389 52.4984 68.8389 52.1338C68.8389 51.874 68.766 51.6621 68.6201 51.498C68.4743 51.3294 68.2829 51.1859 68.0459 51.0674C67.8089 50.9489 67.5583 50.8372 67.2939 50.7324C66.9886 50.6139 66.6901 50.4818 66.3984 50.3359C66.1068 50.1855 65.8652 49.9919 65.6738 49.7549C65.487 49.5179 65.3936 49.2057 65.3936 48.8184C65.3936 48.4538 65.4824 48.1393 65.6602 47.875C65.8424 47.6061 66.0954 47.3988 66.4189 47.2529C66.7471 47.1025 67.1253 47.0273 67.5537 47.0273C68.1689 47.0273 68.7751 47.1777 69.3721 47.4785L69.1123 48.2373C68.971 48.1507 68.8115 48.0755 68.6338 48.0117C68.4561 47.9434 68.2738 47.891 68.0869 47.8545C67.9001 47.818 67.7223 47.7998 67.5537 47.7998C67.1663 47.7998 66.8542 47.8932 66.6172 48.0801C66.3802 48.2624 66.2617 48.5039 66.2617 48.8047C66.2617 49.0007 66.3141 49.1715 66.4189 49.3174C66.5283 49.4587 66.6924 49.5908 66.9111 49.7139C67.1299 49.8369 67.4033 49.9668 67.7314 50.1035C68.0459 50.2311 68.3535 50.377 68.6543 50.541C68.9551 50.7005 69.2035 50.9056 69.3994 51.1562C69.5999 51.4069 69.7002 51.7327 69.7002 52.1338C69.7002 52.5257 69.5977 52.8743 69.3926 53.1797C69.1921 53.4805 68.9118 53.7152 68.5518 53.8838C68.1963 54.0524 67.7816 54.1367 67.3076 54.1367C66.5192 54.1367 65.79 53.8929 65.1201 53.4053ZM70.999 53.4053L71.2451 52.626C71.4137 52.7809 71.6006 52.9131 71.8057 53.0225C72.0153 53.1318 72.2318 53.2161 72.4551 53.2754C72.6829 53.3346 72.9131 53.3643 73.1455 53.3643C73.6104 53.3643 73.9886 53.2503 74.2803 53.0225C74.5719 52.7946 74.7178 52.4984 74.7178 52.1338C74.7178 51.874 74.6449 51.6621 74.499 51.498C74.3532 51.3294 74.1618 51.1859 73.9248 51.0674C73.6878 50.9489 73.4372 50.8372 73.1729 50.7324C72.8675 50.6139 72.569 50.4818 72.2773 50.3359C71.9857 50.1855 71.7441 49.9919 71.5527 49.7549C71.3659 49.5179 71.2725 49.2057 71.2725 48.8184C71.2725 48.4538 71.3613 48.1393 71.5391 47.875C71.7214 47.6061 71.9743 47.3988 72.2979 47.2529C72.626 47.1025 73.0042 47.0273 73.4326 47.0273C74.0479 47.0273 74.654 47.1777 75.251 47.4785L74.9912 48.2373C74.8499 48.1507 74.6904 48.0755 74.5127 48.0117C74.335 47.9434 74.1527 47.891 73.9658 47.8545C73.779 47.818 73.6012 47.7998 73.4326 47.7998C73.0452 47.7998 72.7331 47.8932 72.4961 48.0801C72.2591 48.2624 72.1406 48.5039 72.1406 48.8047C72.1406 49.0007 72.193 49.1715 72.2979 49.3174C72.4072 49.4587 72.5713 49.5908 72.79 49.7139C73.0088 49.8369 73.2822 49.9668 73.6104 50.1035C73.9248 50.2311 74.2324 50.377 74.5332 50.541C74.834 50.7005 75.0824 50.9056 75.2783 51.1562C75.4788 51.4069 75.5791 51.7327 75.5791 52.1338C75.5791 52.5257 75.4766 52.8743 75.2715 53.1797C75.071 53.4805 74.7907 53.7152 74.4307 53.8838C74.0752 54.0524 73.6605 54.1367 73.1865 54.1367C72.3981 54.1367 71.6689 53.8929 70.999 53.4053ZM83.29 53.1455C82.4515 53.8063 81.5218 54.1367 80.501 54.1367C79.7946 54.1367 79.1611 53.9795 78.6006 53.665C78.0446 53.346 77.6071 52.9131 77.2881 52.3662C76.9691 51.8193 76.8096 51.1995 76.8096 50.5068C76.8096 49.8369 76.9577 49.2399 77.2539 48.7158C77.5547 48.1917 77.9648 47.7793 78.4844 47.4785C79.0039 47.1777 79.5941 47.0273 80.2549 47.0273C80.9248 47.0273 81.515 47.1868 82.0254 47.5059C82.5358 47.8203 82.9346 48.2578 83.2217 48.8184C83.5088 49.3743 83.6523 50.0192 83.6523 50.7529V50.9648H77.7188C77.7734 51.4434 77.9307 51.8626 78.1904 52.2227C78.4548 52.5827 78.792 52.863 79.2021 53.0635C79.6123 53.264 80.0726 53.3643 80.583 53.3643C81.4215 53.3643 82.1917 53.0863 82.8936 52.5303L83.29 53.1455ZM77.6914 50.2402H82.8662C82.8252 49.7526 82.6908 49.3265 82.4629 48.9619C82.235 48.5973 81.9342 48.3125 81.5605 48.1074C81.1914 47.9023 80.7699 47.7998 80.2959 47.7998C79.8174 47.7998 79.3867 47.9023 79.0039 48.1074C78.6257 48.3125 78.3203 48.5996 78.0879 48.9688C77.86 49.3333 77.7279 49.7572 77.6914 50.2402ZM90.7139 54H84.8213V53.501L89.3057 47.9229H85.0332V47.1641H90.5635V47.6084L86.0312 53.2412H90.7139V54ZM101.959 54H101.214L101.187 52.7148C100.945 53.1751 100.612 53.5283 100.188 53.7744C99.7692 54.016 99.2656 54.1367 98.6777 54.1367C97.7754 54.1367 97.0645 53.8633 96.5449 53.3164C96.0299 52.765 95.7725 52.0085 95.7725 51.0469V47.1641H96.6133V50.9922C96.6133 51.7214 96.8115 52.3001 97.208 52.7285C97.6045 53.1523 98.14 53.3643 98.8145 53.3643C99.5117 53.3643 100.07 53.141 100.489 52.6943C100.909 52.2432 101.118 51.6439 101.118 50.8965V47.1641H101.959V54ZM110.449 54H109.608V50.1719C109.608 49.4427 109.408 48.8662 109.007 48.4424C108.606 48.014 108.066 47.7998 107.387 47.7998C106.685 47.7998 106.122 48.0254 105.698 48.4766C105.274 48.9232 105.062 49.5202 105.062 50.2676V54H104.222V47.1641H104.967L104.994 48.4492C105.231 47.9889 105.564 47.638 105.992 47.3965C106.421 47.1504 106.931 47.0273 107.523 47.0273C108.435 47.0273 109.15 47.3008 109.67 47.8477C110.189 48.3945 110.449 49.151 110.449 50.1172V54ZM122.289 54H121.448V50.1719C121.448 49.4427 121.248 48.8662 120.847 48.4424C120.446 48.014 119.906 47.7998 119.227 47.7998C118.525 47.7998 117.962 48.0254 117.538 48.4766C117.114 48.9232 116.902 49.5202 116.902 50.2676V54H116.062V47.1641H116.807L116.834 48.4492C117.071 47.9889 117.404 47.638 117.832 47.3965C118.26 47.1504 118.771 47.0273 119.363 47.0273C120.275 47.0273 120.99 47.3008 121.51 47.8477C122.029 48.3945 122.289 49.151 122.289 50.1172V54ZM127.423 54.1367C126.748 54.1367 126.142 53.9818 125.604 53.6719C125.067 53.362 124.643 52.9404 124.333 52.4072C124.023 51.8695 123.868 51.2611 123.868 50.582C123.868 49.9076 124.023 49.3037 124.333 48.7705C124.643 48.2327 125.067 47.8089 125.604 47.499C126.142 47.1846 126.748 47.0273 127.423 47.0273C128.093 47.0273 128.694 47.1846 129.228 47.499C129.761 47.8089 130.182 48.2327 130.492 48.7705C130.802 49.3037 130.957 49.9076 130.957 50.582C130.957 51.2565 130.802 51.8626 130.492 52.4004C130.182 52.9382 129.761 53.362 129.228 53.6719C128.694 53.9818 128.093 54.1367 127.423 54.1367ZM127.416 53.3779C127.926 53.3779 128.382 53.2549 128.783 53.0088C129.189 52.7627 129.508 52.43 129.74 52.0107C129.977 51.5869 130.096 51.1084 130.096 50.5752C130.096 50.0511 129.977 49.5794 129.74 49.1602C129.508 48.7363 129.189 48.4014 128.783 48.1553C128.382 47.9092 127.926 47.7861 127.416 47.7861C126.906 47.7861 126.448 47.9092 126.042 48.1553C125.636 48.4014 125.315 48.7363 125.078 49.1602C124.846 49.5794 124.729 50.0511 124.729 50.5752C124.729 51.1084 124.846 51.5869 125.078 52.0107C125.315 52.43 125.636 52.7627 126.042 53.0088C126.448 53.2549 126.906 53.3779 127.416 53.3779ZM143.392 54H142.551V50.2881C142.551 49.4997 142.373 48.8867 142.018 48.4492C141.662 48.0072 141.165 47.7861 140.527 47.7861C139.885 47.7861 139.379 48.0094 139.01 48.4561C138.641 48.8981 138.456 49.5088 138.456 50.2881V54H137.615V50.2881C137.615 49.4997 137.438 48.8867 137.082 48.4492C136.727 48.0072 136.228 47.7861 135.585 47.7861C134.942 47.7861 134.437 48.0094 134.067 48.4561C133.698 48.8981 133.514 49.5088 133.514 50.2881V54H132.673V47.1641H133.37L133.404 48.5107C133.623 48.0231 133.933 47.654 134.334 47.4033C134.74 47.1527 135.223 47.0273 135.783 47.0273C136.389 47.0273 136.902 47.1732 137.321 47.4648C137.741 47.7565 138.041 48.1735 138.224 48.7158C138.429 48.1644 138.741 47.7451 139.16 47.458C139.584 47.1709 140.099 47.0273 140.705 47.0273C141.553 47.0273 142.211 47.2985 142.681 47.8408C143.155 48.3831 143.392 49.1419 143.392 50.1172V54ZM146.29 54H145.538V43.7461H146.379V48.4629C146.675 48.0208 147.065 47.6722 147.548 47.417C148.031 47.1572 148.569 47.0273 149.161 47.0273C149.831 47.0273 150.428 47.1823 150.952 47.4922C151.481 47.8021 151.898 48.2259 152.203 48.7637C152.508 49.2969 152.661 49.903 152.661 50.582C152.661 51.2565 152.508 51.8626 152.203 52.4004C151.898 52.9382 151.481 53.362 150.952 53.6719C150.428 53.9818 149.831 54.1367 149.161 54.1367C148.555 54.1367 148.006 54.0023 147.514 53.7334C147.026 53.4645 146.632 53.1045 146.331 52.6533L146.29 54ZM149.093 53.3779C149.608 53.3779 150.068 53.2572 150.474 53.0156C150.884 52.7695 151.207 52.4368 151.444 52.0176C151.681 51.5938 151.8 51.1175 151.8 50.5889C151.8 50.0557 151.681 49.5771 151.444 49.1533C151.207 48.7295 150.884 48.3968 150.474 48.1553C150.068 47.9092 149.608 47.7861 149.093 47.7861C148.601 47.7861 148.154 47.9001 147.753 48.1279C147.356 48.3512 147.035 48.6589 146.789 49.0508C146.548 49.4382 146.411 49.8802 146.379 50.377V50.7803C146.411 51.277 146.548 51.7214 146.789 52.1133C147.031 52.5052 147.35 52.8151 147.746 53.043C148.147 53.2663 148.596 53.3779 149.093 53.3779ZM155.211 54H154.37V47.1641H155.115L155.149 48.6748C155.377 48.1462 155.715 47.7406 156.161 47.458C156.612 47.1709 157.139 47.0273 157.74 47.0273C157.85 47.0273 157.961 47.0342 158.075 47.0479C158.194 47.057 158.31 47.0729 158.424 47.0957L158.321 47.8545C158.098 47.8089 157.875 47.7861 157.651 47.7861C157.177 47.7861 156.756 47.9023 156.387 48.1348C156.018 48.3672 155.728 48.6885 155.519 49.0986C155.313 49.5042 155.211 49.9736 155.211 50.5068V54ZM165.663 53.1455C164.825 53.8063 163.895 54.1367 162.874 54.1367C162.168 54.1367 161.534 53.9795 160.974 53.665C160.418 53.346 159.98 52.9131 159.661 52.3662C159.342 51.8193 159.183 51.1995 159.183 50.5068C159.183 49.8369 159.331 49.2399 159.627 48.7158C159.928 48.1917 160.338 47.7793 160.857 47.4785C161.377 47.1777 161.967 47.0273 162.628 47.0273C163.298 47.0273 163.888 47.1868 164.398 47.5059C164.909 47.8203 165.308 48.2578 165.595 48.8184C165.882 49.3743 166.025 50.0192 166.025 50.7529V50.9648H160.092C160.146 51.4434 160.304 51.8626 160.563 52.2227C160.828 52.5827 161.165 52.863 161.575 53.0635C161.985 53.264 162.446 53.3643 162.956 53.3643C163.795 53.3643 164.565 53.0863 165.267 52.5303L165.663 53.1455ZM160.064 50.2402H165.239C165.198 49.7526 165.064 49.3265 164.836 48.9619C164.608 48.5973 164.307 48.3125 163.934 48.1074C163.564 47.9023 163.143 47.7998 162.669 47.7998C162.19 47.7998 161.76 47.9023 161.377 48.1074C160.999 48.3125 160.693 48.5996 160.461 48.9688C160.233 49.3333 160.101 49.7572 160.064 50.2402ZM181.946 54H181.105V50.2881C181.105 49.4997 180.928 48.8867 180.572 48.4492C180.217 48.0072 179.72 47.7861 179.082 47.7861C178.439 47.7861 177.934 48.0094 177.564 48.4561C177.195 48.8981 177.011 49.5088 177.011 50.2881V54H176.17V50.2881C176.17 49.4997 175.992 48.8867 175.637 48.4492C175.281 48.0072 174.782 47.7861 174.14 47.7861C173.497 47.7861 172.991 48.0094 172.622 48.4561C172.253 48.8981 172.068 49.5088 172.068 50.2881V54H171.228V47.1641H171.925L171.959 48.5107C172.178 48.0231 172.488 47.654 172.889 47.4033C173.294 47.1527 173.777 47.0273 174.338 47.0273C174.944 47.0273 175.457 47.1732 175.876 47.4648C176.295 47.7565 176.596 48.1735 176.778 48.7158C176.983 48.1644 177.296 47.7451 177.715 47.458C178.139 47.1709 178.654 47.0273 179.26 47.0273C180.107 47.0273 180.766 47.2985 181.235 47.8408C181.709 48.3831 181.946 49.1419 181.946 50.1172V54ZM184.571 44.7646C184.412 44.7646 184.277 44.71 184.168 44.6006C184.063 44.4867 184.011 44.3499 184.011 44.1904C184.011 44.0355 184.063 43.9033 184.168 43.7939C184.277 43.6846 184.412 43.6299 184.571 43.6299C184.735 43.6299 184.872 43.6846 184.981 43.7939C185.095 43.9033 185.152 44.0355 185.152 44.1904C185.152 44.3499 185.095 44.4867 184.981 44.6006C184.872 44.71 184.735 44.7646 184.571 44.7646ZM184.995 54H184.154V47.1641H184.995V54ZM193.547 54H192.706V50.1719C192.706 49.4427 192.506 48.8662 192.104 48.4424C191.703 48.014 191.163 47.7998 190.484 47.7998C189.783 47.7998 189.22 48.0254 188.796 48.4766C188.372 48.9232 188.16 49.5202 188.16 50.2676V54H187.319V47.1641H188.064L188.092 48.4492C188.329 47.9889 188.661 47.638 189.09 47.3965C189.518 47.1504 190.029 47.0273 190.621 47.0273C191.533 47.0273 192.248 47.3008 192.768 47.8477C193.287 48.3945 193.547 49.151 193.547 50.1172V54ZM196.151 44.7646C195.992 44.7646 195.857 44.71 195.748 44.6006C195.643 44.4867 195.591 44.3499 195.591 44.1904C195.591 44.0355 195.643 43.9033 195.748 43.7939C195.857 43.6846 195.992 43.6299 196.151 43.6299C196.315 43.6299 196.452 43.6846 196.562 43.7939C196.675 43.9033 196.732 44.0355 196.732 44.1904C196.732 44.3499 196.675 44.4867 196.562 44.6006C196.452 44.71 196.315 44.7646 196.151 44.7646ZM196.575 54H195.734V47.1641H196.575V54ZM209.618 54H208.777V50.2881C208.777 49.4997 208.6 48.8867 208.244 48.4492C207.889 48.0072 207.392 47.7861 206.754 47.7861C206.111 47.7861 205.605 48.0094 205.236 48.4561C204.867 48.8981 204.683 49.5088 204.683 50.2881V54H203.842V50.2881C203.842 49.4997 203.664 48.8867 203.309 48.4492C202.953 48.0072 202.454 47.7861 201.812 47.7861C201.169 47.7861 200.663 48.0094 200.294 48.4561C199.925 48.8981 199.74 49.5088 199.74 50.2881V54H198.899V47.1641H199.597L199.631 48.5107C199.85 48.0231 200.16 47.654 200.561 47.4033C200.966 47.1527 201.449 47.0273 202.01 47.0273C202.616 47.0273 203.129 47.1732 203.548 47.4648C203.967 47.7565 204.268 48.1735 204.45 48.7158C204.655 48.1644 204.967 47.7451 205.387 47.458C205.811 47.1709 206.326 47.0273 206.932 47.0273C207.779 47.0273 208.438 47.2985 208.907 47.8408C209.381 48.3831 209.618 49.1419 209.618 50.1172V54ZM217.09 54H216.372L216.304 52.8584C216.076 53.2503 215.757 53.5625 215.347 53.7949C214.937 54.0228 214.469 54.1367 213.945 54.1367C213.462 54.1367 213.029 54.0433 212.646 53.8564C212.268 53.665 211.97 53.4053 211.751 53.0771C211.532 52.7445 211.423 52.3685 211.423 51.9492C211.423 51.5117 211.541 51.1243 211.778 50.7871C212.015 50.4499 212.341 50.1855 212.756 49.9941C213.171 49.7982 213.642 49.7002 214.171 49.7002C214.54 49.7002 214.907 49.748 215.271 49.8438C215.636 49.9395 215.962 50.0739 216.249 50.2471V49.7822C216.249 49.3675 216.158 49.012 215.976 48.7158C215.793 48.4196 215.543 48.194 215.224 48.0391C214.909 47.8796 214.551 47.7998 214.15 47.7998C213.804 47.7998 213.458 47.8636 213.111 47.9912C212.765 48.1143 212.441 48.2988 212.141 48.5449L211.84 47.8203C212.214 47.5605 212.612 47.3646 213.036 47.2324C213.465 47.0957 213.891 47.0273 214.314 47.0273C214.884 47.0273 215.374 47.1436 215.784 47.376C216.199 47.6084 216.52 47.9388 216.748 48.3672C216.976 48.791 217.09 49.2969 217.09 49.8848V54ZM214.082 53.3643C214.479 53.3643 214.836 53.2799 215.155 53.1113C215.479 52.9382 215.739 52.6966 215.935 52.3867C216.131 52.0723 216.235 51.7122 216.249 51.3066V51.0742C215.966 50.86 215.659 50.6982 215.326 50.5889C214.998 50.4749 214.656 50.418 214.301 50.418C213.722 50.418 213.241 50.557 212.858 50.835C212.48 51.113 212.291 51.4707 212.291 51.9082C212.291 52.1816 212.368 52.43 212.523 52.6533C212.683 52.8721 212.897 53.0452 213.166 53.1729C213.439 53.3005 213.745 53.3643 214.082 53.3643ZM220.111 54H219.229V43.4727H220.111V54Z" fill="#888EA8"/>
<line x1="35" y1="93.5" x2="255" y2="93.5" stroke="#282B3A" stroke-width="3"/>
<rect x="33" y="88" width="4" height="11" rx="2" fill="#282B3A"/>
<rect x="253" y="88" width="4" height="11" rx="2" fill="#282B3A"/>
<rect x="202" y="88" width="4" height="11" rx="2" fill="#282B3A"/>
<rect x="91" y="88" width="4" height="11" rx="2" fill="#282B3A"/>
<path d="M36.1825 74.2727V83H35.1257V75.3807H35.0746L32.9439 76.7955V75.7216L35.1257 74.2727H36.1825Z" fill="black"/>
<path d="M254.98 83.1193C254.48 83.1193 254.03 83.0199 253.629 82.821C253.229 82.6222 252.908 82.3494 252.666 82.0028C252.425 81.6562 252.293 81.2614 252.27 80.8182H253.293C253.333 81.2131 253.512 81.5398 253.83 81.7983C254.151 82.054 254.534 82.1818 254.98 82.1818C255.338 82.1818 255.656 82.098 255.935 81.9304C256.216 81.7628 256.436 81.5327 256.595 81.2401C256.757 80.9446 256.838 80.6108 256.838 80.2386C256.838 79.858 256.754 79.5185 256.587 79.2202C256.422 78.919 256.195 78.6818 255.905 78.5085C255.615 78.3352 255.284 78.2472 254.912 78.2443C254.645 78.2415 254.371 78.2827 254.09 78.3679C253.808 78.4503 253.577 78.5568 253.395 78.6875L252.406 78.5682L252.935 74.2727H257.469V75.2102H253.821L253.514 77.7841H253.566C253.744 77.642 253.969 77.5241 254.239 77.4304C254.509 77.3366 254.79 77.2898 255.083 77.2898C255.617 77.2898 256.093 77.4176 256.51 77.6733C256.931 77.9261 257.26 78.2727 257.499 78.7131C257.74 79.1534 257.861 79.6562 257.861 80.2216C257.861 80.7784 257.736 81.2756 257.486 81.7131C257.239 82.1477 256.898 82.4915 256.463 82.7443C256.029 82.9943 255.534 83.1193 254.98 83.1193Z" fill="black"/>
<circle cx="150" cy="93" r="9" fill="#FFBF25"/>
<defs>
<filter id="filter0_d_1017_2097" x="0" y="0" width="290" height="175" filterUnits="userSpaceOnUse" color-interpolation-filters="sRGB">
<feFlood flood-opacity="0" result="BackgroundImageFix"/>
<feColorMatrix in="SourceAlpha" type="matrix" values="0 0 0 0 0 0 0 0 0 0 0 0 0 0 0 0 0 0 127 0" result="hardAlpha"/>
<feMorphology radius="1" operator="dilate" in="SourceAlpha" result="effect1_dropShadow_1017_2097"/>
<feOffset dy="1"/>
<feGaussianBlur stdDeviation="2"/>
<feComposite in2="hardAlpha" operator="out"/>
<feColorMatrix type="matrix" values="0 0 0 0 0 0 0 0 0 0 0 0 0 0 0 0 0 0 0.25 0"/>
<feBlend mode="normal" in2="BackgroundImageFix" result="effect1_dropShadow_1017_2097"/>
<feBlend mode="normal" in="SourceGraphic" in2="effect1_dropShadow_1017_2097" result="shape"/>
</filter>
</defs>
</svg>
