<svg width="70" height="70" viewBox="0 0 70 70" fill="none" xmlns="http://www.w3.org/2000/svg">
<rect width="70" height="70" fill="#4F48ED"/>
<path d="M42.5 34.4874C44.1565 35.2358 49.0418 35.6138 49.5 31.1561C49.5 29.6561 48.9341 27.4033 45.2544 28.1464C42.266 29.6322 41.5872 32.3847 42.5 34.4874ZM42.5 34.4874C43.1883 38.945 46.003 39.5816 50.003 37.156M42.5 34.4874C40.2736 34.5349 38.3291 34.9855 37 37.156" stroke="#F4F4F4" stroke-width="2" stroke-linecap="round" stroke-linejoin="round"/>
<path d="M39.8066 32.7033C42.9769 30.452 50.3325 24.8978 51.5241 20.9014C52.9693 16.0546 50.2944 10.975 45.5523 9.5611C40.8103 8.14716 35.7904 10.9324 34.3452 15.7792C33.1536 19.7756 36.2664 28.4511 37.6861 32.071C38.0278 32.9347 39.0478 33.2388 39.8066 32.7033V32.7033ZM42.0621 21.2668C40.4829 20.7959 39.5902 19.1007 40.0715 17.4866C40.5528 15.8725 42.228 14.9431 43.8072 15.4139C45.3864 15.8848 46.2791 17.5799 45.7978 19.194C45.3165 20.8081 43.6413 21.7376 42.0621 21.2668Z" fill="#FFBF25"/>
<path d="M20.0237 21.1213C20.0237 21.1213 16.9666 40 21.4183 40C25.8701 40 25.3136 28.1002 28.3741 28.1002C31.4347 28.1002 30.6166 44.8683 36.9993 32.9948C43.382 21.1213 41.3748 14.4309 50 17.9269" stroke="#F4F4F4" stroke-width="4" stroke-linecap="round" stroke-linejoin="round"/>
<path d="M20.0237 21.1213C20.0237 21.1213 16.9666 40 21.4183 40C25.8701 40 25.3136 28.1002 28.3741 28.1002C31.4347 28.1002 30.6166 44.8683 36.9993 32.9948C43.382 21.1213 41.3748 14.4309 50 17.9269" stroke="#282B3A" stroke-linecap="round" stroke-linejoin="round" stroke-dasharray="6 6"/>
<path d="M8.25 57V39.4219H14.9414C16.9648 39.4219 18.5273 39.832 19.6289 40.6523C20.7305 41.4727 21.2812 42.6328 21.2812 44.1328C21.2812 44.9688 21.0938 45.7148 20.7188 46.3711C20.3438 47.0195 19.8359 47.5273 19.1953 47.8945C20.1484 48.207 20.8867 48.7148 21.4102 49.418C21.9336 50.1211 22.1953 50.9844 22.1953 52.0078C22.1953 53.0234 21.9492 53.9062 21.457 54.6562C20.9648 55.3984 20.2656 55.9766 19.3594 56.3906C18.4531 56.7969 17.3828 57 16.1484 57H8.25ZM12.8906 46.5117H14.625C15.2891 46.5117 15.8008 46.3789 16.1602 46.1133C16.5273 45.8398 16.7109 45.4531 16.7109 44.9531C16.7109 44.4922 16.5273 44.1289 16.1602 43.8633C15.793 43.5977 15.2812 43.4648 14.625 43.4648H12.8906V46.5117ZM12.8906 52.957H14.9414C15.4727 52.957 15.9258 52.8984 16.3008 52.7812C16.6758 52.6562 16.9609 52.4805 17.1562 52.2539C17.3516 52.0195 17.4492 51.7383 17.4492 51.4102C17.4492 51.082 17.3633 50.8086 17.1914 50.5898C17.0195 50.3633 16.7656 50.1953 16.4297 50.0859C16.1016 49.9688 15.6992 49.9102 15.2227 49.9102H12.8906V52.957ZM28.5938 39.4219V57H23.9531V39.4219H28.5938ZM35.5781 57H30.9375V39.4219H35.5781V46.7695C35.9922 46.1602 36.3867 45.5977 36.7617 45.082C37.1367 44.5664 37.4531 44.1484 37.7109 43.8281L41.2148 39.4219H46.6758L40.1953 47.5664L47.8477 57H41.8594L37.2305 51.293L35.5781 53.3789V57ZM49.0312 57V39.4219H60.75V43.4648H53.6719V46.1836H60.2812V50.2266H53.6719V52.957H60.8672V57H49.0312Z" fill="#F4F4F4"/>
</svg>
