<svg width="690" height="188" fill="none" xmlns="http://www.w3.org/2000/svg"><path d="m33.86 91.104-1.583 3.957 1.332 4.048c4 12.144 16.144 27.465 34.724 39.793 18.993 12.602 45.507 22.66 79.454 23.495 68.847 1.693 103.631-39.509 112.603-62.73l1.79-4.635-2.09-4.506c-10.907-23.509-48.209-69.752-112.121-69.176-31.735.286-57.854 11.8-77.068 25.956-18.942 13.956-31.946 31.06-37.042 43.798Z" stroke="#0500F7" stroke-width="23.4"/><path d="M302.429 151h-1.64l-.137-.683h-.82v-.82l-.683-.137-.137-.273v-.41h-2.323v-.683h-1.503l-.136-.41v-.41h-.82v-.547h-.683l-.137-.683-.273-2.187-.137-2.596v-.957h.683l-.273-2.869h.82l-.41-3.69-.273-4.373-.137-.547.683-.136v-.82l-.136-.683h.819v-1.23h.82l-.136-.684h-.82v-.82h.82l-.274-3.143h.684l-.547-6.012-.547-6.423-.136-.683h.683l.137-1.64h.546v-2.323h.683l-.409-4.51h.819l-.546-6.833.683-.136-.137-.683.82-.137-.41-4.51h.684l-.274-4.783h.82l-.137-2.186h.684l-.274-2.46h.684l-.137-2.186.957-.137-.274-2.87.547-.273v-1.23h.683l-.137-.683.137-.273.683-.137-.136-2.187h.956l-.273-3.143h.683l-.273-3.143h.683l-.41-3.69.82-.136-.137-2.323h.684l-.137-1.367.956-.136v-.41l-.136-.41h.683v-.82h.82l-.137-1.503h.683l-.273-2.323h.683v-.684h.82v-.82h1.503l-.136-1.503 2.323-.136v-.684h3.826v-.273l-.137-.41h.957l.683.137v.546h1.64v.684h.683l.137.956v.683h.819l.274.82h1.503v.684h.683l.137.683h.683v.956l.137.684h.819v.546l.137.274h1.503l.137 1.503h.683l.137.41v.41l.82.136.136 1.367.683.137.274 1.366.546.137.274 1.503.82.137v.683l.136.82h.683v.41l.137.273.82.137.273 2.186h.683l.137 1.503h.683v.82l.137.684h.683l.137.683.136 1.23v.41h.684l.136 1.64h.82v.273l.274.547.546.136.137.41.136 1.503.137.957h.82l.137 2.323.683.137.136.683V78.3l.137.41h.82l.273 2.323h.547l.273.957.137 1.23v1.093l.136.546h.684l.273 3.144h.82v.82l.683.136.41 3.826h.82v.41l.137 1.504.136.956h.683l.137.683.137 1.094v.683h.82l.136 2.186h.683l.274 3.143h.683l.137 1.367.136 1.64h.82l.137.41v.546h.683l.137.547.41 3.28h.683l.273 1.503h.547l.273.683v.82l.683.137.273.683v.82h.684l.82 9.292h.546l.41 2.87.683.273.137.684h-.683l.41 5.056.273 5.056h-.547l.274 3.006h-.684l.137 1.504h-1.64l.137.683h-1.503v.547l-.137.41h-1.503l.137.683h-3.143l-.137-.683h-1.503v-.684h-.546l-1.23-.273h-.547l-.136-.683h-1.504v-.684h-.683v-.273l-.136-1.23-.274-.956h-.82l-.41-4.51.957-.137v-.683l-.683-.137-.41-1.503h-.683l-.274-2.869-.273-3.417-.273-.546h-.547v-.82l-.273-.684h-.683v-.82h-3.143v-.409l-.137-.41h-15.304l-.957.136.137.274v.273l-8.336.136v.82h-1.639l.136.684v.82h-.819v.683l.136.546h-.546l.273 3.007h-.957l.41 5.466h-.683l.137.547v2.323l.136 1.776h-.683l.137.684-.137 1.229.137.41h-.547l.137 2.323h-.957l.137 1.504h-.547v.82h-.683v.683h-.956l.136.82h-1.503v.82h-.683v.41l.137.273Zm12.981-45.232v.683h16.944v-.683h.82l-.547-5.467h-.82l-.136-2.186h-.683l-.274-3.143h-.82l-.136-1.093-.137-1.367-.137-.683h-.683l-.273-3.006-.82-.274-.137-1.23-.683-.136v-.137l-.136-.82v-.547h-.684v-.82l-.82-.136-.136-.547-.137-.683h-.683l-.137-1.64h-.82l-.273-2.323-.683-.137v-.683h-.82l-.137-.82v-.683l-.82-.137-.136-.546h-3.006l.136.683v.683h-.82l.137.82h-.82l.137 2.323h-.683l.136 1.503h-.956L315 84.86h-.683v.82h-.683v.274l.136 1.503.137 1.093-.82.273.137 1.504h-.684v1.503h-.82l.41 4.646h-.683l.273 3.826h-.683l.137.684.683.136.137 2.323h.683l.273 1.64h.82v.684h1.64ZM456.164 151h-2.686l-.122-.27v-.541h-.733v-.675h-.61v-.811l-2.075-.135-.122-.27v-.27h-1.954v-.811h-.732v-.675h-.611v-3.918h.611v-3.783h-.611v-22.562l-.366-.405h-.366v-7.701h-.61v-.27l.244-.406h.244l.122-3.107v-2.972h-.61v-.811h.61v-.675h-.61V90.61l-.733-.135-.122-.27v-.27h.855v-.811l-.733-.135v-.676l.733-.135v-1.351h-.855v-2.972h-.244l-.366-.54v-.27h.61v-2.297h-.488v-.946l-.122-1.216-.367-.27h-.366v-2.973h-.61V69.94h-.733v-.675h-2.197v.675h-.61v.811h-.733v1.486h-.61v.676l-.733.27-.122 1.486h-.488v.675h-.855v1.486h-.488l-.122.811v.81h-.733v.271l-.366.54h-.244v.676h-.732v1.486h-.611v.81h-.732l-.122.676v.946h-.611v.675h-.732v.81h-.611v1.487h-.732v1.486h-.61V89.8l-.489.135-.61.676h-.244l-.122 1.486h-.733v.81h-.61v.676l-.733.135v1.351l-.61.135v1.486h-.733v.811h-.61v.675l-.488.27-.366.27-.245.271-.366.27-.366.406h-.244l-.122.945v.811h-.611v1.486h-1.343v.676l-.732.135v1.351l-1.465.135v.81h-1.343v.676h-1.343v.81h-.61l-.244.676h-1.831l-.123.811-2.075.135-2.808-.135h-.61v-.676l-1.343-.135v-.676h-.854v-.81h-.245l-.244-.405v-.271h-1.465v-.81h-.732v-1.621h-.611v-2.162h-.732v-.946l-.122-.81h-.488l-.122-.27v-.406h-.733l.122-.54h-.732V97.5h-.733v-.81h-.61v-1.487h-.733v-1.216l-.366-.27-.244-.135-.122-.27-.366-.405h-.244v-.676l-.123-.946v-.675h-.61v-.676h-.732v-2.431h-.611V85.34h-.732v-.81h-.611v-.676l-.732-.135-.122-.406v-.27h-.733v.81h-.61v3.648h.61v3.108h.733v2.297l.122 2.702.244.405h.244v.54l.244 6.485v6.755h.489v.676l.122.945v.676h.732v8.241h-.732v1.621h.732v2.297h.611v15.266h-.611v.811l-.732.135v1.351l-.611.135v1.351l-.854.135v.676h-.733v.81h-.61v.676h-.733v.946h-2.807v.675h-.611v.811h-1.343v.675h-2.075v-.675h-.732v-.811h-.733v-.675h-.61v-.946h-.733v-3.648h-.61v-3.647l-.488-.271h-.245v-.54l-.122-1.216v-.54h-.61v-2.973h.61v-.675l.122-6.08v-5.539h.611v-.54l.122-2.027-.122-2.161v-.541h-.611v-6.755l-.122-7.295v-.541h-.61v-1.62h-.732v-2.973h.732v-1.486h-.732v-1.621h-.489l-.122-2.703v-2.701h-.732v-6.08h-.611V77.64h.611v-6.215h-.611V69.94h-.732v-1.486l-.611-.135-.122-2.161h-.732V64.67h.732v-.811l-.61-.135-.122-2.973h-.611V56.16H369v-2.161h.732v-.811h.611v-.405l.122-.406h.732l-.122-.405v-.27l1.465-.135v-.54l1.343-.136v-.81h1.343v-1.487h1.465v-.675h1.953v-.81l1.465-.136v-.81h.733v-.676h4.761v.27l.366.406h.366v.945h.61v.81h.733v.676h1.343v1.486h.61v.27l.244.541 1.343.135v.27l.366.27.245.27v.541h.732v.81h.61v.812h1.343v2.161h.855v.81h.61v.811h.733v.81h.61l.122 1.352.611.135v.675h.61l.122 2.297.732.135v.676h.611v1.486h.732v.405l.122.406.489.135v3.647h.732l.122 2.297h.489v2.432h.854v2.972h.488v.27l.123.406.732.135v2.297h.61v1.486h.733v1.62h.61v.676h.733v1.486h.61l.122.676v1.621h.366l.245.405.122.27.61.136v.81h2.075v-.81l.855-.135v-.676h.61v-.27l.244-.405.489-.136v-2.161h.61v-.81h.733v-.676h.61v-.946l.122-.675h.733v-.811h1.342v-1.486h.611V78.45l1.343-.135.122-1.487h.61v-1.486h.611v-.405l.122-.27h.732v-.54l.122-.406h.488v-1.35l.733-.136v-.81h.61v-.676h.733v-1.486h.61v-1.351l.122-1.486.244-.27h1.099V64.67h.733v-.811h.61v-1.486h.732v-.81l.122-.812h.245l.244-.405.122-.27h1.221v-.54l.488-.27.366-.406v-1.08h.611v-1.622h.732v-1.486h.61l.123-1.486h.61v-.405l.122-.27.244-.136.244-.405.122-.405h.489l.61-.676h.244v-.81h.733v-1.487h1.343v-.675h.61v-.946l.244-.81.611-.136v-.54h.732v-.81h3.296v-.27l.122-.406h3.418v.675h.611v.811h.732v.54l.611.136.122 1.486 1.343.27v.675h.488l.244.27v.541h.61v1.486h.489l.244.405.366.27.244.136v2.297h.733v.675l.122 1.08.244.406h.366v6.89l.733.135.122 1.487v1.486h.488v6.08h.366l.244.134.245 5.945.488.135.122 2.972v2.972l.61.135v2.702l.122 2.972.245.406h.244v.54l.122 4.594v3.918l.732.27v2.972h-.732v1.621h.732v2.972h-.732v1.487l.488.135h.244v2.972h.611v1.486h-.611v.676h.611v.81l-.611.135v.676h.611v5.404h.366l.366.405v3.513h.611v.675h-.611v1.486h.611v4.594H463v2.296h-.488v4.324l-.244 4.053h-.611v2.296h-.732v.676h-.611v.811l-.854.135v.675h-.611v.811h-.732v.675h-.611v.811h-.732v.675h-.61V151ZM575 151h-3.833v-.739h-5.5v-.739h-.834v-.739H564v-.443l-.167-.444H563v-3.251h-1v-5.764h-.833v-8.276h-1v-2.365H561l.167-.147v-8.868h-1v-.739H561l.167-.887v-2.364l-1-.148v-.739h1v-5.025l-.167-.739h-.833v-1.625h-.834v-1.626h.834v-8.129l1-.147v-1.478l-1-.148v-3.99h-.834v-.887l-.166-1.921v-2.217h-.834v-.591l-.833-.148v-.74h-1v-.886h-.833v-.739h-1v-.887h-1.834v-.886H552v-2.365h-1v-2.66l-.167-.591h-.666L550 74.297h.833l.167-.591v-2.66h.833V69.42l.167-1.774h.833v-1.478h.834l.166-.443v-.443h.834v-1.626h.833l.167-1.626V58.78h.666l.334-1.774h.833v-.738h2.667v-.74L562 55.38v-.296l.167-.295L564 54.64v-.887h.833v-.739h.834v-.443l.166-.296 1.834-.148v-.739h1.666l.167-.443v-.295h.833v-.887h1.834v-.887H574l.167-.739H575v-.887h1.833v-.739h3.667v-.886h3.667v-.74h3.666V44H605.5v.887h1.667v.59l1.166.149h1.5l.167.148v.738h4.5v.74l1.833.147.167.74h.833v.738h2.834v.887H621l.167.295v.444l.833.148v.738h1.833v.74h1.667l.167.443v.443h.833l.167.74.833.147v.739h.833l.167 1.626h.833v.59l.167.888.333.147h.334v.74l1 .147v.739H632l.167.739.833.148.167.739v.739l.833.147v.74h.833v1.034l.167 1.182v.296h.667l.166.295v1.626l.167 1.33h.667l.166 4.138h.834v10.641h-1v6.503h-.834v1.626l-.833.147-.167 2.365H634v.739h-.833L633 96.318h-.833v2.512h-1v1.478l-.834.148v.443l-.166.296h-.834v.886h-.833v.444l-.167.295-.833.148v1.478h-1.833v.887h-1v.887h-.834v1.625H623v.739h-1l-.167.887h-.666v.443l-.167.296h-.833v4.138H622v.739h1.833v1.626l1.834.147v.739h.833v.444l.167.443h.833v.739l.833.148.167.296v.295h1.667v.887h2v.887H633l.167.739H634v.886h.833l.167.739v.739l.833.148v.887h.834v.739h1.833l.167.739h.833v.886h.833l.167 1.626h.833v.887h.834l.166 1.625v1.626h1v.739h.834v.887H645v8.128h-.833l-.167 2.365-.667.148v.739h-.5l-.833.147h-.667v.592l-1.833.147v.739H635v-.739h-1v-.739h-.667l-.833-.147h-.333v-.739l-1.834-.148v-.591l-1-.148v-.739H627.5v-.887h-2.667l-.166-.739h-.834v-1.625H623v-.739l-1.833-.148v-.443l-.167-.296h-.833v-.887h-1.834v-.887h-.833v-.738h-1v-.739l-.833-.148v-.296l-.167-.443h-.833v-.739l-.834-.148-.166-.295v-.444l-1.834-.148v-1.478H611v-.443l-.333-.443H610v-.739h-2.667v-.887h-2.166l-.667-.148v-.591l-1-.148v-.739h-.833v-.739l-1.834-.147v-.739H598v-.739h-4.667v-.887h-1.666v-.443l-.167-.296-1.667-.148v-.739h-2v-.886H586v-.739h-4.667v1.625h-.833v5.616l.833.148v1.626l.167 1.921v.296l.833.147v3.991l-.833.148v.738l.833.148v4.877h-1v2.365h-.833v1.626h-1.833v1.773h-1v.739h-.834v.739H575V151Zm7.333-47.293v.739h2v-.739H586v-.739l2.833-.148v-.591l1.834-.148v-.886h4.666v-.739l1.834-.148v-.739H598v-.739h1.833v-.739h2.667l3.333-.148h.5v-.739H609v-.886h1v-.74h.667l.833-.147h.333v-.739h1v-.739h.834v-.443l.166-.444h.667l.167-.739v-.886h.833v-.887h1v-.74l.167-.738.666-.148.167-1.626h.833v-9.754h-.833v-4.877h-1l-.167-1.625-.833-.148V69.42l-.833-.148v-.296l-.167-.295-.667-.148h-2v-.887h-4.5v-.739H605.5v-.886h-1v-.74h-1v-.738h-1.667v-.444l-.166-.443H600l-.167-.739-3.666-.148v-.739h-1l-1.667-.147-1 .147v.74h-3.667v.886H587l-.167.444v.443h-3.5v.295l-.166.444h-1.834v.739l-.833.147v.74h-.833v1.625h-1v2.365l-.834.148-.166 6.502h1v6.503h.833l.167 17.144h.833v.886h.833v1.626h1ZM513.2 151h-6.772v-.854h-6.772v-.853h-1.585v-.854l-1.729-.142-.144-.854h-5.043v-.569h-2.45v-.854h-.864l-.144-.996h-1.729v-.854h-.577v-.854h-.864v-.711h-.865l-.144-.854v-.853h-.864v-1.85h-.865v-.569l-.144-.854h-.432v-.711l-.144-1.281v-.711h-.865v-1.566h-.864v-2.561h-.865v-3.984h-1.008v-4.98l-.577-.142v-1.992l.144-.712h.433v-2.276l.864-.143v-1.422l.144-1.139h.865v-1.565h.864v-1.85h.865l.144-.711h5.763v.711h.865v.854h.864v1.85h.865v2.419h.576l.144 1.28v1.281h.721l.144 3.415h.864v1.565h.865v.854h1.008v.853h.577v1.85h1.008v.569h.865v1.85h.864v.854h1.585v.711h1.729v.712h6.917v-.712h2.449v-.711h1.585v-.854h.864v-.854h.865l.144-.996h.865v-.427h.72v-.569l.72-.142.289-.569h.72v-.569h.865v-.569h.864l.144-.712h.721v-.996h.72v-3.699h.865v-1.139h-.865v-2.845h-.72v-.57h-.721v-1.28h-1.008v-.569h-1.585v-.427l-1.009-.142v-.57h-.72v-.569h-.865v-.569h-.288l-1.297-.142h-.576l.144-.285v-.284h-.721v-.569h-1.44v-.427l-1.441-.285v-.427h-2.882v-.569h-1.153v-.569h-1.873v-.854h-.864v-.711l-2.45-.142v-.854h-1.585v-.854h-1.729v-.569l-.144-.142h-.576l-.288-.143v-.853h-1.729v-.285l-.144-.427h-.577v-.996h-1.729v-.854h-.864v-.711h-1.585v-.711h-.865v-.427l-.144-.285-.864-.142.144-.285v-.427h-1.009v-.711h-1.009v-.57l-.432-.142-.144-.71v-.712h-.864v-.712h-.865v-.854h-.864v-1.28h-1.009v-.712l-1.441-.142v-1.423h-1.009v-.569l-.864-.142v-2.134h-.865v-1.423h-.72v-2.846h-.864v-2.988H473V64.205h.865v-3.557h.864v-1.423h.72v-1.423l.865-.142V56.52h.864v-1.565l1.874-.142v-.712h1.585v-.711h.864v-.57h.865v-.853h.864l.144-.711h1.441v-.712l.865-.142v-.57h1.873v-.71h.576V47.7l.865-.143.144-.711h1.008v-.712h5.62l.144-.569 2.881-.142v-.712h.865V44h8.501v.854h3.602v.854h3.17l.144.71h2.45v.855h1.008v.853l.721.143v.853h.72l.288.285v.57h1.585v.568l1.009.142v.854h.72v.854h.577l.144.57v.284l.864.142v1.423h.865v1.707h.864l.144.996h.721v1.423h.72v1.423l.288 1.28h.577l.144.57v3.557l.864.142v6.545h-.864v1.708h-1.009v1.565h-.72v.854l-.721.142-.144.712-.72.142v.284l-.144.57h-6.772v-.854h-.721v-.854l-1.873-.142v-.854h-.864v-1.565h-.721v-.854h-.72l-.144-2.419-.721-.142-.144-3.415h-.864v-1.423l-.721-.142v-.854h-1.008v-.853h-1.585v-.854h-2.45v-.712h-3.602v.712h-3.746v.569h-.865v.711h-.864v.57l-1.009.142v.427h-.576v.569h-1.009v.711h-.864v.57h-1.729l-.144 1.138h-.577v2.419l-.864.142v2.134l-.865.142v1.566h.865v2.134h.864v.427h.577v1.138h1.008v.57h.865v.71h.864v1.139h1.009v.711h.576v.57h.865l.144.569h.864v.569h.865v.569h2.449v.854l1.729.142v1.565h1.009v.854h.576v.711h.865v.996h1.008v.854h1.585v.712h3.458l.144.995h2.306v.854h2.593v.712h.721l.288.996h4.034v.711h1.729l.144.854h.721l.144.427v.284l.72.285v.569l1.729.142v.712h1.729v.569h.865v.711l.864.143v.711h.721v.427l.144.284h.865v1.423h.864v.712h.72v.854h.721v.569h.864l.145.853h.864v1.281h.865v1.423h.72v2.988h.144l.432.142h.433v.427h-.865v.569l-.144 1.565.144 1.708v.427h.865v4.411h.72v7.968h-.72v1.565h-.865l-.144.427v.853h-.72v3.558h-.865v.711h-1.009v.711l-.576.143-.288.427v.853h-.721v.712l-.72.142v1.423h-.864v.427h-1.009v.853h-3.314v.712h-.865l-.144.854h-.576l-.288.711h-.721v.569h-.864v.712h-2.45v1.565h-1.008v.711h-1.873l-.144.569-1.009.285v.427h-1.153v.854h-2.161v.853h-1.585l-.144.427V151Z" fill="#000" fill-opacity=".65"/><path d="M137.116 79.087c1.414-3.02 4.192-8.495 8.049-8.728 3.858-.232 7.034 1.064 9.091 1.987 6.052 2.713 9.816 11.515 8.021 18.426-1.749 6.73-9.424 8.16-15.324 8.16-4.032 0-7.093-1.782-9.314-5.325-2.902-4.629-2.816-9.62-.523-14.52Z" fill="#0500F7" stroke="#0500F7" stroke-width="84" stroke-linecap="round"/><path d="M178 66c3.069-1.908 6.016-3.962 9-6M183 73.566 196.538 70" stroke="#F1F1F1" stroke-width="7.2" stroke-linecap="round"/><path d="M117 98c-3.665.565-7.337 1.102-11.011 1.63-.655.094-1.471.1-1.989.37M122 107c-2.384 1.198-4.501 3.058-7 4" stroke="#F1F1F1" stroke-width="8.2" stroke-linecap="round"/></svg>