<svg width="2101" height="1308" viewBox="0 0 2101 1308" fill="none" xmlns="http://www.w3.org/2000/svg">
<rect width="2101" height="1308" fill="#C53A1B"/>
<path d="M859 664C859 557.961 944.961 472 1051 472V472C1157.04 472 1243 557.961 1243 664V859H859V664Z" fill="#FAF9F2"/>
<path fill-rule="evenodd" clip-rule="evenodd" d="M1100.48 576.071H1020.64C1010.99 597.797 995.693 649.252 997.688 670.977C999.861 694.647 1021.72 718.265 1042.6 727.509C1042.6 727.509 1049.87 736.479 1053.58 743.014C1055.96 747.214 1057.76 751.96 1059.08 757.054C1060.39 751.962 1062.18 747.216 1064.56 743.014C1068.25 736.483 1071.22 733.565 1075.48 727.509C1096.43 718.58 1114.11 691.05 1117.45 670.977C1120.64 651.767 1107.47 599.703 1100.48 576.071ZM1095.26 587.506H1025.37C1016.92 606.523 1003.53 651.563 1005.28 670.579C1007.21 691.598 1026.08 712.227 1044.59 720.064C1044.59 720.064 1053.88 723.874 1060.01 723.576C1065.41 723.314 1073.42 719.623 1073.42 719.623C1091.75 711.807 1107.19 688.15 1110.11 670.579C1112.9 653.765 1101.37 608.191 1095.26 587.506Z" fill="#D59210"/>
<path d="M1059.07 820.716C1052.1 797.484 1049.96 781.494 1059.08 757.054C1068.21 781.486 1066.06 797.48 1059.07 820.716Z" fill="#D59210"/>
<path d="M1053.58 847.068H1005.67C1002.68 847.068 998.089 850.499 995.693 855.072C994.324 857.687 995.693 859.646 997.689 859.646H1124.44C1127.43 859.646 1126.88 856.606 1126.43 855.072C1125.44 851.642 1121.89 847.068 1116.9 847.068H1064.56C1064.56 847.068 1061.53 836.092 1059.07 820.716C1056.61 836.091 1053.58 847.068 1053.58 847.068Z" fill="#D59210"/>
<mask id="mask0_1180_69095" style="mask-type:alpha" maskUnits="userSpaceOnUse" x="964" y="522" width="312" height="295">
<path fill-rule="evenodd" clip-rule="evenodd" d="M1105.04 717.538C1090.14 722.462 1076.98 734.122 1068.47 749.956L1076.79 755.826C1076.71 755.972 1076.63 756.118 1076.55 756.264L1086.28 763.135L1086.24 763.213L1102.83 774.915L1102.82 774.921L1114.86 783.415L1126.89 791.909L1126.9 791.903L1143.41 803.559L1143.46 803.481L1151.77 809.352C1151.85 809.206 1151.93 809.059 1152.01 808.912L1163.25 816.846C1171.76 801.013 1174.94 782.305 1172.07 764.837C1169.2 747.369 1160.52 732.573 1147.96 723.702C1135.39 714.832 1119.95 712.615 1105.04 717.538ZM1149.51 807.15L1152.01 808.912L1152.04 808.852L1156.47 811.979C1163.9 798.156 1166.67 781.824 1164.17 766.574C1161.66 751.324 1154.09 738.406 1143.12 730.663C1132.14 722.919 1118.67 720.983 1105.65 725.281C1092.64 729.579 1081.15 739.76 1073.72 753.582L1076.82 755.767L1076.79 755.826L1081.81 759.371L1081.79 759.398L1086.51 762.725C1086.43 762.861 1086.36 762.998 1086.28 763.135L1102.87 774.838L1102.83 774.915L1114.83 783.386L1126.9 791.903L1126.94 791.825L1143.46 803.481C1143.53 803.344 1143.6 803.206 1143.67 803.068L1149.5 807.177L1149.51 807.15ZM1143.69 803.04L1149.51 807.15L1149.54 807.09L1152.04 808.852C1158.6 796.394 1161.02 781.755 1158.77 768.075C1156.49 754.212 1149.61 742.468 1139.63 735.428C1129.66 728.388 1117.41 726.629 1105.58 730.536C1093.9 734.392 1083.58 743.454 1076.82 755.767L1081.84 759.311L1081.81 759.371L1086.52 762.698L1086.51 762.725L1090.49 765.532C1090.42 765.653 1090.35 765.773 1090.29 765.894L1102.89 774.789L1102.87 774.838L1114.16 782.808L1126.94 791.825L1126.97 791.777L1139.94 800.932C1140 800.811 1140.07 800.69 1140.13 800.568L1143.67 803.068L1143.69 803.04ZM1140.15 800.54L1143.69 803.04L1143.72 802.981L1149.54 807.09C1155.59 795.8 1157.84 782.473 1155.79 770.028C1153.74 757.551 1147.55 746.982 1138.57 740.646C1129.59 734.31 1118.57 732.726 1107.92 736.243C1097.3 739.751 1087.92 748.046 1081.84 759.311L1086.56 762.639L1086.52 762.698L1090.5 765.505L1090.49 765.532L1094.41 768.298C1094.37 768.36 1094.34 768.422 1094.3 768.484L1102.99 774.614C1102.96 774.672 1102.93 774.731 1102.89 774.789L1106.06 777.024L1106.05 777.036L1115.08 783.406L1124.11 789.777L1124.11 789.765L1126.97 791.777C1127 791.717 1127.03 791.658 1127.06 791.598L1136.43 798.213C1136.46 798.151 1136.5 798.089 1136.53 798.027L1140.13 800.568L1140.15 800.54ZM1136.55 797.999L1140.15 800.54L1140.18 800.481L1143.72 802.981C1148.62 793.555 1150.43 782.513 1148.73 772.189C1147 761.653 1141.77 752.728 1134.19 747.377C1126.61 742.027 1117.3 740.69 1108.3 743.659C1099.49 746.569 1091.7 753.381 1086.56 762.639L1090.53 765.446L1090.5 765.505L1094.42 768.271L1094.41 768.298L1097.56 770.528L1097.56 770.54L1103.09 774.442C1103.06 774.499 1103.02 774.556 1102.99 774.614L1106.16 776.848C1106.12 776.906 1106.09 776.965 1106.06 777.024L1115.11 783.413L1124.11 789.765C1124.15 789.706 1124.18 789.647 1124.21 789.587L1127.06 791.598C1127.09 791.54 1127.12 791.481 1127.15 791.422L1133.67 796.022L1133.67 796.01L1136.53 798.027L1136.55 797.999ZM1133.69 795.982L1136.55 797.999L1136.58 797.939L1140.18 800.481C1144.46 792.284 1146.03 782.674 1144.56 773.689C1143.05 764.54 1138.51 756.789 1131.93 752.143C1125.34 747.496 1117.26 746.335 1109.45 748.914C1101.78 751.446 1095 757.381 1090.53 765.446L1094.45 768.212L1094.42 768.271L1097.58 770.5L1097.56 770.528L1100.79 772.804L1100.79 772.806L1103.09 774.432L1103.09 774.442L1106.25 776.676C1106.22 776.733 1106.19 776.79 1106.16 776.848L1108.6 778.569C1108.6 778.569 1108.6 778.569 1108.6 778.57L1115.37 783.348L1122.14 788.125C1122.14 788.125 1122.14 788.125 1122.14 788.125L1124.21 789.587C1124.24 789.529 1124.27 789.47 1124.3 789.411L1127.15 791.422L1127.15 791.411L1130.88 794.041L1130.88 794.039L1133.67 796.01L1133.69 795.982ZM1130.9 794.012L1133.69 795.982L1133.72 795.923L1136.58 797.939C1140.25 790.961 1141.61 782.761 1140.35 775.098C1139.07 767.335 1135.22 760.758 1129.63 756.816C1124.05 752.874 1117.19 751.888 1110.56 754.077C1104.02 756.236 1098.24 761.314 1094.45 768.212L1097.61 770.441L1097.58 770.5L1100.8 772.777L1100.79 772.804L1103.09 774.43L1103.09 774.432L1106.26 776.666L1106.25 776.676L1108.69 778.396C1108.66 778.453 1108.63 778.511 1108.6 778.569L1115.37 783.349L1122.14 788.125C1122.17 788.067 1122.2 788.009 1122.23 787.95L1124.3 789.411L1124.3 789.4L1127.15 791.411L1127.15 791.409L1130.88 794.039L1130.9 794.012ZM1127.17 791.381L1130.9 794.012L1130.93 793.952L1133.72 795.923C1136.92 789.912 1138.11 782.827 1137.02 776.209C1135.93 769.555 1132.63 763.918 1127.84 760.539C1123.05 757.159 1117.17 756.315 1111.49 758.19C1105.84 760.056 1100.86 764.46 1097.61 770.441L1100.84 772.717L1100.8 772.777L1103.11 774.403L1103.09 774.43L1106.26 776.664L1106.26 776.666L1108.7 778.386C1108.69 778.389 1108.69 778.393 1108.69 778.396L1115.61 783.281L1122.23 787.95C1122.23 787.946 1122.23 787.943 1122.23 787.939L1124.3 789.4L1124.3 789.398L1127.15 791.409L1127.17 791.381ZM1124.32 789.37L1127.17 791.381L1127.2 791.321L1130.93 793.952C1133.59 788.945 1134.58 783.043 1133.68 777.53C1132.77 771.985 1130.01 767.287 1126.02 764.471C1122.03 761.655 1117.13 760.951 1112.4 762.514C1107.7 764.068 1103.54 767.736 1100.84 772.717L1103.14 774.345L1103.11 774.403L1106.28 776.637L1106.26 776.664L1108.7 778.384C1108.7 778.385 1108.7 778.385 1108.7 778.386L1115.83 783.423L1122.23 787.939C1122.23 787.939 1122.23 787.938 1122.23 787.938L1124.3 789.398L1124.32 789.37ZM1122.25 787.91C1122.24 787.919 1122.24 787.928 1122.23 787.938L1115.65 783.288L1108.7 778.384C1108.7 778.375 1108.71 778.366 1108.71 778.357L1115.86 783.401L1122.25 787.91ZM1122.28 787.849C1122.27 787.87 1122.26 787.89 1122.25 787.91L1124.32 789.37L1124.35 789.31L1127.2 791.321C1128.11 789.49 1128.75 787.506 1129.1 785.46C1129.48 783.194 1129.49 780.897 1129.13 778.7C1128.77 776.503 1128.05 774.45 1127 772.658C1125.94 770.865 1124.59 769.369 1123.01 768.253C1121.43 767.138 1119.65 766.425 1117.78 766.157C1115.91 765.888 1113.99 766.069 1112.11 766.688C1110.24 767.307 1108.45 768.353 1106.86 769.765C1105.42 771.04 1104.16 772.591 1103.14 774.345L1106.31 776.579L1106.28 776.637L1108.71 778.357C1108.72 778.337 1108.73 778.318 1108.75 778.299L1115.1 782.78L1122.28 787.849ZM1108.75 778.299C1109.96 776.175 1111.78 774.614 1113.82 773.939C1115.95 773.235 1118.15 773.552 1119.95 774.819C1121.75 776.086 1122.99 778.2 1123.4 780.696C1123.79 783.09 1123.39 785.648 1122.28 787.849L1124.35 789.31C1125.79 786.397 1126.31 783.027 1125.79 779.871C1125.24 776.543 1123.59 773.725 1121.19 772.035C1118.8 770.346 1115.86 769.923 1113.02 770.861C1110.33 771.751 1107.93 773.796 1106.31 776.579L1108.75 778.299Z" fill="#ABABAB"/>
<path fill-rule="evenodd" clip-rule="evenodd" d="M1010.98 650.596C996.072 655.52 982.915 667.181 974.403 683.014L982.722 688.884C982.642 689.03 982.563 689.176 982.484 689.322L992.22 696.193L992.178 696.271L1008.76 707.973L1008.76 707.979L1020.79 716.473L1032.83 724.967L1032.83 724.962L1049.35 736.618L1049.39 736.54L1057.71 742.41C1057.79 742.264 1057.87 742.117 1057.94 741.97L1069.19 749.904C1077.7 734.071 1080.87 715.363 1078 697.895C1075.13 680.427 1066.46 665.631 1053.89 656.76C1041.32 647.89 1025.89 645.673 1010.98 650.596ZM1055.45 740.208L1057.94 741.97L1057.98 741.911L1062.41 745.037C1069.84 731.215 1072.61 714.882 1070.1 699.632C1067.6 684.383 1060.02 671.465 1049.05 663.721C1038.08 655.977 1024.6 654.041 1011.59 658.34C998.575 662.638 987.089 672.818 979.657 686.641L982.754 688.826L982.722 688.884L987.744 692.429L987.729 692.456L992.444 695.783C992.368 695.919 992.294 696.056 992.22 696.193L1008.8 707.896L1008.76 707.973L1020.76 716.444L1032.83 724.962L1032.87 724.884L1049.39 736.54C1049.47 736.402 1049.54 736.264 1049.61 736.126L1055.43 740.235L1055.45 740.208ZM1049.62 736.098L1055.45 740.208L1055.48 740.149L1057.98 741.911C1064.53 729.452 1066.95 714.813 1064.71 701.133C1062.43 687.27 1055.55 675.526 1045.57 668.486C1035.59 661.447 1023.34 659.687 1011.51 663.594C999.838 667.45 989.516 676.513 982.754 688.826L987.776 692.37L987.744 692.429L992.459 695.756L992.444 695.783L996.422 698.591C996.356 698.711 996.29 698.831 996.225 698.952L1008.83 707.847L1008.8 707.896L1020.1 715.866L1032.87 724.884L1032.9 724.835L1045.87 733.99C1045.94 733.869 1046 733.748 1046.07 733.626L1049.61 736.126L1049.62 736.098ZM1046.08 733.598L1049.62 736.098L1049.66 736.039L1055.48 740.149C1061.52 728.858 1063.77 715.531 1061.73 703.086C1059.68 690.609 1053.48 680.04 1044.51 673.704C1035.53 667.368 1024.5 665.784 1013.85 669.301C1003.23 672.809 993.857 681.105 987.776 692.37L992.491 695.697L992.459 695.756L996.437 698.563L996.422 698.591L1000.34 701.356C1000.31 701.418 1000.27 701.48 1000.24 701.542L1008.93 707.672C1008.89 707.73 1008.86 707.789 1008.83 707.847L1012 710.082L1011.99 710.094L1021.02 716.465L1030.04 722.835L1030.05 722.823L1032.9 724.835C1032.93 724.776 1032.96 724.716 1032.99 724.657L1042.37 731.272C1042.4 731.209 1042.43 731.147 1042.47 731.085L1046.07 733.626L1046.08 733.598ZM1042.48 731.057L1046.08 733.598L1046.11 733.539L1049.66 736.039C1054.56 726.614 1056.36 715.571 1054.67 705.247C1052.94 694.711 1047.7 685.786 1040.12 680.435C1032.54 675.085 1023.23 673.748 1014.24 676.717C1005.43 679.627 997.632 686.439 992.491 695.697L996.469 698.505L996.437 698.563L1000.36 701.329L1000.34 701.356L1003.5 703.586L1003.49 703.598L1009.02 707.5C1008.99 707.557 1008.96 707.615 1008.93 707.672L1012.09 709.906C1012.06 709.964 1012.03 710.023 1012 710.082L1021.05 716.471L1030.05 722.823C1030.08 722.764 1030.11 722.705 1030.14 722.645L1032.99 724.657C1033.02 724.598 1033.05 724.539 1033.08 724.48L1039.6 729.08L1039.61 729.068L1042.47 731.085L1042.48 731.057ZM1039.62 729.04L1042.48 731.057L1042.51 730.998L1046.11 733.539C1050.39 725.343 1051.97 715.732 1050.49 706.747C1048.99 697.598 1044.45 689.847 1037.86 685.201C1031.28 680.554 1023.19 679.393 1015.38 681.972C1007.72 684.504 1000.93 690.439 996.469 698.505L1000.39 701.27L1000.36 701.329L1003.51 703.558L1003.5 703.586L1009.03 707.489L1009.02 707.5L1012.19 709.734C1012.16 709.791 1012.12 709.849 1012.09 709.906L1014.53 711.627C1014.53 711.628 1014.53 711.628 1014.53 711.628L1021.3 716.406L1028.07 721.184C1028.07 721.184 1028.07 721.183 1028.07 721.183L1030.14 722.645C1030.17 722.587 1030.2 722.528 1030.23 722.469L1033.08 724.48L1033.09 724.468L1039.61 729.068L1039.62 729.04ZM1033.1 724.44L1039.62 729.04L1039.66 728.981L1042.51 730.998C1046.19 724.02 1047.54 715.819 1046.28 708.156C1045.01 700.393 1041.15 693.817 1035.57 689.874C1029.98 685.932 1023.12 684.946 1016.5 687.135C1009.96 689.295 1004.17 694.372 1000.39 701.27L1003.55 703.499L1003.51 703.558L1009.05 707.462L1009.03 707.489L1012.2 709.722L1012.19 709.734L1014.63 711.454C1014.59 711.512 1014.56 711.569 1014.53 711.627L1021.3 716.407L1028.07 721.183C1028.1 721.125 1028.13 721.067 1028.16 721.008L1030.23 722.469L1030.24 722.456L1033.09 724.468L1033.1 724.44ZM1030.25 722.428L1033.1 724.44L1033.13 724.379L1039.66 728.981C1042.86 722.971 1044.05 715.885 1042.96 709.267C1041.87 702.613 1038.56 696.976 1033.77 693.597C1028.99 690.218 1023.11 689.373 1017.43 691.248C1011.78 693.114 1006.79 697.518 1003.55 703.499L1009.08 707.404L1009.05 707.462L1012.21 709.695L1012.2 709.722L1014.63 711.442C1014.63 711.446 1014.63 711.45 1014.63 711.454L1021.55 716.339L1028.16 721.008C1028.17 721.004 1028.17 721 1028.17 720.996L1030.24 722.456L1030.25 722.428ZM1028.18 720.968C1028.18 720.977 1028.18 720.986 1028.17 720.996L1021.58 716.346L1014.63 711.442C1014.64 711.433 1014.64 711.424 1014.65 711.415L1021.8 716.459L1028.18 720.968ZM1028.21 720.908C1028.2 720.928 1028.19 720.948 1028.18 720.968L1030.25 722.428L1030.28 722.368L1033.13 724.379L1033.14 724.358L1036.82 726.948C1039.52 721.922 1040.52 715.983 1039.61 710.438C1038.7 704.892 1035.95 700.195 1031.96 697.379C1027.97 694.563 1023.07 693.859 1018.34 695.422C1013.6 696.985 1009.43 700.687 1006.72 705.713L1009.09 707.383L1009.08 707.404L1012.24 709.638L1012.21 709.695L1014.65 711.415C1014.66 711.396 1014.67 711.376 1014.68 711.357L1021.03 715.839L1028.21 720.908ZM1028.23 720.887C1028.22 720.894 1028.22 720.901 1028.21 720.908L1030.28 722.368L1030.29 722.347L1033.14 724.358C1034.05 722.533 1034.69 720.556 1035.03 718.519C1035.42 716.252 1035.43 713.955 1035.07 711.759C1034.71 709.562 1033.98 707.509 1032.93 705.716C1031.88 703.924 1030.53 702.427 1028.95 701.312C1027.36 700.196 1025.59 699.484 1023.72 699.215C1021.85 698.947 1019.92 699.127 1018.05 699.746C1016.17 700.365 1014.39 701.411 1012.79 702.824C1011.36 704.094 1010.11 705.638 1009.09 707.383L1012.26 709.617L1012.24 709.638L1014.68 711.357C1014.69 711.35 1014.69 711.343 1014.69 711.336L1021.77 716.331L1028.23 720.887ZM1014.69 711.336C1015.91 709.223 1017.72 707.67 1019.76 706.997C1021.89 706.294 1024.09 706.61 1025.89 707.878C1027.68 709.145 1028.92 711.259 1029.33 713.754C1029.72 716.141 1029.33 718.69 1028.23 720.887L1030.29 722.347C1031.73 719.439 1032.24 716.078 1031.72 712.929C1031.18 709.601 1029.52 706.783 1027.13 705.093C1024.74 703.404 1021.8 702.982 1018.96 703.919C1016.27 704.807 1013.88 706.844 1012.26 709.617L1014.69 711.336Z" fill="#ABABAB"/>
<path fill-rule="evenodd" clip-rule="evenodd" d="M1177.42 701.253C1165.96 705.036 1155.54 712.799 1147.47 723.376C1147.62 723.483 1147.77 723.59 1147.93 723.699C1149.55 724.84 1151.1 726.078 1152.58 727.408C1159.53 718.635 1168.36 712.191 1178.03 708.996C1191.04 704.698 1204.52 706.634 1215.49 714.378C1226.46 722.122 1234.04 735.039 1236.54 750.289C1238.46 762.004 1237.28 774.357 1233.25 785.721C1235.75 786.796 1238.17 788.095 1240.51 789.617C1245.25 776.468 1246.67 762.135 1244.44 748.552C1241.57 731.084 1232.9 716.287 1220.33 707.417C1207.76 698.547 1192.32 696.329 1177.42 701.253ZM1228.2 783.879C1231.82 773.582 1232.89 762.398 1231.14 751.79C1228.87 737.926 1221.98 726.183 1212.01 719.143C1202.03 712.103 1189.78 710.343 1177.95 714.251C1169.45 717.057 1161.67 722.623 1155.46 730.192C1156.89 731.687 1158.25 733.275 1159.53 734.947C1165.21 727.807 1172.41 722.562 1180.29 719.958C1190.94 716.441 1201.97 718.025 1210.95 724.36C1219.92 730.696 1226.12 741.265 1228.17 753.742C1229.76 763.46 1228.74 773.715 1225.34 783.119C1226.3 783.342 1227.25 783.595 1228.2 783.879ZM1218.22 782.038C1221.49 773.741 1222.53 764.569 1221.11 755.903C1219.38 745.367 1214.14 736.442 1206.56 731.092C1198.98 725.742 1189.67 724.404 1180.68 727.374C1173.99 729.585 1167.88 734.048 1163.07 740.124C1164 741.642 1164.87 743.213 1165.67 744.833C1169.96 738.978 1175.6 734.683 1181.82 732.628C1189.63 730.049 1197.72 731.211 1204.3 735.857C1210.88 740.503 1215.43 748.254 1216.93 757.404C1218.27 765.57 1217.09 774.255 1213.65 781.924C1215.18 781.888 1216.7 781.926 1218.22 782.038ZM1209.69 782.179L1208.97 781.671C1212.67 774.68 1214.04 766.456 1212.78 758.771C1211.5 751.008 1207.65 744.432 1202.06 740.489C1196.47 736.547 1189.61 735.562 1182.99 737.75C1177.05 739.71 1171.74 744.073 1167.98 750.02C1168.45 751.218 1168.9 752.438 1169.31 753.677L1169.99 754.156L1169.95 754.215L1169.34 753.783L1169.36 753.832L1169.94 754.243L1169.93 754.255L1175.46 758.158C1175.44 758.196 1175.42 758.234 1175.4 758.272L1169.43 754.064C1169.48 754.203 1169.52 754.342 1169.57 754.481L1175.27 758.504L1175.24 758.552L1169.6 754.567L1169.64 754.706L1175.2 758.63L1175.2 758.636L1187.23 767.13L1199.27 775.624L1199.27 775.618L1208.73 782.291C1208.77 782.285 1208.81 782.28 1208.86 782.275L1199.31 775.54L1199.34 775.491L1208.94 782.265C1209.14 782.24 1209.34 782.217 1209.55 782.195L1208.93 781.758L1208.94 781.73L1209.59 782.189C1209.63 782.186 1209.66 782.182 1209.69 782.179ZM1206.06 779.697L1208.94 781.73L1208.97 781.671L1206.09 779.638C1209.3 773.628 1210.49 766.542 1209.4 759.924C1208.31 753.27 1205 747.633 1200.21 744.254C1195.43 740.875 1189.55 740.03 1183.87 741.906C1178.22 743.771 1173.23 748.175 1169.99 754.156L1173.21 756.433L1173.18 756.491L1169.95 754.215L1169.94 754.243L1173.17 756.519L1173.16 756.521L1175.47 758.147L1175.46 758.158L1178.63 760.392L1178.62 760.397L1178.6 760.448L1178.56 760.506L1175.4 758.272C1175.35 758.349 1175.31 758.426 1175.27 758.504L1178.44 760.739L1178.43 760.751L1187.46 767.122L1196.48 773.492L1196.49 773.48L1199.34 775.491C1199.38 775.413 1199.42 775.334 1199.46 775.255L1208.86 781.887C1208.88 781.844 1208.91 781.801 1208.93 781.758L1206.05 779.725L1206.06 779.697ZM1203.27 777.726L1206.06 779.697L1206.09 779.638L1203.3 777.667C1205.97 772.66 1206.96 766.758 1206.05 761.245C1205.14 755.7 1202.39 751.003 1198.4 748.187C1194.41 745.371 1189.51 744.667 1184.78 746.23C1180.07 747.784 1175.92 751.451 1173.21 756.433L1175.52 758.06L1175.49 758.118L1173.18 756.491L1173.17 756.519L1175.47 758.145L1175.47 758.147L1178.63 760.381L1178.63 760.392L1181.08 762.12C1181.06 762.159 1181.04 762.197 1181.01 762.236L1178.56 760.506C1178.52 760.583 1178.48 760.661 1178.44 760.739L1187.49 767.128L1196.49 773.48C1196.53 773.402 1196.57 773.323 1196.61 773.244L1199.46 775.255C1199.48 775.216 1199.5 775.177 1199.52 775.137L1206.04 779.737L1206.05 779.725L1203.26 777.754L1203.27 777.726ZM1199.54 775.096L1203.27 777.726L1203.3 777.667L1199.57 775.036C1200.48 773.205 1201.13 771.221 1201.47 769.175C1201.86 766.909 1201.87 764.612 1201.51 762.415C1201.15 760.219 1200.42 758.165 1199.37 756.373C1198.32 754.58 1196.97 753.084 1195.38 751.968C1193.8 750.853 1192.03 750.141 1190.16 749.872C1188.29 749.603 1186.36 749.784 1184.49 750.403C1182.61 751.022 1180.83 752.068 1179.23 753.48C1177.79 754.755 1176.54 756.306 1175.52 758.06L1178.68 760.294L1178.65 760.352L1175.49 758.118L1175.47 758.145L1178.64 760.379L1178.63 760.381L1181.08 762.11L1181.08 762.12L1187.99 766.996L1194.62 771.675C1194.6 771.714 1194.58 771.753 1194.56 771.792L1187.8 767.022L1181.01 762.236L1181.01 762.243L1187.78 767.021L1194.55 771.799L1194.56 771.792L1196.61 773.244C1196.63 773.205 1196.65 773.166 1196.67 773.126L1199.52 775.137L1199.53 775.126L1203.25 777.756L1203.26 777.754L1199.53 775.124L1199.54 775.096ZM1196.69 773.085L1199.54 775.096L1199.57 775.036L1196.72 773.025C1198.16 770.112 1198.68 766.743 1198.16 763.586C1197.61 760.259 1195.96 757.44 1193.57 755.751C1191.17 754.061 1188.23 753.639 1185.4 754.577C1182.7 755.466 1180.31 757.511 1178.68 760.294L1181.13 762.023L1181.1 762.081L1178.65 760.352L1178.64 760.379L1181.08 762.108L1181.08 762.11L1188.21 767.139L1194.62 771.665L1194.62 771.675L1196.67 773.126L1196.68 773.115L1199.53 775.126L1199.53 775.124L1196.68 773.113L1196.69 773.085ZM1194.64 771.635L1196.69 773.085L1196.72 773.025L1194.67 771.575C1195.8 769.362 1196.21 766.783 1195.81 764.369C1195.4 761.874 1194.16 759.76 1192.37 758.493C1190.57 757.226 1188.37 756.909 1186.24 757.612C1184.18 758.293 1182.35 759.873 1181.13 762.023L1187.47 766.496L1194.67 771.575L1194.64 771.635ZM1194.62 771.662L1196.68 773.113L1196.68 773.115L1194.62 771.665L1194.62 771.662ZM1194.62 771.662L1194.64 771.635L1188.23 767.115L1181.1 762.081L1181.08 762.108L1188.02 767.002L1194.62 771.662ZM1199.31 775.54L1186.54 766.523L1175.24 758.552L1175.2 758.63L1187.2 767.101L1199.27 775.618L1199.31 775.54Z" fill="#ABABAB"/>
<path fill-rule="evenodd" clip-rule="evenodd" d="M1184.64 639.365C1184.7 639.402 1184.76 639.438 1184.81 639.475C1186.55 640.593 1188.21 641.832 1189.79 643.182C1195.96 634.684 1204 628.295 1212.93 624.942C1224.73 620.517 1237.12 621.747 1247.39 628.361C1257.65 634.976 1264.94 646.433 1267.65 660.213C1269.42 669.168 1269.15 678.627 1266.99 687.687L1254.03 681.48L1254.07 681.367L1260.17 684.283C1260.46 682.874 1260.69 681.456 1260.86 680.034L1263.85 680.677C1264.72 674.296 1264.57 667.816 1263.35 661.602C1260.88 649.075 1254.25 638.66 1244.93 632.646C1235.6 626.633 1224.33 625.515 1213.61 629.538C1205.56 632.558 1198.31 638.288 1192.72 645.906C1194.01 647.209 1195.24 648.592 1196.4 650.05C1201.47 642.966 1208.12 637.64 1215.52 634.862C1225.18 631.242 1235.32 632.248 1243.71 637.66C1252.11 643.072 1258.07 652.446 1260.29 663.72C1261.34 669.035 1261.52 674.567 1260.86 680.034L1254.65 678.701C1255.22 675.253 1255.15 671.189 1254.08 665.772C1252.21 656.252 1247.17 648.336 1240.08 643.766C1232.99 639.196 1224.43 638.346 1216.28 641.403C1209.84 643.819 1204.07 648.516 1199.74 654.768C1200.64 656.182 1201.48 657.649 1202.26 659.164C1206.1 653.05 1211.46 648.455 1217.52 646.184C1224.6 643.529 1232.03 644.267 1238.19 648.235C1244.35 652.204 1248.72 659.079 1250.35 667.346C1251.03 670.787 1251.21 674.351 1250.91 677.897L1248.22 677.319C1248.58 674.032 1248.22 670.566 1247.12 667.174C1245.21 661.229 1241.2 655.997 1235.97 652.629C1230.75 649.262 1224.74 648.035 1219.27 649.218C1213.79 650.401 1209.31 653.898 1206.79 658.939L1210.21 661.141C1209.76 661.596 1209.51 661.875 1209.51 661.875L1220.98 673.981L1222.64 676.559L1204.93 665.145C1204.93 665.15 1204.93 665.154 1204.93 665.159L1222.66 676.597L1222.68 676.621L1204.95 665.193C1204.96 665.239 1204.98 665.284 1205 665.33L1222.79 676.797L1222.9 676.964L1223.42 677.297L1223.37 677.299L1205.06 665.5C1205.07 665.507 1205.07 665.514 1205.07 665.521L1223.35 677.301L1223.49 677.342L1234.15 684.151C1234.68 683.116 1235.1 682.028 1235.42 680.907L1239.15 682.108C1239.15 682.108 1239.16 682.046 1239.19 681.928L1239.66 682.066L1242.57 682.987C1242.57 682.987 1242.58 682.965 1242.59 682.922L1245.17 683.677L1246.19 684.332C1246.24 684.228 1246.29 684.124 1246.34 684.019L1252.44 685.801C1253.04 684.447 1253.57 683.08 1253.99 681.63L1272.87 692.372C1275.97 681.182 1276.52 669.343 1274.32 658.186C1271.21 642.402 1262.86 629.278 1251.11 621.702C1239.36 614.125 1225.16 612.716 1211.65 617.785C1201.17 621.715 1191.77 629.289 1184.64 639.365ZM1252.1 680.553L1254.03 681.48C1254.02 681.53 1254.01 681.58 1253.99 681.63L1252.1 680.553ZM1250.69 679.878L1252.1 680.553L1250.74 679.78L1254.07 681.367C1254.3 680.513 1254.5 679.63 1254.65 678.701L1250.91 677.897C1250.85 678.519 1250.79 679.14 1250.71 679.76L1248.09 678.272C1248.14 677.956 1248.18 677.639 1248.22 677.319L1245.33 676.699L1244.29 676.111L1243.65 676.147C1243.78 674.141 1243.75 671.931 1243.34 669.866C1242.15 663.905 1238.97 658.951 1234.49 656.091C1230.01 653.232 1224.6 652.702 1219.46 654.619C1215.49 656.096 1211.72 659.61 1210.21 661.141L1215.63 664.634C1215.35 664.838 1215.19 664.966 1215.19 664.966L1217.41 668.43C1217.34 668.583 1217.25 668.764 1217.14 668.977L1217.14 668.979C1217.14 668.979 1217.31 668.887 1217.62 668.749L1220.98 673.981L1222.79 675.885L1222.98 676.257L1222.91 676.738L1222.64 676.559L1222.66 676.597L1222.91 676.759L1222.91 676.772L1222.68 676.621L1222.79 676.797L1223.55 677.289L1223.42 677.297L1223.49 677.342L1232.88 680.087L1235.42 680.907L1235.45 680.835L1239.19 681.928L1239.19 681.918L1239.66 682.066L1242.59 682.922C1242.62 682.805 1242.69 682.532 1242.78 682.135L1245.17 683.677L1246.34 684.019C1246.38 683.942 1246.41 683.865 1246.45 683.787C1248.11 684.541 1249.72 684.852 1250.04 683.468C1250.31 682.28 1250.53 681.082 1250.69 679.878ZM1248.04 678.607L1250.69 679.878L1250.71 679.763L1250.74 679.78L1250.71 679.76L1250.71 679.763L1248.05 678.498C1248.06 678.476 1248.06 678.454 1248.07 678.432C1248.07 678.379 1248.08 678.325 1248.09 678.272L1245.33 676.699L1243.64 676.337C1243.64 676.306 1243.64 676.275 1243.65 676.243C1243.65 676.212 1243.65 676.18 1243.65 676.147L1243.19 676.174L1239.9 674.606C1239.88 673.401 1239.78 672.166 1239.55 670.997C1238.56 666.03 1235.91 661.901 1232.18 659.518C1228.44 657.135 1223.94 656.694 1219.65 658.291C1215.36 659.888 1215.31 661.487 1215.31 661.487L1216.58 663.943C1216.2 664.21 1215.87 664.452 1215.63 664.634L1217.6 665.906L1218.42 667.482C1218.31 667.511 1218.23 667.524 1218.16 667.535C1218.09 667.547 1218.04 667.555 1217.99 667.577C1217.84 667.638 1217.73 667.803 1217.41 668.43L1217.62 668.749C1217.91 668.618 1218.33 668.446 1218.83 668.274L1222.79 675.885L1223 676.11L1222.98 676.257L1223.37 677.019L1224.11 677.257L1223.85 677.272L1223.67 677.228L1222.91 676.738L1222.91 676.759L1223.62 677.213L1223.67 677.228L1223.75 677.278L1223.55 677.289L1223.66 677.358L1225.9 677.832L1232.88 680.087L1235.45 680.835L1235.47 680.742L1239.19 681.918C1239.23 681.69 1239.32 681.266 1239.41 680.698L1241.11 681.058L1242.78 682.135C1242.81 682.002 1242.84 681.855 1242.87 681.696C1243.62 682.214 1245.05 683.156 1246.45 683.787C1247.2 682.156 1247.73 680.414 1248.04 678.607ZM1243.63 676.495L1248.04 678.607L1248.05 678.498L1243.64 676.388L1243.64 676.337L1243.43 676.293L1243.19 676.174L1242.98 676.186L1239.9 674.71L1239.9 674.606L1238.56 673.965L1238.42 673.999L1235.96 672.82C1235.92 672.594 1235.88 672.37 1235.84 672.146C1235.44 670.179 1234.72 668.355 1233.71 666.78C1232.7 665.204 1231.42 663.907 1229.94 662.963C1228.46 662.019 1226.81 661.447 1225.09 661.278C1223.37 661.11 1221.61 661.349 1219.91 661.982C1218.96 662.335 1217.6 663.226 1216.58 663.943L1217.6 665.906L1219.37 667.043C1218.92 667.312 1218.62 667.426 1218.42 667.482L1218.83 668.274C1219.33 668.105 1219.91 667.936 1220.55 667.805L1226.18 671.439L1226.84 672.728L1223.54 672.021L1223 676.11L1223.93 677.092L1224.4 677.241L1224.11 677.257L1224.23 677.295L1224.08 677.33L1223.85 677.272L1223.75 677.278L1223.9 677.372L1224.08 677.33L1225.24 677.622L1225.9 677.832L1227.03 678.073L1235.47 680.742C1235.55 680.466 1235.62 680.188 1235.68 679.908L1239.41 680.698C1239.45 680.494 1239.48 680.271 1239.52 680.032L1241.11 681.058L1242.35 681.321C1242.35 681.321 1242.54 681.467 1242.87 681.696C1243.12 680.518 1243.47 678.637 1243.63 676.495ZM1243.02 676.203L1242.98 676.186L1242.95 676.188L1239.9 675.533C1239.9 675.262 1239.9 674.987 1239.9 674.71L1238.42 673.999L1236.14 674.527C1236.11 673.953 1236.05 673.383 1235.96 672.82L1232.66 671.239C1231.6 668.994 1229.98 667.369 1228.64 666.517C1226.4 665.087 1223.7 664.822 1221.12 665.781C1220.36 666.395 1219.79 666.789 1219.37 667.043L1220.55 667.805C1221.67 667.573 1222.98 667.461 1224.28 667.681L1226.18 671.439L1226.49 671.635L1228.86 673.163L1226.84 672.728L1228.63 676.273L1224.49 677.236L1224.4 677.241L1224.43 677.25L1224.23 677.295L1225.24 677.622L1226.99 678.06L1227.03 678.073L1227.1 678.087L1229.9 678.791L1229.84 678.669L1235.68 679.908C1235.81 679.36 1235.91 678.805 1235.99 678.246C1236.01 678.097 1236.03 677.947 1236.05 677.798L1239.52 680.032C1239.66 679.036 1239.81 677.756 1239.87 676.362L1242.95 676.188L1243.02 676.203ZM1236.15 676.573L1239.87 676.362C1239.88 676.09 1239.89 675.813 1239.9 675.533L1236.15 674.729L1236.15 674.634C1236.15 674.599 1236.14 674.563 1236.14 674.527L1235.7 674.631L1233.59 674.178C1233.4 673.108 1233.07 672.125 1232.66 671.239L1223.98 667.085L1224.28 667.681C1226.28 668.016 1228.29 669.125 1229.7 671.763L1230.37 673.488L1228.86 673.163L1230.71 674.357L1231.22 675.67L1228.63 676.273L1228.99 676.98L1224.49 677.236L1224.43 677.25L1226.99 678.06L1227.1 678.087L1229.84 678.669L1228.99 676.98L1234.31 676.678L1236.05 677.798C1236.1 677.39 1236.13 676.981 1236.15 676.573ZM1233.76 676.322L1234.31 676.678L1236.15 676.573C1236.18 675.956 1236.18 675.34 1236.15 674.729L1235.7 674.631L1233.71 675.092C1233.68 674.781 1233.64 674.476 1233.59 674.178L1230.37 673.488L1230.71 674.357L1232.34 675.41L1231.22 675.67L1231.63 676.722L1233.75 676.617C1233.76 676.518 1233.76 676.42 1233.76 676.322ZM1233.76 676.322C1233.76 675.901 1233.75 675.492 1233.71 675.092L1232.34 675.41L1233.76 676.322ZM1243.02 676.203L1243.63 676.495L1243.64 676.388L1243.43 676.293L1243.02 676.203Z" fill="#ABABAB"/>
<path fill-rule="evenodd" clip-rule="evenodd" d="M1084.89 639.088C1073.21 642.676 1062.68 650.437 1054.74 661.14C1055.26 661.476 1055.77 661.823 1056.28 662.182C1057.51 663.052 1058.7 663.979 1059.86 664.96C1066.7 656.115 1075.61 649.698 1085.45 646.675C1098.27 642.739 1111.64 644.878 1122.61 652.622C1133.58 660.366 1141.27 673.08 1143.97 687.968C1146.13 699.908 1144.95 712.463 1140.7 723.832C1143.25 724.869 1145.73 726.138 1148.12 727.636C1153.03 714.568 1154.41 700.123 1151.92 686.387C1148.82 669.334 1140.03 654.77 1127.46 645.9C1114.89 637.03 1099.58 634.58 1084.89 639.088ZM1136.62 722.387C1140.62 711.926 1141.76 700.329 1139.76 689.307C1137.31 675.773 1130.33 664.214 1120.35 657.174C1110.37 650.135 1098.22 648.19 1086.57 651.768C1077.67 654.501 1069.61 660.287 1063.4 668.26C1064.61 669.494 1065.77 670.792 1066.87 672.151C1072.45 665.01 1079.68 659.827 1087.67 657.375C1098.16 654.155 1109.09 655.905 1118.07 662.241C1127.05 668.577 1133.34 678.979 1135.54 691.16C1137.37 701.228 1136.29 711.83 1132.55 721.354C1133.92 721.637 1135.28 721.981 1136.62 722.387ZM1126.43 720.511C1130.23 711.988 1131.43 702.275 1129.77 693.088C1127.9 682.802 1122.59 674.018 1115.01 668.668C1107.43 663.317 1098.2 661.839 1089.34 664.559C1082.24 666.739 1075.85 671.473 1071.05 678.002C1071.95 679.44 1072.79 680.928 1073.59 682.46C1077.83 676.209 1083.7 671.677 1090.27 669.661C1097.96 667.299 1105.98 668.583 1112.56 673.229C1119.15 677.875 1123.76 685.504 1125.37 694.436C1126.96 703.206 1125.55 712.528 1121.43 720.422C1123.11 720.364 1124.77 720.394 1126.43 720.511ZM1120.83 720.447L1108.11 711.47L1108.13 711.418L1117.69 718.163C1121.33 711.387 1122.61 703.322 1121.24 695.743C1119.86 688.164 1115.95 681.691 1110.36 677.749C1104.78 673.806 1097.97 672.717 1091.45 674.721C1085.17 676.648 1079.65 681.285 1075.99 687.665C1076.19 688.157 1076.39 688.652 1076.58 689.151L1084.07 694.439L1084.05 694.488L1076.62 689.246L1076.66 689.346L1084.02 694.541L1083.99 694.592L1076.69 689.444L1076.7 689.454L1083.98 694.597L1083.98 694.599L1076.7 689.458C1076.74 689.56 1076.77 689.662 1076.81 689.764L1083.89 694.761L1083.85 694.834L1083.82 694.899L1095.85 703.393L1107.89 711.887C1107.92 711.841 1107.94 711.795 1107.96 711.748L1120.33 720.473C1120.43 720.468 1120.53 720.462 1120.62 720.457L1108.05 711.584L1108.05 711.582L1120.63 720.457C1120.63 720.457 1120.63 720.457 1120.64 720.456L1108.05 711.576L1108.08 711.524L1120.73 720.452C1120.76 720.45 1120.8 720.448 1120.83 720.447ZM1105.17 709.471L1108.08 711.524L1108.11 711.47L1105.2 709.417L1105.22 709.365L1108.13 711.418L1108.17 711.349L1111.97 714.029L1111.98 714.009L1114.83 716.021C1117.95 710.213 1119.04 703.3 1117.87 696.804C1116.69 690.307 1113.34 684.759 1108.55 681.38C1103.76 678.001 1097.93 677.067 1092.33 678.785C1086.74 680.503 1081.84 684.73 1078.72 690.539L1081.89 692.773L1081.88 692.794L1084.11 694.372L1084.07 694.439L1087.18 696.632L1087.15 696.681L1084.05 694.488L1084.02 694.541L1087.12 696.733L1087.09 696.785L1083.99 694.592L1083.98 694.597L1087.09 696.79L1087.09 696.792L1083.98 694.599C1083.95 694.653 1083.92 694.707 1083.89 694.761L1087 696.954L1086.97 697.004L1096 703.375L1105.03 709.745L1105.05 709.695L1107.96 711.748C1107.99 711.693 1108.02 711.639 1108.05 711.584L1105.14 709.531L1105.14 709.529L1108.05 711.582L1108.05 711.576L1105.14 709.523L1105.17 709.471ZM1102.97 707.915L1105.17 709.471L1105.2 709.417L1102.99 707.861L1103.02 707.81L1105.22 709.365L1105.26 709.296L1108.17 711.349L1108.18 711.328L1111.98 714.009C1114.57 709.173 1115.48 703.421 1114.5 698.015C1113.52 692.601 1110.72 687.978 1106.73 685.162C1102.74 682.346 1097.88 681.568 1093.22 682.999C1088.57 684.429 1084.49 687.944 1081.89 692.773L1084.12 694.352L1084.11 694.372L1087.22 696.565L1087.18 696.632L1089.49 698.258L1089.46 698.308L1087.15 696.681L1087.12 696.733L1089.43 698.361L1089.4 698.412L1087.09 696.785L1087.09 696.79L1089.4 698.417L1089.4 698.419L1087.09 696.792C1087.06 696.846 1087.03 696.9 1087 696.954L1096 703.303L1105.05 709.695C1105.08 709.64 1105.11 709.585 1105.14 709.531L1102.94 707.974L1102.94 707.973L1105.14 709.529L1105.14 709.523L1102.94 707.967L1102.97 707.915ZM1102.94 707.967L1102.94 707.973L1096.37 703.341L1089.4 698.417L1089.4 698.412L1095.63 702.809L1102.94 707.967ZM1102.94 707.974C1102.92 708.004 1102.9 708.033 1102.89 708.063L1096.12 703.285L1089.35 698.507C1089.36 698.478 1089.38 698.448 1089.4 698.419L1096.37 703.342L1102.94 707.974ZM1102.97 707.915L1096.55 703.387L1089.43 698.361L1089.46 698.308L1095.82 702.799L1102.99 707.861L1102.97 707.915ZM1089.52 698.192L1087.22 696.565L1087.23 696.545L1089.54 698.172L1089.52 698.192ZM1103.06 707.74L1096.92 703.412L1089.52 698.192L1089.49 698.258L1096.63 703.298L1103.02 707.81L1103.06 707.74ZM1103.07 707.719L1103.06 707.74L1105.26 709.296L1105.27 709.275L1108.18 711.328C1109.05 709.561 1109.66 707.64 1109.98 705.654C1110.33 703.456 1110.3 701.22 1109.92 699.076C1109.53 696.932 1108.78 694.92 1107.71 693.155C1106.65 691.391 1105.28 689.909 1103.7 688.794C1102.12 687.678 1100.35 686.951 1098.5 686.654C1096.64 686.358 1094.74 686.497 1092.89 687.064C1091.05 687.631 1089.3 688.614 1087.74 689.959C1086.33 691.174 1085.11 692.662 1084.12 694.352L1087.23 696.545C1088.8 693.877 1091.13 691.94 1093.78 691.127C1096.58 690.269 1099.49 690.735 1101.89 692.425C1104.28 694.114 1105.96 696.888 1106.55 700.137C1107.1 703.211 1106.64 706.472 1105.27 709.275L1103.07 707.719ZM1103.07 707.719C1104.1 705.615 1104.45 703.166 1104.03 700.856C1103.59 698.42 1102.33 696.34 1100.53 695.072C1098.74 693.805 1096.55 693.455 1094.45 694.099C1092.46 694.71 1090.71 696.166 1089.54 698.172L1096.77 703.28L1103.07 707.719Z" fill="#ABABAB"/>
<path fill-rule="evenodd" clip-rule="evenodd" d="M995.27 575.359C983.786 579.152 973.341 586.944 965.258 597.561C965.446 597.691 965.635 597.821 965.822 597.954C967.405 599.071 968.926 600.282 970.381 601.58C977.336 592.773 986.184 586.305 995.881 583.103C1008.89 578.804 1022.37 580.74 1033.34 588.484C1044.32 596.228 1051.89 609.146 1054.39 624.395C1056.32 636.106 1055.13 648.456 1051.11 659.817C1053.61 660.89 1056.03 662.189 1058.36 663.709C1063.1 650.565 1064.52 636.236 1062.29 622.658C1059.42 605.19 1050.75 590.393 1038.18 581.523C1025.61 572.653 1010.18 570.436 995.27 575.359ZM1046.06 657.977C1049.68 647.682 1050.74 636.501 1049 625.896C1046.72 612.032 1039.84 600.289 1029.86 593.249C1019.89 586.209 1007.64 584.45 995.804 588.357C987.285 591.171 979.486 596.757 973.265 604.356C974.704 605.847 976.066 607.431 977.348 609.1C983.029 601.936 990.243 596.674 998.147 594.064C1008.79 590.547 1019.82 592.131 1028.8 598.467C1037.78 604.803 1043.97 615.372 1046.02 627.849C1047.62 637.564 1046.6 647.816 1043.2 657.218C1044.16 657.44 1045.11 657.694 1046.06 657.977ZM1036.07 656.14C1039.34 647.844 1040.38 638.674 1038.96 630.01C1037.23 619.473 1032 610.549 1024.41 605.198C1016.83 599.848 1007.52 598.511 998.531 601.48C991.825 603.695 985.705 608.171 980.898 614.266C981.826 615.781 982.696 617.349 983.505 618.966C987.798 613.097 993.445 608.792 999.675 606.735C1007.48 604.156 1015.57 605.317 1022.15 609.963C1028.74 614.61 1033.28 622.36 1034.78 631.51C1036.12 639.676 1034.95 648.359 1031.51 656.028C1033.04 655.991 1034.56 656.029 1036.07 656.14ZM1027.55 656.285L1026.8 655.76C1030.48 648.782 1031.83 640.581 1030.58 632.918C1029.3 625.155 1025.45 618.578 1019.86 614.636C1014.27 610.694 1007.41 609.708 1000.79 611.896C994.87 613.851 989.572 618.195 985.812 624.117C986.289 625.315 986.735 626.535 987.149 627.776L987.839 628.263L987.807 628.321L987.184 627.882L987.201 627.931L987.792 628.349L987.785 628.361L993.315 632.264C993.283 632.32 993.251 632.377 993.219 632.434L987.31 628.265C987.344 628.37 987.379 628.476 987.412 628.582L993.121 632.61L993.095 632.659L987.44 628.668L987.484 628.806L993.053 632.736L993.05 632.742L1005.09 641.236L1017.12 649.73L1017.13 649.724L1026.58 656.397C1026.62 656.392 1026.67 656.386 1026.71 656.381L1017.17 649.646L1017.19 649.598L1026.79 656.371C1026.99 656.346 1027.2 656.323 1027.4 656.3L1026.76 655.847L1026.77 655.82L1027.45 656.295C1027.48 656.292 1027.51 656.288 1027.55 656.285ZM1023.92 653.803L1026.77 655.82L1026.8 655.76L1023.95 653.744C1027.15 647.734 1028.34 640.649 1027.25 634.031C1026.16 627.376 1022.85 621.739 1018.07 618.36C1013.28 614.981 1007.4 614.136 1001.72 616.012C996.071 617.877 991.083 622.281 987.839 628.263L993.371 632.167L993.338 632.224L987.807 628.321L987.792 628.349L993.322 632.251L993.315 632.264L996.481 634.498L996.445 634.56C996.425 634.596 996.405 634.632 996.384 634.668L993.219 632.434C993.186 632.493 993.153 632.551 993.121 632.61L996.288 634.845L996.281 634.858L1005.31 641.228L1014.34 647.599L1014.34 647.586L1017.19 649.598C1017.22 649.538 1017.26 649.479 1017.29 649.419L1026.66 656.033C1026.69 655.971 1026.73 655.909 1026.76 655.847L1023.9 653.831L1023.92 653.803ZM1017.4 649.202L1023.92 653.803L1023.95 653.744L1017.43 649.142L1017.44 649.121L1021.11 651.711C1023.81 646.685 1024.82 640.746 1023.91 635.2C1022.99 629.655 1020.24 624.958 1016.25 622.142C1012.26 619.326 1007.36 618.622 1002.63 620.185C997.896 621.748 993.719 625.45 991.017 630.476L993.383 632.146L993.371 632.167L996.537 634.401L996.503 634.458L993.338 632.224L993.322 632.251L996.488 634.485L996.481 634.498L998.918 636.218C998.886 636.275 998.855 636.332 998.824 636.39L996.384 634.668C996.352 634.727 996.32 634.786 996.288 634.845L1005.34 641.234L1014.34 647.586L1014.36 647.55L1014.39 647.491L1014.44 647.408L1017.29 649.419C1017.32 649.36 1017.35 649.302 1017.38 649.243L1023.89 653.844L1023.9 653.831L1017.38 649.23L1017.4 649.202ZM1014.55 647.191L1017.4 649.202L1017.43 649.142L1014.58 647.131L1014.59 647.11L1017.44 649.121C1018.34 647.296 1018.98 645.319 1019.33 643.282C1019.71 641.015 1019.72 638.718 1019.36 636.521C1019 634.325 1018.27 632.272 1017.22 630.479C1016.17 628.687 1014.82 627.19 1013.24 626.075C1011.66 624.959 1009.88 624.247 1008.01 623.978C1006.14 623.71 1004.21 623.89 1002.34 624.509C1000.46 625.128 998.679 626.174 997.085 627.587C995.652 628.857 994.399 630.401 993.383 632.146L996.549 634.38L996.537 634.401L998.974 636.12L998.941 636.178L996.503 634.458L996.488 634.485L998.925 636.205L998.918 636.218L1005.84 641.103L1012.46 645.772L1012.44 645.812C1012.41 645.857 1012.39 645.901 1012.36 645.946L1005.6 641.169L998.824 636.39L998.823 636.392L1005.59 641.17L1012.36 645.948L1012.36 645.946L1014.44 647.408C1014.47 647.349 1014.5 647.291 1014.53 647.232L1017.38 649.243L1017.38 649.23L1014.53 647.219L1014.55 647.191ZM1012.48 645.731L1014.55 647.191L1014.58 647.131L1012.51 645.671L1012.52 645.65L1014.59 647.11C1016.02 644.202 1016.53 640.841 1016.01 637.692C1015.47 634.365 1013.82 631.547 1011.42 629.857C1009.03 628.167 1006.09 627.745 1003.25 628.683C1000.56 629.57 998.172 631.608 996.549 634.38L998.986 636.1L998.974 636.12L1005.32 640.602L1012.51 645.671L1012.48 645.731ZM1012.46 645.759L1014.53 647.219L1014.53 647.232L1012.46 645.772L1012.46 645.759ZM1012.46 645.759L1012.48 645.731L1006.09 641.222L998.941 636.178L998.925 636.205L1005.87 641.109L1012.46 645.759ZM998.986 636.1L1006.06 641.094L1012.52 645.65C1013.62 643.454 1014.01 640.905 1013.62 638.518C1013.21 636.023 1011.97 633.909 1010.18 632.642C1008.38 631.375 1006.18 631.058 1004.05 631.761C1002.01 632.434 1000.2 633.987 998.986 636.1ZM1017.17 649.646L1004.39 640.629L993.095 632.659L993.053 632.736L1005.06 641.207L1017.13 649.724L1017.17 649.646Z" fill="#ABABAB"/>
<path fill-rule="evenodd" clip-rule="evenodd" d="M1156.73 667.763C1158.93 668.691 1161.08 669.777 1163.18 671.018C1165.58 669.625 1168.09 668.489 1170.67 667.637C1181.32 664.12 1192.35 665.704 1201.32 672.04C1210.3 678.376 1216.5 688.945 1218.55 701.422C1219.3 706.012 1219.47 710.722 1219.08 715.405C1219.99 716.465 1220.87 717.565 1221.71 718.701C1222.6 712.292 1222.56 705.778 1221.52 699.469C1219.25 685.605 1212.36 673.862 1202.39 666.822C1192.41 659.782 1180.16 658.022 1168.33 661.93C1164.27 663.271 1160.37 665.243 1156.73 667.763ZM1225.97 725.359C1228.04 716.344 1228.4 706.967 1226.92 697.968C1224.41 682.718 1216.84 669.801 1205.87 662.057C1194.9 654.313 1181.42 652.377 1168.41 656.675C1162.49 658.631 1156.88 661.803 1151.83 665.982C1149.2 665.171 1146.52 664.574 1143.8 664.193C1150.79 657.106 1158.99 651.842 1167.8 648.932C1182.7 644.009 1198.14 646.226 1210.71 655.096C1223.28 663.966 1231.95 678.763 1234.82 696.231C1236.67 707.505 1236.01 719.295 1233.01 730.496C1231.53 730.461 1230.05 730.488 1228.55 730.578C1227.76 728.783 1226.9 727.042 1225.97 725.359ZM1197.6 700.516C1195.95 696.985 1193.55 694.025 1190.59 691.932C1187.91 690.041 1184.89 688.944 1181.75 688.673C1180.74 687.195 1179.67 685.769 1178.56 684.398C1183.46 684.003 1188.27 685.302 1192.39 688.209C1196.95 691.433 1200.36 696.417 1202.15 702.372C1200.66 701.671 1199.14 701.052 1197.6 700.516ZM1212.03 708.561C1211.21 707.899 1210.36 707.264 1209.5 706.656C1208.79 706.151 1208.06 705.668 1207.33 705.206C1207.32 705.165 1207.32 705.124 1207.31 705.083C1205.81 695.933 1201.26 688.183 1194.68 683.536C1188.69 679.309 1181.46 677.967 1174.32 679.701C1172.84 678.226 1171.3 676.837 1169.69 675.54C1170.14 675.367 1170.6 675.205 1171.06 675.053C1180.05 672.084 1189.36 673.421 1196.94 678.771C1204.52 684.122 1209.75 693.046 1211.48 703.583C1211.75 705.227 1211.94 706.89 1212.03 708.561Z" fill="#ABABAB"/>
<path fill-rule="evenodd" clip-rule="evenodd" d="M1079.69 586.967C1071.64 589.627 1064.1 594.253 1057.52 600.44C1060.13 601.032 1062.71 601.828 1065.22 602.826C1069.87 599.232 1074.96 596.476 1080.3 594.711C1093.31 590.413 1106.79 592.348 1117.76 600.092C1128.74 607.836 1136.31 620.754 1138.81 636.003C1140.46 646.047 1139.82 656.561 1137.07 666.518C1138.12 668.588 1139.07 670.734 1139.91 672.948C1140.96 673.493 1141.99 674.08 1143 674.707C1147.57 661.73 1148.91 647.635 1146.71 634.266C1143.84 616.798 1135.17 602.002 1122.6 593.131C1110.03 584.261 1094.6 582.044 1079.69 586.967ZM1114.57 642.363C1113.14 641.559 1111.68 640.83 1110.2 640.18C1108.55 635.929 1105.9 632.376 1102.49 629.969C1099.59 627.923 1096.29 626.806 1092.87 626.659C1091.98 625.218 1091.04 623.82 1090.05 622.469C1095.09 621.969 1100.05 623.259 1104.28 626.244C1109.34 629.815 1112.98 635.546 1114.57 642.363ZM1124 649.18C1122.57 647.885 1121.08 646.672 1119.53 645.546C1119.44 644.733 1119.33 643.923 1119.2 643.119C1117.7 633.969 1113.16 626.218 1106.57 621.572C1100.59 617.347 1093.36 616.004 1086.23 617.733C1084.88 616.219 1083.46 614.781 1081.98 613.425C1082.3 613.308 1082.63 613.196 1082.95 613.089C1091.94 610.119 1101.25 611.456 1108.83 616.807C1116.42 622.157 1121.65 631.082 1123.38 641.618C1123.79 644.108 1123.99 646.64 1124 649.18ZM1133.11 659.747C1132.33 658.587 1131.51 657.46 1130.66 656.368C1131.41 650.728 1131.35 645.005 1130.44 639.457C1128.39 626.98 1122.2 616.411 1113.22 610.075C1104.24 603.739 1093.21 602.155 1082.57 605.672C1080.29 606.425 1078.06 607.399 1075.92 608.576C1073.96 607.224 1071.95 606.016 1069.89 604.952C1073.16 602.834 1076.63 601.153 1080.22 599.965C1092.05 596.058 1104.31 597.817 1114.28 604.857C1124.26 611.897 1131.14 623.641 1133.42 637.504C1134.62 644.804 1134.49 652.378 1133.11 659.747Z" fill="#ABABAB"/>
<path fill-rule="evenodd" clip-rule="evenodd" d="M964.096 547.367C972.181 536.742 982.631 528.945 994.121 525.15C1009.03 520.227 1024.46 522.444 1037.03 531.314C1049.6 540.184 1058.28 554.981 1061.14 572.449C1063.38 586.072 1061.95 600.449 1057.17 613.628C1054.85 612.12 1052.44 610.83 1049.96 609.763C1053.98 598.401 1055.17 586.05 1053.24 574.337C1050.74 559.088 1043.17 546.17 1032.19 538.426C1021.22 530.682 1007.74 528.746 994.731 533.045C985.06 536.239 976.234 542.68 969.287 551.451C967.805 550.122 966.254 548.884 964.638 547.744C964.458 547.617 964.277 547.492 964.096 547.367ZM1044.09 599.796C1045.7 592.543 1045.96 585.015 1044.78 577.785C1042.73 565.308 1036.53 554.739 1027.55 548.403C1018.58 542.067 1007.55 540.484 996.902 544C989.04 546.597 981.859 551.818 976.192 558.926C974.927 557.277 973.584 555.711 972.167 554.235C978.379 546.668 986.159 541.105 994.655 538.299C1006.49 534.392 1018.74 536.151 1028.71 543.191C1038.69 550.231 1045.57 561.974 1047.85 575.838C1049.37 585.089 1048.75 594.778 1046.17 603.935C1045.52 602.52 1044.83 601.14 1044.09 599.796ZM1039.4 592.511C1039.83 588.26 1039.71 583.972 1039.03 579.801C1037.3 569.265 1032.07 560.34 1024.49 554.989C1016.9 549.639 1007.59 548.302 998.602 551.271C991.563 553.596 985.172 558.411 980.265 564.974C980.993 566.211 981.684 567.482 982.335 568.785C986.631 562.902 992.285 558.587 998.526 556.526C1006.33 553.947 1014.42 555.108 1021 559.755C1027.59 564.401 1032.13 572.152 1033.63 581.301C1033.91 583.008 1034.08 584.736 1034.15 586.474C1036.02 588.338 1037.78 590.356 1039.4 592.511ZM1029.51 582.381C1028.17 574.798 1024.35 568.386 1018.87 564.514C1013.28 560.572 1006.42 559.586 999.796 561.774C993.827 563.746 988.489 568.148 984.723 574.148C984.786 574.307 984.848 574.467 984.91 574.628C986.601 574.081 988.298 573.626 989.997 573.262C992.93 569.803 996.557 567.258 1000.51 565.953C1006.18 564.078 1012.07 564.922 1016.85 568.302C1020.42 570.819 1023.16 574.589 1024.78 579.099C1025.71 579.663 1026.62 580.261 1027.51 580.893C1028.19 581.372 1028.86 581.868 1029.51 582.381Z" fill="#ABABAB"/>
<path fill-rule="evenodd" clip-rule="evenodd" d="M1144.51 673.266C1143.66 670.245 1142.64 667.32 1141.47 664.507C1153.85 663.415 1166.03 666.654 1176.44 674C1185.67 680.515 1193.01 689.909 1197.85 701.135C1194.58 700.994 1191.28 701.158 1187.97 701.631C1183.82 693.504 1178.06 686.672 1171.07 681.734C1163.1 676.111 1153.94 673.244 1144.51 673.266ZM1138.31 738.587L1138.3 738.595L1137.73 738.188L1137.73 738.18L1138.31 738.587ZM1138.38 738.469L1138.35 738.522L1137.77 738.113L1137.79 738.059L1138.38 738.469ZM1138.42 738.393L1138.42 738.393L1137.83 737.98L1137.83 737.98L1138.42 738.393ZM1138.57 738.121L1138.55 738.17L1137.95 737.749L1137.97 737.699L1138.57 738.121ZM1146.32 726.73C1145.5 727.742 1144.71 728.78 1143.93 729.841C1143.19 729.556 1142.42 729.392 1141.63 729.353C1142.07 728.182 1142.49 727.002 1142.89 725.815C1144.08 725.909 1145.23 726.216 1146.32 726.73ZM1149.68 722.84C1150.66 721.769 1151.67 720.733 1152.7 719.731C1152.5 719.571 1152.29 719.416 1152.07 719.266C1150.05 717.836 1147.81 716.896 1145.48 716.463C1145.14 718 1144.76 719.529 1144.34 721.048C1144.49 721.065 1144.64 721.083 1144.79 721.105C1146.51 721.352 1148.16 721.939 1149.68 722.84ZM1156.4 716.369C1157.71 715.264 1159.04 714.211 1160.4 713.214C1159.47 712.325 1158.49 711.51 1157.45 710.777C1154.29 708.55 1150.77 707.172 1147.1 706.675C1146.92 708.314 1146.69 709.949 1146.42 711.578C1149.34 712.07 1152.13 713.217 1154.66 714.998C1155.26 715.424 1155.84 715.881 1156.4 716.369ZM1164.61 710.359C1166.32 709.285 1168.08 708.296 1169.87 707.397C1167.68 704.611 1165.17 702.187 1162.36 700.204C1157.88 697.047 1152.87 695.147 1147.65 694.554C1147.69 696.633 1147.67 698.717 1147.57 700.8C1151.72 701.437 1155.71 703.037 1159.29 705.566C1161.23 706.934 1163.01 708.543 1164.61 710.359ZM1178.2 703.937C1179.49 703.51 1180.79 703.132 1182.09 702.801C1178.44 696.456 1173.67 691.094 1168.01 687.096C1161.37 682.408 1153.82 679.828 1146 679.447C1146.19 680.394 1146.37 681.349 1146.52 682.312C1146.73 683.558 1146.91 684.81 1147.05 686.066C1153.84 686.526 1160.38 688.832 1166.15 692.909C1170.42 695.916 1174.11 699.781 1177.13 704.302C1177.48 704.177 1177.84 704.056 1178.2 703.937ZM1138.28 738.646L1138.3 738.606L1137.72 738.199L1137.7 738.24L1138.28 738.646ZM1137.7 738.252L1138.27 738.658L1138.24 738.707L1137.67 738.303L1137.7 738.252Z" fill="#ABABAB"/>
<path fill-rule="evenodd" clip-rule="evenodd" d="M1143.64 697.224L1143.6 697.3L1143.57 697.357L1153.56 704.408L1153.54 704.457L1166.91 713.894L1180.28 723.332L1180.31 723.284L1190.38 730.388C1190.4 730.344 1190.42 730.3 1190.45 730.255L1180.38 723.15C1180.36 723.194 1180.33 723.239 1180.31 723.284L1166.97 713.873L1153.56 704.408C1153.58 704.384 1153.59 704.36 1153.6 704.337C1153.61 704.321 1153.62 704.306 1153.63 704.29L1153.63 704.276L1143.64 697.224ZM1159.57 708.467L1159.55 708.511L1167.07 713.82L1174.6 719.129L1174.62 719.085L1167.19 713.843L1159.57 708.467ZM1219.86 750.974L1219.9 750.999C1229.36 733.407 1232.88 712.621 1229.69 693.212C1226.5 673.804 1216.87 657.363 1202.9 647.508C1192.52 640.181 1180.38 636.94 1168.03 638.006C1180.36 636.953 1192.48 640.196 1202.85 647.512C1216.82 657.368 1226.45 673.808 1229.64 693.216C1232.83 712.614 1229.31 733.389 1219.86 750.974Z" fill="#ABABAB"/>
<path fill-rule="evenodd" clip-rule="evenodd" d="M1142.15 621.853C1141.28 618.78 1140.24 615.805 1139.04 612.947C1151.44 611.845 1163.63 615.083 1174.05 622.437C1183.39 629.026 1190.79 638.557 1195.62 649.95C1194.1 649.845 1192.58 649.806 1191.04 649.834C1189.23 649.867 1187.41 649.992 1185.59 650.211C1181.43 642.087 1175.68 635.258 1168.68 630.322C1160.72 624.701 1151.57 621.834 1142.15 621.853ZM1179.7 651.245C1176.06 644.897 1171.29 639.532 1165.62 635.533C1158.98 630.844 1151.42 628.263 1143.61 627.883C1143.81 628.881 1143.99 629.887 1144.16 630.902C1144.35 632.098 1144.53 633.299 1144.67 634.504C1151.45 634.965 1157.99 637.271 1163.76 641.347C1168 644.334 1171.67 648.167 1174.68 652.651C1176.35 652.101 1178.02 651.633 1179.7 651.245ZM1167.22 655.665C1165.1 653.013 1162.67 650.699 1159.96 648.793C1155.5 645.64 1150.49 643.742 1145.28 643.146C1145.33 645.175 1145.3 647.208 1145.21 649.241C1149.35 649.881 1153.33 651.479 1156.9 654.003C1158.74 655.298 1160.43 656.81 1161.96 658.51C1163.68 657.475 1165.44 656.525 1167.22 655.665ZM1156.88 661.891C1155.91 660.94 1154.87 660.072 1153.77 659.296C1150.99 657.333 1147.92 656.03 1144.72 655.408C1144.53 657.053 1144.3 658.695 1144.03 660.33C1146.55 660.903 1148.97 661.976 1151.17 663.534C1151.8 663.975 1152.4 664.45 1152.98 664.958C1154.25 663.885 1155.55 662.862 1156.88 661.891Z" fill="#ABABAB"/>
<path fill-rule="evenodd" clip-rule="evenodd" d="M1060.4 601.626C1060.87 601.957 1061.33 602.307 1061.77 602.674C1063.09 601.585 1064.43 600.545 1065.79 599.558C1064.85 598.671 1063.86 597.856 1062.81 597.119C1059.67 594.903 1056.19 593.473 1052.57 592.857C1052.37 594.58 1052.13 596.3 1051.85 598.013C1054.87 598.561 1057.78 599.773 1060.4 601.626ZM1074.68 571.669C1080.73 575.937 1085.82 581.661 1089.72 588.432C1088.02 588.83 1086.32 589.305 1084.63 589.858C1081.45 585.154 1077.56 581.127 1073.1 577.98C1066.88 573.589 1059.83 571.119 1052.53 570.652C1052.37 569.324 1052.18 568 1051.96 566.683C1051.79 565.614 1051.59 564.553 1051.38 563.502C1059.65 563.948 1067.65 566.703 1074.68 571.669ZM1078.65 566.103C1086.09 571.353 1092.21 578.605 1096.65 587.232C1098.92 586.977 1101.19 586.858 1103.45 586.875C1104.47 586.86 1105.5 586.874 1106.52 586.915C1101.35 574.84 1093.48 564.738 1083.56 557.74C1072.53 549.956 1059.64 546.484 1046.52 547.558C1047.8 550.605 1048.9 553.775 1049.83 557.051C1060.06 556.938 1070 560.004 1078.65 566.103ZM1068.51 585.872C1071.41 587.916 1074.02 590.399 1076.29 593.243C1074.52 594.108 1072.77 595.055 1071.06 596.08C1069.48 594.357 1067.74 592.819 1065.86 591.493C1061.96 588.74 1057.61 587.016 1053.08 586.361C1053.18 584.198 1053.21 582.035 1053.17 579.876C1058.61 580.558 1063.84 582.573 1068.51 585.872Z" fill="#ABABAB"/>
<path fill-rule="evenodd" clip-rule="evenodd" d="M1049.81 600.124C1050.99 602.937 1052 605.863 1052.86 608.884C1062.28 608.862 1071.44 611.729 1079.41 617.352C1086.4 622.289 1092.15 629.118 1096.31 637.243C1098.5 636.979 1100.69 636.85 1102.86 636.856C1104.01 636.859 1105.15 636.899 1106.29 636.976C1101.45 625.651 1094.07 616.177 1084.78 609.618C1074.37 602.273 1062.19 599.033 1049.81 600.124ZM1076.35 622.714C1081.98 626.685 1086.72 632.004 1090.35 638.295C1088.68 638.685 1087 639.156 1085.33 639.707L1085.32 639.711C1082.33 635.279 1078.68 631.487 1074.49 628.527C1068.71 624.451 1062.18 622.145 1055.4 621.684C1055.25 620.428 1055.07 619.176 1054.87 617.93C1054.71 616.968 1054.53 616.012 1054.35 615.065C1062.16 615.446 1069.71 618.027 1076.35 622.714ZM1070.69 635.822C1073.39 637.73 1075.83 640.046 1077.95 642.699C1076.14 643.575 1074.35 644.542 1072.61 645.597C1071.1 643.936 1069.43 642.455 1067.63 641.184C1064.05 638.655 1060.06 637.055 1055.91 636.418C1056.01 634.335 1056.04 632.252 1055.99 630.174C1061.21 630.768 1066.22 632.667 1070.69 635.822ZM1065.79 646.395C1066.67 647.015 1067.51 647.693 1068.3 648.426C1066.95 649.39 1065.63 650.408 1064.33 651.479C1063.93 651.155 1063.52 650.845 1063.11 650.551C1060.56 648.751 1057.73 647.598 1054.78 647.116C1055.04 645.513 1055.26 643.905 1055.44 642.293C1059.11 642.79 1062.63 644.168 1065.79 646.395ZM1060.41 654.883L1060.45 654.911C1059.38 655.927 1058.34 656.98 1057.31 658.069C1056 657.386 1054.59 656.932 1053.12 656.723C1052.98 656.701 1052.83 656.683 1052.68 656.667C1053.1 655.147 1053.48 653.618 1053.82 652.081C1056.15 652.515 1058.39 653.454 1060.41 654.883ZM1051.26 661.36C1052.17 661.424 1053.06 661.613 1053.93 661.924C1053.06 662.982 1052.21 664.067 1051.38 665.179C1050.92 665.064 1050.45 664.995 1049.97 664.97C1050.42 663.776 1050.85 662.572 1051.26 661.36Z" fill="#ABABAB"/>
<path fill-rule="evenodd" clip-rule="evenodd" d="M1069.8 687.536C1070.86 690.078 1071.79 692.721 1072.56 695.451C1080.9 695.511 1089 698.089 1096.06 703.072C1102.34 707.502 1107.5 713.624 1111.24 720.908C1114.25 720.54 1117.26 720.456 1120.23 720.653C1115.87 710.496 1109.25 701.999 1100.91 696.111C1091.64 689.573 1080.82 686.65 1069.8 687.536ZM1073.09 743.221C1072.34 744.139 1071.6 745.08 1070.89 746.044C1070.58 746.007 1070.27 745.992 1069.95 745.998C1070.36 744.927 1070.75 743.848 1071.11 742.762C1071.78 742.838 1072.45 742.992 1073.09 743.221ZM1079.06 736.794C1078.03 737.766 1077.03 738.776 1076.06 739.822C1074.91 739.179 1073.68 738.732 1072.4 738.494C1072.79 737.102 1073.14 735.7 1073.45 734.291C1075.4 734.711 1077.26 735.528 1078.97 736.73C1079 736.751 1079.03 736.772 1079.06 736.794ZM1086.08 730.993C1084.95 731.795 1083.85 732.638 1082.77 733.522C1082.52 733.324 1082.26 733.133 1082 732.948C1079.65 731.288 1077.03 730.24 1074.3 729.825C1074.54 728.399 1074.74 726.967 1074.9 725.532C1078.05 726.022 1081.09 727.242 1083.81 729.166C1084.6 729.724 1085.36 730.334 1086.08 730.993ZM1094.76 725.826C1093.24 726.561 1091.75 727.368 1090.28 728.244C1088.97 726.828 1087.53 725.562 1085.98 724.468C1082.72 722.169 1079.1 720.723 1075.32 720.162C1075.4 718.352 1075.43 716.541 1075.39 714.735C1079.99 715.303 1084.4 717.001 1088.35 719.787C1090.73 721.468 1092.88 723.501 1094.76 725.826ZM1106.43 721.738C1104.77 722.109 1103.1 722.568 1101.44 723.116C1101.4 723.132 1101.35 723.148 1101.3 723.164C1098.6 719.156 1095.31 715.728 1091.52 713.054C1086.47 709.487 1080.76 707.426 1074.84 706.934C1074.71 705.826 1074.55 704.722 1074.37 703.622C1074.23 702.719 1074.06 701.824 1073.88 700.935C1080.99 701.243 1087.86 703.569 1093.89 707.829C1098.92 711.379 1103.17 716.126 1106.43 721.738Z" fill="#ABABAB"/>
</mask>
<g mask="url(#mask0_1180_69095)">
<path d="M1100.97 659.488C1100.97 659.488 1090.58 674.898 1058.73 660.828C1026.87 646.423 1014.41 659.153 1014.41 659.153C1007.83 686.958 1029.99 714.093 1055.96 716.103C1078.47 717.778 1106.86 691.983 1100.97 659.488Z" fill="#C53A1B"/>
<path d="M1058.73 660.828C1090.58 674.898 1100.97 659.488 1100.97 659.488L1099.07 641.383C1091.75 645.194 1073.43 650.759 1058.73 642.526C1044.02 634.293 1027.6 635.284 1021.22 636.809L1014.41 659.153C1014.41 659.153 1026.87 646.423 1058.73 660.828Z" fill="#C53A1B"/>
<path d="M1035.06 680.243C1027.08 656.231 1043.04 636.792 1043.04 636.792C1043.04 636.792 1032.07 634.505 1021.09 636.791L1014.27 659.136C1007.69 686.941 1033.06 727.124 1071.99 714.546C1071.99 714.546 1043.04 704.255 1035.06 680.243Z" fill="#A0260B"/>
</g>
<path d="M1358 918C1358 918 1224 918 1182.85 918C1141.7 918 1007.7 918 1007.7 918L859 859H1243.5L1358 918Z" fill="#FAF9F2"/>
<path d="M1139.28 702.68H1151.48V703.88H1139.64L1139.28 702.68ZM1136.08 692H1151.4L1153.28 689.64C1153.28 689.64 1155.4 691.32 1156.68 692.56C1156.6 693 1156.24 693.2 1155.68 693.2H1136.4L1136.08 692ZM1144.72 686.48L1148.76 686.88C1148.68 687.44 1148.28 687.84 1147.28 687.96V698.32H1144.72V686.48ZM1152.68 697.72H1152.24L1153.84 696.12L1156.72 698.96C1156.44 699.24 1156 699.28 1155.24 699.32C1154.36 700.16 1152.8 701.4 1151.8 702.12L1151.2 701.84C1151.64 700.8 1152.36 698.76 1152.68 697.72ZM1144.64 706.64L1148.56 707.08C1148.44 707.64 1148.08 707.92 1147.16 708.04V719.4C1147.16 721.56 1146.76 722.8 1143.48 723.12C1143.36 722.36 1143.2 721.64 1142.8 721.24C1142.28 720.84 1141.48 720.56 1140.04 720.36V719.72C1140.04 719.72 1143.2 719.92 1143.88 719.92C1144.48 719.92 1144.64 719.76 1144.64 719.24V706.64ZM1135.6 711.72C1139.12 711.4 1147.36 710.12 1155.96 708.72L1156.04 709.4C1151.76 710.64 1146 712.28 1138.04 714.24C1137.84 714.72 1137.44 715.04 1137.08 715.12L1135.6 711.72ZM1138.6 697.72H1154.04V698.88H1138.6V697.72ZM1149.72 702.68H1149.28L1150.88 701.12L1153.8 703.76C1153.48 704.04 1153 704.12 1152.2 704.16C1150.72 705.24 1148.4 706.72 1146.36 707.52H1145.64C1147.16 706.28 1148.88 704 1149.72 702.68ZM1155.96 696.48H1169.72V697.64H1156.32L1155.96 696.48ZM1160.64 686.8L1164.68 687.2C1164.6 687.76 1164.24 688.16 1163.24 688.32C1163.08 703.64 1163.72 715.52 1151.28 723.08L1150.76 722.4C1161.36 714.4 1160.64 702.64 1160.64 686.8ZM1168.24 696.48H1167.8L1169.32 694.76L1172.4 697.36C1172.12 697.64 1171.6 697.88 1170.72 698C1170.44 712.16 1169.64 719.32 1167.84 721.36C1166.8 722.6 1165.24 723.16 1163.64 723.16C1163.64 722.32 1163.52 721.6 1163.04 721.16C1162.52 720.76 1161.2 720.4 1159.84 720.16L1159.88 719.48C1161.32 719.6 1163.64 719.8 1164.4 719.8C1165.16 719.8 1165.44 719.68 1165.88 719.32C1167.28 717.92 1167.96 710.24 1168.24 696.48ZM1138.08 695.88H1138.76C1139.84 699.24 1139.2 701.76 1138.12 702.76C1137.4 703.44 1136.08 703.6 1135.6 702.76C1135.24 702 1135.64 701.16 1136.4 700.64C1137.44 699.8 1138.28 697.68 1138.08 695.88ZM1144.32 747.12L1144.96 747.48V777.36L1142.24 778.2L1143.2 777.2C1143.68 779 1142.68 779.96 1142.08 780.24L1140.72 777.28C1142.12 776.6 1142.32 776.36 1142.32 775.48V747.12H1144.32ZM1142.32 744.92L1145.44 746.24H1144.96V748.6C1144.96 748.6 1144.12 748.6 1142.32 748.6V744.92ZM1141.32 777.16C1143.96 776.64 1150.2 774.92 1156.56 773.08L1156.76 773.68C1153.6 775.04 1148.24 777.4 1142.32 779.68L1141.32 777.16ZM1162.72 746.24L1164.28 744.52L1167.8 747.2C1167.48 747.56 1166.72 747.88 1165.8 748.04V763.28C1165.76 763.52 1164.48 764.2 1163.6 764.2H1163.2V746.24H1162.72ZM1164.52 761.04V762.24H1143.68V761.04H1164.52ZM1164.52 753.64V754.84H1143.68V753.64H1164.52ZM1164.48 746.24V747.44H1143.68V746.24H1164.48ZM1170.32 765.6C1169.96 765.96 1169.6 766.08 1168.8 765.76C1166.08 767.4 1161.48 769.64 1157.56 771.16L1157.08 770.64C1160.48 768.56 1164.8 765.28 1167 763.2L1170.32 765.6ZM1153.16 761.4C1155.88 770.36 1162.92 775.32 1172.64 777.44L1172.6 777.84C1171.36 778.04 1170.48 778.8 1170.08 780.12C1160.8 777.2 1154.96 771.76 1152.48 761.84L1153.16 761.4ZM1169.08 802.28C1169.08 802.28 1171.08 803.84 1172.32 805.04C1172.2 805.48 1171.88 805.68 1171.32 805.68H1157.36V804.48H1167.28L1169.08 802.28ZM1151.52 802.52C1151.52 802.52 1153.36 803.96 1154.44 805.08C1154.32 805.52 1153.96 805.72 1153.48 805.72H1141.72V804.52H1149.92L1151.52 802.52ZM1160.72 806.48C1167.52 807.36 1165.88 812.2 1163.44 810.68C1163.08 809.32 1161.6 807.68 1160.32 806.84L1160.72 806.48ZM1161.72 801.68C1161.56 802.08 1161.04 802.4 1160.24 802.32C1158.44 805.96 1155.96 809.16 1153.4 811.12L1152.84 810.72C1154.76 808.24 1156.68 804.32 1157.92 800.24L1161.72 801.68ZM1144.36 806.48C1151.08 807.76 1149.36 812.44 1147.04 810.92C1146.72 809.48 1145.28 807.76 1143.96 806.84L1144.36 806.48ZM1146.04 801.56C1145.88 801.96 1145.4 802.32 1144.52 802.24C1142.44 806.84 1139.32 810.44 1135.96 812.6L1135.48 812.2C1138.16 809.52 1140.76 805.12 1142.24 800.2L1146.04 801.56ZM1144.56 817.96H1143.52L1143.88 817.72C1143.6 819.6 1142.88 823.08 1142.4 825H1142.72L1141.44 826.32L1138.6 824.12C1139.2 823.72 1140.2 823.36 1140.88 823.24L1139.96 824.6C1140.44 822.84 1141.2 818.68 1141.48 816.44L1144.56 817.96ZM1154.8 825.08C1150.52 829.88 1143.56 833.52 1135.72 835.72L1135.4 835C1142.04 832.56 1148.08 828.64 1151.72 824.44H1154.8V825.08ZM1155.48 836.36C1155.48 836.56 1154.64 837.2 1153.28 837.2H1152.84V812.48H1155.48V836.36ZM1168.56 823.8V825H1141.4L1141.72 823.8H1168.56ZM1166.48 817.92V819.12H1142.48L1142.76 817.92H1166.48ZM1166.92 823.8L1168.4 822.32L1171.32 824.72C1171.04 825.04 1170.56 825.2 1169.76 825.28C1169.4 829.36 1168.52 831.96 1167.08 833C1166.16 833.56 1164.84 833.88 1163.4 833.88C1163.4 833.2 1163.28 832.52 1162.76 832.12C1162.24 831.72 1160.96 831.4 1159.68 831.2V830.52C1161.04 830.64 1163.52 830.84 1164.28 830.84C1164.92 830.84 1165.24 830.76 1165.56 830.52C1166.28 830 1167 827.56 1167.32 823.8H1166.92ZM1166.32 812.08V813.24H1139.2L1138.84 812.08H1166.32ZM1164.76 812.08L1166.16 810.56L1169.24 812.92C1169 813.2 1168.4 813.48 1167.72 813.6V819.72C1167.68 819.96 1166.4 820.56 1165.52 820.56H1165.12V812.08H1164.76Z" fill="#C43A1B"/>
<rect x="882" y="1212" width="338" height="73" fill="#C53A1B"/>
<path d="M968.24 1265V1263.84L973.52 1263.4H973.92V1265H968.24ZM972.48 1265C972.56 1260.6 972.56 1256.16 972.56 1251.64V1249.36C972.56 1244.92 972.56 1240.48 972.48 1236.08H975.32C975.2 1240.44 975.2 1244.88 975.2 1249.6V1250.32C975.2 1256.08 975.2 1260.56 975.32 1265H972.48ZM973.92 1265V1263.72H979.24C984.52 1263.72 987.56 1261.4 987.56 1257.2C987.56 1252.92 984.76 1250.56 978.36 1250.56H973.92V1249.36H977.92C983.4 1249.36 986.16 1247 986.16 1242.96C986.16 1239.44 984.08 1237.36 978.64 1237.36H973.92V1236.08H979.44C985.72 1236.08 988.76 1238.84 988.76 1242.96C988.76 1246.44 986.16 1249.52 980.08 1250.08L980.32 1249.72C987.32 1250 990.24 1253.12 990.24 1257.2C990.24 1261.4 987.08 1265 979.56 1265H973.92ZM968.24 1237.24V1236.08H973.92V1237.64H973.52L968.24 1237.24ZM1003.89 1265.56C999.011 1265.56 994.291 1262.12 994.291 1254.88C994.291 1247.68 999.051 1244.12 1003.89 1244.12C1008.73 1244.12 1013.53 1247.68 1013.53 1254.88C1013.53 1262.12 1008.77 1265.56 1003.89 1265.56ZM1003.89 1264.36C1008.13 1264.36 1010.81 1260.96 1010.81 1254.92C1010.81 1248.88 1008.13 1245.36 1003.89 1245.36C999.611 1245.36 996.971 1248.88 996.971 1254.92C996.971 1260.96 999.611 1264.36 1003.89 1264.36ZM1025.45 1275.4C1019.85 1275.4 1017.45 1273.24 1017.45 1270.12C1017.45 1267.56 1019.25 1265.92 1022.69 1264.48L1022.93 1264.88C1020.61 1266.48 1019.65 1267.68 1019.65 1269.68C1019.65 1272.56 1021.77 1274.04 1025.61 1274.04C1031.21 1274.04 1034.13 1271.76 1034.13 1268.88C1034.13 1266.96 1033.01 1265.44 1029.45 1265.44H1024.41C1023.49 1265.44 1022.65 1265.4 1021.89 1265.2V1265.12C1019.85 1264.64 1018.89 1263.48 1018.89 1261.72C1018.89 1260.08 1019.85 1258.76 1022.09 1256.96V1256.6L1023.05 1257.08C1021.49 1258.56 1020.81 1259.44 1020.81 1260.8C1020.81 1262.2 1021.69 1263.2 1023.89 1263.2H1029.77C1034.13 1263.2 1036.37 1265 1036.37 1268.32C1036.37 1271.88 1032.61 1275.4 1025.45 1275.4ZM1025.89 1258.28C1021.41 1258.28 1018.45 1255.52 1018.45 1251.2C1018.45 1246.88 1021.45 1244.12 1025.89 1244.12C1028.13 1244.12 1030.01 1244.8 1031.25 1246L1031.33 1246.08C1032.65 1247.28 1033.33 1249.04 1033.33 1251.2C1033.33 1255.52 1030.29 1258.28 1025.89 1258.28ZM1025.85 1257.12C1028.93 1257.12 1031.01 1254.68 1031.01 1251.16C1031.01 1247.64 1028.93 1245.28 1025.93 1245.28C1022.85 1245.28 1020.81 1247.68 1020.81 1251.2C1020.81 1254.72 1022.81 1257.12 1025.85 1257.12ZM1030.09 1246.56V1245.88H1030.33L1035.85 1244.28L1036.49 1244.72V1246.64L1030.09 1246.56ZM1048.28 1265.56C1044.52 1265.56 1042.48 1263.52 1042.52 1257.6L1042.6 1245.88L1043.36 1246.48L1039.16 1245.96V1244.92L1044.72 1244.44L1045.12 1244.92L1044.96 1249.92V1257.48C1044.96 1262.04 1046.44 1263.64 1049.2 1263.64C1051.76 1263.64 1054.24 1262.16 1056.28 1259.52L1057.04 1260.88H1056.32C1054.24 1263.68 1051.56 1265.56 1048.28 1265.56ZM1056.16 1265.32L1056.04 1260.36V1260.32L1056.08 1246.32L1052.68 1246V1244.92L1058.2 1244.44L1058.6 1244.92L1058.44 1249.92V1263.6L1061.6 1263.92V1265L1056.16 1265.32ZM1065.22 1265V1263.92L1069.62 1263.48H1070.42L1074.54 1263.92V1265H1065.22ZM1068.7 1265C1068.78 1263.08 1068.82 1258.64 1068.82 1255.96V1253.76C1068.82 1251 1068.78 1248.8 1068.7 1246.8L1065.02 1246.64V1245.6L1070.5 1244.24L1071.02 1244.56L1071.26 1249.28V1255.96C1071.26 1258.64 1071.3 1263.08 1071.38 1265H1068.7ZM1078.74 1265V1263.92L1083.1 1263.48H1083.94L1088.06 1263.92V1265H1078.74ZM1082.22 1265C1082.3 1263.08 1082.34 1258.72 1082.34 1255.96V1251.64C1082.34 1247.48 1080.86 1246.04 1078.42 1246.04C1076.54 1246.04 1073.9 1246.92 1070.82 1250.28L1070.42 1249.08H1070.74C1073.62 1245.6 1076.62 1244.12 1079.38 1244.12C1082.78 1244.12 1084.74 1246.16 1084.74 1251.6V1255.96C1084.74 1258.72 1084.78 1263.08 1084.86 1265H1082.22ZM1100.2 1265.56C1095.12 1265.56 1091.6 1261.24 1091.6 1255.12C1091.6 1248.32 1095.56 1244.12 1100.76 1244.12C1102.92 1244.12 1105.2 1245.12 1107.2 1247.76H1107.6L1107.16 1248.96C1105.08 1246.68 1103.32 1245.72 1101.16 1245.72C1097.36 1245.72 1094.2 1248.56 1094.2 1255.08C1094.2 1261.04 1097.08 1263.92 1100.88 1263.92C1103.28 1263.92 1105.08 1262.96 1107.12 1260.44L1107.52 1261.68H1107.16C1105.32 1264.36 1102.92 1265.56 1100.2 1265.56ZM1106.8 1265.36L1106.72 1261.32V1248.2L1106.76 1247.84V1235.32L1103.04 1235.16V1234.08L1108.64 1233L1109.24 1233.36L1109.12 1239.36V1263.64L1113.16 1263.92V1265L1106.8 1265.36ZM1116.73 1275.84C1115.09 1275.84 1113.49 1275.16 1113.33 1273.92C1113.49 1273 1114.37 1272.56 1115.37 1272.56C1116.25 1272.56 1117.13 1273.04 1118.01 1273.84L1119.13 1274.84L1117.93 1275.36L1117.13 1274.68C1119.77 1274.12 1122.01 1271.36 1123.45 1267.48L1124.57 1264.56L1124.69 1264.24L1128.29 1254.28L1131.69 1244.68H1133.21L1124.89 1266.92C1122.57 1273.12 1119.89 1275.84 1116.73 1275.84ZM1124.45 1266.72L1115.73 1244.68H1118.49L1125.37 1263.24L1125.61 1263.8L1124.45 1266.72ZM1113.49 1245.76V1244.68H1122.77V1245.76L1118.37 1246.16H1117.41L1113.49 1245.76ZM1127.37 1245.76V1244.68H1135.41V1245.76L1132.17 1246.12H1131.61L1127.37 1245.76Z" fill="#FAF9F2"/>
</svg>
