<svg width="306" height="78" viewBox="0 0 306 78" fill="none" xmlns="http://www.w3.org/2000/svg">
<path d="M41.7008 7.30225C42.233 8.1006 42.7263 8.82755 43.2001 9.561C45.381 12.9232 47.5748 16.2853 49.7362 19.667C51.5017 22.4255 53.4748 25.0737 54.5847 28.2152C54.6626 28.4423 55.1494 28.7539 55.3117 28.689C57.4536 27.8711 59.6734 27.9231 61.8543 28.2411C66.2419 28.8902 70.5972 29.7405 74.9784 30.4414C77.315 30.8114 79.6711 31.0451 82.0207 31.3436C82.2219 31.3696 82.4296 31.3826 82.6828 31.4086C82.6438 31.5708 82.6438 31.6877 82.5919 31.7655C80.1774 35.2965 77.7823 38.8468 75.3224 42.3518C73.9983 44.2471 72.5638 46.071 71.1878 47.9338C68.6045 51.4452 65.4306 54.1908 61.1987 55.5278C59.3359 56.1185 57.4212 56.3846 55.4675 56.0082C55.3182 55.9822 55.1624 55.9887 54.786 55.9692C55.0845 56.2873 55.2598 56.4625 55.4285 56.6507C57.7976 59.2989 59.1087 62.3236 58.1935 65.8934C57.6159 68.1457 56.0906 69.8852 54.1953 71.2287C51.3978 73.2084 48.7172 75.3243 46.2832 77.7389C46.2118 77.8103 46.1209 77.8557 45.9132 77.7908C46.7116 76.9405 47.471 76.0513 48.3213 75.2595C49.561 74.1041 50.911 73.0656 52.1378 71.8973C53.2282 70.8588 54.3251 69.8008 55.2143 68.6C56.7331 66.5555 56.9344 64.1799 56.4151 61.7394C55.5908 57.8645 53.371 55.2163 49.5155 54.0545C49.2949 53.9896 49.0937 53.8662 48.9184 53.665C49.7038 53.9311 50.4956 54.1648 51.268 54.4569C54.5912 55.7161 57.869 55.3915 61.1208 54.1973C64.7037 52.8861 67.4882 50.5365 69.7144 47.4924C73.3232 42.5595 76.9126 37.6136 80.5019 32.6677C80.6187 32.5055 80.6771 32.2913 80.8264 31.9603C79.9567 31.8564 79.1973 31.785 78.4379 31.6617C73.7971 30.8958 69.1627 30.0909 64.5219 29.338C61.6725 28.8772 58.8102 28.5981 55.9153 28.8902C55.3506 28.9486 54.8119 29.033 55.0521 29.8573C56.4605 34.6734 55.4285 39.1065 52.9361 43.3124C50.9435 46.6746 48.2888 49.3617 44.8877 51.3024C44.375 51.5945 43.8297 51.8347 43.3559 52.1787C41.8761 53.2561 40.5195 52.5876 39.2279 51.8476C36.5472 50.3094 34.1197 48.4465 32.1985 45.9931C29.1804 42.1441 27.324 37.8927 27.7264 32.8754C27.9796 29.708 29.0635 26.7937 30.7316 24.1325C33.237 20.1408 35.8527 16.2269 38.4165 12.2676C39.3382 10.8461 40.2209 9.39873 41.1361 7.96429C41.2594 7.76957 41.4347 7.60082 41.6684 7.31523L41.7008 7.30225ZM41.6684 11.8652C41.4022 12.2027 41.188 12.4299 41.0193 12.696C40.4222 13.6241 39.8445 14.5653 39.2603 15.4999C36.5148 19.8747 33.6264 24.165 31.0562 28.637C28.7455 32.6483 28.6481 37.0424 30.3941 41.2614C32.2374 45.7075 35.4114 49.1151 39.7406 51.3608C40.9284 51.9775 41.9345 52.1203 43.2845 51.4777C47.2308 49.6019 50.1127 46.6421 52.1508 42.9295C55.2728 37.2501 54.3446 31.5903 51.1577 26.2809C48.3927 21.6661 45.3226 17.2394 42.3758 12.7349C42.1941 12.4558 41.9475 12.2157 41.6684 11.8652Z" fill="#FF0000"/>
<path d="M0.542969 31.3892C6.30666 30.9673 11.7913 29.7341 17.3148 28.7086C20.2616 28.1633 23.2343 27.8453 26.2329 28.2737C26.8171 28.3581 27.3818 28.5398 27.9595 28.6761C27.94 28.7605 27.927 28.8514 27.9075 28.9357C27.6349 28.9098 27.3623 28.8903 27.0832 28.8643C24.2403 28.5917 21.4364 28.9033 18.6454 29.3901C13.4788 30.2923 8.37718 31.558 3.11327 31.8306C2.85364 31.8436 2.59401 31.9214 2.21756 31.9863C2.35386 32.259 2.43175 32.4731 2.56156 32.6549C4.78136 35.7704 6.95573 38.9184 9.24044 41.982C11.2201 44.6366 13.1867 47.3173 15.4065 49.7578C19.1387 53.8664 23.8314 55.833 29.4523 55.1126C30.3999 54.9892 31.3151 54.6063 32.2368 54.3272C32.5613 54.2298 32.8794 54.1 33.2364 54.0805C32.6133 54.4116 31.9772 54.7296 31.3606 55.0736C28.5501 56.6184 27.3169 59.1952 26.7262 62.1939C25.9538 66.0948 27.6933 68.9506 30.4584 71.4301C32.6782 73.4227 34.846 75.4802 37.0399 77.5053C37.1372 77.5962 37.2151 77.7001 37.2086 77.9013C36.7673 77.5053 36.3389 77.0899 35.8845 76.7135C33.3272 74.6105 30.7504 72.527 28.2126 70.4045C26.4017 68.8987 25.0776 67.0619 24.779 64.6538C24.5713 62.9727 25.0322 61.3955 25.6553 59.8637C26.2005 58.5331 26.8431 57.261 28.1087 56.4367C28.1607 56.4042 28.1672 56.3004 28.2321 56.1121C27.9595 56.1121 27.7453 56.0927 27.5311 56.1121C25.3307 56.3653 23.1953 56.177 21.1248 55.3008C17.3473 53.6976 14.368 51.1403 11.96 47.8495C9.92196 45.065 7.81249 42.3389 5.82635 39.522C4.10633 37.0815 2.52262 34.5437 0.880485 32.0448C0.770144 31.876 0.692254 31.6748 0.542969 31.3762V31.3892Z" fill="#FF0000"/>
<path d="M42.3175 6.30868C42.0514 4.80285 41.8048 3.27755 41.4997 1.76522C41.331 0.940909 41.6944 0.187993 42.4409 0.0257261C43.1289 -0.123559 43.8299 0.460599 43.8493 1.33035C43.9013 3.20615 43.3106 4.89372 42.3175 6.30868Z" fill="#FF0000"/>
<path d="M32.7772 31.9923C32.6928 33.2709 32.576 34.5561 32.524 35.8347C32.4397 37.8468 32.9265 39.7681 33.9195 41.4881C35.5746 44.37 37.6971 46.8559 40.7282 48.4201C41.3578 48.7447 41.9225 48.8096 42.5586 48.4656C46.8294 46.1289 49.7178 42.6759 50.6005 37.8468C50.938 35.984 50.6589 34.0109 50.6589 31.9728C50.7952 32.9853 50.912 33.9135 51.0354 34.8417C51.7104 39.9628 49.9384 44.2726 46.5373 47.9658C45.5313 49.0562 44.2397 49.8935 43.0324 50.7957C42.2276 51.3993 41.3773 51.4318 40.4881 50.8476C34.9516 47.2388 31.9529 42.241 32.1865 35.5297C32.2255 34.3354 32.524 33.1541 32.7058 31.9663L32.7902 31.9858L32.7772 31.9923Z" fill="#FF0000"/>
<path d="M41.6821 14.6816C44.4796 19.7703 47.1408 24.6188 49.7954 29.4609C49.7565 29.4803 49.7111 29.5063 49.6721 29.5258C47.0499 25.2095 44.4212 20.8867 41.6497 16.3303C38.9755 20.7374 36.4117 24.9693 33.8479 29.2012C33.809 29.1818 33.7636 29.1558 33.7246 29.1363C36.3338 24.3917 38.9431 19.647 41.6757 14.6816H41.6821Z" fill="#FF0000"/>
<path d="M109.997 44.2261V15.9747L111.838 17.3673L104.974 20.9982L103.531 16.3228L112.832 11.349H115.419V44.2261H109.997ZM104.476 46.6632V41.4904H121.089V46.6632H104.476Z" fill="#FF2222"/>
<path d="M141.495 46.6632V20.5506H146.668V26.1213L145.723 26.7181C145.988 25.856 146.403 25.027 146.966 24.2312C147.563 23.4354 148.276 22.7391 149.105 22.1422C149.967 21.5122 150.879 21.0148 151.841 20.6501C152.835 20.2853 153.847 20.1029 154.875 20.1029C156.367 20.1029 157.677 20.3516 158.804 20.849C159.931 21.3464 160.86 22.0925 161.589 23.0872C162.319 24.082 162.849 25.3255 163.181 26.8176L162.385 26.6187L162.733 25.7731C163.098 25.0105 163.596 24.2975 164.226 23.6344C164.889 22.938 165.635 22.3246 166.464 21.794C167.293 21.2635 168.171 20.849 169.1 20.5506C170.028 20.2522 170.94 20.1029 171.836 20.1029C173.792 20.1029 175.4 20.5008 176.66 21.2967C177.953 22.0925 178.915 23.3028 179.545 24.9276C180.208 26.5523 180.54 28.575 180.54 30.9956V46.6632H175.367V31.2941C175.367 29.8019 175.168 28.5916 174.77 27.6632C174.405 26.7016 173.842 25.9886 173.079 25.5244C172.316 25.0602 171.338 24.8281 170.144 24.8281C169.216 24.8281 168.337 24.9939 167.508 25.3255C166.712 25.6239 166.016 26.055 165.419 26.6187C164.822 27.1824 164.358 27.8455 164.027 28.6082C163.695 29.3377 163.529 30.1501 163.529 31.0454V46.6632H158.356V31.1946C158.356 29.8351 158.157 28.6911 157.76 27.7626C157.362 26.801 156.781 26.0715 156.019 25.5742C155.256 25.0768 154.328 24.8281 153.233 24.8281C152.305 24.8281 151.443 24.9939 150.647 25.3255C149.851 25.6239 149.155 26.055 148.558 26.6187C147.961 27.1492 147.497 27.7958 147.165 28.5585C146.834 29.288 146.668 30.0838 146.668 30.9459V46.6632H141.495Z" fill="#FF2222"/>
<path d="M188.244 46.6632V20.5506H193.367V46.6632H188.244ZM190.731 14.7809C189.637 14.7809 188.791 14.4991 188.194 13.9354C187.598 13.3717 187.299 12.5759 187.299 11.5479C187.299 10.5863 187.598 9.80709 188.194 9.21023C188.824 8.61337 189.67 8.31494 190.731 8.31494C191.825 8.31494 192.671 8.59679 193.268 9.16049C193.865 9.7242 194.163 10.52 194.163 11.5479C194.163 12.5095 193.848 13.2888 193.218 13.8856C192.621 14.4825 191.792 14.7809 190.731 14.7809Z" fill="#FF2222"/>
<path d="M201.242 46.6632V20.5506H206.365V25.9223L205.469 26.5192C205.801 25.3586 206.448 24.2975 207.409 23.3359C208.371 22.3412 209.515 21.5454 210.841 20.9485C212.168 20.3185 213.527 20.0035 214.92 20.0035C216.909 20.0035 218.567 20.4014 219.894 21.1972C221.22 21.9598 222.215 23.137 222.878 24.7286C223.541 26.3202 223.873 28.3263 223.873 30.747V46.6632H218.75V31.0951C218.75 29.603 218.551 28.3761 218.153 27.4145C217.755 26.4197 217.141 25.7068 216.312 25.2757C215.483 24.8115 214.456 24.6125 213.229 24.6789C212.234 24.6789 211.322 24.8447 210.493 25.1763C209.664 25.4747 208.935 25.9058 208.305 26.4694C207.708 27.0332 207.227 27.6963 206.862 28.459C206.531 29.1885 206.365 29.9843 206.365 30.8464V46.6632H203.828C203.397 46.6632 202.966 46.6632 202.535 46.6632C202.104 46.6632 201.673 46.6632 201.242 46.6632Z" fill="#FF2222"/>
<path d="M239.974 47.1606C238.117 47.1606 236.493 46.7296 235.1 45.8674C233.74 45.0053 232.679 43.795 231.917 42.2365C231.187 40.678 230.822 38.8211 230.822 36.6658V20.5506H235.945V35.2731C235.945 36.7985 236.178 38.1248 236.642 39.2522C237.139 40.3465 237.836 41.192 238.731 41.7889C239.659 42.3857 240.77 42.6842 242.063 42.6842C243.025 42.6842 243.904 42.5349 244.699 42.2365C245.495 41.9049 246.175 41.4573 246.739 40.8936C247.336 40.3299 247.8 39.6501 248.131 38.8543C248.463 38.0585 248.629 37.1964 248.629 36.2679V20.5506H253.752V46.6632H248.629V41.192L249.524 40.5951C249.126 41.822 248.446 42.9329 247.485 43.9276C246.556 44.9224 245.445 45.7182 244.152 46.3151C242.859 46.8788 241.466 47.1606 239.974 47.1606Z" fill="#FF2222"/>
<path d="M264.17 46.6632V13.8856H269.293V46.6632H264.17ZM258.749 25.5244V20.5506H275.361V25.5244H258.749Z" fill="#FF2222"/>
<path d="M291.969 47.1606C289.284 47.1606 286.896 46.5969 284.807 45.4695C282.751 44.3089 281.126 42.7339 279.933 40.7444C278.772 38.7548 278.192 36.4669 278.192 33.8805C278.192 31.8246 278.523 29.9511 279.187 28.26C279.85 26.5689 280.762 25.1099 281.922 23.8831C283.116 22.623 284.525 21.6614 286.15 20.9982C287.808 20.3019 289.599 19.9537 291.522 19.9537C293.213 19.9537 294.788 20.2853 296.247 20.9485C297.706 21.5785 298.966 22.4572 300.027 23.5846C301.121 24.712 301.95 26.055 302.514 27.6134C303.111 29.1387 303.393 30.8133 303.359 32.637L303.31 34.8255H281.972L280.828 30.747H298.883L298.137 31.5925V30.3988C298.037 29.3045 297.673 28.3263 297.043 27.4642C296.413 26.6021 295.617 25.9223 294.655 25.4249C293.694 24.9276 292.649 24.6789 291.522 24.6789C289.731 24.6789 288.222 25.027 286.996 25.7234C285.769 26.3866 284.84 27.3813 284.21 28.7077C283.58 30.0009 283.265 31.6091 283.265 33.5323C283.265 35.356 283.647 36.9477 284.409 38.3072C285.172 39.6335 286.25 40.6615 287.642 41.391C289.035 42.1205 290.643 42.4852 292.467 42.4852C293.76 42.4852 294.954 42.2697 296.048 41.8386C297.175 41.4075 298.386 40.6283 299.679 39.5009L302.265 43.1318C301.469 43.9276 300.491 44.624 299.331 45.2208C298.203 45.8177 296.993 46.2985 295.7 46.6632C294.44 46.9948 293.196 47.1606 291.969 47.1606Z" fill="#FF2222"/>
<path d="M101.277 74.0576C101.277 72.9307 101.559 71.9301 102.123 71.0558C102.686 70.1815 103.385 69.4238 104.221 68.7826C105.056 68.122 105.96 67.5683 106.931 67.1214C107.903 66.6551 108.806 66.2763 109.642 65.9848C110.477 65.674 111.176 65.4311 111.74 65.2562C112.303 65.0619 112.585 64.9065 112.585 64.7899C112.585 64.1099 112.546 63.4493 112.468 62.8082C112.41 62.1476 112.342 61.487 112.264 60.8264C112.187 60.1658 112.109 59.5149 112.031 58.8738C111.973 58.2132 111.944 57.5623 111.944 56.9212V55.0268C112.74 54.7354 113.304 54.7645 113.634 55.1143C113.984 55.464 114.042 56.0663 113.809 56.9212C113.887 57.3486 113.994 58.0189 114.13 58.9321C114.266 59.8452 114.411 60.875 114.567 62.0213C114.742 63.1676 114.917 64.3722 115.091 65.6351C115.286 66.898 115.461 68.1123 115.616 69.278C115.791 70.4244 115.937 71.4541 116.053 72.3673C116.17 73.261 116.257 73.9313 116.315 74.3782C116.335 74.4753 116.354 74.6696 116.374 74.961C116.393 75.233 116.403 75.5342 116.403 75.8645C116.422 76.1754 116.432 76.4668 116.432 76.7388C116.451 77.0108 116.461 77.2051 116.461 77.3217C115.723 77.3217 115.218 77.2925 114.946 77.2342C114.693 77.176 114.528 77.0594 114.45 76.8845C114.392 76.7097 114.363 76.4571 114.363 76.1268C114.363 75.7965 114.266 75.3399 114.071 74.757C113.352 75.3205 112.672 75.7868 112.031 76.1559C111.39 76.5251 110.749 76.8262 110.108 77.0594C109.467 77.2731 108.816 77.4188 108.155 77.4965C107.514 77.5937 106.824 77.6423 106.086 77.6423C105.464 77.6423 104.862 77.5937 104.279 77.4965C103.716 77.38 103.211 77.1857 102.764 76.9137C102.317 76.6417 101.957 76.2725 101.685 75.8062C101.413 75.3399 101.277 74.757 101.277 74.0576ZM103.813 73.4456C103.813 73.7564 103.881 74.009 104.017 74.2033C104.153 74.3976 104.328 74.5627 104.541 74.6987C104.755 74.8348 104.979 74.9319 105.212 74.9902C105.464 75.029 105.707 75.0485 105.94 75.0485C106.62 75.0485 107.349 74.9222 108.126 74.6696C108.923 74.3976 109.651 74.0284 110.312 73.5621C110.992 73.0764 111.546 72.5033 111.973 71.8427C112.42 71.1821 112.643 70.4632 112.643 69.6861C112.643 69.0838 112.536 68.666 112.323 68.4329C112.109 68.1997 111.701 68.0832 111.099 68.0832C110.477 68.0832 109.748 68.2289 108.913 68.5203C108.097 68.8117 107.3 69.2003 106.523 69.6861C105.765 70.1718 105.124 70.7449 104.6 71.4055C104.075 72.0467 103.813 72.7267 103.813 73.4456Z" fill="#272424"/>
<path d="M130.712 73.737C129.974 74.2422 129.333 74.6987 128.789 75.1068C128.264 75.4953 127.749 75.8256 127.244 76.0976C126.739 76.3696 126.195 76.5737 125.612 76.7097C125.049 76.8457 124.349 76.9137 123.514 76.9137C121.707 76.9137 120.366 76.4376 119.492 75.4856C118.618 74.5142 118.181 73.0764 118.181 71.1724C118.181 70.4341 118.278 69.6666 118.472 68.87C118.666 68.0734 118.948 67.2866 119.317 66.5094C119.706 65.7128 120.162 64.9648 120.687 64.2653C121.212 63.5465 121.804 62.915 122.465 62.371C123.125 61.827 123.825 61.3996 124.563 61.0887C125.321 60.7584 126.117 60.5933 126.953 60.5933C128.352 60.7293 129.449 61.079 130.246 61.6424C131.043 62.1864 131.645 62.8956 132.053 63.7699C132.461 64.6248 132.743 65.5865 132.898 66.6551C133.054 67.7043 133.17 68.7923 133.248 69.9192C133.345 71.0461 133.462 72.173 133.598 73.2999C133.734 74.4267 134.015 75.4662 134.443 76.4182C134.19 77.0594 133.947 77.5062 133.714 77.7588C133.5 78.0308 133.258 78.0794 132.986 77.9045C132.713 77.7297 132.393 77.3022 132.024 76.6222C131.674 75.9422 131.237 74.9805 130.712 73.737ZM120.658 71.2307C120.658 72.3381 120.862 73.1541 121.27 73.6787C121.697 74.1839 122.445 74.4365 123.514 74.4365C124.31 74.4365 125.068 74.3005 125.787 74.0284C126.525 73.737 127.167 73.3484 127.711 72.8627C128.255 72.3575 128.692 71.7552 129.022 71.0558C129.352 70.3564 129.517 69.5792 129.517 68.7243C129.517 68.3746 129.527 67.8889 129.547 67.2671C129.566 66.626 129.527 65.9945 129.43 65.3728C129.333 64.7511 129.148 64.2168 128.876 63.7699C128.604 63.3036 128.196 63.0705 127.652 63.0705C126.642 63.0705 125.709 63.3328 124.854 63.8573C124 64.3625 123.261 65.0134 122.64 65.81C122.018 66.6065 121.532 67.4906 121.182 68.462C120.833 69.414 120.658 70.3369 120.658 71.2307Z" fill="#272424"/>
<path d="M136.279 67.6751C136.279 67.17 136.405 66.8106 136.658 66.5968C136.91 66.3637 137.318 66.2471 137.882 66.2471H138.173C138.231 66.558 138.299 66.9174 138.377 67.3254C138.455 67.7334 138.571 68.1512 138.727 68.5786C138.882 69.006 139.067 69.4043 139.281 69.7735C139.494 70.1232 139.757 70.4049 140.067 70.6186C140.087 69.9386 140.252 69.2878 140.563 68.666C140.893 68.0249 141.291 67.4614 141.758 66.9757C142.243 66.4705 142.768 66.0528 143.331 65.7225C143.914 65.3728 144.487 65.1397 145.051 65.0231H145.692C146.625 65.0231 147.421 65.2368 148.082 65.6642C148.742 66.0722 149.286 66.6163 149.714 67.2963C150.161 67.9569 150.501 68.7146 150.734 69.5695C150.967 70.4244 151.142 71.2987 151.258 72.1924C151.394 73.0667 151.472 73.9216 151.492 74.757C151.53 75.5731 151.55 76.2725 151.55 76.8554H149.422C149.306 75.6896 149.16 74.5725 148.985 73.5039C148.927 73.0764 148.849 72.6296 148.752 72.1633C148.655 71.6775 148.548 71.2307 148.432 70.8227C148.315 70.3952 148.189 70.0066 148.053 69.6569C147.917 69.2878 147.761 68.9769 147.586 68.7243C147.509 68.6466 147.402 68.5397 147.266 68.4037C147.149 68.2677 147.023 68.1317 146.887 67.9957C146.751 67.8597 146.625 67.7431 146.508 67.646C146.392 67.5489 146.324 67.5003 146.304 67.5003C145.721 67.3449 145.216 67.4614 144.789 67.85C144.361 68.2192 143.982 68.7243 143.652 69.3655C143.322 70.0066 143.05 70.7352 142.836 71.5512C142.642 72.3673 142.477 73.1541 142.341 73.9119C142.205 74.6502 142.107 75.3011 142.049 75.8645C141.991 76.4085 141.952 76.7388 141.933 76.8554C141.447 77.2051 140.99 77.312 140.563 77.176C140.135 77.0205 139.727 76.7097 139.339 76.2434C138.97 75.7771 138.63 75.1942 138.319 74.4947C138.027 73.7953 137.755 73.057 137.503 72.2798C137.25 71.4832 137.017 70.6866 136.803 69.8901C136.609 69.0935 136.434 68.3552 136.279 67.6751Z" fill="#272424"/>
<path d="M158.748 76.1851C159.059 75.9714 159.428 75.6993 159.856 75.3691C160.303 75.0193 160.75 74.6502 161.196 74.2616C161.643 73.873 162.061 73.465 162.45 73.0376C162.838 72.6101 163.139 72.2021 163.353 71.8135C163.586 71.4055 163.703 71.0267 163.703 70.6769C163.703 70.3272 163.528 70.0358 163.178 69.8026C162.556 69.8026 161.876 69.8318 161.138 69.8901C160.4 69.9289 159.662 69.9483 158.923 69.9483C158.185 69.9289 157.466 69.8609 156.767 69.7443C156.087 69.6278 155.475 69.414 154.931 69.1032C154.387 68.7923 153.949 68.3552 153.619 67.7917C153.308 67.2088 153.153 66.4705 153.153 65.5768C153.153 64.5276 153.347 63.5853 153.736 62.7499C154.144 61.895 154.678 61.147 155.339 60.5058C155.999 59.8452 156.737 59.2721 157.553 58.7864C158.389 58.2812 159.224 57.8538 160.06 57.504C160.565 57.64 161.031 57.8829 161.459 58.2326C161.886 58.5823 162.255 58.9709 162.566 59.3984C162.43 59.8258 162.158 60.1561 161.75 60.3893C161.362 60.6224 160.905 60.8264 160.38 61.0013C159.875 61.1761 159.341 61.3607 158.778 61.555C158.214 61.7493 157.699 62.0116 157.233 62.3419C156.786 62.6527 156.407 63.0705 156.096 63.595C155.785 64.1002 155.63 64.7705 155.63 65.606C155.63 66.2277 155.785 66.6843 156.096 66.9757C156.407 67.2671 156.815 67.4711 157.32 67.5877C157.825 67.6849 158.399 67.7237 159.04 67.7043C159.681 67.6654 160.332 67.6169 160.992 67.5586C161.672 67.5003 162.333 67.4711 162.974 67.4711C163.615 67.4517 164.188 67.5294 164.694 67.7043C165.199 67.8597 165.597 68.122 165.889 68.4912C166.199 68.8603 166.355 69.4043 166.355 70.1232C166.355 70.4341 166.248 70.8324 166.034 71.3181C165.84 71.8038 165.568 72.3284 165.218 72.8918C164.888 73.4359 164.49 73.9799 164.023 74.5239C163.576 75.0679 163.1 75.5633 162.595 76.0102C162.11 76.4376 161.614 76.7971 161.109 77.0885C160.623 77.3605 160.167 77.4965 159.739 77.4965C159.331 77.4965 159.059 77.3508 158.923 77.0594C158.807 76.7679 158.748 76.4765 158.748 76.1851Z" fill="#272424"/>
<path d="M181.655 61.0013C181.655 60.4378 181.616 59.8938 181.539 59.3692C181.461 58.8252 181.441 58.3492 181.48 57.9412C181.519 57.5138 181.665 57.1737 181.917 56.9212C182.189 56.6686 182.675 56.5423 183.375 56.5423C183.588 56.9892 183.792 57.6692 183.987 58.5823C184.2 59.4955 184.404 60.5447 184.599 61.7299C184.793 62.915 184.978 64.2071 185.152 65.606C185.327 66.9854 185.483 68.3746 185.619 69.7735C185.774 71.1724 185.9 72.5518 185.998 73.9119C186.114 75.2525 186.202 76.4765 186.26 77.584C185.619 78.0114 185.104 78.0405 184.715 77.6714C184.327 77.3022 184.006 76.6805 183.754 75.8062C183.501 74.9125 183.307 73.8342 183.171 72.5713C183.035 71.2889 182.899 69.9678 182.763 68.6077C182.646 67.2283 182.5 65.878 182.325 64.5568C182.151 63.2162 181.927 62.031 181.655 61.0013Z" fill="#272424"/>
<path d="M187.775 69.3946C187.775 68.3454 187.902 67.2963 188.154 66.2471C188.407 65.1979 188.805 64.2556 189.349 63.4202C189.913 62.5847 190.631 61.9047 191.506 61.3801C192.399 60.8555 193.478 60.5933 194.741 60.5933C195.46 60.5933 196.091 60.7293 196.635 61.0013C197.179 61.2538 197.636 61.5939 198.005 62.0213C198.374 62.4487 198.646 62.9539 198.821 63.5368C199.015 64.1002 199.112 64.6928 199.112 65.3145C199.112 66.3054 198.879 67.2671 198.413 68.1997C197.966 69.1323 197.354 69.9581 196.577 70.6769C195.819 71.3764 194.945 71.9107 193.954 72.2798C192.963 72.6296 191.953 72.7073 190.923 72.513C190.942 73.0764 191.127 73.533 191.477 73.8827C191.846 74.213 192.283 74.4656 192.788 74.6405C193.293 74.8153 193.818 74.9319 194.362 74.9902C194.906 75.029 195.392 75.0485 195.819 75.0485C196.266 75.0485 196.684 75.0096 197.072 74.9319C197.461 74.8542 197.849 74.7668 198.238 74.6696C198.626 74.5725 199.015 74.485 199.404 74.4073C199.812 74.3296 200.239 74.2907 200.686 74.2907C200.861 74.2907 201.036 74.3005 201.21 74.3199C201.385 74.3393 201.55 74.3879 201.706 74.4656C201.861 74.5239 201.988 74.6307 202.085 74.7862C202.182 74.9222 202.231 75.097 202.231 75.3108C202.231 75.6799 202.095 75.9908 201.823 76.2434C201.55 76.4765 201.201 76.6805 200.773 76.8554C200.365 77.0302 199.909 77.1662 199.404 77.2634C198.898 77.3411 198.403 77.4091 197.917 77.4674C197.451 77.5062 197.014 77.5257 196.606 77.5257C196.217 77.5451 195.926 77.5548 195.732 77.5548C194.488 77.5548 193.371 77.3605 192.38 76.9719C191.389 76.5639 190.554 76.0102 189.874 75.3108C189.194 74.5919 188.669 73.737 188.3 72.7461C187.95 71.7358 187.775 70.6186 187.775 69.3946ZM190.865 67.5003C190.865 68.1803 190.952 68.6757 191.127 68.9866C191.321 69.2975 191.778 69.4529 192.497 69.4529C193.002 69.4529 193.497 69.3655 193.983 69.1906C194.469 68.9963 194.906 68.734 195.294 68.4037C195.702 68.0734 196.023 67.6849 196.256 67.238C196.489 66.7911 196.606 66.3054 196.606 65.7808C196.606 65.4894 196.577 65.1882 196.518 64.8774C196.48 64.5665 196.382 64.2848 196.227 64.0322C196.072 63.7602 195.868 63.5465 195.615 63.391C195.382 63.2162 195.071 63.1287 194.682 63.1287C194.099 63.1287 193.565 63.2648 193.079 63.5368C192.613 63.7893 192.215 64.1293 191.885 64.5568C191.554 64.9648 191.302 65.4311 191.127 65.9557C190.952 66.4608 190.865 66.9757 190.865 67.5003Z" fill="#272424"/>
<path d="M216.831 65.2562C216.831 64.7705 216.909 64.3916 217.065 64.1196C217.239 63.8476 217.599 63.7116 218.143 63.7116C218.201 63.7116 218.308 63.7213 218.463 63.7408C218.638 63.7408 218.745 63.7408 218.784 63.7408C218.92 64.3431 219.056 65.0037 219.192 65.7225C219.347 66.422 219.522 67.1311 219.717 67.85C219.911 68.5689 220.125 69.278 220.358 69.9775C220.61 70.6769 220.912 71.3084 221.261 71.8718C221.611 71.5027 221.864 71.0655 222.019 70.5604C222.174 70.0552 222.291 69.55 222.369 69.0449C222.446 68.5203 222.514 68.0249 222.573 67.5586C222.65 67.0728 222.796 66.6648 223.01 66.3345C223.224 65.9848 223.534 65.7322 223.942 65.5768C224.37 65.4214 224.953 65.4214 225.691 65.5768C226.507 65.5768 227.158 65.7322 227.644 66.0431C228.129 66.3345 228.547 66.7134 228.897 67.1797C229.266 67.6266 229.616 68.1123 229.946 68.6369C230.296 69.142 230.733 69.5986 231.257 70.0066C231.374 69.7541 231.52 69.4432 231.695 69.074C231.869 68.6855 232.083 68.2872 232.336 67.8792C232.608 67.4517 232.89 67.034 233.181 66.626C233.492 66.1985 233.812 65.8197 234.143 65.4894C234.473 65.1397 234.813 64.8579 235.163 64.6442C235.512 64.4111 235.852 64.2945 236.183 64.2945C236.979 64.2945 237.669 64.5471 238.252 65.0522C238.835 65.5379 239.33 66.1597 239.738 66.9174C240.166 67.6557 240.515 68.4912 240.787 69.4238C241.059 70.3369 241.273 71.2209 241.429 72.0758C241.584 72.9307 241.691 73.7176 241.749 74.4365C241.827 75.1359 241.866 75.6411 241.866 75.9519C241.866 76.2045 241.807 76.3988 241.691 76.5348C241.574 76.6708 241.429 76.7777 241.254 76.8554C241.079 76.9137 240.885 76.9525 240.671 76.9719C240.477 76.9914 240.292 77.0011 240.117 77.0011C240.078 77.0011 240.02 77.0011 239.942 77.0011C239.865 76.9817 239.777 76.9622 239.68 76.9428C239.602 76.9234 239.495 76.8942 239.359 76.8554L237.465 68.1414C237.465 68.0832 237.387 67.9763 237.232 67.8209C237.076 67.646 236.96 67.5391 236.882 67.5003C236.824 67.5003 236.775 67.4906 236.736 67.4711C236.698 67.4711 236.668 67.4711 236.649 67.4711C236.63 67.4517 236.61 67.442 236.591 67.442C236.183 67.442 235.794 67.6071 235.425 67.9374C235.075 68.2677 234.745 68.6855 234.434 69.1906C234.123 69.6958 233.832 70.2592 233.56 70.8809C233.288 71.5027 233.045 72.1244 232.831 72.7461C232.617 73.3484 232.423 73.9119 232.248 74.4365C232.093 74.9416 231.967 75.3302 231.869 75.6022C231.792 75.6411 231.636 75.6799 231.403 75.7188C231.17 75.7382 231.015 75.7479 230.937 75.7479C230.393 75.7479 229.975 75.5633 229.684 75.1942C229.392 74.8056 229.149 74.3296 228.955 73.7662C228.78 73.2027 228.625 72.5907 228.489 71.9301C228.372 71.2501 228.217 70.6284 228.023 70.0649C227.848 69.5015 227.595 69.0352 227.265 68.666C226.954 68.2774 226.507 68.0832 225.924 68.0832C225.71 68.0832 225.506 68.2969 225.312 68.7243C225.118 69.1518 224.943 69.6958 224.788 70.3564C224.632 70.9975 224.486 71.697 224.35 72.4547C224.214 73.193 224.098 73.8924 224.001 74.553C223.923 75.1942 223.865 75.7382 223.826 76.1851C223.787 76.6319 223.768 76.8554 223.768 76.8554C223.729 76.9137 223.651 76.9817 223.534 77.0594C223.418 77.1177 223.292 77.1857 223.156 77.2634C223.039 77.3411 222.913 77.3994 222.777 77.4382C222.66 77.4771 222.573 77.4965 222.514 77.4965C221.97 77.4965 221.446 77.2537 220.941 76.7679C220.436 76.2628 219.969 75.6216 219.542 74.8445C219.134 74.0479 218.755 73.1736 218.405 72.2215C218.075 71.2695 217.793 70.3369 217.56 69.4238C217.327 68.5106 217.142 67.6849 217.006 66.9466C216.89 66.2083 216.831 65.6448 216.831 65.2562Z" fill="#272424"/>
<path d="M243.061 71.5804C243.061 70.3758 243.342 69.2586 243.906 68.2289C244.469 67.1797 245.208 66.286 246.121 65.5477C247.053 64.7899 248.093 64.1973 249.239 63.7699C250.405 63.3425 251.58 63.1287 252.765 63.1287C253.426 63.1287 254.009 63.3425 254.514 63.7699C255.039 64.1973 255.476 64.7219 255.825 65.3437C256.175 65.946 256.437 66.5871 256.612 67.2671C256.807 67.9472 256.904 68.5397 256.904 69.0449C256.904 70.1329 256.641 71.1918 256.117 72.2215C255.592 73.2319 254.912 74.1353 254.077 74.9319C253.241 75.7091 252.299 76.3405 251.25 76.8262C250.201 77.312 249.152 77.5548 248.102 77.5548C247.17 77.5548 246.383 77.3994 245.742 77.0885C245.101 76.7582 244.586 76.3308 244.197 75.8062C243.809 75.2622 243.517 74.6307 243.323 73.9119C243.148 73.1736 243.061 72.3964 243.061 71.5804ZM245.538 71.8718C245.538 72.377 245.577 72.8238 245.654 73.2124C245.752 73.5816 245.907 73.9022 246.121 74.1742C246.354 74.4462 246.655 74.6599 247.024 74.8153C247.393 74.9513 247.85 75.0193 248.394 75.0193C249.113 75.0193 249.832 74.825 250.55 74.4365C251.269 74.0284 251.911 73.5233 252.474 72.921C253.057 72.2993 253.523 71.6192 253.873 70.8809C254.223 70.1426 254.397 69.4238 254.397 68.7243C254.397 68.4134 254.368 68.0734 254.31 67.7043C254.252 67.3351 254.155 66.9951 254.019 66.6843C253.883 66.3734 253.688 66.1111 253.436 65.8974C253.183 65.6837 252.863 65.5768 252.474 65.5768C252.124 65.5768 251.707 65.6934 251.221 65.9265C250.754 66.1597 250.259 66.4608 249.734 66.83C249.229 67.1991 248.724 67.6169 248.219 68.0832C247.733 68.5495 247.286 69.0157 246.878 69.482C246.47 69.9483 246.14 70.3952 245.888 70.8227C245.654 71.2501 245.538 71.5998 245.538 71.8718Z" fill="#272424"/>
<path d="M258.04 67.6751C258.04 67.17 258.167 66.8106 258.419 66.5968C258.672 66.3637 259.08 66.2471 259.643 66.2471H259.935C259.993 66.558 260.061 66.9174 260.139 67.3254C260.216 67.7334 260.333 68.1512 260.488 68.5786C260.644 69.006 260.828 69.4043 261.042 69.7735C261.256 70.1232 261.518 70.4049 261.829 70.6186C261.848 69.9386 262.014 69.2878 262.324 68.666C262.655 68.0249 263.053 67.4614 263.519 66.9757C264.005 66.4705 264.53 66.0528 265.093 65.7225C265.676 65.3728 266.249 65.1397 266.813 65.0231H267.454C268.386 65.0231 269.183 65.2368 269.843 65.6642C270.504 66.0722 271.048 66.6163 271.476 67.2963C271.922 67.9569 272.262 68.7146 272.496 69.5695C272.729 70.4244 272.904 71.2987 273.02 72.1924C273.156 73.0667 273.234 73.9216 273.253 74.757C273.292 75.5731 273.312 76.2725 273.312 76.8554H271.184C271.068 75.6896 270.922 74.5725 270.747 73.5039C270.689 73.0764 270.611 72.6296 270.514 72.1633C270.417 71.6775 270.31 71.2307 270.193 70.8227C270.077 70.3952 269.95 70.0066 269.814 69.6569C269.678 69.2878 269.523 68.9769 269.348 68.7243C269.27 68.6466 269.163 68.5397 269.027 68.4037C268.911 68.2677 268.785 68.1317 268.649 67.9957C268.513 67.8597 268.386 67.7431 268.27 67.646C268.153 67.5489 268.085 67.5003 268.066 67.5003C267.483 67.3449 266.978 67.4614 266.55 67.85C266.123 68.2192 265.744 68.7243 265.414 69.3655C265.083 70.0066 264.811 70.7352 264.598 71.5512C264.403 72.3673 264.238 73.1541 264.102 73.9119C263.966 74.6502 263.869 75.3011 263.811 75.8645C263.753 76.4085 263.714 76.7388 263.694 76.8554C263.208 77.2051 262.752 77.312 262.324 77.176C261.897 77.0205 261.489 76.7097 261.1 76.2434C260.731 75.7771 260.391 75.1942 260.08 74.4947C259.789 73.7953 259.517 73.057 259.264 72.2798C259.012 71.4832 258.779 70.6866 258.565 69.8901C258.371 69.0935 258.196 68.3552 258.04 67.6751Z" fill="#272424"/>
<path d="M274.273 74.0576C274.273 72.9307 274.555 71.9301 275.118 71.0558C275.682 70.1815 276.381 69.4238 277.217 68.7826C278.052 68.122 278.956 67.5683 279.927 67.1214C280.899 66.6551 281.802 66.2763 282.637 65.9848C283.473 65.674 284.172 65.4311 284.736 65.2562C285.299 65.0619 285.581 64.9065 285.581 64.7899C285.581 64.1099 285.542 63.4493 285.464 62.8082C285.406 62.1476 285.338 61.487 285.26 60.8264C285.183 60.1658 285.105 59.5149 285.027 58.8738C284.969 58.2132 284.94 57.5623 284.94 56.9212V55.0268C285.736 54.7354 286.3 54.7645 286.63 55.1143C286.98 55.464 287.038 56.0663 286.805 56.9212C286.883 57.3486 286.99 58.0189 287.126 58.9321C287.262 59.8452 287.407 60.875 287.563 62.0213C287.738 63.1676 287.912 64.3722 288.087 65.6351C288.282 66.898 288.456 68.1123 288.612 69.278C288.787 70.4244 288.933 71.4541 289.049 72.3673C289.166 73.261 289.253 73.9313 289.311 74.3782C289.331 74.4753 289.35 74.6696 289.37 74.961C289.389 75.233 289.399 75.5342 289.399 75.8645C289.418 76.1754 289.428 76.4668 289.428 76.7388C289.447 77.0108 289.457 77.2051 289.457 77.3217C288.719 77.3217 288.214 77.2925 287.942 77.2342C287.689 77.176 287.524 77.0594 287.446 76.8845C287.388 76.7097 287.359 76.4571 287.359 76.1268C287.359 75.7965 287.262 75.3399 287.067 74.757C286.348 75.3205 285.668 75.7868 285.027 76.1559C284.386 76.5251 283.745 76.8262 283.104 77.0594C282.463 77.2731 281.812 77.4188 281.151 77.4965C280.51 77.5937 279.82 77.6423 279.082 77.6423C278.46 77.6423 277.858 77.5937 277.275 77.4965C276.712 77.38 276.206 77.1857 275.76 76.9137C275.313 76.6417 274.953 76.2725 274.681 75.8062C274.409 75.3399 274.273 74.757 274.273 74.0576ZM276.809 73.4456C276.809 73.7564 276.877 74.009 277.013 74.2033C277.149 74.3976 277.324 74.5627 277.537 74.6987C277.751 74.8348 277.975 74.9319 278.208 74.9902C278.46 75.029 278.703 75.0485 278.936 75.0485C279.616 75.0485 280.345 74.9222 281.122 74.6696C281.919 74.3976 282.647 74.0284 283.308 73.5621C283.988 73.0764 284.542 72.5033 284.969 71.8427C285.416 71.1821 285.639 70.4632 285.639 69.6861C285.639 69.0838 285.532 68.666 285.319 68.4329C285.105 68.1997 284.697 68.0832 284.095 68.0832C283.473 68.0832 282.744 68.2289 281.909 68.5203C281.093 68.8117 280.296 69.2003 279.519 69.6861C278.761 70.1718 278.12 70.7449 277.596 71.4055C277.071 72.0467 276.809 72.7267 276.809 73.4456Z" fill="#272424"/>
<path d="M291.177 69.3946C291.177 68.3454 291.303 67.2963 291.555 66.2471C291.808 65.1979 292.206 64.2556 292.75 63.4202C293.314 62.5847 294.033 61.9047 294.907 61.3801C295.801 60.8555 296.879 60.5933 298.142 60.5933C298.861 60.5933 299.492 60.7293 300.036 61.0013C300.58 61.2538 301.037 61.5939 301.406 62.0213C301.775 62.4487 302.047 62.9539 302.222 63.5368C302.416 64.1002 302.513 64.6928 302.513 65.3145C302.513 66.3054 302.28 67.2671 301.814 68.1997C301.367 69.1323 300.755 69.9581 299.978 70.6769C299.22 71.3764 298.346 71.9107 297.355 72.2798C296.364 72.6296 295.354 72.7073 294.324 72.513C294.343 73.0764 294.528 73.533 294.878 73.8827C295.247 74.213 295.684 74.4656 296.189 74.6405C296.694 74.8153 297.219 74.9319 297.763 74.9902C298.307 75.029 298.793 75.0485 299.22 75.0485C299.667 75.0485 300.085 75.0096 300.473 74.9319C300.862 74.8542 301.251 74.7668 301.639 74.6696C302.028 74.5725 302.416 74.485 302.805 74.4073C303.213 74.3296 303.64 74.2907 304.087 74.2907C304.262 74.2907 304.437 74.3005 304.612 74.3199C304.787 74.3393 304.952 74.3879 305.107 74.4656C305.263 74.5239 305.389 74.6307 305.486 74.7862C305.583 74.9222 305.632 75.097 305.632 75.3108C305.632 75.6799 305.496 75.9908 305.224 76.2434C304.952 76.4765 304.602 76.6805 304.175 76.8554C303.767 77.0302 303.31 77.1662 302.805 77.2634C302.3 77.3411 301.804 77.4091 301.318 77.4674C300.852 77.5062 300.415 77.5257 300.007 77.5257C299.618 77.5451 299.327 77.5548 299.133 77.5548C297.889 77.5548 296.772 77.3605 295.781 76.9719C294.79 76.5639 293.955 76.0102 293.275 75.3108C292.595 74.5919 292.07 73.737 291.701 72.7461C291.351 71.7358 291.177 70.6186 291.177 69.3946ZM294.266 67.5003C294.266 68.1803 294.353 68.6757 294.528 68.9866C294.722 69.2975 295.179 69.4529 295.898 69.4529C296.403 69.4529 296.898 69.3655 297.384 69.1906C297.87 68.9963 298.307 68.734 298.696 68.4037C299.104 68.0734 299.424 67.6849 299.657 67.238C299.89 66.7911 300.007 66.3054 300.007 65.7808C300.007 65.4894 299.978 65.1882 299.92 64.8774C299.881 64.5665 299.784 64.2848 299.628 64.0322C299.473 63.7602 299.269 63.5465 299.016 63.391C298.783 63.2162 298.472 63.1287 298.084 63.1287C297.501 63.1287 296.966 63.2648 296.481 63.5368C296.014 63.7893 295.616 64.1293 295.286 64.5568C294.956 64.9648 294.703 65.4311 294.528 65.9557C294.353 66.4608 294.266 66.9757 294.266 67.5003Z" fill="#272424"/>
</svg>
