<svg width="240" height="240" viewBox="0 0 240 240" fill="none" xmlns="http://www.w3.org/2000/svg">
<path d="M146.314 61.7695C165.957 53.2626 191.796 65.1691 198.16 85.6501C204.378 105.642 197.186 146.154 184.402 162.643C176.336 173.048 166.329 190.196 154.703 196.381C131.949 208.494 123.221 207.43 102.062 203.59C88.3904 201.105 77.8993 191.653 67.1213 182.86L58.8389 175.558C44.8389 160.379 38.6002 138.871 40.4192 118.355C42.2445 97.8436 51.6846 78.4287 65.2566 62.983C76.8909 49.7353 92.7227 38.7922 110.387 38.3126C113.146 38.0431 122.951 37.4234 132.658 43.8536C142.114 50.1191 145.437 59.0712 146.314 61.7576L146.314 61.7695Z" fill="#2780C4"/>
<path d="M147.646 65.7835C149.461 65.0079 151.333 64.3846 153.258 63.9319C153.43 63.8916 153.607 63.8568 153.778 63.8164L154.039 63.7646C154.477 63.6781 154.388 63.6895 153.76 63.8115C154.012 63.8982 154.804 63.6282 155.077 63.5877C156.045 63.4509 157.022 63.3436 158.001 63.2841C158.981 63.2246 159.873 63.2004 160.809 63.2154C161.253 63.2244 161.704 63.239 162.143 63.2543C162.804 63.2741 162.369 63.5103 161.998 63.2391C162.155 63.3555 162.727 63.2967 162.933 63.3202C164.851 63.5034 166.756 63.8313 168.632 64.2809C169.509 64.4913 170.37 64.7328 171.233 64.9981C171.453 65.0686 171.776 65.2408 172.005 65.2509C171.338 65.2255 171.342 65.0154 171.729 65.1657C172.24 65.3566 172.749 65.5354 173.248 65.7389C175.088 66.4724 176.883 67.3344 178.608 68.3147C179.349 68.7313 180.12 69.4338 180.913 69.7273C179.955 69.3779 180.493 69.4471 180.863 69.6944C181.007 69.7995 181.158 69.8983 181.303 70.0034C181.742 70.3124 182.177 70.6397 182.601 70.9676C184.128 72.1457 185.573 73.4307 186.905 74.8185C187.246 75.1755 187.575 75.5332 187.91 75.8965C188.123 76.1293 188.248 76.4754 187.696 75.6397C187.842 75.8587 188.046 76.0501 188.216 76.2556C188.84 77.0089 189.437 77.794 189.993 78.5994C190.502 79.3298 190.983 80.08 191.435 80.8498C191.663 81.2316 191.881 81.626 192.092 82.0148C192.222 82.2527 192.345 82.4851 192.468 82.7293C192.867 83.5084 192.403 83.0091 192.461 82.6998C192.406 82.9669 192.945 83.7794 193.058 84.0483C193.244 84.5046 193.429 84.9609 193.604 85.4299C193.917 86.2801 194.189 87.1388 194.432 88.0173C194.629 88.7427 194.814 89.4688 194.976 90.2083C195.045 90.5278 195.246 91.8644 195.05 90.5215C195.117 90.997 195.22 91.4703 195.299 91.9451C195.907 95.6669 196.147 99.447 196.176 103.21C196.193 105.217 196.149 107.228 196.046 109.231C196.035 109.525 196.018 109.814 195.995 110.109C195.993 110.175 195.925 111.15 195.975 110.452C196.026 109.753 195.952 110.735 195.95 110.801C195.927 111.096 195.905 111.391 195.888 111.692C195.804 112.788 195.701 113.879 195.587 114.983C194.692 123.526 193.007 132.003 190.47 140.202C190.312 140.716 190.147 141.223 189.982 141.731C189.903 141.987 189.714 142.676 190.013 141.657C189.929 141.932 189.827 142.202 189.736 142.471C189.399 143.457 189.048 144.431 188.68 145.401C188.004 147.18 187.279 148.939 186.48 150.666C185.681 152.393 184.9 153.945 184.007 155.522C183.593 156.248 183.166 156.964 182.726 157.668C182.53 157.979 181.715 159.084 182.596 157.88C182.332 158.243 182.092 158.618 181.822 158.976C179.334 162.4 176.79 165.786 174.334 169.238C171.538 173.167 168.716 177.073 165.655 180.802C164.187 182.581 162.676 184.322 161.069 185.978C160.332 186.736 159.577 187.477 158.808 188.195C158.576 188.407 158.35 188.613 158.118 188.825C157.54 189.351 158.198 188.772 158.283 188.689C157.873 189.115 157.351 189.477 156.883 189.841C155.16 191.193 153.333 192.329 151.396 193.346C150.393 193.868 149.389 194.391 148.379 194.896C147.897 195.135 147.415 195.374 146.926 195.607C145.95 196.086 147.753 195.221 146.787 195.676C146.513 195.806 146.228 195.937 145.955 196.068C142.462 197.683 138.887 199.135 135.192 200.223C134.445 200.442 133.685 200.65 132.923 200.834C132.551 200.923 132.179 201.011 131.813 201.093C131.588 201.143 131.375 201.192 131.156 201.235C130.464 201.379 130.919 201.274 131.34 201.206C129.767 201.452 128.213 201.714 126.62 201.841C125.13 201.967 123.633 202.01 122.133 201.993C121.371 201.986 120.614 201.96 119.856 201.922C119.669 201.915 119.489 201.902 119.308 201.889C118.466 201.844 120.345 201.97 119.501 201.901C119.055 201.869 118.603 201.83 118.15 201.792C114.706 201.479 111.283 200.938 107.875 200.354C105.716 199.981 103.529 199.64 101.393 199.165C100.213 198.901 99.0525 198.576 97.8905 198.227C96.7285 197.878 98.6839 198.532 97.5658 198.12C97.3445 198.038 97.1177 197.962 96.8901 197.874C96.22 197.621 95.5555 197.361 94.8951 197.072C92.4776 196.044 90.1488 194.812 87.9015 193.45C87.3836 193.14 86.8769 192.817 86.3702 192.494C86.1697 192.362 85.9693 192.231 85.7632 192.105C84.7434 191.454 86.5046 192.624 85.5063 191.935C84.4079 191.181 83.3142 190.408 82.2429 189.61C76.3207 185.222 70.709 180.443 65.1874 175.575L62.3756 173.096C62.1466 172.894 61.912 172.699 61.6886 172.49C61.6568 172.462 61.625 172.434 61.5932 172.406C61.3626 172.18 61.1417 171.918 60.9279 171.673C60.6107 171.315 60.2975 171.016 60.8055 171.543C59.1479 169.845 57.7474 167.766 56.4151 165.815C55.0829 163.864 53.9218 161.962 52.8253 159.948C52.5601 159.467 52.3069 158.985 52.0537 158.503C51.9028 158.212 51.752 157.921 51.6067 157.624C51.5932 157.601 51.1218 156.623 51.4139 157.241C51.7059 157.858 51.2401 156.873 51.2321 156.844C51.0988 156.546 50.9536 156.249 50.8203 155.952C50.5473 155.351 50.2863 154.749 50.0373 154.147C49.1496 152.025 48.3671 149.86 47.6723 147.66C46.9775 145.461 46.3886 143.23 45.9001 140.976C45.8314 140.657 45.7682 140.331 45.6931 140.005C45.4686 138.952 45.7972 140.593 45.6765 139.935C45.5659 139.342 45.461 138.743 45.3624 138.149C45.1589 136.957 44.9968 135.756 44.853 134.559C44.2982 129.905 44.0511 125.094 44.4305 120.419C44.4215 120.558 44.367 121.287 44.4248 120.516C44.4516 120.19 44.472 119.859 44.4988 119.534C44.5507 118.949 44.6026 118.365 44.6664 117.779C44.8031 116.47 44.9764 115.171 45.1736 113.87C45.5582 111.395 46.0455 108.931 46.637 106.504C46.9496 105.226 47.2869 103.958 47.6488 102.701C47.8154 102.128 47.9883 101.56 48.1668 100.985C48.242 100.759 48.3108 100.527 48.3861 100.301C48.4613 100.074 48.5365 99.8479 48.6053 99.6159C48.4501 100.087 48.4445 100.093 48.6005 99.6342C49.4237 97.2642 50.3209 94.9257 51.316 92.6172C53.3589 87.8891 55.7726 83.3304 58.5045 78.9621C58.8254 78.457 59.1463 77.952 59.4672 77.4469C59.6636 77.1472 59.8599 76.8475 60.0563 76.5479C59.9749 76.6787 59.5638 77.2732 60.0292 76.5915C60.7738 75.5032 61.5313 74.426 62.3133 73.3594C63.8719 71.2325 65.5004 69.1673 67.2109 67.1631C68.7315 65.3742 70.3093 63.6358 71.9508 61.9535C72.7603 61.125 73.5834 60.3196 74.4192 59.5255C74.8538 59.1094 75.3004 58.6926 75.7478 58.2878C75.9121 58.1399 76.0763 57.9921 76.2406 57.8442C76.4049 57.6964 77.5101 56.712 76.6258 57.4971C80.0611 54.4469 83.8669 51.7459 87.8297 49.431C88.8579 48.829 89.9115 48.2494 90.9739 47.7113C91.1651 47.6098 91.3628 47.5138 91.5484 47.4186C91.7748 47.303 92.5353 46.7352 91.7285 47.3297C92.2212 46.9761 92.9454 46.7702 93.4992 46.5268C95.5757 45.6333 97.7023 44.8627 99.874 44.2332C100.957 43.9156 102.048 43.6395 103.148 43.4048C103.409 43.353 103.673 43.271 103.935 43.2431C102.888 43.3786 103.959 43.2417 104.143 43.2125C104.783 43.1017 105.419 43.0091 106.061 42.9222C107.809 42.6961 109.556 42.6379 111.311 42.5073C112.414 42.4223 113.522 42.3969 114.634 42.4313C115.012 42.4383 115.385 42.4636 115.758 42.4769C116.311 42.4913 114.631 42.3836 115.439 42.4544C115.668 42.4764 115.891 42.4928 116.12 42.5149C117.025 42.6037 117.915 42.7236 118.813 42.8848C119.711 43.0461 120.598 43.232 121.483 43.46C121.952 43.5813 122.416 43.709 122.881 43.8486C123.168 43.9331 123.461 44.0112 123.738 44.1203C122.674 43.7113 123.678 44.1119 123.856 44.179C126.173 45.0394 128.363 46.1713 130.445 47.4895C130.301 47.3963 129.748 46.9983 130.452 47.4951C130.766 47.7158 131.08 47.9365 131.39 48.1755C131.887 48.5469 132.381 48.9365 132.862 49.3389C133.858 50.1716 134.797 51.0557 135.692 52.0025C135.918 52.2466 136.144 52.4906 136.376 52.7403C136.556 52.9331 136.958 53.2085 136.272 52.6267C136.648 52.9575 136.962 53.46 137.264 53.8613C137.919 54.7087 138.535 55.6005 139.115 56.5064C139.624 57.3148 140.097 58.1373 140.542 58.9795C140.712 59.2988 141.249 60.5491 140.677 59.223C140.812 59.5446 140.97 59.8527 141.111 60.1679C141.533 61.1373 141.916 62.1272 142.244 63.1263C142.945 65.2299 145.465 66.6294 147.595 65.8286C149.726 65.0278 151.022 62.737 150.276 60.4923C147.499 52.1005 141.823 44.9459 134.451 40.1124C127.623 35.6355 119.2 33.5335 111.085 34.0684C106.696 34.353 102.409 34.8173 98.1426 35.9637C93.3102 37.2644 88.6813 39.2961 84.3241 41.7249C75.6488 46.5381 67.9847 53.3462 61.4821 60.8629C47.4071 77.1485 37.5151 97.8198 36.1139 119.504C34.8126 139.498 40.4072 160.415 53.557 175.892C56.7457 179.649 60.5803 182.827 64.3321 186.022C68.4338 189.525 72.6558 192.944 76.9952 196.139C81.3346 199.334 86.3452 202.615 91.5718 204.791C96.3304 206.78 101.251 207.764 106.303 208.626C109.856 209.237 113.431 209.8 117.03 210.102C124.212 210.715 131.202 210.225 138.125 208.167C141.937 207.037 145.622 205.512 149.217 203.819C153.576 201.774 158.03 199.735 161.809 196.717C169.671 190.455 175.54 182.143 181.32 174.023C183.76 170.602 186.362 167.29 188.752 163.836C190.983 160.613 192.872 157.213 194.469 153.645C198.096 145.518 200.551 136.808 202.237 128.074C203.923 119.339 204.849 110.248 204.643 101.287C204.453 93.2054 203.225 85.1092 199.461 77.8504C191.632 62.7876 173.672 53.5498 156.937 54.8602C152.845 55.1808 148.756 56.1126 144.993 57.7259C142.963 58.5926 141.452 60.8065 142.312 63.0623C143.071 65.0484 145.499 66.6933 147.663 65.7645L147.646 65.7835Z" fill="#2780C4"/>
<path d="M136.316 61.6944C124.41 65.9666 114.438 74.8152 108.619 86.0191C106.962 89.2191 105.703 92.6227 104.772 96.1022C104.198 98.2413 105.968 100.747 108.123 101.072C110.522 101.442 112.475 100.034 113.082 97.7435C113.203 97.2985 113.329 96.8472 113.457 96.4079C113.511 96.2307 113.988 94.805 113.638 95.7914C113.947 94.9154 114.269 94.0506 114.627 93.1956C115.29 91.5966 116.051 90.0277 116.9 88.5134C117.352 87.7067 117.827 86.9105 118.322 86.1311C118.409 85.9939 118.98 84.9881 118.458 85.913C118.684 85.5156 118.99 85.1433 119.254 84.7796C120.31 83.3246 121.45 81.9426 122.665 80.6159C123.253 79.9747 123.859 79.3503 124.48 78.7491C124.813 78.4232 125.146 78.1092 125.491 77.7945C125.644 77.6593 126.739 76.5977 125.939 77.3896C127.156 76.2006 128.674 75.1972 130.087 74.2481C131.501 73.299 133.025 72.3912 134.562 71.5964C134.73 71.5082 136.086 70.8684 135.137 71.3037C135.556 71.1104 135.975 70.9171 136.407 70.735C137.259 70.3715 138.124 70.0312 138.997 69.7204C141.078 68.9765 142.509 66.5576 141.678 64.384C140.847 62.2105 138.548 60.8814 136.327 61.6817L136.316 61.6944Z" fill="#134872"/>
<path d="M85.4565 181.423C84.4721 183.066 83.482 184.714 82.4976 186.357C82.23 186.853 82.1026 187.382 82.1144 187.933C82.0355 188.471 82.0944 189.007 82.2847 189.535C82.4406 190.089 82.7289 190.557 83.1384 190.952C83.4745 191.417 83.9174 191.774 84.4546 192.011C85.4421 192.442 86.6052 192.624 87.641 192.231L88.6235 191.758C89.2732 191.329 89.7646 190.771 90.1089 190.073C91.0934 188.43 92.0834 186.782 93.0679 185.139C93.3354 184.643 93.4629 184.114 93.451 183.563C93.5299 183.025 93.4711 182.489 93.2808 181.961C93.1248 181.407 92.8365 180.939 92.4271 180.544C92.091 180.079 91.648 179.722 91.1109 179.485C90.1234 179.054 88.9603 178.872 87.9245 179.265L86.9419 179.738C86.2923 180.168 85.8009 180.725 85.4565 181.423Z" fill="#134872"/>
<path d="M172.725 150.034C172.61 150.473 172.494 150.911 172.361 151.345C172.297 151.559 171.971 152.544 172.293 151.601C172.037 152.354 171.755 153.096 171.455 153.834C170.89 155.193 170.245 156.527 169.519 157.812C169.133 158.507 168.715 159.186 168.285 159.853C167.806 160.602 168.719 159.246 168.054 160.179C167.824 160.505 167.593 160.831 167.35 161.145C166.428 162.37 165.437 163.545 164.382 164.653C163.877 165.187 163.347 165.71 162.811 166.217C162.523 166.492 162.222 166.756 161.934 167.019C161.69 167.232 161.764 167.174 162.143 166.833C161.967 166.981 161.796 167.124 161.62 167.272C160.436 168.243 159.193 169.14 157.898 169.968C157.276 170.366 156.641 170.74 155.993 171.103C155.594 171.325 155.194 171.535 154.794 171.745C154.59 171.848 153.659 172.276 154.562 171.867C153.111 172.525 151.638 173.106 150.116 173.588C148.008 174.262 146.626 176.803 147.436 178.924C148.245 181.045 150.542 182.339 152.786 181.627C166.599 177.245 177.374 165.638 181.029 151.67C181.591 149.531 179.839 147.03 177.677 146.7C175.29 146.329 173.319 147.732 172.719 150.028L172.725 150.034Z" fill="#134872"/>
<path d="M145.24 46.7308C143.074 48.9305 141.094 51.3048 139.302 53.8116C138.665 54.7135 138.137 55.7108 138.254 56.8726C138.372 58.0344 138.83 59.0017 139.691 59.7827C141.183 61.1547 142.818 62.3263 144.526 63.4155C145.164 63.8203 145.81 64.2547 146.512 64.5358C147.417 64.8944 148.253 65.1134 149.234 65.0778C150.215 65.0422 151.163 64.6848 151.994 64.1907C152.531 63.8644 153.004 63.392 153.461 62.9626C153.676 62.7577 153.883 62.5353 154.066 62.3024C154.625 61.5791 155.172 60.7785 155.518 59.9242C156.206 58.2339 156.562 56.4318 156.419 54.5941C156.265 52.6012 155.586 50.5503 154.407 48.9254C153.742 48.0127 152.803 47.3084 151.679 47.0829C150.676 46.8861 149.382 47.0846 148.546 47.6869C147.647 48.335 146.881 49.2807 146.714 50.4059C146.555 51.4706 146.679 52.638 147.332 53.5396C147.569 53.8728 147.784 54.2195 147.969 54.5859L147.492 53.6018C147.762 54.1669 147.957 54.7665 148.081 55.3824L147.874 54.3219C147.986 54.9385 148.02 55.5539 147.983 56.1737L148.051 55.0965C148.007 55.7106 147.889 56.3052 147.693 56.8867L148.04 55.8525C147.858 56.3791 147.615 56.8735 147.303 57.342L147.931 56.3986C147.635 56.8242 147.3 57.2043 146.921 57.5451L147.778 56.8036C147.579 56.9656 147.384 57.1093 147.146 57.2256L148.128 56.7523C148.035 56.794 147.929 56.8244 147.822 56.8428L148.883 56.6406C148.793 56.652 148.704 56.6634 148.613 56.6509L149.691 56.7233C149.547 56.7081 149.431 56.6852 149.297 56.6454L150.333 56.9961C149.388 56.6698 148.495 56.0287 147.668 55.4794L148.614 56.1113C147.435 55.3078 146.322 54.4282 145.27 53.467L145.659 59.4381C147.45 56.9194 149.431 54.5571 151.596 52.3573C152.333 51.6112 152.711 50.3233 152.644 49.2963C152.577 48.2693 152.036 47.0492 151.207 46.3862C149.335 44.8814 146.894 45.0597 145.235 46.749L145.24 46.7308Z" fill="#20692E"/>
</svg>
