<svg width="206" height="374" viewBox="0 0 206 374" fill="none" xmlns="http://www.w3.org/2000/svg">
<path d="M108.005 340.332C103.673 279.864 99.342 219.151 101.562 158.498C101.949 148.005 104.669 134.528 112.729 133.78C115.313 152.174 112.792 186.555 112.239 205.237C110.412 266.95 116.292 288.29 112.148 343.997C108.221 337.799 107.481 341.598 107.549 333.571" fill="#97C238"/>
<path d="M110.856 340.331C109.78 325.344 108.71 310.356 107.737 295.354C106.764 280.352 105.899 265.483 105.227 250.525C104.555 235.567 104.077 220.624 103.895 205.659C103.713 190.627 103.827 175.595 104.339 160.578C104.39 159.134 104.43 157.697 104.527 156.261C104.567 155.676 104.612 155.098 104.664 154.513C104.703 154.099 104.698 153.78 104.669 154.417C104.686 154.054 104.749 153.684 104.794 153.328C105.09 150.937 105.517 148.567 106.132 146.279C106.274 145.746 106.405 145.161 106.604 144.657C106.343 145.309 106.565 144.791 106.684 144.465C106.781 144.191 106.883 143.917 106.991 143.65C107.39 142.636 107.862 141.71 108.357 140.777C108.54 140.437 108.204 141.066 108.198 141.044C108.192 141.022 108.403 140.725 108.437 140.674C108.557 140.496 108.682 140.318 108.807 140.14C109.097 139.741 109.41 139.378 109.729 139.015C110.099 138.593 109.217 139.452 109.792 138.963C109.94 138.837 110.088 138.704 110.241 138.585C110.418 138.445 110.6 138.311 110.788 138.185C110.868 138.134 110.947 138.082 111.027 138.03C111.198 137.919 111.311 137.697 111.101 137.978C110.93 138.208 110.902 138.074 111.101 137.993C111.215 137.949 111.329 137.889 111.448 137.837C111.625 137.763 111.801 137.697 111.983 137.645C112.165 137.593 112.353 137.541 112.535 137.489C113.087 137.334 112.347 137.526 112.353 137.512C112.364 137.482 112.763 137.46 112.746 137.467L110.002 134.75C110.088 135.357 110.167 135.971 110.236 136.586C110.27 136.875 110.259 137.267 110.344 137.541C110.15 136.919 110.287 136.941 110.315 137.289C110.338 137.534 110.361 137.786 110.384 138.03C110.52 139.504 110.623 140.977 110.708 142.458C110.89 145.657 110.981 148.871 111.021 152.084C111.107 159.193 110.947 166.302 110.708 173.403C110.241 187.176 109.439 200.912 109.183 214.693C108.91 229.51 109.097 244.327 109.587 259.137C109.997 271.466 110.577 283.788 110.765 296.131C110.976 310.075 110.634 324.011 109.741 337.91C109.61 339.931 109.467 341.96 109.319 343.982L114.18 341.36C113.486 340.279 112.746 339.25 111.903 338.361C111.488 337.917 111.055 337.495 110.617 337.08C110.503 336.977 110.395 336.866 110.281 336.762C110.037 336.547 110.89 337.503 110.469 336.94C110.418 336.873 110.304 336.681 110.241 336.644C110.264 336.658 110.668 337.532 110.452 336.969C110.253 336.451 110.651 337.939 110.56 337.325C110.537 337.147 110.492 336.962 110.458 336.784C110.321 336.11 110.503 337.717 110.469 336.91C110.458 336.621 110.435 336.333 110.429 336.044C110.401 335.214 110.406 334.378 110.412 333.548C110.424 331.608 109.092 329.757 107.566 329.846C106.041 329.935 104.738 331.475 104.72 333.548C104.698 336.436 104.612 339.724 106.269 341.953C106.787 342.649 107.481 343.33 108.13 343.841C108.079 343.797 107.589 343.264 107.879 343.597C107.976 343.708 108.079 343.811 108.175 343.915C108.352 344.115 108.523 344.315 108.688 344.522C109.211 345.174 109.689 345.87 110.156 346.596C110.879 347.721 112.308 347.892 113.264 347.358C114.374 346.751 114.903 345.485 115.011 343.974C116.081 329.557 116.616 315.081 116.508 300.597C116.417 288.275 115.876 275.975 115.438 263.669C114.926 249.318 114.63 234.96 114.789 220.594C114.948 206.229 115.677 192.323 116.223 178.179C116.502 170.967 116.719 163.74 116.736 156.513C116.747 150.181 116.633 143.813 116.03 137.526C115.876 135.934 115.705 134.35 115.489 132.773C115.284 131.299 113.896 129.929 112.746 130.055C103.502 131.032 100.11 143.376 99.0629 153.684C98.7669 156.587 98.6872 159.512 98.5962 162.436C98.4766 166.265 98.3799 170.086 98.3059 173.914C98.1579 181.563 98.1124 189.22 98.1408 196.877C98.2034 212.19 98.5962 227.496 99.2166 242.787C99.8313 258.093 100.674 273.384 101.636 288.667C102.597 303.951 103.679 319.361 104.777 334.696C104.914 336.57 105.045 338.443 105.181 340.316C105.318 342.19 106.394 344.115 108.027 344.019C109.45 343.937 111.021 342.382 110.873 340.316L110.856 340.331Z" fill="#97C238"/>
<path d="M103.94 351.765C76.7849 341.774 57.3591 316.332 43.4143 289.785C29.4696 263.238 19.401 234.348 2.84375 209.524C29.9933 222.356 52.4357 244.68 69.6304 270.303C86.8251 295.925 99.1078 324.839 109.786 354.144L103.934 351.765H103.94Z" fill="#97C238"/>
<path d="M104.693 348.869C103.446 348.406 102.211 347.92 100.993 347.391C100.857 347.331 100.726 347.271 100.589 347.217C100.105 347.007 100.578 347.217 100.663 347.253C100.356 347.133 100.06 346.977 99.7582 346.838C99.1606 346.562 98.5629 346.274 97.971 345.979C95.6431 344.826 93.3664 343.552 91.1466 342.171C88.9269 340.789 86.7754 339.305 84.6865 337.725C84.1856 337.347 83.6848 336.962 83.1896 336.572C82.9562 336.391 82.7229 336.205 82.4952 336.019C82.3814 335.929 82.2619 335.833 82.148 335.742C81.6301 335.328 82.5009 336.037 82.0342 335.646C81.004 334.793 79.9852 333.922 78.9834 333.027C75.0049 329.477 71.2825 325.608 67.7935 321.523C66.0575 319.492 64.3785 317.402 62.7563 315.269C62.3579 314.752 61.9709 314.23 61.5781 313.701C61.4757 313.563 60.8553 312.716 61.2708 313.286C61.0431 312.974 60.8154 312.662 60.5935 312.349C59.808 311.256 59.0339 310.15 58.2712 309.033C51.8851 299.685 46.4325 289.695 41.418 279.464C35.8572 268.116 30.7973 256.509 25.4414 245.059C20.0855 233.609 14.4905 222.447 7.8255 211.885C7.0002 210.576 6.15782 209.284 5.30406 207.998L1.41093 212.108C11.4227 216.847 20.8482 222.897 29.5736 229.92C29.7386 230.052 30.3818 230.581 29.9151 230.196C30.1883 230.418 30.4672 230.647 30.7404 230.875C31.2868 231.332 31.8332 231.788 32.3739 232.245C33.4269 233.14 34.4741 234.053 35.5043 234.978C37.633 236.883 39.7105 238.847 41.7482 240.86C45.7438 244.813 49.5629 248.958 53.2113 253.265C55.0497 255.44 56.8426 257.651 58.5957 259.903C59.4836 261.045 60.3601 262.198 61.2252 263.358C61.4188 263.616 61.6066 263.874 61.8001 264.133C61.9253 264.301 62.4262 264.992 62.0676 264.499C62.5173 265.118 62.9669 265.737 63.4109 266.356C66.9227 271.276 70.2466 276.346 73.3941 281.537C79.9909 292.41 85.8306 303.782 91.1182 315.419C93.7705 321.252 96.2862 327.152 98.6995 333.099C98.9727 333.772 99.2403 334.439 99.5135 335.112C99.7297 335.652 99.5761 335.262 99.5305 335.148C99.6159 335.358 99.6956 335.568 99.781 335.779C99.946 336.199 100.117 336.62 100.282 337.04C100.862 338.512 101.437 339.99 102.012 341.462C103.168 344.459 104.306 347.463 105.421 350.473C105.974 351.957 106.52 353.441 107.061 354.931L110.561 351.236C108.609 350.443 106.662 349.65 104.71 348.857C103.316 348.292 101.528 349.482 101.21 350.954C100.84 352.672 101.705 354.041 103.196 354.648C105.148 355.441 107.095 356.234 109.047 357.027C110.999 357.82 113.293 355.381 112.548 353.333C108.057 341.017 103.304 328.798 98.0279 316.831C92.8314 305.044 87.1169 293.498 80.6454 282.426C74.4642 271.846 67.5886 261.706 59.9275 252.262C52.7389 243.401 44.8388 235.158 36.2215 227.847C27.4847 220.428 18.0706 213.904 7.97348 208.731C6.75545 208.107 5.52604 207.506 4.29094 206.917C3.16398 206.382 1.75243 206.34 0.841753 207.386C0.0335282 208.317 -0.342125 209.915 0.397798 211.026C7.38723 221.521 13.2554 232.779 18.7138 244.23C24.1892 255.722 29.2719 267.413 34.7701 278.893C39.8187 289.424 45.2372 299.763 51.6233 309.46C57.7248 318.729 64.6061 327.506 72.5745 335.064C80.5828 342.657 89.6042 348.935 99.5931 353.212C100.783 353.723 101.984 354.198 103.19 354.648C104.596 355.171 106.366 354.059 106.691 352.552C107.055 350.875 106.207 349.416 104.704 348.857L104.693 348.869Z" fill="#97C238"/>
<path d="M44.2589 266.637C49.5522 276.766 55.0731 286.763 60.8218 296.609C66.5704 306.455 72.5467 316.158 78.7393 325.698C82.2454 331.092 85.8198 336.439 89.4568 341.732C90.3277 342.999 91.9726 343.75 93.35 342.807C94.5395 341.996 95.3079 340.056 94.3688 338.698C87.9314 329.338 81.7047 319.816 75.6999 310.138C69.6952 300.46 63.9181 290.632 58.363 280.659C55.2211 275.018 52.159 269.335 49.1651 263.604C48.448 262.228 46.5412 261.663 45.272 262.528C44.0027 263.393 43.4791 265.166 44.2532 266.637H44.2589Z" fill="#82A328"/>
<path d="M109.602 354.393C113.569 319.525 131.526 288.298 150.736 259.624C169.945 230.95 191.118 203.063 203.151 170.322C202.986 197.152 202.747 224.51 194.71 249.97C180.942 293.585 142.932 324.361 109.88 354.297" fill="#97C238"/>
<path d="M112.448 354.391C112.499 353.964 112.545 353.544 112.602 353.123C112.585 353.262 112.539 353.598 112.619 352.973C112.647 352.763 112.676 352.553 112.704 352.342C112.818 351.501 112.943 350.66 113.074 349.819C113.336 348.143 113.626 346.473 113.951 344.809C114.594 341.493 115.362 338.201 116.239 334.945C117.098 331.737 118.066 328.565 119.13 325.423C119.671 323.825 120.234 322.239 120.815 320.659C121.088 319.92 121.367 319.181 121.651 318.442C121.805 318.051 121.959 317.655 122.113 317.264C122.192 317.066 122.266 316.874 122.346 316.676C122.204 317.024 122.426 316.478 122.471 316.363C127.531 303.844 133.883 291.949 140.816 280.48C147.828 268.88 155.466 257.73 163.093 246.58C170.748 235.394 178.409 224.196 185.456 212.565C192.502 200.935 198.939 188.733 204.045 175.937C204.682 174.339 205.297 172.735 205.895 171.119L200.305 170.32C200.209 186.348 200.089 202.419 198.296 218.357C197.881 222.015 197.363 225.704 196.685 229.591C196.008 233.477 195.177 237.418 194.204 241.281C193.231 245.144 192.217 248.568 190.988 252.131C190.453 253.687 189.884 255.231 189.281 256.757C189.252 256.823 189.041 257.369 189.167 257.051C189.292 256.733 189.076 257.273 189.047 257.345C188.888 257.736 188.728 258.126 188.569 258.511C188.245 259.286 187.915 260.061 187.573 260.83C184.955 266.765 181.881 272.472 178.472 277.939C176.77 280.673 174.983 283.34 173.127 285.959C172.883 286.302 172.638 286.644 172.393 286.987C172.285 287.137 172.177 287.287 172.063 287.443C171.989 287.539 171.636 288.032 171.932 287.629C171.437 288.308 170.93 288.981 170.424 289.654C169.462 290.927 168.489 292.183 167.498 293.433C159.257 303.814 150.065 313.318 140.565 322.407C131.066 331.496 121.162 340.213 111.378 349.014C110.205 350.066 109.039 351.123 107.872 352.18C106.705 353.238 106.796 355.388 107.872 356.428C109.078 357.599 110.689 357.521 111.896 356.428C121.731 347.524 131.709 338.795 141.385 329.694C151.015 320.641 160.378 311.221 168.87 300.96C177.294 290.777 184.921 279.747 190.732 267.678C197.164 254.324 201.04 239.9 203.134 225.115C205.417 208.973 205.826 192.65 205.963 176.358C205.98 174.351 205.991 172.339 206.003 170.332C206.014 168.836 204.91 167.575 203.533 167.383C202.041 167.172 200.931 168.122 200.408 169.533C199.184 172.856 198.16 175.415 196.748 178.677C195.337 181.939 193.948 184.919 192.439 187.982C189.423 194.116 186.139 200.106 182.678 205.975C175.746 217.738 168.119 229.026 160.441 240.254C152.762 251.482 145.101 262.536 137.97 274.07C130.838 285.605 124.338 297.362 119.011 309.833C113.689 322.293 109.522 335.335 107.485 348.858C107.206 350.702 106.967 352.553 106.756 354.403C106.574 355.971 108.196 357.473 109.602 357.407C111.298 357.329 112.254 356.079 112.448 354.403V354.391Z" fill="#97C238"/>
<path d="M176.857 236.832C168.387 249.304 160.151 261.95 152.16 274.764C144.152 287.602 136.388 300.602 128.858 313.759C124.578 321.238 120.378 328.771 116.251 336.347C115.511 337.711 115.904 339.693 117.27 340.456C118.636 341.219 120.372 340.835 121.163 339.381C128.494 325.918 136.07 312.599 143.89 299.443C151.711 286.286 159.554 273.652 167.744 261.007C172.343 253.906 177.022 246.853 181.769 239.866C182.639 238.586 182.019 236.466 180.75 235.757C179.281 234.94 177.784 235.469 176.857 236.832Z" fill="#82A328"/>
<path d="M77.514 21.3682C64.7417 36.4591 58.1052 67.9325 58.8907 89.4635C59.6875 111.373 61.5373 119.417 67.9917 129.432C75.1121 140.473 86.228 150.344 97.8163 152.164C109.405 153.984 122.006 145.844 124.835 132.616C125.837 127.93 125.637 122.974 125.211 118.131C122.217 84.1468 105.512 49.4113 83.7236 26.3544L77.5083 21.3682H77.514Z" fill="#E74344"/>
<path d="M75.4927 19.2413C69.0155 26.9309 64.9403 36.6691 61.9862 46.3773C58.7932 56.8604 56.8808 67.8482 56.1978 78.8299C55.8676 84.1826 55.9929 89.5113 56.2661 94.87C56.5393 100.235 56.9491 105.612 57.8256 110.904C58.4858 114.881 59.5217 118.72 61.0243 122.433C62.4473 125.953 64.3426 129.239 66.4542 132.339C69.8977 137.385 73.9104 142.011 78.5605 145.85C83.1424 149.629 88.2535 152.771 93.9054 154.369C98.8345 155.756 104.02 155.768 108.903 154.164C113.787 152.56 118.044 149.737 121.368 145.844C125.159 141.404 127.378 136.016 128.101 130.116C128.915 123.466 128.044 116.581 127.094 109.997C125.335 97.8498 121.954 86.027 117.429 74.7148C112.893 63.3786 107.196 52.559 100.377 42.5745C97.0131 37.6483 93.4046 32.8964 89.5171 28.4208C88.0486 26.7266 86.5916 24.9184 84.8556 23.5306L81.3779 20.7431C80.564 20.0883 79.7501 19.4395 78.9419 18.7847C77.7523 17.8295 75.709 18.5444 75.0488 19.86C74.2576 21.446 74.7983 22.9479 76.0676 23.9692C78.0198 25.5372 79.9778 27.1051 81.93 28.6731C82.0382 28.7572 82.1577 28.8413 82.2602 28.9374C82.2488 28.9254 81.6625 28.4027 82.0211 28.8173C82.2659 29.1056 82.5447 29.376 82.8009 29.6583C83.74 30.6736 84.6621 31.7069 85.5671 32.7582C87.3827 34.8548 89.1415 37.0175 90.8433 39.2223C91.2531 39.757 91.6629 40.2977 92.067 40.8383C92.2605 41.0906 92.4483 41.349 92.6362 41.6073C93.0972 42.2321 92.4028 41.2889 92.6874 41.6734C92.8069 41.8356 92.9208 41.9978 93.0403 42.16C93.8884 43.3315 94.7193 44.5149 95.5333 45.7104C97.1554 48.0954 98.7149 50.5225 100.218 52.9976C103.251 58.0139 106.029 63.2044 108.527 68.533C109.785 71.2184 110.975 73.9398 112.09 76.6913C112.153 76.8475 112.216 77.0037 112.278 77.1598C112.045 76.5831 112.261 77.1178 112.318 77.262C112.455 77.6104 112.597 77.9649 112.734 78.3133C113.007 79.0162 113.274 79.7191 113.536 80.4279C114.06 81.8397 114.572 83.2635 115.056 84.6873C116.968 90.2923 118.573 96.0115 119.837 101.821C120.463 104.692 120.998 107.588 121.442 110.496C121.55 111.186 121.647 111.883 121.744 112.574C121.789 112.899 121.84 113.229 121.875 113.553C121.806 112.899 121.852 113.349 121.869 113.487C121.897 113.734 121.931 113.974 121.96 114.22C122.136 115.71 122.29 117.206 122.415 118.708C122.7 122.078 122.859 125.478 122.552 128.849C122.529 129.083 122.506 129.317 122.484 129.552C122.472 129.654 122.404 130.14 122.484 129.594C122.432 129.966 122.375 130.338 122.313 130.711C122.188 131.432 122.034 132.153 121.852 132.862C121.692 133.474 121.51 134.087 121.305 134.688C121.214 134.952 121.118 135.211 121.021 135.475C120.839 135.98 121.061 135.409 121.083 135.337C121.026 135.529 120.924 135.721 120.844 135.907C120.355 137.031 119.786 138.118 119.143 139.152C119 139.38 118.858 139.602 118.71 139.824C118.636 139.933 118.562 140.047 118.488 140.155C118.46 140.197 118.101 140.756 118.363 140.341C118.59 139.981 118.357 140.347 118.289 140.437C118.186 140.569 118.09 140.701 117.987 140.828C117.805 141.062 117.617 141.29 117.424 141.518C116.661 142.42 115.836 143.267 114.959 144.048C114.788 144.204 114.504 144.54 114.299 144.618C114.344 144.6 114.834 144.198 114.424 144.516C114.322 144.594 114.219 144.678 114.117 144.757C113.656 145.111 113.183 145.447 112.705 145.766C111.743 146.403 110.747 146.973 109.717 147.472C109.603 147.526 109.489 147.58 109.376 147.634C108.897 147.862 109.518 147.592 109.535 147.562C109.444 147.694 108.903 147.826 108.744 147.886C108.186 148.109 107.622 148.307 107.053 148.481C106.006 148.806 104.936 149.046 103.86 149.232C103.399 149.31 103.684 149.076 103.968 149.22C103.923 149.196 103.621 149.262 103.598 149.268C103.354 149.298 103.103 149.322 102.853 149.34C102.295 149.382 101.737 149.406 101.174 149.412C100.61 149.418 100.052 149.394 99.4947 149.352C99.2443 149.334 98.9995 149.31 98.7491 149.28C98.7377 149.28 98.4133 149.214 98.3791 149.238C98.8288 149.304 98.8914 149.31 98.5783 149.268L98.3677 149.232C97.0928 149.022 95.8349 148.716 94.5998 148.325C94.0079 148.139 93.4216 147.935 92.8411 147.712C92.5679 147.61 92.289 147.496 92.0215 147.388C91.8507 147.316 91.68 147.244 91.5092 147.172C91.0026 146.961 91.7938 147.31 91.4751 147.16C90.2457 146.571 89.039 145.958 87.8608 145.261C86.6826 144.564 85.5614 143.819 84.4629 143.02C83.888 142.606 83.3245 142.173 82.7667 141.735C82.6415 141.639 82.5163 141.537 82.3968 141.434C82.4764 141.5 82.835 141.801 82.4195 141.452C82.1122 141.194 81.8105 140.942 81.5089 140.677C79.3517 138.803 77.3311 136.755 75.4472 134.574C74.5194 133.498 73.6315 132.393 72.7721 131.258C72.6525 131.095 72.533 130.933 72.4078 130.771C72.146 130.423 72.6753 131.15 72.4249 130.795C72.2143 130.501 72.0037 130.206 71.7931 129.912C71.3833 129.323 70.9792 128.722 70.5864 128.122C69.6132 126.62 68.6854 125.082 67.8487 123.496C67.4503 122.739 67.069 121.97 66.7104 121.183C66.5453 120.817 66.3803 120.444 66.2209 120.072C66.1469 119.897 66.0729 119.717 66.0046 119.543C65.8282 119.116 66.1298 119.855 66.1298 119.861C66.0843 119.723 66.0274 119.591 65.9761 119.459C65.3387 117.795 64.8037 116.083 64.3654 114.346C63.8873 112.46 63.5173 110.544 63.2157 108.615C63.1303 108.069 63.0506 107.528 62.9766 106.981C62.9595 106.855 62.9425 106.735 62.9254 106.609C62.8571 106.092 62.9481 106.783 62.9538 106.837C62.9311 106.513 62.8742 106.194 62.8343 105.87C62.692 104.638 62.5668 103.407 62.4587 102.169C61.9806 96.6723 61.6504 91.1153 61.6732 85.5944C61.6903 80.6022 62.0489 75.6159 62.6579 70.6657C62.6749 70.5215 62.692 70.3713 62.7148 70.2272C62.6123 70.9541 62.6749 70.5275 62.6977 70.3653C62.7432 70.0349 62.7831 69.7045 62.8286 69.3741C62.9254 68.6772 63.0278 67.9743 63.136 67.2775C63.3352 65.9798 63.5515 64.6882 63.7848 63.4026C64.2629 60.7713 64.8093 58.152 65.4297 55.5568C66.6535 50.4564 68.1561 45.4221 70.0343 40.544C70.1482 40.2436 70.2677 39.9492 70.3815 39.6488C70.5466 39.2223 70.1026 40.3277 70.3702 39.6729C70.4214 39.5407 70.4783 39.4085 70.5295 39.2824C70.7686 38.6996 71.0133 38.1169 71.2638 37.5402C71.7589 36.4048 72.2712 35.2814 72.8176 34.176C73.8421 32.0914 74.9577 30.0488 76.1928 28.0964C76.7563 27.2072 77.3596 26.3542 77.9515 25.4831C78.1678 25.1647 77.5929 25.9577 77.8263 25.6513C77.9174 25.5311 78.0028 25.411 78.0938 25.2908C78.2361 25.0986 78.3841 24.9124 78.5264 24.7261C78.8508 24.3116 79.1809 23.9031 79.5224 23.5006C80.5128 22.3291 80.7006 20.3947 79.5224 19.2533C78.441 18.208 76.5571 17.9977 75.4984 19.2533L75.4927 19.2413Z" fill="#E74344"/>
<path d="M115.63 67.6446C122.858 52.0851 128.573 35.5283 132.62 18.3828C143.849 39.6915 151.459 64.4125 150.065 89.1395C148.67 113.866 131.555 147.809 108.788 152.615C106.33 141.297 103.962 124.025 106.512 103.353C108.327 88.6469 112.101 76.5477 115.63 67.6446Z" fill="#E74344"/>
<path d="M118.095 69.1644C123.855 56.7468 128.653 43.8246 132.409 30.584C133.479 26.8113 134.464 23.0085 135.369 19.1877L130.167 19.9026C132.933 25.1592 135.454 30.56 137.674 36.0929C137.452 35.5342 137.834 36.5074 137.885 36.6276C138.016 36.964 138.147 37.2944 138.272 37.6308C138.545 38.3397 138.813 39.0546 139.074 39.7755C139.587 41.1693 140.076 42.563 140.549 43.9688C141.505 46.8224 142.381 49.712 143.161 52.6256C143.941 55.5393 144.624 58.477 145.21 61.4387C145.495 62.8985 145.757 64.3583 145.996 65.8242C146.109 66.5331 146.218 67.248 146.32 67.9628C146.371 68.3173 146.422 68.6777 146.468 69.0322C146.479 69.1223 146.553 69.687 146.502 69.3025C146.451 68.9 146.542 69.6329 146.553 69.705C147.276 75.6945 147.549 81.7501 147.288 87.7817C147.236 88.9231 147.168 90.0646 147.071 91.206C147.026 91.6926 146.98 92.1792 146.923 92.6718C146.895 92.9181 146.866 93.1644 146.838 93.4107C146.792 93.8132 146.923 92.7679 146.872 93.1704C146.849 93.3266 146.832 93.4828 146.809 93.633C146.519 95.7657 146.132 97.8803 145.665 99.977C144.692 104.368 143.383 108.676 141.795 112.857C141.698 113.115 141.596 113.374 141.499 113.626C141.425 113.818 141.141 114.635 141.402 113.872C141.209 114.425 140.958 114.966 140.731 115.5C140.287 116.552 139.82 117.591 139.342 118.624C138.363 120.721 137.31 122.776 136.177 124.788C135.045 126.801 133.861 128.723 132.586 130.603C132.284 131.048 131.977 131.492 131.669 131.925C131.516 132.141 131.356 132.358 131.203 132.574C131.106 132.712 130.935 133.03 131.294 132.448C131.208 132.586 131.095 132.718 130.998 132.85C130.343 133.721 129.677 134.58 128.983 135.415C127.611 137.079 126.16 138.671 124.629 140.167C123.895 140.888 123.138 141.585 122.358 142.258C122.17 142.42 121.982 142.576 121.794 142.739C121.703 142.817 121.607 142.895 121.51 142.973C121.117 143.303 121.624 142.859 121.658 142.853C121.504 142.877 121.214 143.207 121.089 143.303C120.85 143.49 120.61 143.676 120.366 143.856C118.801 145.027 117.161 146.091 115.448 147.004C115.044 147.22 114.628 147.43 114.213 147.635C114.008 147.737 113.797 147.833 113.593 147.929C113.16 148.133 113.758 147.851 113.803 147.839C113.644 147.893 113.484 147.977 113.331 148.043C112.471 148.404 111.595 148.728 110.707 149.01C109.819 149.293 108.931 149.521 108.026 149.719L111.526 151.816C111.083 149.767 110.678 147.707 110.32 145.64C110.115 144.463 109.927 143.279 109.751 142.096C109.671 141.543 109.591 140.996 109.517 140.444C109.472 140.125 109.432 139.813 109.392 139.494C109.375 139.38 109.324 138.912 109.375 139.362C109.432 139.855 109.347 139.104 109.329 139.008C108.652 133.445 108.294 127.84 108.254 122.229C108.231 119.063 108.316 115.897 108.498 112.737C108.595 111.073 108.72 109.409 108.874 107.745C108.948 106.916 109.034 106.093 109.125 105.264C109.176 104.819 109.221 104.38 109.278 103.936C109.301 103.738 109.324 103.539 109.352 103.341C109.432 102.68 109.301 103.708 109.398 102.993C110.229 96.817 111.418 90.7074 113.012 84.6998C114.48 79.1669 116.273 73.7361 118.374 68.4314C118.948 66.9776 117.753 65.0672 116.387 64.7368C114.725 64.3343 113.502 65.2775 112.887 66.8334C108.755 77.2745 105.818 88.2262 104.19 99.4123C102.363 111.974 102.067 124.728 103.456 137.356C104.048 142.751 104.901 148.109 106.045 153.402C106.404 155.06 108.094 155.811 109.546 155.499C117.73 153.744 124.953 148.53 130.708 142.294C136.991 135.487 141.926 127.263 145.603 118.618C149.263 110.004 151.858 100.89 152.74 91.4703C153.856 79.5273 152.484 67.2179 149.798 55.5994C147.009 43.5242 142.586 31.8636 137.134 20.8578C136.468 19.5121 135.785 18.1784 135.085 16.8508C133.906 14.616 130.474 15.0726 129.882 17.5657C128.311 24.198 126.496 30.7702 124.424 37.2463C123.394 40.4664 122.301 43.6684 121.145 46.8404C120.576 48.4023 119.996 49.9583 119.398 51.5082C119.114 52.2411 118.829 52.9681 118.544 53.695C118.22 54.518 118.67 53.3826 118.476 53.8752C118.391 54.0915 118.305 54.3017 118.22 54.512C118.049 54.9385 117.873 55.3651 117.702 55.7856C116.273 59.2639 114.771 62.7003 113.188 66.1005C112.534 67.5123 112.784 69.4167 114.207 70.2097C115.488 70.9246 117.4 70.6362 118.1 69.1343L118.095 69.1644Z" fill="#E74344"/>
<path d="M95.3963 37.5597C99.9838 31.0355 104.571 24.5113 109.153 17.9932C113.957 24.9018 118.493 32.0688 122.734 39.4581L109.062 68.901L95.3906 37.5597H95.3963Z" fill="#E74344"/>
<path d="M97.8518 39.0782C102.439 32.554 107.027 26.0298 111.609 19.5117H106.697C111.518 26.4504 116.048 33.6173 120.277 40.9766V37.9428C118.735 41.2589 117.198 44.5751 115.655 47.8972L108.29 63.7571C107.727 64.9706 107.163 66.1781 106.606 67.3917H111.518C109.969 63.8472 108.421 60.2968 106.873 56.7523C104.431 51.1473 101.984 45.5483 99.5422 39.9433C98.9787 38.6456 98.4096 37.348 97.8461 36.0504C97.22 34.6206 95.1596 34.152 93.953 34.975C92.5528 35.9242 92.2625 37.5523 92.9341 39.0842C94.4823 42.6286 96.0304 46.1791 97.5786 49.7235C100.02 55.3285 102.468 60.9276 104.91 66.5326C105.473 67.8302 106.042 69.1278 106.606 70.4255C107.476 72.426 110.624 72.3539 111.518 70.4255C113.817 65.4753 116.117 60.5191 118.416 55.5689C119.976 52.2046 121.541 48.8464 123.1 45.4822L124.631 42.1901C124.922 41.5713 125.275 40.9225 125.479 40.2677C125.975 38.6577 124.671 37.0416 123.908 35.744C123.385 34.8489 122.856 33.9538 122.321 33.0586C121.182 31.1603 120.021 29.2679 118.837 27.3995C116.509 23.7049 114.096 20.0704 111.609 16.4899C111 15.6128 110.237 15 109.15 15C108.063 15 107.311 15.6128 106.691 16.4899C102.103 23.014 97.516 29.5382 92.9341 36.0564C92.0462 37.324 92.6951 39.4627 93.953 40.1655C95.4442 40.9946 96.8956 40.4419 97.8461 39.0902L97.8518 39.0782Z" fill="#E74344"/>
<path d="M76.276 23.9986C78.2397 25.2061 80.1464 26.5097 81.9848 27.9155C82.4231 28.2459 82.8557 28.5883 83.2825 28.9307C83.3964 29.0208 83.5216 29.105 83.624 29.2071C83.6127 29.1951 83.2199 28.8767 83.4704 29.0869C83.7208 29.2972 83.9769 29.5075 84.2274 29.7177C85.0925 30.4506 85.9406 31.2076 86.7772 31.9826C90.1354 35.1125 93.2203 38.5608 96.0206 42.2554C96.2027 42.4897 96.3792 42.73 96.5556 42.9703C96.6239 43.0604 96.6865 43.1506 96.7548 43.2407C97.0053 43.5771 96.4589 42.8322 96.7036 43.1746C97.0508 43.6612 97.398 44.1418 97.7395 44.6344C98.3998 45.5836 99.0486 46.5508 99.6747 47.53C100.955 49.5245 102.162 51.5731 103.295 53.6577C104.427 55.7423 105.475 57.8269 106.459 59.9716C106.954 61.047 107.433 62.1283 107.894 63.2157C108.133 63.7804 108.366 64.3451 108.594 64.9098C108.799 65.4085 108.411 64.4472 108.69 65.1501C108.816 65.4685 108.941 65.7929 109.066 66.1113C112.515 75.0926 114.769 84.4763 116.283 94.0223C116.477 95.2298 116.653 96.4373 116.818 97.6509C116.858 97.9272 116.892 98.1975 116.926 98.4739C116.949 98.6301 116.972 98.7863 116.989 98.9425C116.978 98.8464 116.909 98.2816 116.978 98.8464C117.052 99.4711 117.131 100.102 117.2 100.727C117.467 103.154 117.678 105.593 117.809 108.032C118.07 112.886 118.036 117.764 117.547 122.6C117.49 123.171 117.45 123.754 117.353 124.312C117.495 123.501 117.33 124.486 117.308 124.649C117.268 124.949 117.222 125.255 117.177 125.556C116.995 126.757 116.778 127.953 116.534 129.142C116.055 131.431 115.458 133.696 114.724 135.907C114.547 136.441 114.359 136.97 114.166 137.499C114.063 137.781 113.955 138.064 113.847 138.34C113.813 138.424 113.779 138.58 113.722 138.652C114.046 138.244 113.819 138.418 113.716 138.664C113.272 139.746 112.794 140.803 112.276 141.848C111.212 143.999 109.999 146.066 108.639 148.024C108.485 148.246 108.332 148.463 108.172 148.685C107.859 149.123 108.15 148.715 108.207 148.637C108.116 148.763 108.019 148.883 107.928 149.009C107.552 149.508 107.165 149.994 106.772 150.475C105.799 151.665 105.583 153.569 106.772 154.722C107.837 155.756 109.76 155.996 110.796 154.722C117.143 146.955 121.064 137.457 122.629 127.364C124.223 117.109 123.739 106.746 122.368 96.4974C120.996 86.2486 118.998 77.009 115.737 67.7274C112.453 58.3857 108.133 49.4164 102.515 41.3904C96.8971 33.3643 90.0728 26.1973 82.0816 20.7124C81.114 20.0456 80.1293 19.4088 79.1276 18.796C77.8412 18.003 75.9516 18.4356 75.2344 19.8714C74.5173 21.3072 74.8816 23.1335 76.2533 23.9805L76.276 23.9986Z" fill="#B71C24"/>
<path d="M129.42 18.0353C126.882 33.6969 119.351 47.7785 115.248 62.9596C114.064 67.333 113.21 71.7966 112.783 76.3263C112.635 77.8943 114.195 79.3962 115.629 79.3301C117.297 79.252 118.316 78.0084 118.475 76.3263C118.52 75.8217 118.577 75.311 118.634 74.8064C118.725 73.9834 118.572 75.2269 118.646 74.7223C118.674 74.512 118.703 74.3018 118.731 74.0915C118.873 73.0822 119.044 72.073 119.232 71.0697C119.579 69.2194 120 67.3811 120.473 65.5608C121.452 61.7761 122.664 58.0574 123.956 54.3748C126.54 47.0216 129.477 39.8065 131.805 32.3572C133.108 28.194 134.207 23.9587 134.907 19.6333C135.157 18.0893 134.52 16.3231 132.921 15.9386C131.543 15.6082 129.688 16.3832 129.42 18.0353Z" fill="#B71C24"/>
<path d="M64.5287 105.058C67.0673 119.5 75.952 132.429 87.7737 140.04C91.1489 142.215 94.8144 143.945 98.5937 145.171C100.017 145.633 101.758 144.624 102.094 143.074C102.447 141.446 101.627 139.878 100.108 139.379C99.3166 139.121 98.5311 138.845 97.757 138.538C97.4326 138.412 97.1139 138.28 96.7951 138.148C96.6073 138.07 96.4024 138.004 96.2203 137.902C96.9203 138.286 96.095 137.841 95.9528 137.775C94.5071 137.103 93.0898 136.346 91.7181 135.517C90.3464 134.687 88.895 133.702 87.5575 132.675C87.2786 132.465 87.0054 132.242 86.7265 132.026C86.1573 131.576 87.2046 132.429 86.6468 131.96C86.4874 131.822 86.3224 131.69 86.163 131.552C85.5198 131.005 84.888 130.44 84.2733 129.857C83.0382 128.692 81.8657 127.46 80.7502 126.169C80.2379 125.574 79.7427 124.973 79.2589 124.355C78.9971 124.018 78.7353 123.676 78.4792 123.333C78.3881 123.213 78.132 122.907 78.5418 123.423C78.3653 123.201 78.206 122.961 78.0466 122.726C76.1228 119.981 74.4608 117.025 73.1062 113.925C73.0208 113.727 72.9354 113.529 72.85 113.331C72.7874 113.181 72.3947 112.285 72.7305 113.048C72.5598 112.652 72.4175 112.243 72.2695 111.835C71.9451 110.952 71.6491 110.063 71.3759 109.161C70.8067 107.293 70.3571 105.383 70.0213 103.454C69.7481 101.904 67.8982 100.889 66.5209 101.358C64.9499 101.892 64.2385 103.394 64.5344 105.052L64.5287 105.058Z" fill="#B71C24"/>
<path d="M135.254 46.8582C137.149 52.6254 138.635 58.5368 139.688 64.5384C139.955 66.0643 140.195 67.5902 140.411 69.1221C140.456 69.4465 140.502 69.7709 140.542 70.0953C140.621 70.6961 140.564 70.2575 140.542 70.1314C140.564 70.3176 140.587 70.5038 140.61 70.6901C140.707 71.4831 140.792 72.276 140.872 73.069C141.179 76.1028 141.378 79.1487 141.469 82.2005C141.572 85.6728 141.532 89.1512 141.35 92.6175C141.27 94.1915 142.716 95.6934 144.196 95.6213C145.807 95.5432 146.956 94.2996 147.042 92.6175C147.685 80.0798 146.495 67.4039 143.57 55.2327C142.761 51.8625 141.811 48.5343 140.735 45.2542C140.251 43.7703 138.76 42.6349 137.235 43.1576C135.846 43.6322 134.725 45.2602 135.248 46.8522L135.254 46.8582Z" fill="#B71C24"/>
</svg>
