<svg width="257" height="261" viewBox="0 0 257 261" fill="none" xmlns="http://www.w3.org/2000/svg">
<path d="M186.915 107.886C184.022 111.168 181.131 114.441 178.229 117.72C177.673 118.352 177.033 119.026 176.142 119.05C175.542 119.065 174.95 118.787 174.345 118.662C172.687 118.31 171.179 119.144 169.62 119.559C168.061 119.974 165.912 119.703 165.152 118.123C164.464 116.635 163.094 115.405 161.563 114.898C161.849 114.245 162.135 113.593 162.42 112.949C158.275 110.841 154.535 107.733 151.659 104.005L153.568 103.61C151.366 100.811 149.475 97.7898 147.93 94.6321C148.181 94.0849 148.749 93.7251 149.375 93.7071C148.651 91.7345 146.966 90.171 146.051 88.2631C145.145 86.3485 145.583 83.5661 147.586 83.4945C148.134 83.4775 148.697 83.6722 149.237 83.6364C150.883 83.5341 151.461 81.4578 151.053 79.7851C150.645 78.1124 149.611 76.5617 149.38 74.8822C149.148 73.2026 150.268 71.273 151.92 71.7015C152.402 71.8272 152.876 72.1422 153.339 72.0817C154.148 71.9887 154.318 70.9477 154.233 70.1142C153.96 67.3063 152.668 64.5741 152.183 61.7744C151.698 58.9748 152.315 55.7435 154.773 54.7155C155.512 54.4085 156.44 54.2705 156.835 53.5798C157.564 52.2898 155.871 50.2125 156.782 49.0556C157.208 48.5187 158.013 48.4682 158.607 48.1223C160.732 46.8694 159.478 42.3919 161.939 41.8332C163.609 41.4497 165.102 43.3903 166.007 45.0182C169.396 51.1266 174.266 58.1227 180.882 58.337C179.465 55.8306 178.013 53.2214 177.691 50.4643C177.37 47.7071 178.508 44.7572 181.032 43.9773C181.561 40.7538 179.519 36.3388 182.113 34.5494C184.08 33.1943 187.218 34.7374 189.387 33.6931C190.682 33.0671 191.333 31.6655 192.377 30.7009C193.833 29.353 195.945 28.948 197.814 28.2063C199.683 27.4645 201.546 26.088 201.598 23.9896C203.749 25.7538 206.69 26.4402 209.119 25.7276C210.077 25.4483 210.973 24.9653 211.991 24.8896C213.347 24.788 214.727 25.4034 216.102 25.6791C221.457 26.7347 225.684 22.5836 228.976 18.7599C224.493 23.0144 226.887 31.2515 230.839 36.9643C231.354 37.7131 231.911 38.488 232.073 39.3461C232.483 41.6007 230.028 43.4017 230.687 45.6297C231.326 47.767 234.445 48.7332 234.863 50.8941C235.125 52.2241 234.201 53.5259 234.74 54.8006C235.134 55.7326 236.193 56.2988 236.614 57.2191C236.938 57.9372 236.817 58.7193 236.691 59.4484C236.141 62.5199 235.59 65.5913 235.039 68.6628C234.782 70.0852 234.927 72.1462 236.391 72.5184C235.575 74.2939 234.76 76.0608 233.953 77.8381C239.864 76.969 245.542 75.2359 250.788 72.7104C252.345 76.1396 248.722 80.624 251.659 83.0628C252.258 83.5599 253.067 83.8662 253.394 84.5501C253.715 85.2067 253.45 85.9158 253.194 86.5311C251.111 91.4207 249.028 96.3104 246.954 101.202C246.477 102.319 245.995 103.503 246.156 104.778C246.253 105.579 246.607 106.364 246.66 107.165C246.808 109.391 244.735 110.759 243.611 112.532C242.397 114.442 242.284 116.927 241.497 119.081C240.71 121.236 238.713 123.236 236.352 122.565C237.254 123.411 236.654 124.841 235.738 125.45C234.822 126.059 233.619 126.331 233.028 127.259C232.64 127.864 232.568 128.691 232.049 129.183C231.579 129.632 230.851 129.699 230.179 129.742C224.874 130.12 219.579 130.5 214.274 130.879C211.076 130.113 207.887 129.349 204.69 128.584C204.051 128.434 203.38 128.261 202.864 127.824C202.266 127.319 201.982 126.548 201.711 125.824C199.15 118.889 195.662 112.204 191.372 106.031C181.368 118.057 174.457 132.754 171.33 148.65" fill="#6D8443"/>
<path d="M185.144 106.431C183.219 108.619 181.286 110.798 179.361 112.986C178.395 114.08 177.445 115.185 176.47 116.268C176.324 116.429 176.022 116.861 175.765 116.886C175.268 116.931 174.434 116.507 173.902 116.457C172.463 116.316 171.162 116.697 169.866 117.132C169.078 117.395 168.14 117.756 167.303 117.47C166.885 117.323 167.304 117.557 166.98 117.143C166.553 116.594 166.292 115.959 165.819 115.427C164.859 114.334 163.67 113.454 162.332 112.96L163.614 115.899C163.9 115.247 164.185 114.594 164.471 113.95C164.931 112.908 164.249 111.56 163.189 111.011C159.367 109.039 156.014 106.245 153.332 102.816L152.598 106.076L154.506 105.681C155.85 105.403 156.054 103.475 155.24 102.421C153.16 99.7596 151.383 96.9439 149.904 93.9467L149.715 96.0953C149.973 95.6626 149.947 95.8569 149.778 95.8826C151.183 95.7132 151.903 94.4213 151.34 93.0199C150.648 91.2794 149.406 89.8853 148.419 88.3007C148.072 87.7428 147.899 87.4033 147.811 86.899C147.728 86.4476 147.776 86.0931 147.965 85.646C147.953 85.6869 147.884 85.8637 147.982 85.6496C148.111 85.3897 148.015 85.6738 147.982 85.6496C147.874 85.5837 148.06 85.6657 148.077 85.6693C149.015 85.8112 149.924 85.8864 150.779 85.56C152.337 84.9534 153.169 83.3809 153.341 81.7237C153.511 79.9794 152.822 78.3089 152.132 76.6469C151.899 76.0867 151.544 75.2231 151.529 74.7946C151.513 74.3661 151.635 73.8877 151.955 73.7457C151.36 74.0046 153.161 74.2383 153.407 74.2458C154.426 74.2571 155.263 73.8486 155.825 73.0535C156.81 71.6513 156.437 69.5862 156.031 67.8876C155.311 64.8652 153.53 61.389 154.492 58.4455C154.901 57.1848 155.632 56.876 156.782 56.4106C158.533 55.6967 159.444 54.2444 159.163 52.2245C159.083 51.6264 158.926 50.9082 158.732 50.3209C158.654 50.0966 158.766 50.1284 158.729 50.1468C158.729 50.1468 158.54 50.5939 158.533 50.5751C158.558 50.6931 158.693 50.5561 158.894 50.4761C159.094 50.3961 159.267 50.3362 159.451 50.2441C160.799 49.6203 161.578 48.4534 161.96 47.0047C162.132 46.3544 162.251 45.6933 162.379 45.034C162.457 44.6508 162.406 44.8312 162.491 44.5623C162.538 44.4246 162.586 44.2868 162.633 44.149C162.759 43.8191 162.598 44.1418 162.709 43.9824C162.871 43.7467 162.679 44.0197 162.656 43.9888L162.731 43.9349C162.844 43.854 162.834 43.8607 162.703 43.9465C162.696 43.9362 162.734 44.0049 162.759 44.0187C163.321 44.4302 163.745 45.1084 164.09 45.6919C168.06 52.399 172.972 60.0912 181.321 60.4994C182.643 60.5648 183.56 58.8361 182.882 57.6367C181.26 54.7662 179.002 51.1131 180.147 47.9905C180.343 47.4581 180.615 46.959 181.028 46.5669C181.707 45.9436 182.72 45.9361 183.095 44.9634C183.697 43.4126 183.221 41.2219 183.052 39.5375C182.949 38.5006 182.673 36.9245 183.541 36.3661C184.502 35.7403 186.298 36.2249 187.448 36.246C189.327 36.2876 190.909 35.712 192.163 34.4524C193.205 33.4007 193.896 32.146 195.313 31.5279C197.07 30.7543 198.98 30.3508 200.616 29.344C202.345 28.2868 203.638 26.5839 203.792 24.4281L200.381 25.5974C203.056 27.7047 206.381 28.61 209.44 27.9408C210.669 27.6742 211.809 26.9034 213.146 27.1105C214.718 27.3489 216.188 27.9397 217.783 28.0093C223.41 28.2451 227.56 23.9562 230.791 20.215C231.515 19.3839 231.196 17.9029 230.269 17.1381C229.219 16.2697 228.036 16.5197 227.247 17.2939C224.309 20.2016 223.912 24.8246 224.993 29.0588C225.543 31.2126 226.378 33.3299 227.487 35.3304C228.018 36.2996 228.605 37.237 229.228 38.156C229.68 38.8224 230.112 39.3197 229.925 40.045C229.697 40.9354 229.146 41.7067 228.841 42.5725C228.454 43.6731 228.325 44.8444 228.686 46.0561C229.286 48.038 230.926 49.098 232.344 50.4938C232.506 50.6489 232.658 50.8193 232.742 50.9669C232.642 50.7987 232.814 51.355 232.77 51.0508C232.79 51.2199 232.803 51.1791 232.751 51.4636C232.529 52.6937 232.248 53.8942 232.715 55.1974C233.104 56.2763 233.87 56.7733 234.476 57.6887C234.958 58.4049 234.485 59.4876 234.349 60.2406C233.847 63.0536 233.133 65.8833 232.838 68.7477C232.581 71.2814 233.532 73.7872 236.232 74.6933L234.386 71.5681C233.57 73.3438 232.756 75.111 231.949 76.8886C231.319 78.2599 232.803 80.2946 234.38 80.0654C240.478 79.1485 246.321 77.4237 251.739 74.8295L248.851 73.4506C249.033 73.8875 249.073 74.3299 249.047 74.8365C249.006 75.6007 248.862 76.3434 248.718 77.0777C248.454 78.49 248.13 79.9768 248.456 81.4766C248.64 82.2873 248.976 83.0773 249.496 83.7666C249.756 84.1155 250.096 84.4463 250.423 84.731C250.587 84.8691 251.315 85.4972 251.509 85.4939C251.65 85.4884 251.737 85.8971 251.512 85.2601C251.3 84.6608 251.353 85.1665 251.241 85.4385C251.048 85.9367 250.829 86.421 250.619 86.9157C250.165 87.9849 249.711 89.0456 249.257 90.1148C248.38 92.1818 247.495 94.2555 246.619 96.3225C245.743 98.3896 244.727 100.245 244.216 102.362C243.955 103.436 243.903 104.528 244.172 105.669C244.34 106.372 244.633 107.04 244.408 107.697C244.184 108.354 243.623 108.932 243.172 109.455C242.515 110.231 241.893 111.005 241.408 111.911C240.378 113.834 240.248 116.116 239.48 118.153C239.022 119.369 238.029 120.857 236.556 120.5C234.781 120.08 233.371 122.314 234.708 123.824C234.299 123.366 235.038 123.267 234.566 123.534C234.557 123.541 234.313 123.716 234.229 123.768C233.595 124.175 232.853 124.412 232.251 124.86C231.507 125.418 231.028 126.161 230.68 127.027C230.407 127.726 230.411 127.579 229.587 127.643C225.337 127.952 221.08 128.252 216.83 128.553C215.945 128.613 214.968 128.819 214.064 128.701C212.975 128.571 211.814 128.166 210.729 127.898C208.696 127.408 206.59 127.05 204.577 126.425C203.977 126.24 203.993 125.966 203.748 125.342C203.376 124.362 203.013 123.385 202.614 122.417C201.861 120.576 201.043 118.758 200.162 116.97C198.108 112.795 195.718 108.749 193.047 104.889C192.181 103.634 190.41 103.658 189.613 104.621C181.713 114.159 175.667 125.33 171.905 137.442C170.804 140.973 169.915 144.591 169.18 148.259C168.959 149.376 170.074 150.614 171.154 150.837C172.424 151.1 173.279 150.279 173.501 149.153C176.587 133.61 183.399 119.317 193.149 107.541L189.715 107.273C192.354 111.1 194.678 115.097 196.663 119.249C197.697 121.408 198.63 123.606 199.474 125.829C200.317 128.052 201.346 129.863 203.859 130.6C206.372 131.337 208.744 131.784 211.165 132.363C212.285 132.63 213.538 133.098 214.663 133.105C215.921 133.113 217.186 132.924 218.426 132.833C220.94 132.659 223.446 132.474 225.959 132.3C227.075 132.218 228.191 132.137 229.306 132.064C230.421 131.991 231.537 131.996 232.505 131.597C233.819 131.053 234.163 130.039 234.776 128.873C235.167 128.12 236.162 127.91 236.868 127.491C238.743 126.369 239.838 123.514 237.996 121.44L236.148 124.764C238.336 125.286 240.281 124.474 241.7 123.04C243.119 121.606 243.728 119.675 244.194 117.67C244.446 116.603 244.681 115.523 245.12 114.537C245.491 113.711 246.104 113.048 246.681 112.378C248.006 110.811 249.093 109.057 248.731 106.751C248.585 105.81 248.144 104.92 248.332 103.986C248.553 102.86 249.176 101.782 249.609 100.752C250.572 98.4949 251.527 96.2358 252.49 93.9784C253.453 91.7211 254.531 89.557 255.339 87.2675C256.146 84.9779 255.172 82.8405 252.897 81.493C252.437 81.2241 252.721 81.3002 252.785 81.3742C252.983 81.6235 252.67 81.1768 252.644 81.0759C252.736 81.4249 252.638 80.9444 252.636 80.8659C252.627 80.6644 252.617 80.9835 252.621 80.6285C252.636 79.7634 252.823 78.9255 252.984 78.0993C253.36 76.1111 253.596 74.12 252.738 72.0673C252.302 71.0221 250.832 70.2232 249.85 70.6884C244.763 73.1167 239.29 74.8399 233.557 75.7023L235.989 78.8791C236.804 77.1034 237.619 75.3362 238.426 73.5586C239.046 72.2026 237.862 70.8551 236.579 70.4334C236.195 70.3017 237.091 70.713 237.117 70.7183C237.342 70.7648 237.064 71.0284 237.175 70.765C237.242 70.5966 237.097 70.0457 237.11 69.9008C237.186 68.8314 237.445 67.7826 237.632 66.745C238.047 64.4261 238.496 62.1059 238.885 59.7817C239.054 58.7491 239.074 57.6161 238.586 56.5687C238.134 55.5984 237.214 55.0522 236.72 54.1686C236.681 54.1085 236.752 54.6007 236.746 54.1654C236.739 53.9469 236.793 53.7324 236.83 53.5142C236.917 53.0201 237.038 52.5417 237.074 52.0369C237.137 50.9128 236.826 49.8415 236.184 48.8404C235.347 47.5474 233.674 46.5588 232.935 45.5467C232.731 45.2699 232.694 45.1928 232.823 44.7162C233.068 43.8293 233.602 43.0629 233.906 42.1971C234.659 40.0351 234.08 38.1096 232.7 36.0793C231.571 34.4132 230.613 32.6958 229.886 30.844C228.427 27.1217 228.027 22.9417 230.753 20.2505L227.208 17.3294C224.742 20.1784 221.371 24.1077 216.947 23.6956C215.716 23.5798 214.514 23.0445 213.29 22.8521C211.78 22.6177 210.48 22.8955 209.136 23.3726C207.047 24.1209 204.843 23.9772 202.852 22.4019C201.511 21.3431 199.561 21.9118 199.442 23.5712C199.252 26.2404 195.18 26.6217 193.282 27.4964C191.77 28.1904 190.631 29.1439 189.595 30.4226C188.766 31.449 188.202 31.9574 186.787 31.9509C185.371 31.9443 183.862 31.6929 182.443 32.0242C180.926 32.37 179.693 33.3824 179.094 34.8035C177.941 37.5164 179.282 40.6932 178.88 43.5702L180.113 41.9503C177.246 42.9455 175.606 45.7921 175.495 48.8681C175.374 52.4544 177.126 55.8552 178.939 59.0604L180.501 56.1977C177.575 56.0523 174.927 53.9503 172.977 51.7064C171.77 50.3195 170.704 48.8314 169.73 47.2931C168.756 45.7547 167.979 44.0834 166.911 42.6124C165.662 40.9042 163.809 39.4617 161.733 39.6656C160.127 39.8194 158.981 40.9452 158.475 42.4031C158.251 43.0512 158.129 43.7463 157.998 44.4312C157.868 45.116 157.869 45.3072 157.593 45.9446C157.593 45.9446 157.455 46.2112 157.389 46.2669C157.578 46.1151 156.935 46.4248 156.88 46.4481C155.942 46.8181 155.069 47.3407 154.659 48.3062C154.338 49.0558 154.332 49.9312 154.487 50.7707C154.546 51.0955 154.642 51.4104 154.72 51.7218C154.754 51.8416 154.78 52.1422 154.848 52.2691C155.382 53.3084 154.736 52.35 154.921 52.4405C154.761 52.3639 155.432 52.2337 155.042 52.2658C155.131 52.2581 154.713 52.4061 154.795 52.371C154.502 52.5014 154.188 52.5752 153.887 52.6952C153.056 53.0441 152.353 53.5409 151.75 54.1974C149.511 56.6509 149.627 60.5466 150.524 63.866C151.057 65.8166 151.786 67.7469 152.069 69.7327C152.079 69.8215 152.091 70.4838 152.108 70.4959C152.099 70.4941 152.155 70.3581 152.171 70.3702L153.071 69.9486L152.507 69.7539C151.591 69.4687 150.685 69.4636 149.855 69.8039C148.285 70.4428 147.356 72.1167 147.241 73.8291C147.104 75.7888 148.132 77.6161 148.804 79.4827C149.045 80.1488 149.161 80.7285 148.975 81.2456C148.916 81.4242 148.806 81.5665 148.788 81.5715C149.069 81.482 148.446 81.4658 148.315 81.4561C146.259 81.2216 144.568 82.0436 143.849 83.9261C143.257 85.4616 143.396 87.3915 144.142 89.0215C145.028 90.9584 146.679 92.498 147.465 94.4664L149.027 91.6037C147.693 91.7618 146.439 92.4224 145.939 93.7079C145.439 94.9934 146.653 96.703 147.33 97.9194C148.692 100.345 150.222 102.667 151.946 104.882L152.68 101.622L150.771 102.017C149.427 102.295 149.223 104.223 150.037 105.277C153.201 109.326 157.196 112.635 161.698 114.965L160.416 112.026C160.13 112.678 159.845 113.331 159.559 113.975C159.152 114.915 159.725 116.501 160.841 116.914C161.958 117.327 162.713 117.944 163.296 119.019C164.084 120.467 165.382 121.422 166.932 121.803C168.302 122.139 169.652 121.984 170.917 121.612C172.181 121.24 173.3 120.621 174.734 121.022C176.392 121.478 177.859 121.304 179.069 120.243C180.203 119.246 181.139 118.007 182.144 116.878C184.332 114.397 186.529 111.909 188.717 109.427C190.456 107.452 186.911 104.54 185.173 106.506L185.144 106.431Z" fill="#6D8443"/>
<path d="M218.841 32.8362C216.341 41.702 212.514 50.1073 208.673 58.3638C204.302 67.7627 199.623 76.9887 194.909 86.1908C192.736 90.4238 190.554 94.655 188.415 98.9035C187.916 99.8973 188.649 101.307 189.719 101.812C190.91 102.374 192.075 101.873 192.584 100.873C196.705 92.6978 200.955 84.5913 205.06 76.3958C209.686 67.1593 214.22 57.8528 218.184 48.2702C220.004 43.8725 221.72 39.42 223.019 34.7989C223.328 33.7158 222.923 32.4655 221.715 31.8909C220.679 31.4019 219.161 31.7379 218.851 32.8295L218.841 32.8362Z" fill="#5B6E30"/>
<path d="M157.321 96.4737C160.142 102.376 164.807 107.332 170.463 110.412C171.496 110.973 172.864 110.514 173.218 109.455C173.586 108.337 173.073 107.086 171.965 106.484C170.543 105.71 169.994 105.357 168.745 104.382C167.626 103.513 166.568 102.552 165.585 101.519C165.751 101.694 165.656 101.595 165.545 101.475C165.403 101.314 165.261 101.161 165.12 100.99C164.884 100.721 164.657 100.445 164.43 100.168C164.001 99.6384 163.598 99.0965 163.206 98.5393C162.998 98.2407 162.808 97.9457 162.609 97.6489C162.51 97.4962 162.419 97.3452 162.32 97.1925C162.328 97.203 162.018 96.6895 162.139 96.8907C162.267 97.111 161.989 96.6305 161.967 96.582C161.877 96.4225 161.796 96.2647 161.714 96.1156C161.528 95.7688 161.36 95.417 161.192 95.0652C160.68 93.9908 159.404 93.2384 158.35 93.6758C157.36 94.0912 156.774 95.3126 157.322 96.4651L157.321 96.4737Z" fill="#5B6E30"/>
<path d="M164.475 68.4701C167.335 75.4225 171.293 82.0355 176.12 87.9311C176.908 88.887 178.233 89.2221 179.158 88.5598C180.019 87.9363 180.219 86.4965 179.432 85.532C174.825 79.9086 171.11 73.703 168.378 67.0734C167.275 64.3879 163.372 65.7761 164.476 68.4615L164.475 68.4701Z" fill="#5B6E30"/>
<path d="M233.272 86.6338C224.408 92.3401 214.082 95.6408 203.262 96.3255C200.574 96.4959 201.314 100.929 204.019 100.763C215.584 100.033 226.54 96.4327 235.998 90.3477C238.209 88.931 235.475 85.2153 233.273 86.6251L233.272 86.6338Z" fill="#5B6E30"/>
<path d="M222.035 114.313C221.133 114.679 220.21 114.997 219.273 115.267C218.77 115.408 218.267 115.54 217.757 115.662C217.678 115.681 217.125 115.793 217.511 115.716C217.257 115.768 216.994 115.818 216.74 115.862C214.798 116.21 212.804 116.351 210.792 116.311C209.683 116.286 208.841 117.546 209.078 118.681C209.345 119.956 210.361 120.743 211.548 120.766C215.813 120.846 220.006 120.074 223.845 118.533C224.836 118.132 225.405 116.849 224.867 115.712C224.329 114.574 223.106 113.885 222.044 114.306L222.035 114.313Z" fill="#5B6E30"/>
<path d="M188.24 44.801C188.958 50.0989 190.467 55.3754 192.654 60.4172C193.136 61.5349 194.507 62.1495 195.561 61.7834C196.614 61.4173 197.094 60.157 196.612 59.0392C194.558 54.2922 193.23 49.5454 192.541 44.5211C192.383 43.348 191.128 42.4285 189.996 42.4934C188.792 42.5697 188.074 43.6176 188.232 44.7993L188.24 44.801Z" fill="#5B6E30"/>
<path d="M224.002 63.4859C220.135 66.4776 216.089 69.2304 211.882 71.7309C210.963 72.283 210.875 73.8583 211.61 74.774C212.448 75.8075 213.649 75.9887 214.631 75.4061C218.838 72.897 222.884 70.1442 226.751 67.1611C227.593 66.5051 227.814 65.0978 227.024 64.118C226.233 63.1382 224.908 62.7908 224.002 63.4859Z" fill="#5B6E30"/>
<path d="M72.7421 235.296C91.0317 235.296 105.858 222.387 105.858 206.463C105.858 190.539 91.0317 177.63 72.7421 177.63C54.4526 177.63 39.626 190.539 39.626 206.463C39.626 222.387 54.4526 235.296 72.7421 235.296Z" fill="#8076B6"/>
<path d="M46.9887 200.583C46.3906 208.806 51.0997 216.449 57.4728 220.885C64.5963 225.844 73.7318 226.629 82.019 225.662C83.4763 225.492 84.7379 224.479 84.7379 222.819C84.7379 221.408 83.4872 219.805 82.019 219.975C74.8846 220.805 67.1847 220.464 60.8986 216.438C55.6892 213.094 51.948 207.111 52.4265 200.583C52.5353 199.047 51.0997 197.739 49.7076 197.739C48.1415 197.739 47.0975 199.047 46.9887 200.583Z" fill="#A09BCC"/>
<path d="M135.056 260.862C153.345 260.862 168.172 247.953 168.172 232.029C168.172 216.105 153.345 203.196 135.056 203.196C116.766 203.196 101.939 216.105 101.939 232.029C101.939 247.953 116.766 260.862 135.056 260.862Z" fill="#8076B6"/>
<path d="M109.302 226.149C108.704 234.372 113.413 242.015 119.786 246.451C126.91 251.41 136.045 252.195 144.332 251.228C145.79 251.057 147.051 250.045 147.051 248.385C147.051 246.974 145.801 245.37 144.332 245.541C137.198 246.371 129.498 246.03 123.212 242.004C118.003 238.66 114.261 232.677 114.74 226.149C114.849 224.613 113.413 223.305 112.021 223.305C110.455 223.305 109.411 224.613 109.302 226.149Z" fill="#A09BCC"/>
<path d="M109.466 204.801C126.494 204.801 140.298 194.413 140.298 181.599C140.298 168.784 126.494 158.396 109.466 158.396C92.4379 158.396 78.6338 168.784 78.6338 181.599C78.6338 194.413 92.4379 204.801 109.466 204.801Z" fill="#775CA3"/>
<path d="M94.724 169.565C94.2019 171.033 93.2775 172.534 92.799 174.115C92.3205 175.696 92.2661 177.368 92.4945 179.006C92.9295 182.054 94.5935 184.909 96.7577 186.979C99.1721 189.31 102.217 190.709 105.382 191.551C106.883 191.949 108.416 192.222 109.95 192.472C110.776 192.609 111.614 192.723 112.44 192.848C112.799 192.904 113.147 192.95 113.506 193.007C113.68 193.03 113.865 193.064 114.039 193.109C114.615 193.325 114.431 193.121 113.473 192.506C114.333 193.746 115.833 194.36 117.193 193.53C118.367 192.813 119.031 190.891 118.172 189.64C117.052 188.025 115.67 187.627 113.887 187.354C112.408 187.127 110.918 186.922 109.45 186.649C106.665 186.126 103.849 185.398 101.489 183.703C99.8137 182.497 98.3564 180.461 97.8996 178.38C97.8996 178.335 97.78 177.47 97.8126 177.936C97.78 177.584 97.78 177.231 97.7909 176.879C97.8126 176.412 97.8888 176.014 98.1606 175.286C98.65 173.944 99.4657 172.5 99.9769 171.067C100.488 169.634 99.4005 167.95 98.0736 167.563C96.5511 167.12 95.246 168.109 94.724 169.554V169.565Z" fill="#9C8AC0"/>
<path d="M31.7836 134.216C45.6281 134.216 56.8513 123.891 56.8513 111.155C56.8513 98.4181 45.6281 88.0933 31.7836 88.0933C17.939 88.0933 6.71582 98.4181 6.71582 111.155C6.71582 123.891 17.939 134.216 31.7836 134.216Z" fill="#85B726"/>
<path d="M65.0701 135.622C77.4521 135.622 87.4898 125.196 87.4898 112.334C87.4898 99.4733 77.4521 89.0474 65.0701 89.0474C52.688 89.0474 42.6504 99.4733 42.6504 112.334C42.6504 125.196 52.688 135.622 65.0701 135.622Z" fill="#80A02A"/>
<path d="M49.8872 218.302C62.995 218.302 73.621 207.265 73.621 193.65C73.621 180.035 62.995 168.998 49.8872 168.998C36.7793 168.998 26.1533 180.035 26.1533 193.65C26.1533 207.265 36.7793 218.302 49.8872 218.302Z" fill="#80A02A"/>
<path d="M71.3892 203.318C86.025 203.318 97.8896 190.994 97.8896 175.792C97.8896 160.59 86.025 148.266 71.3892 148.266C56.7533 148.266 44.8887 160.59 44.8887 175.792C44.8887 190.994 56.7533 203.318 71.3892 203.318Z" fill="#85B726"/>
<path d="M22.5896 193.177C35.0644 193.177 45.1773 180.316 45.1773 164.451C45.1773 148.585 35.0644 135.724 22.5896 135.724C10.1148 135.724 0.00195312 148.585 0.00195312 164.451C0.00195312 180.316 10.1148 193.177 22.5896 193.177Z" fill="#80A02A"/>
<path d="M133.793 203.318C148.216 203.318 159.908 191.173 159.908 176.192C159.908 161.211 148.216 149.067 133.793 149.067C119.37 149.067 107.678 161.211 107.678 176.192C107.678 191.173 119.37 203.318 133.793 203.318Z" fill="#A0C528"/>
<path d="M125.241 168.042C135.958 158.093 135.274 139.136 123.713 125.701C112.152 112.266 94.0927 109.44 83.3756 119.39C72.6586 129.339 73.3425 148.296 84.9033 161.731C96.464 175.166 114.524 177.991 125.241 168.042Z" fill="#80A02A"/>
<path d="M73.483 189.403C90.778 185.427 102.206 170.037 99.0076 155.028C95.8095 140.019 79.1965 131.075 61.9014 135.051C44.6063 139.027 33.1786 154.418 36.3767 169.426C39.5749 184.435 56.1879 193.379 73.483 189.403Z" fill="#A0C528"/>
<path d="M121.221 129.279C135.825 129.279 147.663 117.971 147.663 104.021C147.663 90.0719 135.825 78.7637 121.221 78.7637C106.618 78.7637 94.7803 90.0719 94.7803 104.021C94.7803 117.971 106.618 129.279 121.221 129.279Z" fill="#85B726"/>
<path d="M163.306 173.555C173.063 164.497 172.499 147.308 162.048 135.162C151.596 123.016 135.214 120.512 125.457 129.57C115.7 138.628 116.264 155.817 126.715 167.963C137.167 180.109 153.549 182.613 163.306 173.555Z" fill="#85B726"/>
<path d="M171.316 186.025C188.522 186.025 202.47 174.197 202.47 159.607C202.47 145.017 188.522 133.19 171.316 133.19C154.109 133.19 140.161 145.017 140.161 159.607C140.161 174.197 154.109 186.025 171.316 186.025Z" fill="#A0C528"/>
<path d="M181.501 195.288C197.022 187.788 205.004 171.438 199.33 158.769C193.656 146.101 176.473 141.912 160.952 149.413C145.431 156.913 137.449 173.263 143.123 185.931C148.797 198.599 165.979 202.789 181.501 195.288Z" fill="#85B726"/>
<path d="M124.603 234.157C139.866 234.157 152.239 224.218 152.239 211.958C152.239 199.698 139.866 189.759 124.603 189.759C109.339 189.759 96.9658 199.698 96.9658 211.958C96.9658 224.218 109.339 234.157 124.603 234.157Z" fill="#80A02A"/>
<path d="M50.5563 104.227C49.2619 109.051 49.8646 114.387 52.3546 118.698C54.647 122.659 58.3622 125.574 62.611 126.898C65.6642 127.853 66.9684 122.895 63.9251 121.951C60.8818 121.007 58.2436 118.924 56.6232 116.112C54.7656 112.909 54.3703 109.122 55.3189 105.592C56.1785 102.41 51.416 101.045 50.5563 104.227Z" fill="#A0C528"/>
<path d="M106.489 167.684C110.521 168.628 114.947 167.827 118.297 165.262C118.831 164.851 119.246 164.42 119.433 163.732C119.591 163.117 119.522 162.296 119.186 161.752C118.524 160.684 116.914 159.976 115.807 160.828C115.115 161.362 114.374 161.793 113.594 162.183C113.347 162.296 113.396 162.275 113.742 162.121C113.643 162.162 113.544 162.203 113.445 162.244C113.297 162.306 113.139 162.357 112.991 162.408C112.586 162.552 112.171 162.665 111.756 162.757C111.548 162.809 111.331 162.84 111.123 162.881C110.857 162.922 110.916 162.911 111.301 162.86C111.193 162.87 111.084 162.891 110.985 162.901C110.61 162.942 110.234 162.963 109.859 162.963C109.434 162.963 109.009 162.932 108.574 162.901C108.298 162.87 108.357 162.881 108.752 162.932C108.643 162.911 108.545 162.901 108.436 162.881C108.228 162.84 108.011 162.798 107.803 162.747C106.549 162.45 105.066 163.147 104.76 164.543C104.474 165.847 105.136 167.386 106.489 167.704V167.684Z" fill="#A0C528"/>
<path d="M101.966 140.835C105.039 139.86 107.648 137.797 109.426 135.026C109.772 134.492 109.832 133.651 109.673 133.045C109.515 132.44 109.071 131.803 108.537 131.516C107.292 130.839 105.919 131.239 105.158 132.44C105.02 132.655 104.871 132.871 104.723 133.076L105.109 132.553C104.535 133.322 103.864 134.02 103.122 134.626L103.626 134.225C102.856 134.841 102.016 135.354 101.117 135.755L101.709 135.498C101.364 135.652 101.008 135.775 100.652 135.898C100.049 136.093 99.4962 136.504 99.18 137.079C98.8638 137.653 98.7354 138.444 98.933 139.059C99.3381 140.353 100.652 141.276 101.976 140.855L101.966 140.835Z" fill="#A0C528"/>
<path d="M33.0094 195.836C31.9127 200.495 34.2446 204.99 37.7621 207.782C41.2797 210.573 45.6965 211.312 49.8662 212.154C51.131 212.41 52.5933 211.784 52.9095 210.358C53.1862 209.085 52.5439 207.474 51.1804 207.197C49.3425 206.827 47.5047 206.489 45.6965 205.975C43.8883 205.462 42.6235 205.011 40.9932 203.902C40.8351 203.789 40.677 203.677 40.5288 203.564C40.3213 203.399 40.7165 203.748 40.4003 203.44C40.0841 203.133 39.768 202.845 39.4814 202.527C39.353 202.383 39.2245 202.229 39.0961 202.075C38.6218 201.511 39.3233 202.455 38.9182 201.829C38.7008 201.501 38.4933 201.172 38.3155 200.813C38.2068 200.608 38.108 200.392 38.0092 200.177C38.1574 200.515 38.0289 200.208 37.9696 200.033C37.8313 199.633 37.7424 199.222 37.6633 198.802C37.7424 199.171 37.6732 198.925 37.6633 198.689C37.6534 198.494 37.6436 198.309 37.6436 198.114C37.6436 198.052 37.7029 197.293 37.6337 197.878C37.6633 197.642 37.7226 197.416 37.772 197.19C38.0783 195.887 37.3768 194.347 36.0429 194.029C34.7089 193.711 33.3355 194.429 32.9996 195.825L33.0094 195.836Z" fill="#A0C528"/>
<path d="M106.009 206.992C104.567 213.345 107.818 219.564 112.738 223.218C115.278 225.107 118.291 226.307 121.305 227.087C122.827 227.477 124.368 227.765 125.91 228.001C127.639 228.257 129.427 228.637 130.998 227.57C133.646 225.774 131.176 221.33 128.508 223.136C128.528 223.157 128.548 223.167 128.577 223.167C128.706 223.177 128.607 223.177 128.281 223.167C128.064 223.167 127.826 223.126 127.619 223.095C127.016 223.023 126.413 222.91 125.811 222.808C124.625 222.602 123.439 222.346 122.283 222.038C119.882 221.391 117.6 220.457 115.545 218.99C112.264 216.66 109.893 212.319 110.802 208.347C111.533 205.135 106.77 203.77 106.039 206.982L106.009 206.992Z" fill="#A0C528"/>
<path d="M15.3226 148.092C15.3819 147.928 15.4412 147.753 15.5005 147.589L15.2535 148.205C15.5005 147.609 15.8068 147.065 16.1822 146.552L15.7969 147.076C16.2218 146.511 16.7059 146.008 17.2494 145.567L16.7455 145.967C17.2988 145.536 17.8818 145.177 18.524 144.89L17.9312 145.146C18.5339 144.89 19.1564 144.705 19.8085 144.613L19.1564 144.705C19.4627 144.664 19.769 144.643 20.0753 144.643C21.3697 144.633 22.6048 143.473 22.5455 142.078C22.4862 140.682 21.4586 139.502 20.0753 139.512C15.7771 139.553 11.9532 142.55 10.56 146.737C10.1352 148.01 11.0442 149.6 12.2892 149.898C13.6626 150.227 14.878 149.467 15.3325 148.102L15.3226 148.092Z" fill="#A0C528"/>
<path d="M176.797 237.306C190.831 244.658 206.107 242.285 210.917 232.005C215.726 221.725 208.247 207.431 194.213 200.079C180.178 192.727 164.902 195.1 160.093 205.38C155.284 215.66 162.762 229.954 176.797 237.306Z" fill="#85B726"/>
<path d="M169.978 201.913C166.298 205.86 165.09 211.847 166.499 217.148C168.139 223.357 173.849 226.751 178.986 229.384C180.186 230.004 181.703 229.298 182.218 228.061C182.76 226.741 182.118 225.276 180.918 224.656C177.01 222.654 172.503 220.29 171.154 215.606C170.994 215.036 170.845 213.922 170.815 213.067C170.789 212.321 170.903 211.244 171.072 210.36C171.465 208.388 172.435 206.64 173.825 205.155C174.752 204.16 174.401 202.348 173.431 201.527C172.307 200.577 170.902 200.904 169.976 201.898L169.978 201.913Z" fill="#A7CB69"/>
<path d="M14.1647 104.986C13.1766 110.795 15.2615 116.891 19.5893 120.75C24.2136 124.866 30.3002 126.149 36.2188 125.225C37.5429 125.02 38.2642 123.285 37.948 122.064C37.5626 120.596 36.2386 120.063 34.9047 120.268C30.9622 120.873 26.2391 119.919 23.0871 117.107C21.5754 115.762 20.3403 114.038 19.6684 112.293C19.4707 111.791 19.3126 111.257 19.1743 110.733C19.1051 110.446 19.036 110.159 18.9767 109.861C18.9668 109.789 18.868 109.215 18.9075 109.512C18.7692 108.486 18.8087 107.08 18.9372 106.341C19.1644 104.976 18.5815 103.58 17.208 103.18C16.0124 102.841 14.4018 103.601 14.1647 104.976V104.986Z" fill="#A7CB69"/>
<path d="M105.746 93.7993C103.039 99.5878 103.553 106.71 107.347 111.873C111.675 117.764 119.451 120.319 126.368 120.186C129.539 120.124 129.549 114.993 126.368 115.054C121.091 115.147 114.896 113.453 111.428 109.009C108.72 105.53 108.167 100.337 110.015 96.3754C110.598 95.1336 110.341 93.6044 109.125 92.8654C108.039 92.2086 106.329 92.537 105.746 93.7891V93.7993Z" fill="#A7CB69"/>
<path d="M126.995 141.03C125.236 149.6 128.714 158.6 135.641 163.568C136.737 164.358 138.387 163.783 139.02 162.644C139.741 161.371 139.237 159.924 138.131 159.134C137.498 158.683 137.143 158.385 136.51 157.759C135.937 157.205 135.275 156.445 134.88 155.922C134.514 155.439 133.99 154.608 133.635 153.951C133.279 153.294 132.815 152.33 132.647 151.878C132.35 151.088 132.103 150.267 131.906 149.446C131.807 149.035 131.718 148.614 131.649 148.194C131.649 148.142 131.55 147.568 131.589 147.896C131.56 147.711 131.55 147.516 131.53 147.332C131.451 146.439 131.421 145.546 131.471 144.643C131.491 144.222 131.52 143.791 131.57 143.37C131.53 143.637 131.589 143.288 131.599 143.216C131.649 142.939 131.698 142.662 131.757 142.385C132.034 141.03 131.372 139.614 130.028 139.224C128.793 138.875 127.271 139.655 126.985 141.02L126.995 141.03Z" fill="#A7CB69"/>
<path d="M152.252 165.631C150.622 172.014 149.249 179.342 153.527 184.987C155.365 187.409 158.003 188.856 160.76 189.862C163.517 190.868 166.856 192.13 169.712 190.775C170.927 190.201 171.224 188.374 170.601 187.265C169.87 185.972 168.437 185.767 167.222 186.342C166.777 186.557 165.443 185.952 164.93 185.808C163.813 185.49 162.697 185.161 161.61 184.741C159.841 184.053 158.082 182.986 157.025 181.303C154.337 177.043 155.869 171.501 157.025 166.996C157.845 163.804 153.073 162.439 152.262 165.631H152.252Z" fill="#A7CB69"/>
<path d="M44.9068 157.492C43.6816 164.779 45.2427 173.175 50.8946 178.173C56.0524 182.73 64.1844 184.064 69.9054 179.784C70.9824 178.973 71.5061 177.547 70.7947 176.274C70.1722 175.166 68.5023 174.54 67.4154 175.35C63.473 178.296 57.8112 177.711 54.1652 174.334C50.0547 170.527 48.7603 164.297 49.6793 158.857C49.9065 157.492 49.3236 156.097 47.9501 155.696C46.7545 155.358 45.1439 156.117 44.9068 157.492Z" fill="#7EA33E"/>
<path d="M117.102 179.927C118.594 181.898 120.847 183.273 123.04 184.258C125.985 185.582 129.058 186.434 132.239 186.886C133.514 187.071 134.957 186.568 135.283 185.09C135.55 183.879 134.927 182.134 133.554 181.929C132.042 181.713 130.54 181.416 129.068 181.015C128.396 180.831 127.734 180.625 127.072 180.399C126.756 180.287 126.439 180.174 126.133 180.051C125.965 179.989 125.797 179.917 125.629 179.845C125.53 179.804 125.066 179.599 125.53 179.814C124.463 179.322 123.426 178.778 122.457 178.101C122.339 178.018 122.22 177.926 122.102 177.844C121.874 177.68 121.756 177.762 122.121 177.875C121.944 177.823 121.687 177.505 121.568 177.382C121.212 177.043 120.886 176.684 120.59 176.294C119.79 175.237 117.922 175.36 117.092 176.294C116.094 177.423 116.232 178.788 117.092 179.927H117.102Z" fill="#7EA33E"/>
<path d="M59.0265 112.897C57.0079 105.235 61.6284 97.1928 70.0172 92.9044C74.8621 90.4193 79.763 88.2104 82.2976 83.9737C84.6191 80.108 85.0677 75.8627 85.5836 71.6778C86.0995 67.4929 86.8845 63.6618 89.2621 59.9514C91.7743 56.0426 95.2397 52.5566 98.649 49.0965C102.058 45.6364 105.602 41.9002 108.328 37.9051C111.187 33.7116 113.509 29.3196 116.234 25.0829C119.195 20.4752 122.705 16.1608 127.55 12.5885C132.07 9.25787 137.464 6.60886 143.329 4.91764C144.743 4.51209 145.718 3.45939 145.292 2.26C144.922 1.21593 143.273 0.344433 141.838 0.749981C130.208 4.11517 120.642 10.3969 114.361 18.6373C111.165 22.8222 108.743 27.3177 106.062 31.7011C103.382 36.0845 100.443 40.0278 96.7986 43.8503C93.3444 47.4743 89.6098 50.9517 86.5593 54.8001C83.5088 58.6485 81.4565 62.7385 80.6378 67.1736C79.864 71.3844 79.8864 75.7333 78.3387 79.8405C77.6771 81.6094 76.6453 83.3265 75.0303 84.7071C73.0341 86.407 70.4322 87.5373 67.9537 88.7712C62.5256 91.472 58.1966 95.0357 55.6284 99.6348C53.0602 104.234 52.3424 109.152 53.6209 114.019C53.9237 115.158 55.6845 115.822 57.0752 115.529C58.6228 115.201 59.3294 114.019 59.0378 112.871L59.0265 112.897Z" fill="#80A02A"/>
<path d="M92.9978 52.1931C91.9734 74.7692 105.943 90.4392 111.268 110.129C112.733 115.551 113.605 121.405 112.978 127.19C112.809 128.744 113.258 130.333 114.46 130.789C115.459 131.163 116.89 130.321 117.067 128.744C118.295 117.444 115.391 106.775 111.395 97.0765C107.399 87.3776 102.607 79.2096 99.5761 69.242C97.9252 63.82 96.977 58.0942 97.2394 52.1931C97.4088 48.4422 93.1756 48.4538 93.0063 52.1931H92.9978Z" fill="#80A02A"/>
<path d="M98.713 79.6265C93.2843 84.2151 89.6802 89.1923 87.4362 94.4037C85.0562 99.9123 83.7981 105.415 85.8155 111.004C86.9262 114.084 89.0342 117.067 92.0829 119.792C93.8736 121.392 98.7697 119.958 96.979 118.352C91.9469 113.85 90.0429 108.678 90.4509 103.547C90.6549 100.952 91.5616 98.4095 92.6043 95.8723C93.647 93.3352 94.8256 91.0323 96.4577 88.6894C98.305 86.0266 100.753 83.4951 103.62 81.0723C105.49 79.4894 100.594 78.0494 98.7244 79.6322L98.713 79.6265Z" fill="#80A02A"/>
<path d="M101.237 46.4222C116.31 51.8755 128.018 61.3067 137.394 71.7129C142.43 77.2957 147.084 83.1804 150.987 89.2809C155.058 95.6575 157.749 102.474 158.31 109.584C158.938 117.462 157.267 125.487 153.207 132.752C152.613 133.822 152.792 135.065 154.216 135.703C155.394 136.238 157.446 136.005 158.052 134.927C165.936 120.827 165.88 104.976 158.074 90.8772C154.373 84.1986 149.461 77.8651 144.246 71.8251C139.379 66.1733 133.973 60.7458 127.772 55.9224C120.886 50.5553 112.945 45.9131 104.052 42.6946C102.684 42.2028 101.024 42.4012 100.216 43.4712C99.5099 44.4117 99.8463 45.9217 101.226 46.4222H101.237Z" fill="#80A02A"/>
<path d="M147.25 82.7572C144.603 85.1474 141.878 87.6238 140.139 90.4885C138.311 93.4999 137.616 96.7012 137.324 99.9973C137.223 101.162 138.681 102.154 140.128 102.154C141.732 102.154 142.831 101.162 142.932 99.9973C142.999 99.1776 143.089 98.3665 143.235 97.5468C143.179 97.8402 143.257 97.4432 143.279 97.3397C143.313 97.1585 143.358 96.9773 143.392 96.8047C143.47 96.4596 143.56 96.123 143.661 95.7779C143.851 95.1394 144.076 94.5095 144.356 93.8882C144.491 93.5862 144.636 93.3015 144.782 93.0081C144.973 92.6284 144.693 93.1548 144.827 92.9218C144.917 92.7837 144.995 92.6371 145.085 92.499C145.792 91.36 146.666 90.2901 147.62 89.2719C148.281 88.5643 148.45 88.4004 149.078 87.805C149.784 87.132 150.502 86.4762 151.231 85.8204C152.218 84.9316 152.364 83.6373 151.231 82.7658C150.221 81.9893 148.248 81.8771 147.261 82.7658L147.25 82.7572Z" fill="#80A02A"/>
<path d="M74.3436 89.4182C81.6333 97.65 83.338 108.436 83.7978 118.16C83.9324 120.93 89.5398 120.939 89.4053 118.16C88.9118 107.72 87.0164 96.0796 79.1884 87.2438C77.1697 84.9658 72.3024 87.1144 74.3436 89.4182Z" fill="#80A02A"/>
</svg>
