<svg width="70" height="70" viewBox="0 0 70 70" fill="none" xmlns="http://www.w3.org/2000/svg">
<rect width="70" height="70" fill="#3E4835" fill-opacity="0.996078"/>
<mask id="mask0_1195_17805" style="mask-type:luminance" maskUnits="userSpaceOnUse" x="11" y="14" width="48" height="42">
<path d="M58.6262 14H11V55.8735H58.6262V14Z" fill="white"/>
</mask>
<g mask="url(#mask0_1195_17805)">
<path d="M11.8305 32.591C11.0002 38.2362 12.1903 40.0321 13.7939 45.0713C14.1671 46.2428 16.4841 49.5596 17.2017 50.5563C18.7577 52.7161 21.8129 53.6466 24.3057 52.7223C25.7976 52.1692 27.0125 51.0639 28.3938 50.274C29.7751 49.4841 31.5627 49.0343 32.9223 49.8625C34.2478 50.669 34.7792 52.4566 36.1688 53.1472C36.876 53.4988 39.957 54.5234 40.7449 54.5244C45.2683 54.5265 45.8679 54.5223 50.3913 54.5244C50.8245 54.5244 52.9606 53.5019 53.2987 53.231C53.7319 52.8846 53.7867 52.2529 53.7743 51.6977C53.736 49.879 53.3607 48.0687 52.6732 46.3854C53.8828 46.2242 55.0925 46.0639 56.3032 45.9036C56.6651 45.855 57.0528 45.7961 57.3196 45.5459C57.5987 45.2843 57.6783 44.8728 57.6866 44.4903C57.7207 42.9436 56.8564 41.4496 57.0569 39.9163C57.21 38.749 57.9658 37.7182 58.066 36.5457C58.2077 34.878 57.0259 33.4367 56.2081 31.9779C53.7619 27.6127 54.1041 21.6088 50.261 18.4088C48.1198 16.6263 45.1918 16.2117 42.4291 15.8674C39.6831 15.5252 36.937 15.183 34.1909 14.8408C32.3805 14.6143 30.5381 14.39 28.7391 14.6888C26.9773 14.9824 25.3334 15.7651 23.796 16.677C18.3782 19.8894 13.5612 24.6454 11.9825 30.7496L11.8284 32.592L11.8305 32.591Z" fill="#CECECE"/>
<path d="M11.309 32.4425C11.0991 33.7721 10.9626 35.112 11.0091 36.4571C11.0463 37.5262 11.2014 38.5901 11.4578 39.6271C11.7163 40.6693 12.0658 41.6857 12.4132 42.701C12.621 43.3099 12.8298 43.9179 13.0304 44.5279C13.1803 44.9828 13.3147 45.4346 13.5257 45.8647C13.9351 46.7074 14.4541 47.5014 14.9669 48.2851C15.4798 49.0688 15.9812 49.7988 16.5085 50.5422C17.1413 51.4324 17.8722 52.1881 18.8328 52.7278C19.8739 53.313 21.0701 53.6346 22.2653 53.6367C23.5629 53.6398 24.7715 53.2303 25.8809 52.5738C27.0503 51.8811 28.0987 50.964 29.3507 50.415C30.4312 49.9414 31.7515 49.7326 32.772 50.4305C33.1369 50.6797 33.5391 51.1646 33.809 51.5223C34.1553 51.9824 34.4862 52.4601 34.8884 52.8736C35.5387 53.5426 36.3462 53.8486 37.2054 54.1505C38.0646 54.4524 38.9827 54.7512 39.8936 54.9559C40.3144 55.05 40.7176 55.0831 41.1487 55.0448H49.4397C49.9391 55.0831 50.4446 55.1327 50.9254 54.9725C51.3659 54.8257 51.7918 54.6334 52.2137 54.439C52.589 54.2653 52.9632 54.0843 53.3231 53.8786C53.779 53.618 54.0995 53.2396 54.237 52.7227C54.4128 52.062 54.3394 51.33 54.2784 50.659C54.207 49.8763 54.0819 49.0967 53.8948 48.3337C53.7201 47.6193 53.4916 46.9183 53.2145 46.2359L52.6758 46.9441C53.5226 46.8325 54.3704 46.7198 55.2172 46.6071C55.6535 46.5492 56.0908 46.4944 56.5271 46.4324C56.888 46.3807 57.2499 46.2938 57.5497 46.0756C58.2 45.6021 58.2962 44.7574 58.2321 44.0109C58.168 43.2644 57.9509 42.49 57.7751 41.7353C57.619 41.0632 57.5073 40.3705 57.6676 39.6871C57.8288 39.0047 58.1556 38.3637 58.381 37.6948C58.625 36.972 58.6973 36.2359 58.5588 35.4832C58.4296 34.7812 58.1132 34.1153 57.7668 33.4981C57.4204 32.8808 57.0224 32.2863 56.6771 31.665C56.3876 31.1449 56.1384 30.6052 55.9347 30.0841C55.4808 28.9282 55.1479 27.7299 54.8264 26.5326C54.2008 24.2104 53.6188 21.7632 52.2292 19.7584C51.4837 18.6831 50.5315 17.7785 49.3931 17.1302C48.1659 16.4303 46.7918 16.0239 45.4136 15.7541C43.9144 15.4615 42.3905 15.3033 40.8778 15.1151C39.1843 14.9032 37.4907 14.6922 35.7972 14.4813C34.1036 14.2704 32.4359 13.9995 30.7465 13.983C29.0561 13.9675 27.5393 14.2787 26.0371 14.9083C24.6826 15.477 23.4099 16.2183 22.1826 17.0227C21.0412 17.7692 19.9421 18.5849 18.8999 19.4638C16.858 21.1883 15.0331 23.2013 13.6363 25.4884C12.9394 26.6308 12.3574 27.8436 11.9076 29.104C11.7174 29.6354 11.4816 30.2175 11.4258 30.781C11.3927 31.1129 11.37 31.4478 11.3421 31.7808C11.3193 32.0496 11.2976 32.3174 11.2748 32.5872C11.249 32.8881 11.5499 33.1466 11.8332 33.1466C12.1557 33.1466 12.3656 32.8891 12.3915 32.5872C12.4421 31.9907 12.4731 31.391 12.5414 30.7965C12.5548 30.6765 12.5124 30.8668 12.5528 30.7892C12.6231 30.6538 12.6437 30.4563 12.6882 30.3095C12.7792 30.0035 12.8784 29.7005 12.9849 29.4007C13.1958 28.8072 13.4316 28.252 13.7076 27.6854C14.817 25.4067 16.3689 23.3906 18.1783 21.6257C20.029 19.8205 22.1309 18.2789 24.3673 16.9886C25.6349 16.2566 26.9696 15.631 28.4068 15.3167C29.9566 14.9776 31.5613 15.0893 33.1235 15.2661C36.3907 15.6341 39.6547 16.0653 42.9157 16.484C45.4322 16.8076 48.1918 17.2574 50.1376 19.0326C51.8301 20.5783 52.6097 22.7485 53.2331 24.9311C53.8948 27.245 54.3921 29.6323 55.485 31.7952C56.0712 32.9553 56.948 34.0006 57.3491 35.2495C57.5425 35.8523 57.5755 36.4447 57.407 37.0661C57.2209 37.7485 56.8932 38.3802 56.6843 39.0543C56.4568 39.7895 56.4393 40.5256 56.554 41.2835C56.6626 42.001 56.8839 42.6948 57.0265 43.4051C57.0927 43.7359 57.1361 44.0688 57.1351 44.4069C57.1351 44.6499 57.1175 44.9342 56.9759 45.1038C56.8229 45.2857 56.4724 45.3178 56.2346 45.3509C55.851 45.4046 55.4684 45.4522 55.0848 45.5029C54.2825 45.6094 53.4823 45.7159 52.68 45.8213C52.3657 45.8627 51.9883 46.1522 52.1413 46.5295C52.6862 47.8736 53.048 49.2953 53.1721 50.7417C53.2217 51.3114 53.32 52.0496 53.1287 52.5407C53.0873 52.6472 53.0429 52.702 52.9601 52.7868C52.8537 52.8953 53.016 52.7578 52.9757 52.7764C52.9498 52.7889 52.925 52.8106 52.9012 52.8261C52.7637 52.9119 52.621 52.9884 52.4763 53.0639C52.0875 53.2686 51.6884 53.4578 51.2852 53.6336C51.2377 53.6553 51.1891 53.6749 51.1415 53.6966C51.2263 53.6604 51.1167 53.707 51.0888 53.7183C50.9947 53.7566 50.9016 53.7938 50.8076 53.8279C50.6628 53.8817 50.5139 53.92 50.3661 53.9654C50.2792 53.9923 50.426 53.9613 50.424 53.9582C50.3971 53.9396 50.2916 53.9592 50.2596 53.9044H44.2567C43.0759 53.9592 41.8828 54.0078 40.7031 53.9582C40.6349 53.9551 40.4953 53.9282 40.6504 53.9582C40.5728 53.9437 40.4963 53.9334 40.4188 53.9189C40.2286 53.8817 40.0414 53.8372 39.8543 53.7907C39.4066 53.677 38.9641 53.5457 38.5236 53.4061C38.0832 53.2665 37.652 53.1228 37.2219 52.9667C37.0451 52.9026 36.8704 52.8364 36.6957 52.7661C36.6626 52.7527 36.6285 52.7372 36.5954 52.7248C36.5561 52.7103 36.7081 52.7764 36.6088 52.7299C36.5561 52.7061 36.5034 52.6844 36.4527 52.6586C35.9885 52.427 35.6524 52.0796 35.3081 51.6536C34.9969 51.269 34.664 50.7789 34.3156 50.3623C33.9527 49.927 33.5226 49.5237 33.0139 49.2653C32.4163 48.9623 31.7453 48.83 31.0763 48.8589C29.7126 48.9189 28.4698 49.5217 27.3491 50.2589C26.2676 50.9692 25.2203 51.8304 23.9754 52.2419C21.9717 52.9046 19.6351 52.3215 18.1462 50.8017C17.6075 50.2516 17.1743 49.5506 16.7236 48.892C16.1601 48.0711 15.609 47.2388 15.0972 46.3848C14.8842 46.0291 14.6764 45.6683 14.4945 45.2951C14.4614 45.2258 14.4293 45.1544 14.3962 45.0841C14.3518 44.989 14.4324 45.1834 14.3983 45.0893C14.3859 45.0541 14.3714 45.02 14.359 44.9849C14.2566 44.6975 14.1719 44.4028 14.0757 44.1133C13.7128 43.0142 13.3199 41.9245 12.9684 40.8203C12.6655 39.867 12.4039 38.8993 12.256 37.9088C12.2467 37.8509 12.2395 37.7919 12.2312 37.734C12.2415 37.8126 12.2229 37.6689 12.2209 37.6482C12.2054 37.5179 12.1919 37.3897 12.1795 37.2595C12.1547 36.9896 12.1382 36.7198 12.1288 36.4499C12.1092 35.8647 12.1226 35.2785 12.1599 34.6933C12.2033 34.0378 12.2757 33.3833 12.3708 32.733C12.4142 32.4342 12.2974 32.1323 11.981 32.0444C11.7184 31.972 11.3379 32.1344 11.311 32.4352V32.4383L11.309 32.4425Z" fill="#CECECE"/>
<path d="M21.3388 43.198C22.5909 43.6984 24.0467 44.144 25.3473 43.5629C25.6627 43.4223 25.9377 43.2083 26.1827 42.9664C26.2964 42.8537 26.405 42.7358 26.5198 42.6241C26.5715 42.5735 26.6263 42.5269 26.679 42.4783C26.7824 42.3832 26.5828 42.5362 26.7017 42.4608C26.7379 42.437 26.772 42.4122 26.8093 42.3915C26.8361 42.376 26.892 42.3336 26.923 42.3315C26.8227 42.3357 26.8599 42.3563 26.9168 42.3367C26.984 42.3129 27.0533 42.2953 27.1236 42.2819C27.137 42.2798 27.1835 42.2654 27.2011 42.2685L27.1308 42.2788C27.1567 42.2767 27.1836 42.2747 27.2094 42.2716C27.289 42.2664 27.3686 42.2654 27.4482 42.2664C27.747 42.2716 28.0448 42.316 28.3426 42.3367C28.6651 42.3605 29.0053 42.3543 29.3165 42.2581C29.6959 42.1423 30.0092 41.9128 30.2398 41.5912C30.613 41.0743 30.642 40.3733 30.5758 39.7633C30.5375 39.4138 30.4745 39.0685 30.4228 38.7201C30.4166 38.6735 30.4093 38.6249 30.4031 38.5784C30.4 38.5546 30.3897 38.4688 30.4031 38.5836C30.3918 38.4874 30.3794 38.3923 30.3701 38.2962C30.3514 38.1204 30.337 37.9446 30.3277 37.7678C30.3091 37.4194 30.3111 37.0699 30.3463 36.7226C30.3483 36.7008 30.3649 36.5437 30.3483 36.6843C30.3535 36.6388 30.3618 36.5912 30.369 36.5458C30.3825 36.4682 30.397 36.3927 30.4135 36.3162C30.4507 36.1498 30.4972 35.9854 30.5551 35.8241C30.5706 35.7807 30.5872 35.7362 30.6058 35.6928C30.5562 35.8179 30.6337 35.6338 30.6451 35.6121C30.6864 35.5273 30.7309 35.4436 30.7785 35.3619C30.8736 35.1975 30.978 35.0383 31.0752 34.8739C31.3078 34.481 31.4681 34.0675 31.495 33.6074C31.5446 32.7637 31.1114 31.9407 30.5438 31.3472C30.3411 31.1353 29.9555 31.128 29.7538 31.3472C29.5533 31.5664 29.5367 31.9128 29.7538 32.1382C29.8055 32.1919 29.8552 32.2467 29.9038 32.3026C29.9172 32.3181 30.0061 32.438 29.9286 32.3295C29.9513 32.3594 29.973 32.3894 29.9948 32.4215C30.0888 32.5569 30.1715 32.6996 30.2408 32.8485C30.2553 32.8805 30.3091 32.9581 30.246 32.8588C30.2636 32.8878 30.2729 32.9302 30.2843 32.9632C30.3101 33.0398 30.3339 33.1173 30.3515 33.1959C30.3577 33.2238 30.3638 33.2527 30.369 33.2806L30.3763 33.323C30.3866 33.3871 30.3856 33.3799 30.3742 33.3044C30.4042 33.3685 30.3856 33.4947 30.3835 33.5639C30.3835 33.5929 30.3804 33.6208 30.3783 33.6498C30.3701 33.7935 30.4083 33.5329 30.3752 33.6735C30.3587 33.7459 30.3442 33.8183 30.3204 33.8896C30.3101 33.9196 30.2987 33.9486 30.2894 33.9775C30.2387 34.1223 30.3411 33.8814 30.2718 34.0168C30.2284 34.1005 30.186 34.1843 30.1374 34.266C29.9699 34.5534 29.7797 34.8264 29.6432 35.1314C29.0373 36.4765 29.1707 37.9529 29.4034 39.3683C29.4158 39.4428 29.4282 39.5172 29.4395 39.5917C29.4437 39.6175 29.4478 39.6444 29.4509 39.6702C29.4706 39.8078 29.4375 39.54 29.4509 39.6795C29.4664 39.8264 29.4809 39.9732 29.485 40.12C29.4892 40.2523 29.483 40.3816 29.4737 40.5139C29.4664 40.6256 29.4788 40.4798 29.4788 40.4798C29.4871 40.4891 29.4623 40.578 29.4592 40.5914C29.4447 40.6638 29.4261 40.7362 29.4013 40.8065C29.4034 40.8013 29.3765 40.8748 29.3754 40.8748C29.3703 40.8727 29.4333 40.7538 29.3713 40.8716C29.3568 40.8985 29.3403 40.9233 29.3258 40.9492C29.2721 41.0495 29.3392 40.9368 29.3403 40.9389C29.3465 40.9554 29.2266 41.0598 29.2152 41.0722C29.1294 41.1622 29.3186 41.0133 29.209 41.0795C29.1759 41.1001 29.1438 41.1208 29.1108 41.1405C29.1014 41.1446 28.9898 41.2035 29.0746 41.1601C29.1593 41.1177 29.0487 41.1684 29.0363 41.1715C28.9774 41.1901 28.9153 41.2035 28.8543 41.2159C28.7261 41.2428 28.9857 41.2087 28.8523 41.2159C28.8264 41.217 28.8006 41.2201 28.7747 41.2211C28.6962 41.2252 28.6186 41.2252 28.54 41.2232C27.9311 41.2077 27.3324 41.0629 26.7296 41.218C26.3688 41.3111 26.0607 41.5168 25.7898 41.766C25.6823 41.8642 25.583 41.9707 25.4817 42.0751C25.43 42.1279 25.3794 42.1795 25.3266 42.2292C25.3049 42.2499 25.2842 42.2695 25.2625 42.2881C25.2419 42.3067 25.2191 42.3264 25.1964 42.345C25.1488 42.3843 25.1519 42.3822 25.2088 42.3377C25.1622 42.3956 25.0609 42.4411 24.9989 42.4763C24.9306 42.5156 24.8552 42.5652 24.7787 42.5869C24.7931 42.5828 24.8945 42.5445 24.7983 42.5755C24.7538 42.59 24.7094 42.6066 24.6639 42.62C24.5853 42.6438 24.5078 42.6624 24.4271 42.6779C24.3992 42.6831 24.3548 42.7006 24.3268 42.6955C24.4075 42.6851 24.4158 42.6841 24.3537 42.6924L24.3124 42.6965C24.2297 42.7048 24.1469 42.7089 24.0632 42.7099C23.8936 42.712 23.7241 42.7006 23.5545 42.682C23.4087 42.6665 23.6775 42.7048 23.5307 42.6789C23.4873 42.6707 23.4449 42.6655 23.4015 42.6572C23.3146 42.6417 23.2288 42.6231 23.142 42.6045C22.9683 42.5652 22.7956 42.5187 22.625 42.4659C22.288 42.3636 21.9561 42.2385 21.6273 42.1082C21.3543 41.9996 21.0018 42.2271 20.9408 42.499C20.8674 42.8226 21.039 43.0708 21.3306 43.1876L21.3388 43.198Z" fill="#5E5E5E"/>
<path d="M43.2308 32.0936C43.4293 32.257 43.5854 32.4679 43.6774 32.7078C44.2223 34.1149 44.3185 35.0972 44.4601 36.7907C44.5821 38.2361 44.3764 39.9721 43.1036 40.6648C41.7709 41.3906 40.1456 40.5118 38.9721 39.5471C38.3228 39.0146 37.689 38.4295 37.3034 37.6819C36.5662 36.25 36.9405 34.3589 38.1005 33.2413C39.2606 32.1257 40.9128 30.8519 42.4181 31.4237L43.2298 32.0916L43.2308 32.0936Z" fill="#5E5E5E"/>
<path d="M42.8751 32.4895C42.9558 32.5577 43.0302 32.6322 43.0964 32.7139C43.0271 32.6291 43.1036 32.7314 43.1243 32.7676C43.1356 32.7862 43.147 32.8069 43.1574 32.8255C43.1574 32.8255 43.2204 32.9527 43.1873 32.8814C43.1563 32.8141 43.1956 32.9051 43.2018 32.9217C43.2091 32.9424 43.2184 32.9651 43.2266 32.9868C43.2452 33.0364 43.2638 33.0861 43.2814 33.1367C43.3186 33.2391 43.3538 33.3435 43.389 33.449C43.511 33.8243 43.6092 34.2068 43.6836 34.5935C43.7208 34.7848 43.7519 34.9781 43.7798 35.1715C43.7994 35.3173 43.7715 35.1032 43.7849 35.2087C43.7901 35.2583 43.7974 35.3069 43.8025 35.3555C43.816 35.4641 43.8273 35.5716 43.8387 35.6802C43.8852 36.1247 43.9307 36.5704 43.9555 37.017C43.9762 37.3913 43.9752 37.7676 43.94 38.1419C43.9359 38.1864 43.9307 38.2329 43.9256 38.2774C43.909 38.4231 43.939 38.1988 43.9224 38.3011C43.9059 38.4025 43.8894 38.5038 43.8676 38.603C43.8304 38.7747 43.7849 38.9442 43.726 39.1096C43.7095 39.1562 43.6909 39.2017 43.6733 39.2472C43.635 39.3443 43.7177 39.1541 43.6722 39.2472C43.6299 39.334 43.5885 39.4209 43.5399 39.5046C43.5006 39.5718 43.4582 39.6359 43.4148 39.7C43.3393 39.8127 43.4686 39.64 43.4055 39.7145C43.3755 39.7507 43.3455 39.7869 43.3124 39.822C43.2566 39.884 43.1977 39.9419 43.1346 39.9967C43.117 40.0122 43.0974 40.0267 43.0798 40.0422C43.0478 40.0453 43.0426 40.0733 43.0798 40.0422L43.1077 40.0195C43.0933 40.0309 43.0788 40.0412 43.0633 40.0505C43.0374 40.067 43.0126 40.0857 42.9878 40.1012C42.9082 40.1518 42.8255 40.1953 42.7417 40.2366C42.6445 40.2852 42.8151 40.2118 42.7148 40.248C42.6611 40.2666 42.6073 40.2862 42.5525 40.3018C42.4977 40.3173 42.4429 40.3307 42.3881 40.3421C42.3602 40.3472 42.2847 40.3462 42.264 40.3638C42.3044 40.3297 42.3592 40.3545 42.2878 40.3586C42.2599 40.3596 42.232 40.3628 42.2041 40.3638C42.1483 40.3669 42.0914 40.3679 42.0356 40.3669C42.0066 40.3669 41.7388 40.3545 41.7388 40.3472C41.7388 40.3452 41.8484 40.3648 41.7812 40.3524C41.7605 40.3483 41.7388 40.3452 41.7171 40.341C41.652 40.3297 41.5889 40.3162 41.5248 40.3007C41.3149 40.2501 41.1102 40.1798 40.9107 40.0981C41.012 40.1394 40.8941 40.0888 40.8559 40.0712C40.8062 40.0484 40.7587 40.0257 40.7111 40.0009C40.6077 39.9492 40.5054 39.8934 40.4051 39.8365C40.2097 39.7248 40.0205 39.6028 39.8364 39.4726C39.7485 39.4105 39.6627 39.3475 39.5759 39.2823C39.4901 39.2172 39.6286 39.3247 39.5448 39.2575C39.4921 39.2151 39.4384 39.1727 39.3867 39.1303C39.0372 38.8429 38.696 38.5431 38.392 38.207C38.3197 38.1264 38.2514 38.0416 38.1811 37.9589C38.1398 37.9113 38.1925 37.9744 38.1966 37.9806C38.178 37.9558 38.1594 37.931 38.1408 37.9062C38.1036 37.8555 38.0695 37.8059 38.0343 37.7542C37.9743 37.6632 37.9185 37.5702 37.8658 37.475C37.841 37.4306 37.8182 37.384 37.7955 37.3386C37.7862 37.321 37.7779 37.3024 37.7696 37.2838C37.7614 37.2682 37.7128 37.1618 37.7479 37.2403C37.78 37.3096 37.7272 37.1845 37.7169 37.1587C37.7014 37.1152 37.6859 37.0718 37.6714 37.0263C37.6414 36.9312 37.6145 36.835 37.5918 36.7379C37.5763 36.6675 37.5236 36.5342 37.5391 36.4639C37.5391 36.4639 37.5525 36.5786 37.5453 36.5145C37.5432 36.4876 37.5391 36.4618 37.536 36.4349C37.5308 36.3822 37.5267 36.3284 37.5236 36.2757C37.5122 36.0823 37.5153 35.889 37.5349 35.6946C37.537 35.6719 37.5546 35.5209 37.5432 35.6099C37.5318 35.6915 37.5535 35.5519 37.5577 35.5251C37.5752 35.4258 37.5959 35.3266 37.6218 35.2294C37.6673 35.0464 37.7179 34.8437 37.8048 34.6752C37.7541 34.7724 37.7965 34.6969 37.8213 34.6431C37.841 34.6008 37.8617 34.5584 37.8823 34.517C37.9278 34.4281 37.9774 34.3392 38.0302 34.2544C38.0798 34.1737 38.1305 34.0962 38.1853 34.0197C38.1977 34.0031 38.2091 33.9876 38.2215 33.9701C38.2876 33.8801 38.2132 33.9876 38.208 33.9876C38.2276 33.9876 38.2969 33.8801 38.3104 33.8636C38.4427 33.7106 38.5906 33.573 38.7395 33.4355C38.9007 33.2866 39.0641 33.1398 39.2336 33.0003C39.3164 32.931 39.4012 32.8627 39.4859 32.7966C39.4001 32.8638 39.5097 32.779 39.5397 32.7573C39.5893 32.7201 39.639 32.6839 39.6906 32.6477C39.8716 32.5195 40.0597 32.3975 40.2521 32.2858C40.3441 32.2331 40.4361 32.1845 40.5312 32.1369C40.5777 32.1132 40.6253 32.0914 40.6718 32.0697C40.6894 32.0615 40.7132 32.046 40.7318 32.0429C40.6212 32.0666 40.707 32.0542 40.7411 32.0408C40.9334 31.9643 41.1319 31.9043 41.3356 31.865C41.3635 31.8599 41.5041 31.8412 41.4266 31.8485C41.349 31.8557 41.4907 31.8443 41.5176 31.8412C41.6199 31.834 41.7233 31.834 41.8257 31.8412C41.8536 31.8433 41.8805 31.8464 41.9074 31.8485C41.9735 31.8516 41.8619 31.8412 41.8619 31.8412C41.9063 31.8381 41.9611 31.8578 42.0045 31.8681C42.1079 31.8909 42.2093 31.9219 42.3085 31.9591L42.0614 31.8144C42.3313 32.0367 42.6032 32.26 42.873 32.4823C43.0984 32.6684 43.4448 32.7201 43.6629 32.4823C43.8521 32.2765 43.9038 31.8888 43.6629 31.6913C43.4882 31.5476 43.3145 31.4049 43.1408 31.2612C43.0529 31.1888 42.964 31.1154 42.8761 31.0431C42.6921 30.8931 42.4708 30.8197 42.2392 30.7753C41.1309 30.5664 40.0577 31.0244 39.1644 31.6531C38.7136 31.9705 38.2887 32.3261 37.8865 32.7035C37.5246 33.0426 37.2051 33.4242 36.9673 33.8615C36.4762 34.7651 36.3046 35.8053 36.4731 36.8206C36.653 37.8979 37.3251 38.7912 38.117 39.5098C38.909 40.2283 39.853 40.9335 40.9096 41.2881C41.9663 41.6427 43.1108 41.5187 43.9514 40.7598C44.6679 40.1146 44.9471 39.1407 45.0484 38.2132C45.1497 37.2858 45.0318 36.2778 44.916 35.3286C44.794 34.3195 44.5904 33.3135 44.1799 32.3778C44.0651 32.1163 43.8801 31.8774 43.6629 31.6934C43.4448 31.5083 43.0891 31.4587 42.873 31.6934C42.6818 31.9012 42.6352 32.2827 42.873 32.4843V32.4916L42.8751 32.4895Z" fill="#5E5E5E"/>
<path d="M50.154 31.267C48.9019 31.4438 48.63 32.5325 48.022 33.644C47.413 34.7554 47.3117 36.1688 47.8979 37.2916C48.388 38.2325 49.2927 38.8963 50.0412 39.6086C50.4321 39.9808 50.9573 40.1959 51.496 40.1638C52.6808 40.0925 52.9569 38.949 53.0551 37.9812C53.1854 36.6888 53.4614 35.0274 53.3301 33.7308C53.2422 32.8696 52.9155 32.2027 52.35 31.7302C52.35 31.7302 51.3316 31.1006 50.155 31.266H50.154V31.267Z" fill="#5E5E5E"/>
<path d="M50.006 30.7436C49.5583 30.8108 49.1489 31.0125 48.8108 31.3133C48.5089 31.5811 48.2835 31.9378 48.0954 32.2914C47.9062 32.645 47.7263 33.0327 47.5298 33.3977C47.2899 33.8433 47.1121 34.3292 47.0273 34.8286C46.8505 35.8718 46.9984 36.9585 47.5722 37.8601C48.0923 38.6779 48.8511 39.2765 49.5501 39.93C49.9367 40.2898 50.3731 40.5917 50.9024 40.6909C51.4318 40.7902 51.9436 40.7436 52.4037 40.4903C53.1109 40.1006 53.4231 39.2848 53.543 38.528C53.6154 38.0699 53.6526 37.6068 53.7074 37.1467C53.7664 36.6504 53.8243 36.1531 53.8666 35.6547C53.9452 34.718 53.9277 33.7906 53.7808 32.8621C53.7385 32.5954 53.6588 32.3224 53.5017 32.1001C53.3114 31.8303 53.0685 31.6245 52.8183 31.4136C52.6198 31.2472 52.4192 31.1458 52.1793 31.0455C51.7616 30.8687 51.3346 30.7602 50.8828 30.7137C50.6388 30.6878 50.3958 30.6919 50.1539 30.724C49.8654 30.7623 49.5811 30.9546 49.5956 31.2833C49.608 31.5542 49.8437 31.884 50.1539 31.8427C50.3803 31.8127 50.6098 31.8065 50.8383 31.8282C50.8611 31.8303 50.8828 31.8324 50.9055 31.8355C51.0141 31.8458 50.9055 31.8323 50.888 31.8323C50.9355 31.8323 50.9882 31.8489 51.0358 31.8582C51.1351 31.8768 51.2333 31.9006 51.3315 31.9275C51.4142 31.9513 51.4959 31.9771 51.5776 32.005C51.6148 32.0185 51.651 32.0319 51.6882 32.0453C51.713 32.0546 51.8453 32.1094 51.7492 32.0691C51.653 32.0288 51.7647 32.0774 51.7844 32.0846C51.8102 32.096 51.836 32.1084 51.8619 32.1208C51.9043 32.1415 51.9467 32.1632 51.988 32.186C52.0097 32.1973 52.0314 32.2149 52.0552 32.2232C52.0594 32.2242 52.0635 32.2283 52.0676 32.2304C52.0728 32.2304 51.988 32.1715 51.987 32.1694C52.0035 32.187 52.0263 32.2015 52.0449 32.219C52.1648 32.3183 52.2848 32.4196 52.3975 32.5261C52.4357 32.5623 52.474 32.5995 52.5102 32.6378C52.5277 32.6564 52.5443 32.6771 52.5619 32.6957C52.6415 32.7846 52.506 32.6109 52.5391 32.6657C52.5639 32.706 52.5908 32.7443 52.6125 32.7856C52.626 32.8104 52.6622 32.8942 52.6187 32.7929C52.5763 32.6915 52.6156 32.7856 52.6239 32.8146C52.6621 32.9273 52.6849 33.0451 52.7045 33.163C52.7087 33.1888 52.7242 33.3077 52.7118 33.2085C52.6994 33.1103 52.7149 33.2385 52.718 33.2654C52.7294 33.3605 52.7397 33.4566 52.749 33.5517C52.7945 33.9891 52.8131 34.4233 52.7986 34.8628C52.7686 35.7829 52.6415 36.6948 52.537 37.6078C52.5153 37.7991 52.4915 37.9903 52.474 38.1816C52.4688 38.2447 52.4843 38.1103 52.4833 38.1154C52.4791 38.1372 52.4771 38.1599 52.4729 38.1826C52.4678 38.2219 52.4605 38.2612 52.4543 38.2984C52.4399 38.3822 52.4243 38.4649 52.4047 38.5476C52.3685 38.7068 52.3127 38.8568 52.2651 39.0119C52.2475 39.0687 52.292 38.9519 52.291 38.9539C52.2796 38.9705 52.2734 38.9943 52.2641 39.0129C52.2486 39.048 52.232 39.0811 52.2134 39.1132C52.1752 39.1835 52.1328 39.2496 52.0883 39.3158C52.0366 39.3934 52.1762 39.2176 52.0883 39.3137C52.0635 39.3406 52.0408 39.3675 52.0149 39.3934C51.9922 39.4161 51.9694 39.4357 51.9467 39.4575C51.8826 39.5174 51.9756 39.4326 51.987 39.4295C51.9643 39.4388 51.9426 39.4606 51.9219 39.474C51.866 39.5112 51.7864 39.5319 51.7378 39.5743C51.8092 39.5143 51.8309 39.5391 51.7781 39.5557C51.7616 39.5598 51.7461 39.5671 51.7285 39.5722C51.6768 39.5877 51.6262 39.6012 51.5734 39.6115C51.5559 39.6146 51.5362 39.6157 51.5186 39.6219C51.4607 39.6374 51.5693 39.6125 51.5724 39.6136C51.5352 39.6032 51.4659 39.6219 51.4256 39.6229C51.3729 39.6239 51.3222 39.6229 51.2695 39.6198C51.2519 39.6188 51.1909 39.6198 51.1816 39.6115C51.2033 39.627 51.2788 39.6291 51.1981 39.6115C51.0968 39.5888 50.9996 39.5619 50.9004 39.5298C50.8683 39.5195 50.8083 39.5164 50.9107 39.5371C50.8921 39.534 50.8683 39.5185 50.8507 39.5092C50.797 39.4833 50.7453 39.4554 50.6946 39.4254C50.6501 39.3985 50.6078 39.3696 50.5643 39.3406C50.5437 39.3272 50.4837 39.2755 50.5695 39.3479C50.553 39.3334 50.5344 39.32 50.5178 39.3055C50.4341 39.2341 50.3555 39.1556 50.2738 39.0811C50.1156 38.9353 49.9543 38.7927 49.793 38.6479C49.4705 38.3584 49.1489 38.0627 48.8625 37.735C48.8284 37.6957 48.7943 37.6554 48.7612 37.615C48.7467 37.5985 48.7333 37.5799 48.7188 37.5633C48.665 37.5013 48.7726 37.6357 48.724 37.5716C48.6578 37.4817 48.5937 37.3917 48.5327 37.2976C48.4769 37.2097 48.4241 37.1198 48.3766 37.0267C48.3559 36.9864 48.3352 36.9451 48.3166 36.9037C48.3032 36.8758 48.2918 36.8479 48.2784 36.821C48.298 36.8644 48.3042 36.8851 48.2825 36.8293C48.2049 36.6225 48.1439 36.4126 48.1046 36.1955C48.0995 36.1655 48.0954 36.1355 48.0891 36.1055C48.0757 36.0404 48.0923 36.1365 48.0923 36.1417C48.0809 36.091 48.0798 36.0342 48.0757 35.9825C48.0654 35.8687 48.0612 35.754 48.0623 35.6403C48.0623 35.5338 48.0674 35.4262 48.0767 35.3208C48.0788 35.2908 48.0819 35.2598 48.086 35.2288C48.086 35.2174 48.0953 35.1398 48.086 35.2122C48.0767 35.2836 48.086 35.2081 48.0881 35.1957C48.0933 35.1574 48.1005 35.1192 48.1067 35.083C48.146 34.8648 48.2029 34.6487 48.2763 34.4389C48.2939 34.3882 48.3135 34.3386 48.3321 34.2879C48.3414 34.2662 48.3486 34.2455 48.358 34.2238C48.3156 34.3303 48.3456 34.2527 48.3559 34.231C48.4055 34.1276 48.4541 34.0263 48.5089 33.925C48.604 33.7503 48.6929 33.5724 48.7819 33.3946C48.9432 33.0679 49.1003 32.737 49.305 32.4341C49.3247 32.4051 49.3454 32.3772 49.365 32.3483C49.4198 32.2687 49.2916 32.4341 49.3722 32.3379C49.427 32.2728 49.4839 32.2087 49.5449 32.1508C49.5739 32.1239 49.6028 32.0981 49.6328 32.0722C49.7331 31.9854 49.5604 32.1177 49.64 32.067C49.7134 32.0205 49.7868 31.9761 49.8633 31.9357C49.9843 31.8727 49.7848 31.9595 49.8789 31.9275C49.9202 31.914 49.9616 31.8985 50.0029 31.8861C50.0991 31.8582 50.1973 31.8375 50.2965 31.823C50.5871 31.7796 50.7711 31.3991 50.6863 31.1345C50.584 30.8181 50.31 30.6971 49.9998 30.7436L50.0019 30.7457L50.006 30.7436Z" fill="#5E5E5E"/>
<path d="M47.0197 40.3448C45.7728 42.06 45.4161 44.4122 45.5619 46.5286C45.5722 46.6682 45.5867 46.815 45.6601 46.9349C45.9196 47.3568 46.6175 47.0818 46.8398 46.6393C47.0621 46.1967 47.0538 45.657 47.3216 45.2404C47.3898 45.1349 47.4787 45.0356 47.5976 44.9953C48.1001 44.8216 48.3121 45.7015 48.8094 45.8907C49.1702 46.0272 49.5786 45.7201 49.6841 45.3479C49.7895 44.9757 49.6727 44.5807 49.5321 44.2199C49.0317 42.9451 48.6905 41.7033 47.6256 40.8462L47.0207 40.3438H47.0197V40.3448Z" fill="#5E5E5E"/>
<path d="M46.5371 40.062C45.6355 41.312 45.2044 42.8339 45.04 44.3496C44.9604 45.0847 44.9407 45.8385 45.0059 46.5746C45.0255 46.8093 45.0638 47.0419 45.1951 47.2425C45.3254 47.4431 45.5301 47.6002 45.7658 47.6643C46.1246 47.7615 46.5299 47.6592 46.8307 47.4493C47.1864 47.2012 47.3828 46.862 47.5048 46.4505C47.5565 46.2768 47.5917 46.099 47.6403 45.9232C47.6641 45.8364 47.692 45.7516 47.7209 45.6668C47.7675 45.5324 47.662 45.7599 47.7354 45.6379C47.7613 45.5944 47.784 45.5179 47.8243 45.4869L47.7881 45.5345C47.8057 45.5128 47.8264 45.4931 47.8471 45.4756C47.8657 45.4683 47.6909 45.549 47.7551 45.5314C47.8026 45.5169 47.8636 45.52 47.6982 45.5334C47.7499 45.5293 47.8254 45.5552 47.6465 45.521C47.7447 45.5386 47.6289 45.5562 47.6041 45.4973C47.6041 45.4993 47.6661 45.5366 47.6692 45.5366C47.6248 45.5438 47.5607 45.4404 47.6392 45.5159C47.6661 45.5427 47.693 45.5696 47.7189 45.5975C47.8863 45.7837 48.0166 46.0018 48.21 46.1641C48.5822 46.4795 49.035 46.5653 49.4858 46.3626C49.887 46.1827 50.1775 45.7795 50.2478 45.3484C50.3264 44.8728 50.2034 44.4251 50.0317 43.9857C49.9025 43.6528 49.7805 43.3157 49.6502 42.9828C49.3421 42.198 48.9844 41.435 48.4044 40.8126C48.1076 40.4921 47.7457 40.2264 47.4097 39.9472C47.1854 39.7601 46.8369 39.7104 46.6198 39.9472C46.4306 40.153 46.3799 40.5396 46.6198 40.7382C46.8597 40.9377 47.083 41.1176 47.3115 41.312C47.4283 41.4123 47.539 41.5198 47.6434 41.6346C47.6992 41.6945 47.7685 41.7597 47.8109 41.831C47.7478 41.7255 47.7943 41.8083 47.814 41.8362C47.8429 41.8765 47.8719 41.9168 47.8998 41.9571C48.0838 42.227 48.2379 42.5155 48.3744 42.8122C48.4043 42.8773 48.4322 42.9435 48.4612 43.0086C48.5201 43.143 48.4168 42.898 48.4726 43.0345C48.486 43.0686 48.5005 43.1017 48.5139 43.1348C48.578 43.2919 48.638 43.4491 48.6969 43.6073C48.822 43.9381 48.9627 44.2679 49.0723 44.604C49.0981 44.6846 49.1208 44.7663 49.1395 44.85C49.1436 44.8686 49.1622 45.0299 49.1519 44.9007C49.156 44.9503 49.1601 45 49.1581 45.0496C49.1581 45.0837 49.156 45.1157 49.1539 45.1478C49.1632 45.0144 49.1405 45.1767 49.1384 45.1943C49.125 45.3122 49.1963 45.1013 49.1384 45.2057C49.1343 45.215 49.0764 45.2998 49.0774 45.306L49.1167 45.2543C49.1002 45.275 49.0826 45.2936 49.0629 45.3112C48.9854 45.4052 49.1601 45.2615 49.0557 45.3215C49.0278 45.337 48.9999 45.3525 48.973 45.3691C48.9037 45.4094 49.1012 45.3215 48.9844 45.3587C48.8665 45.3959 49.1126 45.3587 48.9875 45.3587C48.8624 45.3587 49.1167 45.3866 48.9895 45.3587C48.9234 45.3442 48.9699 45.3143 49.033 45.3804C49.0154 45.3629 48.9575 45.3287 48.9327 45.3194C49.0371 45.3598 49.0061 45.3804 48.9523 45.3308C48.9368 45.3174 48.9223 45.3029 48.9079 45.2874C48.8634 45.2429 48.822 45.1943 48.7817 45.1447C48.7042 45.0506 48.6328 44.9534 48.5563 44.8604C48.3527 44.6174 48.0745 44.4179 47.7478 44.4106C47.2929 44.4003 46.9372 44.7187 46.7491 45.1106C46.5898 45.4445 46.5288 45.7992 46.4254 46.1507C46.413 46.1941 46.3986 46.2365 46.3841 46.2789C46.3748 46.3037 46.3117 46.4299 46.3727 46.311C46.3531 46.3492 46.2869 46.4278 46.2838 46.465L46.3282 46.405C46.3138 46.4216 46.2983 46.4381 46.2817 46.4557C46.2662 46.4722 46.2486 46.4867 46.2311 46.5022C46.1473 46.586 46.3376 46.4392 46.2342 46.4991C46.1949 46.5219 46.1556 46.5446 46.1153 46.5674C46.0315 46.6139 46.1463 46.5467 46.1566 46.5508C46.1463 46.5467 46.0749 46.5756 46.0625 46.5787C45.954 46.6149 46.198 46.5787 46.0873 46.5787C46.0636 46.5787 46.0181 46.5715 45.9964 46.5787C46.0015 46.5777 46.1452 46.6035 46.0584 46.5829C45.9529 46.5581 46.1783 46.6501 46.0863 46.5953C45.9943 46.5405 46.1794 46.6914 46.107 46.6098C46.2063 46.7245 46.139 46.6532 46.1153 46.6077C46.1742 46.7173 46.1225 46.5932 46.1163 46.5643C46.1463 46.6966 46.1173 46.5518 46.1163 46.525C46.1111 46.4505 46.106 46.3761 46.1029 46.3027C46.0936 46.1228 46.0884 45.9429 46.0863 45.7619C46.0832 45.4269 46.0925 45.093 46.1173 44.758C46.1318 44.5605 46.1535 44.362 46.1752 44.1635C46.1928 44.0095 46.1566 44.2834 46.1794 44.1304C46.1856 44.0849 46.1928 44.0394 46.199 43.9939C46.2156 43.8875 46.2342 43.783 46.2528 43.6776C46.3231 43.3043 46.4141 42.9332 46.5278 42.5713C46.5867 42.3841 46.6519 42.2001 46.7242 42.0171C46.7356 41.9892 46.747 41.9613 46.7573 41.9334C46.7821 41.8755 46.7801 41.8775 46.7532 41.9427C46.7656 41.9148 46.777 41.8879 46.7894 41.8599C46.8266 41.7783 46.8628 41.6966 46.9031 41.6159C47.0727 41.2675 47.2701 40.9356 47.4976 40.6224C47.6692 40.3846 47.5472 39.9886 47.298 39.8573C47.0085 39.7042 46.717 39.8035 46.534 40.0578V40.0599L46.5371 40.062Z" fill="#5E5E5E"/>
<path d="M25.6298 48.9785C26.8054 49.1336 27.9809 49.2897 29.1565 49.4458C29.7531 49.5254 30.3507 49.604 30.9472 49.6826C31.0868 49.7012 31.2274 49.7198 31.367 49.7384C31.4063 49.7436 31.5738 49.7746 31.4528 49.7498C31.5107 49.7612 31.5686 49.7715 31.6255 49.786C31.6772 49.7994 31.7268 49.8149 31.7775 49.8315C31.7961 49.8387 31.8157 49.8449 31.8344 49.8522C31.9367 49.8883 31.8168 49.8511 31.8126 49.8418C31.8209 49.8625 31.9398 49.9028 31.9626 49.9131C32.0194 49.9421 32.0752 49.9731 32.13 50.0062C32.3358 50.1272 32.5291 50.2668 32.7173 50.4125C32.6294 50.3443 32.7835 50.4663 32.801 50.4797C32.8548 50.5232 32.9096 50.5655 32.9634 50.61C33.075 50.701 33.1826 50.8023 33.2994 50.884C33.2901 50.8768 33.2467 50.7878 33.2891 50.8706C33.3004 50.8933 33.3128 50.914 33.3252 50.9357C33.347 50.975 33.3687 51.0143 33.3904 51.0536C33.4473 51.1538 33.5052 51.2531 33.5651 51.3513C33.6871 51.5509 33.8153 51.7452 33.9508 51.9355C34.6073 52.8567 35.3941 53.6559 36.3009 54.329C36.5087 54.4831 36.6979 54.6257 36.9533 54.6867C37.1652 54.7384 37.3792 54.788 37.5912 54.8366C38.0575 54.9421 38.5248 55.0393 38.9952 55.1292C40.0498 55.3288 41.1117 55.4859 42.1776 55.6038C44.3737 55.8468 46.5883 55.9078 48.7947 55.7847C49.2744 55.7579 49.7521 55.7227 50.2297 55.6793C50.635 55.6421 51.0341 55.5873 51.426 55.4735C52.4506 55.1747 53.3966 54.5761 54.0821 53.7552C54.2217 53.5877 54.3551 53.414 54.476 53.233C54.6404 52.9901 54.5298 52.6024 54.2765 52.468C53.9942 52.318 53.6882 52.4101 53.5124 52.6685C53.4669 52.7368 53.4173 52.804 53.3697 52.8701C53.2891 52.9787 53.4328 52.7926 53.3429 52.9043C53.3046 52.9508 53.2674 52.9973 53.2281 53.0418C53.0782 53.2134 52.9179 53.3757 52.7463 53.5236C52.6956 53.568 52.6439 53.6104 52.5912 53.6539C52.5788 53.6642 52.5074 53.7159 52.5798 53.6632C52.5509 53.6849 52.5229 53.7055 52.494 53.7273C52.3761 53.811 52.2562 53.8896 52.1321 53.963C52.0236 54.0271 51.9119 54.0871 51.7992 54.1429C51.7485 54.1677 51.6979 54.1915 51.6472 54.2142C51.5511 54.2587 51.6338 54.2215 51.6524 54.2142C51.6183 54.2287 51.5831 54.2421 51.5469 54.2566C51.1995 54.3921 50.8377 54.4861 50.4706 54.543C50.4479 54.5461 50.391 54.5616 50.4727 54.543C50.5647 54.5203 50.4748 54.5409 50.4479 54.543C50.3972 54.5472 50.3466 54.5534 50.2959 54.5575C50.1791 54.5689 50.0612 54.5792 49.9433 54.5885C49.7014 54.6092 49.4584 54.6278 49.2165 54.6433C47.0566 54.787 44.8854 54.7539 42.7308 54.5451C42.4588 54.5192 42.189 54.4903 41.9191 54.4582C41.7909 54.4438 41.6638 54.4282 41.5345 54.4117C41.4756 54.4034 41.4156 54.3962 41.3567 54.3879C41.2461 54.3735 41.3319 54.3848 41.3546 54.3879C41.3133 54.3828 41.2709 54.3766 41.2295 54.3714C40.7208 54.3011 40.2142 54.2204 39.7086 54.1294C39.2423 54.0467 38.7781 53.9547 38.316 53.8555C38.0968 53.8089 37.8786 53.7593 37.6604 53.7087C37.5581 53.6849 37.4547 53.6601 37.3534 53.6363C37.2996 53.6228 37.2458 53.6073 37.1921 53.597C37.1621 53.5918 37.1352 53.566 37.1828 53.5991C37.2521 53.6487 37.1652 53.5794 37.1497 53.568C37.0659 53.5101 36.9832 53.4502 36.9005 53.3912C36.855 53.3581 36.8085 53.322 36.763 53.2878C36.7123 53.2506 36.7847 53.3044 36.7889 53.3085C36.7527 53.2806 36.7175 53.2527 36.6813 53.2237C36.4849 53.0656 36.2936 52.8991 36.1096 52.7264C35.9049 52.5352 35.7095 52.3346 35.5233 52.1268C35.4324 52.0265 35.3455 51.9241 35.2597 51.8207C35.2204 51.7732 35.1822 51.7266 35.1449 51.678C35.1243 51.6512 35.1025 51.6243 35.0808 51.5974C35.1284 51.6594 35.085 51.6015 35.0622 51.5705C34.7882 51.2066 34.5401 50.823 34.3209 50.4249C34.2537 50.304 34.1999 50.1913 34.0934 50.0972C33.9859 50.0031 33.8691 49.9131 33.7574 49.8232C33.5269 49.6361 33.2963 49.452 33.0564 49.2794C32.6811 49.0105 32.2531 48.7645 31.793 48.6818C31.2005 48.5753 30.5957 48.5205 29.9992 48.4419C28.8329 48.2878 27.6666 48.1328 26.5004 47.9787C26.2109 47.9404 25.9214 47.9012 25.6329 47.8639C25.3434 47.8257 25.0622 48.1493 25.0746 48.4233C25.0891 48.7593 25.3217 48.9413 25.6329 48.9826H25.6319L25.6298 48.9785Z" fill="#5E5E5E"/>
<path d="M38.0019 51.7381C38.0081 51.7785 38.0122 51.8219 38.0215 51.8622C38.0164 51.8415 38.006 51.734 38.0153 51.8116C38.0174 51.8343 38.0205 51.857 38.0236 51.8798C38.0339 51.9822 38.0412 52.0845 38.0474 52.1879C38.0588 52.404 38.0608 52.6211 38.0577 52.8382C38.0515 53.257 38.0267 53.6767 37.9843 54.0924C37.9554 54.3839 38.2624 54.6641 38.5426 54.6517C38.8704 54.6372 39.0699 54.4056 39.101 54.0924C39.1878 53.2187 39.2364 52.3099 39.0813 51.4404C39.0296 51.1519 38.6636 50.9627 38.3948 51.0496C38.0856 51.1498 37.9492 51.429 38.005 51.7381H38.004H38.0019Z" fill="#5E5E5E"/>
<path d="M41.0627 51.4834C40.9603 52.109 40.8952 52.7448 40.8424 53.3765C40.8156 53.7032 40.7928 54.03 40.7856 54.3567C40.7804 54.6162 40.7783 54.8881 40.8393 55.1414C40.9045 55.4185 41.1805 55.6056 41.4586 55.5457C41.7978 55.4733 41.9922 55.1673 41.9156 54.8395C41.9115 54.8219 41.9094 54.8023 41.9043 54.7837C41.8867 54.7051 41.9218 54.9657 41.9136 54.8478C41.9105 54.7992 41.9063 54.7516 41.9043 54.703C41.9001 54.5821 41.9001 54.4611 41.9043 54.3401C41.9115 54.0176 41.9343 53.696 41.9601 53.3745C41.9859 53.0529 42.0201 52.719 42.0573 52.3922C42.0728 52.2537 42.0935 52.1152 42.109 51.9756C42.0842 52.1927 42.1079 51.987 42.1152 51.9342C42.1235 51.8815 42.1307 51.8308 42.14 51.7781C42.1865 51.4907 42.0656 51.1619 41.7502 51.0895C41.4814 51.0285 41.1133 51.1712 41.0637 51.4803L41.0627 51.4834Z" fill="#5E5E5E"/>
<path d="M43.7071 51.944C43.7164 51.9874 43.6916 51.7476 43.6957 51.8644C43.6967 51.9006 43.6988 51.9357 43.6998 51.9709C43.7019 52.0629 43.6998 52.1549 43.6998 52.2459C43.6957 52.5075 43.6843 52.7701 43.673 53.0306C43.6492 53.5921 43.6192 54.1555 43.6068 54.717C43.6026 54.932 43.5954 55.1502 43.6368 55.3611C43.6936 55.6485 44.0514 55.8398 44.3233 55.7519C44.6283 55.6537 44.7741 55.3714 44.7131 55.0633C44.7038 55.0199 44.7286 55.2608 44.7244 55.1429C44.7234 55.1067 44.7213 55.0716 44.7203 55.0364C44.7182 54.9444 44.7203 54.8534 44.7203 54.7614C44.7244 54.4998 44.7358 54.2372 44.7472 53.9767C44.771 53.4153 44.801 52.8518 44.8134 52.2904C44.8175 52.0753 44.8247 51.8572 44.7834 51.6462C44.7265 51.3588 44.3688 51.1675 44.0969 51.2554C43.7918 51.3536 43.6461 51.6359 43.7071 51.944Z" fill="#5E5E5E"/>
<path d="M47.0727 51.7848C47.0552 51.9244 47.0645 52.0712 47.0696 52.2108C47.0779 52.4507 47.0913 52.6895 47.1058 52.9294C47.1358 53.4453 47.173 53.9623 47.1927 54.4782C47.1989 54.6457 47.2144 54.8214 47.1927 54.9879C47.1555 55.2784 47.476 55.5597 47.751 55.5472C48.0849 55.5328 48.269 55.3001 48.3093 54.9879C48.3269 54.8483 48.3165 54.7015 48.3124 54.5619C48.3041 54.3221 48.2917 54.0832 48.2762 53.8434C48.2462 53.3274 48.209 52.8105 48.1894 52.2946C48.1832 52.1271 48.1677 51.9513 48.1894 51.7848C48.2266 51.4943 47.9061 51.2131 47.6311 51.2255C47.2971 51.24 47.1131 51.4726 47.0727 51.7848Z" fill="#5E5E5E"/>
<path d="M49.8926 51.5968C49.8057 51.845 49.8026 52.1324 49.7964 52.395C49.7902 52.7352 49.8037 53.0753 49.8244 53.4144C49.8616 54.0286 49.9164 54.6427 50.0043 55.2517C50.0467 55.5422 50.4282 55.7273 50.6908 55.6425C51.0082 55.5391 51.126 55.2652 51.0806 54.9539C51.0775 54.9333 51.0754 54.9136 51.0712 54.894C51.1043 55.1152 51.0857 55.0036 51.0795 54.9529C51.0733 54.9022 51.0671 54.8537 51.062 54.804C51.0464 54.6717 51.033 54.5404 51.0195 54.408C50.9875 54.0772 50.9606 53.7443 50.94 53.4124C50.9203 53.0805 50.9069 52.762 50.911 52.4364C50.9131 52.3051 50.9193 52.1748 50.9296 52.0435C50.9337 51.9918 50.9606 51.8967 50.9203 52.0952C50.9255 52.0693 50.9275 52.0435 50.9327 52.0176C50.941 51.9752 50.9513 51.9339 50.9648 51.8925C51.062 51.6165 50.8552 51.268 50.575 51.2039C50.2638 51.1326 49.9918 51.2991 49.8885 51.5948L49.8916 51.5968H49.8926Z" fill="#5E5E5E"/>
</g>
</svg>
