<svg width="70" height="70" viewBox="0 0 70 70" fill="none" xmlns="http://www.w3.org/2000/svg">
<rect width="70" height="70" fill="#FDFDFD"/>
<path d="M34.5 64.9731C50.7924 64.9731 64 51.7715 64 35.4866C64 19.2016 50.7924 6 34.5 6C18.2076 6 5 19.2016 5 35.4866C5 51.7715 18.2076 64.9731 34.5 64.9731Z" fill="#E72787"/>
<path d="M23.551 49.1364C22.9004 47.5317 22.7693 46.0162 23.1575 44.5846C23.5457 43.153 24.2435 41.7687 25.2403 40.4262C26.3 39.1362 27.5854 37.9668 29.1015 36.9233L25.0514 34.2541C23.9287 33.5252 22.9581 32.7491 22.1449 31.9363C21.3265 31.1182 20.6812 30.1219 20.2038 28.9525C19.6634 27.6258 19.5428 26.2781 19.8261 24.9042C20.1146 23.5303 20.8386 22.2298 22.0138 20.9975C23.1837 19.7704 24.7733 18.7478 26.7774 17.935C28.4143 17.2691 30.1928 17.1432 32.1182 17.547C32.9418 17.7148 33.7288 17.9717 34.479 18.3126C34.6784 17.3005 34.9617 16.4458 35.3289 15.7588C35.7224 15.1348 35.9427 14.7887 35.99 14.7362L37.1441 14.2695L40.7116 23.0583L38.8597 23.8082C37.8944 22.5864 36.7821 21.4747 35.5125 20.4783C34.2849 19.5764 33.0625 18.9314 31.8454 18.5486C30.6282 18.1605 29.4006 18.2182 28.1677 18.7216C27.2129 19.1097 26.5466 19.8176 26.1741 20.8507C25.8016 21.8785 25.8751 23.0269 26.3892 24.2907C26.8037 25.308 27.4909 26.2152 28.4615 27.007C29.4321 27.7988 30.539 28.5907 31.7929 29.372L44.7251 37.5945C44.788 36.96 44.8195 36.2835 44.8195 35.5651C44.7985 33.9185 44.4942 32.3768 43.9066 30.9242L39.6414 31.0396L39.3581 30.3474L47.9201 26.8759L48.2034 27.5681L45.0661 30.4575C45.6904 31.9992 46.0261 33.8031 46.0734 35.864C46.0524 36.8761 46.0261 37.7361 45.9842 38.4335L54.2156 43.7141L56.8126 43.4677L57.0959 44.1599L50.6167 46.7871C49.3523 47.301 48.1824 47.5422 47.1121 47.5107C46.0419 47.4793 45.1238 47.1856 44.3578 46.635C44.085 47.4635 43.7178 48.2029 43.2666 48.8584C42.1858 50.4473 40.7221 51.6167 38.8702 52.3666C30.8486 55.6178 25.7439 54.5481 23.5562 49.1521L23.551 49.1364ZM42.4114 47.946C42.8311 47.2014 43.1197 46.5459 43.2823 45.9795L30.1665 37.563C29.9619 38.1136 29.8623 38.7639 29.878 39.5085C29.8255 41.1499 30.3344 43.2946 31.4099 45.9428C32.3123 48.161 33.4927 49.6765 34.9512 50.4841C36.4097 51.2916 37.8629 51.4017 39.3161 50.8144C40.5805 50.3005 41.6087 49.3461 42.4062 47.946H42.4114Z" fill="white"/>
</svg>
