<svg width="47" height="47" viewBox="0 0 47 47" fill="none" xmlns="http://www.w3.org/2000/svg">
<path d="M23.5 11V23.5L28.5 16M1 23.5C1 26.4547 1.58198 29.3806 2.71271 32.1104C3.84344 34.8402 5.50078 37.3206 7.5901 39.4099C9.67942 41.4992 12.1598 43.1566 14.8896 44.2873C17.6194 45.418 20.5453 46 23.5 46C26.4547 46 29.3806 45.418 32.1104 44.2873C34.8402 43.1566 37.3206 41.4992 39.4099 39.4099C41.4992 37.3206 43.1566 34.8402 44.2873 32.1104C45.418 29.3806 46 26.4547 46 23.5C46 20.5453 45.418 17.6194 44.2873 14.8896C43.1566 12.1598 41.4992 9.67942 39.4099 7.5901C37.3206 5.50078 34.8402 3.84344 32.1104 2.71271C29.3806 1.58198 26.4547 1 23.5 1C20.5453 1 17.6194 1.58198 14.8896 2.71271C12.1598 3.84344 9.67942 5.50078 7.5901 7.5901C5.50078 9.67942 3.84344 12.1598 2.71271 14.8896C1.58198 17.6194 1 20.5453 1 23.5Z" stroke="#1D1D1D" stroke-linecap="round" stroke-linejoin="round"/>
</svg>
