<svg width="45" height="46" viewBox="0 0 45 46" fill="none" xmlns="http://www.w3.org/2000/svg">
<path d="M22.499 31.1699C22.6441 31.1699 22.7617 29.9415 22.7617 28.4262C22.7617 26.911 22.6441 25.6826 22.499 25.6826C22.3539 25.6826 22.2363 26.911 22.2363 28.4262C22.2363 29.9415 22.3539 31.1699 22.499 31.1699Z" fill="url(#paint0_linear_1108_28969)"/>
<path d="M22.499 25.0051C22.6441 25.0051 22.7617 23.7767 22.7617 22.2615C22.7617 20.7462 22.6441 19.5178 22.499 19.5178C22.3539 19.5178 22.2363 20.7462 22.2363 22.2615C22.2363 23.7767 22.3539 25.0051 22.499 25.0051Z" fill="url(#paint1_linear_1108_28969)"/>
<path d="M22.499 37.5607C22.6441 37.5607 22.7617 36.3324 22.7617 34.8171C22.7617 33.3018 22.6441 32.0735 22.499 32.0735C22.3539 32.0735 22.2363 33.3018 22.2363 34.8171C22.2363 36.3324 22.3539 37.5607 22.499 37.5607Z" fill="url(#paint2_linear_1108_28969)"/>
<path d="M22.499 44.1906C22.6441 44.1906 22.7617 42.9623 22.7617 41.447C22.7617 39.9317 22.6441 38.7034 22.499 38.7034C22.3539 38.7034 22.2363 39.9317 22.2363 41.447C22.2363 42.9623 22.3539 44.1906 22.499 44.1906Z" fill="url(#paint3_linear_1108_28969)"/>
<path d="M22.499 5.48725C22.6441 5.48725 22.7617 4.25889 22.7617 2.74363C22.7617 1.22836 22.6441 0 22.499 0C22.3539 0 22.2363 1.22836 22.2363 2.74363C22.2363 4.25889 22.3539 5.48725 22.499 5.48725Z" fill="url(#paint4_linear_1108_28969)"/>
<path d="M22.499 11.8781C22.6441 11.8781 22.7617 10.6498 22.7617 9.1345C22.7617 7.61923 22.6441 6.39087 22.499 6.39087C22.3539 6.39087 22.2363 7.61923 22.2363 9.1345C22.2363 10.6498 22.3539 11.8781 22.499 11.8781Z" fill="url(#paint5_linear_1108_28969)"/>
<path d="M22.499 18.5146C22.6441 18.5146 22.7617 17.2862 22.7617 15.771C22.7617 14.2557 22.6441 13.0273 22.499 13.0273C22.3539 13.0273 22.2363 14.2557 22.2363 15.771C22.2363 17.2862 22.3539 18.5146 22.499 18.5146Z" fill="url(#paint6_linear_1108_28969)"/>
<path d="M13.6735 35.4242C13.7761 35.3049 13.1126 34.3396 12.1916 33.2681C11.2705 32.1967 10.4407 31.4248 10.3381 31.5442C10.2355 31.6635 10.899 32.6288 11.8201 33.7003C12.7411 34.7717 13.5709 35.5436 13.6735 35.4242Z" fill="url(#paint7_linear_1108_28969)"/>
<path d="M9.92352 31.0663C10.0261 30.947 9.36261 29.9817 8.44156 28.9102C7.5205 27.8388 6.69068 27.0669 6.58809 27.1863C6.48551 27.3056 7.149 28.2709 8.07006 29.3424C8.99111 30.4138 9.82093 31.1857 9.92352 31.0663Z" fill="url(#paint8_linear_1108_28969)"/>
<path d="M17.5563 39.9418C17.6589 39.8225 16.9954 38.8572 16.0744 37.7857C15.1533 36.7143 14.3235 35.9424 14.2209 36.0618C14.1183 36.1811 14.7818 37.1464 15.7029 38.2179C16.6239 39.2893 17.4537 40.0612 17.5563 39.9418Z" fill="url(#paint9_linear_1108_28969)"/>
<path d="M21.5876 44.6271C21.6902 44.5078 21.0267 43.5425 20.1056 42.471C19.1846 41.3996 18.3547 40.6277 18.2522 40.7471C18.1496 40.8664 18.8131 41.8317 19.7341 42.9032C20.6552 43.9746 21.485 44.7465 21.5876 44.6271Z" fill="url(#paint10_linear_1108_28969)"/>
<path d="M31.4425 45.9974C32.7451 45.9974 33.801 45.8606 33.801 45.6918C33.801 45.523 32.7451 45.3862 31.4425 45.3862C30.1399 45.3862 29.084 45.523 29.084 45.6918C29.084 45.8606 30.1399 45.9974 31.4425 45.9974Z" fill="url(#paint11_linear_1108_28969)"/>
<path d="M26.1437 45.9974C27.4462 45.9974 28.5022 45.8606 28.5022 45.6918C28.5022 45.523 27.4462 45.3862 26.1437 45.3862C24.8411 45.3862 23.7852 45.523 23.7852 45.6918C23.7852 45.8606 24.8411 45.9974 26.1437 45.9974Z" fill="url(#paint12_linear_1108_28969)"/>
<path d="M36.9366 45.9974C38.2392 45.9974 39.2951 45.8606 39.2951 45.6918C39.2951 45.523 38.2392 45.3862 36.9366 45.3862C35.6341 45.3862 34.5781 45.523 34.5781 45.6918C34.5781 45.8606 35.6341 45.9974 36.9366 45.9974Z" fill="url(#paint13_linear_1108_28969)"/>
<path d="M42.6417 45.9974C43.9443 45.9974 45.0002 45.8606 45.0002 45.6918C45.0002 45.523 43.9443 45.3862 42.6417 45.3862C41.3391 45.3862 40.2832 45.523 40.2832 45.6918C40.2832 45.8606 41.3391 45.9974 42.6417 45.9974Z" fill="url(#paint14_linear_1108_28969)"/>
<path d="M7.65733 45.9974C8.9599 45.9974 10.0158 45.8606 10.0158 45.6918C10.0158 45.523 8.9599 45.3862 7.65733 45.3862C6.35477 45.3862 5.29883 45.523 5.29883 45.6918C5.29883 45.8606 6.35477 45.9974 7.65733 45.9974Z" fill="url(#paint15_linear_1108_28969)"/>
<path d="M2.3585 45.9974C3.66107 45.9974 4.717 45.8606 4.717 45.6918C4.717 45.523 3.66107 45.3862 2.3585 45.3862C1.05594 45.3862 0 45.523 0 45.6918C0 45.8606 1.05594 45.9974 2.3585 45.9974Z" fill="url(#paint16_linear_1108_28969)"/>
<path d="M13.1515 45.9974C14.454 45.9974 15.51 45.8606 15.51 45.6918C15.51 45.523 14.454 45.3862 13.1515 45.3862C11.8489 45.3862 10.793 45.523 10.793 45.6918C10.793 45.8606 11.8489 45.9974 13.1515 45.9974Z" fill="url(#paint17_linear_1108_28969)"/>
<path d="M18.8565 45.9974C20.1591 45.9974 21.2151 45.8606 21.2151 45.6918C21.2151 45.523 20.1591 45.3862 18.8565 45.3862C17.554 45.3862 16.498 45.523 16.498 45.6918C16.498 45.8606 17.554 45.9974 18.8565 45.9974Z" fill="url(#paint18_linear_1108_28969)"/>
<path d="M29.008 38.548C29.929 37.4766 30.5925 36.5113 30.4899 36.3919C30.3873 36.2726 29.5575 37.0444 28.6365 38.1159C27.7154 39.1873 27.0519 40.1527 27.1545 40.272C27.2571 40.3913 28.0869 39.6195 29.008 38.548Z" fill="url(#paint19_linear_1108_28969)"/>
<path d="M25.2619 42.9108C26.1829 41.8394 26.8464 40.874 26.7438 40.7547C26.6412 40.6354 25.8114 41.4072 24.8904 42.4787C23.9693 43.5501 23.3058 44.5154 23.4084 44.6348C23.511 44.7541 24.3408 43.9823 25.2619 42.9108Z" fill="url(#paint20_linear_1108_28969)"/>
<path d="M32.8947 34.0285C33.8157 32.9571 34.4792 31.9917 34.3766 31.8724C34.2741 31.753 33.4442 32.5249 32.5232 33.5963C31.6021 34.6678 30.9386 35.6331 31.0412 35.7525C31.1438 35.8718 31.9736 35.1 32.8947 34.0285Z" fill="url(#paint21_linear_1108_28969)"/>
<path d="M36.9279 29.342C37.8489 28.2705 38.5124 27.3052 38.4098 27.1859C38.3073 27.0665 37.4774 27.8384 36.5564 28.9098C35.6353 29.9813 34.9718 30.9466 35.0744 31.0659C35.177 31.1853 36.0068 30.4134 36.9279 29.342Z" fill="url(#paint22_linear_1108_28969)"/>
<path d="M20.8835 41.1501C20.968 41.1094 20.7772 40.3482 20.4574 39.4499C20.1376 38.5517 19.8098 37.8565 19.7253 37.8972C19.6408 37.9379 19.8315 38.6991 20.1514 39.5974C20.4712 40.4956 20.799 41.1908 20.8835 41.1501Z" fill="#2D2E83"/>
<path d="M22.1804 44.8029C22.2649 44.7622 22.0741 44.001 21.7543 43.1028C21.4344 42.2045 21.1066 41.5093 21.0221 41.5501C20.9376 41.5908 21.1284 42.352 21.4483 43.2502C21.7681 44.1485 22.0959 44.8436 22.1804 44.8029Z" fill="#2D2E83"/>
<path d="M19.532 37.3552C19.6165 37.3145 19.4257 36.5533 19.1058 35.655C18.786 34.7568 18.4582 34.0616 18.3737 34.1023C18.2892 34.143 18.48 34.9042 18.7998 35.8025C19.1197 36.7007 19.4475 37.3959 19.532 37.3552Z" fill="#2D2E83"/>
<path d="M18.1335 33.4213C18.218 33.3806 18.0272 32.6194 17.7074 31.7212C17.3876 30.8229 17.0598 30.1277 16.9753 30.1685C16.8908 30.2092 17.0815 30.9704 17.4014 31.8686C17.7212 32.7669 18.049 33.462 18.1335 33.4213Z" fill="#2D2E83"/>
<path d="M18.596 43.8083C18.631 43.71 18.0334 43.3287 17.2612 42.9566C16.489 42.5846 15.8347 42.3626 15.7997 42.4609C15.7647 42.5592 16.3623 42.9405 17.1345 43.3126C17.9066 43.6847 18.561 43.9066 18.596 43.8083Z" fill="#2D2E83"/>
<path d="M21.7385 45.3178C21.7735 45.2195 21.176 44.8382 20.4038 44.4662C19.6316 44.0941 18.9773 43.8722 18.9423 43.9704C18.9073 44.0687 19.5049 44.4501 20.277 44.8221C21.0492 45.1942 21.7035 45.4161 21.7385 45.3178Z" fill="#2D2E83"/>
<path d="M15.3382 42.236C15.3732 42.1377 14.7756 41.7564 14.0034 41.3844C13.2312 41.0123 12.5769 40.7904 12.5419 40.8887C12.5069 40.987 13.1045 41.3683 13.8766 41.7403C14.6488 42.1124 15.3032 42.3343 15.3382 42.236Z" fill="#2D2E83"/>
<path d="M11.9514 40.6067C11.9864 40.5084 11.3888 40.127 10.6167 39.755C9.84451 39.3829 9.19017 39.161 9.15517 39.2593C9.12017 39.3576 9.71776 39.7389 10.4899 40.1109C11.2621 40.483 11.9164 40.7049 11.9514 40.6067Z" fill="#2D2E83"/>
<path d="M29.9057 42.1177C29.94 42.2173 30.5967 41.9981 31.3676 41.6261C32.1386 41.254 32.7382 40.8754 32.7039 40.7757C32.6697 40.6761 32.0129 40.8953 31.242 41.2673C30.471 41.6394 29.8714 42.018 29.9057 42.1177Z" fill="#2D2E83"/>
<path d="M34.5073 40.1093C35.2795 39.7372 35.8771 39.3559 35.8421 39.2576C35.8071 39.1593 35.1527 39.3812 34.3806 39.7533C33.6084 40.1254 33.0108 40.5067 33.0458 40.605C33.0808 40.7033 33.7351 40.4814 34.5073 40.1093Z" fill="#2D2E83"/>
<path d="M28.105 43.196C28.8771 42.8239 29.4747 42.4426 29.4397 42.3443C29.4047 42.246 28.7504 42.4679 27.9782 42.84C27.206 43.212 26.6085 43.5934 26.6435 43.6917C26.6785 43.79 27.3328 43.568 28.105 43.196Z" fill="#2D2E83"/>
<path d="M24.7261 44.829C25.4982 44.4569 26.0958 44.0756 26.0608 43.9773C26.0258 43.879 25.3715 44.101 24.5993 44.473C23.8271 44.8451 23.2295 45.2264 23.2645 45.3247C23.2995 45.423 23.9539 45.2011 24.7261 44.829Z" fill="#2D2E83"/>
<path d="M25.5656 37.0756C25.6512 37.1155 25.9768 36.4246 26.2965 35.5211C26.6163 34.6177 26.8048 33.8603 26.7191 33.8205C26.6335 33.7806 26.308 34.4715 25.9882 35.375C25.6684 36.2718 25.4799 37.0358 25.5656 37.0756Z" fill="#2D2E83"/>
<path d="M27.6058 31.8653C27.9257 30.967 28.1165 30.2058 28.032 30.1651C27.9475 30.1244 27.6197 30.8196 27.2998 31.7178C26.98 32.6161 26.7892 33.3772 26.8737 33.418C26.9582 33.4587 27.286 32.7635 27.6058 31.8653Z" fill="#2D2E83"/>
<path d="M24.9496 39.3162C25.2694 38.4179 25.4602 37.6567 25.3757 37.616C25.2912 37.5753 24.9634 38.2705 24.6436 39.1687C24.3237 40.067 24.133 40.8282 24.2175 40.8689C24.302 40.9096 24.6297 40.2144 24.9496 39.3162Z" fill="#2D2E83"/>
<path d="M23.5511 43.2483C23.871 42.3501 24.0618 41.5889 23.9773 41.5482C23.8928 41.5074 23.565 42.2026 23.2451 43.1009C22.9253 43.9991 22.7345 44.7603 22.819 44.801C22.9035 44.8417 23.2313 44.1466 23.5511 43.2483Z" fill="#2D2E83"/>
<defs>
<linearGradient id="paint0_linear_1108_28969" x1="22.2363" y1="28.4262" x2="22.7617" y2="28.4262" gradientUnits="userSpaceOnUse">
<stop stop-color="#008B92"/>
<stop offset="0.5" stop-color="#1D71B8"/>
<stop offset="0.97" stop-color="#2D2E83"/>
</linearGradient>
<linearGradient id="paint1_linear_1108_28969" x1="-17.8067" y1="22.2615" x2="-17.2357" y2="22.2615" gradientUnits="userSpaceOnUse">
<stop stop-color="#008B92"/>
<stop offset="0.5" stop-color="#1D71B8"/>
<stop offset="0.97" stop-color="#2D2E83"/>
</linearGradient>
<linearGradient id="paint2_linear_1108_28969" x1="-17.8067" y1="34.8171" x2="-17.2357" y2="34.8171" gradientUnits="userSpaceOnUse">
<stop stop-color="#008B92"/>
<stop offset="0.5" stop-color="#1D71B8"/>
<stop offset="0.97" stop-color="#2D2E83"/>
</linearGradient>
<linearGradient id="paint3_linear_1108_28969" x1="-17.8067" y1="41.447" x2="-17.2357" y2="41.447" gradientUnits="userSpaceOnUse">
<stop stop-color="#008B92"/>
<stop offset="0.5" stop-color="#1D71B8"/>
<stop offset="0.97" stop-color="#2D2E83"/>
</linearGradient>
<linearGradient id="paint4_linear_1108_28969" x1="-17.8067" y1="2.74363" x2="-17.2357" y2="2.74363" gradientUnits="userSpaceOnUse">
<stop stop-color="#008B92"/>
<stop offset="0.5" stop-color="#1D71B8"/>
<stop offset="0.97" stop-color="#2D2E83"/>
</linearGradient>
<linearGradient id="paint5_linear_1108_28969" x1="-17.8067" y1="9.1345" x2="-17.2357" y2="9.1345" gradientUnits="userSpaceOnUse">
<stop stop-color="#008B92"/>
<stop offset="0.5" stop-color="#1D71B8"/>
<stop offset="0.97" stop-color="#2D2E83"/>
</linearGradient>
<linearGradient id="paint6_linear_1108_28969" x1="-17.8067" y1="15.771" x2="-17.2357" y2="15.771" gradientUnits="userSpaceOnUse">
<stop stop-color="#008B92"/>
<stop offset="0.5" stop-color="#1D71B8"/>
<stop offset="0.97" stop-color="#2D2E83"/>
</linearGradient>
<linearGradient id="paint7_linear_1108_28969" x1="10.3293" y1="33.4842" x2="13.6815" y2="33.4842" gradientUnits="userSpaceOnUse">
<stop stop-color="#008B92"/>
<stop offset="0.5" stop-color="#1D71B8"/>
<stop offset="0.97" stop-color="#2D2E83"/>
</linearGradient>
<linearGradient id="paint8_linear_1108_28969" x1="6.58045" y1="29.1275" x2="9.9326" y2="29.1275" gradientUnits="userSpaceOnUse">
<stop stop-color="#008B92"/>
<stop offset="0.5" stop-color="#1D71B8"/>
<stop offset="0.97" stop-color="#2D2E83"/>
</linearGradient>
<linearGradient id="paint9_linear_1108_28969" x1="14.2148" y1="37.9955" x2="17.567" y2="37.9955" gradientUnits="userSpaceOnUse">
<stop stop-color="#008B92"/>
<stop offset="0.5" stop-color="#1D71B8"/>
<stop offset="0.97" stop-color="#2D2E83"/>
</linearGradient>
<linearGradient id="paint10_linear_1108_28969" x1="18.2438" y1="42.6875" x2="21.596" y2="42.6875" gradientUnits="userSpaceOnUse">
<stop stop-color="#008B92"/>
<stop offset="0.5" stop-color="#1D71B8"/>
<stop offset="0.97" stop-color="#2D2E83"/>
</linearGradient>
<linearGradient id="paint11_linear_1108_28969" x1="29.0897" y1="45.6918" x2="33.801" y2="45.6918" gradientUnits="userSpaceOnUse">
<stop stop-color="#008B92"/>
<stop offset="0.5" stop-color="#1D71B8"/>
<stop offset="0.97" stop-color="#2D2E83"/>
</linearGradient>
<linearGradient id="paint12_linear_1108_28969" x1="23.7909" y1="45.6918" x2="28.5022" y2="45.6918" gradientUnits="userSpaceOnUse">
<stop stop-color="#008B92"/>
<stop offset="0.5" stop-color="#1D71B8"/>
<stop offset="0.97" stop-color="#2D2E83"/>
</linearGradient>
<linearGradient id="paint13_linear_1108_28969" x1="34.5838" y1="45.6918" x2="39.2951" y2="45.6918" gradientUnits="userSpaceOnUse">
<stop stop-color="#008B92"/>
<stop offset="0.5" stop-color="#1D71B8"/>
<stop offset="0.97" stop-color="#2D2E83"/>
</linearGradient>
<linearGradient id="paint14_linear_1108_28969" x1="40.2832" y1="45.6918" x2="45.0002" y2="45.6918" gradientUnits="userSpaceOnUse">
<stop stop-color="#008B92"/>
<stop offset="0.5" stop-color="#1D71B8"/>
<stop offset="0.97" stop-color="#2D2E83"/>
</linearGradient>
<linearGradient id="paint15_linear_1108_28969" x1="5.29883" y1="45.6918" x2="10.0158" y2="45.6918" gradientUnits="userSpaceOnUse">
<stop stop-color="#008B92"/>
<stop offset="0.5" stop-color="#1D71B8"/>
<stop offset="0.97" stop-color="#2D2E83"/>
</linearGradient>
<linearGradient id="paint16_linear_1108_28969" x1="0.00571066" y1="45.6918" x2="4.717" y2="45.6918" gradientUnits="userSpaceOnUse">
<stop stop-color="#008B92"/>
<stop offset="0.5" stop-color="#1D71B8"/>
<stop offset="0.97" stop-color="#2D2E83"/>
</linearGradient>
<linearGradient id="paint17_linear_1108_28969" x1="10.793" y1="45.6918" x2="15.51" y2="45.6918" gradientUnits="userSpaceOnUse">
<stop stop-color="#008B92"/>
<stop offset="0.5" stop-color="#1D71B8"/>
<stop offset="0.97" stop-color="#2D2E83"/>
</linearGradient>
<linearGradient id="paint18_linear_1108_28969" x1="16.498" y1="45.6918" x2="21.2093" y2="45.6918" gradientUnits="userSpaceOnUse">
<stop stop-color="#008B92"/>
<stop offset="0.5" stop-color="#1D71B8"/>
<stop offset="0.97" stop-color="#2D2E83"/>
</linearGradient>
<linearGradient id="paint19_linear_1108_28969" x1="27.1532" y1="38.329" x2="30.5054" y2="38.329" gradientUnits="userSpaceOnUse">
<stop stop-color="#008B92"/>
<stop offset="0.5" stop-color="#1D71B8"/>
<stop offset="0.97" stop-color="#2D2E83"/>
</linearGradient>
<linearGradient id="paint20_linear_1108_28969" x1="23.4042" y1="42.6952" x2="26.7564" y2="42.6952" gradientUnits="userSpaceOnUse">
<stop stop-color="#008B92"/>
<stop offset="0.5" stop-color="#1D71B8"/>
<stop offset="0.97" stop-color="#2D2E83"/>
</linearGradient>
<linearGradient id="paint21_linear_1108_28969" x1="31.0305" y1="33.811" x2="34.3827" y2="33.811" gradientUnits="userSpaceOnUse">
<stop stop-color="#008B92"/>
<stop offset="0.5" stop-color="#1D71B8"/>
<stop offset="0.97" stop-color="#2D2E83"/>
</linearGradient>
<linearGradient id="paint22_linear_1108_28969" x1="35.0615" y1="29.1271" x2="38.4193" y2="29.1272" gradientUnits="userSpaceOnUse">
<stop stop-color="#008B92"/>
<stop offset="0.5" stop-color="#1D71B8"/>
<stop offset="0.97" stop-color="#2D2E83"/>
</linearGradient>
</defs>
</svg>
