<svg width="71" height="65" viewBox="0 0 71 65" fill="none" xmlns="http://www.w3.org/2000/svg">
<rect x="0.445312" y="0.634766" width="70" height="64.3725" fill="#2D2E82"/>
<path d="M0.768627 13V5.09412H3.82118C3.89804 5.09412 3.98405 5.09778 4.07922 5.1051C4.17804 5.10876 4.27686 5.11974 4.37569 5.13804C4.78928 5.20026 5.13882 5.34484 5.42431 5.57176C5.71346 5.79503 5.93124 6.07686 6.07765 6.41726C6.22771 6.75765 6.30274 7.13464 6.30274 7.54824C6.30274 8.14484 6.14536 8.66275 5.83059 9.10196C5.51582 9.54118 5.06562 9.81752 4.48 9.93098L4.2 9.99686H1.57569V13H0.768627ZM5.55608 13L3.99686 9.78275L4.77098 9.48627L6.48392 13H5.55608ZM1.57569 9.22824H3.79922C3.8651 9.22824 3.94196 9.22458 4.0298 9.21726C4.11765 9.20993 4.20366 9.19712 4.28784 9.17882C4.55869 9.12026 4.78013 9.00863 4.95216 8.84392C5.12784 8.67922 5.25778 8.4834 5.34196 8.25647C5.4298 8.02954 5.47373 7.79346 5.47373 7.54824C5.47373 7.30301 5.4298 7.06693 5.34196 6.84C5.25778 6.60941 5.12784 6.41176 4.95216 6.24706C4.78013 6.08235 4.55869 5.97072 4.28784 5.91216C4.20366 5.89386 4.11765 5.88288 4.0298 5.87922C3.94196 5.8719 3.8651 5.86824 3.79922 5.86824H1.57569V9.22824ZM10.2047 13.1647C9.62643 13.1647 9.12499 13.0366 8.70042 12.7804C8.2795 12.5242 7.95192 12.1637 7.71767 11.6988C7.48342 11.234 7.3663 10.6886 7.3663 10.0627C7.3663 9.4149 7.48159 8.8549 7.71218 8.38275C7.94277 7.91059 8.26669 7.54641 8.68395 7.2902C9.10486 7.03399 9.60081 6.90588 10.1718 6.90588C10.7574 6.90588 11.257 7.04131 11.6706 7.31216C12.0842 7.57935 12.3971 7.96366 12.6094 8.4651C12.8217 8.96654 12.9187 9.56497 12.9004 10.2604H12.0769V9.9749C12.0622 9.20627 11.8957 8.62614 11.5773 8.23451C11.2625 7.84288 10.8013 7.64706 10.1937 7.64706C9.55689 7.64706 9.06826 7.85386 8.72787 8.26745C8.39114 8.68105 8.22277 9.27033 8.22277 10.0353C8.22277 10.782 8.39114 11.3621 8.72787 11.7757C9.06826 12.1856 9.54957 12.3906 10.1718 12.3906C10.5964 12.3906 10.966 12.2936 11.2808 12.0996C11.5992 11.902 11.85 11.6183 12.033 11.2486L12.7851 11.5396C12.5509 12.0557 12.205 12.4565 11.7475 12.742C11.2936 13.0238 10.7794 13.1647 10.2047 13.1647ZM7.93728 10.2604V9.5851H12.4667V10.2604H7.93728ZM18.2403 13V9.9749C18.2403 9.64549 18.2092 9.34353 18.147 9.06902C18.0848 8.79085 17.9841 8.54928 17.845 8.34431C17.7096 8.13569 17.5321 7.97464 17.3125 7.86118C17.0965 7.74771 16.833 7.69098 16.5219 7.69098C16.2364 7.69098 15.9838 7.74039 15.7642 7.83922C15.5483 7.93804 15.3653 8.08078 15.2152 8.26745C15.0688 8.45046 14.9572 8.67373 14.8803 8.93726C14.8035 9.20078 14.765 9.50092 14.765 9.83765L14.194 9.71137C14.194 9.10379 14.3002 8.5932 14.5125 8.17961C14.7248 7.76601 15.0176 7.45307 15.3909 7.24078C15.7642 7.0285 16.1925 6.92235 16.6756 6.92235C17.0306 6.92235 17.3399 6.97726 17.6035 7.08706C17.8706 7.19686 18.0957 7.3451 18.2787 7.53176C18.4654 7.71843 18.6155 7.93255 18.7289 8.17412C18.8424 8.41203 18.9248 8.66641 18.976 8.93726C19.0272 9.20444 19.0529 9.47163 19.0529 9.73882V13H18.2403ZM13.9525 13V7.07059H14.6827V8.53098H14.765V13H13.9525ZM22.905 13.1647C22.3084 13.1647 21.8033 13.0311 21.3897 12.7639C20.9761 12.4967 20.6614 12.1289 20.4454 11.6604C20.2331 11.1882 20.1233 10.6465 20.116 10.0353C20.1233 9.41307 20.2368 8.86771 20.4564 8.39922C20.676 7.92706 20.9926 7.56105 21.4062 7.30118C21.8198 7.03765 22.3212 6.90588 22.9105 6.90588C23.5108 6.90588 24.0323 7.05229 24.4752 7.3451C24.9217 7.63791 25.2274 8.03869 25.3921 8.54745L24.6015 8.8C24.4624 8.44497 24.241 8.17046 23.9372 7.97647C23.637 7.77882 23.293 7.68 22.905 7.68C22.4695 7.68 22.1089 7.78065 21.8234 7.98196C21.538 8.17961 21.3257 8.45595 21.1866 8.81098C21.0475 9.16601 20.9761 9.57412 20.9725 10.0353C20.9798 10.7454 21.1445 11.3163 21.4666 11.7482C21.7887 12.1765 22.2681 12.3906 22.905 12.3906C23.3076 12.3906 23.6498 12.2991 23.9317 12.1161C24.2172 11.9294 24.4331 11.6586 24.5795 11.3035L25.3921 11.5451C25.1725 12.0722 24.8504 12.4748 24.4258 12.7529C24.0012 13.0275 23.4943 13.1647 22.905 13.1647ZM28.8406 13.1647C28.2513 13.1647 27.7481 13.0311 27.3308 12.7639C26.9135 12.4967 26.5933 12.1271 26.37 11.6549C26.1467 11.1827 26.0351 10.641 26.0351 10.0298C26.0351 9.40758 26.1486 8.86222 26.3755 8.39373C26.6024 7.92523 26.9245 7.56105 27.3418 7.30118C27.7627 7.03765 28.2623 6.90588 28.8406 6.90588C29.4335 6.90588 29.9386 7.03948 30.3559 7.30667C30.7768 7.5702 31.0971 7.93804 31.3167 8.4102C31.5399 8.87869 31.6516 9.41856 31.6516 10.0298C31.6516 10.652 31.5399 11.1992 31.3167 11.6714C31.0934 12.1399 30.7713 12.5059 30.3504 12.7694C29.9295 13.0329 29.4262 13.1647 28.8406 13.1647ZM28.8406 12.3906C29.4994 12.3906 29.9899 12.1728 30.312 11.7373C30.6341 11.298 30.7951 10.7289 30.7951 10.0298C30.7951 9.31242 30.6322 8.74144 30.3065 8.31686C29.9844 7.89229 29.4958 7.68 28.8406 7.68C28.3977 7.68 28.0317 7.78065 27.7426 7.98196C27.4571 8.17961 27.243 8.45595 27.1002 8.81098C26.9611 9.16235 26.8916 9.56863 26.8916 10.0298C26.8916 10.7435 27.0563 11.3163 27.3857 11.7482C27.7151 12.1765 28.2001 12.3906 28.8406 12.3906ZM37.145 13V9.9749C37.145 9.64549 37.1139 9.34353 37.0517 9.06902C36.9895 8.79085 36.8888 8.54928 36.7497 8.34431C36.6143 8.13569 36.4368 7.97464 36.2172 7.86118C36.0012 7.74771 35.7377 7.69098 35.4266 7.69098C35.1411 7.69098 34.8886 7.74039 34.669 7.83922C34.453 7.93804 34.27 8.08078 34.1199 8.26745C33.9735 8.45046 33.8619 8.67373 33.785 8.93726C33.7082 9.20078 33.6697 9.50092 33.6697 9.83765L33.0988 9.71137C33.0988 9.10379 33.2049 8.5932 33.4172 8.17961C33.6295 7.76601 33.9223 7.45307 34.2956 7.24078C34.669 7.0285 35.0972 6.92235 35.5803 6.92235C35.9354 6.92235 36.2446 6.97726 36.5082 7.08706C36.7754 7.19686 37.0005 7.3451 37.1835 7.53176C37.3701 7.71843 37.5202 7.93255 37.6337 8.17412C37.7471 8.41203 37.8295 8.66641 37.8807 8.93726C37.932 9.20444 37.9576 9.47163 37.9576 9.73882V13H37.145ZM32.8572 13V7.07059H33.5874V8.53098H33.6697V13H32.8572ZM42.6105 13C42.2775 13.0695 41.948 13.097 41.6223 13.0824C41.3002 13.0677 41.011 12.9982 40.7548 12.8737C40.5023 12.7493 40.3101 12.5553 40.1784 12.2918C40.0722 12.0722 40.0137 11.8507 40.0027 11.6275C39.9954 11.4005 39.9917 11.1425 39.9917 10.8533V5.42353H40.7933V10.8204C40.7933 11.0693 40.7951 11.2779 40.7988 11.4463C40.8061 11.611 40.8445 11.7574 40.9141 11.8855C41.0458 12.1307 41.2544 12.2771 41.5399 12.3247C41.8291 12.3723 42.186 12.3613 42.6105 12.2918V13ZM38.7235 7.76235V7.07059H42.6105V7.76235H38.7235ZM43.7787 13V7.07059H44.5034V8.49804L44.3607 8.31137C44.4266 8.13569 44.5126 7.97464 44.6187 7.82824C44.7249 7.67817 44.8402 7.55556 44.9646 7.46039C45.1183 7.32497 45.2977 7.22248 45.5027 7.15294C45.7076 7.07974 45.9144 7.03765 46.1231 7.02667C46.3317 7.01203 46.522 7.02667 46.694 7.07059V7.82824C46.4781 7.77333 46.242 7.76052 45.9858 7.7898C45.7296 7.81909 45.4935 7.92157 45.2776 8.09725C45.0799 8.25098 44.9317 8.43582 44.8329 8.65176C44.734 8.86405 44.6681 9.09098 44.6352 9.33255C44.6023 9.57046 44.5858 9.80654 44.5858 10.0408V13H43.7787ZM50.1373 13.1647C49.559 13.1647 49.0576 13.0366 48.633 12.7804C48.2121 12.5242 47.8845 12.1637 47.6503 11.6988C47.416 11.234 47.2989 10.6886 47.2989 10.0627C47.2989 9.4149 47.4142 8.8549 47.6448 8.38275C47.8754 7.91059 48.1993 7.54641 48.6165 7.2902C49.0375 7.03399 49.5334 6.90588 50.1044 6.90588C50.69 6.90588 51.1896 7.04131 51.6032 7.31216C52.0168 7.57935 52.3297 7.96366 52.542 8.4651C52.7543 8.96654 52.8513 9.56497 52.833 10.2604H52.0095V9.9749C51.9948 9.20627 51.8283 8.62614 51.5099 8.23451C51.1951 7.84288 50.7339 7.64706 50.1263 7.64706C49.4895 7.64706 49.0009 7.85386 48.6605 8.26745C48.3237 8.68105 48.1554 9.27033 48.1554 10.0353C48.1554 10.782 48.3237 11.3621 48.6605 11.7757C49.0009 12.1856 49.4822 12.3906 50.1044 12.3906C50.529 12.3906 50.8986 12.2936 51.2134 12.0996C51.5318 11.902 51.7826 11.6183 51.9656 11.2486L52.7177 11.5396C52.4835 12.0557 52.1376 12.4565 51.6801 12.742C51.2262 13.0238 50.712 13.1647 50.1373 13.1647ZM47.8699 10.2604V9.5851H52.3993V10.2604H47.8699ZM56.264 13.1592C55.5685 13.1592 54.9957 13.0092 54.5455 12.709C54.099 12.4089 53.8245 11.9916 53.722 11.4573L54.5455 11.32C54.6334 11.6567 54.8328 11.9258 55.144 12.1271C55.4587 12.3247 55.8467 12.4235 56.3079 12.4235C56.7581 12.4235 57.1131 12.3302 57.373 12.1435C57.6328 11.9532 57.7628 11.6952 57.7628 11.3694C57.7628 11.1864 57.7207 11.0382 57.6365 10.9247C57.556 10.8076 57.3894 10.6996 57.1369 10.6008C56.8843 10.502 56.5074 10.3848 56.0059 10.2494C55.4679 10.103 55.047 9.9566 54.7432 9.8102C54.4394 9.66379 54.2234 9.49542 54.0953 9.3051C53.9672 9.11111 53.9032 8.87503 53.9032 8.59686C53.9032 8.26013 53.9983 7.96549 54.1887 7.71294C54.379 7.45673 54.6425 7.25909 54.9793 7.12C55.316 6.97726 55.7076 6.90588 56.1542 6.90588C56.6007 6.90588 56.9996 6.97909 57.351 7.12549C57.706 7.26824 57.9915 7.46954 58.2075 7.72941C58.4234 7.98928 58.5515 8.29124 58.5918 8.63529L57.7683 8.78353C57.7134 8.43582 57.5395 8.16131 57.2467 7.96C56.9576 7.75503 56.5897 7.64889 56.1432 7.64157C55.7223 7.63059 55.38 7.71111 55.1165 7.88314C54.853 8.0515 54.7212 8.2766 54.7212 8.55843C54.7212 8.71582 54.7688 8.85124 54.864 8.96471C54.9591 9.07451 55.1311 9.17882 55.38 9.27765C55.6326 9.37647 55.9913 9.48444 56.4561 9.60157C57.0015 9.74065 57.4297 9.88706 57.7408 10.0408C58.0519 10.1945 58.2734 10.3757 58.4051 10.5843C58.5369 10.7929 58.6028 11.051 58.6028 11.3584C58.6028 11.9184 58.3942 12.3595 57.9769 12.6816C57.5633 13 56.9923 13.1592 56.264 13.1592ZM3.06902 28.1647C2.51634 28.1647 2.04418 28.0275 1.65255 27.7529C1.26092 27.4748 0.960784 27.0996 0.752157 26.6275C0.543529 26.1553 0.439216 25.6227 0.439216 25.0298C0.439216 24.4405 0.541699 23.9098 0.746667 23.4376C0.955294 22.9655 1.25359 22.5922 1.64157 22.3176C2.02954 22.0431 2.49438 21.9059 3.03608 21.9059C3.59242 21.9059 4.06091 22.0413 4.44157 22.3122C4.82222 22.583 5.10954 22.9545 5.30353 23.4267C5.50118 23.8952 5.6 24.4295 5.6 25.0298C5.6 25.6191 5.50301 26.1516 5.30902 26.6275C5.11503 27.0996 4.82954 27.4748 4.45255 27.7529C4.07556 28.0275 3.61438 28.1647 3.06902 28.1647ZM3.15137 27.4125C3.57229 27.4125 3.92 27.3101 4.19451 27.1051C4.46902 26.9001 4.67399 26.6183 4.80941 26.2596C4.94484 25.8973 5.01255 25.4873 5.01255 25.0298C5.01255 24.565 4.94484 24.155 4.80941 23.8C4.67399 23.4413 4.46902 23.1613 4.19451 22.96C3.92366 22.7587 3.58144 22.658 3.16784 22.658C2.74327 22.658 2.3919 22.7624 2.11373 22.971C1.83556 23.1796 1.62876 23.4633 1.49333 23.822C1.36157 24.1807 1.29569 24.5833 1.29569 25.0298C1.29569 25.48 1.3634 25.8863 1.49882 26.2486C1.63791 26.6073 1.84471 26.891 2.11922 27.0996C2.39373 27.3082 2.73778 27.4125 3.15137 27.4125ZM5.01255 28V23.5365H4.92471V20.0941H5.73725V28H5.01255ZM9.54496 28.1482C9.18993 28.1482 8.87882 28.0933 8.61163 27.9835C8.3481 27.8737 8.123 27.7255 7.93634 27.5388C7.75333 27.3522 7.60509 27.1399 7.49163 26.902C7.37817 26.6604 7.29581 26.406 7.24457 26.1388C7.19333 25.868 7.16771 25.599 7.16771 25.3318V22.0706H7.98026V25.0957C7.98026 25.4214 8.01137 25.7234 8.07359 26.0016C8.13581 26.2797 8.23464 26.5231 8.37006 26.7318C8.50915 26.9367 8.68666 27.0959 8.90261 27.2094C9.12222 27.3229 9.38758 27.3796 9.69869 27.3796C9.98418 27.3796 10.2349 27.3302 10.4508 27.2314C10.6705 27.1325 10.8535 26.9916 10.9999 26.8086C11.1499 26.622 11.2634 26.3969 11.3403 26.1333C11.4171 25.8661 11.4556 25.566 11.4556 25.2329L12.0265 25.3592C12.0265 25.9668 11.9204 26.4774 11.7081 26.891C11.4958 27.3046 11.203 27.6175 10.8297 27.8298C10.4563 28.0421 10.0281 28.1482 9.54496 28.1482ZM11.5379 28V26.5396H11.4556V22.0706H12.2626V28H11.5379ZM20.2777 28V24.9749C20.2777 24.6455 20.2466 24.3435 20.1844 24.069C20.1221 23.7908 20.0215 23.5493 19.8824 23.3443C19.747 23.1357 19.5695 22.9746 19.3499 22.8612C19.1339 22.7477 18.8704 22.691 18.5593 22.691C18.2738 22.691 18.0212 22.7404 17.8016 22.8392C17.5857 22.938 17.4027 23.0808 17.2526 23.2675C17.1062 23.4505 16.9946 23.6737 16.9177 23.9373C16.8408 24.2008 16.8024 24.5009 16.8024 24.8376L16.2314 24.7114C16.2314 24.1038 16.3376 23.5932 16.5499 23.1796C16.7621 22.766 17.055 22.4531 17.4283 22.2408C17.8016 22.0285 18.2299 21.9224 18.713 21.9224C19.068 21.9224 19.3773 21.9773 19.6408 22.0871C19.908 22.1969 20.1331 22.3451 20.3161 22.5318C20.5028 22.7184 20.6529 22.9325 20.7663 23.1741C20.8798 23.412 20.9621 23.6664 21.0134 23.9373C21.0646 24.2044 21.0902 24.4716 21.0902 24.7388V28H20.2777ZM15.9899 28V22.0706H16.72V23.531H16.8024V28H15.9899ZM24.7824 28.1482C24.4274 28.1482 24.1163 28.0933 23.8491 27.9835C23.5855 27.8737 23.3604 27.7255 23.1738 27.5388C22.9908 27.3522 22.8425 27.1399 22.7291 26.902C22.6156 26.6604 22.5333 26.406 22.482 26.1388C22.4308 25.868 22.4051 25.599 22.4051 25.3318V22.0706H23.2177V25.0957C23.2177 25.4214 23.2488 25.7234 23.311 26.0016C23.3733 26.2797 23.4721 26.5231 23.6075 26.7318C23.7466 26.9367 23.9241 27.0959 24.14 27.2094C24.3597 27.3229 24.625 27.3796 24.9361 27.3796C25.2216 27.3796 25.4723 27.3302 25.6883 27.2314C25.9079 27.1325 26.0909 26.9916 26.2373 26.8086C26.3874 26.622 26.5008 26.3969 26.5777 26.1333C26.6546 25.8661 26.693 25.566 26.693 25.2329L27.264 25.3592C27.264 25.9668 27.1578 26.4774 26.9455 26.891C26.7333 27.3046 26.4404 27.6175 26.0671 27.8298C25.6938 28.0421 25.2655 28.1482 24.7824 28.1482ZM26.7753 28V26.5396H26.693V22.0706H27.5V28H26.7753ZM36.1059 28L36.1114 24.1075C36.1114 23.6499 35.9833 23.2912 35.7271 23.0314C35.4746 22.7678 35.1525 22.6361 34.7608 22.6361C34.5376 22.6361 34.3198 22.6873 34.1075 22.7898C33.8952 22.8923 33.7195 23.057 33.5804 23.2839C33.445 23.5108 33.3773 23.8073 33.3773 24.1733L32.8997 24.0361C32.8887 23.6115 32.971 23.24 33.1467 22.9216C33.3261 22.6031 33.5713 22.3561 33.8824 22.1804C34.1972 22.001 34.5522 21.9114 34.9475 21.9114C35.5441 21.9114 36.0217 22.0962 36.3804 22.4659C36.7391 22.8319 36.9185 23.3278 36.9185 23.9537L36.913 28H36.1059ZM29.0291 28V22.0706H29.7538V23.531H29.8416V28H29.0291ZM32.5757 28L32.5812 24.1624C32.5812 23.6902 32.4549 23.3187 32.2024 23.0478C31.9535 22.7733 31.6241 22.6361 31.2142 22.6361C30.8042 22.6361 30.473 22.777 30.2204 23.0588C29.9679 23.337 29.8416 23.7085 29.8416 24.1733L29.3585 23.9098C29.3585 23.5292 29.4482 23.1888 29.6275 22.8886C29.8068 22.5848 30.0521 22.3469 30.3632 22.1749C30.6743 21.9992 31.0275 21.9114 31.4228 21.9114C31.7998 21.9114 32.1347 21.9919 32.4275 22.1529C32.724 22.314 32.9564 22.5482 33.1248 22.8557C33.2931 23.1631 33.3773 23.5365 33.3773 23.9757L33.3718 28H32.5757ZM41.2849 21.1373H40.5931L41.2465 19.4353H41.9382L41.2849 21.1373ZM40.8512 28.1647C40.2729 28.1647 39.7714 28.0366 39.3469 27.7804C38.9259 27.5242 38.5984 27.1637 38.3641 26.6988C38.1299 26.234 38.0127 25.6886 38.0127 25.0627C38.0127 24.4149 38.128 23.8549 38.3586 23.3827C38.5892 22.9106 38.9131 22.5464 39.3304 22.2902C39.7513 22.034 40.2473 21.9059 40.8182 21.9059C41.4039 21.9059 41.9035 22.0413 42.3171 22.3122C42.7307 22.5793 43.0436 22.9637 43.2559 23.4651C43.4682 23.9665 43.5652 24.565 43.5469 25.2604H42.7233V24.9749C42.7087 24.2063 42.5422 23.6261 42.2237 23.2345C41.909 22.8429 41.4478 22.6471 40.8402 22.6471C40.2033 22.6471 39.7147 22.8539 39.3743 23.2675C39.0376 23.681 38.8692 24.2703 38.8692 25.0353C38.8692 25.782 39.0376 26.3621 39.3743 26.7757C39.7147 27.1856 40.196 27.3906 40.8182 27.3906C41.2428 27.3906 41.6125 27.2936 41.9273 27.0996C42.2457 26.902 42.4964 26.6183 42.6794 26.2486L43.4316 26.5396C43.1973 27.0557 42.8514 27.4565 42.3939 27.742C41.9401 28.0238 41.4258 28.1647 40.8512 28.1647ZM38.5837 25.2604V24.5851H43.1131V25.2604H38.5837ZM44.7653 28V22.0706H45.49V23.498L45.3472 23.3114C45.4131 23.1357 45.4991 22.9746 45.6053 22.8282C45.7114 22.6782 45.8267 22.5556 45.9511 22.4604C46.1049 22.325 46.2842 22.2225 46.4892 22.1529C46.6941 22.0797 46.9009 22.0376 47.1096 22.0267C47.3182 22.012 47.5085 22.0267 47.6805 22.0706V22.8282C47.4646 22.7733 47.2285 22.7605 46.9723 22.7898C46.7161 22.8191 46.48 22.9216 46.2641 23.0973C46.0664 23.251 45.9182 23.4358 45.8194 23.6518C45.7205 23.8641 45.6547 24.091 45.6217 24.3325C45.5888 24.5705 45.5723 24.8065 45.5723 25.0408V28H44.7653ZM48.8319 20.9451V20.0392H49.6389V20.9451H48.8319ZM48.8319 28V22.0706H49.6389V28H48.8319ZM53.5853 28.1647C53.0326 28.1647 52.5604 28.0275 52.1688 27.7529C51.7772 27.4748 51.477 27.0996 51.2684 26.6275C51.0598 26.1553 50.9555 25.6227 50.9555 25.0298C50.9555 24.4405 51.0579 23.9098 51.2629 23.4376C51.4715 22.9655 51.7698 22.5922 52.1578 22.3176C52.5458 22.0431 53.0106 21.9059 53.5523 21.9059C54.1087 21.9059 54.5772 22.0413 54.9578 22.3122C55.3385 22.583 55.6258 22.9545 55.8198 23.4267C56.0174 23.8952 56.1162 24.4295 56.1162 25.0298C56.1162 25.6191 56.0192 26.1516 55.8253 26.6275C55.6313 27.0996 55.3458 27.4748 54.9688 27.7529C54.5918 28.0275 54.1306 28.1647 53.5853 28.1647ZM53.6676 27.4125C54.0885 27.4125 54.4362 27.3101 54.7107 27.1051C54.9853 26.9001 55.1902 26.6183 55.3256 26.2596C55.4611 25.8973 55.5288 25.4873 55.5288 25.0298C55.5288 24.565 55.4611 24.155 55.3256 23.8C55.1902 23.4413 54.9853 23.1613 54.7107 22.96C54.4399 22.7587 54.0977 22.658 53.6841 22.658C53.2595 22.658 52.9081 22.7624 52.63 22.971C52.3518 23.1796 52.145 23.4633 52.0096 23.822C51.8778 24.1807 51.8119 24.5833 51.8119 25.0298C51.8119 25.48 51.8796 25.8863 52.0151 26.2486C52.1541 26.6073 52.3609 26.891 52.6355 27.0996C52.91 27.3082 53.254 27.4125 53.6676 27.4125ZM55.4409 30.6353V26.5341H55.5288V22.0706H56.2535V30.6353H55.4409ZM60.0612 28.1482C59.7062 28.1482 59.3951 28.0933 59.1279 27.9835C58.8643 27.8737 58.6392 27.7255 58.4526 27.5388C58.2696 27.3522 58.1213 27.1399 58.0079 26.902C57.8944 26.6604 57.812 26.406 57.7608 26.1388C57.7096 25.868 57.6839 25.599 57.6839 25.3318V22.0706H58.4965V25.0957C58.4965 25.4214 58.5276 25.7234 58.5898 26.0016C58.652 26.2797 58.7509 26.5231 58.8863 26.7318C59.0254 26.9367 59.2029 27.0959 59.4188 27.2094C59.6385 27.3229 59.9038 27.3796 60.2149 27.3796C60.5004 27.3796 60.7511 27.3302 60.9671 27.2314C61.1867 27.1325 61.3697 26.9916 61.5161 26.8086C61.6662 26.622 61.7796 26.3969 61.8565 26.1333C61.9334 25.8661 61.9718 25.566 61.9718 25.2329L62.5428 25.3592C62.5428 25.9668 62.4366 26.4774 62.2243 26.891C62.012 27.3046 61.7192 27.6175 61.3459 27.8298C60.9726 28.0421 60.5443 28.1482 60.0612 28.1482ZM62.0541 28V26.5396H61.9718V22.0706H62.7788V28H62.0541ZM66.8224 28.1647C66.2441 28.1647 65.7426 28.0366 65.3181 27.7804C64.8971 27.5242 64.5696 27.1637 64.3353 26.6988C64.1011 26.234 63.9839 25.6886 63.9839 25.0627C63.9839 24.4149 64.0992 23.8549 64.3298 23.3827C64.5604 22.9106 64.8843 22.5464 65.3016 22.2902C65.7225 22.034 66.2185 21.9059 66.7894 21.9059C67.3751 21.9059 67.8747 22.0413 68.2883 22.3122C68.7019 22.5793 69.0148 22.9637 69.2271 23.4651C69.4394 23.9665 69.5364 24.565 69.5181 25.2604H68.6945V24.9749C68.6799 24.2063 68.5134 23.6261 68.1949 23.2345C67.8802 22.8429 67.419 22.6471 66.8114 22.6471C66.1745 22.6471 65.6859 22.8539 65.3455 23.2675C65.0088 23.681 64.8404 24.2703 64.8404 25.0353C64.8404 25.782 65.0088 26.3621 65.3455 26.7757C65.6859 27.1856 66.1672 27.3906 66.7894 27.3906C67.214 27.3906 67.5837 27.2936 67.8985 27.0996C68.2169 26.902 68.4676 26.6183 68.6506 26.2486L69.4028 26.5396C69.1685 27.0557 68.8226 27.4565 68.3651 27.742C67.9113 28.0238 67.397 28.1647 66.8224 28.1647ZM64.5549 25.2604V24.5851H69.0843V25.2604H64.5549Z" fill="white"/>
<g clip-path="url(#clip0_1195_17740)">
<path d="M47.499 50.1699C47.6441 50.1699 47.7617 48.9415 47.7617 47.4262C47.7617 45.911 47.6441 44.6826 47.499 44.6826C47.3539 44.6826 47.2363 45.911 47.2363 47.4262C47.2363 48.9415 47.3539 50.1699 47.499 50.1699Z" fill="#F1F1F1"/>
<path d="M47.499 44.0051C47.6441 44.0051 47.7617 42.7767 47.7617 41.2615C47.7617 39.7462 47.6441 38.5178 47.499 38.5178C47.3539 38.5178 47.2363 39.7462 47.2363 41.2615C47.2363 42.7767 47.3539 44.0051 47.499 44.0051Z" fill="#F1F1F1"/>
<path d="M47.499 56.5607C47.6441 56.5607 47.7617 55.3324 47.7617 53.8171C47.7617 52.3018 47.6441 51.0735 47.499 51.0735C47.3539 51.0735 47.2363 52.3018 47.2363 53.8171C47.2363 55.3324 47.3539 56.5607 47.499 56.5607Z" fill="#F1F1F1"/>
<path d="M47.499 63.1906C47.6441 63.1906 47.7617 61.9623 47.7617 60.447C47.7617 58.9317 47.6441 57.7034 47.499 57.7034C47.3539 57.7034 47.2363 58.9317 47.2363 60.447C47.2363 61.9623 47.3539 63.1906 47.499 63.1906Z" fill="#F1F1F1"/>
<path d="M47.499 37.5146C47.6441 37.5146 47.7617 36.2862 47.7617 34.771C47.7617 33.2557 47.6441 32.0273 47.499 32.0273C47.3539 32.0273 47.2363 33.2557 47.2363 34.771C47.2363 36.2862 47.3539 37.5146 47.499 37.5146Z" fill="#F1F1F1"/>
<path d="M38.674 54.4242C38.7766 54.3049 38.1131 53.3396 37.1921 52.2681C36.271 51.1967 35.4412 50.4248 35.3386 50.5442C35.236 50.6635 35.8995 51.6288 36.8206 52.7003C37.7416 53.7717 38.5714 54.5436 38.674 54.4242Z" fill="#F1F1F1"/>
<path d="M34.924 50.0663C35.0266 49.947 34.3631 48.9817 33.4421 47.9102C32.521 46.8388 31.6912 46.0669 31.5886 46.1863C31.486 46.3056 32.1495 47.2709 33.0706 48.3424C33.9916 49.4138 34.8214 50.1857 34.924 50.0663Z" fill="#F1F1F1"/>
<path d="M42.5568 58.9417C42.6594 58.8224 41.9959 57.8571 41.0749 56.7856C40.1538 55.7142 39.324 54.9423 39.2214 55.0617C39.1188 55.181 39.7823 56.1463 40.7034 57.2178C41.6244 58.2892 42.4542 59.0611 42.5568 58.9417Z" fill="#F1F1F1"/>
<path d="M46.5881 63.627C46.6907 63.5077 46.0272 62.5424 45.1061 61.4709C44.1851 60.3995 43.3552 59.6276 43.2527 59.747C43.1501 59.8663 43.8136 60.8316 44.7346 61.9031C45.6557 62.9745 46.4855 63.7464 46.5881 63.627Z" fill="#F1F1F1"/>
<path d="M56.4425 64.9974C57.7451 64.9974 58.801 64.8606 58.801 64.6918C58.801 64.523 57.7451 64.3862 56.4425 64.3862C55.1399 64.3862 54.084 64.523 54.084 64.6918C54.084 64.8606 55.1399 64.9974 56.4425 64.9974Z" fill="#F1F1F1"/>
<path d="M51.1437 64.9974C52.4462 64.9974 53.5022 64.8606 53.5022 64.6918C53.5022 64.523 52.4462 64.3862 51.1437 64.3862C49.8411 64.3862 48.7852 64.523 48.7852 64.6918C48.7852 64.8606 49.8411 64.9974 51.1437 64.9974Z" fill="#F1F1F1"/>
<path d="M61.9366 64.9974C63.2392 64.9974 64.2951 64.8606 64.2951 64.6918C64.2951 64.523 63.2392 64.3862 61.9366 64.3862C60.6341 64.3862 59.5781 64.523 59.5781 64.6918C59.5781 64.8606 60.6341 64.9974 61.9366 64.9974Z" fill="#F1F1F1"/>
<path d="M67.6417 64.9974C68.9443 64.9974 70.0002 64.8606 70.0002 64.6918C70.0002 64.523 68.9443 64.3862 67.6417 64.3862C66.3391 64.3862 65.2832 64.523 65.2832 64.6918C65.2832 64.8606 66.3391 64.9974 67.6417 64.9974Z" fill="#F1F1F1"/>
<path d="M32.6573 64.9974C33.9599 64.9974 35.0158 64.8606 35.0158 64.6918C35.0158 64.523 33.9599 64.3862 32.6573 64.3862C31.3548 64.3862 30.2988 64.523 30.2988 64.6918C30.2988 64.8606 31.3548 64.9974 32.6573 64.9974Z" fill="#F1F1F1"/>
<path d="M27.3585 64.9974C28.6611 64.9974 29.717 64.8606 29.717 64.6918C29.717 64.523 28.6611 64.3862 27.3585 64.3862C26.0559 64.3862 25 64.523 25 64.6918C25 64.8606 26.0559 64.9974 27.3585 64.9974Z" fill="#F1F1F1"/>
<path d="M38.1515 64.9974C39.454 64.9974 40.51 64.8606 40.51 64.6918C40.51 64.523 39.454 64.3862 38.1515 64.3862C36.8489 64.3862 35.793 64.523 35.793 64.6918C35.793 64.8606 36.8489 64.9974 38.1515 64.9974Z" fill="#F1F1F1"/>
<path d="M43.8565 64.9974C45.1591 64.9974 46.2151 64.8606 46.2151 64.6918C46.2151 64.523 45.1591 64.3862 43.8565 64.3862C42.554 64.3862 41.498 64.523 41.498 64.6918C41.498 64.8606 42.554 64.9974 43.8565 64.9974Z" fill="#F1F1F1"/>
<path d="M54.0085 57.5479C54.9295 56.4765 55.593 55.5112 55.4904 55.3918C55.3878 55.2725 54.558 56.0443 53.637 57.1158C52.7159 58.1872 52.0524 59.1526 52.155 59.2719C52.2576 59.3912 53.0874 58.6194 54.0085 57.5479Z" fill="#F1F1F1"/>
<path d="M50.2624 61.9107C51.1834 60.8393 51.8469 59.8739 51.7443 59.7546C51.6417 59.6353 50.8119 60.4071 49.8909 61.4786C48.9698 62.55 48.3063 63.5153 48.4089 63.6347C48.5115 63.754 49.3413 62.9822 50.2624 61.9107Z" fill="#F1F1F1"/>
<path d="M57.8952 53.0284C58.8162 51.957 59.4797 50.9916 59.3771 50.8723C59.2746 50.7529 58.4447 51.5248 57.5237 52.5962C56.6026 53.6677 55.9391 54.633 56.0417 54.7524C56.1443 54.8717 56.9741 54.0999 57.8952 53.0284Z" fill="#F1F1F1"/>
<path d="M61.9284 48.3421C62.8494 47.2706 63.5129 46.3053 63.4103 46.186C63.3078 46.0666 62.4779 46.8385 61.5569 47.9099C60.6358 48.9814 59.9723 49.9467 60.0749 50.066C60.1775 50.1854 61.0073 49.4135 61.9284 48.3421Z" fill="#F1F1F1"/>
<path d="M45.8833 60.1501C45.9678 60.1094 45.777 59.3482 45.4572 58.4499C45.1374 57.5517 44.8096 56.8565 44.7251 56.8972C44.6406 56.9379 44.8313 57.6991 45.1512 58.5974C45.471 59.4956 45.7988 60.1908 45.8833 60.1501Z" fill="#F1F1F1"/>
<path d="M47.1803 63.8028C47.2648 63.7621 47.074 63.0009 46.7542 62.1027C46.4343 61.2044 46.1065 60.5092 46.022 60.55C45.9375 60.5907 46.1283 61.3519 46.4482 62.2501C46.768 63.1484 47.0958 63.8435 47.1803 63.8028Z" fill="#F1F1F1"/>
<path d="M44.5318 56.3552C44.6163 56.3145 44.4255 55.5533 44.1056 54.655C43.7858 53.7568 43.458 53.0616 43.3735 53.1023C43.289 53.143 43.4798 53.9042 43.7996 54.8025C44.1195 55.7007 44.4473 56.3959 44.5318 56.3552Z" fill="#F1F1F1"/>
<path d="M43.1333 52.4213C43.2178 52.3806 43.027 51.6194 42.7072 50.7212C42.3874 49.8229 42.0596 49.1277 41.9751 49.1685C41.8906 49.2092 42.0813 49.9704 42.4012 50.8686C42.721 51.7669 43.0488 52.462 43.1333 52.4213Z" fill="#F1F1F1"/>
<path d="M43.5966 62.8082C43.6316 62.7099 43.034 62.3286 42.2618 61.9565C41.4896 61.5845 40.8353 61.3625 40.8003 61.4608C40.7653 61.5591 41.3629 61.9404 42.1351 62.3125C42.9072 62.6846 43.5616 62.9065 43.5966 62.8082Z" fill="#F1F1F1"/>
<path d="M46.7391 64.3179C46.7741 64.2196 46.1766 63.8383 45.4044 63.4663C44.6322 63.0942 43.9779 62.8723 43.9429 62.9705C43.9079 63.0688 44.5055 63.4502 45.2776 63.8222C46.0498 64.1943 46.7041 64.4162 46.7391 64.3179Z" fill="#F1F1F1"/>
<path d="M40.3388 61.2361C40.3738 61.1378 39.7762 60.7565 39.004 60.3845C38.2318 60.0124 37.5775 59.7905 37.5425 59.8888C37.5075 59.9871 38.1051 60.3684 38.8772 60.7404C39.6494 61.1125 40.3038 61.3344 40.3388 61.2361Z" fill="#F1F1F1"/>
<path d="M36.952 59.6068C36.987 59.5085 36.3894 59.1271 35.6173 58.7551C34.8451 58.383 34.1908 58.1611 34.1558 58.2594C34.1208 58.3577 34.7183 58.739 35.4905 59.111C36.2627 59.4831 36.917 59.705 36.952 59.6068Z" fill="#F1F1F1"/>
<path d="M54.9057 61.1177C54.94 61.2173 55.5967 60.9981 56.3676 60.6261C57.1386 60.254 57.7382 59.8754 57.7039 59.7757C57.6697 59.6761 57.0129 59.8953 56.242 60.2673C55.471 60.6394 54.8714 61.018 54.9057 61.1177Z" fill="#F1F1F1"/>
<path d="M59.5079 59.1094C60.2801 58.7373 60.8777 58.356 60.8427 58.2577C60.8077 58.1594 60.1533 58.3813 59.3812 58.7534C58.609 59.1255 58.0114 59.5068 58.0464 59.6051C58.0814 59.7034 58.7357 59.4815 59.5079 59.1094Z" fill="#F1F1F1"/>
<path d="M53.1055 62.196C53.8776 61.8239 54.4752 61.4426 54.4402 61.3443C54.4052 61.246 53.7509 61.4679 52.9787 61.84C52.2065 62.212 51.609 62.5934 51.644 62.6917C51.679 62.79 52.3333 62.568 53.1055 62.196Z" fill="#F1F1F1"/>
<path d="M49.7267 63.8291C50.4988 63.457 51.0964 63.0757 51.0614 62.9774C51.0264 62.8791 50.3721 63.1011 49.5999 63.4731C48.8277 63.8452 48.2301 64.2265 48.2651 64.3248C48.3001 64.4231 48.9545 64.2012 49.7267 63.8291Z" fill="#F1F1F1"/>
<path d="M50.5656 56.0756C50.6512 56.1155 50.9768 55.4246 51.2965 54.5211C51.6163 53.6177 51.8048 52.8603 51.7191 52.8205C51.6335 52.7806 51.308 53.4715 50.9882 54.375C50.6684 55.2718 50.4799 56.0358 50.5656 56.0756Z" fill="#F1F1F1"/>
<path d="M52.6056 50.8652C52.9255 49.9669 53.1163 49.2057 53.0318 49.165C52.9473 49.1243 52.6195 49.8195 52.2996 50.7177C51.9798 51.616 51.789 52.3771 51.8735 52.4179C51.958 52.4586 52.2858 51.7634 52.6056 50.8652Z" fill="#F1F1F1"/>
<path d="M49.9494 58.3162C50.2692 57.4179 50.46 56.6567 50.3755 56.616C50.291 56.5753 49.9632 57.2705 49.6434 58.1687C49.3235 59.067 49.1328 59.8282 49.2173 59.8689C49.3018 59.9096 49.6295 59.2144 49.9494 58.3162Z" fill="#F1F1F1"/>
<path d="M48.5509 62.2482C48.8708 61.35 49.0616 60.5888 48.9771 60.5481C48.8926 60.5073 48.5648 61.2025 48.2449 62.1008C47.9251 62.999 47.7343 63.7602 47.8188 63.8009C47.9033 63.8416 48.2311 63.1465 48.5509 62.2482Z" fill="#F1F1F1"/>
</g>
<defs>
<clipPath id="clip0_1195_17740">
<rect width="45" height="46" fill="white" transform="translate(25 19)"/>
</clipPath>
</defs>
</svg>
