<svg width="70" height="70" viewBox="0 0 70 70" fill="none" xmlns="http://www.w3.org/2000/svg">
<rect width="70" height="70" fill="#C53A1B"/>
<path d="M11 30.5917C11 18.667 20.6669 9 32.5917 9V9C44.5165 9 54.1834 18.6669 54.1834 30.5917V52.5168H11V30.5917Z" fill="#FAF9F2"/>
<path d="M67.1211 59.1506C67.1211 59.1506 52.0519 59.1506 47.4241 59.1506C42.7963 59.1506 27.7271 59.1506 27.7271 59.1506L11.0051 52.5163H54.2448L67.1211 59.1506Z" fill="#FAF9F2"/>
<path d="M41.0137 34.7664H42.3856V34.9014H41.0541L41.0137 34.7664ZM40.6538 33.5655H42.3766L42.588 33.3001C42.588 33.3001 42.8264 33.489 42.9703 33.6284C42.9613 33.6779 42.9208 33.7004 42.8579 33.7004H40.6898L40.6538 33.5655ZM41.6254 32.9447L42.0797 32.9897C42.0707 33.0527 42.0257 33.0977 41.9133 33.1112V34.2762H41.6254V32.9447ZM42.5205 34.2087H42.471L42.651 34.0288L42.9748 34.3481C42.9433 34.3796 42.8939 34.3841 42.8084 34.3886C42.7094 34.4831 42.534 34.6225 42.4216 34.7035L42.3541 34.672C42.4036 34.555 42.4845 34.3256 42.5205 34.2087ZM41.6164 35.2118L42.0572 35.2612C42.0437 35.3242 42.0032 35.3557 41.8998 35.3692V36.6466C41.8998 36.8895 41.8548 37.029 41.486 37.065C41.4725 36.9795 41.4545 36.8985 41.4095 36.8536C41.351 36.8086 41.2611 36.7771 41.0991 36.7546V36.6826C41.0991 36.6826 41.4545 36.7051 41.5309 36.7051C41.5984 36.7051 41.6164 36.6871 41.6164 36.6286V35.2118ZM40.5998 35.783C40.9957 35.747 41.9223 35.6031 42.8894 35.4457L42.8984 35.5221C42.4171 35.6616 41.7693 35.846 40.8742 36.0664C40.8517 36.1204 40.8068 36.1564 40.7663 36.1653L40.5998 35.783ZM40.9372 34.2087H42.6735V34.3391H40.9372V34.2087ZM42.1877 34.7664H42.1382L42.3181 34.591L42.6465 34.8879C42.6105 34.9194 42.5565 34.9284 42.4665 34.9329C42.3001 35.0543 42.0392 35.2208 41.8098 35.3107H41.7289C41.8998 35.1713 42.0932 34.9149 42.1877 34.7664ZM42.8894 34.0692H44.4367V34.1997H42.9298L42.8894 34.0692ZM43.4156 32.9807L43.8699 33.0257C43.8609 33.0887 43.8205 33.1336 43.708 33.1516C43.69 34.8744 43.762 36.2103 42.3631 37.0605L42.3046 36.984C43.4966 36.0844 43.4156 34.762 43.4156 32.9807ZM44.2703 34.0692H44.2208L44.3917 33.8758L44.7381 34.1682C44.7066 34.1997 44.6481 34.2267 44.5491 34.2402C44.5177 35.8325 44.4277 36.6376 44.2253 36.867C44.1083 37.0065 43.9329 37.0695 43.753 37.0695C43.753 36.975 43.7395 36.894 43.6855 36.8446C43.627 36.7996 43.4786 36.7591 43.3257 36.7321L43.3302 36.6556C43.4921 36.6691 43.753 36.6916 43.8385 36.6916C43.9239 36.6916 43.9554 36.6781 44.0049 36.6376C44.1623 36.4802 44.2388 35.6166 44.2703 34.0692ZM40.8787 34.0018H40.9552C41.0766 34.3796 41.0047 34.663 40.8832 34.7754C40.8023 34.8519 40.6538 34.8699 40.5998 34.7754C40.5594 34.69 40.6043 34.5955 40.6898 34.537C40.8068 34.4426 40.9012 34.2042 40.8787 34.0018ZM41.5804 39.3541L41.6524 39.3945V42.7546L41.3465 42.8491L41.4545 42.7366C41.5085 42.939 41.396 43.047 41.3285 43.0785L41.1756 42.7456C41.333 42.6691 41.3555 42.6421 41.3555 42.5432V39.3541H41.5804ZM41.3555 39.1067L41.7064 39.2551H41.6524V39.5205C41.6524 39.5205 41.5579 39.5205 41.3555 39.5205V39.1067ZM41.2431 42.7321C41.5399 42.6736 42.2416 42.4802 42.9568 42.2733L42.9793 42.3408C42.624 42.4937 42.0212 42.7591 41.3555 43.0155L41.2431 42.7321ZM43.6495 39.2551L43.825 39.0617L44.2208 39.3631C44.1848 39.4035 44.0993 39.4395 43.9959 39.4575V41.1713C43.9914 41.1983 43.8474 41.2747 43.7485 41.2747H43.7035V39.2551H43.6495ZM43.8519 40.9194V41.0543H41.5085V40.9194H43.8519ZM43.8519 40.0872V40.2222H41.5085V40.0872H43.8519ZM43.8474 39.2551V39.39H41.5085V39.2551H43.8474ZM44.5042 41.4322C44.4637 41.4726 44.4232 41.4861 44.3332 41.4502C44.0274 41.6346 43.5101 41.8865 43.0693 42.0574L43.0153 41.9989C43.3976 41.765 43.8834 41.3962 44.1308 41.1623L44.5042 41.4322ZM42.5745 40.9599C42.8804 41.9674 43.672 42.5252 44.7651 42.7636L44.7606 42.8086C44.6211 42.8311 44.5222 42.9165 44.4772 43.065C43.4336 42.7366 42.7769 42.1249 42.498 41.0093L42.5745 40.9599ZM44.3647 45.1471C44.3647 45.1471 44.5896 45.3226 44.7291 45.4575C44.7156 45.507 44.6796 45.5295 44.6166 45.5295H43.0468V45.3945H44.1623L44.3647 45.1471ZM42.3901 45.1741C42.3901 45.1741 42.597 45.3361 42.7184 45.462C42.7049 45.5115 42.6645 45.534 42.6105 45.534H41.288V45.399H42.2102L42.3901 45.1741ZM43.4246 45.6194C44.1893 45.7184 44.0049 46.2627 43.7305 46.0917C43.69 45.9388 43.5236 45.7544 43.3797 45.6599L43.4246 45.6194ZM43.5371 45.0797C43.5191 45.1247 43.4606 45.1606 43.3707 45.1516C43.1682 45.561 42.8894 45.9208 42.6015 46.1412L42.5385 46.0962C42.7544 45.8174 42.9703 45.3765 43.1098 44.9177L43.5371 45.0797ZM41.5849 45.6194C42.3406 45.7634 42.1472 46.2897 41.8863 46.1187C41.8503 45.9568 41.6884 45.7634 41.5399 45.6599L41.5849 45.6194ZM41.7738 45.0662C41.7558 45.1112 41.7019 45.1516 41.6029 45.1426C41.369 45.6599 41.0182 46.0647 40.6403 46.3076L40.5864 46.2627C40.8877 45.9613 41.1801 45.4665 41.3465 44.9132L41.7738 45.0662ZM41.6074 46.9104H41.4905L41.5309 46.8834C41.4995 47.0948 41.4185 47.4861 41.3645 47.702H41.4005L41.2566 47.8505L40.9372 47.6031C41.0047 47.5581 41.1171 47.5176 41.1936 47.5041L41.0901 47.6571C41.1441 47.4592 41.2296 46.9914 41.2611 46.7395L41.6074 46.9104ZM42.7589 47.711C42.2776 48.2508 41.495 48.6601 40.6133 48.9075L40.5774 48.8266C41.324 48.5522 42.0032 48.1114 42.4126 47.6391H42.7589V47.711ZM42.8354 48.9795C42.8354 49.002 42.7409 49.074 42.588 49.074H42.5385V46.2942H42.8354V48.9795ZM44.3063 47.5671V47.702H41.2521L41.288 47.5671H44.3063ZM44.0724 46.9059V47.0408H41.3735L41.405 46.9059H44.0724ZM44.1218 47.5671L44.2883 47.4007L44.6166 47.6706C44.5851 47.7065 44.5312 47.7245 44.4412 47.7335C44.4007 48.1923 44.3018 48.4847 44.1398 48.6017C44.0364 48.6646 43.8879 48.7006 43.726 48.7006C43.726 48.6241 43.7125 48.5477 43.654 48.5027C43.5956 48.4577 43.4516 48.4217 43.3077 48.3992V48.3228C43.4606 48.3363 43.7395 48.3588 43.825 48.3588C43.8969 48.3588 43.9329 48.3498 43.9689 48.3228C44.0499 48.2643 44.1308 47.9899 44.1668 47.5671H44.1218ZM44.0544 46.2492V46.3796H41.0047L40.9642 46.2492H44.0544ZM43.8789 46.2492L44.0364 46.0782L44.3827 46.3436C44.3557 46.3751 44.2883 46.4066 44.2118 46.4201V47.1083C44.2073 47.1353 44.0634 47.2028 43.9644 47.2028H43.9194V46.2492H43.8789Z" fill="#C43A1B"/>
<path fill-rule="evenodd" clip-rule="evenodd" d="M37.2978 20.894H28.319C27.2341 23.337 25.5133 29.1229 25.7376 31.5659C25.982 34.2274 28.4403 36.8832 30.7883 37.9227C30.7883 37.9227 31.6056 38.9313 32.023 39.6662C32.2911 40.1385 32.4932 40.6721 32.6413 41.2449C32.789 40.6723 32.9903 40.1387 33.2575 39.6662C33.6728 38.9318 34.0063 38.6036 34.4861 37.9227C36.8417 36.9186 38.8305 33.823 39.2058 31.5659C39.565 29.4058 38.0835 23.5513 37.2978 20.894ZM36.7099 22.1798H28.8505C27.9009 24.3182 26.3946 29.3828 26.591 31.5212C26.808 33.8847 28.9301 36.2043 31.012 37.0855C31.012 37.0855 32.0565 37.5139 32.7464 37.4804C33.3538 37.4509 34.254 37.0359 34.254 37.0359C36.3159 36.157 38.0515 33.4969 38.38 31.5212C38.6944 29.6304 37.3976 24.5058 36.7099 22.1798Z" fill="#D59210"/>
<path d="M32.641 48.4034C31.857 45.7911 31.6162 43.9931 32.6413 41.2449C33.6678 43.9922 33.4261 45.7907 32.641 48.4034Z" fill="#D59210"/>
<path d="M32.023 51.3667H26.6357C26.2989 51.3667 25.7828 51.7524 25.5133 52.2667C25.3593 52.5607 25.5133 52.781 25.7378 52.781H39.9916C40.3283 52.781 40.2663 52.4392 40.2161 52.2667C40.1038 51.881 39.705 51.3667 39.1438 51.3667H33.2575C33.2575 51.3667 32.9172 50.1324 32.641 48.4034C32.3641 50.1323 32.023 51.3667 32.023 51.3667Z" fill="#D59210"/>
<mask id="mask0_1195_17191" style="mask-type:alpha" maskUnits="userSpaceOnUse" x="21" y="14" width="36" height="34">
<path fill-rule="evenodd" clip-rule="evenodd" d="M37.8183 36.8013C36.1419 37.3549 34.6624 38.6662 33.7051 40.4465L34.6382 41.1049L34.6104 41.1561L35.7063 41.9295L35.7022 41.9371L38.9169 44.2056L42.1316 46.474L42.1357 46.4663L43.0701 47.1257L43.0975 47.0742L44.3644 47.9682C45.3216 46.1878 45.6782 44.0841 45.3555 42.1199C45.0329 40.1557 44.0576 38.4919 42.6441 37.4944C41.2306 36.497 39.4947 36.2477 37.8183 36.8013ZM42.8192 46.8778L43.0975 47.0742L43.1007 47.0681L43.601 47.4211C44.4367 45.8669 44.748 44.0303 44.4663 42.3155C44.1847 40.6007 43.3332 39.1482 42.0992 38.2774C40.8652 37.4067 39.3497 37.189 37.8862 37.6723C36.4227 38.1556 35.131 39.3004 34.2953 40.8547L34.6415 41.0989L34.6382 41.1049L35.2054 41.5052L35.2035 41.5088L35.7323 41.8819L35.7063 41.9295L37.5718 43.2458L37.5677 43.2534L38.9213 44.2085L40.2748 45.1636L40.2789 45.1561L42.1357 46.4663L42.1611 46.4184L42.8173 46.8814L42.8192 46.8778ZM42.163 46.4148L42.8192 46.8778L42.8224 46.8717L43.1007 47.0681C43.8374 45.6675 44.1093 44.022 43.8567 42.4842C43.6007 40.9253 42.8266 39.6048 41.7048 38.8132C40.583 38.0216 39.2053 37.8237 37.8748 38.2631C36.5624 38.6965 35.4019 39.7151 34.6415 41.0989L35.2087 41.4992L35.2054 41.5052L35.7343 41.8784L35.7323 41.8819L36.1777 42.1963L36.1547 42.2385L37.5747 43.2405L37.5718 43.2458L38.8402 44.1409L40.2789 45.1561L40.2817 45.1507L41.7382 46.1784L41.7608 46.1359L42.1611 46.4184L42.163 46.4148ZM41.7626 46.1323L42.163 46.4148L42.1662 46.4086L42.8224 46.8717C43.5023 45.6021 43.7551 44.1035 43.5253 42.7041C43.2948 41.3011 42.5981 40.1126 41.5885 39.4002C40.5788 38.6877 39.3389 38.5096 38.1415 38.9051C36.9471 39.2995 35.8926 40.2324 35.2087 41.4992L35.7376 41.8724L35.7343 41.8784L36.1797 42.1927L36.1777 42.1963L36.6216 42.5095L36.6104 42.5301L37.5866 43.219L37.5747 43.2405L38.9464 44.2085L40.2817 45.1507L40.2931 45.1288L41.3479 45.8731L41.3589 45.8523L41.7608 46.1359L41.7626 46.1323ZM41.3608 45.8487L41.7626 46.1323L41.7658 46.1262L42.1662 46.4086C42.7175 45.3489 42.9201 44.1073 42.7295 42.9465C42.5349 41.7617 41.9466 40.7581 41.094 40.1565C40.2414 39.5549 39.1943 39.4045 38.1832 39.7384C37.1925 40.0656 36.3157 40.8315 35.7376 41.8724L36.183 42.1867L36.1797 42.1927L36.6235 42.5059L36.6216 42.5095L36.9755 42.7592L36.9746 42.761L37.5971 43.2003L37.5866 43.219L37.9431 43.4706L37.9317 43.4915L38.9468 44.2079L39.962 44.9242L39.9732 44.9031L40.2931 45.1288L40.3029 45.1096L41.0352 45.6264L41.0362 45.6246L41.3589 45.8523L41.3608 45.8487ZM41.0381 45.621L41.3608 45.8487L41.364 45.8426L41.7658 46.1262C42.2464 45.2048 42.4232 44.1248 42.2573 43.115C42.0884 42.0862 41.5775 41.2147 40.8371 40.6922C40.0966 40.1697 39.1874 40.0391 38.3093 40.3291C37.4475 40.6137 36.685 41.2805 36.183 42.1867L36.6268 42.4999L36.6235 42.5059L36.9775 42.7556L36.9755 42.7592L37.5982 43.1986L37.5971 43.2003L37.9537 43.4519L37.9431 43.4706L38.2162 43.6632C38.216 43.6635 38.2159 43.6637 38.2157 43.664L38.9771 44.2013L39.7385 44.7385C39.7386 44.7383 39.7388 44.738 39.7389 44.7377L39.9732 44.9031L39.983 44.8839L40.3029 45.1096L40.3038 45.1078L41.0362 45.6246L41.0381 45.621ZM40.7264 45.4011L41.0381 45.621L41.0414 45.6149L41.364 45.8426C41.7773 45.0579 41.9299 44.1357 41.7884 43.2738C41.645 42.4009 41.2115 41.6614 40.5833 41.2181C39.9551 40.7748 39.1836 40.664 38.4385 40.91C37.703 41.1529 37.0527 41.724 36.6268 42.4999L36.9807 42.7496L36.9775 42.7556L37.3426 43.0133L37.3412 43.0157L37.5988 43.1974L37.5982 43.1986L37.9547 43.4501L37.9537 43.4519L38.2265 43.6444C38.223 43.6506 38.2196 43.6569 38.2162 43.6632L38.9791 44.2016L39.7389 44.7377C39.7423 44.7314 39.7456 44.7251 39.7489 44.7187L39.983 44.8839L39.9839 44.8821L40.3038 45.1078L40.3044 45.1066L40.7251 45.4035L40.7264 45.4011ZM40.3057 45.1042L40.7264 45.4011L40.7297 45.395L41.0414 45.6149C41.4014 44.9392 41.535 44.1426 41.4128 43.3985C41.2899 42.6502 40.9184 42.0164 40.3799 41.6364C39.8414 41.2564 39.1801 41.1615 38.5415 41.3724C37.9065 41.5821 37.3456 42.0772 36.9807 42.7496L37.3458 43.0072L37.3426 43.0133L37.6002 43.1951L37.5988 43.1974L37.9553 43.449L37.9547 43.4501L38.2275 43.6426C38.2271 43.6432 38.2268 43.6438 38.2265 43.6444L39.0049 44.1937L39.7489 44.7187C39.7492 44.7181 39.7495 44.7175 39.7498 44.7169L39.9839 44.8821L39.9845 44.8809L40.3044 45.1066L40.3057 45.1042ZM39.9858 44.8784L40.3057 45.1042L40.3088 45.098L40.7297 45.395C41.0301 44.8316 41.1417 44.1674 41.0398 43.5469C40.9374 42.9234 40.6277 42.3952 40.179 42.0785C39.7303 41.7619 39.1792 41.6827 38.647 41.8585C38.1175 42.0334 37.6498 42.4463 37.3458 43.0072L37.6036 43.1891L37.6002 43.1951L37.9567 43.4466L37.9553 43.449L38.2281 43.6415C38.2279 43.6419 38.2277 43.6423 38.2275 43.6426L39.0104 44.1951L39.7498 44.7169C39.75 44.7165 39.7502 44.7161 39.7504 44.7157L39.9845 44.8809L39.9858 44.8784ZM39.7517 44.7133C39.7513 44.7141 39.7509 44.7149 39.7504 44.7157L39.0332 44.2096L38.2281 43.6415C38.2286 43.6407 38.229 43.6399 38.2295 43.6391L39.0347 44.2073L39.7517 44.7133ZM39.7548 44.7071C39.7538 44.7092 39.7527 44.7112 39.7517 44.7133L39.9858 44.8784L39.9888 44.8722L40.3088 45.098C40.4111 44.8919 40.4836 44.6687 40.5226 44.4385C40.5658 44.1836 40.5671 43.9253 40.5265 43.6783C40.486 43.4313 40.4043 43.2005 40.2861 42.9989C40.168 42.7974 40.0157 42.6291 39.8379 42.5036C39.6602 42.3782 39.4604 42.2981 39.2502 42.2679C39.0399 42.2377 38.8231 42.258 38.6123 42.3276C38.4015 42.3972 38.2008 42.5148 38.0215 42.6736C37.8596 42.8171 37.7182 42.9917 37.6036 43.1891L37.9601 43.4407L37.9567 43.4466L38.2295 43.6391C38.2306 43.6371 38.2317 43.6351 38.2329 43.6332L38.9482 44.1379L39.7548 44.7071ZM38.2329 43.6332C38.3698 43.3945 38.5736 43.2191 38.8033 43.1433C39.0428 43.0642 39.2908 43.0998 39.4927 43.2423C39.6947 43.3848 39.834 43.6225 39.8801 43.9031C39.9243 44.1722 39.8792 44.4596 39.7548 44.7071L39.9888 44.8722C40.1509 44.5446 40.2091 44.1655 40.1508 43.8103C40.0893 43.4361 39.9036 43.1192 39.6343 42.9292C39.3651 42.7393 39.0344 42.6918 38.7151 42.7972C38.412 42.8973 38.1427 43.1275 37.9601 43.4407L38.2329 43.6332Z" fill="#ABABAB"/>
<path fill-rule="evenodd" clip-rule="evenodd" d="M27.2421 29.2735C25.5658 29.8271 24.0862 31.1383 23.1289 32.9187L24.0619 33.577L24.0342 33.6279L25.1303 34.4014L25.126 34.4093L26.9894 35.7241L26.9886 35.7255L28.3422 36.6807L29.6957 37.6358L29.6965 37.6344L31.5554 38.9462L31.5597 38.9382L32.4939 39.5975L32.5212 39.5463L33.7882 40.4403C34.7455 38.6599 35.102 36.5563 34.7794 34.5921C34.4568 32.6279 33.4814 30.964 32.0679 29.9666C30.6544 28.9692 28.9185 28.7199 27.2421 29.2735ZM32.243 39.35L32.5212 39.5463L32.5244 39.5402L33.0248 39.8933C33.8605 38.339 34.1718 36.5025 33.8902 34.7877C33.6085 33.0729 32.757 31.6204 31.523 30.7496C30.289 29.8788 28.7735 29.6612 27.31 30.1445C25.8465 30.6278 24.5548 31.7725 23.7191 33.3268L24.0652 33.571L24.0619 33.577L24.6293 33.9774L24.6273 33.981L25.1561 34.3541L25.1303 34.4014L26.9936 35.7162L26.9894 35.7241L28.3407 36.6777L29.6965 37.6344L29.7007 37.6265L31.5597 38.9382L31.5849 38.8905L32.2411 39.3535L32.243 39.35ZM31.5868 38.8869L32.243 39.35L32.2463 39.3439L32.5244 39.5402C33.2612 38.1395 33.5332 36.4939 33.2806 34.956C33.0245 33.3971 32.2504 32.0766 31.1286 31.285C30.0068 30.4934 28.6291 30.2955 27.2986 30.7349C25.9861 31.1684 24.8256 32.187 24.0652 33.571L24.6325 33.9713L24.6293 33.9774L25.1581 34.3506L25.1561 34.3541L25.602 34.6687L25.5792 34.7107L26.9966 35.7109L26.9936 35.7162L28.2641 36.6127L29.7007 37.6265L29.7036 37.6211L31.1626 38.6506L31.185 38.6083L31.5849 38.8905L31.5868 38.8869ZM31.1869 38.6047L31.5868 38.8869L31.59 38.8808L32.2463 39.3439C32.9261 38.0743 33.1789 36.5757 32.9491 35.1762C32.7186 33.7732 32.022 32.5848 31.0123 31.8723C30.0027 31.1599 28.7628 30.9818 27.5653 31.3772C26.371 31.7717 25.3164 32.7046 24.6325 33.9713L25.1614 34.3446L25.1581 34.3506L25.604 34.6652L25.602 34.6687L26.0454 34.9816L26.0342 35.0023L27.0083 35.6896L26.9966 35.7109L28.3709 36.6806L29.7036 37.6211L29.7148 37.5995L30.7717 38.3452L30.7828 38.3245L31.185 38.6083L31.1869 38.6047ZM30.7847 38.3209L31.1869 38.6047L31.1901 38.5986L31.59 38.8808C32.1413 37.821 32.3439 36.5795 32.1533 35.4186C31.9587 34.2339 31.3704 33.2303 30.5178 32.6287C29.6652 32.0271 28.6182 31.8767 27.607 32.2106C26.6163 32.5378 25.7395 33.3037 25.1614 34.3446L25.6073 34.6592L25.604 34.6652L26.0474 34.9781L26.0454 34.9816L26.3994 35.2314L26.3984 35.2332L27.0189 35.671L27.0083 35.6896L27.3667 35.9425L27.3551 35.9637L28.3703 36.6801L29.3854 37.3964L29.3967 37.375L29.7148 37.5995L29.7246 37.5803L30.4591 38.0986L30.46 38.0968L30.7828 38.3245L30.7847 38.3209ZM30.462 38.0932L30.7847 38.3209L30.7879 38.3148L31.1901 38.5986C31.6708 37.6772 31.8476 36.597 31.6818 35.5872C31.5128 34.5584 31.0019 33.6868 30.2615 33.1644C29.5211 32.6419 28.6118 32.5113 27.7337 32.8013C26.8718 33.0859 26.1093 33.7528 25.6073 34.6592L26.0507 34.972L26.0474 34.9781L26.4013 35.2278L26.3994 35.2314L27.0199 35.6693L27.0189 35.671L27.3772 35.9239L27.3667 35.9425L27.6399 36.1353C27.6398 36.1356 27.6396 36.1358 27.6395 36.1361L28.4009 36.6733L29.1622 37.2106C29.1624 37.2103 29.1625 37.2101 29.1627 37.2098L29.3967 37.375L29.4065 37.3558L29.7246 37.5803L29.7255 37.5784L30.46 38.0968L30.462 38.0932ZM29.7273 37.5748L30.462 38.0932L30.4652 38.0871L30.7879 38.3148C31.2011 37.5301 31.3538 36.6078 31.2122 35.746C31.0688 34.873 30.6353 34.1336 30.0071 33.6903C29.3789 33.247 28.6074 33.1361 27.8623 33.3822C27.1268 33.6251 26.4765 34.1962 26.0507 34.972L26.4046 35.2218L26.4013 35.2278L27.0219 35.6658L27.0199 35.6693L27.3782 35.9221L27.3772 35.9239L27.6502 36.1165C27.6467 36.1228 27.6433 36.129 27.6399 36.1353L28.403 36.6738L29.1627 37.2098C29.166 37.2035 29.1694 37.1972 29.1727 37.1908L29.4065 37.3558L29.4075 37.354L29.7255 37.5784L29.7273 37.5748ZM29.4093 37.3504L29.7273 37.5748L29.7304 37.5686L30.4652 38.0871C30.8253 37.4113 30.9589 36.6147 30.8367 35.8707C30.7138 35.1224 30.3422 34.4886 29.8037 34.1086C29.2652 33.7286 28.604 33.6336 27.9653 33.8445C27.3303 34.0542 26.7694 34.5493 26.4046 35.2218L27.0254 35.6598L27.0219 35.6658L27.3802 35.9186L27.3782 35.9221L27.6512 36.1147C27.6509 36.1153 27.6506 36.1159 27.6502 36.1165L28.4287 36.6659L29.1727 37.1908C29.173 37.1902 29.1733 37.1896 29.1736 37.189L29.4075 37.354L29.4093 37.3504ZM29.1755 37.1854C29.1748 37.1866 29.1742 37.1878 29.1736 37.189L28.4342 36.6673L27.6512 36.1147C27.6519 36.1136 27.6526 36.1124 27.6532 36.1112L28.4586 36.6795L29.1755 37.1854ZM29.1786 37.1792C29.1775 37.1813 29.1765 37.1833 29.1755 37.1854L29.4093 37.3504L29.4124 37.3442L29.7304 37.5686L29.7324 37.5647L30.149 37.8586C30.4528 37.2935 30.566 36.6256 30.4636 36.0021C30.3612 35.3785 30.0516 34.8503 29.6028 34.5337C29.1541 34.217 28.603 34.1379 28.0708 34.3136C27.5387 34.4894 27.069 34.9056 26.7651 35.4708L27.0276 35.6561L27.0254 35.6598L27.3837 35.9127L27.3802 35.9186L27.6532 36.1112C27.6543 36.1092 27.6555 36.1072 27.6566 36.1053L28.372 36.6101L29.1786 37.1792ZM29.1805 37.1753C29.1799 37.1766 29.1792 37.1779 29.1786 37.1792L29.4124 37.3442L29.4143 37.3402L29.7324 37.5647C29.8333 37.3602 29.9048 37.1388 29.9435 36.9107C29.9867 36.6558 29.988 36.3975 29.9474 36.1505C29.9069 35.9035 29.8252 35.6726 29.707 35.4711C29.5889 35.2695 29.4366 35.1012 29.2588 34.9758C29.0811 34.8504 28.8813 34.7703 28.6711 34.7401C28.4608 34.7099 28.244 34.7301 28.0332 34.7998C27.8224 34.8694 27.6217 34.987 27.4424 35.1458C27.282 35.288 27.1416 35.4608 27.0276 35.6561L27.3859 35.9089L27.3837 35.9127L27.6566 36.1053C27.6573 36.104 27.6581 36.1027 27.6588 36.1015L28.457 36.6647L29.1805 37.1753ZM27.6588 36.1015C27.7957 35.8648 27.9986 35.6908 28.2271 35.6153C28.4666 35.5363 28.7146 35.5719 28.9165 35.7144C29.1184 35.8568 29.2578 36.0945 29.3038 36.3751C29.3478 36.6429 29.3035 36.9287 29.1805 37.1753L29.4143 37.3402C29.5748 37.0135 29.6323 36.6361 29.5742 36.2824C29.5128 35.9083 29.327 35.5914 29.0578 35.4014C28.7885 35.2114 28.4579 35.1639 28.1386 35.2694C27.8367 35.3691 27.5684 35.5977 27.3859 35.9089L27.6588 36.1015Z" fill="#ABABAB"/>
<path fill-rule="evenodd" clip-rule="evenodd" d="M45.9659 34.9692C44.6775 35.3947 43.5054 36.2677 42.5973 37.4572C42.6146 37.4691 42.6319 37.4812 42.6492 37.4934C42.8309 37.6216 43.0054 37.7609 43.1722 37.9104C43.9534 36.9239 44.9462 36.1994 46.0338 35.8402C47.4973 35.3569 49.0128 35.5745 50.2468 36.4453C51.4808 37.3161 52.3323 38.7686 52.614 40.4834C52.8303 41.8004 52.6969 43.1891 52.2447 44.4667C52.5255 44.5875 52.7983 44.7337 53.0608 44.9049C53.5943 43.4265 53.754 41.815 53.5032 40.2878C53.1805 38.3236 52.2052 36.6598 50.7917 35.6623C49.3782 34.6649 47.6423 34.4156 45.9659 34.9692ZM51.6736 44.259C52.0807 43.1014 52.2002 41.8442 52.0044 40.6517C51.7483 39.0928 50.9742 37.7723 49.8524 36.9807C48.7306 36.1891 47.3529 35.9912 46.0224 36.4306C45.0674 36.746 44.1928 37.3713 43.4943 38.2216C43.6563 38.3903 43.8097 38.5693 43.9541 38.758C44.5922 37.955 45.402 37.3652 46.2889 37.0723C47.4864 36.6769 48.7263 36.855 49.7359 37.5674C50.7456 38.2799 51.4422 39.4683 51.6727 40.8713C51.8521 41.9639 51.7374 43.117 51.3549 44.1743C51.4619 44.1992 51.5682 44.2274 51.6736 44.259ZM50.5523 44.0528C50.9201 43.12 51.0371 42.0887 50.8771 41.1143C50.6825 39.9296 50.0942 38.926 49.2416 38.3244C48.389 37.7228 47.342 37.5724 46.3308 37.9063C45.5784 38.1548 44.8917 38.6563 44.3516 39.3392C44.4553 39.5093 44.5526 39.6852 44.643 39.8666C45.1253 39.2096 45.7586 38.7276 46.4573 38.4969C47.3354 38.2069 48.2447 38.3375 48.9851 38.86C49.7255 39.3825 50.2364 40.254 50.4054 41.2828C50.5562 42.2013 50.4236 43.1779 50.0367 44.0403C50.2094 44.0362 50.3814 44.0404 50.5523 44.0528ZM49.5947 44.0691L49.512 44.0108C49.9274 43.2249 50.081 42.3004 49.9391 41.4367C49.7958 40.5637 49.3623 39.8242 48.7341 39.3809C48.1058 38.9376 47.3343 38.8268 46.5893 39.0729C45.9226 39.293 45.326 39.7827 44.9031 40.4502C44.9568 40.5859 45.0069 40.7241 45.0535 40.8646L45.1284 40.9175L45.1251 40.9235L45.0571 40.8755L45.059 40.8813L45.1234 40.9267L45.1222 40.9289L45.7427 41.3667L45.735 41.3802L45.0682 40.9096L45.0835 40.9573L45.7203 41.4066L45.7174 41.412L45.0865 40.9668L45.091 40.9808L45.7132 41.4198L45.7124 41.4212L47.066 42.3764L48.4195 43.3315L48.4203 43.3301L49.4855 44.0818C49.4899 44.0812 49.4943 44.0807 49.4986 44.0801L48.4245 43.3222L48.4273 43.3168L49.5075 44.079C49.5313 44.0761 49.5551 44.0734 49.5789 44.0708L49.5071 44.0201L49.5088 44.0169L49.5844 44.0702C49.5878 44.0698 49.5913 44.0695 49.5947 44.0691ZM49.1858 43.7889L49.5088 44.0169L49.512 44.0108L49.189 43.7828C49.5491 43.107 49.6827 42.3104 49.5605 41.5664C49.4376 40.8181 49.066 40.1843 48.5275 39.8043C47.989 39.4243 47.3278 39.3293 46.6891 39.5402C46.0541 39.75 45.4932 40.245 45.1284 40.9175L45.4936 41.1752L45.4903 41.1812L45.1251 40.9235L45.1234 40.9267L45.7439 41.3646L45.7427 41.3667L46.1013 41.6198L46.0936 41.6332L45.735 41.3802L45.7203 41.4066L47.0945 42.3763L48.4273 43.3168L48.4413 43.2899L49.4986 44.0359L49.5071 44.0201L49.184 43.7921L49.1858 43.7889ZM48.8742 43.569L49.1858 43.7889L49.189 43.7828L48.8774 43.563C49.178 42.9995 49.2895 42.3352 49.1876 41.7147C49.0852 41.0912 48.7756 40.563 48.3268 40.2463C47.8781 39.9297 47.327 39.8505 46.7949 40.0263C46.2653 40.2012 45.7976 40.6142 45.4936 41.1752L45.7492 41.3555L45.7457 41.3615L45.4903 41.1812L45.4891 41.1835L45.7444 41.3637L45.7439 41.3646L46.1025 41.6176L46.1013 41.6198L46.3744 41.8125L46.3669 41.8261L46.0936 41.6332L46.0793 41.6594L47.0944 42.3757L48.1096 43.092L48.1235 43.0656L48.4413 43.2899L48.4484 43.276L49.1829 43.7943L49.184 43.7921L48.4495 43.2738L48.45 43.2728L48.873 43.5713L48.8742 43.569ZM48.4511 43.2705L48.8742 43.569L48.8774 43.563L48.4542 43.2643C48.5562 43.0587 48.6284 42.836 48.6673 42.6064C48.7105 42.3515 48.7118 42.0932 48.6712 41.8462C48.6307 41.5992 48.549 41.3683 48.4308 41.1668C48.3127 40.9652 48.1604 40.7969 47.9826 40.6715C47.8049 40.5461 47.6051 40.466 47.3949 40.4358C47.1846 40.4056 46.9678 40.4258 46.757 40.4955C46.5462 40.5651 46.3455 40.6827 46.1662 40.8415C46.0047 40.9846 45.8636 41.1587 45.7492 41.3555L46.1077 41.6086L46.1043 41.6145L45.7457 41.3615L45.7444 41.3637L46.103 41.6167L46.1025 41.6176L46.3756 41.8103L46.3744 41.8125L47.1525 42.3616L47.8969 42.8869L47.8897 42.9006L47.1299 42.3644L46.3669 41.8261L46.3662 41.8275L47.1275 42.3648L47.8889 42.902L47.8897 42.9006L48.1235 43.0656L48.1306 43.0517L48.4484 43.276L48.4495 43.2738L48.1317 43.0496L48.1322 43.0486L48.45 43.2728L48.4511 43.2705ZM48.1333 43.0463L48.4511 43.2705L48.4542 43.2643L48.1364 43.0401C48.2985 42.7124 48.3568 42.3333 48.2984 41.9781C48.237 41.604 48.0512 41.287 47.7819 41.097C47.5127 40.9071 47.1821 40.8596 46.8627 40.965C46.5596 41.0651 46.2902 41.2953 46.1077 41.6086L46.3807 41.8012L46.3773 41.8072L46.1043 41.6145L46.103 41.6167L46.3761 41.8094L46.3756 41.8103L47.1578 42.3623L47.8981 42.8847L47.8969 42.8869L48.1306 43.0517L48.1317 43.0496L47.8981 42.8847L47.8986 42.8837L48.1322 43.0486L48.1333 43.0463ZM47.8997 42.8814L47.8986 42.8837L47.181 42.3774L46.3761 41.8094L46.3773 41.8072L47.1824 42.3752L47.8997 42.8814ZM47.9029 42.8753L48.1364 43.0401L48.1333 43.0463L47.8997 42.8814L47.9029 42.8753ZM47.9029 42.8753L47.0958 42.3058L46.3807 41.8012C46.5177 41.5602 46.7226 41.3831 46.9538 41.3068C47.1932 41.2277 47.4412 41.2633 47.6432 41.4058C47.8451 41.5483 47.9844 41.786 48.0305 42.0666C48.075 42.3374 48.0291 42.6268 47.9029 42.8753ZM48.4245 43.3222L46.9879 42.3084L45.7174 41.412L45.7132 41.4198L47.0645 42.3734L48.4203 43.3301L48.4245 43.3222Z" fill="#ABABAB"/>
<path fill-rule="evenodd" clip-rule="evenodd" d="M46.7664 28.0084C46.7736 28.013 46.7809 28.0177 46.7881 28.0224C46.9828 28.1478 47.1692 28.2869 47.3466 28.4384C48.0399 27.4834 48.9439 26.7653 49.9486 26.3885C51.2753 25.8908 52.669 26.0291 53.823 26.7729C54.977 27.5167 55.7968 28.805 56.102 30.3545C56.3004 31.3615 56.2709 32.4252 56.0277 33.4439L54.5689 32.7451L54.5729 32.7306L55.2651 33.061C55.2969 32.9033 55.3224 32.7444 55.3417 32.5852L55.6713 32.6559C55.7692 31.9383 55.7523 31.2097 55.6146 30.511C55.3371 29.1024 54.5919 27.9312 53.5428 27.255C52.4937 26.5788 51.2267 26.4531 50.0206 26.9055C49.1165 27.2446 48.3022 27.8877 47.6744 28.7427C47.8211 28.8905 47.9604 29.0475 48.092 29.2131C48.6622 28.4158 49.4107 27.8164 50.2439 27.5038C51.3295 27.0967 52.4697 27.2098 53.4139 27.8184C54.3581 28.4269 55.0288 29.481 55.2786 30.7488C55.3964 31.3471 55.416 31.9698 55.3417 32.5852L54.638 32.4341C54.7016 32.0461 54.6941 31.589 54.5741 30.9795C54.3632 29.9089 53.7967 29.0188 52.9994 28.5049C52.2021 27.991 51.2392 27.8955 50.3226 28.2393C49.5994 28.5105 48.9517 29.0377 48.4655 29.7393C48.5659 29.898 48.6601 30.0626 48.7478 30.2327C49.1792 29.5474 49.7818 29.0326 50.4612 28.7777C51.2572 28.4792 52.0934 28.5622 52.7858 29.0084C53.4782 29.4547 53.9701 30.2277 54.1532 31.1574C54.2294 31.5441 54.2496 31.9448 54.216 32.3434L53.9167 32.2792C53.9573 31.9093 53.9168 31.5192 53.7938 31.1375C53.5784 30.469 53.1273 29.8807 52.5399 29.502C51.9524 29.1234 51.2766 28.9854 50.6612 29.1184C50.0458 29.2515 49.5411 29.6447 49.2583 30.2115L49.6433 30.4596C49.5926 30.5108 49.5642 30.5423 49.5642 30.5423L50.8604 31.9097L51.0408 32.1906L49.0494 30.9071C49.0501 30.9088 49.0508 30.9106 49.0514 30.9123L51.0465 32.1995L51.051 32.2065L49.0542 30.9195C49.0562 30.9246 49.0581 30.9298 49.0601 30.935L51.0639 32.2265L51.0712 32.2378L51.1304 32.2756L51.1198 32.2762L49.0669 30.9531C49.0671 30.9535 49.0672 30.9539 49.0674 30.9543L51.1178 32.2758L51.1415 32.2828L52.3372 33.046C52.3957 32.9298 52.4435 32.8076 52.4798 32.6818L52.8974 32.8165L52.9016 32.797L52.9478 32.8105L53.2824 32.9163L53.2844 32.9088L53.575 32.9937L53.6886 33.0669C53.6944 33.0553 53.7001 33.0436 53.7057 33.0319L54.3897 33.2317C54.4574 33.0796 54.5168 32.9262 54.5637 32.7633L56.6859 33.9711C57.0355 32.7128 57.0971 31.3815 56.8499 30.127C56.5003 28.3522 55.5612 26.8764 54.2394 26.0245C52.9176 25.1725 51.3212 25.0141 49.8015 25.5841C48.6241 26.0257 47.5674 26.8765 46.7664 28.0084ZM54.3341 32.6327L54.5689 32.7451L54.5637 32.7633L54.3341 32.6327ZM54.1918 32.5645L54.3341 32.6327L54.1934 32.5526L54.1938 32.5497L54.5729 32.7306C54.5991 32.6356 54.6211 32.5373 54.638 32.4341L54.216 32.3434C54.2102 32.4123 54.2028 32.481 54.1938 32.5497L54.1594 32.5332L53.9024 32.387C53.908 32.3513 53.9127 32.3153 53.9167 32.2792L53.5895 32.2089L53.4729 32.1426L53.4041 32.1465C53.4189 31.9211 53.415 31.6729 53.3688 31.4408C53.2354 30.7706 52.8775 30.2134 52.3738 29.8919C51.8702 29.5704 51.262 29.5108 50.6831 29.7263C50.2369 29.8924 49.8137 30.2873 49.6433 30.4596L50.2525 30.8523C50.2225 30.8747 50.2045 30.8887 50.2045 30.8887L50.4514 31.273C50.4419 31.2916 50.4307 31.3139 50.4171 31.341C50.4171 31.341 50.4386 31.3294 50.4768 31.3126L50.8604 31.9097L51.0584 32.1186L51.0756 32.1516L51.0681 32.2082L51.0408 32.1906L51.0465 32.1995L51.0674 32.213L51.0669 32.2167L51.051 32.2065L51.0639 32.2265L51.1393 32.2751L51.1304 32.2756L51.1415 32.2828L52.2162 32.5967L52.4798 32.6818L52.482 32.6744L52.9016 32.797L52.9018 32.7959L52.9478 32.8105L53.2844 32.9088C53.2879 32.8955 53.2957 32.8649 53.3058 32.8202L53.575 32.9937L53.7057 33.0319L53.7172 33.0073C53.9034 33.0912 54.0827 33.1251 54.1182 32.9702C54.1489 32.836 54.1735 32.7005 54.1918 32.5645ZM53.8966 32.4231L54.1918 32.5645L54.1934 32.5526L54.1594 32.5332L53.899 32.409L53.9024 32.387L53.5895 32.2089L53.4026 32.1688L53.4041 32.1465L53.3549 32.1493L52.9821 31.9714C52.98 31.8364 52.9687 31.6981 52.9426 31.5671C52.8314 31.0086 52.5331 30.5443 52.1134 30.2763C51.6937 30.0084 51.1869 29.9587 50.7045 30.1383C50.2221 30.3179 50.2163 30.4978 50.2163 30.4978L50.36 30.7744C50.3172 30.8045 50.2799 30.8319 50.2525 30.8523L50.4749 30.9956L50.5661 31.1712C50.5517 31.1755 50.5409 31.1772 50.5322 31.1786C50.5021 31.1834 50.4969 31.1842 50.4514 31.273L50.4768 31.3126C50.5103 31.2978 50.5566 31.2788 50.6123 31.26L51.0584 32.1186L51.0773 32.1385L51.0756 32.1516L51.1235 32.2439L51.0681 32.2082L51.0674 32.213L51.1499 32.2662L51.1633 32.2696L51.1693 32.2734L51.1393 32.2751L51.1518 32.2832L51.4219 32.3404L52.2162 32.5967L52.482 32.6744L52.4849 32.6641L52.9018 32.7959C52.907 32.7707 52.9164 32.7233 52.927 32.6596L53.1202 32.7005L53.3058 32.8202C53.309 32.806 53.3125 32.7904 53.3161 32.7734C53.4016 32.8325 53.5618 32.9373 53.7172 33.0073C53.8021 32.8234 53.862 32.627 53.8966 32.4231ZM53.4014 32.1859L53.8966 32.4231L53.899 32.409L53.4024 32.172L53.4026 32.1688L53.3902 32.1661L53.3549 32.1493L53.3281 32.1508L52.9823 31.9852L52.9821 31.9714L52.8344 31.9008L52.8154 31.9052L52.54 31.7734C52.536 31.7475 52.5314 31.7217 52.5263 31.6961C52.4822 31.4749 52.401 31.2698 52.2872 31.0926C52.1734 30.9155 52.0292 30.7696 51.8629 30.6635C51.6967 30.5574 51.5116 30.493 51.3182 30.4741C51.1248 30.4551 50.9269 30.482 50.7358 30.5531C50.6287 30.593 50.4746 30.6937 50.36 30.7744L50.4749 30.9956L50.6704 31.1216C50.6219 31.1508 50.5893 31.1643 50.5661 31.1712L50.6123 31.26C50.668 31.2412 50.7332 31.2225 50.8045 31.208L51.4386 31.6167L51.5125 31.763L51.1378 31.6825L51.0773 32.1385L51.1861 32.2534L51.2373 32.2696L51.2075 32.2713L51.1243 32.2444L51.1235 32.2439L51.1237 32.2442L51.1243 32.2444L51.1633 32.2696L51.177 32.273L51.1693 32.2734L51.1856 32.2839L51.2038 32.2797L51.3383 32.3135L51.4219 32.3404L51.542 32.3659L52.4849 32.6641C52.4935 32.6332 52.5015 32.6021 52.5087 32.5709L52.927 32.6596C52.9308 32.6363 52.9348 32.6109 52.9388 32.5836L53.1202 32.7005L53.2533 32.7288C53.2533 32.7288 53.2768 32.7463 53.3161 32.7734C53.3444 32.641 53.3831 32.4284 53.4014 32.1859ZM53.3356 32.1544L53.3281 32.1508L53.3208 32.1512L52.9819 32.0785C52.9825 32.0477 52.9826 32.0165 52.9823 31.9852L52.8154 31.9052L52.5607 31.9644C52.5568 31.9001 52.5499 31.8363 52.54 31.7734L52.1605 31.5916C52.0418 31.3409 51.8601 31.1594 51.7108 31.0641C51.4589 30.9033 51.1548 30.8735 50.8654 30.9813C50.781 31.049 50.718 31.0929 50.6704 31.1216L50.8045 31.208C50.9319 31.1823 51.0786 31.1702 51.2257 31.1958L51.4386 31.6167L51.4734 31.6392L51.7419 31.8122L51.5125 31.763L51.7139 32.1612L51.2508 32.2688L51.2373 32.2696L51.2416 32.2709L51.2212 32.2757L51.2075 32.2713L51.177 32.273L51.2038 32.2797L51.2212 32.2757L51.3383 32.3135L51.5217 32.3595L51.542 32.3659L51.5759 32.3731L51.8567 32.4436L51.8505 32.4313L52.5087 32.5709C52.5232 32.5086 52.535 32.4455 52.5438 32.3821C52.5461 32.3658 52.5482 32.3494 52.5501 32.3331L52.9388 32.5836C52.9553 32.4716 52.9719 32.3275 52.979 32.1707L53.3208 32.1512L53.3356 32.1544ZM52.5617 32.1943L52.979 32.1707C52.9804 32.1404 52.9814 32.1096 52.9819 32.0785L52.562 31.9883L52.5607 31.9644L52.5079 31.9767L52.2669 31.9249C52.2456 31.8034 52.2081 31.692 52.1605 31.5916L51.1911 31.1272L51.2257 31.1958C51.4484 31.2345 51.6719 31.3595 51.8298 31.6539L51.9052 31.8473L51.7419 31.8122L51.9418 31.941L52.0016 32.0943L51.7139 32.1612L51.7539 32.2402L51.2508 32.2688L51.2416 32.2709L51.5217 32.3595L51.5759 32.3731L51.8505 32.4313L51.7539 32.2402L52.3532 32.2062L52.5501 32.3331C52.5555 32.2869 52.5594 32.2406 52.5617 32.1943ZM52.2864 32.1631L52.3532 32.2062L52.5617 32.1943C52.5652 32.1254 52.5653 32.0566 52.562 31.9883L52.5079 31.9767L52.2808 32.0295C52.2775 31.9938 52.2728 31.959 52.2669 31.9249L51.9052 31.8473L51.9418 31.941L52.1325 32.0639L52.0016 32.0943L52.0474 32.2116L52.2855 32.1998C52.286 32.1875 52.2863 32.1753 52.2864 32.1631ZM52.2864 32.1631C52.2868 32.1175 52.2848 32.0729 52.2808 32.0295L52.1325 32.0639L52.2864 32.1631ZM53.3356 32.1544L53.4014 32.1859L53.4024 32.172L53.3902 32.1661L53.3356 32.1544Z" fill="#ABABAB"/>
<path fill-rule="evenodd" clip-rule="evenodd" d="M35.5538 27.9801C34.24 28.3835 33.0564 29.2559 32.1633 30.4591C32.2215 30.497 32.2793 30.5362 32.3366 30.5766C32.475 30.6743 32.6092 30.7783 32.7391 30.8885C33.5085 29.8941 34.5097 29.1728 35.6167 28.8329C37.0583 28.3903 38.5615 28.6308 39.7955 29.5016C41.0295 30.3724 41.8933 31.802 42.1968 33.4761C42.4403 34.8187 42.3074 36.2302 41.8301 37.5087C42.1167 37.6252 42.3955 37.7679 42.664 37.9363C43.2164 36.4671 43.3711 34.843 43.091 33.2987C42.7433 31.3811 41.7539 29.7435 40.3404 28.7461C38.9269 27.7487 37.2051 27.4731 35.5538 27.9801ZM41.3712 37.3463C41.8215 36.1702 41.9495 34.8663 41.7248 33.6271C41.4488 32.1052 40.6636 30.8056 39.5417 30.0139C38.4199 29.2223 37.0534 29.0037 35.7428 29.406C34.7419 29.7133 33.8362 30.3637 33.1382 31.26C33.274 31.3986 33.404 31.5444 33.5278 31.6969C34.1552 30.8941 34.968 30.3116 35.866 30.0359C37.0455 29.6738 38.2754 29.8706 39.285 30.583C40.2947 31.2955 41.0014 32.4652 41.2498 33.8349C41.455 34.967 41.3333 36.1591 40.913 37.2301C41.0673 37.2619 41.2201 37.3006 41.3712 37.3463ZM40.2239 37.1353C40.651 36.177 40.7861 35.0849 40.5988 34.052C40.3891 32.8954 39.7923 31.9076 38.9397 31.306C38.0871 30.7043 37.0486 30.5382 36.0525 30.8439C35.2548 31.0889 34.5366 31.6206 33.9966 32.3539C34.0981 32.5159 34.1936 32.6835 34.2828 32.8561C34.7605 32.1536 35.4201 31.6444 36.1582 31.4178C37.0231 31.1523 37.925 31.2966 38.6654 31.819C39.4058 32.3415 39.9241 33.1993 40.1062 34.2037C40.285 35.1898 40.1255 36.2378 39.6628 37.1254C39.8508 37.1189 40.038 37.1222 40.2239 37.1353ZM39.5949 37.1282L38.1665 36.1203L38.1685 36.1163L39.2386 36.8714C39.6483 36.1095 39.7916 35.2026 39.6371 34.3504C39.4826 33.4981 39.0428 32.7703 38.4146 32.327C37.7864 31.8837 37.0211 31.7612 36.2872 31.9866C35.5828 32.2028 34.9627 32.7224 34.5518 33.4375C34.5757 33.4957 34.599 33.5544 34.6216 33.6135L35.4626 34.2069L35.4604 34.2107L34.6244 33.6208L34.6288 33.6325L35.457 34.2168L35.4538 34.2224L34.6329 33.643L34.6334 33.6445L35.4534 34.2232L35.453 34.2239L34.634 33.646L34.6463 33.6788L35.4434 34.2413L35.4357 34.2554L36.7892 35.2105L38.1428 36.1657L38.1504 36.1514L39.5388 37.1312C39.5494 37.1306 39.56 37.13 39.5706 37.1294L38.1596 36.1338L38.16 36.133L39.572 37.1294C39.5724 37.1293 39.5729 37.1293 39.5734 37.1293L38.1604 36.1322L38.1633 36.1265L39.5837 37.1288C39.5874 37.1286 39.5912 37.1284 39.5949 37.1282ZM37.8324 35.893L38.1633 36.1265L38.1665 36.1203L37.8356 35.8867L37.8375 35.8828L38.1685 36.1163L38.1743 36.1048L38.6018 36.4065L38.6021 36.4061L38.9202 36.6306C39.2714 35.9775 39.3942 35.2002 39.2618 34.4697C39.1293 33.7392 38.7524 33.1153 38.2139 32.7353C37.6754 32.3554 37.0195 32.2504 36.3904 32.4435C35.7614 32.6367 35.2107 33.1121 34.8595 33.7652L35.2182 34.0183L35.2179 34.0187L35.469 34.1959L35.4626 34.2069L35.8084 34.4509L35.8062 34.4547L35.4604 34.2107L35.457 34.2168L35.8027 34.4608L35.7996 34.4663L35.4538 34.2224L35.4534 34.2232L35.7992 34.4671L35.7987 34.4679L35.453 34.2239L35.4434 34.2413L35.7891 34.4853L35.7852 34.4926L36.8004 35.2089L37.8155 35.9253L37.8194 35.9179L38.1504 36.1514L38.1596 36.1338L37.8287 35.9003L37.8291 35.8995L38.16 36.133L38.1604 36.1322L37.8295 35.8987L37.8324 35.893ZM37.5879 35.7205L37.8324 35.893L37.8356 35.8867L37.5912 35.7143L37.5932 35.7103L37.8375 35.8828L37.8432 35.8713L38.1743 36.1048L38.1745 36.1044L38.6021 36.4061C38.8945 35.8619 38.9968 35.2144 38.8865 34.6058C38.7761 33.997 38.462 33.4772 38.0132 33.1605C37.5645 32.8439 37.0179 32.7564 36.4937 32.9173C35.9696 33.0782 35.5108 33.4742 35.2182 34.0183L35.4692 34.1954L35.469 34.1959L35.8148 34.4399L35.8084 34.4509L36.071 34.6362L36.0688 34.64L35.8062 34.4547L35.8027 34.4608L36.0654 34.6461L36.0623 34.6517L35.7996 34.4663L35.7992 34.4671L36.0619 34.6525L36.0615 34.6533L35.7987 34.4679L35.7891 34.4853L36.8025 35.2003L37.8194 35.9179L37.8287 35.9003L37.5842 35.7278L37.5846 35.727L37.8291 35.8995L37.8295 35.8987L37.585 35.7262L37.5879 35.7205ZM37.585 35.7262L37.5846 35.727L36.8449 35.205L36.0619 34.6525L36.0623 34.6517L36.7612 35.1449L37.585 35.7262ZM37.5842 35.7278L37.5798 35.736L36.8184 35.1987L36.057 34.6615L36.0615 34.6533L36.8433 35.205L37.5842 35.7278ZM37.5879 35.7205L36.8648 35.2102L36.0654 34.6461L36.0688 34.64L36.7833 35.1442L37.5912 35.7143L37.5879 35.7205ZM36.0774 34.6252L35.8148 34.4399L35.8151 34.4395L36.0776 34.6247L36.0774 34.6252ZM37.5989 35.6988L36.9099 35.2126L36.0774 34.6252L36.071 34.6362L36.8699 35.2L37.5932 35.7103L37.5989 35.6988ZM37.5991 35.6984L37.5989 35.6988L37.8432 35.8713L37.8435 35.8708L38.1745 36.1044C38.2733 35.9053 38.3422 35.6887 38.3776 35.4647C38.4166 35.2175 38.4142 34.9662 38.3705 34.7251C38.3268 34.4839 38.2426 34.2577 38.1227 34.0593C38.0029 33.8609 37.8497 33.6943 37.6719 33.5689C37.4942 33.4434 37.2953 33.3617 37.0868 33.3283C36.8782 33.2949 36.6639 33.3106 36.4563 33.3743C36.2486 33.4381 36.0516 33.5487 35.8765 33.6999C35.7178 33.8369 35.58 34.0047 35.4692 34.1954L35.8151 34.4395C35.9912 34.1403 36.2534 33.923 36.5506 33.8318C36.8652 33.7352 37.1931 33.7877 37.4624 33.9777C37.7316 34.1676 37.9201 34.4796 37.9863 34.8448C38.0489 35.19 37.9975 35.556 37.8435 35.8708L37.5991 35.6984ZM37.5991 35.6984C37.7159 35.4615 37.755 35.1857 37.7078 34.9257C37.6582 34.6517 37.5168 34.4178 37.3149 34.2753C37.113 34.1328 36.867 34.0934 36.6311 34.1659C36.4072 34.2346 36.2097 34.3987 36.0776 34.6247L36.8899 35.1979L37.5991 35.6984Z" fill="#ABABAB"/>
<path fill-rule="evenodd" clip-rule="evenodd" d="M25.4715 20.8136C24.1794 21.2403 23.0043 22.1171 22.0951 23.3118C22.1154 23.3257 22.1355 23.3397 22.1557 23.3539C22.3345 23.4801 22.5063 23.617 22.6707 23.7637C23.453 22.7727 24.4484 22.0449 25.5394 21.6846C27.0029 21.2013 28.5183 21.419 29.7524 22.2897C30.9864 23.1605 31.8379 24.6131 32.1195 26.3278C32.3358 27.6447 32.2024 29.0333 31.7504 30.3108C32.0312 30.4316 32.304 30.5777 32.5666 30.7488C33.0999 29.2706 33.2595 27.6593 33.0087 26.1322C32.6861 24.168 31.7108 22.5042 30.2973 21.5068C28.8838 20.5093 27.1479 20.26 25.4715 20.8136ZM31.1793 30.1031C31.5863 28.9456 31.7058 27.6885 31.5099 26.4961C31.2539 24.9373 30.4798 23.6168 29.358 22.8252C28.2361 22.0335 26.8585 21.8357 25.528 22.275C24.5699 22.5915 23.6928 23.2197 22.9931 24.0743C23.1556 24.2428 23.3095 24.4218 23.4543 24.6104C24.0933 23.8037 24.9053 23.2113 25.7949 22.9175C26.9923 22.522 28.2322 22.7001 29.2419 23.4126C30.2515 24.125 30.9482 25.3135 31.1786 26.7165C31.3581 27.8088 31.2434 28.9616 30.8611 30.0187C30.9679 30.0435 31.074 30.0716 31.1793 30.1031ZM30.0579 29.8972C30.4256 28.9643 30.5427 27.9331 30.3826 26.9588C30.188 25.774 29.5997 24.7704 28.7472 24.1688C27.8946 23.5672 26.8475 23.4168 25.8364 23.7507C25.0816 24 24.393 24.5039 23.8521 25.19C23.9561 25.3599 24.0536 25.5356 24.1443 25.7168C24.6271 25.0568 25.2621 24.5728 25.9628 24.3414C26.8409 24.0514 27.7502 24.182 28.4906 24.7044C29.231 25.2269 29.7419 26.0984 29.9109 27.1273C30.0618 28.0457 29.9291 29.0223 29.5423 29.8848C29.715 29.8806 29.887 29.8848 30.0579 29.8972ZM29.1004 29.9136L29.0174 29.8551C29.4307 29.0703 29.5833 28.1481 29.4418 27.2862C29.2984 26.4133 28.8649 25.6738 28.2367 25.2305C27.6085 24.7872 26.837 24.6764 26.0919 24.9224C25.4251 25.1426 24.8284 25.6325 24.4054 26.3002C24.4581 26.4328 24.5074 26.5678 24.5532 26.7049L24.6339 26.7619L24.6307 26.7679L24.5569 26.7159L24.559 26.7222L24.6287 26.7715L24.6278 26.7733L25.2482 27.2112L25.2377 27.2297L24.5712 26.7594L24.5836 26.7978L25.2259 27.2511L25.223 27.2564L24.5867 26.8074L24.5911 26.8214L25.2187 27.2643L25.218 27.2657L26.5715 28.2208L27.9251 29.1759L27.9258 29.1745L28.9912 29.9263C28.9956 29.9257 29 29.9252 29.0043 29.9247L27.9301 29.1666L27.9329 29.1612L29.0132 29.9236C29.0369 29.9207 29.0605 29.9179 29.0841 29.9154L29.0123 29.8647L29.0142 29.8612L29.0901 29.9147C29.0935 29.9143 29.0969 29.914 29.1004 29.9136ZM28.6913 29.6333L29.0142 29.8612L29.0174 29.8551L28.6946 29.6272C29.0546 28.9515 29.1882 28.1549 29.066 27.4108C28.9431 26.6625 28.5716 26.0287 28.0331 25.6487C27.4946 25.2687 26.8333 25.1738 26.1947 25.3847C25.5597 25.5944 24.9988 26.0895 24.6339 26.7619L25.2547 27.2L25.2513 27.2059L24.6307 26.7679L24.6287 26.7715L25.2493 27.2094L25.2482 27.2112L25.6068 27.4642L25.5963 27.4828L25.2377 27.2297L25.2259 27.2511L26.6 28.2207L27.9329 29.1612L27.9442 29.1396L29.0013 29.8855L29.0123 29.8647L28.6894 29.6369L28.6913 29.6333ZM27.9567 29.1149L28.6913 29.6333L28.6946 29.6272L27.9598 29.1088L27.9616 29.105L28.3785 29.3992C28.6824 28.8341 28.7956 28.1662 28.6932 27.5427C28.5908 26.9191 28.2811 26.3909 27.8324 26.0743C27.3837 25.7576 26.8326 25.6785 26.3004 25.8542C25.7682 26.03 25.2985 26.4462 24.9946 27.0114L25.2568 27.1964L25.2547 27.2L25.6133 27.453L25.6098 27.4589L25.2513 27.2059L25.2493 27.2094L25.6079 27.4624L25.6068 27.4642L25.8794 27.6565L25.8691 27.6753L25.5963 27.4828L25.5848 27.5038L26.6 28.2201L27.6152 28.9365L27.6264 28.9153L27.9442 29.1396L27.9539 29.1204L28.6884 29.6387L28.6894 29.6369L27.9549 29.1185L27.9567 29.1149ZM27.6389 28.8907L27.9567 29.1149L27.9598 29.1088L27.642 28.8845L27.6438 28.8808L27.9616 29.105C28.0626 28.9005 28.1342 28.679 28.1728 28.4508C28.216 28.1959 28.2174 27.9376 28.1768 27.6906C28.1362 27.4436 28.0545 27.2128 27.9364 27.0112C27.8182 26.8097 27.6659 26.6414 27.4882 26.5159C27.3104 26.3905 27.1107 26.3104 26.9004 26.2802C26.6901 26.25 26.4734 26.2703 26.2626 26.3399C26.0518 26.4095 25.851 26.5271 25.6718 26.6859C25.5113 26.8282 25.3708 27.001 25.2568 27.1964L25.6154 27.4494L25.6133 27.453L25.8858 27.6453L25.8824 27.6512L25.6098 27.4589L25.6079 27.4624L25.8804 27.6547L25.8794 27.6565L26.6581 28.206L27.4018 28.7308L27.3919 28.7498L26.6325 28.214L25.8691 27.6753L25.8686 27.6761L26.63 28.2134L27.3914 28.7507L27.3919 28.7498L27.6264 28.9153L27.6362 28.8962L27.9539 29.1204L27.9549 29.1185L27.6371 28.8943L27.6389 28.8907ZM27.4046 28.7254L27.6389 28.8907L27.642 28.8845L27.4077 28.7192L27.4096 28.7155L27.6438 28.8808C27.8045 28.554 27.8621 28.1764 27.804 27.8225C27.7425 27.4484 27.5567 27.1315 27.2875 26.9415C27.0183 26.7515 26.6876 26.704 26.3683 26.8095C26.0663 26.9092 25.7978 27.138 25.6154 27.4494L25.8878 27.6417L25.8858 27.6453L26.6014 28.1502L27.4077 28.7192L27.4046 28.7254ZM27.4028 28.729L27.6371 28.8943L27.6362 28.8962L27.4018 28.7308L27.4028 28.729ZM27.4028 28.729L27.4046 28.7254L26.6879 28.2196L25.8824 27.6512L25.8804 27.6547L26.6638 28.2075L27.4028 28.729ZM25.8878 27.6417L26.6866 28.2053L27.4096 28.7155C27.5326 28.4689 27.577 28.183 27.533 27.9152C27.4869 27.6346 27.3476 27.3969 27.1456 27.2544C26.9437 27.1119 26.6957 27.0763 26.4562 27.1554C26.2277 27.2309 26.0248 27.4049 25.8878 27.6417ZM27.9301 29.1666L26.4934 28.1528L25.223 27.2564L25.2187 27.2643L26.5701 28.2179L27.9258 29.1745L27.9301 29.1666Z" fill="#ABABAB"/>
<path fill-rule="evenodd" clip-rule="evenodd" d="M43.6261 31.2035C43.8743 31.308 44.1171 31.4304 44.3531 31.5703C44.6236 31.4137 44.9057 31.286 45.1961 31.1901C46.3935 30.7946 47.6334 30.9727 48.643 31.6852C49.6527 32.3976 50.3494 33.586 50.5798 34.989C50.6644 35.504 50.6836 36.0325 50.6402 36.558C50.7417 36.6759 50.8394 36.7983 50.933 36.9248C51.0329 36.2064 51.0276 35.4765 50.9115 34.7695C50.6554 33.2106 49.8814 31.8901 48.7595 31.0985C47.6377 30.3068 46.26 30.109 44.9296 30.5484C44.4732 30.6991 44.0352 30.9205 43.6261 31.2035ZM51.4154 37.6761C51.6471 36.6638 51.687 35.6112 51.5211 34.6008C51.2394 32.886 50.3879 31.4334 49.1539 30.5627C47.9199 29.6919 46.4045 29.4742 44.941 29.9576C44.2753 30.1774 43.6452 30.5341 43.0774 31.0038C42.7818 30.9128 42.4801 30.8456 42.1744 30.8027C42.9604 30.0059 43.8824 29.4141 44.8731 29.0869C46.5494 28.5333 48.2853 28.7826 49.6988 29.7801C51.1123 30.7775 52.0877 32.4413 52.4103 34.4055C52.6185 35.673 52.5439 36.9986 52.2075 38.2579C52.0417 38.254 51.8752 38.257 51.7082 38.267C51.6186 38.0638 51.5209 37.8666 51.4154 37.6761ZM48.2229 34.8855C48.0369 34.4892 47.7677 34.1571 47.4346 33.922C47.1334 33.7094 46.7937 33.5861 46.4411 33.5555C46.3274 33.3895 46.2079 33.2293 46.0827 33.0753C46.6337 33.0308 47.1749 33.1769 47.6382 33.5038C48.1514 33.8659 48.5346 34.4256 48.7359 35.0943C48.5678 35.0154 48.3967 34.9458 48.2229 34.8855ZM49.8453 35.788C49.7543 35.715 49.6612 35.6449 49.5661 35.5778C49.4832 35.5192 49.3991 35.4633 49.314 35.4099C49.3135 35.4068 49.313 35.4037 49.3125 35.4006C49.1435 34.3717 48.6326 33.5002 47.8922 32.9777C47.2192 32.5029 46.4068 32.3517 45.6051 32.5458C45.4392 32.3802 45.2656 32.2242 45.0847 32.0785C45.1354 32.0592 45.1865 32.041 45.2379 32.024C46.2491 31.6901 47.2961 31.8405 48.1487 32.4421C49.0013 33.0437 49.5896 34.0473 49.7842 35.2321C49.8144 35.4157 49.8347 35.6013 49.8453 35.788Z" fill="#ABABAB"/>
<path fill-rule="evenodd" clip-rule="evenodd" d="M34.966 22.118C34.0608 22.417 33.2131 22.9368 32.4739 23.632C32.7678 23.6985 33.0569 23.7879 33.3392 23.9C33.8621 23.4965 34.4335 23.1869 35.0339 22.9887C36.4974 22.5053 38.0129 22.723 39.2469 23.5938C40.4809 24.4646 41.3324 25.9171 41.614 27.6319C41.7994 28.7604 41.7279 29.9417 41.4192 31.0606C41.5378 31.2948 41.645 31.5376 41.7402 31.7881C41.8569 31.8491 41.9721 31.9147 42.0854 31.9849C42.5992 30.5255 42.7502 28.9402 42.5032 27.4366C42.1806 25.4724 41.2053 23.8086 39.7918 22.8112C38.3783 21.8137 36.6424 21.5644 34.966 22.118ZM38.8876 28.3454C38.726 28.2546 38.5613 28.1724 38.3938 28.099C38.2091 27.6221 37.9106 27.2234 37.5276 26.9531C37.203 26.7241 36.8337 26.5986 36.4517 26.5812C36.3511 26.4191 36.2452 26.262 36.1341 26.1101C36.6995 26.0547 37.2563 26.1998 37.7312 26.5349C38.2997 26.9361 38.7087 27.5798 38.8876 28.3454ZM39.9471 29.1103C39.7855 28.9642 39.6167 28.8272 39.4413 28.7002C39.432 28.6103 39.42 28.5207 39.4054 28.4317C39.2364 27.4028 38.7255 26.5313 37.9851 26.0088C37.3135 25.5349 36.5029 25.3834 35.7026 25.5758C35.5509 25.4057 35.3917 25.2441 35.2255 25.0917C35.2605 25.079 35.2956 25.0668 35.3309 25.0552C36.342 24.7212 37.3891 24.8716 38.2417 25.4732C39.0942 26.0749 39.6825 27.0784 39.8771 28.2632C39.923 28.5421 39.9461 28.8257 39.9471 29.1103ZM40.9707 30.296C40.8835 30.1668 40.7924 30.0413 40.6976 29.9197C40.7817 29.2862 40.7751 28.6433 40.6727 28.0202C40.4423 26.6172 39.7456 25.4287 38.736 24.7163C37.7263 24.0038 36.4864 23.8257 35.289 24.2212C35.0333 24.3056 34.784 24.4148 34.5433 24.5466C34.3231 24.3942 34.096 24.258 33.8632 24.1382C34.2305 23.901 34.6193 23.7126 35.0225 23.5795C36.353 23.1401 37.7306 23.338 38.8525 24.1296C39.9743 24.9212 40.7484 26.2417 41.0044 27.8006C41.1389 28.6196 41.1247 29.4692 40.9707 30.296Z" fill="#ABABAB"/>
<path fill-rule="evenodd" clip-rule="evenodd" d="M21.9646 17.664C22.8737 16.4695 24.0487 15.593 25.3406 15.1663C27.0169 14.6127 28.7528 14.8621 30.1663 15.8595C31.5798 16.8569 32.5552 18.5207 32.8778 20.4849C33.1294 22.017 32.9679 23.634 32.4303 25.1162C32.1692 24.9463 31.898 24.8012 31.619 24.6811C32.0714 23.4032 32.2049 22.014 31.9886 20.6967C31.7069 18.9819 30.8554 17.5293 29.6214 16.6586C28.3874 15.7878 26.872 15.5701 25.4085 16.0535C24.3212 16.4125 23.3288 17.1366 22.5477 18.1224C22.3816 17.9736 22.2077 17.835 22.0267 17.7073C22.0061 17.6927 21.9854 17.6783 21.9646 17.664ZM30.9562 23.5586C31.1373 22.7434 31.1665 21.8975 31.0331 21.0849C30.8026 19.6819 30.1059 18.4935 29.0963 17.781C28.0867 17.0686 26.8467 16.8905 25.6493 17.286C24.7664 17.5775 23.9599 18.1633 23.3231 18.9607C23.1808 18.7756 23.0297 18.5997 22.8703 18.4339C23.5686 17.5844 24.4426 16.9598 25.3971 16.6446C26.7275 16.2052 28.1052 16.4031 29.227 17.1947C30.3489 17.9863 31.1229 19.3068 31.379 20.8657C31.5498 21.9057 31.4807 22.9949 31.1902 24.0244C31.1172 23.8652 31.0392 23.7098 30.9562 23.5586ZM30.4306 22.7429C30.4793 22.2641 30.4665 21.7812 30.3894 21.3115C30.1948 20.1267 29.6065 19.1232 28.7539 18.5215C27.9013 17.9199 26.8543 17.7695 25.8431 18.1035C25.0524 18.3646 24.3342 18.9052 23.7826 19.6421C23.8641 19.7805 23.9415 19.9226 24.0144 20.0682C24.4971 19.4089 25.1317 18.9253 25.8319 18.6941C26.71 18.4041 27.6193 18.5347 28.3597 19.0571C29.1001 19.5796 29.611 20.4511 29.78 21.48C29.8115 21.6717 29.8306 21.866 29.8376 22.0613C30.0496 22.2717 30.2476 22.4995 30.4306 22.7429ZM29.321 21.6048C29.1706 20.7507 28.7411 20.0283 28.1233 19.5924C27.4951 19.1491 26.7236 19.0383 25.9785 19.2843C25.3078 19.5058 24.708 20.0002 24.2845 20.674C24.2918 20.6924 24.299 20.7109 24.3062 20.7295C24.4955 20.6684 24.6855 20.6176 24.8757 20.5768C25.2056 20.1877 25.6136 19.9013 26.0579 19.7546C26.6965 19.5437 27.3578 19.6387 27.8963 20.0187C28.298 20.3021 28.6068 20.7269 28.7888 21.2351C28.8918 21.2981 28.9933 21.3648 29.0932 21.4353C29.1704 21.4898 29.2464 21.5464 29.321 21.6048Z" fill="#ABABAB"/>
<path fill-rule="evenodd" clip-rule="evenodd" d="M42.257 31.8216C42.161 31.4821 42.0465 31.1533 41.9144 30.8371C43.3073 30.7144 44.6768 31.0787 45.8474 31.9047C46.886 32.6376 47.7118 33.6944 48.2556 34.9574C47.8874 34.9414 47.5153 34.9599 47.1424 35.0133C46.6747 34.0984 46.0275 33.3295 45.24 32.7738C44.3446 32.142 43.3159 31.8197 42.257 31.8216ZM41.5497 39.1832C41.5507 39.1813 41.5518 39.1795 41.5528 39.1776L41.4889 39.1325L41.486 39.1382L41.5497 39.1832ZM41.5557 39.1725C41.5551 39.1736 41.5544 39.1748 41.5538 39.1759L41.4898 39.1308L41.4916 39.1272L41.5557 39.1725ZM41.5588 39.167C41.5584 39.1678 41.5579 39.1686 41.5574 39.1695L41.4931 39.1241L41.4945 39.1215L41.5588 39.167ZM41.5656 39.155C41.5645 39.1569 41.5634 39.1588 41.5623 39.1607L41.4977 39.1151L41.5007 39.1093L41.5656 39.155ZM41.5706 39.1461C41.5703 39.1466 41.57 39.1471 41.5697 39.1477L41.5045 39.1017L41.5053 39.1L41.5706 39.1461ZM41.5879 39.1157C41.5864 39.1183 41.5849 39.121 41.5834 39.1237L41.517 39.0768L41.5211 39.0685L41.5879 39.1157ZM42.4592 37.8358C42.3673 37.9494 42.2777 38.0659 42.1904 38.1851C42.1077 38.1526 42.0211 38.1336 41.9327 38.1286C41.9826 37.9971 42.0298 37.8646 42.0743 37.7313C42.2074 37.7425 42.3371 37.7776 42.4592 37.8358ZM42.8355 37.3994C42.9466 37.2786 43.0605 37.1616 43.1769 37.0486C43.153 37.03 43.1287 37.012 43.104 36.9946C42.877 36.8345 42.6265 36.729 42.3651 36.68C42.3269 36.8527 42.2843 37.0245 42.2373 37.1951C42.2513 37.1967 42.2652 37.1985 42.2791 37.2005C42.4753 37.2287 42.6633 37.296 42.8355 37.3994ZM43.5935 36.6701C43.7399 36.5459 43.8896 36.4276 44.0424 36.3155C43.9376 36.2147 43.8261 36.1224 43.7085 36.0394C43.3544 35.7896 42.9594 35.6348 42.5481 35.5786C42.5275 35.763 42.5019 35.9471 42.4715 36.1305C42.7988 36.1859 43.1127 36.3148 43.396 36.5147C43.4643 36.5629 43.5302 36.6148 43.5935 36.6701ZM44.5133 35.9961C44.707 35.8749 44.9049 35.7633 45.1063 35.6619C44.8606 35.3475 44.5766 35.074 44.2597 34.8504C43.7577 34.4961 43.1949 34.2827 42.6096 34.2156C42.6147 34.4495 42.6116 34.684 42.6006 34.9185C43.0653 34.9907 43.5111 35.1703 43.9123 35.4534C44.1315 35.6081 44.3326 35.7903 44.5133 35.9961ZM46.0441 35.2725C46.1882 35.2249 46.3327 35.1826 46.4774 35.1457C46.0672 34.4309 45.5305 33.8267 44.8925 33.3765C44.1474 32.8508 43.3007 32.5607 42.4243 32.5167C42.4457 32.6234 42.4653 32.731 42.4831 32.8394C42.5061 32.9794 42.526 33.1201 42.5428 33.2612C43.3025 33.3141 44.0353 33.5733 44.6828 34.0302C45.1632 34.3691 45.5797 34.805 45.9192 35.3151C45.9607 35.3005 46.0023 35.2862 46.0441 35.2725Z" fill="#ABABAB"/>
<path fill-rule="evenodd" clip-rule="evenodd" d="M42.1501 34.5143L42.1415 34.5302L43.2656 35.3235L43.2628 35.3287L44.7667 36.3899L46.2706 37.4512L46.2734 37.4459L47.4052 38.2445L47.4137 38.2286L46.6784 37.7097L46.6781 37.7103L46.2816 37.4305L46.2819 37.4299L45.6306 36.9704L45.6303 36.971L44.7982 36.3838L43.9385 35.7771L43.9388 35.7765L43.2743 35.3076L43.2739 35.3082L42.9183 35.0572L42.9186 35.0566L42.1501 34.5143ZM50.7248 40.5599L50.729 40.5628C51.7926 38.5847 52.1887 36.2473 51.8303 34.0649C51.4718 31.8825 50.3881 30.0338 48.8176 28.9256C47.5913 28.0603 46.1466 27.7017 44.6855 27.8789C46.1445 27.7035 47.5868 28.0622 48.8114 28.9264C50.3819 30.0346 51.4656 31.8833 51.8241 34.0657C52.1823 36.2467 51.7869 38.5825 50.7248 40.5599ZM43.2739 35.3082L43.9385 35.7771L43.9345 35.7845L44.7804 36.3814L45.6264 36.9784L45.6303 36.971L46.2816 37.4305L46.2734 37.4459L44.7733 36.3874L43.2656 35.3235L43.2739 35.3082Z" fill="#ABABAB"/>
<path fill-rule="evenodd" clip-rule="evenodd" d="M42.0001 26.0428C41.9025 25.6973 41.7857 25.363 41.6507 25.0418C43.0458 24.9173 44.4177 25.2814 45.5901 26.1087C46.64 26.8495 47.4723 27.9213 48.0158 29.2024C47.8705 29.1921 47.7245 29.1872 47.578 29.1876C47.3472 29.1882 47.1152 29.2022 46.8827 29.2298C46.4153 28.317 45.7689 27.5498 44.9827 26.9951C44.0875 26.3633 43.0589 26.041 42.0001 26.0428ZM46.218 29.3457C45.8081 28.6325 45.2721 28.0297 44.6352 27.5803C43.8892 27.0539 43.0413 26.7638 42.1638 26.7204C42.1864 26.8324 42.2071 26.9454 42.2258 27.0593C42.2479 27.194 42.2672 27.3293 42.2836 27.4651C43.044 27.5178 43.7775 27.7769 44.4255 28.2342C44.901 28.5697 45.3139 29.0002 45.6515 29.5035C45.8398 29.4418 46.0288 29.3892 46.218 29.3457ZM44.8151 29.8407C44.5773 29.5443 44.3048 29.2854 44.0024 29.0721C43.5004 28.7178 42.9377 28.5043 42.3523 28.4372C42.3573 28.6653 42.3545 28.894 42.344 29.1226C42.8084 29.195 43.254 29.3745 43.655 29.6575C43.8603 29.8023 44.0498 29.9714 44.2214 30.1612C44.4155 30.0446 44.6136 29.9376 44.8151 29.8407ZM43.6491 30.5413C43.5404 30.4354 43.4245 30.3387 43.3019 30.2522C42.9903 30.0323 42.6471 29.8861 42.2888 29.8159C42.2678 30.0011 42.2418 30.186 42.2109 30.3701C42.4929 30.4349 42.763 30.5551 43.0099 30.7294C43.0789 30.7781 43.1454 30.8305 43.2094 30.8865C43.3529 30.7656 43.4995 30.6505 43.6491 30.5413Z" fill="#ABABAB"/>
<path fill-rule="evenodd" clip-rule="evenodd" d="M31.6157 18.7538C31.5118 18.3856 31.3875 18.0293 31.244 17.6867C32.7217 17.5643 34.1734 17.9546 35.4156 18.8311C36.531 19.6182 37.4167 20.7545 37.9982 22.1126C37.8721 22.1074 37.7456 22.106 37.6188 22.1084C37.3753 22.1076 37.1305 22.1208 36.8853 22.1482C36.3859 21.1779 35.6972 20.3622 34.8603 19.7717C33.8875 19.0852 32.7673 18.7404 31.6157 18.7538ZM36.1046 22.2828C35.9137 22.3275 35.7229 22.3808 35.5328 22.4427C35.1746 21.9138 34.7381 21.4611 34.2365 21.1072C33.5359 20.6128 32.742 20.335 31.9194 20.283C31.9015 20.134 31.8805 19.9855 31.8562 19.8377C31.8364 19.7172 31.8146 19.5977 31.7907 19.4791C32.722 19.5289 33.6215 19.8387 34.4137 20.3977C35.0939 20.8777 35.6665 21.5213 36.1046 22.2828ZM34.007 23.1411C34.1996 23.026 34.3958 22.9196 34.5953 22.8225C34.3398 22.5031 34.0469 22.2243 33.7215 21.9947C33.1946 21.6229 32.6052 21.3962 31.9917 21.32C31.9968 21.5628 31.9936 21.8062 31.9824 22.0494C32.4933 22.1226 32.9838 22.3166 33.4241 22.6273C33.6346 22.7759 33.8296 22.9482 34.007 23.1411ZM33.08 23.2599C33.1969 23.3424 33.3081 23.4335 33.4133 23.5326C33.2596 23.6437 33.1087 23.7606 32.961 23.8832C32.9114 23.8424 32.8605 23.8035 32.8082 23.7666C32.5121 23.5577 32.1848 23.4213 31.8433 23.3598C31.8754 23.1672 31.9024 22.9739 31.9242 22.7801C32.3334 22.8491 32.7259 23.01 33.08 23.2599Z" fill="#ABABAB"/>
<path fill-rule="evenodd" clip-rule="evenodd" d="M31.6055 23.5992C31.7375 23.9153 31.852 24.2441 31.948 24.5836C33.0073 24.5814 34.0364 24.9038 34.9321 25.5358C35.7187 26.0909 36.3655 26.8588 36.833 27.7724C37.2102 27.727 37.5863 27.7173 37.9578 27.7428C37.4141 26.4695 36.5846 25.4041 35.5395 24.6666C34.3686 23.8404 32.9987 23.4762 31.6055 23.5992ZM32.0656 30.548C31.9677 30.6669 31.8722 30.789 31.7794 30.914C31.7283 30.9013 31.6761 30.8934 31.6233 30.8905C31.6742 30.7562 31.7224 30.6208 31.7678 30.4845C31.8695 30.4919 31.9695 30.5132 32.0656 30.548ZM32.7991 29.7597C32.6786 29.8741 32.5607 29.9928 32.4456 30.1155C32.2964 30.0379 32.1367 29.9863 31.9712 29.9625C31.9568 29.9604 31.9424 29.9586 31.928 29.9569C31.975 29.7861 32.0177 29.6141 32.0559 29.4412C32.3167 29.4903 32.5667 29.5957 32.7932 29.7555L32.7991 29.7597ZM33.6833 29.0295C33.5312 29.1378 33.382 29.2523 33.2361 29.3727C33.1917 29.3364 33.1461 29.3017 33.0994 29.2687C32.8129 29.0666 32.4951 28.937 32.1638 28.8826C32.1936 28.7024 32.2186 28.5216 32.2389 28.3404C32.6507 28.3964 33.0462 28.5513 33.4006 28.8014C33.4993 28.871 33.5936 28.9472 33.6833 29.0295ZM34.7661 28.3866C34.5613 28.4855 34.3601 28.5947 34.1631 28.7139C33.9928 28.5262 33.8049 28.3589 33.6015 28.2154C33.2008 27.9326 32.7555 27.7531 32.2913 27.6807C32.3024 27.4462 32.3055 27.2117 32.3004 26.9777C32.8852 27.0451 33.4473 27.2585 33.9489 27.6124C34.2532 27.8271 34.5272 28.0879 34.7661 28.3866ZM36.1601 27.8913C35.9722 27.9351 35.7845 27.9879 35.5975 28.0496C35.5955 28.0503 35.5934 28.051 35.5914 28.0517C35.255 27.5525 34.8444 27.1255 34.372 26.7922C33.725 26.3356 32.9928 26.0765 32.2337 26.0233C32.2168 25.8819 32.1969 25.741 32.1739 25.6007C32.1561 25.4925 32.1366 25.3852 32.1153 25.2787C32.992 25.3224 33.8391 25.6125 34.5846 26.1385C35.2177 26.5853 35.7511 27.1836 36.1601 27.8913Z" fill="#ABABAB"/>
<path fill-rule="evenodd" clip-rule="evenodd" d="M34.1691 34.3169C34.0821 34.0098 33.9782 33.7126 33.8584 33.4268C35.0983 33.3266 36.3161 33.6553 37.3585 34.3909C38.2969 35.0531 39.0422 36.009 39.5316 37.1515C39.1976 37.1289 38.8596 37.138 38.5205 37.179C38.1 36.3602 37.5194 35.6719 36.8136 35.1739C36.0191 34.6132 35.1079 34.3233 34.1691 34.3169ZM37.9754 37.2727C37.6084 36.6418 37.1311 36.1081 36.5654 35.7089C35.8875 35.2306 35.1162 34.969 34.3183 34.9339C34.3386 35.0342 34.3571 35.1354 34.3738 35.2374C34.3941 35.3606 34.4116 35.4842 34.4265 35.6084C35.0925 35.6636 35.7342 35.8954 36.3028 36.2966C36.7284 36.597 37.0984 36.9819 37.4013 37.4318C37.4051 37.4305 37.409 37.4293 37.4128 37.428C37.5998 37.3663 37.7875 37.3145 37.9754 37.2727ZM36.6657 37.7307C36.4544 37.4701 36.2132 37.2422 35.9461 37.0537C35.5019 36.7403 35.005 36.5493 34.4879 36.4855C34.4921 36.6888 34.4895 36.8926 34.4801 37.0963C34.9034 37.1599 35.3096 37.3223 35.6748 37.5799C35.849 37.7029 36.0105 37.8451 36.1578 38.0042C36.324 37.9051 36.4934 37.8139 36.6657 37.7307ZM35.6861 38.3127C35.6056 38.239 35.5211 38.1708 35.4327 38.1084C35.1268 37.8925 34.7869 37.7555 34.4326 37.7001C34.4147 37.8613 34.3925 38.0221 34.3662 38.1823C34.673 38.2289 34.9673 38.3468 35.232 38.5336C35.2604 38.5536 35.2882 38.5743 35.3156 38.5957C35.4368 38.4968 35.5603 38.4024 35.6861 38.3127ZM34.8967 38.9647C34.8937 38.9626 34.8908 38.9605 34.8878 38.9584C34.6971 38.8239 34.488 38.7322 34.2697 38.6847C34.2348 38.8431 34.1959 39.0006 34.1528 39.157C34.2953 39.1834 34.4323 39.233 34.5603 39.3042C34.6696 39.1869 34.7818 39.0737 34.8967 38.9647ZM34.2244 39.6883C34.1538 39.6631 34.081 39.646 34.0069 39.6372C33.9662 39.7593 33.923 39.8805 33.8773 40.0008C33.9107 40.0002 33.9439 40.0017 33.9768 40.0054C34.0572 39.8972 34.1398 39.7914 34.2244 39.6883Z" fill="#ABABAB"/>
</mask>
<g mask="url(#mask0_1195_17191)">
<path d="M37.3548 30.2733C37.3548 30.2733 36.1866 32.0062 32.6042 30.424C29.0217 28.8042 27.6199 30.2357 27.6199 30.2357C26.88 33.3623 29.3721 36.4135 32.2926 36.6395C34.8237 36.8279 38.0168 33.9273 37.3548 30.2733Z" fill="#C53A1B"/>
<path d="M32.6042 30.424C36.1866 32.0062 37.3548 30.2733 37.3548 30.2733L37.1405 28.2374C36.3174 28.666 34.2579 29.2918 32.6042 28.3661C30.9504 27.4403 29.1031 27.5517 28.3862 27.7232L27.6199 30.2357C27.6199 30.2357 29.0217 28.8042 32.6042 30.424Z" fill="#C53A1B"/>
<path d="M29.9425 32.6072C29.0447 29.9071 30.8404 27.7213 30.8404 27.7213C30.8404 27.7213 29.6058 27.4641 28.3713 27.7211L27.6049 30.2337C26.8651 33.3603 29.7181 37.8788 34.0952 36.4645C34.0952 36.4645 30.8404 35.3073 29.9425 32.6072Z" fill="#A0260B"/>
</g>
</svg>
