<svg width="42" height="12" viewBox="0 0 42 12" fill="none" xmlns="http://www.w3.org/2000/svg">
<g clip-path="url(#clip0_1197_7655)">
<rect width="41.4193" height="11.1609" rx="5.58045" fill="#C53A1B"/>
<path d="M4.27259 3.947H4.63758L5.49578 6.04319H5.52538L6.38358 3.947H6.74857V6.47229H6.4625V4.55366H6.43784L5.64868 6.47229H5.37248L4.58332 4.55366H4.55866V6.47229H4.27259V3.947ZM8.11633 6.51175C7.93384 6.51175 7.77642 6.47147 7.64407 6.39091C7.51255 6.30953 7.41102 6.19609 7.33951 6.05059C7.26881 5.90426 7.23346 5.7341 7.23346 5.5401C7.23346 5.3461 7.26881 5.17512 7.33951 5.02715C7.41102 4.87836 7.51049 4.76246 7.63791 4.67943C7.76614 4.59558 7.91575 4.55366 8.08674 4.55366C8.18538 4.55366 8.28279 4.5701 8.37897 4.60298C8.47515 4.63586 8.5627 4.68929 8.64161 4.76328C8.72053 4.83644 8.78341 4.93344 8.83027 5.05428C8.87712 5.17512 8.90055 5.32391 8.90055 5.50064V5.62395H7.44062V5.37241H8.60462C8.60462 5.26554 8.58325 5.17019 8.5405 5.08634C8.49858 5.00249 8.43857 4.93632 8.36048 4.88782C8.2832 4.83932 8.19196 4.81507 8.08674 4.81507C7.97083 4.81507 7.87054 4.84384 7.78587 4.90138C7.70202 4.9581 7.63749 5.03208 7.59228 5.12333C7.54707 5.21458 7.52447 5.3124 7.52447 5.4168V5.58449C7.52447 5.72753 7.54913 5.84878 7.59845 5.94824C7.64859 6.04689 7.71805 6.1221 7.80683 6.17389C7.89561 6.22486 7.99878 6.25034 8.11633 6.25034C8.19278 6.25034 8.26183 6.23965 8.32348 6.21828C8.38596 6.19609 8.4398 6.1632 8.48501 6.11964C8.53023 6.07525 8.56516 6.02017 8.58982 5.95441L8.87096 6.03332C8.84137 6.12868 8.79163 6.21253 8.72176 6.28487C8.65189 6.35638 8.56557 6.41228 8.46282 6.45256C8.36006 6.49202 8.24457 6.51175 8.11633 6.51175ZM9.63422 5.33295V6.47229H9.34322V4.57832H9.62436V4.87425H9.64902C9.69341 4.77807 9.76081 4.7008 9.85124 4.64244C9.94166 4.58325 10.0584 4.55366 10.2014 4.55366C10.3297 4.55366 10.4419 4.57996 10.538 4.63257C10.6342 4.68436 10.709 4.76328 10.7625 4.86932C10.8159 4.97454 10.8426 5.10771 10.8426 5.26883V6.47229H10.5516V5.28856C10.5516 5.13977 10.513 5.02386 10.4357 4.94084C10.3584 4.85699 10.2524 4.81507 10.1176 4.81507C10.0247 4.81507 9.94166 4.83521 9.8685 4.87549C9.79616 4.91577 9.73903 4.97454 9.69711 5.05181C9.65518 5.12908 9.63422 5.2228 9.63422 5.33295ZM12.198 4.57832V4.82493H11.2165V4.57832H12.198ZM11.5026 4.12456H11.7936V5.92975C11.7936 6.01195 11.8055 6.0736 11.8294 6.1147C11.854 6.15498 11.8853 6.18211 11.9231 6.19609C11.9617 6.20924 12.0024 6.21581 12.0451 6.21581C12.0772 6.21581 12.1035 6.21417 12.1241 6.21088C12.1446 6.20677 12.1611 6.20348 12.1734 6.20102L12.2326 6.46243C12.2128 6.46982 12.1853 6.47722 12.15 6.48462C12.1146 6.49284 12.0698 6.49695 12.0156 6.49695C11.9334 6.49695 11.8528 6.47928 11.7739 6.44393C11.6958 6.40858 11.6308 6.35474 11.5791 6.2824C11.5281 6.21006 11.5026 6.11881 11.5026 6.00866V4.12456ZM13.3849 6.51175C13.2139 6.51175 13.0639 6.47106 12.9348 6.38968C12.8066 6.30829 12.7063 6.19444 12.6339 6.04812C12.5624 5.9018 12.5267 5.73081 12.5267 5.53517C12.5267 5.33788 12.5624 5.16566 12.6339 5.01852C12.7063 4.87138 12.8066 4.75711 12.9348 4.67573C13.0639 4.59435 13.2139 4.55366 13.3849 4.55366C13.5558 4.55366 13.7055 4.59435 13.8337 4.67573C13.9628 4.75711 14.063 4.87138 14.1346 5.01852C14.2069 5.16566 14.2431 5.33788 14.2431 5.53517C14.2431 5.73081 14.2069 5.9018 14.1346 6.04812C14.063 6.19444 13.9628 6.30829 13.8337 6.38968C13.7055 6.47106 13.5558 6.51175 13.3849 6.51175ZM13.3849 6.25034C13.5147 6.25034 13.6216 6.21705 13.7055 6.15046C13.7893 6.08388 13.8514 5.99633 13.8916 5.88782C13.9319 5.77931 13.9521 5.66176 13.9521 5.53517C13.9521 5.40858 13.9319 5.29061 13.8916 5.18128C13.8514 5.07195 13.7893 4.98358 13.7055 4.91618C13.6216 4.84877 13.5147 4.81507 13.3849 4.81507C13.255 4.81507 13.1481 4.84877 13.0643 4.91618C12.9804 4.98358 12.9184 5.07195 12.8781 5.18128C12.8378 5.29061 12.8177 5.40858 12.8177 5.53517C12.8177 5.66176 12.8378 5.77931 12.8781 5.88782C12.9184 5.99633 12.9804 6.08388 13.0643 6.15046C13.1481 6.21705 13.255 6.25034 13.3849 6.25034ZM14.6873 6.47229V4.57832H14.9684V4.86439H14.9881C15.0227 4.77068 15.0851 4.69464 15.1756 4.63627C15.266 4.57791 15.3679 4.54873 15.4814 4.54873C15.5027 4.54873 15.5294 4.54914 15.5615 4.54996C15.5936 4.55078 15.6178 4.55201 15.6343 4.55366V4.84959C15.6244 4.84713 15.6018 4.84343 15.5664 4.83849C15.5319 4.83274 15.4953 4.82986 15.4567 4.82986C15.3646 4.82986 15.2824 4.84918 15.2101 4.88782C15.1386 4.92563 15.0819 4.97824 15.0399 5.04565C14.9988 5.11223 14.9783 5.18827 14.9783 5.27376V6.47229H14.6873ZM17.5131 6.51668C17.3931 6.51668 17.2842 6.49407 17.1864 6.44886C17.0885 6.40283 17.0109 6.33665 16.9533 6.25034C16.8958 6.1632 16.867 6.05798 16.867 5.93468C16.867 5.82617 16.8884 5.73821 16.9311 5.67081C16.9739 5.60258 17.031 5.54914 17.1025 5.51051C17.174 5.47187 17.253 5.4431 17.3393 5.42419C17.4264 5.40447 17.5139 5.38885 17.6019 5.37734C17.717 5.36254 17.8103 5.35144 17.8818 5.34405C17.9541 5.33583 18.0068 5.32226 18.0396 5.30336C18.0733 5.28445 18.0902 5.25157 18.0902 5.20471V5.19485C18.0902 5.07319 18.0569 4.97865 17.9903 4.91124C17.9246 4.84384 17.8247 4.81013 17.6907 4.81013C17.5518 4.81013 17.4428 4.84055 17.3639 4.90138C17.285 4.96221 17.2295 5.02715 17.1975 5.0962L16.9213 4.99756C16.9706 4.88247 17.0363 4.79287 17.1185 4.72875C17.2016 4.66381 17.292 4.6186 17.3898 4.59312C17.4885 4.56681 17.5855 4.55366 17.6808 4.55366C17.7417 4.55366 17.8115 4.56106 17.8904 4.57585C17.9702 4.58983 18.047 4.61901 18.121 4.6634C18.1958 4.70779 18.2579 4.77479 18.3072 4.86439C18.3565 4.95399 18.3812 5.07401 18.3812 5.22444V6.47229H18.0902V6.21581H18.0754C18.0557 6.25692 18.0228 6.3009 17.9768 6.34775C17.9307 6.39461 17.8695 6.43448 17.793 6.46736C17.7166 6.50024 17.6233 6.51668 17.5131 6.51668ZM17.5575 6.25527C17.6726 6.25527 17.7696 6.23267 17.8485 6.18745C17.9283 6.14224 17.9883 6.08388 18.0285 6.01236C18.0696 5.94084 18.0902 5.86563 18.0902 5.78671V5.52037C18.0779 5.53517 18.0507 5.54873 18.0088 5.56106C17.9677 5.57257 17.92 5.58285 17.8658 5.59189C17.8123 5.60011 17.7601 5.60751 17.7092 5.61408C17.659 5.61984 17.6183 5.62477 17.5871 5.62888C17.5115 5.63875 17.4408 5.65478 17.375 5.67697C17.3101 5.69834 17.2575 5.73081 17.2172 5.77438C17.1777 5.81713 17.158 5.87549 17.158 5.94948C17.158 6.05059 17.1954 6.12704 17.2702 6.17882C17.3458 6.22979 17.4416 6.25527 17.5575 6.25527ZM20.7323 4.57832V4.82493H19.7114V4.57832H20.7323ZM20.0171 6.47229V4.31691C20.0171 4.2084 20.0426 4.11798 20.0936 4.04564C20.1446 3.9733 20.2107 3.91905 20.2921 3.88288C20.3735 3.84671 20.4594 3.82862 20.5498 3.82862C20.6213 3.82862 20.6797 3.83438 20.7249 3.84589C20.7701 3.85739 20.8038 3.86808 20.826 3.87795L20.7422 4.12949C20.7274 4.12456 20.7068 4.11839 20.6805 4.11099C20.655 4.10359 20.6213 4.09989 20.5794 4.09989C20.4832 4.09989 20.4138 4.12414 20.371 4.17264C20.3291 4.22115 20.3081 4.29225 20.3081 4.38596V6.47229H20.0171ZM21.1402 6.47229V4.57832H21.4213V4.86439H21.441C21.4755 4.77068 21.538 4.69464 21.6284 4.63627C21.7189 4.57791 21.8208 4.54873 21.9342 4.54873C21.9556 4.54873 21.9823 4.54914 22.0144 4.54996C22.0464 4.55078 22.0707 4.55201 22.0871 4.55366V4.84959C22.0773 4.84713 22.0547 4.84343 22.0193 4.83849C21.9848 4.83274 21.9482 4.82986 21.9096 4.82986C21.8175 4.82986 21.7353 4.84918 21.663 4.88782C21.5914 4.92563 21.5347 4.97824 21.4928 5.04565C21.4517 5.11223 21.4312 5.18827 21.4312 5.27376V6.47229H21.1402ZM22.4321 6.47229V4.57832H22.7231V6.47229H22.4321ZM22.5801 4.26266C22.5233 4.26266 22.4744 4.24334 22.4333 4.2047C22.393 4.16607 22.3729 4.11962 22.3729 4.06537C22.3729 4.01111 22.393 3.96467 22.4333 3.92603C22.4744 3.8874 22.5233 3.86808 22.5801 3.86808C22.6368 3.86808 22.6853 3.8874 22.7256 3.92603C22.7667 3.96467 22.7872 4.01111 22.7872 4.06537C22.7872 4.11962 22.7667 4.16607 22.7256 4.2047C22.6853 4.24334 22.6368 4.26266 22.5801 4.26266ZM24.0502 6.51175C23.8677 6.51175 23.7102 6.47147 23.5779 6.39091C23.4464 6.30953 23.3449 6.19609 23.2733 6.05059C23.2026 5.90426 23.1673 5.7341 23.1673 5.5401C23.1673 5.3461 23.2026 5.17512 23.2733 5.02715C23.3449 4.87836 23.4443 4.76246 23.5717 4.67943C23.7 4.59558 23.8496 4.55366 24.0206 4.55366C24.1192 4.55366 24.2166 4.5701 24.3128 4.60298C24.409 4.63586 24.4965 4.68929 24.5754 4.76328C24.6544 4.83644 24.7172 4.93344 24.7641 5.05428C24.811 5.17512 24.8344 5.32391 24.8344 5.50064V5.62395H23.3744V5.37241H24.5384C24.5384 5.26554 24.5171 5.17019 24.4743 5.08634C24.4324 5.00249 24.3724 4.93632 24.2943 4.88782C24.217 4.83932 24.1258 4.81507 24.0206 4.81507C23.9047 4.81507 23.8044 4.84384 23.7197 4.90138C23.6359 4.9581 23.5713 5.03208 23.5261 5.12333C23.4809 5.21458 23.4583 5.3124 23.4583 5.4168V5.58449C23.4583 5.72753 23.483 5.84878 23.5323 5.94824C23.5824 6.04689 23.6519 6.1221 23.7407 6.17389C23.8294 6.22486 23.9326 6.25034 24.0502 6.25034C24.1266 6.25034 24.1957 6.23965 24.2573 6.21828C24.3198 6.19609 24.3736 6.1632 24.4188 6.11964C24.4641 6.07525 24.499 6.02017 24.5237 5.95441L24.8048 6.03332C24.7752 6.12868 24.7255 6.21253 24.6556 6.28487C24.5857 6.35638 24.4994 6.41228 24.3966 6.45256C24.2939 6.49202 24.1784 6.51175 24.0502 6.51175ZM25.568 5.33295V6.47229H25.277V4.57832H25.5582V4.87425H25.5828C25.6272 4.77807 25.6946 4.7008 25.7851 4.64244C25.8755 4.58325 25.9922 4.55366 26.1353 4.55366C26.2635 4.55366 26.3757 4.57996 26.4719 4.63257C26.5681 4.68436 26.6429 4.76328 26.6963 4.86932C26.7497 4.97454 26.7764 5.10771 26.7764 5.26883V6.47229H26.4854V5.28856C26.4854 5.13977 26.4468 5.02386 26.3695 4.94084C26.2923 4.85699 26.1862 4.81507 26.0514 4.81507C25.9585 4.81507 25.8755 4.83521 25.8023 4.87549C25.73 4.91577 25.6729 4.97454 25.6309 5.05181C25.589 5.12908 25.568 5.2228 25.568 5.33295ZM28.0234 6.51175C27.8655 6.51175 27.7262 6.47188 27.6054 6.39214C27.4845 6.31158 27.39 6.19814 27.3218 6.05182C27.2535 5.90467 27.2194 5.73081 27.2194 5.53024C27.2194 5.3313 27.2535 5.15868 27.3218 5.01235C27.39 4.86603 27.4849 4.753 27.6066 4.67326C27.7283 4.59353 27.8688 4.55366 28.0283 4.55366C28.1516 4.55366 28.249 4.57421 28.3205 4.61531C28.3929 4.65559 28.4479 4.70162 28.4858 4.75341C28.5244 4.80438 28.5544 4.8463 28.5758 4.87918H28.6004V3.947H28.8914V6.47229H28.6103V6.18129H28.5758C28.5544 6.21581 28.524 6.25938 28.4845 6.31199C28.4451 6.36378 28.3888 6.41023 28.3156 6.45133C28.2424 6.49161 28.145 6.51175 28.0234 6.51175ZM28.0628 6.25034C28.1796 6.25034 28.2782 6.21993 28.3588 6.15909C28.4393 6.09744 28.5006 6.01236 28.5425 5.90385C28.5844 5.79452 28.6054 5.66834 28.6054 5.5253C28.6054 5.38391 28.5848 5.2602 28.5437 5.15416C28.5026 5.04729 28.4418 4.96427 28.3612 4.90508C28.2807 4.84507 28.1812 4.81507 28.0628 4.81507C27.9395 4.81507 27.8368 4.84671 27.7546 4.91001C27.6732 4.97249 27.6119 5.05757 27.5708 5.16525C27.5306 5.27212 27.5104 5.39214 27.5104 5.5253C27.5104 5.66012 27.531 5.7826 27.5721 5.89275C27.614 6.00209 27.6756 6.08922 27.757 6.15416C27.8392 6.21828 27.9412 6.25034 28.0628 6.25034Z" fill="white"/>
<path d="M35.9625 1.73621L36.7328 2.8297L37.9466 2.26786L38.067 3.60001L39.3991 3.72037L38.8373 4.93422L39.9308 5.70453L38.8373 6.47483L39.3991 7.68869L38.067 7.80904L37.9466 9.14119L36.7328 8.57935L35.9625 9.67284L35.1922 8.57935L33.9783 9.14119L33.8579 7.80904L32.5258 7.68869L33.0876 6.47483L31.9941 5.70453L33.0876 4.93422L32.5258 3.72037L33.8579 3.60001L33.9783 2.26786L35.1922 2.8297L35.9625 1.73621Z" stroke="#FDFDFD" stroke-width="0.297623"/>
<path d="M37.6973 4.71252L35.8371 6.44866L33.977 4.71252" stroke="#C53A1B" stroke-width="0.24802"/>
<g clip-path="url(#clip1_1197_7655)">
<path d="M37.2172 6.71786H34.7064C34.735 6.42883 34.8626 6.15703 35.0698 5.94987C35.3064 5.7133 35.6272 5.58039 35.9618 5.58039C36.2964 5.58039 36.6172 5.7133 36.8538 5.94987C37.061 6.15703 37.1886 6.42883 37.2172 6.71786Z" stroke="#FDFDFD" stroke-width="0.24802"/>
</g>
</g>
<defs>
<clipPath id="clip0_1197_7655">
<rect width="41.4193" height="11.1609" rx="5.58045" fill="white"/>
</clipPath>
<clipPath id="clip1_1197_7655">
<rect width="2.97624" height="2.97624" fill="white" transform="translate(34.4746 3.96826)"/>
</clipPath>
</defs>
</svg>
