<svg width="21" height="21" viewBox="0 0 21 21" fill="none" xmlns="http://www.w3.org/2000/svg">
<g clip-path="url(#clip0_962_542)">
<path d="M17.5 13.125V19.25H16.625V20.125H1.75V19.25H0.875V4.375H1.75V3.5H9.625V5.25H2.625V18.375H15.75V13.125H17.5Z" fill="black"/>
<path d="M20.125 0.875V7.875H18.375V4.375H17.5V5.25H16.625V6.125H15.75V7H14.875V7.875H14V8.75H13.125V9.625H12.25V10.5H11.375V11.375H10.5V12.25H9.625V13.125H8.75V14H7.875V14.875H6.125V13.125H7V12.25H7.875V11.375H8.75V10.5H9.625V9.625H10.5V8.75H11.375V7.875H12.25V7H13.125V6.125H14V5.25H14.875V4.375H15.75V3.5H16.625V2.625H13.125V0.875H20.125Z" fill="black"/>
</g>
<defs>
<clipPath id="clip0_962_542">
<rect width="21" height="21" fill="white"/>
</clipPath>
</defs>
</svg>
