<svg width="21" height="21" viewBox="0 0 21 21" fill="none" xmlns="http://www.w3.org/2000/svg">
<path d="M18.4995 18.001H17.502V21H18.4995V18.001Z" fill="#000001"/>
<path d="M17.5021 17.0034H16.498V18.0009H17.5021V17.0034Z" fill="#000001"/>
<path d="M16.4975 18.001H15.5V18.9985H16.4975V18.001Z" fill="#000001"/>
<path d="M16.4975 15.9994H15.5V17.0035H16.4975V15.9994Z" fill="#000001"/>
<path d="M15.5002 18.9984H14.4961V20.0025H15.5002V18.9984Z" fill="#000001"/>
<path d="M15.5006 15.0018H13.499V15.9993H15.5006V15.0018Z" fill="#000001"/>
<path d="M15.5002 7.0022H14.4961V10.0013H15.5002V7.0022Z" fill="#000001"/>
<path d="M14.4965 20.0024H13.499V20.9999H14.4965V20.0024Z" fill="#000001"/>
<path d="M14.4965 10.0012H13.499V10.9987H14.4965V10.0012Z" fill="#000001"/>
<path d="M14.496 5.99817H12.501V7.00223H14.496V5.99817Z" fill="#000001"/>
<path d="M13.4985 15.9994H12.501V17.0035H13.4985V15.9994Z" fill="#000001"/>
<path d="M13.4986 13.9978H11.4971V15.0019H13.4986V13.9978Z" fill="#000001"/>
<path d="M13.4985 10.9988H12.501V12.0028H13.4985V10.9988Z" fill="#000001"/>
<path d="M12.5011 17.0034H11.4971V18.0009H12.5011V17.0034Z" fill="#000001"/>
<path d="M12.5011 12.0028H11.4971V13.0003H12.5011V12.0028Z" fill="#000001"/>
<path d="M12.5011 7.0022H11.4971V7.9997H12.5011V7.0022Z" fill="#000001"/>
<path d="M11.4975 18.001H10.5V18.9985H11.4975V18.001Z" fill="#000001"/>
<path d="M11.4975 13.0004H10.5V13.9979H11.4975V13.0004Z" fill="#000001"/>
<path d="M11.4975 7.99963H10.5V8.99713H11.4975V7.99963Z" fill="#000001"/>
<path d="M10.4995 13.9978H9.50195V15.0019H10.4995V13.9978Z" fill="#000001"/>
<path d="M10.4995 8.99719H9.50195V10.0013H10.4995V8.99719Z" fill="#000001"/>
<path d="M9.50211 15.0018H8.49805V15.9993H9.50211V15.0018Z" fill="#000001"/>
<path d="M9.50211 10.0012H8.49805V10.9987H9.50211V10.0012Z" fill="#000001"/>
<path d="M8.49848 10.9988H7.50098V12.0028H8.49848V10.9988Z" fill="#000001"/>
<path d="M8.49848 7.99963H7.50098V10.0012H8.49848V7.99963Z" fill="#000001"/>
<path d="M7.50016 12.0028H6.49609V13.0003H7.50016V12.0028Z" fill="#000001"/>
<path d="M6.49652 0V0.9975H5.49902V2.99906H6.49652V4.00313H7.50059V5.00063H8.49809V5.99813H9.50215V5.00063H10.4996V4.00313H11.4971V2.99906H12.5012V0.9975H11.4971V0H9.50215V0.9975H8.49809V0H6.49652Z" fill="#000001"/>
<path d="M7.50102 7.0022H4.50195V7.9997H7.50102V7.0022Z" fill="#000001"/>
<path d="M5.49945 10.9988H4.50195V15.0019H5.49945V13.9978H6.49695V13.0003H5.49945V10.9988Z" fill="#000001"/>
<path d="M4.50113 15.0018H3.49707V15.9993H4.50113V15.0018Z" fill="#000001"/>
<path d="M4.50113 7.99963H3.49707V10.9987H4.50113V7.99963Z" fill="#000001"/>
<path d="M3.4975 15.9994H2.5V21H3.4975V15.9994Z" fill="#000001"/>
</svg>
