<svg width="32" height="32" viewBox="0 0 32 32" fill="none" xmlns="http://www.w3.org/2000/svg">
<path d="M28.9516 16.76H27.4316V21.33H28.9516V16.76Z" fill="#000001"/>
<path d="M28.9516 12.1899H27.4316V15.2399H28.9516V12.1899Z" fill="#000001"/>
<path d="M27.4304 21.33H25.9004V24.38H27.4304V21.33Z" fill="#000001"/>
<path d="M27.4304 10.67H25.9004V12.19H27.4304V10.67Z" fill="#000001"/>
<path d="M25.9009 24.38H24.3809V25.91H25.9009V24.38Z" fill="#000001"/>
<path d="M27.4309 15.24H24.3809V16.76H27.4309V15.24Z" fill="#000001"/>
<path d="M25.9009 9.14001H24.3809V10.67H25.9009V9.14001Z" fill="#000001"/>
<path d="M22.8503 27.43H7.62031V25.91H6.09031V27.43H4.57031V32H25.9003V27.43H24.3803V25.91H22.8503V27.43ZM22.8503 30.48H19.8103V28.95H22.8503V30.48Z" fill="#000001"/>
<path d="M24.3816 16.76H22.8516V19.81H24.3816V16.76Z" fill="#000001"/>
<path d="M24.3816 13.71H22.8516V15.24H24.3816V13.71Z" fill="#000001"/>
<path d="M22.8505 12.1899H19.8105V13.7099H22.8505V12.1899Z" fill="#000001"/>
<path d="M22.8512 19.8101H18.2812V21.3301H22.8512V19.8101Z" fill="#000001"/>
<path d="M24.3812 7.62H18.2812V9.14H24.3812V7.62Z" fill="#000001"/>
<path d="M19.8112 13.71H18.2812V15.24H19.8112V13.71Z" fill="#000001"/>
<path d="M18.2817 15.24H16.7617V19.81H18.2817V15.24Z" fill="#000001"/>
<path d="M18.2817 9.14001H16.7617V10.67H18.2817V9.14001Z" fill="#000001"/>
<path d="M13.7109 13.71H15.2409V12.19H16.7609V10.67H15.2409V1.52002H13.7109V13.71Z" fill="#000001"/>
<path d="M13.7114 13.71H12.1914V16.76H13.7114V13.71Z" fill="#000001"/>
<path d="M13.7102 0H10.6602V1.52H13.7102V0Z" fill="#000001"/>
<path d="M10.6606 13.71H9.14062V16.76H10.6606V13.71Z" fill="#000001"/>
<path d="M10.6606 1.52002H9.14062V12.19H10.6606V1.52002Z" fill="#000001"/>
<path d="M9.14109 0H7.62109V1.52H9.14109V0Z" fill="#000001"/>
<path d="M7.61984 15.24H6.08984V18.29H7.61984V15.24Z" fill="#000001"/>
<path d="M6.09031 13.71H7.62031V1.52002H6.09031V4.57002H4.57031V6.10002H6.09031V13.71Z" fill="#000001"/>
<path d="M6.09031 22.86H4.57031V25.91H6.09031V22.86Z" fill="#000001"/>
<path d="M4.57078 6.09998H3.05078V22.86H4.57078V6.09998Z" fill="#000001"/>
</svg>
