<svg width="90" height="90" viewBox="0 0 90 90" fill="none" xmlns="http://www.w3.org/2000/svg">
<g clip-path="url(#clip0_962_814)">
<path d="M90 42.8625H81.4219V47.1376H90V42.8625Z" fill="#000001"/>
<path d="M85.6969 64.2937H81.4219V68.5687H85.6969V64.2937Z" fill="#000001"/>
<path d="M85.6969 21.4313H81.4219V25.7063H85.6969V21.4313Z" fill="#000001"/>
<path d="M81.4223 59.9906H77.1191V64.2937H81.4223V59.9906Z" fill="#000001"/>
<path d="M81.4223 25.7063H77.1191V30.0094H81.4223V25.7063Z" fill="#000001"/>
<path d="M72.8434 77.1469H68.5684V81.4219H72.8434V77.1469Z" fill="#000001"/>
<path d="M72.8434 51.4407H68.5684V55.7157H72.8434V51.4407Z" fill="#000001"/>
<path d="M72.8434 38.5593H68.5684V42.8625H72.8434V38.5593Z" fill="#000001"/>
<path d="M72.8434 4.27502H68.5684V8.57815H72.8434V4.27502Z" fill="#000001"/>
<path d="M68.5687 72.8438H64.2656V77.1469H68.5687V72.8438Z" fill="#000001"/>
<path d="M68.5687 42.8625H64.2656V47.1376H68.5687V42.8625Z" fill="#000001"/>
<path d="M68.5687 8.57812H64.2656V12.8531H68.5687V8.57812Z" fill="#000001"/>
<path d="M64.2652 47.1375H59.9902V51.4406H64.2652V47.1375Z" fill="#000001"/>
<path d="M59.9906 51.4407H55.6875V55.7157H59.9906V51.4407Z" fill="#000001"/>
<path d="M59.9906 38.5593H55.6875V42.8625H59.9906V38.5593Z" fill="#000001"/>
<path d="M47.1371 81.4219H42.834V90H47.1371V81.4219Z" fill="#000001"/>
<path d="M47.1371 0H42.834V8.57812H47.1371V0Z" fill="#000001"/>
<path d="M47.1373 34.2844H34.2842V55.7157H47.1373V34.2844ZM42.8342 51.4407H38.5592V38.5594H42.8342V51.4407Z" fill="#000001"/>
<path d="M25.7064 72.8438H21.4033V77.1469H25.7064V72.8438Z" fill="#000001"/>
<path d="M29.9811 51.4407H21.4029V47.1376H29.9811V34.2844H17.1279V38.5594H25.7061V42.8625H17.1279V55.7157H29.9811V51.4407Z" fill="#000001"/>
<path d="M25.7064 8.57812H21.4033V12.8531H25.7064V8.57812Z" fill="#000001"/>
<path d="M21.4029 77.1469H17.1279V81.4219H21.4029V77.1469Z" fill="#000001"/>
<path d="M21.4029 4.27502H17.1279V8.57815H21.4029V4.27502Z" fill="#000001"/>
<path d="M12.8529 59.9906H8.5498V64.2937H12.8529V59.9906Z" fill="#000001"/>
<path d="M12.8529 25.7063H8.5498V30.0094H12.8529V25.7063Z" fill="#000001"/>
<path d="M8.55039 64.2937H4.27539V68.5687H8.55039V64.2937Z" fill="#000001"/>
<path d="M8.55 42.8625H0V47.1376H8.55V42.8625Z" fill="#000001"/>
<path d="M8.55039 21.4313H4.27539V25.7063H8.55039V21.4313Z" fill="#000001"/>
</g>
<defs>
<clipPath id="clip0_962_814">
<rect width="90" height="90" fill="white"/>
</clipPath>
</defs>
</svg>
