<svg width="70" height="70" viewBox="0 0 70 70" fill="none" xmlns="http://www.w3.org/2000/svg">
<rect width="70" height="70" fill="#272424"/>
<path d="M34.7229 13.9165C35.0813 14.4543 35.4136 14.9439 35.7328 15.4379C37.2017 17.7026 38.6794 19.9673 40.1352 22.245C41.3244 24.1031 42.6534 25.8869 43.401 28.0029C43.4535 28.1559 43.7814 28.3657 43.8907 28.322C45.3334 27.7712 46.8286 27.8061 48.2975 28.0204C51.2529 28.4576 54.1865 29.0303 57.1375 29.5025C58.7114 29.7517 60.2984 29.909 61.881 30.1102C62.0165 30.1276 62.1564 30.1364 62.3269 30.1539C62.3007 30.2632 62.3007 30.3419 62.2657 30.3943C60.6394 32.7727 59.0261 35.1641 57.3692 37.525C56.4773 38.8016 55.5111 40.0301 54.5843 41.2848C52.8443 43.65 50.7064 45.4994 47.856 46.4C46.6012 46.7978 45.3116 46.9771 43.9956 46.7235C43.8951 46.706 43.7901 46.7104 43.5366 46.6973C43.7377 46.9115 43.8557 47.0295 43.9694 47.1563C45.5651 48.9401 46.4482 50.9774 45.8318 53.382C45.4427 54.899 44.4153 56.0707 43.1387 56.9757C41.2544 58.3091 39.4489 59.7344 37.8094 61.3607C37.7613 61.4088 37.7001 61.4394 37.5602 61.3957C38.0979 60.823 38.6095 60.224 39.1822 59.6907C40.0172 58.9125 40.9266 58.2129 41.7528 57.426C42.4873 56.7265 43.2262 56.0139 43.8251 55.2051C44.8481 53.8279 44.9837 52.2278 44.6339 50.5839C44.0787 47.9739 42.5835 46.1901 39.9866 45.4076C39.838 45.3638 39.7024 45.2808 39.5844 45.1452C40.1134 45.3245 40.6468 45.4819 41.167 45.6786C43.4054 46.5268 45.6132 46.3082 47.8035 45.5037C50.2168 44.6206 52.0923 43.038 53.5919 40.9875C56.0227 37.6649 58.4403 34.3334 60.858 31.002C60.9366 30.8927 60.976 30.7485 61.0765 30.5255C60.4907 30.4555 59.9792 30.4074 59.4677 30.3244C56.3418 29.8085 53.2203 29.2664 50.0944 28.7592C48.1751 28.4488 46.2471 28.2608 44.2973 28.4576C43.9169 28.4969 43.554 28.5537 43.7158 29.109C44.6645 32.353 43.9694 35.339 42.2906 38.172C40.9484 40.4367 39.1603 42.2466 36.8694 43.5539C36.5241 43.7506 36.1568 43.9124 35.8377 44.1441C34.8409 44.8698 33.9272 44.4195 33.0572 43.9211C31.2516 42.8849 29.6165 41.6302 28.3224 39.9776C26.2895 37.3851 25.0391 34.5214 25.3102 31.1419C25.4807 29.0084 26.2108 27.0454 27.3344 25.2529C29.0219 22.5642 30.7838 19.9279 32.5107 17.261C33.1315 16.3036 33.7261 15.3286 34.3425 14.3624C34.4256 14.2313 34.5436 14.1176 34.701 13.9252L34.7229 13.9165ZM34.701 16.99C34.5217 17.2173 34.3775 17.3703 34.2638 17.5496C33.8616 18.1748 33.4725 18.8087 33.079 19.4383C31.2297 22.3849 29.2842 25.2748 27.553 28.2871C25.9966 30.9889 25.931 33.9487 27.107 36.7905C28.3487 39.7852 30.4865 42.0805 33.4025 43.5932C34.2026 44.0085 34.8802 44.1047 35.7896 43.6719C38.4477 42.4084 40.3888 40.4148 41.7616 37.9141C43.8645 34.0886 43.2393 30.2763 41.0927 26.7C39.2303 23.5916 37.1624 20.6099 35.1775 17.5758C35.0551 17.3878 34.889 17.2261 34.701 16.99Z" fill="#FF0000"/>
<path d="M7 30.1408C10.8822 29.8566 14.5765 29.0259 18.2969 28.3352C20.2818 27.9679 22.2841 27.7537 24.3039 28.0422C24.6974 28.0991 25.0777 28.2215 25.4668 28.3133C25.4537 28.3701 25.445 28.4313 25.4318 28.4882C25.2482 28.4707 25.0646 28.4576 24.8766 28.4401C22.9617 28.2565 21.0731 28.4663 19.1932 28.7942C15.7132 29.4019 12.2769 30.2544 8.73127 30.4381C8.55639 30.4468 8.38151 30.4993 8.12795 30.543C8.21976 30.7266 8.27222 30.8709 8.35965 30.9933C9.85484 33.0918 11.3194 35.2122 12.8583 37.2758C14.1917 39.0639 15.5164 40.8695 17.0116 42.5133C19.5254 45.2808 22.6863 46.6055 26.4724 46.1202C27.1106 46.0371 27.7271 45.7792 28.3479 45.5912C28.5665 45.5256 28.7807 45.4382 29.0212 45.425C28.6015 45.648 28.173 45.8622 27.7577 46.0939C25.8647 47.1345 25.034 48.8701 24.6362 50.89C24.1159 53.5175 25.2876 55.4411 27.15 57.1112C28.6452 58.4534 30.1054 59.8393 31.5831 61.2034C31.6487 61.2646 31.7011 61.3345 31.6968 61.47C31.3995 61.2034 31.1109 60.9236 30.8049 60.67C29.0824 59.2535 27.3467 57.8501 25.6373 56.4205C24.4176 55.4062 23.5257 54.1689 23.3246 52.5469C23.1847 51.4146 23.4951 50.3522 23.9148 49.3204C24.282 48.4242 24.7149 47.5673 25.5674 47.0121C25.6023 46.9902 25.6067 46.9202 25.6504 46.7935C25.4668 46.7935 25.3225 46.7803 25.1783 46.7935C23.6962 46.964 22.2579 46.8372 20.8632 46.247C18.3188 45.1671 16.3121 43.4446 14.6901 41.228C13.3174 39.3524 11.8965 37.5162 10.5587 35.6188C9.40016 33.9749 8.33343 32.2655 7.22734 30.5823C7.15302 30.4687 7.10055 30.3331 7 30.132V30.1408Z" fill="#FF0000"/>
<path d="M35.1388 13.2477C34.9596 12.2334 34.7935 11.206 34.588 10.1874C34.4743 9.63213 34.7191 9.12498 35.2219 9.01568C35.6853 8.91513 36.1575 9.3086 36.1706 9.89444C36.2056 11.1579 35.8077 12.2946 35.1388 13.2477Z" fill="#FF0000"/>
<path d="M28.7111 30.5473C28.6543 31.4085 28.5756 32.2742 28.5406 33.1355C28.4837 34.4908 28.8116 35.7848 29.4805 36.9434C30.5954 38.8846 32.025 40.559 34.0666 41.6126C34.4907 41.8312 34.8711 41.875 35.2995 41.6432C38.1762 40.0693 40.1217 37.7435 40.7163 34.4908C40.9436 33.236 40.7556 31.9069 40.7556 30.5342C40.8474 31.2162 40.9261 31.8414 41.0092 32.4666C41.4639 35.916 40.2703 38.819 37.9795 41.3066C37.3018 42.0411 36.4318 42.6051 35.6187 43.2128C35.0765 43.6194 34.5038 43.6412 33.9049 43.2477C30.1757 40.8169 28.1559 37.4506 28.3132 32.93C28.3395 32.1255 28.5406 31.3298 28.663 30.5298L28.7198 30.5429L28.7111 30.5473Z" fill="#FF0000"/>
<path d="M34.7076 18.8877C36.5919 22.3153 38.3843 25.5811 40.1724 28.8426C40.1462 28.8557 40.1156 28.8732 40.0894 28.8863C38.3231 25.979 36.5525 23.0673 34.6857 19.9982C32.8845 22.9667 31.1576 25.8172 29.4307 28.6677C29.4045 28.6546 29.3739 28.6371 29.3477 28.624C31.1052 25.4281 32.8626 22.2322 34.7032 18.8877H34.7076Z" fill="#FF0000"/>
</svg>
