<svg width="372" height="167" viewBox="0 0 372 167" fill="none" xmlns="http://www.w3.org/2000/svg">
<path d="M0 81.9096L5.35198 80.5739V23.5503L0 22.2146V20.8789H24.0671C33.0973 20.8789 39.7383 22.3225 43.9902 25.2031C48.2354 28.0836 50.3613 31.8411 50.3613 36.4756C50.3613 39.6799 49.4367 42.2703 47.5942 44.2267C45.7517 46.1898 43.403 47.6401 40.555 48.5913C37.5246 49.6639 34.2581 50.2238 30.7486 50.2846V50.7298C35.0882 50.9119 38.8609 51.5595 42.0667 52.6929C45.3333 53.7655 48.0531 55.425 50.2263 57.6849C52.3928 59.9448 53.4794 62.8253 53.4794 66.3264C53.4794 71.6153 51.3129 75.7573 46.9733 78.7525C42.6337 81.7545 35.5944 83.2521 25.8488 83.2521H0V81.9164V81.9096ZM24.0671 49.3873C26.031 49.3873 27.8533 48.8409 29.5473 47.7413C31.2413 46.6417 32.6046 45.0969 33.6507 43.1068C34.69 41.1168 35.2097 38.9041 35.2097 36.4688C35.2097 33.8581 34.69 31.5375 33.6507 29.5205C32.6113 27.5034 31.2413 25.9249 29.5473 24.7983C27.8533 23.6717 26.0243 23.1051 24.0671 23.1051H20.0514V49.3873H24.0671ZM25.8488 81.0191C29.5338 81.0191 32.5371 79.7104 34.852 77.0997C37.1669 74.4891 38.3278 70.8935 38.3278 66.3197C38.3278 61.7459 37.1669 58.1503 34.852 55.5397C32.5371 52.929 29.5338 51.6202 25.8488 51.6202H20.0514V81.0259H25.8488V81.0191Z" fill="#1D1D1B"/>
<path d="M63.6027 77.3289C60.1202 73.848 58.3789 69.0516 58.3789 62.9262C58.3789 56.8009 60.1202 52.0045 63.6027 48.5236C67.0852 45.0427 71.8837 43.3022 78.0118 43.3022C84.14 43.3022 88.9385 45.0427 92.421 48.5236C95.9035 52.0045 97.6448 56.8077 97.6448 62.9262C97.6448 69.0448 95.9035 73.848 92.421 77.3289C88.9385 80.8098 84.1332 82.5503 78.0118 82.5503C71.8905 82.5503 67.0852 80.8098 63.6027 77.3289ZM83.0129 76.9241C84.3694 74.1583 85.0511 69.4968 85.0511 62.933C85.0511 56.3692 84.3694 51.7077 83.0129 48.9419C81.6563 46.176 79.9893 44.7931 78.0118 44.7931C76.0344 44.7931 74.3674 46.176 73.0108 48.9419C71.6543 51.7077 70.9726 56.3692 70.9726 62.933C70.9726 69.4968 71.6543 74.165 73.0108 76.9241C74.3674 79.69 76.0344 81.0729 78.0118 81.0729C79.9893 81.0729 81.6496 79.69 83.0129 76.9241Z" fill="#1D1D1B"/>
<path d="M113.898 80.8027C111.697 79.6424 109.983 78.1245 108.748 76.2491C107.513 74.3738 106.899 72.3972 106.899 70.3262V46.6344L102.451 45.5213V44.4082H112.082C116.53 44.4082 118.75 46.6276 118.75 51.0732V70.3262C118.75 73.4361 119.304 75.8174 120.417 77.4702C121.531 79.1229 122.827 79.9527 124.305 79.9527C126.127 79.9527 127.787 78.9678 129.265 76.9912C129.812 76.2491 130.379 75.2642 130.966 74.0297V46.6344L126.518 45.5213V44.4082H147.258V45.5213L142.81 46.6344V81.8011H142.068C138.464 81.8011 135.724 80.8162 133.848 78.8396C133.011 77.9491 132.417 76.9642 132.073 75.8781C131.378 77.1126 130.568 78.2257 129.63 79.2106C127.409 81.43 124.642 82.5431 121.335 82.5431C118.568 82.5431 116.091 81.963 113.891 80.8027H113.898Z" fill="#1D1D1B"/>
<path d="M151.711 82.1389L156.159 81.0258V48.4496L151.711 47.3365V46.2234H161.342C165.789 46.2234 168.01 48.4428 168.01 52.8884V81.0191L172.457 82.1321V83.2452H151.718V82.1321L151.711 82.1389ZM157.637 40.3072C156.651 39.3223 156.159 38.0878 156.159 36.6037C156.159 35.1195 156.651 33.8918 157.637 32.9001C158.622 31.9152 159.857 31.416 161.342 31.416C162.827 31.416 164.055 31.9085 165.047 32.9001C166.032 33.885 166.532 35.1195 166.532 36.6037C166.532 38.0878 166.039 39.3155 165.047 40.3072C164.062 41.2921 162.827 41.7846 161.342 41.7846C159.857 41.7846 158.629 41.2921 157.637 40.3072Z" fill="#1D1D1B"/>
<path d="M176.893 82.1385L181.34 81.0255V4.03378L176.893 2.9207V1.80762H186.523C190.971 1.80762 193.191 4.02704 193.191 8.47263V81.0255L197.639 82.1385V83.2516H176.899V82.1385H176.893Z" fill="#1D1D1B"/>
<path d="M202.08 138.96L206.528 137.847V2.21942L202.08 1.10634V0H211.711C216.159 0 218.379 2.21942 218.379 6.66501V137.854L222.827 138.967V140.08H202.087V138.967L202.08 138.96Z" fill="#1D1D1B"/>
<path d="M283.224 137.874C280.828 136.687 278.992 135.061 277.703 132.99C276.421 130.919 275.78 128.571 275.78 125.954V22.1738H270.59V19.037H275.78V6.87399C275.78 2.43515 278 0.208984 282.448 0.208984H287.631V19.037H298.004V22.1738H287.631V125.954C287.631 130.494 288.104 133.604 289.042 135.283C289.98 136.963 291.363 137.8 293.192 137.8C295.021 137.8 296.526 136.936 297.856 135.209C299.192 133.482 299.854 131.135 299.854 128.173H301.703C301.703 131.823 300.792 134.649 298.963 136.653C297.134 138.65 294.718 139.648 291.701 139.648C288.441 139.648 285.613 139.054 283.217 137.874H283.224Z" fill="#1D1D1B"/>
<path d="M315.073 137.874C312.677 136.687 310.841 135.061 309.552 132.99C308.27 130.919 307.629 128.571 307.629 125.954V22.3088H302.445V19.037H307.629V6.87399C307.629 2.43515 309.849 0.208984 314.297 0.208984H319.48V19.037H329.853V22.2615H319.48V125.954C319.48 130.494 319.946 133.604 320.89 135.283C321.829 136.963 323.212 137.8 325.041 137.8C326.87 137.8 328.375 136.936 329.705 135.209C331.041 133.482 331.702 131.135 331.702 128.173H333.552C333.552 131.823 332.64 134.649 330.811 136.653C328.982 138.65 326.566 139.648 323.55 139.648C320.29 139.648 317.462 139.054 315.066 137.874H315.073Z" fill="#1D1D1B"/>
<path d="M341.271 77.5921C337.762 74.1112 336.014 69.3149 336.014 63.1895C336.014 59.1892 336.776 55.715 338.308 52.7535C339.84 49.792 341.973 47.5254 344.713 45.9401C347.453 44.3615 350.605 43.5723 354.155 43.5723C357.705 43.5723 360.837 44.2401 363.523 45.5691C366.216 46.898 368.288 48.6925 369.745 50.9389C371.203 53.1853 371.932 55.6678 371.932 58.3797C371.932 59.6142 371.811 60.6733 371.561 61.5637L371.19 62.8252C369.064 63.2705 366.769 63.6415 364.299 63.9383C359.116 64.6804 353.878 65.0514 348.594 65.0514C348.594 70.7787 349.384 74.86 350.963 77.3021C352.542 79.7441 354.715 80.9651 357.482 80.9651C359.406 80.9651 361.194 80.5064 362.855 79.5957C364.508 78.685 365.817 77.4707 366.783 75.9664C367.748 74.462 368.227 72.9172 368.227 71.3386H370.076C370.076 73.3152 369.482 75.1906 368.301 76.9648C367.113 78.739 365.46 80.1624 363.341 81.2215C361.221 82.2806 358.771 82.8135 356.011 82.8135C349.687 82.8135 344.774 81.0731 341.271 77.5921ZM356.308 62.8252C357.145 62.778 358.036 62.6498 358.974 62.4542C359.021 62.2114 359.149 61.6649 359.345 60.8284C359.595 59.5939 359.716 58.2852 359.716 56.9023C359.716 52.8075 359.17 49.8055 358.09 47.9099C357.003 46.0076 355.694 45.0631 354.162 45.0631C350.457 45.0631 348.607 51.1075 348.607 63.203C351.766 63.203 354.337 63.0816 356.308 62.832V62.8252Z" fill="#1D1D1B"/>
<path d="M104.32 155.07C99.1435 149.612 96.5586 141.847 96.5586 131.789C96.5586 125.178 97.6924 119.505 99.9668 114.762C102.241 110.02 105.434 106.431 109.544 103.982C113.654 101.54 118.412 100.319 123.818 100.319C127.098 100.319 130.405 101.264 133.739 103.166C135.001 103.854 136.27 104.778 137.532 105.925C138.511 104.434 139.516 103.254 140.549 102.39C141.581 101.642 142.162 101.244 142.277 101.183H144.429V117.569H140.981C140.232 114.81 139.111 112.307 137.613 110.067C136.236 107.882 134.522 106.074 132.477 104.637C130.432 103.2 128.09 102.485 125.444 102.485C121.476 102.485 118.182 104.785 115.571 109.386C112.952 113.987 111.643 121.454 111.643 131.803C111.643 142.151 113.067 149.835 115.915 154.348C118.763 158.861 122.657 161.114 127.604 161.114C130.304 161.114 132.882 160.352 135.325 158.827C137.768 157.302 139.752 155.279 141.278 152.749C142.803 150.219 143.566 147.548 143.566 144.728H145.725C145.725 148.007 144.848 151.069 143.093 153.909C141.338 156.756 138.956 159.029 135.932 160.723C132.916 162.416 129.561 163.266 125.883 163.266C116.684 163.266 109.49 160.534 104.32 155.076V155.07Z" fill="#1D1D1B"/>
<path d="M163.8 137.206C161.6 136.046 159.885 134.528 158.65 132.652C157.415 130.777 156.801 128.801 156.801 126.73V103.038L152.354 101.925V100.812H161.984C166.432 100.812 168.652 103.031 168.652 107.477V126.73C168.652 129.839 169.206 132.221 170.319 133.873C171.433 135.526 172.729 136.356 174.207 136.356C176.029 136.356 177.689 135.371 179.167 133.395C179.714 132.652 180.281 131.668 180.868 130.433V103.038L176.421 101.925V100.812H197.16V101.925L192.713 103.038V138.204H191.97C188.366 138.204 185.626 137.219 183.75 135.243C182.913 134.352 182.319 133.368 181.975 132.281C181.28 133.516 180.47 134.629 179.532 135.614C177.311 137.833 174.544 138.946 171.237 138.946C168.47 138.946 165.993 138.366 163.793 137.206H163.8Z" fill="#1D1D1B"/>
<path d="M232.085 77.4031C228.603 73.9222 226.861 69.1258 226.861 63.0005C226.861 56.8819 228.603 52.0788 232.085 48.5978C235.568 45.1169 240.366 43.3765 246.494 43.3765C252.616 43.3765 257.421 45.1169 260.903 48.5978C264.386 52.0788 266.127 56.8819 266.127 63.0005C266.127 69.1191 264.386 73.9222 260.903 77.4031C257.421 80.884 252.616 82.6245 246.494 82.6245C240.373 82.6245 235.568 80.884 232.085 77.4031ZM251.495 76.9983C252.852 74.2325 253.533 69.571 253.533 63.0072C253.533 56.4434 252.852 51.7819 251.495 49.0161C250.139 46.2502 248.472 44.8673 246.494 44.8673C244.517 44.8673 242.85 46.2502 241.493 49.0161C240.137 51.7819 239.455 56.4434 239.455 63.0072C239.455 69.571 240.137 74.2392 241.493 76.9983C242.85 79.7642 244.517 81.1471 246.494 81.1471C248.472 81.1471 250.132 79.7642 251.495 76.9983Z" fill="#1D1D1B"/>
<path d="M232.085 134.642C228.603 131.161 226.861 126.365 226.861 120.24C226.861 114.114 228.603 109.318 232.085 105.837C235.568 102.356 240.366 100.616 246.494 100.616C252.616 100.616 257.421 102.356 260.903 105.837C264.386 109.318 266.127 114.121 266.127 120.24C266.127 126.358 264.386 131.161 260.903 134.642C257.421 138.123 252.616 139.864 246.494 139.864C240.373 139.864 235.568 138.123 232.085 134.642ZM251.495 134.238C252.852 131.472 253.533 126.81 253.533 120.246C253.533 113.683 252.852 109.021 251.495 106.255C250.139 103.49 248.472 102.107 246.494 102.107C244.517 102.107 242.85 103.49 241.493 106.255C240.137 109.021 239.455 113.683 239.455 120.246C239.455 126.81 240.137 131.479 241.493 134.238C242.85 137.003 244.517 138.386 246.494 138.386C248.472 138.386 250.132 137.003 251.495 134.238Z" fill="#1D1D1B"/>
<path d="M341.34 134.885C337.83 131.404 336.082 126.608 336.082 120.482C336.082 116.482 336.845 113.008 338.377 110.046C339.909 107.085 342.041 104.818 344.782 103.233C347.522 101.655 350.673 100.865 354.223 100.865C357.773 100.865 360.905 101.533 363.591 102.862C366.284 104.191 368.356 105.985 369.814 108.232C371.271 110.478 372 112.961 372 115.673C372 116.907 371.879 117.966 371.629 118.857L371.258 120.118C369.132 120.563 366.837 120.934 364.367 121.231C359.184 121.973 353.947 122.344 348.662 122.344C348.662 128.072 349.452 132.153 351.031 134.595C352.61 137.037 354.784 138.258 357.551 138.258C359.474 138.258 361.263 137.799 362.923 136.889C364.576 135.978 365.886 134.764 366.851 133.259C367.816 131.755 368.295 130.21 368.295 128.632H370.144C370.144 130.608 369.55 132.484 368.369 134.258C367.182 136.032 365.528 137.455 363.409 138.514C361.29 139.574 358.84 140.106 356.079 140.106C349.756 140.106 344.842 138.366 341.34 134.885ZM356.376 120.118C357.213 120.071 358.104 119.943 359.042 119.747C359.089 119.504 359.218 118.958 359.413 118.121C359.663 116.887 359.785 115.578 359.785 114.195C359.785 110.1 359.238 107.098 358.158 105.203C357.072 103.301 355.762 102.356 354.23 102.356C350.525 102.356 348.676 108.4 348.676 120.496C351.834 120.496 354.406 120.375 356.376 120.125V120.118Z" fill="#1D1D1B"/>
<path d="M48.8502 166.949C69.8093 166.949 86.8 149.966 86.8 129.017C86.8 108.067 69.8093 91.084 48.8502 91.084C27.8911 91.084 10.9004 108.067 10.9004 129.017C10.9004 149.966 27.8911 166.949 48.8502 166.949Z" fill="#E72787"/>
<path d="M34.7639 146.576C33.927 144.512 33.7583 142.562 34.2577 140.721C34.7571 138.879 35.6548 137.098 36.9371 135.371C38.3004 133.712 39.9539 132.207 41.9044 130.865L36.6941 127.431C35.2498 126.493 34.0013 125.495 32.9552 124.449C31.9023 123.397 31.0722 122.115 30.458 120.611C29.7629 118.904 29.6076 117.17 29.9721 115.403C30.3433 113.636 31.2746 111.963 32.7864 110.377C34.2915 108.799 36.3364 107.483 38.9145 106.438C41.0202 105.581 43.3082 105.419 45.7851 105.938C46.8447 106.154 47.857 106.485 48.8221 106.923C49.0786 105.621 49.443 104.522 49.9155 103.638C50.4217 102.835 50.7051 102.39 50.7659 102.323L52.2506 101.722L56.84 113.028L54.4576 113.993C53.2158 112.421 51.785 110.991 50.1517 109.709C48.5724 108.549 46.9999 107.719 45.4341 107.227C43.8683 106.728 42.2891 106.802 40.703 107.449C39.4747 107.949 38.6176 108.859 38.1384 110.188C37.6592 111.511 37.7537 112.988 38.4151 114.614C38.9483 115.922 39.8324 117.089 41.081 118.108C42.3296 119.127 43.7536 120.145 45.3666 121.151L62.003 131.728C62.084 130.912 62.1245 130.042 62.1245 129.118C62.0975 126.999 61.706 125.016 60.9501 123.147L55.4632 123.296L55.0987 122.405L66.1132 117.939L66.4776 118.83L62.4417 122.547C63.2448 124.53 63.6768 126.851 63.7375 129.502C63.7105 130.804 63.6768 131.91 63.6228 132.808L74.212 139.601L77.5528 139.284L77.9172 140.174L69.5822 143.554C67.9556 144.215 66.4506 144.525 65.0738 144.485C63.697 144.444 62.5159 144.067 61.5306 143.358C61.1796 144.424 60.7072 145.375 60.1268 146.219C58.7365 148.263 56.8535 149.767 54.4711 150.732C44.1518 154.914 37.585 153.538 34.7706 146.596L34.7639 146.576ZM59.0267 145.045C59.5666 144.087 59.9378 143.244 60.147 142.515L43.2744 131.688C43.0112 132.396 42.883 133.233 42.9032 134.19C42.8357 136.302 43.4904 139.061 44.8739 142.468C46.0348 145.321 47.5533 147.271 49.4295 148.31C51.3058 149.349 53.1753 149.49 55.0447 148.735C56.6713 148.074 57.9941 146.846 59.0199 145.045H59.0267Z" fill="white"/>
</svg>
