<svg width="71" height="71" viewBox="0 0 71 71" fill="none" xmlns="http://www.w3.org/2000/svg">
<g clip-path="url(#clip0_1195_17569)">
<rect width="70" height="70" transform="translate(0.5 0.5)" fill="#F9F3E7"/>
<path fill-rule="evenodd" clip-rule="evenodd" d="M-46.5221 -27.629L-42.0125 -21.5166C-37.9319 -15.4193 -28.9128 -3.19456 -20.0376 0.906265C-11.1433 4.46651 -1.53504 -0.0670267 7.51124 -0.831508C16.5575 -1.59599 25.8617 2.51992 34.718 7.16134C43.5742 11.8028 52.8404 16.9999 61.8106 18.3977C70.7809 19.7956 80.3512 16.3433 84.6978 14.8723L89.4735 13.4164L90.9369 -28.209L86.2183 -28.3749C81.9286 -28.5257 72.4914 -28.8575 63.4831 -29.1742C54.4748 -29.4909 45.0376 -29.8227 36.0293 -30.1394C27.021 -30.4561 17.5838 -30.7879 8.57554 -31.1046C-0.432738 -31.4213 -9.86998 -31.753 -18.8782 -32.0697C-27.8865 -32.3864 -37.3238 -32.7182 -41.6134 -32.869L-46.332 -33.0349L-46.5221 -27.629Z" fill="#E95B0B"/>
<path fill-rule="evenodd" clip-rule="evenodd" d="M-46.2701 -26.3326L-41.7606 -20.2202C-37.68 -14.1229 -28.6608 -1.89818 -19.7856 2.20265C-10.8914 5.76289 -1.28309 1.22936 7.7632 0.464878C16.8095 -0.299603 26.1137 3.81631 34.9699 8.45773C43.8261 13.0991 53.0923 18.2962 62.0626 19.6941C71.0329 21.092 80.6031 17.6396 84.9498 16.1687L89.7254 14.7128L91.1888 -26.9126L86.4702 -27.0785C82.1806 -27.2293 72.7433 -27.5611 63.7351 -27.8778C54.7268 -28.1945 45.2895 -28.5263 36.2813 -28.843C27.273 -29.1597 17.8358 -29.4915 8.82749 -29.8082C-0.180784 -30.1249 -9.61802 -30.4566 -18.6263 -30.7733C-27.6346 -31.09 -37.0718 -31.4218 -41.3615 -31.5726L-46.0801 -31.7385L-46.2701 -26.3326Z" stroke="#E95B0B" stroke-width="0.651163"/>
<path d="M41.8651 7.32262L41.865 7.32261C41.2121 7.21905 40.5929 7.39593 40.2943 7.48745C39.8979 7.60893 39.4621 7.78423 39.0149 7.98514C38.1138 8.38992 36.9921 8.97821 35.7289 9.69387C33.1926 11.1307 29.9462 13.1605 26.4856 15.4798C19.5878 20.1029 11.6688 25.9904 6.73034 30.7668L6.56369 30.9279L6.43613 31.1215C5.87633 31.9712 5.79487 32.9006 5.88568 33.667C5.97463 34.4177 6.23942 35.1359 6.53884 35.7614C7.13773 37.0125 8.07263 38.2934 8.97072 39.3864C9.69531 40.2682 10.4481 41.0899 11.0896 41.758C10.8512 41.9494 10.5942 42.156 10.3215 42.3755C8.75339 43.6379 6.66132 45.3333 4.57023 47.0613C2.48343 48.7858 0.3803 50.5571 -1.20241 51.967C-1.98907 52.6678 -2.67675 53.3055 -3.17586 53.8156C-3.41994 54.065 -3.6609 54.3262 -3.85241 54.5738C-3.94524 54.6939 -4.06862 54.8643 -4.17618 55.0658L-4.17936 55.0718C-4.24411 55.1928 -4.51656 55.7021 -4.45498 56.3762L-4.3915 57.0713L-3.92521 57.5906L5.34721 67.9172L6.00525 68.6501L6.98952 68.6142C7.42729 68.5982 7.76983 68.4563 7.9074 68.3964C8.08735 68.318 8.25009 68.2269 8.38081 68.148C8.64443 67.9888 8.92856 67.7871 9.20886 67.5756C9.77708 67.1469 10.484 66.5605 11.2624 65.8896C12.8263 64.5414 14.7927 62.7531 16.7375 60.9666C17.4622 60.3009 18.1829 59.6364 18.8812 58.9925C20.0696 57.8967 21.193 56.8609 22.1599 55.9816C22.854 55.3505 23.4533 54.8131 23.9263 54.402C24.3407 54.8114 24.774 55.2773 25.2769 55.8181C25.6818 56.2535 26.1318 56.7374 26.6535 57.2795C27.7518 58.4208 29.0443 59.6815 30.4414 60.7209C31.8181 61.745 33.4567 62.677 35.2507 62.9616C36.1964 63.1116 36.9986 62.7064 37.3958 62.4783C37.8841 62.1979 38.3736 61.815 38.8395 61.4038C39.7808 60.5731 40.8764 59.4018 42.0466 58.0345C44.4001 55.2844 47.2355 51.5275 50.0345 47.5529C52.8379 43.5721 55.6317 39.3346 57.9018 35.6083C60.1391 31.9357 61.9632 28.6067 62.7243 26.5041L62.7869 26.3312L62.8185 26.1501C62.9548 25.3702 62.713 24.6952 62.5384 24.3072C62.3425 23.872 62.0717 23.4554 61.7936 23.0804C61.2337 22.3251 60.4551 21.4883 59.583 20.636C57.825 18.9179 55.4608 16.9191 53.0858 15.0305C50.7024 13.1352 48.2646 11.3167 46.3366 9.9541C45.3747 9.27426 44.5238 8.69668 43.8616 8.27632C43.5331 8.06782 43.2282 7.8834 42.9676 7.74114C42.8385 7.67064 42.6961 7.59721 42.5523 7.53353C42.4499 7.4882 42.1871 7.3737 41.8651 7.32262ZM23.2344 53.7915C23.2347 53.7916 23.2378 53.7933 23.2438 53.7971C23.2373 53.7935 23.2341 53.7914 23.2344 53.7915Z" fill="#212B5A" stroke="#212B5A" stroke-width="4.20811"/>
<path d="M11.2093 35.6011L11.1448 35.6634L11.0954 35.7383C10.7512 36.2607 10.682 36.858 10.7489 37.4222C10.815 37.9803 11.0186 38.5558 11.2845 39.1113C11.8164 40.2225 12.6741 41.409 13.5495 42.4743C14.4316 43.5478 15.3631 44.5358 16.0711 45.2531C16.2639 45.4484 16.4407 45.6242 16.596 45.7767C16.1394 46.1415 15.4902 46.6614 14.7125 47.2874C13.1469 48.5479 11.0594 50.2395 8.97408 51.9628C6.89039 53.6847 4.80213 55.4437 3.23776 56.8373C2.4574 57.5325 1.79597 58.1469 1.32824 58.6248C1.09649 58.8617 0.896134 59.0813 0.75011 59.2701C0.678228 59.3631 0.603331 59.4691 0.543976 59.5803C0.503644 59.6559 0.385831 59.8816 0.411801 60.1659L0.436361 60.4347L0.616744 60.6356L9.88916 70.9623L10.1437 71.2458L10.5245 71.2319C10.7178 71.2249 10.882 71.1608 10.9743 71.1206C11.0829 71.0732 11.1923 71.0132 11.2961 70.9505C11.5045 70.8247 11.7482 70.6531 12.0139 70.4527C12.5483 70.0496 13.2301 69.4848 14.0021 68.8194C15.5489 67.486 17.5018 65.7102 19.4468 63.9235C20.1671 63.2619 20.8859 62.5991 21.5835 61.9558C22.7748 60.8574 23.9043 59.8159 24.874 58.9341C25.6424 58.2354 26.3037 57.6431 26.8104 57.2069C27.0642 56.9884 27.2736 56.8139 27.4353 56.6865C27.468 56.6608 27.4971 56.6382 27.5229 56.6186C27.526 56.6206 27.5291 56.6226 27.5323 56.6247C27.7378 56.7584 28.0226 57.0045 28.3965 57.373C28.8264 57.7966 29.3011 58.3065 29.8348 58.8798C30.2417 59.3169 30.6831 59.791 31.1651 60.2919C32.2482 61.4174 33.4824 62.6174 34.7935 63.5927C36.0966 64.5622 37.5374 65.3568 39.0348 65.5944C39.5204 65.6714 39.9893 65.4652 40.3354 65.2665C40.7167 65.0475 41.1324 64.7279 41.5679 64.3435C42.4425 63.5716 43.4928 62.4531 44.6485 61.1026C46.9649 58.3958 49.7743 54.6754 52.5618 50.7171C55.351 46.7564 58.1287 42.5429 60.382 38.8441C62.6227 35.1661 64.3816 31.938 65.0932 29.9719L65.1175 29.9051L65.1297 29.835C65.2001 29.4321 65.079 29.0436 64.944 28.7437C64.8008 28.4255 64.5887 28.092 64.3394 27.7558C63.8392 27.0812 63.1167 26.2996 62.2633 25.4657C60.5513 23.7925 58.2264 21.8251 55.8649 19.9472C53.5 18.0668 51.0817 16.2628 49.1741 14.9146C48.221 14.2411 47.3893 13.6769 46.7522 13.2725C46.4346 13.0709 46.1566 12.9034 45.9315 12.7805C45.8194 12.7193 45.7112 12.6641 45.612 12.6201C45.5288 12.5833 45.3932 12.5273 45.245 12.5038C44.9097 12.4506 44.5409 12.5401 44.2544 12.6279C43.93 12.7273 43.5485 12.8789 43.1256 13.0689C42.2771 13.4501 41.1948 14.0164 39.9468 14.7233C37.4471 16.1394 34.2293 18.1507 30.7859 20.4585C23.9082 25.0681 16.0646 30.9051 11.2093 35.6011Z" stroke="#212B5A" stroke-width="1.62791"/>
<path fill-rule="evenodd" clip-rule="evenodd" d="M-14.4121 88.2096L-11.4607 80.9325C-8.47428 74.367 -2.57146 59.8129 3.63001 58.7944C10.1633 57.0464 17.327 68.1045 24.2106 73.471C30.7273 78.8556 37.3306 78.5305 43.6538 72.5138C49.9769 66.4971 56.0198 54.7888 62.0812 50.9246C68.5444 47.7537 75.3579 51.6973 82.0313 52.7951C88.3028 53.1995 94.8011 50.7401 98.0327 49.1546L101.299 48.2806L103.646 95.9477L100.344 96.1102C97.0427 96.2728 90.4394 96.5979 84.2029 96.9049C77.5995 97.23 70.9962 97.5551 64.3929 97.8802C58.1564 98.1872 51.553 98.5123 44.9497 98.8374C38.3464 99.1625 31.743 99.4876 25.5065 99.7946C18.9032 100.12 12.2999 100.445 5.69652 100.77C-0.539965 101.077 -7.14331 101.402 -10.445 101.565L-13.7466 101.727L-14.4121 88.2096Z" fill="#0DCA84"/>
<path fill-rule="evenodd" clip-rule="evenodd" d="M-14.4121 86.2562L-11.4607 78.9792C-8.47428 72.4136 -2.57146 57.8595 3.63001 56.841C10.1633 55.0931 17.327 66.1511 24.2106 71.5176C30.7273 76.9022 37.3306 76.5771 43.6538 70.5604C49.9769 64.5437 56.0198 52.8355 62.0812 48.9712C68.5444 45.8003 75.3579 49.7439 82.0313 50.8417C88.3028 51.2461 94.8011 48.7867 98.0327 47.2013L101.299 46.3273L103.646 93.9943L100.344 94.1569C97.0427 94.3194 90.4394 94.6445 84.2029 94.9515C77.5995 95.2766 70.9962 95.6017 64.3929 95.9268C58.1564 96.2339 51.553 96.5589 44.9497 96.884C38.3464 97.2091 31.743 97.5342 25.5065 97.8413C18.9032 98.1663 12.2999 98.4914 5.69652 98.8165C-0.539965 99.1236 -7.14331 99.4487 -10.445 99.6112L-13.7466 99.7737L-14.4121 86.2562Z" stroke="#0DCA84" stroke-width="0.651163"/>
<g clip-path="url(#clip1_1195_17569)">
<path d="M27.8416 30.5085C27.8416 30.5085 24.4893 28.658 23.1939 27.7634C22.8522 27.5208 20.5722 23.3334 20.5722 23.3334C20.5722 23.3334 19.0707 24.1477 19.7895 24.8145C20.1044 25.1065 22.7306 29.3405 22.7306 29.3405C24.487 30.1766 26.1783 31.1429 27.7903 32.2312C27.7903 32.2312 29.0242 31.8887 27.8416 30.5085Z" fill="#FFF5BF" stroke="#212B5A" stroke-width="0.0846512" stroke-miterlimit="10"/>
<g opacity="0.31">
<path d="M33.444 46.7715C33.4804 46.7786 33.5149 46.7929 33.5456 46.8137C33.5771 46.8349 33.6011 46.8655 33.614 46.9012C33.6798 47.0488 33.5427 47.2583 33.3057 47.3604C33.2571 47.3767 33.207 47.388 33.1561 47.394C32.9705 47.4358 32.8013 47.3818 32.7477 47.2639C32.74 47.2239 32.7418 47.1827 32.7531 47.1435C32.7635 47.0908 32.7907 47.0429 32.8307 47.007" fill="#FACD24"/>
<path d="M33.444 46.7715C33.4804 46.7786 33.5149 46.7929 33.5456 46.8137C33.5771 46.8349 33.6011 46.8655 33.614 46.9012C33.6798 47.0488 33.5427 47.2583 33.3057 47.3604C33.2571 47.3767 33.207 47.388 33.1561 47.394C32.9705 47.4358 32.8013 47.3818 32.7477 47.2639C32.74 47.2239 32.7418 47.1827 32.7531 47.1435C32.7635 47.0908 32.7907 47.0429 32.8307 47.007" stroke="#662800" stroke-width="0.162791" stroke-linecap="round" stroke-linejoin="round"/>
</g>
<g opacity="0.14">
<path d="M34.1229 46.5646C34.1371 46.5916 34.1439 46.6218 34.1427 46.6522C34.1371 46.6811 34.122 46.7074 34.0999 46.7268C34.0694 46.7417 34.0358 46.7493 34.0019 46.7488C33.9675 46.7531 33.9326 46.7478 33.901 46.7336C33.8825 46.7185 33.8673 46.6998 33.8561 46.6787C33.843 46.6571 33.8373 46.6318 33.8399 46.6066" fill="#FACD24"/>
<path d="M34.1229 46.5646C34.1371 46.5916 34.1439 46.6218 34.1427 46.6522C34.1371 46.6811 34.122 46.7074 34.0999 46.7268C34.0694 46.7417 34.0358 46.7493 34.0019 46.7488C33.9675 46.7531 33.9326 46.7478 33.901 46.7336C33.8825 46.7185 33.8673 46.6998 33.8561 46.6787C33.843 46.6571 33.8373 46.6318 33.8399 46.6066" stroke="#662800" stroke-width="0.162791" stroke-linecap="round" stroke-linejoin="round"/>
</g>
<path d="M45.1032 23.7289C45.6455 23.9968 49.4597 26.4799 49.3675 26.2624C48.8686 25.7762 48.3302 25.3322 47.7579 24.935C45.5465 23.1472 36.6021 20.7351 34.7811 20.105C34.7811 20.105 33.8615 19.3642 31.3857 21.4103L27.0847 31.188C27.0847 31.188 21.399 38.3261 18.959 38.6529C18.3378 38.7331 18.1421 40.2229 18.2702 41.4667C18.3732 42.5265 21.8825 44.8346 23.4498 45.9982C26.544 48.0618 29.8823 49.7336 33.3883 50.9755C33.3883 50.9755 35.313 51.344 36.0406 50.7255C36.8609 50.0374 44.6158 38.2673 44.6158 38.2673C45.9721 34.881 49.2814 28.0471 49.3864 27.8881C49.5199 27.431 49.5541 26.9506 49.4867 26.4793C49.4991 26.1732 47.9831 25.3338 47.8601 25.4372L42.6751 37.7153L34.965 48.352C34.965 48.352 29.1518 47.1687 25.4241 44.6607C23.6119 43.4438 19.4079 40.4797 19.2858 40.2743C19.064 39.9032 18.9051 39.498 18.8156 39.0751C18.8372 39.0131 18.8728 38.9569 18.9195 38.9109C18.968 38.8681 19.0265 38.8382 19.0896 38.8239C22.0594 37.8905 27.1804 31.6376 27.1804 31.6376L31.384 21.4269C31.7223 21.2208 33.7824 20.0481 34.1969 20.0848C34.4911 20.1161 37.4858 21.3161 37.9914 21.3485" fill="#FBB03B"/>
<path opacity="0.22" d="M46.7464 29.088L48.4388 28.4961" stroke="#212B5A" stroke-width="0.162791" stroke-linecap="round" stroke-linejoin="round"/>
<path opacity="0.22" d="M46.1529 30.5915L47.9293 29.9157" stroke="#212B5A" stroke-width="0.162791" stroke-linecap="round" stroke-linejoin="round"/>
<path opacity="0.22" d="M45.5632 31.7261L47.4035 31.1172" stroke="#212B5A" stroke-width="0.162791" stroke-linecap="round" stroke-linejoin="round"/>
<path opacity="0.22" d="M40.9648 40.2498L42.8097 40.5766" stroke="#212B5A" stroke-width="0.162791" stroke-linecap="round" stroke-linejoin="round"/>
<g opacity="0.22">
<path d="M44.8713 33.3657C44.8643 33.3348 46.8676 32.8246 46.8676 32.8246L44.8713 33.3657Z" fill="white"/>
<path d="M44.8713 33.3657C44.8643 33.3348 46.8676 32.8246 46.8676 32.8246" stroke="#212B5A" stroke-width="0.162791" stroke-linecap="round" stroke-linejoin="round"/>
</g>
<path opacity="0.22" d="M44.3573 34.9378L46.3514 34.4351" stroke="#212B5A" stroke-width="0.162791" stroke-linecap="round" stroke-linejoin="round"/>
<g opacity="0.22">
<path d="M43.3514 36.9135C43.3926 36.9042 45.5099 36.3467 45.5099 36.3467L43.3514 36.9135Z" fill="white"/>
<path d="M43.3514 36.9135C43.3926 36.9042 45.5099 36.3467 45.5099 36.3467" stroke="#212B5A" stroke-width="0.162791" stroke-linecap="round" stroke-linejoin="round"/>
</g>
<path opacity="0.22" d="M18.9564 40.2613L19.0831 42.3176" stroke="#212B5A" stroke-width="0.162791" stroke-linecap="round" stroke-linejoin="round"/>
<g opacity="0.22">
<path d="M19.6766 40.9987C19.6324 41.6501 19.6508 42.3042 19.7314 42.9521L19.6766 40.9987Z" fill="white"/>
<path d="M19.6766 40.9987C19.6324 41.6501 19.6508 42.3042 19.7314 42.9521" stroke="#212B5A" stroke-width="0.162791" stroke-linecap="round" stroke-linejoin="round"/>
</g>
<path opacity="0.22" d="M20.6894 42.2761L20.7072 43.8966" stroke="#212B5A" stroke-width="0.162791" stroke-linecap="round" stroke-linejoin="round"/>
<path opacity="0.22" d="M21.9099 43.0088L21.8564 44.9865" stroke="#212B5A" stroke-width="0.162791" stroke-linecap="round" stroke-linejoin="round"/>
<path opacity="0.22" d="M22.7987 43.827L22.7653 45.8218" stroke="#212B5A" stroke-width="0.162791" stroke-linecap="round" stroke-linejoin="round"/>
<path opacity="0.22" d="M23.5401 44.5264L23.4084 46.1806" stroke="#212B5A" stroke-width="0.162791" stroke-linecap="round" stroke-linejoin="round"/>
<path opacity="0.22" d="M25.5448 45.949L25.7134 47.3731" stroke="#212B5A" stroke-width="0.162791" stroke-linecap="round" stroke-linejoin="round"/>
<path opacity="0.22" d="M26.6812 46.3757L26.897 47.8164" stroke="#212B5A" stroke-width="0.162791" stroke-linecap="round" stroke-linejoin="round"/>
<path opacity="0.22" d="M27.8461 46.8069L28.1507 48.2817" stroke="#212B5A" stroke-width="0.162791" stroke-linecap="round" stroke-linejoin="round"/>
<path opacity="0.22" d="M29.1895 47.3118L29.5628 48.9714" stroke="#212B5A" stroke-width="0.162791" stroke-linecap="round" stroke-linejoin="round"/>
<path opacity="0.22" d="M30.4186 47.7715L30.6774 49.235" stroke="#212B5A" stroke-width="0.162791" stroke-linecap="round" stroke-linejoin="round"/>
<path opacity="0.22" d="M31.5842 48.0618L31.907 49.6895" stroke="#212B5A" stroke-width="0.162791" stroke-linecap="round" stroke-linejoin="round"/>
<path opacity="0.22" d="M33.0156 48.5955L33.3519 50.0902" stroke="#212B5A" stroke-width="0.162791" stroke-linecap="round" stroke-linejoin="round"/>
<path opacity="0.22" d="M42.041 38.8269L43.9048 39.3824" stroke="#212B5A" stroke-width="0.162791" stroke-linecap="round" stroke-linejoin="round"/>
<path opacity="0.22" d="M40.0723 41.5552L41.9412 42.1095" stroke="#212B5A" stroke-width="0.162791" stroke-linecap="round" stroke-linejoin="round"/>
<path opacity="0.22" d="M38.834 43.301L40.703 43.8553" stroke="#212B5A" stroke-width="0.162791" stroke-linecap="round" stroke-linejoin="round"/>
<path opacity="0.22" d="M36.5 46.436L38.369 46.9903" stroke="#212B5A" stroke-width="0.162791" stroke-linecap="round" stroke-linejoin="round"/>
<path opacity="0.22" d="M37.8145 44.7214L39.6846 45.2809" stroke="#212B5A" stroke-width="0.162791" stroke-linecap="round" stroke-linejoin="round"/>
<path d="M25.5368 44.83L19.3251 40.6226C18.8291 40.1277 18.1756 38.7152 19.2935 38.7724C22.3326 37.3523 25.3804 33.683 27.1061 31.7461C28.2531 29.4521 30.0919 23.6829 31.4856 21.2576C32.2525 20.7729 33.0724 20.3778 33.9292 20.0797C34.0913 20.0698 34.2535 20.0956 34.4045 20.1552C34.5555 20.2148 34.6916 20.3068 34.8031 20.4247L47.4712 25.3512C47.9632 25.8524 43.3469 36.8058 42.834 37.2948L34.9638 48.352C34.4635 48.849 26.277 45.3512 25.5368 44.83Z" fill="#FACD24"/>
<path d="M25.3868 44.8365L19.5243 40.4477C19.0323 39.9465 18.0652 38.7778 19.5432 38.6294C22.521 37.4181 25.8975 33.8373 27.0797 31.8927C27.5784 30.9791 29.9583 24.0756 31.3989 21.3527C31.6936 21.1456 33.7822 19.9069 34.1542 19.899C34.3155 19.8908 34.4766 19.9173 34.6267 19.9769L44.7518 23.4718C45.087 23.3964 47.8853 25.3608 47.8853 25.3608C47.8853 25.3608 46.1711 29.6127 45.7891 29.9856L42.6304 37.882L34.9226 48.529C34.4222 49.026 26.1212 45.3319 25.3868 44.8365Z" fill="url(#paint0_linear_1195_17569)"/>
<g opacity="0.25">
<path d="M33.2014 22.8156C33.3117 22.9208 33.3084 22.954 33.1281 23.0921C32.9479 23.2301 32.7635 23.277 32.6502 23.1346C32.5369 22.9922 32.5191 22.9854 32.7287 22.9057" fill="#FACD24"/>
<path d="M33.201 22.8156C33.3113 22.9208 33.3345 23.0239 33.1554 23.167C32.9764 23.3102 32.7959 23.3508 32.6775 23.2096C32.559 23.0683 32.5187 22.9854 32.7283 22.9057" stroke="#662800" stroke-width="0.162791" stroke-linecap="round" stroke-linejoin="round"/>
</g>
<path d="M47.8696 25.4349L42.6743 37.7153L34.9642 48.352C33.0966 48.1169 30.2439 47.0907 26.0491 45.0831C24.237 43.8662 19.407 40.4797 19.285 40.2743C19.0563 39.9195 18.888 39.5292 18.7868 39.1193C18.8071 39.0579 18.8434 39.003 18.8919 38.9603C18.9404 38.9175 18.9989 38.8876 19.0619 38.8733C22.0369 37.9387 27.1619 31.6795 27.1619 31.6795L31.6343 21.2188C31.9726 21.0127 33.7971 20.0446 34.1944 20.1014C34.4898 20.1345 34.7723 20.2402 35.0167 20.4092M47.6251 25.3112C47.0469 24.9323 46.4659 24.5648 45.8825 24.187C42.8485 22.1619 36.3588 21.1741 35.0614 20.4154L34.8363 20.2819C34.8363 20.2819 33.8607 19.3642 31.3884 21.4257C31.3884 21.4257 27.4325 30.3299 27.0874 31.2035C27.0874 31.2035 21.3953 38.3376 18.9376 38.6576C18.3164 38.7377 18.1207 40.2276 18.2487 41.4713C18.3517 42.5312 23.873 46.3902 25.4403 47.5539C26.6054 48.3748 29.0247 49.401 33.3669 50.9802C33.9986 51.2117 35.2915 51.3487 36.0191 50.7302C36.7467 50.1116 39.3979 45.7626 43.23 40.3303C46.7995 35.3199 48.5132 28.8262 49.0124 28.324C49.1537 28.1872 49.2813 28.0369 49.3936 27.8755C49.5784 27.5255 49.664 27.1318 49.6413 26.7367C49.6618 26.4668 47.7504 25.4347 47.6251 25.3112Z" stroke="#212B5A" stroke-width="0.162791" stroke-miterlimit="10"/>
<path d="M25.7244 45.4159C25.7244 45.4159 27.9969 45.4744 27.3531 47.0736C27.3531 47.0736 24.0261 47.927 21.0505 48.3497C19.5973 49.9446 21.1798 57.0442 20.3272 58.7384C20.3272 58.7384 19.1745 59.381 18.8229 58.263C18.6464 57.7211 17.6798 49.1016 19.9538 46.5784C21.8315 45.9905 23.7656 45.6009 25.7244 45.4159Z" fill="#FFF5BF" stroke="#212B5A" stroke-width="0.162791" stroke-miterlimit="10"/>
<path d="M18.8974 56.1655C18.832 56.128 18.755 56.1163 18.6814 56.1327C18.6134 56.1425 18.5513 56.1767 18.5068 56.2291C18.3025 56.5086 18.0773 56.7723 17.8332 57.0179C17.6381 57.1585 17.4305 57.281 17.2131 57.3837C17.2131 57.3837 15.2506 58.1443 14.9563 57.8389C14.1414 57.0068 11.4841 58.0502 12.653 59.6807C13.822 61.3112 15.6728 61.9953 16.2497 61.6977C16.8265 61.4001 19.4523 60.4976 19.4523 60.4976C19.4523 60.4976 21.1059 58.1297 21.008 57.5274C20.9942 57.3654 20.9361 57.2104 20.84 57.0792C20.7448 56.9495 20.6181 56.8462 20.4718 56.7791L19.0584 58.3675C19.0584 58.3675 20.2513 57.304 19.9815 56.9403C19.6548 56.6367 19.2905 56.3763 18.8974 56.1655Z" fill="#FACD24" stroke="#212B5A" stroke-width="0.162791" stroke-miterlimit="10"/>
<path d="M19.0176 58.374C18.4136 58.4711 17.8344 58.6853 17.3125 59.0045C16.2812 59.6409 16.1209 59.1983 16.1209 59.1983L15.5817 58.3485L17.1835 57.3748" fill="#FACD24"/>
<path d="M19.0176 58.374C18.4136 58.4711 17.8344 58.6853 17.3125 59.0045C16.2812 59.6409 16.1209 59.1983 16.1209 59.1983L15.5817 58.3485L17.1835 57.3748" stroke="#212B5A" stroke-width="0.162791" stroke-miterlimit="10"/>
<path d="M19.6876 60.1127C19.6187 60.3131 19.5186 60.5013 19.391 60.6704C19.2305 60.812 15.7846 62.1875 15.7846 62.1875C15.1577 62.1227 14.5439 61.9661 13.9626 61.7229C13.9626 61.7229 11.946 59.4762 12.0796 58.8771C12.1692 58.6318 12.2942 58.4009 12.4506 58.1918C12.4506 58.1918 11.7009 58.7213 14.2401 61.2566C14.6864 61.6641 15.2719 61.8849 15.8762 61.8737C16.3336 61.677 17.0796 61.25 17.6428 61.0362C18.4191 60.7537 19.1977 60.7358 19.6876 60.1127Z" fill="white" stroke="#212B5A" stroke-width="0.162791" stroke-miterlimit="10"/>
<path d="M19.0469 60.054C19.1568 60.1448 19.4309 59.9916 19.6734 59.728C19.916 59.4644 19.9955 59.1593 19.8922 59.0674C19.7889 58.9755 19.5082 59.1299 19.2657 59.3935C19.0231 59.6571 18.9425 59.9555 19.0469 60.054Z" fill="white" stroke="#212B5A" stroke-width="0.162791" stroke-miterlimit="10"/>
<path d="M17.8127 57.021L18.6759 58.443L16.8344 57.608L17.314 59.0109L15.9368 58.148L16.3433 59.3522" stroke="#212B5A" stroke-width="0.162791" stroke-linecap="round" stroke-linejoin="round"/>
<path d="M19.1656 58.2345L17.2239 57.3682L17.8327 58.7297L16.469 57.8238L16.9508 59.1992L15.5759 58.3494" stroke="#212B5A" stroke-width="0.162791" stroke-linecap="round" stroke-linejoin="round"/>
<path d="M14.9369 57.8422C14.9369 57.8422 17.3949 60.8391 16.0724 61.7742C14.7498 62.7093 12.81 60.2667 12.3432 58.984C11.8764 57.7013 14.5867 57.1927 14.9369 57.8422Z" fill="white" stroke="#212B5A" stroke-width="0.162791" stroke-miterlimit="10"/>
<path d="M14.1789 58.1554C14.3042 58.2573 14.4397 58.2964 14.4796 58.2492C14.5195 58.2019 14.4505 58.0705 14.3385 57.9664C14.2264 57.8624 14.0766 57.8188 14.0378 57.8727C13.999 57.9265 14.0459 58.048 14.1789 58.1554Z" fill="#C9DEFF"/>
<path d="M14.6565 58.2137C14.7048 58.2602 14.7687 58.2769 14.7854 58.2539C14.802 58.2308 14.7735 58.1811 14.7252 58.1346C14.6769 58.0881 14.613 58.0713 14.5897 58.0955C14.5665 58.1196 14.6102 58.2212 14.6565 58.2137Z" fill="#C9DEFF"/>
<path d="M21.6722 42.9935C21.6722 42.9935 23.793 43.0935 23.0173 44.6252C23.0173 44.6252 20.1764 44.8967 16.6083 45.5332C14.7525 47.1089 13.9784 52.0444 12.7892 53.8712C12.7892 53.8712 11.5654 54.3767 11.3237 53.196C11.1976 52.5681 12.8709 46.0881 15.6992 43.6467C17.64 43.098 19.6587 42.8772 21.6722 42.9935Z" fill="#FFF5BF" stroke="#212B5A" stroke-width="0.162791" stroke-miterlimit="10"/>
<path d="M12.0118 50.4279C11.8579 50.3801 11.6839 50.6363 11.6081 50.7846C11.2226 51.2852 10.8103 51.7646 10.373 52.2208C10.1711 52.4714 11.165 51.3291 11.165 51.3291L10.0941 52.0065C10.0941 52.0065 8.56778 53.4082 8.21192 53.17C7.21831 52.5622 4.77325 54.2139 6.2983 55.5684C7.82335 56.9229 9.82354 57.2422 10.3403 56.7976C10.857 56.3529 13.2898 54.881 13.2898 54.881C13.2898 54.881 14.416 52.1545 14.1887 51.5726C14.1388 51.4127 14.0463 51.2694 13.921 51.158C13.7981 51.0458 13.6467 50.9695 13.4833 50.9375L12.429 52.8475C12.429 52.8475 13.405 51.4717 13.0885 51.1903C12.7717 50.8814 12.4084 50.6242 12.0118 50.4279Z" fill="#FACD24" stroke="#212B5A" stroke-width="0.162791" stroke-miterlimit="10"/>
<path d="M12.4314 52.8614C11.8467 53.0906 11.3125 53.4317 10.8588 53.8657C9.96882 54.7275 9.70901 54.3332 9.70901 54.3332L8.985 53.5956L10.3838 52.2688" fill="#FACD24"/>
<path d="M12.4314 52.8614C11.8467 53.0906 11.3125 53.4317 10.8588 53.8657C9.96882 54.7275 9.70901 54.3332 9.70901 54.3332L8.985 53.5956L10.3838 52.2688" stroke="#212B5A" stroke-width="0.162791" stroke-miterlimit="10"/>
<path d="M8.2148 53.2252C8.2148 53.2252 11.3446 55.7238 10.2219 56.9136C9.09924 58.1033 6.62055 56.1115 5.8683 54.9204C5.11605 53.7294 7.72552 52.6419 8.2148 53.2252Z" fill="white" stroke="#212B5A" stroke-width="0.162791" stroke-miterlimit="10"/>
<path d="M13.4765 54.4383C13.4522 54.654 13.3922 54.864 13.2989 55.0599C13.1764 55.238 10.023 57.364 10.023 57.364C9.38657 57.4495 8.7413 57.4451 8.10613 57.3508C8.10613 57.3508 5.58148 55.5541 5.58545 54.9062C5.62869 54.6504 5.70501 54.4013 5.81249 54.1652C5.81249 54.1652 5.15709 54.8851 8.26853 56.8471C8.80683 57.1545 9.44211 57.2454 10.0451 57.1011C10.4589 56.8129 11.1132 56.2171 11.6351 55.8824C12.349 55.3803 13.1331 55.1987 13.4765 54.4383Z" fill="white" stroke="#212B5A" stroke-width="0.162791" stroke-miterlimit="10"/>
<path d="M12.8331 54.5237C12.9604 54.5935 13.2058 54.389 13.3766 54.064C13.5474 53.739 13.581 53.4274 13.4474 53.3717C13.3139 53.3159 13.075 53.5132 12.9039 53.8313C12.7327 54.1495 12.7063 54.4677 12.8331 54.5237Z" fill="white" stroke="#212B5A" stroke-width="0.162791" stroke-miterlimit="10"/>
<path d="M10.9244 51.7679L12.106 53.0007L10.0738 52.5865L10.8243 53.8879L9.28768 53.3126L9.96071 54.4316" stroke="#212B5A" stroke-width="0.162791" stroke-linecap="round" stroke-linejoin="round"/>
<path d="M12.5455 52.6906L10.4085 52.2469L11.3143 53.479L9.74821 52.8637L10.5394 54.1494L8.97621 53.5959" stroke="#212B5A" stroke-width="0.162791" stroke-linecap="round" stroke-linejoin="round"/>
<path d="M7.43765 53.8475C7.57909 53.9236 7.72449 53.9374 7.75629 53.8808C7.78809 53.8242 7.69973 53.7043 7.55142 53.6286C7.4031 53.5529 7.26458 53.5387 7.2259 53.5957C7.18722 53.6526 7.28934 53.7718 7.43765 53.8475Z" fill="#C9DEFF"/>
<path d="M8.02969 53.675C8.09353 53.7133 8.15575 53.7173 8.17412 53.6682C8.19249 53.6191 8.17056 53.5925 8.07953 53.5624C7.9885 53.5322 7.95347 53.5201 7.94198 53.5689C7.93049 53.6176 7.96617 53.6435 8.02969 53.675Z" fill="#C9DEFF"/>
<path d="M38.916 28.3564C38.916 28.3564 40.5303 28.8658 40.8321 29.204C41.3791 29.6257 41.6413 30.019 41.7944 30.6873" stroke="#212B5A" stroke-width="0.244186" stroke-miterlimit="10" stroke-linecap="round"/>
<path d="M36.0014 28.3047C36.0014 28.3047 34.5777 33.3902 30.7433 30.8412C30.7433 30.8412 29.4954 30.64 29.9554 31.6737C30.4155 32.7074 32.503 33.0771 32.503 33.0771C32.503 33.0771 33.9327 32.4252 34.0749 33.3463C34.217 34.2674 35.3159 34.0473 35.3159 34.0473C35.3159 34.0473 36.1132 33.0882 35.4028 33.0368" fill="#FBB03B"/>
<path d="M36.0014 28.3047C36.0014 28.3047 34.5777 33.3902 30.7433 30.8412C30.7433 30.8412 29.4954 30.64 29.9554 31.6737C30.4155 32.7074 32.503 33.0771 32.503 33.0771C32.503 33.0771 33.9327 32.4252 34.0749 33.3463C34.217 34.2674 35.3159 34.0473 35.3159 34.0473C35.3159 34.0473 36.1132 33.0882 35.4028 33.0368" stroke="#212B5A" stroke-width="0.162791" stroke-miterlimit="10"/>
<g opacity="0.25">
<path d="M30.8891 31.1333C30.9175 31.1401 30.9443 31.1525 30.9678 31.1698C30.9892 31.1898 31.0073 31.2132 31.0212 31.239C31.0329 31.2668 31.0395 31.2965 31.041 31.3266C31.0371 31.3555 31.0308 31.3841 31.0222 31.412C31.0084 31.4377 30.9896 31.4604 30.9668 31.4787C30.9398 31.4928 30.9096 31.4996 30.8792 31.4984C30.8537 31.5114 30.8253 31.5178 30.7967 31.5169C30.7677 31.512 30.7405 31.4995 30.718 31.4805C30.6706 31.4634 30.6305 31.4302 30.6049 31.3868C30.5785 31.3416 30.5668 31.2894 30.5713 31.2373" fill="#FACD24"/>
<path d="M30.8891 31.1333C30.9175 31.1401 30.9443 31.1525 30.9678 31.1698C30.9892 31.1898 31.0073 31.2132 31.0212 31.239C31.0329 31.2668 31.0395 31.2965 31.041 31.3266C31.0371 31.3555 31.0308 31.3841 31.0222 31.412C31.0084 31.4377 30.9896 31.4604 30.9668 31.4787C30.9398 31.4928 30.9096 31.4996 30.8792 31.4984C30.8537 31.5114 30.8253 31.5178 30.7967 31.5169C30.7677 31.512 30.7405 31.4995 30.718 31.4805C30.6706 31.4634 30.6305 31.4302 30.6049 31.3868C30.5785 31.3416 30.5668 31.2894 30.5713 31.2373" stroke="#662800" stroke-width="0.0651163" stroke-linecap="round" stroke-linejoin="round"/>
</g>
<g opacity="0.25">
<path d="M30.3572 31.0204C30.3842 31.0399 30.4038 31.0679 30.413 31.0999C30.4202 31.1318 30.4162 31.1652 30.4017 31.1945C30.3852 31.2241 30.3606 31.2484 30.3308 31.2646C30.3029 31.2812 30.2704 31.2886 30.238 31.2855C30.2119 31.2694 30.1914 31.2457 30.1794 31.2175C30.1639 31.1929 30.1574 31.1638 30.1608 31.135" fill="#FACD24"/>
<path d="M30.3572 31.0204C30.3842 31.0399 30.4038 31.0679 30.413 31.0999C30.4202 31.1318 30.4162 31.1652 30.4017 31.1945C30.3852 31.2241 30.3606 31.2484 30.3308 31.2646C30.3029 31.2812 30.2704 31.2886 30.238 31.2855C30.2119 31.2694 30.1914 31.2457 30.1794 31.2175C30.1639 31.1929 30.1574 31.1638 30.1608 31.135" stroke="#662800" stroke-width="0.0651163" stroke-linecap="round" stroke-linejoin="round"/>
</g>
<path d="M28.1953 41.3347C29.2523 42.4453 34.2754 41.754 34.2754 41.754C34.2754 41.754 34.9835 40.6634 35.5467 39.8436" stroke="#212B5A" stroke-width="0.162791" stroke-miterlimit="10"/>
<path d="M29.0263 39.0741C28.9207 39.0681 28.8152 39.0848 28.7166 39.1231C28.6181 39.1614 28.5289 39.2203 28.4551 39.2959C28.3812 39.3715 28.3244 39.4621 28.2885 39.5615C28.2527 39.6609 28.2385 39.7668 28.247 39.8721" stroke="#212B5A" stroke-width="0.0846512" stroke-miterlimit="10"/>
<path d="M28.2856 41.4226C26.2309 41.3433 26.2003 39.8827 26.2909 39.2017C26.3211 38.9011 26.4475 38.6182 26.6511 38.395C26.9639 38.0756 27.5295 37.7967 28.4331 38.2974" stroke="#212B5A" stroke-width="0.162791" stroke-miterlimit="10"/>
<path d="M30.517 34.531C30.517 34.531 33.192 32.4077 35.8065 35.5776C36.0809 35.9582 36.2804 36.3874 36.3943 36.8425C36.4326 37.0126 32.5639 35.2023 32.5639 35.2023L29.6942 35.3767C29.6717 35.3764 29.6498 35.3702 29.6305 35.3586C29.611 35.3487 29.5945 35.3337 29.5828 35.3151C29.5724 35.2944 29.5673 35.2714 29.5678 35.2481C29.5587 35.2288 29.554 35.2077 29.5539 35.1863L30.517 34.531Z" fill="#212B5A" stroke="#212B5A" stroke-width="0.0846512" stroke-miterlimit="10"/>
<path d="M30.6041 35.9085C30.488 38.0411 31.7654 38.1328 32.0497 38.1447C32.9435 38.1927 34.4693 37.438 34.4415 36.1825L32.1234 36.2328L30.3969 35.7818L29.3652 35.3857" fill="#F2F2F2"/>
<path d="M30.6041 35.9085C30.488 38.0411 31.7654 38.1328 32.0497 38.1447C32.9435 38.1927 34.4693 37.438 34.4415 36.1825L32.1234 36.2328L30.3969 35.7818L29.3652 35.3857" stroke="#212B5A" stroke-width="0.244186" stroke-miterlimit="10" stroke-linecap="round"/>
<path d="M31.6134 29.0751C31.475 29.4473 31.6334 29.9586 31.8577 30.0165C32.0819 30.0743 32.488 29.7123 32.5873 29.3109C32.6866 28.9095 32.5085 28.9604 32.0946 28.9506C31.8688 28.9581 31.6629 28.934 31.6134 29.0751Z" fill="#212B5A" stroke="#212B5A" stroke-width="0.172558" stroke-miterlimit="10"/>
<path d="M39.3492 30.6652C39.2464 31.0512 39.3192 31.4951 39.5498 31.5569C39.7804 31.6188 40.097 31.2443 40.2073 30.8675C40.2805 30.5911 40.0852 30.6621 39.8775 30.5572C39.49 30.352 39.4572 30.2781 39.3492 30.6652Z" fill="#212B5A" stroke="#212B5A" stroke-width="0.172558" stroke-miterlimit="10"/>
<path d="M30.5763 27.6676C30.5763 27.6676 31.7729 27.3281 32.1958 27.233C32.8104 26.9677 33.4027 26.6533 33.967 26.293" stroke="#212B5A" stroke-width="0.244186" stroke-miterlimit="10" stroke-linecap="round"/>
<path d="M56.8195 42.1628C56.5217 42.899 56.4489 43.7068 56.6104 44.4842C56.6104 44.4842 57.5793 46.3836 58.4337 46.0397C59.768 45.5176 58.9474 44.9278 58.5586 44.1868L58.4072 43.923L59.2891 44.7372C59.8522 46.6142 59.9307 47.3005 60.6145 47.4986C60.8024 47.5339 60.9962 47.5196 61.1769 47.4571C61.3576 47.3947 61.5189 47.2861 61.6448 47.1423C61.8639 47.0668 62.0602 46.9369 62.2154 46.7649C62.3797 46.4933 62.449 46.1748 62.4126 45.8595L62.5448 45.532C62.9921 44.4621 61.9216 42.304 61.9216 42.304C61.9216 42.304 61.0369 40.4182 59.8055 40.1212" fill="#F2F2F2"/>
<path d="M56.8195 42.1628C56.5217 42.899 56.4489 43.7068 56.6104 44.4842C56.6104 44.4842 57.5793 46.3836 58.4337 46.0397C59.768 45.5176 58.9474 44.9278 58.5586 44.1868L58.4072 43.923L59.2891 44.7372C59.8522 46.6142 59.9307 47.3005 60.6145 47.4986C60.8024 47.5339 60.9962 47.5196 61.1769 47.4571C61.3576 47.3947 61.5189 47.2861 61.6448 47.1423C61.8639 47.0668 62.0602 46.9369 62.2154 46.7649C62.3797 46.4933 62.449 46.1748 62.4126 45.8595L62.5448 45.532C62.9921 44.4621 61.9216 42.304 61.9216 42.304C61.9216 42.304 61.0369 40.4182 59.8055 40.1212" stroke="#212B5A" stroke-width="0.162791" stroke-linecap="round" stroke-linejoin="round"/>
<path d="M56.0604 39.4583C56.0604 39.4583 53.6408 41.73 55.5822 42.1489C57.5237 42.5678 59.865 40.4058 60.1224 39.5031C60.2076 39.2441 60.2365 38.9699 60.207 38.6989C60.0596 37.5137 58.1859 38.0705 58.1859 38.0705L57.3471 38.4595" fill="#F2F2F2"/>
<path d="M56.0604 39.4583C56.0604 39.4583 53.6408 41.73 55.5822 42.1489C57.5237 42.5678 59.865 40.4058 60.1224 39.5031C60.2076 39.2441 60.2365 38.9699 60.207 38.6989C60.0596 37.5137 58.1859 38.0705 58.1859 38.0705L57.3471 38.4595" stroke="#212B5A" stroke-width="0.162791" stroke-linecap="round" stroke-linejoin="round"/>
<path d="M45.8222 34.3047C45.8222 34.3047 49.9666 32.2353 51.5712 32.5296C52.1344 32.6249 57.6763 39.0082 57.6763 39.0082C57.6763 39.0082 57.9244 40.1112 56.7168 39.9442C56.1583 39.8695 51.0447 34.2346 51.0447 34.2346C51.0447 34.2346 48.9948 33.7427 45.1751 36.3889C45.1751 36.3889 43.7456 35.5245 45.8222 34.3047Z" fill="#FFF5BF" stroke="#212B5A" stroke-width="0.162791" stroke-miterlimit="10"/>
<path d="M60.8438 44.0085C60.8438 44.0085 61.7837 45.779 61.6426 47.1266Z" fill="#F2F2F2"/>
<path d="M60.8438 44.0085C60.8438 44.0085 61.7837 45.779 61.6426 47.1266" stroke="#212B5A" stroke-width="0.162791" stroke-linecap="round" stroke-linejoin="round"/>
<path d="M61.6367 43.2239C62.112 44.0178 62.3781 44.9193 62.4103 45.844Z" fill="#F2F2F2"/>
<path d="M61.6367 43.2239C62.112 44.0178 62.3781 44.9193 62.4103 45.844" stroke="#212B5A" stroke-width="0.162791" stroke-linecap="round" stroke-linejoin="round"/>
<path d="M60.4453 43.0803C60.4453 43.0803 60.6786 43.2986 60.6369 43.3784" stroke="#212B5A" stroke-width="0.162791" stroke-linecap="round" stroke-linejoin="round"/>
<path d="M61.3926 42.4067C61.4457 42.4545 61.4867 42.5143 61.5121 42.5811C61.5375 42.6479 61.5466 42.7198 61.5386 42.7909" stroke="#212B5A" stroke-width="0.162791" stroke-linecap="round" stroke-linejoin="round"/>
<path d="M21.512 21.7624C21.512 21.7624 22.922 22.1546 23.0933 23.2532C23.2646 24.3519 22.2662 25.7894 20.6501 26.6241C18.3796 27.8008 17.7333 26.9986 17.4459 26.6842C17.1585 26.3698 17.4674 25.6721 17.4674 25.6721" fill="#F2F2F2"/>
<path d="M21.512 21.7624C21.512 21.7624 22.922 22.1546 23.0933 23.2532C23.2646 24.3519 22.2662 25.7894 20.6501 26.6241C18.3796 27.8008 17.7333 26.9986 17.4459 26.6842C17.1585 26.3698 17.4674 25.6721 17.4674 25.6721" stroke="#212B5A" stroke-width="0.162791" stroke-miterlimit="10"/>
<path d="M19.3822 20.8485C19.0567 20.3602 18.4056 19.5749 17.9718 19.2551C17.7895 19.156 17.5863 19.1012 17.3789 19.0951C17.1714 19.0891 16.9654 19.1321 16.7776 19.2204C16.6405 19.3132 16.5246 19.434 16.4377 19.5749C16.3508 19.7159 16.2948 19.8736 16.2735 20.0378C16.2735 20.0378 15.0181 19.7787 14.765 20.5558C14.6111 20.9938 14.6152 21.4718 14.7764 21.907C14.7764 21.907 13.5814 24.0582 15.8008 24.9182L16.1042 25.1977C16.7002 25.544 17.3673 25.75 18.0549 25.8002C20.3194 25.8973 21.119 23.1182 21.4842 21.7798C21.9868 20.6954 22.1498 19.709 22.1498 19.709C22.1498 19.709 22.4753 18.1896 22.1498 18.0811C21.173 17.7555 20.2001 18.0811 19.8707 18.8951C19.5955 19.5749 19.3822 20.8485 19.3822 20.8485Z" fill="#F2F2F2" stroke="#212B5A" stroke-width="0.162791" stroke-miterlimit="10"/>
<path d="M16.7773 20.5354C16.7773 20.5354 17.5378 22.0376 17.9524 22.123Z" fill="#F2F2F2"/>
<path d="M16.7773 20.5354C16.7773 20.5354 17.5378 22.0376 17.9524 22.123" stroke="#212B5A" stroke-width="0.162791" stroke-miterlimit="10"/>
<path d="M17.7133 21.9293C17.7133 21.9293 18.6413 22.3704 18.9999 22.0623C19.5046 21.7051 19.2199 20.6856 19.2199 20.6856" fill="#F2F2F2"/>
<path d="M17.7133 21.9293C17.7133 21.9293 18.6413 22.3704 18.9999 22.0623C19.5046 21.7051 19.2199 20.6856 19.2199 20.6856" stroke="#212B5A" stroke-width="0.162791" stroke-miterlimit="10"/>
<path d="M15.1504 22.2622C15.1504 22.2622 16.0332 23.634 16.9367 23.4362C17.8401 23.2384 17.9655 22.712 17.9441 22.4244C17.9156 22.2427 17.8361 22.0728 17.7148 21.9345" fill="#F2F2F2"/>
<path d="M15.1504 22.2622C15.1504 22.2622 16.0332 23.634 16.9367 23.4362C17.8401 23.2384 17.9655 22.712 17.9441 22.4244C17.9156 22.2427 17.8361 22.0728 17.7148 21.9345" stroke="#212B5A" stroke-width="0.162791" stroke-miterlimit="10"/>
<path d="M15.7333 24.8331C15.7333 24.8331 16.5483 25.2292 16.9622 24.757C17.1041 24.5627 17.1695 24.3229 17.1456 24.0835C17.1217 23.844 17.0103 23.6219 16.8328 23.4594" fill="#F2F2F2"/>
<path d="M15.7333 24.8331C15.7333 24.8331 16.5483 25.2292 16.9622 24.757C17.1041 24.5627 17.1695 24.3229 17.1456 24.0835C17.1217 23.844 17.0103 23.6219 16.8328 23.4594" stroke="#212B5A" stroke-width="0.162791" stroke-miterlimit="10"/>
<path d="M30.1539 23.6589C30.1539 23.6589 34.893 28.9772 46.7604 28.7067L49.1665 28.5661C49.1665 28.5661 49.6056 28.5919 49.8207 27.9587C50.0141 26.8052 50.1339 25.6406 50.1794 24.4719C50.1794 24.4719 42.8012 23.7002 39.7543 22.4849C36.4985 21.1595 32.0941 20.8452 32.0524 20.2264C32.0108 19.6077 31.0478 20.095 31.0522 20.4514C30.8145 21.2671 30.5074 22.0608 30.1341 22.824C30.0622 22.9521 30.026 23.0973 30.0295 23.2442C30.033 23.391 30.076 23.5343 30.1539 23.6589Z" fill="#F2F2F2" stroke="#212B5A" stroke-width="0.162791" stroke-miterlimit="10"/>
<path d="M35.1768 8.56862L34.1771 15.6598L31.8845 19.9173C32.1367 20.4415 32.5464 20.8738 33.0565 21.1537C37.287 23.9222 50.1785 24.4718 50.1785 24.4718L52.3015 17.5341L52.8838 9.7191C50.718 10.1088 44.7484 9.67545 42.9688 9.78334C41.1892 9.89123 35.9398 9.74534 35.1768 8.56862Z" fill="#F2F2F2" stroke="#212B5A" stroke-width="0.162791" stroke-linecap="square" stroke-linejoin="bevel"/>
<path d="M35.1758 8.56885C35.1758 8.56885 35.9619 10.0165 42.526 9.81798C45.0061 9.74203 47.6514 9.89429 49.6376 9.88613C50.71 9.88578 51.7816 9.82553 52.8472 9.70567C48.5244 5.75575 35.1758 8.56885 35.1758 8.56885Z" fill="#F2F2F2" stroke="#212B5A" stroke-width="0.162791" stroke-linejoin="bevel"/>
<path d="M31.3971 21.6733C31.1318 22.3247 30.832 22.9616 30.499 23.5811C30.3697 23.6806 30.4667 23.9674 30.4667 23.9674" stroke="#212B5A" stroke-width="0.0813954" stroke-linejoin="bevel"/>
<path d="M31.6515 22.8072L31.1649 23.7506C31.1053 23.7786 31.0525 23.8193 31.0104 23.8699C30.9682 23.9205 30.9378 23.9798 30.9211 24.0434C30.9044 24.1071 30.9019 24.1737 30.9138 24.2384C30.9257 24.3032 30.9517 24.3645 30.99 24.4181" stroke="#212B5A" stroke-width="0.0813954" stroke-linejoin="bevel"/>
<path d="M32.266 23.2756L31.7718 24.3777C31.679 24.5507 31.6421 24.7482 31.666 24.943" stroke="#212B5A" stroke-width="0.0813954" stroke-linejoin="bevel"/>
<path d="M34.1364 21.7394C34.1364 21.7394 36.549 16.6914 36.6883 16.4435C36.8275 16.1955 36.9408 11.9788 36.9408 11.9788" fill="#F2F2F2"/>
<path d="M34.1364 21.7394C34.1364 21.7394 36.549 16.6914 36.6883 16.4435C36.8275 16.1955 36.9408 11.9788 36.9408 11.9788" stroke="#212B5A" stroke-width="0.162791" stroke-miterlimit="10"/>
<path d="M37.0034 22.7081L39.362 16.2156L39.061 12.5415" fill="#F2F2F2"/>
<path d="M37.0034 22.7081L39.362 16.2156L39.061 12.5415" stroke="#212B5A" stroke-width="0.162791" stroke-miterlimit="10"/>
<path d="M39.2349 23.2135L41.634 16.4194L41.2088 14.192" fill="#F2F2F2"/>
<path d="M39.2349 23.2135L41.634 16.4194L41.2088 14.192" stroke="#212B5A" stroke-width="0.162791" stroke-miterlimit="10"/>
<path d="M37.4785 8.83081C37.4785 8.83081 43.5065 7.88642 47.8403 8.63358Z" fill="#F2F2F2"/>
<path d="M37.4785 8.83081C37.4785 8.83081 43.5065 7.88642 47.8403 8.63358" stroke="#212B5A" stroke-width="0.0813954" stroke-miterlimit="10"/>
<path d="M49.2777 25.9361L49.253 27.7287C49.3223 27.8623 49.3511 28.0132 49.3357 28.1629C49.3203 28.3126 49.2614 28.4546 49.1663 28.5713" fill="#F2F2F2"/>
<path d="M49.2777 25.9361L49.253 27.7287C49.3223 27.8623 49.3511 28.0132 49.3357 28.1629C49.3203 28.3126 49.2614 28.4546 49.1663 28.5713" stroke="#212B5A" stroke-width="0.0813954" stroke-miterlimit="10"/>
<path d="M48.0412 26.0736L47.8804 27.7668C47.9793 27.9 48.0225 28.0665 48.0009 28.231C47.9793 28.3955 47.8945 28.5452 47.7645 28.6484" fill="#F2F2F2"/>
<path d="M48.0412 26.0736L47.8804 27.7668C47.9793 27.9 48.0225 28.0665 48.0009 28.231C47.9793 28.3955 47.8945 28.5452 47.7645 28.6484" stroke="#212B5A" stroke-width="0.0813954" stroke-miterlimit="10"/>
</g>
</g>
<defs>
<linearGradient id="paint0_linear_1195_17569" x1="43.5592" y1="22.9824" x2="9.4488" y2="43.555" gradientUnits="userSpaceOnUse">
<stop offset="0.08" stop-color="#FACC25" stop-opacity="0.95"/>
<stop offset="0.2" stop-color="#FACB26" stop-opacity="0.93"/>
<stop offset="0.33" stop-color="#FAC828" stop-opacity="0.88"/>
<stop offset="0.47" stop-color="#FAC42C" stop-opacity="0.79"/>
<stop offset="0.62" stop-color="#FBBD31" stop-opacity="0.66"/>
<stop offset="0.77" stop-color="#FBB537" stop-opacity="0.5"/>
<stop offset="0.85" stop-color="#FBB03B" stop-opacity="0.4"/>
</linearGradient>
<clipPath id="clip0_1195_17569">
<rect width="70" height="70" fill="white" transform="translate(0.5 0.5)"/>
</clipPath>
<clipPath id="clip1_1195_17569">
<rect width="68.4093" height="68.1631" fill="white" transform="translate(-6.66211 9.97803) rotate(-12.6771)"/>
</clipPath>
</defs>
</svg>
