<svg width="326" height="165" viewBox="0 0 326 165" fill="none" xmlns="http://www.w3.org/2000/svg">
<path d="M0 31.8428C0 20.7971 9.1222 11.8428 20.375 11.8428H305.625C316.878 11.8428 326 20.7971 326 31.8428V164.766H0V31.8428Z" fill="white"/>
<path d="M126.9 10C118.143 10 112.474 0 121.231 0H203.75C212.507 0 206.838 10 198.081 10H126.9Z" fill="white"/>
<path d="M110.025 12C110.025 5.37258 115.498 0 122.25 0H202.731C209.483 0 214.956 5.37258 214.956 12V145C214.956 156.046 206.002 165 194.956 165H130.025C118.979 165 110.025 156.046 110.025 145V12Z" fill="white"/>
<path d="M20.8066 51.8408L22.0186 49.8901C22.4004 50.2 22.7684 50.4546 23.1226 50.6538C23.4823 50.8475 23.8364 50.9914 24.1851 51.0854C24.5337 51.174 24.8906 51.2183 25.2559 51.2183C25.6875 51.2183 26.061 51.1574 26.3765 51.0356C26.6919 50.9139 26.9354 50.7396 27.1069 50.5127C27.284 50.2858 27.3726 50.0229 27.3726 49.7241C27.3726 49.3755 27.2619 49.0822 27.0405 48.8442C26.8192 48.6063 26.5286 48.3988 26.1689 48.2217C25.8148 48.0391 25.4302 47.8647 25.0151 47.6987C24.6112 47.5327 24.2044 47.3529 23.7949 47.1592C23.391 46.96 23.0174 46.7248 22.6743 46.4536C22.3368 46.1825 22.0628 45.8532 21.8525 45.4658C21.6478 45.0729 21.5454 44.597 21.5454 44.0381C21.5454 43.3076 21.728 42.6768 22.0933 42.1455C22.464 41.6143 22.9704 41.2048 23.6123 40.917C24.2542 40.6292 24.9875 40.4854 25.812 40.4854C26.3931 40.4854 26.9963 40.5628 27.6216 40.7178C28.2524 40.8727 28.8805 41.1079 29.5059 41.4233L28.5015 43.4902C28.1086 43.2523 27.6852 43.0641 27.2314 42.9258C26.7777 42.7874 26.3516 42.7183 25.9531 42.7183C25.5934 42.7183 25.278 42.7736 25.0068 42.8843C24.7412 42.995 24.5337 43.1499 24.3843 43.3491C24.2349 43.5428 24.1602 43.7725 24.1602 44.0381C24.1602 44.3535 24.2681 44.6274 24.4839 44.8599C24.6997 45.0868 24.9792 45.2887 25.3223 45.4658C25.6709 45.6429 26.0444 45.82 26.4429 45.9971C26.8524 46.1742 27.2646 46.3678 27.6797 46.5781C28.1003 46.7884 28.4821 47.0374 28.8252 47.3252C29.1738 47.6074 29.4533 47.9478 29.6636 48.3462C29.8794 48.7391 29.9873 49.2122 29.9873 49.7656C29.9873 50.4961 29.7936 51.138 29.4062 51.6914C29.0189 52.2393 28.4793 52.6681 27.7876 52.978C27.0959 53.2824 26.2907 53.4346 25.3721 53.4346C24.5309 53.4346 23.7257 53.299 22.9565 53.0278C22.1873 52.7567 21.4707 52.361 20.8066 51.8408ZM39.002 53.1855H36.9268L36.8022 52.1978C36.4979 52.563 36.1216 52.848 35.6733 53.0527C35.2251 53.252 34.7326 53.3516 34.1958 53.3516C33.6147 53.3516 33.0973 53.2409 32.6436 53.0195C32.1898 52.7926 31.8328 52.4827 31.5728 52.0898C31.3127 51.6914 31.1826 51.2404 31.1826 50.7368C31.1826 50.2056 31.3237 49.738 31.606 49.334C31.8882 48.93 32.2756 48.6146 32.7681 48.3877C33.2661 48.1553 33.8306 48.0391 34.4614 48.0391C34.8322 48.0391 35.203 48.0806 35.5737 48.1636C35.95 48.2466 36.2987 48.3628 36.6196 48.5122V48.2964C36.6196 47.9644 36.5256 47.6794 36.3374 47.4414C36.1548 47.1979 35.9002 47.0098 35.5737 46.877C35.2528 46.7441 34.8931 46.6777 34.4946 46.6777C34.1128 46.6777 33.7337 46.7386 33.3574 46.8604C32.9867 46.9821 32.6436 47.1647 32.3281 47.4082L31.6807 45.5903C32.2396 45.3026 32.804 45.0868 33.374 44.9429C33.9495 44.7935 34.5057 44.7188 35.0425 44.7188C35.8504 44.7188 36.5505 44.8792 37.1426 45.2002C37.7347 45.5156 38.1912 45.9639 38.5122 46.5449C38.8387 47.1204 39.002 47.8039 39.002 48.5952V53.1855ZM34.7188 51.5171C35.0342 51.5171 35.3358 51.4479 35.6235 51.3096C35.9113 51.1712 36.1437 50.9831 36.3208 50.7451C36.5034 50.5072 36.6003 50.2443 36.6113 49.9565V49.8984C36.3678 49.7324 36.0967 49.6051 35.7979 49.5166C35.5046 49.4225 35.2057 49.3755 34.9014 49.3755C34.4476 49.3755 34.0768 49.4751 33.7891 49.6743C33.5013 49.8735 33.3574 50.1309 33.3574 50.4463C33.3574 50.651 33.4155 50.8364 33.5317 51.0024C33.6535 51.1629 33.8167 51.2902 34.0215 51.3843C34.2262 51.4728 34.4587 51.5171 34.7188 51.5171ZM42.0649 42.9009C41.7495 42.9009 41.4839 42.7902 41.2681 42.5688C41.0522 42.3475 40.9443 42.0791 40.9443 41.7637C40.9443 41.4482 41.0522 41.1826 41.2681 40.9668C41.4839 40.7454 41.7495 40.6348 42.0649 40.6348C42.3859 40.6348 42.6543 40.7454 42.8701 40.9668C43.0915 41.1826 43.2021 41.4482 43.2021 41.7637C43.2021 42.0791 43.0915 42.3475 42.8701 42.5688C42.6543 42.7902 42.3859 42.9009 42.0649 42.9009ZM43.2603 53.1855H40.8779V44.8848H43.2603V53.1855ZM53.5947 53.1855H51.2124V48.9355C51.2124 48.2881 51.0575 47.7817 50.7476 47.4165C50.4432 47.0457 50.0254 46.8604 49.4941 46.8604C48.9408 46.8604 48.5008 47.054 48.1743 47.4414C47.8534 47.8232 47.6929 48.3434 47.6929 49.002V53.1855H45.3105V44.8848H47.2363L47.3193 46.2129C47.6182 45.7259 48.0083 45.3551 48.4897 45.1006C48.9712 44.846 49.5384 44.7188 50.1914 44.7188C51.2484 44.7188 52.0785 45.0452 52.6816 45.6982C53.2904 46.3457 53.5947 47.2422 53.5947 48.3877V53.1855ZM61.0903 52.9697C60.4539 53.2243 59.8369 53.3516 59.2393 53.3516C58.6195 53.3516 58.0716 53.2215 57.5957 52.9614C57.1253 52.6958 56.7573 52.3278 56.4917 51.8574C56.2261 51.3815 56.0933 50.8337 56.0933 50.2139V47.0098H54.6406V44.8848H56.2178V42.8096H58.4756V44.8848H60.7749V47.0098H58.4756V49.7822C58.4756 50.236 58.6001 50.5902 58.8491 50.8447C59.0981 51.0938 59.408 51.2183 59.7788 51.2183C60.1164 51.2183 60.4456 51.1131 60.7666 50.9028L61.0903 52.9697ZM70.1216 52.2559C69.0923 52.9863 67.9661 53.3516 66.7432 53.3516C65.8356 53.3516 65.0194 53.1579 64.2944 52.7705C63.575 52.3776 63.005 51.8464 62.5845 51.1768C62.1694 50.5072 61.9619 49.7518 61.9619 48.9106C61.9619 48.1082 62.1501 47.3916 62.5264 46.7607C62.9082 46.1299 63.4256 45.6318 64.0786 45.2666C64.7316 44.9014 65.4731 44.7188 66.3032 44.7188C67.161 44.7188 67.9163 44.9207 68.5693 45.3247C69.2223 45.7231 69.7314 46.2821 70.0967 47.0015C70.4619 47.7153 70.6445 48.5426 70.6445 49.4834V49.749H64.5269C64.6265 50.0755 64.7897 50.3633 65.0166 50.6123C65.2435 50.8558 65.5257 51.0495 65.8633 51.1934C66.2008 51.3372 66.5882 51.4092 67.0254 51.4092C67.8721 51.4092 68.6606 51.1353 69.3911 50.5874L70.1216 52.2559ZM64.4189 48.5371H68.4448C68.4006 48.1774 68.2871 47.862 68.1045 47.5908C67.9274 47.3141 67.6922 47.0983 67.3989 46.9434C67.1112 46.7884 66.7874 46.7109 66.4277 46.7109C66.0625 46.7109 65.736 46.7912 65.4482 46.9517C65.166 47.1121 64.9364 47.328 64.7593 47.5991C64.5822 47.8703 64.4688 48.1829 64.4189 48.5371ZM78.7959 49.9316H72.1553V48.1138H78.7959V49.9316ZM91.6123 51.625C91.0312 52.1895 90.3423 52.6322 89.5454 52.9531C88.7485 53.2741 87.8825 53.4346 86.9473 53.4346C86.001 53.4346 85.1294 53.2741 84.3325 52.9531C83.5356 52.6266 82.8411 52.1729 82.249 51.5918C81.6624 51.0052 81.2059 50.319 80.8794 49.5332C80.5529 48.7474 80.3896 47.8896 80.3896 46.96C80.3896 46.0303 80.5529 45.1725 80.8794 44.3867C81.2059 43.5954 81.6624 42.9092 82.249 42.3281C82.8411 41.7471 83.5356 41.2961 84.3325 40.9751C85.1294 40.6486 86.001 40.4854 86.9473 40.4854C87.877 40.4854 88.7375 40.6458 89.5288 40.9668C90.3257 41.2878 91.0146 41.7332 91.5957 42.3032L89.811 44.0962C89.4624 43.6701 89.0363 43.3353 88.5327 43.0918C88.0347 42.8428 87.4924 42.7183 86.9058 42.7183C86.3468 42.7183 85.8294 42.8262 85.3535 43.042C84.8831 43.2523 84.4709 43.5511 84.1167 43.9385C83.7625 44.3203 83.4886 44.7686 83.2949 45.2832C83.1012 45.7979 83.0044 46.354 83.0044 46.9517C83.0044 47.5604 83.1012 48.1221 83.2949 48.6367C83.4886 49.1514 83.7625 49.6024 84.1167 49.9897C84.4709 50.3716 84.8831 50.6704 85.3535 50.8862C85.8294 51.0965 86.3468 51.2017 86.9058 51.2017C87.4924 51.2017 88.0347 51.0799 88.5327 50.8364C89.0308 50.5874 89.4541 50.2498 89.8027 49.8237L91.6123 51.625ZM95.6548 53.1855H93.2725V44.8848H95.3477L95.4307 46.3208C95.7074 45.8172 96.0837 45.4243 96.5596 45.1421C97.0355 44.8599 97.5806 44.7188 98.1948 44.7188C98.3719 44.7188 98.549 44.7326 98.7261 44.7603C98.9087 44.7824 99.0941 44.8184 99.2822 44.8682L98.9834 47.0098C98.6182 46.9046 98.2723 46.8521 97.9458 46.8521C97.4865 46.8521 97.0825 46.9572 96.7339 47.1675C96.3908 47.3722 96.1252 47.66 95.937 48.0308C95.7489 48.396 95.6548 48.8249 95.6548 49.3174V53.1855ZM104.321 53.3516C103.469 53.3516 102.705 53.1662 102.03 52.7954C101.355 52.4191 100.823 51.9072 100.436 51.2598C100.054 50.6068 99.8633 49.8652 99.8633 49.0352C99.8633 48.2106 100.054 47.4746 100.436 46.8271C100.823 46.1742 101.355 45.6595 102.03 45.2832C102.705 44.9069 103.469 44.7188 104.321 44.7188C105.173 44.7188 105.931 44.9069 106.595 45.2832C107.265 45.6595 107.791 46.1742 108.172 46.8271C108.56 47.4746 108.753 48.2106 108.753 49.0352C108.753 49.8652 108.56 50.6068 108.172 51.2598C107.791 51.9072 107.265 52.4191 106.595 52.7954C105.931 53.1662 105.173 53.3516 104.321 53.3516ZM104.312 51.2183C104.694 51.2183 105.035 51.1242 105.333 50.936C105.638 50.7424 105.876 50.4823 106.047 50.1558C106.224 49.8237 106.313 49.4447 106.313 49.0186C106.313 48.609 106.224 48.241 106.047 47.9146C105.876 47.5881 105.638 47.3307 105.333 47.1426C105.035 46.9489 104.694 46.8521 104.312 46.8521C103.925 46.8521 103.579 46.9489 103.275 47.1426C102.976 47.3307 102.738 47.5881 102.561 47.9146C102.389 48.241 102.304 48.609 102.304 49.0186C102.304 49.4447 102.389 49.8237 102.561 50.1558C102.738 50.4823 102.976 50.7424 103.275 50.936C103.579 51.1242 103.925 51.2183 104.312 51.2183ZM111.476 42.9009C111.161 42.9009 110.895 42.7902 110.679 42.5688C110.463 42.3475 110.355 42.0791 110.355 41.7637C110.355 41.4482 110.463 41.1826 110.679 40.9668C110.895 40.7454 111.161 40.6348 111.476 40.6348C111.797 40.6348 112.065 40.7454 112.281 40.9668C112.503 41.1826 112.613 41.4482 112.613 41.7637C112.613 42.0791 112.503 42.3475 112.281 42.5688C112.065 42.7902 111.797 42.9009 111.476 42.9009ZM112.671 53.1855H110.289V44.8848H112.671V53.1855ZM117.079 53.1855H113.809L117.361 48.9355L113.991 44.8848H117.278L119.005 47.3335L120.715 44.8848H123.977L120.632 48.9189L124.185 53.1855H120.889L118.988 50.4878L117.079 53.1855Z" fill="black"/>
<path d="M24.374 70.4717H23.1709V61.4072L21.2705 62.0977L20.8877 61.127L23.3896 60.2178H24.374V70.4717ZM30.1025 70.6768C29.3825 70.6768 28.7627 70.4694 28.2432 70.0547C27.7236 69.6354 27.3249 69.0293 27.0469 68.2363C26.7689 67.4388 26.6299 66.4727 26.6299 65.3379C26.6299 64.2077 26.7689 63.2461 27.0469 62.4531C27.3249 61.6602 27.7236 61.0563 28.2432 60.6416C28.7627 60.2223 29.3825 60.0127 30.1025 60.0127C30.8271 60.0127 31.4469 60.2223 31.9619 60.6416C32.4814 61.0563 32.8802 61.6602 33.1582 62.4531C33.4362 63.2461 33.5752 64.2077 33.5752 65.3379C33.5752 66.4727 33.4362 67.4388 33.1582 68.2363C32.8848 69.0293 32.4883 69.6354 31.9688 70.0547C31.4492 70.4694 30.8271 70.6768 30.1025 70.6768ZM30.1025 69.6104C30.8089 69.6104 31.3581 69.2344 31.75 68.4824C32.1465 67.7305 32.3447 66.6823 32.3447 65.3379C32.3447 63.9935 32.1465 62.9476 31.75 62.2002C31.3581 61.4528 30.8089 61.0791 30.1025 61.0791C29.4007 61.0791 28.8516 61.4528 28.4551 62.2002C28.0586 62.9476 27.8604 63.9935 27.8604 65.3379C27.8604 66.6823 28.0586 67.7305 28.4551 68.4824C28.8516 69.2344 29.4007 69.6104 30.1025 69.6104ZM38.21 70.6768C37.4899 70.6768 36.8701 70.4694 36.3506 70.0547C35.8311 69.6354 35.4323 69.0293 35.1543 68.2363C34.8763 67.4388 34.7373 66.4727 34.7373 65.3379C34.7373 64.2077 34.8763 63.2461 35.1543 62.4531C35.4323 61.6602 35.8311 61.0563 36.3506 60.6416C36.8701 60.2223 37.4899 60.0127 38.21 60.0127C38.9346 60.0127 39.5544 60.2223 40.0693 60.6416C40.5889 61.0563 40.9876 61.6602 41.2656 62.4531C41.5436 63.2461 41.6826 64.2077 41.6826 65.3379C41.6826 66.4727 41.5436 67.4388 41.2656 68.2363C40.9922 69.0293 40.5957 69.6354 40.0762 70.0547C39.5566 70.4694 38.9346 70.6768 38.21 70.6768ZM38.21 69.6104C38.9163 69.6104 39.4655 69.2344 39.8574 68.4824C40.2539 67.7305 40.4521 66.6823 40.4521 65.3379C40.4521 63.9935 40.2539 62.9476 39.8574 62.2002C39.4655 61.4528 38.9163 61.0791 38.21 61.0791C37.5081 61.0791 36.959 61.4528 36.5625 62.2002C36.166 62.9476 35.9678 63.9935 35.9678 65.3379C35.9678 66.6823 36.166 67.7305 36.5625 68.4824C36.959 69.2344 37.5081 69.6104 38.21 69.6104ZM54.1445 70.4717H53.0234V66.8281C53.0234 66.0944 52.8617 65.5247 52.5381 65.1191C52.2191 64.709 51.7679 64.5039 51.1846 64.5039C50.5967 64.5039 50.1341 64.7113 49.7969 65.126C49.4642 65.5361 49.2979 66.1035 49.2979 66.8281V70.4717H48.1768V66.8281C48.1768 66.0944 48.015 65.5247 47.6914 65.1191C47.3678 64.709 46.9144 64.5039 46.3311 64.5039C45.7432 64.5039 45.2806 64.7113 44.9434 65.126C44.6107 65.5361 44.4443 66.1035 44.4443 66.8281V70.4717H43.3232V63.6357H44.2393L44.2871 64.8594C44.515 64.4128 44.8249 64.0755 45.2168 63.8477C45.6133 63.6152 46.0804 63.499 46.6182 63.499C47.1924 63.499 47.6823 63.6289 48.0879 63.8887C48.498 64.1439 48.8034 64.5107 49.0039 64.9893C49.2272 64.5016 49.5439 64.1325 49.9541 63.8818C50.3688 63.6266 50.8633 63.499 51.4375 63.499C52.2897 63.499 52.9528 63.7702 53.4268 64.3125C53.9053 64.8503 54.1445 65.6022 54.1445 66.5684V70.4717Z" fill="#888EA8"/>
<path d="M48.9961 114.957H45.0938L51.0352 100.531H43.6758V97.3789H55.2773V99.7344L48.9961 114.957Z" fill="#282B3A"/>
<path d="M23.3672 129.184L25.5262 135.306H25.6115L27.7706 129.184H28.6939L26.0234 136.457H25.1143L22.4439 129.184H23.3672ZM29.8267 136.457V129.184H34.2159V129.966H30.7074V132.423H33.9886V133.204H30.7074V135.676H34.2727V136.457H29.8267ZM31.6307 128.446L32.4971 126.798H33.4772L32.3693 128.446H31.6307ZM35.8032 136.457V129.184H36.6839V135.676H40.0646V136.457H35.8032ZM47.2814 132.821C47.2814 133.588 47.1429 134.251 46.8659 134.809C46.5889 135.368 46.209 135.799 45.726 136.102C45.243 136.405 44.6914 136.556 44.0712 136.556C43.4509 136.556 42.8993 136.405 42.4163 136.102C41.9334 135.799 41.5534 135.368 41.2764 134.809C40.9994 134.251 40.8609 133.588 40.8609 132.821C40.8609 132.054 40.9994 131.391 41.2764 130.832C41.5534 130.273 41.9334 129.842 42.4163 129.539C42.8993 129.236 43.4509 129.085 44.0712 129.085C44.6914 129.085 45.243 129.236 45.726 129.539C46.209 129.842 46.5889 130.273 46.8659 130.832C47.1429 131.391 47.2814 132.054 47.2814 132.821ZM46.4291 132.821C46.4291 132.191 46.3238 131.659 46.1131 131.226C45.9047 130.793 45.6218 130.465 45.2644 130.243C44.9092 130.02 44.5115 129.909 44.0712 129.909C43.6308 129.909 43.2319 130.02 42.8744 130.243C42.5193 130.465 42.2364 130.793 42.0257 131.226C41.8174 131.659 41.7132 132.191 41.7132 132.821C41.7132 133.45 41.8174 133.982 42.0257 134.415C42.2364 134.848 42.5193 135.176 42.8744 135.399C43.2319 135.621 43.6308 135.733 44.0712 135.733C44.5115 135.733 44.9092 135.621 45.2644 135.399C45.6218 135.176 45.9047 134.848 46.1131 134.415C46.3238 133.982 46.4291 133.45 46.4291 132.821ZM52.7395 131.002C52.6969 130.643 52.5241 130.363 52.221 130.164C51.918 129.966 51.5463 129.866 51.106 129.866C50.784 129.866 50.5023 129.918 50.2608 130.022C50.0217 130.127 49.8347 130.27 49.6997 130.452C49.5671 130.634 49.5009 130.842 49.5009 131.074C49.5009 131.268 49.547 131.435 49.6394 131.574C49.734 131.712 49.8548 131.826 50.0016 131.919C50.1483 132.009 50.3022 132.083 50.4632 132.142C50.6242 132.199 50.7722 132.245 50.9071 132.281L51.6457 132.48C51.8351 132.529 52.0458 132.598 52.2778 132.686C52.5122 132.773 52.7359 132.893 52.949 133.044C53.1644 133.194 53.342 133.385 53.4817 133.62C53.6214 133.854 53.6912 134.142 53.6912 134.483C53.6912 134.876 53.5882 135.231 53.3822 135.548C53.1787 135.865 52.8804 136.117 52.4874 136.304C52.0967 136.491 51.6221 136.585 51.0634 136.585C50.5425 136.585 50.0915 136.501 49.7104 136.333C49.3316 136.165 49.0333 135.93 48.8155 135.63C48.6001 135.329 48.4781 134.98 48.4497 134.582H49.3588C49.3825 134.857 49.4748 135.084 49.6358 135.264C49.7992 135.441 50.0051 135.574 50.2537 135.662C50.5046 135.747 50.7745 135.789 51.0634 135.789C51.3995 135.789 51.7014 135.735 51.9689 135.626C52.2364 135.515 52.4483 135.361 52.6045 135.164C52.7608 134.966 52.8389 134.734 52.8389 134.468C52.8389 134.227 52.7715 134.03 52.6365 133.879C52.5016 133.727 52.324 133.604 52.1038 133.51C51.8837 133.415 51.6457 133.332 51.3901 133.261L50.4952 133.005C49.927 132.842 49.4772 132.609 49.1457 132.306C48.8143 132.003 48.6486 131.606 48.6486 131.116C48.6486 130.709 48.7587 130.354 48.9788 130.051C49.2014 129.745 49.4997 129.509 49.8737 129.341C50.2501 129.17 50.6704 129.085 51.1344 129.085C51.6031 129.085 52.0198 129.169 52.3844 129.337C52.749 129.503 53.0378 129.73 53.2509 130.019C53.4663 130.308 53.5799 130.636 53.5918 131.002H52.7395ZM57.9517 129.184H59.0028L61.4744 135.221H61.5596L64.0312 129.184H65.0824V136.457H64.2585V130.931H64.1875L61.9147 136.457H61.1193L58.8466 130.931H58.7755V136.457H57.9517V129.184ZM67.1465 136.457H66.2232L68.8936 129.184H69.8027L72.4732 136.457H71.5499L69.3766 130.335H69.3197L67.1465 136.457ZM67.4874 133.616H71.209V134.397H67.4874V133.616ZM79.373 129.184V136.457H78.5207L74.5577 130.747H74.4867V136.457H73.606V129.184H74.4582L78.4355 134.909H78.5065V129.184H79.373ZM85.908 129.184H86.7887V134C86.7887 134.497 86.6715 134.941 86.4371 135.331C86.2051 135.72 85.8772 136.026 85.4534 136.251C85.0297 136.474 84.5325 136.585 83.962 136.585C83.3914 136.585 82.8943 136.474 82.4705 136.251C82.0467 136.026 81.7177 135.72 81.4833 135.331C81.2513 134.941 81.1353 134.497 81.1353 134V129.184H82.0159V133.929C82.0159 134.284 82.0941 134.6 82.2503 134.877C82.4066 135.151 82.6291 135.368 82.9179 135.527C83.2091 135.683 83.5571 135.761 83.962 135.761C84.3668 135.761 84.7148 135.683 85.006 135.527C85.2972 135.368 85.5197 135.151 85.6736 134.877C85.8299 134.6 85.908 134.284 85.908 133.929V129.184ZM88.5474 136.457V129.184H92.9366V129.966H89.4281V132.423H92.7093V133.204H89.4281V135.676H92.9934V136.457H88.5474ZM94.5239 136.457V129.184H95.4046V135.676H98.7853V136.457H94.5239ZM104.126 131.002C104.084 130.643 103.911 130.363 103.608 130.164C103.305 129.966 102.933 129.866 102.493 129.866C102.171 129.866 101.889 129.918 101.648 130.022C101.408 130.127 101.221 130.27 101.086 130.452C100.954 130.634 100.888 130.842 100.888 131.074C100.888 131.268 100.934 131.435 101.026 131.574C101.121 131.712 101.242 131.826 101.388 131.919C101.535 132.009 101.689 132.083 101.85 132.142C102.011 132.199 102.159 132.245 102.294 132.281L103.032 132.48C103.222 132.529 103.433 132.598 103.665 132.686C103.899 132.773 104.123 132.893 104.336 133.044C104.551 133.194 104.729 133.385 104.868 133.62C105.008 133.854 105.078 134.142 105.078 134.483C105.078 134.876 104.975 135.231 104.769 135.548C104.565 135.865 104.267 136.117 103.874 136.304C103.483 136.491 103.009 136.585 102.45 136.585C101.929 136.585 101.478 136.501 101.097 136.333C100.718 136.165 100.42 135.93 100.202 135.63C99.9868 135.329 99.8648 134.98 99.8364 134.582H100.746C100.769 134.857 100.862 135.084 101.023 135.264C101.186 135.441 101.392 135.574 101.64 135.662C101.891 135.747 102.161 135.789 102.45 135.789C102.786 135.789 103.088 135.735 103.356 135.626C103.623 135.515 103.835 135.361 103.991 135.164C104.148 134.966 104.226 134.734 104.226 134.468C104.226 134.227 104.158 134.03 104.023 133.879C103.888 133.727 103.711 133.604 103.491 133.51C103.27 133.415 103.032 133.332 102.777 133.261L101.882 133.005C101.314 132.842 100.864 132.609 100.532 132.306C100.201 132.003 100.035 131.606 100.035 131.116C100.035 130.709 100.145 130.354 100.366 130.051C100.588 129.745 100.886 129.509 101.26 129.341C101.637 129.17 102.057 129.085 102.521 129.085C102.99 129.085 103.407 129.169 103.771 129.337C104.136 129.503 104.425 129.73 104.638 130.019C104.853 130.308 104.967 130.636 104.978 131.002H104.126Z" fill="#888EA8"/>
<path fill-rule="evenodd" clip-rule="evenodd" d="M64.9531 109.65C64.9531 112.765 67.5236 115.3 70.6809 115.3C73.8339 115.3 76.4044 112.765 76.4044 109.65C76.4044 107.985 75.6657 106.486 74.5008 105.454L75.3324 104.217L79.8446 110.129C79.9967 110.345 80.2415 110.458 80.4945 110.458H83.0144C83.4112 113.193 85.7875 115.3 88.6745 115.3C91.8318 115.3 94.4022 112.765 94.4022 109.65C94.4022 106.536 91.8318 104.005 88.6745 104.005C87.6784 104.005 86.7455 104.255 85.9268 104.696L84.175 102.389H84.4029C84.8504 102.389 85.2218 102.023 85.2218 101.582C85.2218 101.14 84.8504 100.774 84.4029 100.774H82.1321V102.389H74.3698L74.391 98.6585H77.0502C77.4977 98.6585 77.8691 98.2921 77.8691 97.8507C77.8691 97.4094 77.4977 97.043 77.0502 97.043H73.779C73.3527 97.043 73.1206 97.1263 73.1036 97.3968L73.1333 104.558C72.3947 104.204 71.563 104.004 70.681 104.004C67.5237 104.004 64.9533 106.536 64.9533 109.65L64.9531 109.65ZM80.5747 109.088L76.4594 103.676H83.3186L84.7326 105.537C83.7746 106.465 83.1329 107.706 82.9302 109.088H80.5747Z" fill="#282B3A"/>
<path d="M173.428 114.957H162.225V112.836C163.607 111.602 164.768 110.512 165.705 109.566C166.65 108.621 167.404 107.777 167.967 107.035C168.529 106.293 168.936 105.613 169.186 104.996C169.436 104.371 169.561 103.766 169.561 103.18C169.561 102.578 169.447 102.051 169.221 101.598C169.002 101.145 168.689 100.793 168.283 100.543C167.885 100.293 167.42 100.168 166.889 100.168C166.279 100.168 165.689 100.344 165.119 100.695C164.549 101.039 164.064 101.516 163.666 102.125L161.838 99.8281C162.525 98.9375 163.377 98.25 164.393 97.7656C165.416 97.2734 166.479 97.0273 167.58 97.0273C168.627 97.0273 169.58 97.25 170.439 97.6953C171.299 98.1406 171.982 98.7734 172.49 99.5938C172.998 100.414 173.252 101.383 173.252 102.5C173.252 103.281 173.115 104.07 172.842 104.867C172.576 105.656 172.186 106.441 171.67 107.223C171.162 108.004 170.537 108.781 169.795 109.555C169.061 110.32 168.221 111.07 167.275 111.805H173.428V114.957Z" fill="#282B3A"/>
<path d="M132.587 129.184L134.746 135.306H134.831L136.99 129.184H137.914L135.243 136.457H134.334L131.664 129.184H132.587ZM139.046 136.457V129.184H143.436V129.966H139.927V132.423H143.208V133.204H139.927V135.676H143.492V136.457H139.046ZM140.85 128.446L141.717 126.798H142.697L141.589 128.446H140.85ZM145.023 136.457V129.184H145.904V135.676H149.284V136.457H145.023ZM156.501 132.821C156.501 133.588 156.363 134.251 156.086 134.809C155.809 135.368 155.429 135.799 154.946 136.102C154.463 136.405 153.911 136.556 153.291 136.556C152.671 136.556 152.119 136.405 151.636 136.102C151.153 135.799 150.773 135.368 150.496 134.809C150.219 134.251 150.081 133.588 150.081 132.821C150.081 132.054 150.219 131.391 150.496 130.832C150.773 130.273 151.153 129.842 151.636 129.539C152.119 129.236 152.671 129.085 153.291 129.085C153.911 129.085 154.463 129.236 154.946 129.539C155.429 129.842 155.809 130.273 156.086 130.832C156.363 131.391 156.501 132.054 156.501 132.821ZM155.649 132.821C155.649 132.191 155.544 131.659 155.333 131.226C155.125 130.793 154.842 130.465 154.484 130.243C154.129 130.02 153.731 129.909 153.291 129.909C152.851 129.909 152.452 130.02 152.094 130.243C151.739 130.465 151.456 130.793 151.246 131.226C151.037 131.659 150.933 132.191 150.933 132.821C150.933 133.45 151.037 133.982 151.246 134.415C151.456 134.848 151.739 135.176 152.094 135.399C152.452 135.621 152.851 135.733 153.291 135.733C153.731 135.733 154.129 135.621 154.484 135.399C154.842 135.176 155.125 134.848 155.333 134.415C155.544 133.982 155.649 133.45 155.649 132.821ZM161.959 131.002C161.917 130.643 161.744 130.363 161.441 130.164C161.138 129.966 160.766 129.866 160.326 129.866C160.004 129.866 159.722 129.918 159.481 130.022C159.241 130.127 159.054 130.27 158.92 130.452C158.787 130.634 158.721 130.842 158.721 131.074C158.721 131.268 158.767 131.435 158.859 131.574C158.954 131.712 159.075 131.826 159.221 131.919C159.368 132.009 159.522 132.083 159.683 132.142C159.844 132.199 159.992 132.245 160.127 132.281L160.866 132.48C161.055 132.529 161.266 132.598 161.498 132.686C161.732 132.773 161.956 132.893 162.169 133.044C162.384 133.194 162.562 133.385 162.701 133.62C162.841 133.854 162.911 134.142 162.911 134.483C162.911 134.876 162.808 135.231 162.602 135.548C162.398 135.865 162.1 136.117 161.707 136.304C161.317 136.491 160.842 136.585 160.283 136.585C159.762 136.585 159.311 136.501 158.93 136.333C158.551 136.165 158.253 135.93 158.035 135.63C157.82 135.329 157.698 134.98 157.67 134.582H158.579C158.602 134.857 158.695 135.084 158.856 135.264C159.019 135.441 159.225 135.574 159.473 135.662C159.724 135.747 159.994 135.789 160.283 135.789C160.619 135.789 160.921 135.735 161.189 135.626C161.456 135.515 161.668 135.361 161.824 135.164C161.981 134.966 162.059 134.734 162.059 134.468C162.059 134.227 161.991 134.03 161.856 133.879C161.721 133.727 161.544 133.604 161.324 133.51C161.103 133.415 160.866 133.332 160.61 133.261L159.715 133.005C159.147 132.842 158.697 132.609 158.366 132.306C158.034 132.003 157.868 131.606 157.868 131.116C157.868 130.709 157.978 130.354 158.199 130.051C158.421 129.745 158.719 129.509 159.094 129.341C159.47 129.17 159.89 129.085 160.354 129.085C160.823 129.085 161.24 129.169 161.604 129.337C161.969 129.503 162.258 129.73 162.471 130.019C162.686 130.308 162.8 130.636 162.812 131.002H161.959ZM167.171 136.457V129.184H171.561V129.966H168.052V132.423H171.333V133.204H168.052V135.676H171.617V136.457H167.171ZM168.975 128.446L169.842 126.798H170.822L169.714 128.446H168.975ZM173.148 136.457V129.184H174.029V135.676H177.409V136.457H173.148ZM178.773 136.457V129.184H183.162V129.966H179.654V132.423H182.935V133.204H179.654V135.676H183.219V136.457H178.773ZM190.602 131.457H189.721C189.669 131.204 189.578 130.981 189.448 130.789C189.32 130.598 189.164 130.437 188.979 130.306C188.797 130.174 188.594 130.074 188.372 130.008C188.149 129.942 187.917 129.909 187.676 129.909C187.235 129.909 186.836 130.02 186.479 130.243C186.124 130.465 185.841 130.793 185.63 131.226C185.422 131.659 185.318 132.191 185.318 132.821C185.318 133.45 185.422 133.982 185.63 134.415C185.841 134.848 186.124 135.176 186.479 135.399C186.836 135.621 187.235 135.733 187.676 135.733C187.917 135.733 188.149 135.699 188.372 135.633C188.594 135.567 188.797 135.469 188.979 135.338C189.164 135.206 189.32 135.044 189.448 134.852C189.578 134.658 189.669 134.435 189.721 134.184H190.602C190.536 134.556 190.415 134.889 190.24 135.182C190.064 135.476 189.847 135.725 189.586 135.931C189.326 136.135 189.033 136.29 188.709 136.397C188.387 136.503 188.043 136.556 187.676 136.556C187.055 136.556 186.504 136.405 186.021 136.102C185.538 135.799 185.158 135.368 184.881 134.809C184.604 134.251 184.466 133.588 184.466 132.821C184.466 132.054 184.604 131.391 184.881 130.832C185.158 130.273 185.538 129.842 186.021 129.539C186.504 129.236 187.055 129.085 187.676 129.085C188.043 129.085 188.387 129.138 188.709 129.245C189.033 129.351 189.326 129.507 189.586 129.713C189.847 129.917 190.064 130.166 190.24 130.459C190.415 130.75 190.536 131.083 190.602 131.457ZM191.627 129.966V129.184H197.082V129.966H194.795V136.457H193.914V129.966H191.627ZM198.441 136.457V129.184H200.898C201.467 129.184 201.933 129.281 202.298 129.475C202.662 129.667 202.932 129.931 203.107 130.267C203.282 130.604 203.37 130.986 203.37 131.414C203.37 131.843 203.282 132.223 203.107 132.554C202.932 132.886 202.663 133.146 202.301 133.336C201.939 133.523 201.476 133.616 200.913 133.616H198.924V132.821H200.884C201.272 132.821 201.585 132.764 201.822 132.65C202.061 132.537 202.234 132.376 202.34 132.167C202.449 131.957 202.503 131.706 202.503 131.414C202.503 131.123 202.449 130.869 202.34 130.651C202.231 130.433 202.057 130.265 201.818 130.147C201.579 130.026 201.263 129.966 200.87 129.966H199.322V136.457H198.441ZM201.864 133.19L203.654 136.457H202.631L200.87 133.19H201.864ZM205.718 129.184V136.457H204.837V129.184H205.718ZM210.126 134.184H211.092L211.902 135.25L212.115 135.534L213.322 137.139H212.356L211.561 136.074L211.362 135.804L210.126 134.184ZM213.62 132.821C213.62 133.588 213.482 134.251 213.205 134.809C212.928 135.368 212.548 135.799 212.065 136.102C211.582 136.405 211.03 136.556 210.41 136.556C209.79 136.556 209.238 136.405 208.755 136.102C208.272 135.799 207.892 135.368 207.615 134.809C207.338 134.251 207.2 133.588 207.2 132.821C207.2 132.054 207.338 131.391 207.615 130.832C207.892 130.273 208.272 129.842 208.755 129.539C209.238 129.236 209.79 129.085 210.41 129.085C211.03 129.085 211.582 129.236 212.065 129.539C212.548 129.842 212.928 130.273 213.205 130.832C213.482 131.391 213.62 132.054 213.62 132.821ZM212.768 132.821C212.768 132.191 212.663 131.659 212.452 131.226C212.244 130.793 211.961 130.465 211.603 130.243C211.248 130.02 210.85 129.909 210.41 129.909C209.97 129.909 209.571 130.02 209.213 130.243C208.858 130.465 208.575 130.793 208.365 131.226C208.156 131.659 208.052 132.191 208.052 132.821C208.052 133.45 208.156 133.982 208.365 134.415C208.575 134.848 208.858 135.176 209.213 135.399C209.571 135.621 209.97 135.733 210.41 135.733C210.85 135.733 211.248 135.621 211.603 135.399C211.961 135.176 212.244 134.848 212.452 134.415C212.663 133.982 212.768 133.45 212.768 132.821ZM219.874 129.184H220.755V134C220.755 134.497 220.637 134.941 220.403 135.331C220.171 135.72 219.843 136.026 219.419 136.251C218.996 136.474 218.498 136.585 217.928 136.585C217.357 136.585 216.86 136.474 216.436 136.251C216.013 136.026 215.684 135.72 215.449 135.331C215.217 134.941 215.101 134.497 215.101 134V129.184H215.982V133.929C215.982 134.284 216.06 134.6 216.216 134.877C216.372 135.151 216.595 135.368 216.884 135.527C217.175 135.683 217.523 135.761 217.928 135.761C218.333 135.761 218.681 135.683 218.972 135.527C219.263 135.368 219.486 135.151 219.64 134.877C219.796 134.6 219.874 134.284 219.874 133.929V129.184ZM222.513 136.457V129.184H226.902V129.966H223.394V132.423H226.675V133.204H223.394V135.676H226.959V136.457H222.513ZM232.467 131.002C232.424 130.643 232.252 130.363 231.949 130.164C231.646 129.966 231.274 129.866 230.834 129.866C230.512 129.866 230.23 129.918 229.988 130.022C229.749 130.127 229.562 130.27 229.427 130.452C229.295 130.634 229.228 130.842 229.228 131.074C229.228 131.268 229.275 131.435 229.367 131.574C229.462 131.712 229.582 131.826 229.729 131.919C229.876 132.009 230.03 132.083 230.191 132.142C230.352 132.199 230.5 132.245 230.635 132.281L231.373 132.48C231.563 132.529 231.773 132.598 232.005 132.686C232.24 132.773 232.464 132.893 232.677 133.044C232.892 133.194 233.07 133.385 233.209 133.62C233.349 133.854 233.419 134.142 233.419 134.483C233.419 134.876 233.316 135.231 233.11 135.548C232.906 135.865 232.608 136.117 232.215 136.304C231.824 136.491 231.35 136.585 230.791 136.585C230.27 136.585 229.819 136.501 229.438 136.333C229.059 136.165 228.761 135.93 228.543 135.63C228.328 135.329 228.206 134.98 228.177 134.582H229.086C229.11 134.857 229.202 135.084 229.363 135.264C229.527 135.441 229.733 135.574 229.981 135.662C230.232 135.747 230.502 135.789 230.791 135.789C231.127 135.789 231.429 135.735 231.697 135.626C231.964 135.515 232.176 135.361 232.332 135.164C232.488 134.966 232.567 134.734 232.567 134.468C232.567 134.227 232.499 134.03 232.364 133.879C232.229 133.727 232.052 133.604 231.831 133.51C231.611 133.415 231.373 133.332 231.118 133.261L230.223 133.005C229.655 132.842 229.205 132.609 228.873 132.306C228.542 132.003 228.376 131.606 228.376 131.116C228.376 130.709 228.486 130.354 228.706 130.051C228.929 129.745 229.227 129.509 229.601 129.341C229.978 129.17 230.398 129.085 230.862 129.085C231.331 129.085 231.747 129.169 232.112 129.337C232.477 129.503 232.765 129.73 232.978 130.019C233.194 130.308 233.308 130.636 233.319 131.002H232.467Z" fill="#888EA8"/>
<path fill-rule="evenodd" clip-rule="evenodd" d="M183.215 107.528C183.215 110.619 185.748 113.136 188.861 113.136C191.969 113.136 194.502 110.619 194.502 107.528C194.502 105.875 193.774 104.387 192.626 103.362L193.446 102.135L197.893 108.003C198.043 108.218 198.284 108.33 198.534 108.33H201.018C201.409 111.045 203.751 113.136 206.597 113.136C209.709 113.136 212.243 110.619 212.243 107.528C212.243 104.437 209.709 101.924 206.597 101.924C205.615 101.924 204.695 102.172 203.888 102.61L202.162 100.321H202.386C202.827 100.321 203.194 99.9571 203.194 99.519C203.194 99.0809 202.827 98.7173 202.386 98.7173H200.148V100.321H192.497L192.518 96.6177H195.139C195.58 96.6177 195.946 96.254 195.946 95.8159C195.946 95.3778 195.58 95.0142 195.139 95.0142H191.914C191.494 95.0142 191.265 95.0969 191.249 95.3654L191.278 102.473C190.55 102.122 189.73 101.924 188.861 101.924C185.749 101.924 183.215 104.436 183.215 107.527L183.215 107.528ZM198.613 106.97L194.557 101.598H201.318L202.711 103.445C201.767 104.366 201.135 105.598 200.935 106.97H198.613Z" fill="#282B3A"/>
<path d="M187.119 96.9212V96.8701L187.33 96.7206C187.534 96.576 187.787 96.5117 188.042 96.5575C188.295 96.6027 188.507 96.7474 188.653 96.9376C188.653 96.9377 188.653 96.9377 188.653 96.9378L196.946 107.713C196.946 107.714 196.946 107.714 196.946 107.714C197.073 107.878 197.15 108.073 197.178 108.273C197.207 108.473 197.188 108.68 197.12 108.871C197.053 109.063 196.936 109.241 196.771 109.373C196.604 109.507 196.397 109.588 196.173 109.587C196.173 109.587 196.173 109.587 196.173 109.587H193.369L195.08 116.385C195.08 116.386 195.08 116.386 195.08 116.386C195.137 116.612 195.13 116.854 195.059 117.077L194.587 116.927L195.059 117.077C194.988 117.3 194.851 117.507 194.65 117.65C194.447 117.795 194.193 117.86 193.938 117.814C193.684 117.769 193.472 117.624 193.326 117.434L185.033 106.658L187.119 96.9212ZM187.119 96.9212C187.03 97.0331 186.963 97.1611 186.92 97.2947C186.849 97.5179 186.842 97.7603 186.899 97.9871C186.899 97.9872 186.899 97.9873 186.899 97.9874L188.61 104.784H185.806C185.806 104.784 185.806 104.784 185.806 104.784C185.583 104.784 185.375 104.865 185.208 104.999C185.043 105.131 184.926 105.309 184.859 105.5C184.791 105.692 184.772 105.899 184.801 106.099C184.829 106.299 184.906 106.494 185.033 106.658L187.119 96.9212Z" fill="#FFBF25" stroke="white"/>
<path d="M264.168 115H260.559V100.961L257.617 102.039L256.492 99.168L261.297 97.4219H264.168V115ZM273.848 115.352C272.535 115.352 271.398 114.996 270.438 114.285C269.477 113.566 268.73 112.527 268.199 111.168C267.676 109.801 267.414 108.145 267.414 106.199C267.414 104.262 267.676 102.613 268.199 101.254C268.73 99.8945 269.477 98.8594 270.438 98.1484C271.398 97.4297 272.535 97.0703 273.848 97.0703C275.168 97.0703 276.309 97.4297 277.27 98.1484C278.23 98.8594 278.973 99.8945 279.496 101.254C280.027 102.613 280.293 104.262 280.293 106.199C280.293 108.145 280.031 109.801 279.508 111.168C278.984 112.527 278.238 113.566 277.27 114.285C276.309 114.996 275.168 115.352 273.848 115.352ZM273.848 112.199C274.723 112.199 275.398 111.676 275.875 110.629C276.359 109.582 276.602 108.109 276.602 106.211C276.602 104.305 276.359 102.832 275.875 101.793C275.398 100.746 274.723 100.223 273.848 100.223C272.988 100.223 272.316 100.746 271.832 101.793C271.348 102.832 271.105 104.305 271.105 106.211C271.105 108.109 271.348 109.582 271.832 110.629C272.316 111.676 272.988 112.199 273.848 112.199Z" fill="#282B3A"/>
<path d="M263.942 136.457V129.184H266.4C266.97 129.184 267.436 129.287 267.799 129.493C268.163 129.697 268.433 129.973 268.608 130.321C268.784 130.669 268.871 131.057 268.871 131.485C268.871 131.914 268.784 132.303 268.608 132.654C268.436 133.004 268.168 133.283 267.806 133.492C267.444 133.698 266.98 133.801 266.414 133.801H264.652V133.02H266.385C266.776 133.02 267.09 132.952 267.326 132.817C267.563 132.682 267.735 132.5 267.841 132.27C267.95 132.038 268.005 131.777 268.005 131.485C268.005 131.194 267.95 130.934 267.841 130.704C267.735 130.475 267.562 130.295 267.323 130.164C267.084 130.032 266.767 129.966 266.371 129.966H264.823V136.457H263.942ZM270.29 136.457V129.184H271.171V135.676H274.551V136.457H270.29ZM276.672 136.457H275.749L278.419 129.184H279.328L281.999 136.457H281.076L278.902 130.335H278.845L276.672 136.457ZM277.013 133.616H280.735V134.397H277.013V133.616ZM288.642 131.457H287.761C287.709 131.204 287.618 130.981 287.488 130.789C287.36 130.598 287.204 130.437 287.019 130.306C286.837 130.174 286.635 130.074 286.412 130.008C286.189 129.942 285.957 129.909 285.716 129.909C285.276 129.909 284.877 130.02 284.519 130.243C284.164 130.465 283.881 130.793 283.671 131.226C283.462 131.659 283.358 132.191 283.358 132.821C283.358 133.45 283.462 133.982 283.671 134.415C283.881 134.848 284.164 135.176 284.519 135.399C284.877 135.621 285.276 135.733 285.716 135.733C285.957 135.733 286.189 135.699 286.412 135.633C286.635 135.567 286.837 135.469 287.019 135.338C287.204 135.206 287.36 135.044 287.488 134.852C287.618 134.658 287.709 134.435 287.761 134.184H288.642C288.576 134.556 288.455 134.889 288.28 135.182C288.105 135.476 287.887 135.725 287.626 135.931C287.366 136.135 287.074 136.29 286.749 136.397C286.427 136.503 286.083 136.556 285.716 136.556C285.096 136.556 284.544 136.405 284.061 136.102C283.578 135.799 283.198 135.368 282.921 134.809C282.644 134.251 282.506 133.588 282.506 132.821C282.506 132.054 282.644 131.391 282.921 130.832C283.198 130.273 283.578 129.842 284.061 129.539C284.544 129.236 285.096 129.085 285.716 129.085C286.083 129.085 286.427 129.138 286.749 129.245C287.074 129.351 287.366 129.507 287.626 129.713C287.887 129.917 288.105 130.166 288.28 130.459C288.455 130.75 288.576 131.083 288.642 131.457ZM290.065 136.457V129.184H294.454V129.966H290.946V132.423H294.227V133.204H290.946V135.676H294.511V136.457H290.065ZM300.019 131.002C299.976 130.643 299.804 130.363 299.501 130.164C299.198 129.966 298.826 129.866 298.386 129.866C298.064 129.866 297.782 129.918 297.54 130.022C297.301 130.127 297.114 130.27 296.979 130.452C296.847 130.634 296.78 130.842 296.78 131.074C296.78 131.268 296.827 131.435 296.919 131.574C297.014 131.712 297.134 131.826 297.281 131.919C297.428 132.009 297.582 132.083 297.743 132.142C297.904 132.199 298.052 132.245 298.187 132.281L298.925 132.48C299.115 132.529 299.325 132.598 299.557 132.686C299.792 132.773 300.016 132.893 300.229 133.044C300.444 133.194 300.622 133.385 300.761 133.62C300.901 133.854 300.971 134.142 300.971 134.483C300.971 134.876 300.868 135.231 300.662 135.548C300.458 135.865 300.16 136.117 299.767 136.304C299.376 136.491 298.902 136.585 298.343 136.585C297.822 136.585 297.371 136.501 296.99 136.333C296.611 136.165 296.313 135.93 296.095 135.63C295.88 135.329 295.758 134.98 295.729 134.582H296.638C296.662 134.857 296.754 135.084 296.915 135.264C297.079 135.441 297.285 135.574 297.533 135.662C297.784 135.747 298.054 135.789 298.343 135.789C298.679 135.789 298.981 135.735 299.248 135.626C299.516 135.515 299.728 135.361 299.884 135.164C300.04 134.966 300.118 134.734 300.118 134.468C300.118 134.227 300.051 134.03 299.916 133.879C299.781 133.727 299.604 133.604 299.383 133.51C299.163 133.415 298.925 133.332 298.67 133.261L297.775 133.005C297.207 132.842 296.757 132.609 296.425 132.306C296.094 132.003 295.928 131.606 295.928 131.116C295.928 130.709 296.038 130.354 296.258 130.051C296.481 129.745 296.779 129.509 297.153 129.341C297.53 129.17 297.95 129.085 298.414 129.085C298.883 129.085 299.299 129.169 299.664 129.337C300.029 129.503 300.317 129.73 300.53 130.019C300.746 130.308 300.859 130.636 300.871 131.002H300.019Z" fill="#888EA8"/>
<path d="M290.467 114.957V97.3789H296.479C297.955 97.3789 299.229 97.6211 300.299 98.1055C301.377 98.582 302.205 99.2656 302.783 100.156C303.361 101.039 303.65 102.094 303.65 103.32C303.65 104.547 303.361 105.609 302.783 106.508C302.205 107.398 301.381 108.086 300.311 108.57C299.248 109.055 297.982 109.297 296.514 109.297H294.076V114.957H290.467ZM294.076 106.133H296.139C297.365 106.133 298.307 105.891 298.963 105.406C299.627 104.914 299.959 104.219 299.959 103.32C299.959 102.438 299.627 101.754 298.963 101.27C298.307 100.777 297.365 100.531 296.139 100.531H294.076V106.133Z" fill="#282B3A"/>
<path d="M147.719 22L162.888 9.54036C163.267 9.22891 163.816 9.2386 164.184 9.56322L178.281 22" stroke="#FFBF25" stroke-width="3" stroke-linecap="round"/>
</svg>
