<svg width="189" height="195" viewBox="0 0 189 195" fill="none" xmlns="http://www.w3.org/2000/svg">
<path d="M121.996 95.6211C124.361 111.095 134.033 113.305 147.779 104.885M121.996 95.6211C114.345 95.786 107.663 97.3502 103.096 104.885M121.996 95.6211C127.688 98.2191 144.476 99.5313 146.05 84.0567C146.05 78.8495 144.106 71.0291 131.461 73.6087C121.192 78.7666 118.859 88.3217 121.996 95.6211Z" stroke="#282B3A" stroke-width="8.1" stroke-linecap="round" stroke-linejoin="round"/>
<path d="M112.737 89.4294C123.631 81.6142 148.908 62.3332 153.002 48.4599C157.969 31.6345 148.777 14.0013 132.481 9.0929C116.186 4.18451 98.9356 13.8532 93.9694 30.6787C89.8746 44.5518 100.571 74.6682 105.45 87.2344C106.624 90.2327 110.129 91.2883 112.737 89.4294ZM120.487 49.7284C115.061 48.0937 111.993 42.2089 113.647 36.6057C115.301 31.0026 121.058 27.776 126.484 29.4106C131.911 31.0452 134.979 36.9296 133.325 42.5328C131.671 48.1361 125.914 51.3627 120.487 49.7284Z" fill="#FFBF25"/>
<path d="M44.7561 49.2219C44.7561 49.2219 34.2508 114.758 49.5484 114.758C64.8464 114.758 62.9341 73.4486 73.4511 73.4486C83.9684 73.4486 81.1571 131.658 103.09 90.4399C125.024 49.2219 118.126 25.9966 147.766 38.1327" stroke="#282B3A" stroke-width="16.2" stroke-linecap="round" stroke-linejoin="round"/>
<path d="M44.7561 49.2219C44.7561 49.2219 34.2508 114.758 49.5484 114.758C64.8464 114.758 62.9341 73.4486 73.4511 73.4486C83.9684 73.4486 81.1571 131.658 103.09 90.4399C125.024 49.2219 118.126 25.9966 147.766 38.1327" stroke="white" stroke-width="4.05" stroke-linecap="round" stroke-linejoin="round" stroke-dasharray="32.4 32.4"/>
<path d="M4.29297 173.772V112.751H27.2871C34.2403 112.751 39.6095 114.175 43.395 117.022C47.1805 119.87 49.0729 123.897 49.0729 129.105C49.0729 132.007 48.4289 134.596 47.1403 136.875C45.8517 139.125 44.1063 140.888 41.905 142.163C45.1802 143.248 47.7173 145.011 49.5162 147.452C51.3148 149.892 52.2141 152.889 52.2141 156.442C52.2141 159.968 51.3684 163.032 49.677 165.636C47.9856 168.212 45.5829 170.219 42.4689 171.657C39.3545 173.067 35.6766 173.772 31.4349 173.772H4.29297ZM20.2398 137.363H26.1998C28.4817 137.363 30.2402 136.902 31.4752 135.98C32.7369 135.03 33.3678 133.688 33.3678 131.952C33.3678 130.352 32.7369 129.091 31.4752 128.169C30.2134 127.247 28.4549 126.786 26.1998 126.786H20.2398V137.363ZM20.2398 159.737H27.2871C29.1127 159.737 30.6697 159.534 31.9584 159.127C33.247 158.693 34.2269 158.083 34.8979 157.296C35.5694 156.483 35.9048 155.506 35.9048 154.367C35.9048 153.228 35.6096 152.279 35.0189 151.52C34.4282 150.733 33.5557 150.15 32.4014 149.77C31.2738 149.364 29.8912 149.16 28.2536 149.16H20.2398V159.737ZM74.2017 112.751H58.2545V173.772H74.2017V112.751ZM98.2023 173.772H82.2555V112.751H98.2023V138.258C99.6253 136.142 100.981 134.19 102.27 132.4C103.558 130.61 104.645 129.159 105.531 128.047L117.572 112.751H136.338L114.069 141.024L140.365 173.772H119.787L103.881 153.961L98.2023 161.202V173.772ZM144.432 173.772V112.751H184.702V126.786H160.379V136.224H183.091V150.259H160.379V159.737H185.105V173.772H144.432Z" fill="#282B3A"/>
</svg>
