<svg width="52" height="52" viewBox="0 0 52 52" fill="none" xmlns="http://www.w3.org/2000/svg">
<g filter="url(#filter0_d_1017_2074)">
<circle cx="26" cy="25" r="21" fill="#FDFDFD"/>
</g>
<path fill-rule="evenodd" clip-rule="evenodd" d="M11.4609 26.9789C11.4609 30.261 14.1112 32.933 17.3667 32.933C20.6177 32.933 23.2681 30.261 23.2681 26.9789C23.2681 25.2237 22.5065 23.6442 21.3053 22.5561L22.1628 21.2528L26.8152 27.4834C26.972 27.7115 27.2244 27.8302 27.4853 27.8302H30.0834C30.4926 30.7129 32.9427 32.933 35.9195 32.933C39.1749 32.933 41.8252 30.261 41.8252 26.9789C41.8252 23.6968 39.1749 21.0291 35.9195 21.0291C34.8924 21.0291 33.9305 21.2924 33.0864 21.7575L31.2802 19.3267H31.5151C31.9765 19.3267 32.3595 18.9406 32.3595 18.4754C32.3595 18.0103 31.9765 17.6242 31.5151 17.6242H29.1737V19.3265H21.1702L21.1921 15.395H23.9339C24.3953 15.395 24.7783 15.0088 24.7783 14.5437C24.7783 14.0785 24.3953 13.6924 23.9339 13.6924H20.5611C20.1215 13.6924 19.8822 13.7802 19.8647 14.0653L19.8953 21.6123C19.1337 21.2394 18.2763 21.0287 17.3668 21.0287C14.1114 21.0287 11.4611 23.6963 11.4611 26.9784L11.4609 26.9789ZM27.568 26.3865L23.3248 20.6825H30.3972L31.8551 22.6436C30.8673 23.6222 30.2057 24.9296 29.9967 26.3865H27.568Z" fill="#282B3A"/>
<defs>
<filter id="filter0_d_1017_2074" x="0" y="0" width="52" height="52" filterUnits="userSpaceOnUse" color-interpolation-filters="sRGB">
<feFlood flood-opacity="0" result="BackgroundImageFix"/>
<feColorMatrix in="SourceAlpha" type="matrix" values="0 0 0 0 0 0 0 0 0 0 0 0 0 0 0 0 0 0 127 0" result="hardAlpha"/>
<feMorphology radius="1" operator="dilate" in="SourceAlpha" result="effect1_dropShadow_1017_2074"/>
<feOffset dy="1"/>
<feGaussianBlur stdDeviation="2"/>
<feComposite in2="hardAlpha" operator="out"/>
<feColorMatrix type="matrix" values="0 0 0 0 0 0 0 0 0 0 0 0 0 0 0 0 0 0 0.25 0"/>
<feBlend mode="normal" in2="BackgroundImageFix" result="effect1_dropShadow_1017_2074"/>
<feBlend mode="normal" in="SourceGraphic" in2="effect1_dropShadow_1017_2074" result="shape"/>
</filter>
</defs>
</svg>
