<svg width="170" height="179" viewBox="0 0 170 179" fill="none" xmlns="http://www.w3.org/2000/svg">
<path d="M57.8474 26.1089C60.1725 23.5697 61.5061 20.2542 61.6395 16.7277C61.7453 13.9456 62.1821 11.2378 63.4561 8.849C65.5156 4.98213 64.4003 4.74645 68.8081 4.27791C81.3163 2.94497 75.7263 17.7531 84.626 20.0196C95.116 22.694 93.8376 21.7585 101.523 26.4491C131.501 44.7632 150.572 80.9629 146.977 115.087C145.577 128.372 140.408 141.904 129.486 149.11C123.852 152.823 116.419 155.31 114.306 161.788C112.792 166.426 114.013 172.924 109.369 174.914C107.7 175.625 105.752 175.421 104.07 174.577C99.1656 172.107 97.3259 166.636 93.2334 163.459C90.1652 161.08 86.246 160.302 82.5035 159.477C65.0929 155.651 47.0791 148.533 36.1304 134.081C23.6605 117.611 19.9288 100.019 22.2529 80.0688C24.309 62.4053 23.5269 39.9583 52.1577 29.89C54.349 29.1209 56.2984 27.8092 57.8615 26.1121L57.8474 26.1089Z" fill="#F4D243"/>
<path d="M60.5719 28.5665C62.4171 26.5102 63.6852 24.1131 64.4885 21.444C65.1919 19.0951 65.0707 16.6486 65.4771 14.2403C65.5703 13.7073 65.6776 13.1776 65.813 12.6541C65.8384 12.5505 66.1935 11.5663 65.907 12.3255C66.0185 12.0226 66.13 11.7197 66.2615 11.4285C66.6379 10.5729 67.1023 9.75895 67.4858 8.90496C67.6901 8.44799 67.9014 7.9926 68.1116 7.54422C68.4148 6.89812 67.4359 8.31081 68.008 7.71774C68.348 7.36408 67.2054 8.33194 67.6188 8.06035C67.9921 7.8089 67.7538 8.25096 67.1613 8.24918C67.3588 8.24977 67.688 8.08316 67.8812 8.0245C68.1051 7.95813 68.5188 7.97809 67.4446 8.09413C67.6304 8.07753 67.8129 8.03833 68.0013 8.00771C68.8709 7.8895 69.7452 7.78689 70.6234 7.78719C70.8138 7.7862 71.0101 7.79381 71.1993 7.79984C71.6155 7.80576 71.2391 7.99094 70.7893 7.75885C71.0377 7.88744 71.5117 7.85534 71.7934 7.91855C72.0469 7.97544 72.2931 8.0744 72.5466 8.13129C71.5077 7.92003 71.8433 7.84231 72.1795 8.01248C72.3482 8.09405 72.5169 8.17563 72.6844 8.26422C72.764 8.31123 72.8424 8.36526 72.9232 8.40525C73.4468 8.67577 72.1458 7.78631 72.591 8.1704C72.7756 8.32842 72.9698 8.47399 73.1449 8.64446C73.2266 8.7211 73.3001 8.80317 73.3748 8.87823C73.7952 9.27861 72.7656 8.09297 73.0996 8.56871C73.252 8.78509 73.421 8.99062 73.564 9.21945C73.707 9.44828 73.8251 9.69341 73.9763 9.91681C73.3041 8.90608 73.7422 9.45618 73.9124 9.82229C74.1438 10.3406 74.3446 10.8666 74.5359 11.4051C75.3482 13.7079 75.9643 16.0031 77.1278 18.1807C78.5896 20.9135 81.0619 22.7216 83.9882 23.524C86.9146 24.3263 90.2142 24.8772 93.2342 25.8974C94.2159 26.2269 92.4289 25.5636 93.1861 25.8793C93.3913 25.9618 93.5964 26.0442 93.7933 26.1321C94.323 26.3676 94.835 26.6209 95.3503 26.8968C96.7217 27.6345 98.0502 28.45 99.3799 29.2585C100.188 29.7457 100.986 30.2455 101.776 30.7507C102.223 31.0404 102.67 31.3302 103.109 31.6254C103.331 31.7773 103.547 31.9206 103.77 32.0725C103.953 32.1939 104.657 32.6505 103.868 32.1383C105.571 33.2417 107.18 34.5429 108.765 35.8168C111.877 38.3222 114.837 41.0267 117.619 43.91C118.3 44.6167 118.966 45.3273 119.63 46.0519C119.993 46.4467 120.34 46.8453 120.695 47.2455C120.817 47.3822 121.163 47.7512 120.604 47.1376C120.843 47.4026 121.066 47.6784 121.297 47.9488C122.618 49.5134 123.898 51.1122 125.118 52.756C127.513 55.9678 129.716 59.3186 131.716 62.7842C132.205 63.6299 132.677 64.4865 133.141 65.3485C133.351 65.7381 133.553 66.1331 133.763 66.5227C134.192 67.3332 133.411 65.817 133.823 66.6383C133.98 66.9576 134.144 67.2715 134.301 67.5908C135.166 69.3372 135.975 71.1146 136.731 72.902C138.309 76.6446 139.652 80.48 140.742 84.3754C141.003 85.3085 141.243 86.2369 141.474 87.1777C141.576 87.6013 141.698 88.0296 141.778 88.4555C141.6 87.5047 141.76 88.3861 141.803 88.5631C141.868 88.8619 141.932 89.1607 141.997 89.4594C142.4 91.3861 142.735 93.3195 143.01 95.2614C143.567 99.234 143.842 103.231 143.833 107.215C143.83 107.651 143.828 108.081 143.818 108.516C143.816 108.778 143.807 109.038 143.798 109.298C143.796 109.356 143.762 110.216 143.79 109.595C143.818 108.975 143.778 109.833 143.775 109.891C143.759 110.15 143.751 110.41 143.735 110.669C143.703 111.186 143.671 111.704 143.631 112.227C143.465 114.303 143.221 116.369 142.884 118.421C142.547 120.473 142.084 122.621 141.527 124.675C141.405 125.121 141.284 125.567 141.147 126.011C141.071 126.278 141.001 126.553 140.905 126.809C141.242 125.93 140.908 126.795 140.857 126.958C140.535 127.921 140.186 128.87 139.818 129.808C139.038 131.753 138.144 133.644 137.117 135.461C136.872 135.895 136.623 136.319 136.367 136.736C136.253 136.929 136.131 137.12 136.011 137.304C135.921 137.445 135.499 138.224 135.921 137.445C135.424 138.361 134.667 139.218 134.014 140.019C133.399 140.777 132.75 141.514 132.079 142.215C131.774 142.533 131.456 142.848 131.139 143.156C130.946 143.338 130.753 143.521 130.553 143.702C130.422 143.819 130.291 143.942 130.154 144.057C130.457 143.79 130.516 143.745 130.327 143.906C128.794 145.137 127.214 146.261 125.516 147.265C121.999 149.34 118.374 151.157 115.318 153.896C113.861 155.201 112.621 156.767 111.728 158.527C110.782 160.377 110.334 162.477 110.053 164.549C109.932 165.447 109.833 166.351 109.705 167.247C109.65 167.65 109.588 168.045 109.511 168.443C109.471 168.674 109.423 168.904 109.367 169.139C109.33 169.313 109.086 169.87 109.139 170.028C109.113 169.964 109.454 169.188 109.215 169.761C109.129 169.96 109.055 170.169 108.969 170.369C108.883 170.568 108.771 170.747 108.68 170.938C108.365 171.567 109.105 170.516 108.777 170.799C108.649 170.902 108.552 171.084 108.443 171.205C107.901 171.791 108.376 171.125 108.488 171.194C108.474 171.19 107.975 171.537 107.94 171.566C107.367 171.955 108.671 171.366 107.854 171.598C107.693 171.642 106.815 171.809 107.659 171.707C107.375 171.745 107.097 171.741 106.808 171.764C105.955 171.828 107.26 171.902 106.764 171.761C106.541 171.697 106.278 171.652 106.053 171.602C105.181 171.443 106.656 171.963 105.86 171.537C105.611 171.408 105.361 171.293 105.12 171.159C104.967 171.074 104.816 170.974 104.663 170.889C104.321 170.667 104.367 170.699 104.791 170.991C104.656 170.887 104.513 170.783 104.377 170.679C103.76 170.191 102.719 169.447 102.344 168.744C102.748 169.49 102.484 168.906 102.298 168.675C102.19 168.541 102.081 168.408 101.973 168.274C101.601 167.805 101.238 167.33 100.874 166.855C99.6154 165.18 98.3519 163.49 96.8612 162.012C95.1103 160.263 92.9459 158.954 90.669 158.079C86.1904 156.36 81.4197 155.683 76.82 154.447C74.7161 153.88 72.6279 153.266 70.5506 152.588C69.5326 152.258 68.5264 151.901 67.5202 151.544C66.5903 151.212 68.2683 151.829 67.342 151.475C67.1158 151.388 66.8883 151.308 66.662 151.22C66.0723 150.993 65.4825 150.766 64.9023 150.527C60.8897 148.905 56.9791 146.993 53.2614 144.73C52.3624 144.179 51.48 143.616 50.6038 143.019C50.4727 142.931 49.6616 142.421 50.4399 142.909C50.2024 142.761 49.9709 142.578 49.744 142.411C49.2832 142.074 48.8237 141.73 48.3724 141.381C46.6373 140.045 44.9711 138.607 43.402 137.074C42.6525 136.338 41.922 135.576 41.2163 134.799C41.088 134.653 40.9585 134.515 40.8302 134.37C41.4309 135.036 40.7883 134.316 40.6903 134.207C40.3138 133.765 39.9537 133.313 39.5937 132.861C38.2283 131.126 36.9504 129.309 35.7516 127.459C34.5528 125.608 33.5015 123.835 32.5051 121.957C32.4007 121.759 32.2975 121.553 32.1861 121.353C31.9228 120.85 32.5755 122.14 32.1815 121.338C31.944 120.855 31.6994 120.37 31.4701 119.881C31.0474 118.992 30.6482 118.094 30.2714 117.193C29.4866 115.319 28.7807 113.412 28.1738 111.483C27.8806 110.564 27.611 109.637 27.3625 108.714C27.2388 108.249 27.1152 107.784 27.0069 107.315C26.9567 107.1 26.9053 106.891 26.8551 106.676C26.7627 106.284 26.7752 106.338 26.8869 106.829C26.8505 106.66 26.8153 106.485 26.7718 106.315C25.9298 102.424 25.442 98.4743 25.261 94.5278C25.1642 92.4438 25.1474 90.3632 25.2093 88.293C25.2176 88.1199 25.229 87.1752 25.2114 88.155C25.2139 87.9734 25.2247 87.7863 25.2342 87.6063C25.2581 87.0505 25.2892 86.4964 25.3272 85.9438C25.3987 84.8231 25.4926 83.7 25.6064 82.5888C26.202 76.5866 26.691 70.5242 27.6776 64.5879C27.9307 63.0561 28.2249 61.5408 28.5825 60.0397C28.7535 59.3129 28.9373 58.5963 29.1353 57.8829C29.2293 57.5542 29.3221 57.2325 29.415 56.9109C29.4704 56.7193 29.5341 56.5222 29.5896 56.3306C29.7786 55.7099 29.2952 57.2192 29.6147 56.2707C30.5975 53.3286 31.884 50.4911 33.5251 47.8861C33.6356 47.7142 33.7768 47.5345 33.8675 47.3508C33.4356 48.2304 33.688 47.6239 33.8366 47.4022C34.0421 47.1058 34.2464 46.8164 34.4577 46.5286C34.9753 45.8286 35.5186 45.149 36.0806 44.488C36.6141 43.8645 37.1734 43.2612 37.75 42.6838C38.0165 42.4156 38.29 42.1491 38.5705 41.8841C38.7374 41.7248 38.9114 41.5671 39.077 41.4148C39.1907 41.3091 39.3113 41.205 39.4237 41.1064C39.0712 41.4062 38.9931 41.4761 39.1907 41.3091C40.6135 40.1199 42.0945 39.0167 43.6594 38.0197C44.4826 37.4975 45.3149 37.0066 46.1718 36.543C46.6568 36.2802 47.1477 36.026 47.6386 35.7718C47.8074 35.6858 47.9749 35.6068 48.1436 35.5207C47.3743 35.902 48.4939 35.3589 48.6284 35.3016C50.6323 34.3886 52.7566 33.7503 54.7465 32.8341C56.9676 31.8094 58.9349 30.4364 60.5903 28.6289C61.8285 27.2817 61.6712 24.7907 60.1682 23.5498C58.6652 22.309 56.4516 22.2859 55.1316 23.7241C54.8057 24.0809 54.4682 24.4206 54.1062 24.7328C54.7215 24.1859 53.9917 24.8019 53.8913 24.8741C53.6631 25.0488 53.4291 25.2149 53.1894 25.3724C52.7912 25.6402 52.3711 25.8665 51.9555 26.1085C51.1434 26.5675 52.6014 25.889 51.7243 26.2169C51.3565 26.353 50.9863 26.5031 50.6185 26.6392C48.2753 27.4834 46.0027 28.4674 43.7752 29.5707C39.9856 31.4458 36.5391 33.8278 33.4362 36.6731C28.1959 41.4873 24.7369 47.7506 22.6 54.5728C20.7471 60.4823 20.0196 66.6953 19.405 72.89C18.6333 80.6525 17.7093 88.3663 18.2136 96.2403C18.7525 104.545 20.6724 112.904 24.1004 120.632C27.7807 128.927 32.9422 136.914 39.6126 143.176C46.2831 149.439 54.4925 154.057 62.9253 157.356C67.392 159.101 71.9513 160.569 76.5712 161.773C78.7409 162.34 80.9241 162.83 83.1085 163.313C84.2283 163.564 85.3481 163.815 86.4568 164.13C86.7572 164.212 87.0551 164.308 87.3543 164.397C87.4786 164.439 88.4648 164.784 87.6194 164.471C88.1963 164.687 88.7683 164.932 89.327 165.211C89.8858 165.489 90.4256 165.793 90.9428 166.142C90.2677 165.692 91.0046 166.207 91.1262 166.307C91.3249 166.468 91.5153 166.635 91.7058 166.801C92.0223 167.084 92.3211 167.384 92.6117 167.689C92.7856 167.867 92.9794 168.056 93.1285 168.25C92.5125 167.419 93.1983 168.353 93.3312 168.514C94.564 170.044 95.6787 171.664 96.9624 173.155C98.5633 175.008 100.344 176.712 102.553 177.805C105.342 179.188 108.531 179.408 111.255 178.103C115.505 176.062 116.443 171.536 116.987 167.169C117.1 166.269 117.214 165.369 117.383 164.481C117.474 164.006 117.59 163.551 117.708 163.082C117.914 162.283 117.396 163.865 117.718 163.07C117.809 162.842 117.9 162.615 117.997 162.396C118.094 162.178 118.45 161.186 118.671 161.134L118.425 161.494C118.514 161.361 118.602 161.235 118.697 161.111C118.812 160.954 118.935 160.8 119.057 160.645C119.328 160.305 119.619 159.984 119.922 159.673C120.091 159.5 120.259 159.333 120.433 159.176C120.548 159.063 120.669 158.959 120.79 158.855C120.418 159.18 120.376 159.214 120.666 158.973C123.7 156.564 127.211 154.903 130.5 152.879C134.215 150.594 137.51 147.61 140.151 144.143C145.544 137.075 148.635 128.397 150.034 119.515C152.604 103.178 149.905 85.8412 143.253 70.3063C136.6 54.7713 126.105 40.6622 112.782 30.1305C109.316 27.3925 105.663 24.926 101.904 22.6471C99.4626 21.1664 97.0671 19.7982 94.3683 18.9084C91.2402 17.8786 87.966 17.2241 84.7797 16.4435C84.1553 16.2889 85.6808 16.8571 85.1174 16.563C84.9827 16.4964 84.8455 16.4437 84.7108 16.3771C84.5023 16.272 84.3048 16.1038 84.0926 16.0198C84.912 16.3566 84.7451 16.5159 84.4202 16.239C84.3186 16.1506 84.2086 16.0677 84.1082 15.9722C83.7601 15.6609 83.4203 15.009 84.0669 15.9994C83.7959 15.5815 83.4659 15.2087 83.2127 14.773C82.696 13.8773 83.5262 15.4919 83.1882 14.7456C83.0505 14.4451 82.9198 14.1461 82.7986 13.8347C81.9798 11.7782 81.5251 9.60664 80.5954 7.59812C79.1772 4.53265 77.0611 2.23603 73.805 1.18479C72.2391 0.680404 70.5197 0.593385 68.9176 0.714853C67.1731 0.855381 65.1806 0.991266 63.6901 1.93937C62.4395 2.72995 61.7736 3.94324 61.1833 5.26822C60.2285 7.42231 59.1632 9.41314 58.642 11.7665C58.1208 14.1199 58.2885 16.4676 57.7783 18.7579C57.7115 19.0562 57.6306 19.3514 57.551 19.6396C57.771 18.7999 57.509 19.7541 57.4563 19.888C57.279 20.3583 57.0734 20.8223 56.8492 21.2675C56.7144 21.536 56.5726 21.803 56.4179 22.0598C56.3561 22.1625 55.7989 22.9629 56.2703 22.3181C55.9141 22.8066 55.5392 23.2763 55.1304 23.7311C53.9108 25.0971 54.0366 27.5592 55.5525 28.8102C57.0683 30.0612 59.289 30.0858 60.589 28.6359L60.5719 28.5665Z" fill="#F4D243"/>
<path d="M40.9164 59.7725C39.1621 64.4529 38.5574 69.5942 39.6047 74.5906C39.8178 75.6029 40.072 76.4322 40.8651 77.1544C41.5545 77.7854 42.6633 78.2222 43.585 78.1203C44.5067 78.0185 45.4627 77.6477 46.0615 76.8859C46.6603 76.1242 47.1518 75.0862 46.945 74.1213C46.5298 72.1604 46.3755 70.171 46.4639 68.1721L46.4141 69.1818C46.5241 67.1876 46.8745 65.2371 47.4696 63.3468L47.1592 64.3007C47.2776 63.9425 47.4032 63.5857 47.5361 63.2306C47.8928 62.2712 48.0444 61.3216 47.6956 60.3109C47.3948 59.4486 46.6672 58.5333 45.8421 58.1495C44.1513 57.3579 41.6509 57.8199 40.9164 59.7725Z" fill="#F1F1F1"/>
<path d="M62.5955 49.9139L60.1856 59.6279C59.6773 61.677 61.1465 63.9418 63.464 64.2112C65.7815 64.4807 68.1394 63.1633 68.6827 60.9734L71.0925 51.2594C71.6009 49.2102 70.1316 46.9454 67.8141 46.676C65.4966 46.4066 63.1387 47.7239 62.5955 49.9139Z" fill="#F1F1F1"/>
<path d="M63.4225 86.9627C62.886 90.6004 63.0805 94.178 64.1958 97.6033C64.4792 98.4814 65.2008 99.2607 66.065 99.6574C66.9293 100.054 68.168 100.128 69.1035 99.7564C71.1171 98.9515 72.3596 96.8933 71.7218 94.9425C71.4505 94.1122 71.2382 93.2683 71.0791 92.4022L71.2447 93.3381C70.9418 91.6085 70.8792 89.8404 71.059 88.0573L70.9542 89.0573C70.9871 88.7644 71.0218 88.4641 71.07 88.1737C71.2168 87.165 71.1736 86.2485 70.5982 85.393C70.091 84.6476 69.1225 83.9974 68.1547 83.89C67.1868 83.7826 66.0538 83.9243 65.1784 84.5348C64.3598 85.1084 63.5543 85.9822 63.4148 86.9615L63.4225 86.9627Z" fill="#F1F1F1"/>
<path d="M42.4139 96.6139C42.1133 97.5546 42.0164 98.4929 41.9634 99.4789C41.9104 100.465 41.9393 101.415 42.1361 102.393C42.5786 104.575 43.3614 106.706 44.8151 108.421C45.0746 108.853 45.4195 109.188 45.8414 109.431C46.2338 109.753 46.6769 109.963 47.1806 110.048C48.0712 110.239 49.2015 110.066 49.9415 109.519C50.6816 108.972 51.3401 108.131 51.4782 107.132C51.6086 106.216 51.5235 105.04 50.9005 104.292C50.4053 103.711 49.9887 103.069 49.6409 102.381L50.0689 103.247C49.7147 102.512 49.4556 101.75 49.2783 100.953L49.4791 101.909C49.3164 101.115 49.2532 100.311 49.2809 99.5034L49.2311 100.513C49.2733 99.709 49.411 98.9175 49.6559 98.1567C49.9244 97.3089 49.5419 96.0301 49.0783 95.3171C48.5662 94.54 47.626 93.84 46.7128 93.6905C45.7996 93.541 44.7435 93.6371 43.9518 94.2195L43.2503 94.8442C42.8188 95.3503 42.5385 95.9347 42.4166 96.5991L42.4139 96.6139Z" fill="#F1F1F1"/>
<path d="M55.9954 134.191C58.5116 136.103 61.0193 138.021 63.5355 139.933C64.3548 140.554 65.2192 140.969 66.2555 140.899C67.1387 140.843 68.173 140.374 68.732 139.665C69.3308 138.903 69.7462 137.91 69.6155 136.9C69.5002 135.97 69.1205 134.922 68.3551 134.336C65.8389 132.424 63.3312 130.507 60.815 128.594C59.9957 127.974 59.1312 127.559 58.095 127.629C57.2118 127.685 56.1775 128.154 55.6185 128.863C55.0197 129.625 54.6043 130.618 54.735 131.628C54.8503 132.558 55.2299 133.606 55.9954 134.191Z" fill="#F1F1F1"/>
<path d="M70.5853 119.564C71.9297 121.128 73.2763 122.683 74.6296 124.249C74.9239 124.734 75.3301 125.103 75.8371 125.362C76.3029 125.713 76.8383 125.932 77.4565 126.003C78.062 126.126 78.6615 126.087 79.2597 125.904C79.8522 125.819 80.4057 125.593 80.9073 125.243C81.8816 124.547 82.725 123.562 82.958 122.4L83.0825 121.229C83.0513 120.464 82.826 119.775 82.4108 119.145C81.0664 117.581 79.7198 116.026 78.3665 114.46C78.0722 113.975 77.666 113.606 77.159 113.347C76.6932 112.996 76.1578 112.777 75.5395 112.706C74.9341 112.583 74.3346 112.622 73.7364 112.805C73.1439 112.89 72.5903 113.116 72.0888 113.466C71.1145 114.162 70.2711 115.147 70.0381 116.309L69.9136 117.48C69.9448 118.245 70.1701 118.934 70.5853 119.564Z" fill="#F1F1F1"/>
</svg>
