<svg width="20" height="20" viewBox="0 0 20 20" fill="none" xmlns="http://www.w3.org/2000/svg">
<g clip-path="url(#clip0_1135_37251)">
<path d="M14.1654 7.49984V9.1665H13.332V9.99984H12.4987V10.8332H11.6654V11.6665H10.832V12.4998H9.9987V13.3332H8.33203V12.4998H7.4987V11.6665H6.66536V10.8332H5.83203V9.1665H6.66536V8.33317H8.33203V9.1665H9.9987V8.33317H10.832V7.49984H11.6654V6.6665H13.332V7.49984H14.1654Z" fill="#35D045" fill-opacity="0.5"/>
<path d="M18.332 6.66683V5.8335H17.4987V5.00016H16.6654V4.16683H15.832V3.3335H14.9987V2.50016H14.1654V1.66683H13.332V0.833496H6.66536V1.66683H5.83203V2.50016H4.9987V3.3335H4.16536V4.16683H3.33203V5.00016H2.4987V5.8335H1.66536V6.66683H0.832031V13.3335H1.66536V14.1668H2.4987V15.0002H3.33203V15.8335H4.16536V16.6668H4.9987V17.5002H5.83203V18.3335H6.66536V19.1668H13.332V18.3335H14.1654V17.5002H14.9987V16.6668H15.832V15.8335H16.6654V15.0002H17.4987V14.1668H18.332V13.3335H19.1654V6.66683H18.332ZM17.4987 12.5002H16.6654V13.3335H15.832V14.1668H14.9987V15.0002H14.1654V15.8335H13.332V16.6668H12.4987V17.5002H7.4987V16.6668H6.66536V15.8335H5.83203V15.0002H4.9987V14.1668H4.16536V13.3335H3.33203V12.5002H2.4987V7.50016H3.33203V6.66683H4.16536V5.8335H4.9987V5.00016H5.83203V4.16683H6.66536V3.3335H7.4987V2.50016H12.4987V3.3335H13.332V4.16683H14.1654V5.00016H14.9987V5.8335H15.832V6.66683H16.6654V7.50016H17.4987V12.5002Z" fill="#35D045" fill-opacity="0.5"/>
</g>
<defs>
<clipPath id="clip0_1135_37251">
<rect width="20" height="20" fill="white"/>
</clipPath>
</defs>
</svg>
