<svg width="20" height="20" viewBox="0 0 20 20" fill="none" xmlns="http://www.w3.org/2000/svg">
<g clip-path="url(#clip0_1135_37248)">
<path d="M14.1654 6.66683V8.3335H13.332V9.16683H12.4987V10.8335H13.332V11.6668H14.1654V13.3335H13.332V14.1668H11.6654V13.3335H10.832V12.5002H9.16536V13.3335H8.33203V14.1668H6.66536V13.3335H5.83203V11.6668H6.66536V10.8335H7.4987V9.16683H6.66536V8.3335H5.83203V6.66683H6.66536V5.8335H8.33203V6.66683H9.16536V7.50016H10.832V6.66683H11.6654V5.8335H13.332V6.66683H14.1654Z" fill="#C13232" fill-opacity="0.5"/>
<path d="M18.332 6.66683V5.8335H17.4987V5.00016H16.6654V4.16683H15.832V3.3335H14.9987V2.50016H14.1654V1.66683L13.332 1.66683V0.833496L6.66536 0.833496V1.66683L5.83203 1.66683V2.50016H4.9987V3.3335L4.16536 3.3335V4.16683H3.33203L3.33203 5.00016H2.4987V5.8335H1.66536L1.66536 6.66683H0.832031L0.832031 13.3335H1.66536L1.66536 14.1668H2.4987V15.0002H3.33203V15.8335H4.16536V16.6668H4.9987V17.5002H5.83203V18.3335H6.66536V19.1668H13.332V18.3335H14.1654V17.5002H14.9987L14.9987 16.6668H15.832V15.8335H16.6654V15.0002L17.4987 15.0002V14.1668H18.332V13.3335H19.1654V6.66683H18.332ZM16.6654 12.5002V13.3335H15.832V14.1668H14.9987V15.0002H14.1654V15.8335H13.332V16.6668H12.4987L12.4987 17.5002H7.4987V16.6668H6.66536V15.8335H5.83203V15.0002H4.9987V14.1668H4.16536V13.3335H3.33203L3.33203 12.5002H2.4987L2.4987 7.50016H3.33203V6.66683H4.16536V5.8335H4.9987V5.00016H5.83203V4.16683H6.66536V3.3335H7.4987V2.50016L12.4987 2.50016V3.3335L13.332 3.3335V4.16683H14.1654V5.00016H14.9987V5.8335H15.832V6.66683H16.6654V7.50016H17.4987V12.5002L16.6654 12.5002Z" fill="#C13232" fill-opacity="0.5"/>
</g>
<defs>
<clipPath id="clip0_1135_37248">
<rect width="20" height="20" fill="white"/>
</clipPath>
</defs>
</svg>
