<svg width="92" height="92" viewBox="0 0 92 92" fill="none" xmlns="http://www.w3.org/2000/svg">
<g clip-path="url(#clip0_962_784)">
<path d="M92.0002 43.8149H83.2314V48.1849H92.0002V43.8149Z" fill="#000001"/>
<path d="M87.6014 65.7225H83.2314V70.0925H87.6014V65.7225Z" fill="#000001"/>
<path d="M87.6014 21.9075H83.2314V26.2775H87.6014V21.9075Z" fill="#000001"/>
<path d="M83.2308 61.3237H78.832V65.7225H83.2308V61.3237Z" fill="#000001"/>
<path d="M83.2308 26.2775H78.832V30.6762H83.2308V26.2775Z" fill="#000001"/>
<path d="M74.4628 78.8612H70.0928V83.2312H74.4628V78.8612Z" fill="#000001"/>
<path d="M74.4628 52.5837H70.0928V56.9537H74.4628V52.5837Z" fill="#000001"/>
<path d="M74.4628 39.4163H70.0928V43.815H74.4628V39.4163Z" fill="#000001"/>
<path d="M74.4628 4.37H70.0928V8.76874H74.4628V4.37Z" fill="#000001"/>
<path d="M70.0921 74.4625H65.6934V78.8613H70.0921V74.4625Z" fill="#000001"/>
<path d="M70.0921 43.8149H65.6934V48.1849H70.0921V43.8149Z" fill="#000001"/>
<path d="M70.0921 8.7688H65.6934V13.1388H70.0921V8.7688Z" fill="#000001"/>
<path d="M65.6942 48.1851H61.3242V52.5838H65.6942V48.1851Z" fill="#000001"/>
<path d="M61.3236 52.5837H56.9248V56.9537H61.3236V52.5837Z" fill="#000001"/>
<path d="M61.3236 39.4163H56.9248V43.815H61.3236V39.4163Z" fill="#000001"/>
<path d="M48.1849 83.2312H43.7861V91.9999H48.1849V83.2312Z" fill="#000001"/>
<path d="M48.1849 0H43.7861V8.76875H48.1849V0Z" fill="#000001"/>
<path d="M48.1847 35.0463H35.0459V56.9538H48.1847V35.0463ZM43.7859 52.5838H39.4159V39.4163H43.7859V52.5838Z" fill="#000001"/>
<path d="M26.2777 74.4625H21.8789V78.8613H26.2777V74.4625Z" fill="#000001"/>
<path d="M17.5088 52.5838V56.9538H30.6475V43.815H21.8788V39.4163H30.6475V35.0463H17.5088V48.185H26.2775V52.5838H17.5088Z" fill="#000001"/>
<path d="M26.2777 8.7688H21.8789V13.1388H26.2777V8.7688Z" fill="#000001"/>
<path d="M21.8788 78.8612H17.5088V83.2312H21.8788V78.8612Z" fill="#000001"/>
<path d="M21.8788 4.37H17.5088V8.76874H21.8788V4.37Z" fill="#000001"/>
<path d="M13.139 61.3237H8.74023V65.7225H13.139V61.3237Z" fill="#000001"/>
<path d="M13.139 26.2775H8.74023V30.6762H13.139V26.2775Z" fill="#000001"/>
<path d="M8.74012 65.7225H4.37012V70.0925H8.74012V65.7225Z" fill="#000001"/>
<path d="M8.74 43.8149H0V48.1849H8.74V43.8149Z" fill="#000001"/>
<path d="M8.74012 21.9075H4.37012V26.2775H8.74012V21.9075Z" fill="#000001"/>
</g>
<defs>
<clipPath id="clip0_962_784">
<rect width="92" height="92" fill="white"/>
</clipPath>
</defs>
</svg>
