<svg width="92" height="92" viewBox="0 0 92 92" fill="none" xmlns="http://www.w3.org/2000/svg">
<g clip-path="url(#clip0_962_722)">
<path d="M92.0002 43.8149H83.2314V48.1849H92.0002V43.8149Z" fill="#000001"/>
<path d="M87.6014 65.7225H83.2314V70.0925H87.6014V65.7225Z" fill="#000001"/>
<path d="M87.6014 21.9075H83.2314V26.2775H87.6014V21.9075Z" fill="#000001"/>
<path d="M83.2308 61.3237H78.832V65.7225H83.2308V61.3237Z" fill="#000001"/>
<path d="M83.2308 26.2775H78.832V30.6762H83.2308V26.2775Z" fill="#000001"/>
<path d="M74.4628 78.8612H70.0928V83.2312H74.4628V78.8612Z" fill="#000001"/>
<path d="M74.4628 4.37H70.0928V8.76874H74.4628V4.37Z" fill="#000001"/>
<path d="M70.0921 74.4625H65.6934V78.8613H70.0921V74.4625Z" fill="#000001"/>
<path d="M70.0921 8.7688H65.6934V13.1388H70.0921V8.7688Z" fill="#000001"/>
<path d="M65.6934 35.0463H52.5547V52.5838H65.6934V35.0463ZM61.3234 48.185H56.9247V39.4163H61.3234V48.185Z" fill="#000001"/>
<path d="M52.5546 70.0925H48.1846V74.4625H52.5546V70.0925Z" fill="#000001"/>
<path d="M52.5546 56.9537H48.1846V61.3237H52.5546V56.9537Z" fill="#000001"/>
<path d="M48.1849 83.2312H43.7861V91.9999H48.1849V83.2312Z" fill="#000001"/>
<path d="M48.1849 61.3237H43.7861V65.7225H48.1849V61.3237Z" fill="#000001"/>
<path d="M48.1849 0H43.7861V8.76875H48.1849V0Z" fill="#000001"/>
<path d="M43.786 65.7225H39.416V70.0925H43.786V65.7225Z" fill="#000001"/>
<path d="M48.1847 52.5838V35.0463H35.0459V52.5838H48.1847ZM39.4159 39.4163H43.7859V48.185H39.4159V39.4163Z" fill="#000001"/>
<path d="M52.5547 21.9075H48.1847V17.5088H43.7859V21.9075H39.4159V17.5088H35.0459V30.6763H56.9246V17.5088H52.5547V21.9075Z" fill="#000001"/>
<path d="M39.4159 70.0925H35.0459V74.4625H39.4159V70.0925Z" fill="#000001"/>
<path d="M39.4159 56.9537H35.0459V61.3237H39.4159V56.9537Z" fill="#000001"/>
<path d="M30.6473 35.0463H26.2773V52.5838H30.6473V35.0463Z" fill="#000001"/>
<path d="M26.2777 74.4625H21.8789V78.8613H26.2777V74.4625Z" fill="#000001"/>
<path d="M26.2777 8.7688H21.8789V13.1388H26.2777V8.7688Z" fill="#000001"/>
<path d="M21.8788 78.8612H17.5088V83.2312H21.8788V78.8612Z" fill="#000001"/>
<path d="M21.8788 4.37H17.5088V8.76874H21.8788V4.37Z" fill="#000001"/>
<path d="M13.139 61.3237H8.74023V65.7225H13.139V61.3237Z" fill="#000001"/>
<path d="M13.139 26.2775H8.74023V30.6762H13.139V26.2775Z" fill="#000001"/>
<path d="M8.74012 65.7225H4.37012V70.0925H8.74012V65.7225Z" fill="#000001"/>
<path d="M8.74 43.8149H0V48.1849H8.74V43.8149Z" fill="#000001"/>
<path d="M8.74012 21.9075H4.37012V26.2775H8.74012V21.9075Z" fill="#000001"/>
</g>
<defs>
<clipPath id="clip0_962_722">
<rect width="92" height="92" fill="white"/>
</clipPath>
</defs>
</svg>
