<svg width="21" height="21" viewBox="0 0 21 21" fill="none" xmlns="http://www.w3.org/2000/svg">
<path d="M18.9985 4.00317H18.001V12.0029H18.9985V4.00317Z" fill="black"/>
<path d="M18.0011 12.0028H16.9971V13.0003H18.0011V12.0028Z" fill="black"/>
<path d="M18.0011 2.99902H16.9971V4.00309H18.0011V2.99902Z" fill="black"/>
<path d="M16.9975 13.0004H16V13.9979H16.9975V13.0004Z" fill="black"/>
<path d="M16.9975 2.00159H16V2.99909H16.9975V2.00159Z" fill="black"/>
<path d="M16.0002 13.9978H14.9961V15.0019H16.0002V13.9978Z" fill="black"/>
<path d="M16.0002 0.997559H14.9961V2.00162H16.0002V0.997559Z" fill="black"/>
<path d="M11.9962 15.0019V10.9988H10.9987V15.0019H10.0012V10.9988H8.99711V15.0019H5.99805V15.9994H6.99555V20.0025H7.99961V18.9985H13.0002V20.0025H13.9977V15.9994H14.9952V15.0019H11.9962ZM13.0002 16.9969H7.99961V15.9994H13.0002V16.9969Z" fill="black"/>
<path d="M13.0002 16.9969H7.99961V15.9994H13.0002V16.9969Z" fill="black"/>
<path d="M13.9985 7.0022H13.001V8.9972H13.9985V7.0022Z" fill="black"/>
<path d="M13.0011 8.99719H11.9971V10.9988H13.0011V8.99719Z" fill="black"/>
<path d="M13.0006 20.0024H8V20.9999H13.0006V20.0024Z" fill="black"/>
<path d="M8.9975 8.99719H8V10.9988H8.9975V8.99719Z" fill="black"/>
<path d="M8.00016 7.0022H6.99609V8.9972H8.00016V7.0022Z" fill="black"/>
<path d="M14.9952 0H5.99805V0.9975H14.9952V0Z" fill="black"/>
<path d="M5.99848 13.9978H5.00098V15.0019H5.99848V13.9978Z" fill="black"/>
<path d="M5.99848 0.997559H5.00098V2.00162H5.99848V0.997559Z" fill="black"/>
<path d="M5.00113 13.0004H3.99707V13.9979H5.00113V13.0004Z" fill="black"/>
<path d="M5.00113 2.00159H3.99707V2.99909H5.00113V2.00159Z" fill="black"/>
<path d="M3.99652 12.0028H2.99902V13.0003H3.99652V12.0028Z" fill="black"/>
<path d="M3.99652 2.99902H2.99902V4.00309H3.99652V2.99902Z" fill="black"/>
<path d="M2.99945 4.00317H2.00195V12.0029H2.99945V4.00317Z" fill="black"/>
</svg>
