<svg width="21" height="21" viewBox="0 0 21 21" fill="none" xmlns="http://www.w3.org/2000/svg">
<g clip-path="url(#clip0_962_569)">
<path d="M21.0004 7.99963H20.0029V13.0003H21.0004V7.99963Z" fill="#000001"/>
<path d="M20.0021 13.0004H18.998V15.0019H20.0021V13.0004Z" fill="#000001"/>
<path d="M20.0021 5.99817H18.998V7.99973H20.0021V5.99817Z" fill="#000001"/>
<path d="M18.9985 15.0018H18.001V16.9968H18.9985V15.0018Z" fill="#000001"/>
<path d="M18.9985 3.99658H18.001V5.99814H18.9985V3.99658Z" fill="#000001"/>
<path d="M18.0011 16.9968H16.9971V18.0009H18.0011V16.9968Z" fill="#000001"/>
<path d="M18.0011 2.99902H16.9971V3.99652H18.0011V2.99902Z" fill="#000001"/>
<path d="M16.997 18.001H15.002V18.9985H16.997V18.001Z" fill="#000001"/>
<path d="M16.997 2.00159H15.002V2.99909H16.997V2.00159Z" fill="#000001"/>
<path d="M15.0016 18.9984H13V20.0025H15.0016V18.9984Z" fill="#000001"/>
<path d="M15.0016 0.997559H13V2.00162H15.0016V0.997559Z" fill="#000001"/>
<path d="M13.0006 20.0024H8V20.9999H13.0006V20.0024Z" fill="#000001"/>
<path d="M9.38669 12.9706H11.6141V13.7098H12.3533V15.9324H11.6141V16.6765H9.38669V15.9324H8.64746V13.7098H9.38669V12.9706Z" fill="#000001"/>
<path fill-rule="evenodd" clip-rule="evenodd" d="M8.9975 2.99902H12.0031V3.99652H13.0006V10.0012H12.0031V12.0028H8.9975V10.0012H8V3.99652H8.9975V2.99902ZM9.75767 3.70586H11.2426V4.52699H11.7354V9.46997H11.2426V11.1176H9.75767V9.46997H9.26485V4.52699H9.75767V3.70586Z" fill="#000001"/>
<path d="M13.0006 0H8V0.9975H13.0006V0Z" fill="#000001"/>
<path d="M7.99961 18.9984H5.99805V20.0025H7.99961V18.9984Z" fill="#000001"/>
<path d="M7.99961 0.997559H5.99805V2.00162H7.99961V0.997559Z" fill="#000001"/>
<path d="M5.99766 18.001H3.99609V18.9985H5.99766V18.001Z" fill="#000001"/>
<path d="M5.99766 2.00159H3.99609V2.99909H5.99766V2.00159Z" fill="#000001"/>
<path d="M3.99652 16.9968H2.99902V18.0009H3.99652V16.9968Z" fill="#000001"/>
<path d="M3.99652 2.99902H2.99902V3.99652H3.99652V2.99902Z" fill="#000001"/>
<path d="M2.99945 15.0018H2.00195V16.9968H2.99945V15.0018Z" fill="#000001"/>
<path d="M2.99945 3.99658H2.00195V5.99814H2.99945V3.99658Z" fill="#000001"/>
<path d="M2.00113 13.0004H0.99707V15.0019H2.00113V13.0004Z" fill="#000001"/>
<path d="M2.00113 5.99817H0.99707V7.99973H2.00113V5.99817Z" fill="#000001"/>
<path d="M0.9975 7.99963H0V13.0003H0.9975V7.99963Z" fill="#000001"/>
</g>
<defs>
<clipPath id="clip0_962_569">
<rect width="21" height="21" fill="white"/>
</clipPath>
</defs>
</svg>
