<svg width="215" height="215" viewBox="0 0 215 215" fill="none" xmlns="http://www.w3.org/2000/svg">
<g clip-path="url(#clip0_1020_27478)">
<rect width="215" height="215" rx="31" fill="#F9F3E7"/>
<path fill-rule="evenodd" clip-rule="evenodd" d="M-144.427 -86.3962L-130.577 -67.6224C-118.043 -48.895 -90.3418 -11.3475 -63.0822 1.2479C-35.7642 12.1829 -6.25301 -1.7415 21.532 -4.08955C49.317 -6.4376 77.8942 6.20412 105.095 20.4599C132.297 34.7157 160.757 50.6782 188.309 54.9717C215.86 59.2652 245.255 48.6615 258.605 44.1436L273.273 39.6719L277.768 -88.1776L263.275 -88.6872C250.1 -89.1504 221.114 -90.1694 193.446 -91.1421C165.777 -92.1148 136.792 -93.1339 109.123 -94.1066C81.455 -95.0793 52.4692 -96.0983 24.8009 -97.0711C-2.86736 -98.0438 -31.8532 -99.0628 -59.5214 -100.036C-87.1897 -101.008 -116.175 -102.027 -129.351 -102.49L-143.844 -103L-144.427 -86.3962Z" fill="#E95B0B"/>
<path fill-rule="evenodd" clip-rule="evenodd" d="M-143.648 -82.4142L-129.797 -63.6405C-117.264 -44.9131 -89.5625 -7.36558 -62.3029 5.22983C-34.9849 16.1649 -5.4737 2.24043 22.3113 -0.107618C50.0963 -2.45567 78.6735 10.1861 105.875 24.4418C133.076 38.6976 161.537 54.6601 189.088 58.9536C216.64 63.2471 246.034 52.6434 259.384 48.1255L274.052 43.6539L278.547 -84.1957L264.054 -84.7052C250.879 -85.1684 221.893 -86.1875 194.225 -87.1602C166.557 -88.1329 137.571 -89.1519 109.903 -90.1247C82.2343 -91.0974 53.2485 -92.1164 25.5802 -93.0891C-2.08806 -94.0618 -31.0739 -95.0809 -58.7421 -96.0536C-86.4104 -97.0263 -115.396 -98.0453 -128.572 -98.5085L-143.064 -99.0181L-143.648 -82.4142Z" stroke="#E95B0B" stroke-width="2"/>
<path d="M19.139 92.962L18.6271 93.4571L18.2353 94.0517C16.5159 96.6613 16.2657 99.516 16.5447 101.87C16.8179 104.176 17.6312 106.382 18.5508 108.303C20.3902 112.145 23.2617 116.08 26.0201 119.437C28.2457 122.145 30.5579 124.669 32.5282 126.721C31.7958 127.309 31.0066 127.943 30.169 128.618C25.3526 132.495 18.927 137.702 12.5043 143.01C6.09489 148.306 -0.364722 153.747 -5.22591 158.077C-7.64208 160.23 -9.75424 162.188 -11.2872 163.755C-12.0369 164.521 -12.777 165.323 -13.3652 166.084C-13.6503 166.452 -14.0292 166.976 -14.3596 167.595L-14.3694 167.613C-14.5683 167.985 -15.4051 169.549 -15.2159 171.62L-15.021 173.754L-13.5888 175.349L14.8908 207.067L16.9119 209.318L19.935 209.208C21.2796 209.159 22.3317 208.723 22.7542 208.539C23.3069 208.298 23.8068 208.018 24.2083 207.776C25.018 207.287 25.8907 206.667 26.7516 206.018C28.4968 204.701 30.6681 202.9 33.0587 200.839C37.8624 196.699 43.9019 191.206 49.8753 185.719C52.1011 183.674 54.3147 181.633 56.4594 179.655C60.1096 176.29 63.56 173.108 66.5299 170.408C68.6617 168.469 70.5022 166.819 71.9552 165.556C73.228 166.814 74.5586 168.244 76.1032 169.905C77.3468 171.243 78.7291 172.729 80.3315 174.394C83.7049 177.899 87.6747 181.772 91.9658 184.964C96.1941 188.109 101.227 190.972 106.737 191.846C109.642 192.307 112.106 191.062 113.326 190.362C114.826 189.501 116.329 188.324 117.76 187.062C120.651 184.51 124.016 180.913 127.61 176.713C134.839 168.266 143.548 156.727 152.145 144.52C160.755 132.293 169.336 119.277 176.308 107.832C183.18 96.5525 188.783 86.3275 191.12 79.8695L191.313 79.3386L191.41 78.7824C191.828 76.3868 191.086 74.3136 190.549 73.1219C189.948 71.7853 189.116 70.5058 188.262 69.3539C186.542 67.0342 184.151 64.4641 181.472 61.8462C176.073 56.5691 168.811 50.4299 161.516 44.6292C154.196 38.8081 146.708 33.2225 140.787 29.0375C137.832 26.9494 135.219 25.1754 133.185 23.8843C132.176 23.2439 131.24 22.6774 130.439 22.2405C130.043 22.024 129.605 21.7984 129.163 21.6029C128.849 21.4636 128.042 21.112 127.053 20.9551L127.053 20.955C125.047 20.6369 123.145 21.1802 122.228 21.4613C121.011 21.8344 119.672 22.3729 118.299 22.9899C115.531 24.2332 112.086 26.0401 108.206 28.2382C100.416 32.6513 90.4448 38.8857 79.816 46.0094C58.6297 60.2088 34.3071 78.2919 19.139 92.962Z" fill="#212B5A" stroke="#212B5A" stroke-width="12.9249"/>
<path d="M32.8937 107.81L32.6957 108.002L32.5441 108.232C31.4869 109.836 31.2743 111.671 31.4796 113.404C31.6827 115.118 32.308 116.885 33.1249 118.592C34.7586 122.005 37.393 125.649 40.0816 128.921C42.791 132.218 45.6519 135.253 47.8265 137.456C48.4188 138.056 48.9617 138.596 49.4386 139.064C48.0361 140.185 46.0422 141.781 43.6538 143.704C38.845 147.575 32.4335 152.771 26.0285 158.064C19.6286 163.353 13.2147 168.756 8.40982 173.036C6.01299 175.171 3.98145 177.058 2.54484 178.526C1.83305 179.254 1.21767 179.928 0.76917 180.508C0.54839 180.794 0.318349 181.119 0.136045 181.461C0.0121663 181.693 -0.349685 182.386 -0.269921 183.259L-0.194484 184.085L0.359547 184.702L28.8391 216.42L29.621 217.291L30.7905 217.248C31.3841 217.226 31.8885 217.029 32.172 216.906C32.5057 216.761 32.8416 216.576 33.1604 216.384C33.8005 215.997 34.5491 215.47 35.3652 214.855C37.0063 213.616 39.1005 211.882 41.4716 209.838C46.2227 205.743 52.2207 200.288 58.1946 194.801C60.4071 192.768 62.6151 190.732 64.7581 188.756C68.4167 185.383 71.8858 182.184 74.8641 179.476C77.2241 177.33 79.2553 175.511 80.8116 174.171C81.591 173.5 82.2343 172.964 82.7309 172.573C82.8313 172.494 82.9208 172.424 83 172.364C83.0094 172.37 83.019 172.376 83.0288 172.383C83.6598 172.794 84.5347 173.549 85.6832 174.681C87.0036 175.982 88.4613 177.548 90.1006 179.309C91.3506 180.652 92.7061 182.108 94.1866 183.646C97.5133 187.103 101.304 190.789 105.331 193.785C109.333 196.762 113.759 199.203 118.358 199.933C119.849 200.169 121.29 199.536 122.353 198.926C123.524 198.253 124.8 197.271 126.138 196.091C128.824 193.72 132.05 190.284 135.6 186.136C142.715 177.823 151.343 166.396 159.905 154.238C168.472 142.073 177.004 129.132 183.924 117.771C190.806 106.474 196.209 96.5594 198.395 90.5208L198.469 90.3154L198.506 90.1002C198.723 88.8627 198.351 87.6695 197.936 86.7483C197.496 85.7711 196.845 84.7468 196.079 83.7139C194.543 81.6421 192.324 79.2416 189.703 76.6801C184.444 71.541 177.304 65.4984 170.05 59.7306C162.787 53.9549 155.359 48.4143 149.5 44.2734C146.573 42.2046 144.018 40.4718 142.061 39.2296C141.086 38.6105 140.232 38.0959 139.541 37.7185C139.196 37.5306 138.864 37.3609 138.559 37.226C138.304 37.1129 137.887 36.9408 137.432 36.8686C136.402 36.7052 135.27 36.9801 134.389 37.2498C133.393 37.5552 132.221 38.0208 130.922 38.6044C128.316 39.7752 124.992 41.5144 121.159 43.6858C113.481 48.0353 103.598 54.2127 93.022 61.301C71.8975 75.459 47.8065 93.3871 32.8937 107.81Z" stroke="#212B5A" stroke-width="5"/>
<path fill-rule="evenodd" clip-rule="evenodd" d="M-45.799 269.394L-36.734 247.043C-27.5614 226.877 -9.43125 182.176 9.6161 179.047C29.6826 173.679 51.6856 207.643 72.8279 224.125C92.8434 240.664 113.125 239.665 132.546 221.185C151.967 202.706 170.528 166.744 189.145 154.876C208.996 145.136 229.923 157.249 250.42 160.621C269.683 161.863 289.642 154.309 299.567 149.439L309.6 146.755L316.808 293.161L306.667 293.66C296.527 294.159 276.245 295.158 257.09 296.101C236.808 297.099 216.527 298.098 196.245 299.096C177.09 300.04 156.808 301.038 136.527 302.037C116.245 303.035 95.9632 304.033 76.8083 304.977C56.5266 305.975 36.2449 306.974 15.9633 307.972C-3.19167 308.915 -23.4734 309.914 -33.6142 310.413L-43.755 310.912L-45.799 269.394Z" fill="#0DCA84"/>
<path fill-rule="evenodd" clip-rule="evenodd" d="M-45.799 263.394L-36.734 241.043C-27.5614 220.877 -9.43125 176.176 9.6161 173.047C29.6826 167.679 51.6856 201.643 72.8279 218.125C92.8434 234.664 113.125 233.665 132.546 215.185C151.967 196.706 170.528 160.744 189.145 148.876C208.996 139.136 229.923 151.249 250.42 154.621C269.683 155.863 289.642 148.309 299.567 143.439L309.6 140.755L316.808 287.161L306.667 287.66C296.527 288.159 276.245 289.158 257.09 290.101C236.808 291.099 216.527 292.098 196.245 293.096C177.09 294.04 156.808 295.038 136.527 296.037C116.245 297.035 95.9632 298.033 76.8083 298.977C56.5266 299.975 36.2449 300.974 15.9633 301.972C-3.19167 302.915 -23.4734 303.914 -33.6142 304.413L-43.755 304.912L-45.799 263.394Z" stroke="#0DCA84" stroke-width="2"/>
<path d="M83.9814 92.1701C83.9814 92.1701 73.6851 86.4862 69.7062 83.7388C68.6567 82.9936 61.6541 70.1321 61.6541 70.1321C61.6541 70.1321 57.0422 72.6332 59.2499 74.6813C60.217 75.5781 68.2834 88.5827 68.2834 88.5827C73.6779 91.1506 78.8726 94.1184 83.8239 97.4613C83.8239 97.4613 87.6137 96.4092 83.9814 92.1701Z" fill="#FFF5BF" stroke="#212B5A" stroke-width="0.26" stroke-miterlimit="10"/>
<g opacity="0.31">
<path d="M101.19 142.12C101.301 142.142 101.408 142.186 101.502 142.25C101.598 142.315 101.672 142.409 101.712 142.518C101.914 142.972 101.493 143.616 100.765 143.929C100.616 143.979 100.462 144.014 100.305 144.032C99.7353 144.161 99.2155 143.995 99.0509 143.633C99.0273 143.51 99.033 143.383 99.0675 143.263C99.0995 143.101 99.1831 142.954 99.3059 142.843" fill="#FACD24"/>
<path d="M101.19 142.12C101.301 142.142 101.408 142.186 101.502 142.25C101.598 142.315 101.672 142.409 101.712 142.518C101.914 142.972 101.493 143.616 100.765 143.929C100.616 143.979 100.462 144.014 100.305 144.032C99.7353 144.161 99.2155 143.995 99.0509 143.633C99.0273 143.51 99.033 143.383 99.0675 143.263C99.0995 143.101 99.1831 142.954 99.3059 142.843" stroke="#662800" stroke-width="0.5" stroke-linecap="round" stroke-linejoin="round"/>
</g>
<g opacity="0.14">
<path d="M103.276 141.485C103.32 141.568 103.34 141.66 103.337 141.754C103.32 141.843 103.273 141.924 103.205 141.983C103.112 142.029 103.009 142.052 102.904 142.051C102.799 142.064 102.692 142.048 102.594 142.004C102.538 141.958 102.491 141.9 102.457 141.835C102.416 141.769 102.399 141.691 102.407 141.614" fill="#FACD24"/>
<path d="M103.276 141.485C103.32 141.568 103.34 141.66 103.337 141.754C103.32 141.843 103.273 141.924 103.205 141.983C103.112 142.029 103.009 142.052 102.904 142.051C102.799 142.064 102.692 142.048 102.594 142.004C102.538 141.958 102.491 141.9 102.457 141.835C102.416 141.769 102.399 141.691 102.407 141.614" stroke="#662800" stroke-width="0.5" stroke-linecap="round" stroke-linejoin="round"/>
</g>
<path d="M136.999 71.3465C138.665 72.1693 150.38 79.7961 150.096 79.128C148.564 77.6346 146.911 76.2709 145.153 75.0508C138.361 69.5599 110.889 62.1511 105.295 60.2159C105.295 60.2159 102.471 57.9406 94.8667 64.2249L81.6565 94.2567C81.6565 94.2567 64.1933 116.181 56.699 117.185C54.7911 117.431 54.1899 122.007 54.5833 125.827C54.8996 129.082 65.6784 136.171 70.4921 139.745C79.9957 146.083 90.2491 151.218 101.018 155.033C101.018 155.033 106.929 156.164 109.164 154.265C111.683 152.151 135.502 116 135.502 116C139.668 105.599 149.832 84.6095 150.155 84.1211C150.565 82.7172 150.67 81.2418 150.462 79.7941C150.501 78.8541 145.844 76.2757 145.467 76.5935L129.541 114.305L105.86 146.975C105.86 146.975 88.0053 143.34 76.556 135.637C70.99 131.899 58.0776 122.795 57.7028 122.165C57.0215 121.025 56.5335 119.78 56.2586 118.481C56.3249 118.291 56.4341 118.118 56.5778 117.977C56.7267 117.846 56.9063 117.754 57.1 117.71C66.2217 114.843 81.9504 95.6376 81.9504 95.6376L94.8616 64.276C95.9005 63.6431 102.228 60.041 103.501 60.1538C104.405 60.2499 113.603 63.9356 115.156 64.0353" fill="#FBB03B"/>
<path opacity="0.22" d="M142.049 87.8071L147.247 85.9892" stroke="#212B5A" stroke-width="0.5" stroke-linecap="round" stroke-linejoin="round"/>
<path opacity="0.22" d="M140.225 92.4251L145.681 90.3495" stroke="#212B5A" stroke-width="0.5" stroke-linecap="round" stroke-linejoin="round"/>
<path opacity="0.22" d="M138.413 95.9095L144.066 94.0394" stroke="#212B5A" stroke-width="0.5" stroke-linecap="round" stroke-linejoin="round"/>
<path opacity="0.22" d="M124.287 122.089L129.954 123.093" stroke="#212B5A" stroke-width="0.5" stroke-linecap="round" stroke-linejoin="round"/>
<g opacity="0.22">
<path d="M136.285 100.945C136.264 100.85 142.417 99.2834 142.417 99.2834L136.285 100.945Z" fill="white"/>
<path d="M136.285 100.945C136.264 100.85 142.417 99.2834 142.417 99.2834" stroke="#212B5A" stroke-width="0.5" stroke-linecap="round" stroke-linejoin="round"/>
</g>
<path opacity="0.22" d="M134.709 105.774L140.834 104.23" stroke="#212B5A" stroke-width="0.5" stroke-linecap="round" stroke-linejoin="round"/>
<g opacity="0.22">
<path d="M131.616 111.842C131.743 111.814 138.246 110.101 138.246 110.101L131.616 111.842Z" fill="white"/>
<path d="M131.616 111.842C131.743 111.814 138.246 110.101 138.246 110.101" stroke="#212B5A" stroke-width="0.5" stroke-linecap="round" stroke-linejoin="round"/>
</g>
<path opacity="0.22" d="M56.6948 122.125L57.0839 128.441" stroke="#212B5A" stroke-width="0.5" stroke-linecap="round" stroke-linejoin="round"/>
<g opacity="0.22">
<path d="M58.9017 124.39C58.766 126.39 58.8223 128.399 59.07 130.389L58.9017 124.39Z" fill="white"/>
<path d="M58.9017 124.39C58.766 126.39 58.8223 128.399 59.07 130.389" stroke="#212B5A" stroke-width="0.5" stroke-linecap="round" stroke-linejoin="round"/>
</g>
<path opacity="0.22" d="M62.0135 128.313L62.0683 133.291" stroke="#212B5A" stroke-width="0.5" stroke-linecap="round" stroke-linejoin="round"/>
<path opacity="0.22" d="M65.7636 130.563L65.5993 136.638" stroke="#212B5A" stroke-width="0.5" stroke-linecap="round" stroke-linejoin="round"/>
<path opacity="0.22" d="M68.4915 133.076L68.3889 139.203" stroke="#212B5A" stroke-width="0.5" stroke-linecap="round" stroke-linejoin="round"/>
<path opacity="0.22" d="M70.7716 135.225L70.3671 140.305" stroke="#212B5A" stroke-width="0.5" stroke-linecap="round" stroke-linejoin="round"/>
<path opacity="0.22" d="M76.9298 139.594L77.4478 143.968" stroke="#212B5A" stroke-width="0.5" stroke-linecap="round" stroke-linejoin="round"/>
<path opacity="0.22" d="M80.4183 140.905L81.0808 145.33" stroke="#212B5A" stroke-width="0.5" stroke-linecap="round" stroke-linejoin="round"/>
<path opacity="0.22" d="M83.9952 142.23L84.9309 146.759" stroke="#212B5A" stroke-width="0.5" stroke-linecap="round" stroke-linejoin="round"/>
<path opacity="0.22" d="M88.1191 143.78L89.2658 148.877" stroke="#212B5A" stroke-width="0.5" stroke-linecap="round" stroke-linejoin="round"/>
<path opacity="0.22" d="M91.8973 145.192L92.6921 149.687" stroke="#212B5A" stroke-width="0.5" stroke-linecap="round" stroke-linejoin="round"/>
<path opacity="0.22" d="M95.4763 146.083L96.4678 151.083" stroke="#212B5A" stroke-width="0.5" stroke-linecap="round" stroke-linejoin="round"/>
<path opacity="0.22" d="M99.8711 147.723L100.904 152.314" stroke="#212B5A" stroke-width="0.5" stroke-linecap="round" stroke-linejoin="round"/>
<path opacity="0.22" d="M127.596 117.719L133.32 119.425" stroke="#212B5A" stroke-width="0.5" stroke-linecap="round" stroke-linejoin="round"/>
<path opacity="0.22" d="M121.545 126.099L127.285 127.801" stroke="#212B5A" stroke-width="0.5" stroke-linecap="round" stroke-linejoin="round"/>
<path opacity="0.22" d="M117.744 131.461L123.485 133.164" stroke="#212B5A" stroke-width="0.5" stroke-linecap="round" stroke-linejoin="round"/>
<path opacity="0.22" d="M110.576 141.09L116.317 142.793" stroke="#212B5A" stroke-width="0.5" stroke-linecap="round" stroke-linejoin="round"/>
<path opacity="0.22" d="M114.615 135.824L120.359 137.543" stroke="#212B5A" stroke-width="0.5" stroke-linecap="round" stroke-linejoin="round"/>
<path d="M76.9056 136.157L57.8266 123.234C56.3034 121.714 54.2959 117.376 57.7296 117.551C67.0641 113.19 76.4252 101.92 81.7256 95.9708C85.2485 88.9247 90.8961 71.2053 95.1769 63.7559C97.5322 62.2675 100.05 61.0537 102.682 60.1384C103.18 60.1079 103.678 60.187 104.142 60.3701C104.606 60.5532 105.024 60.8357 105.366 61.1978L144.275 76.3292C145.786 77.8687 131.608 111.511 130.033 113.013L105.86 146.975C104.323 148.501 79.179 137.758 76.9056 136.157Z" fill="#FACD24"/>
<path d="M76.4435 136.178L58.4372 122.698C56.9262 121.158 53.9558 117.569 58.4953 117.113C67.6413 113.392 78.0119 102.394 81.6432 96.4216C83.1749 93.6155 90.4846 72.412 94.9092 64.0488C95.8143 63.4128 102.229 59.608 103.372 59.5839C103.867 59.5586 104.362 59.6401 104.823 59.8229L135.922 70.5573C136.951 70.3258 145.546 76.3592 145.546 76.3592C145.546 76.3592 140.281 89.4188 139.108 90.5642L129.406 114.817L105.732 147.519C104.195 149.045 78.6992 137.699 76.4435 136.178Z" fill="url(#paint0_linear_1020_27478)"/>
<g opacity="0.25">
<path d="M100.445 68.5414C100.784 68.8644 100.774 68.9665 100.22 69.3904C99.6669 69.8143 99.1003 69.9584 98.7524 69.521C98.4045 69.0837 98.3498 69.0627 98.9936 68.8181" fill="#FACD24"/>
<path d="M100.446 68.5415C100.785 68.8644 100.856 69.1811 100.306 69.6208C99.756 70.0605 99.2017 70.1852 98.8379 69.7514C98.4741 69.3177 98.3502 69.0628 98.994 68.8182" stroke="#662800" stroke-width="0.5" stroke-linecap="round" stroke-linejoin="round"/>
</g>
<path d="M145.498 76.5864L129.541 114.305L105.86 146.975C100.124 146.252 91.362 143.101 78.478 136.934C72.9121 133.197 58.0773 122.795 57.7025 122.165C57.0001 121.075 56.4831 119.876 56.1724 118.617C56.2348 118.428 56.3461 118.26 56.4951 118.128C56.6441 117.997 56.8236 117.905 57.0174 117.861C66.1549 114.991 81.8959 95.7662 81.8959 95.7662L95.6326 63.6368C96.6716 63.0039 102.275 60.0303 103.496 60.2048C104.403 60.3064 105.271 60.6312 106.021 61.1503M144.747 76.2065C142.971 75.0425 141.187 73.9138 139.395 72.7534C130.076 66.5336 110.143 63.4996 106.159 61.1693L105.467 60.7593C105.467 60.7593 102.471 57.9406 94.8772 64.2724C94.8772 64.2724 82.7271 91.6208 81.6669 94.3042C81.6669 94.3042 64.1843 116.216 56.6354 117.199C54.7275 117.445 54.1263 122.021 54.5197 125.841C54.836 129.096 71.7942 140.949 76.6079 144.523C80.1866 147.045 87.6173 150.196 100.954 155.047C102.894 155.758 106.865 156.179 109.1 154.279C111.335 152.379 119.478 139.021 131.248 122.337C142.211 106.947 147.475 87.0024 149.008 85.46C149.442 85.0397 149.834 84.5783 150.179 84.0823C150.747 83.0075 151.01 81.7981 150.94 80.5848C151.003 79.7557 145.132 76.5856 144.747 76.2065Z" stroke="#212B5A" stroke-width="0.5" stroke-miterlimit="10"/>
<path d="M77.4781 137.957C77.4781 137.957 84.4577 138.137 82.4804 143.048C82.4804 143.048 72.2619 145.67 63.1223 146.968C58.6591 151.867 63.5196 173.672 60.901 178.876C60.901 178.876 57.3606 180.85 56.2805 177.416C55.7385 175.751 52.7696 149.277 59.754 141.528C65.5211 139.722 71.4616 138.525 77.4781 137.957Z" fill="#FFF5BF" stroke="#212B5A" stroke-width="0.5" stroke-miterlimit="10"/>
<path d="M56.5057 170.974C56.305 170.859 56.0683 170.823 55.8423 170.873C55.6335 170.903 55.4427 171.008 55.306 171.169C54.6785 172.028 53.9869 172.837 53.2371 173.592C52.6379 174.024 52.0004 174.4 51.3325 174.715C51.3325 174.715 45.3047 177.051 44.4008 176.113C41.898 173.558 33.7364 176.763 37.3267 181.77C40.9169 186.778 46.6018 188.879 48.3734 187.965C50.145 187.051 58.21 184.279 58.21 184.279C58.21 184.279 63.2891 177.006 62.9883 175.157C62.946 174.659 62.7675 174.183 62.4722 173.78C62.1799 173.382 61.7907 173.064 61.3414 172.858L57.0001 177.737C57.0001 177.737 60.6643 174.471 59.8356 173.353C58.8321 172.421 57.713 171.621 56.5057 170.974Z" fill="#FACD24" stroke="#212B5A" stroke-width="0.5" stroke-miterlimit="10"/>
<path d="M56.8787 177.757C55.0235 178.055 53.2444 178.713 51.6416 179.693C48.4738 181.648 47.9814 180.288 47.9814 180.288L46.3256 177.678L51.2451 174.688" fill="#FACD24"/>
<path d="M56.8787 177.757C55.0235 178.055 53.2444 178.713 51.6416 179.693C48.4738 181.648 47.9814 180.288 47.9814 180.288L46.3256 177.678L51.2451 174.688" stroke="#212B5A" stroke-width="0.5" stroke-miterlimit="10"/>
<path d="M58.9372 183.097C58.7256 183.712 58.4181 184.29 58.026 184.81C57.5332 185.244 46.9492 189.469 46.9492 189.469C45.024 189.27 43.1384 188.789 41.3531 188.042C41.3531 188.042 35.1592 181.142 35.5696 179.301C35.845 178.548 36.2289 177.839 36.7093 177.197C36.7093 177.197 34.4065 178.823 42.2056 186.61C43.5761 187.861 45.3747 188.54 47.2308 188.505C48.6354 187.901 50.9268 186.59 52.6567 185.933C55.0412 185.065 57.4325 185.01 58.9372 183.097Z" fill="white" stroke="#212B5A" stroke-width="0.5" stroke-miterlimit="10"/>
<path d="M56.9671 182.916C57.3047 183.195 58.1465 182.725 58.8915 181.915C59.6365 181.105 59.8807 180.168 59.5635 179.886C59.2463 179.604 58.3841 180.078 57.6391 180.888C56.8941 181.697 56.6466 182.614 56.9671 182.916Z" fill="white" stroke="#212B5A" stroke-width="0.5" stroke-miterlimit="10"/>
<path d="M53.1769 173.601L55.8282 177.969L50.1723 175.404L51.6452 179.713L47.4155 177.063L48.664 180.761" stroke="#212B5A" stroke-width="0.5" stroke-linecap="round" stroke-linejoin="round"/>
<path d="M57.3316 177.328L51.3679 174.668L53.2376 178.849L49.0491 176.067L50.5291 180.291L46.306 177.681" stroke="#212B5A" stroke-width="0.5" stroke-linecap="round" stroke-linejoin="round"/>
<path d="M44.3405 176.123C44.3405 176.123 51.8901 185.328 47.8279 188.2C43.7656 191.072 37.8079 183.57 36.3741 179.63C34.9404 175.69 43.2647 174.128 44.3405 176.123Z" fill="white" stroke="#212B5A" stroke-width="0.5" stroke-miterlimit="10"/>
<path d="M42.0134 177.086C42.3982 177.399 42.8143 177.519 42.9368 177.374C43.0593 177.229 42.8476 176.825 42.5034 176.505C42.1592 176.186 41.6992 176.052 41.58 176.217C41.4608 176.383 41.6049 176.756 42.0134 177.086Z" fill="#C9DEFF"/>
<path d="M43.481 177.264C43.6294 177.407 43.8257 177.458 43.8767 177.387C43.9278 177.317 43.8404 177.164 43.6919 177.021C43.5435 176.878 43.3473 176.827 43.2758 176.901C43.2044 176.975 43.3386 177.287 43.481 177.264Z" fill="#C9DEFF"/>
<path d="M65.0331 130.517C65.0331 130.517 71.5471 130.824 69.1645 135.528C69.1645 135.528 60.4389 136.362 49.4797 138.317C43.7796 143.157 41.4022 158.316 37.7496 163.927C37.7496 163.927 33.9907 165.479 33.2484 161.853C32.8613 159.924 38.0005 140.022 46.6876 132.523C52.6484 130.838 58.8489 130.159 65.0331 130.517Z" fill="#FFF5BF" stroke="#212B5A" stroke-width="0.5" stroke-miterlimit="10"/>
<path d="M35.3666 153.351C34.8939 153.204 34.3594 153.991 34.1267 154.446C32.9426 155.984 31.6761 157.457 30.3331 158.858C29.713 159.628 32.7658 156.119 32.7658 156.119L29.4764 158.2C29.4764 158.2 24.7885 162.505 23.6956 161.773C20.6437 159.906 13.1339 164.979 17.818 169.14C22.5021 173.3 28.6455 174.281 30.2326 172.915C31.8196 171.549 39.2919 167.028 39.2919 167.028C39.2919 167.028 42.7509 158.654 42.0528 156.867C41.8995 156.376 41.6153 155.935 41.2307 155.593C40.8531 155.249 40.388 155.014 39.8862 154.916L36.6479 160.783C36.6479 160.783 39.6459 156.557 38.6737 155.693C37.7007 154.744 36.5848 153.954 35.3666 153.351Z" fill="#FACD24" stroke="#212B5A" stroke-width="0.5" stroke-miterlimit="10"/>
<path d="M36.6499 160.825C34.8543 161.529 33.2136 162.577 31.8199 163.91C29.0864 166.557 28.2885 165.346 28.2885 165.346L26.0647 163.08L30.3612 159.005" fill="#FACD24"/>
<path d="M36.6499 160.825C34.8543 161.529 33.2136 162.577 31.8199 163.91C29.0864 166.557 28.2885 165.346 28.2885 165.346L26.0647 163.08L30.3612 159.005" stroke="#212B5A" stroke-width="0.5" stroke-miterlimit="10"/>
<path d="M23.7031 161.942C23.7031 161.942 33.3161 169.617 29.8679 173.271C26.4196 176.925 18.8065 170.807 16.496 167.149C14.1855 163.491 22.2003 160.151 23.7031 161.942Z" fill="white" stroke="#212B5A" stroke-width="0.5" stroke-miterlimit="10"/>
<path d="M39.8627 165.669C39.7882 166.331 39.6039 166.976 39.3174 167.578C38.9409 168.125 29.2556 174.654 29.2556 174.654C27.3009 174.917 25.319 174.904 23.3681 174.614C23.3681 174.614 15.6138 169.096 15.626 167.106C15.7588 166.32 15.9932 165.555 16.3234 164.83C16.3234 164.83 14.3103 167.041 23.8669 173.067C25.5203 174.011 27.4715 174.29 29.3234 173.847C30.5943 172.962 32.6041 171.132 34.2071 170.104C36.3998 168.562 38.8082 168.004 39.8627 165.669Z" fill="white" stroke="#212B5A" stroke-width="0.5" stroke-miterlimit="10"/>
<path d="M37.885 165.931C38.2762 166.145 39.0299 165.517 39.5546 164.519C40.0792 163.521 40.1823 162.563 39.772 162.392C39.3617 162.221 38.6281 162.827 38.1025 163.804C37.5768 164.781 37.4958 165.758 37.885 165.931Z" fill="white" stroke="#212B5A" stroke-width="0.5" stroke-miterlimit="10"/>
<path d="M32.024 157.466L35.6531 161.253L29.4113 159.98L31.7165 163.978L26.9969 162.21L29.064 165.647" stroke="#212B5A" stroke-width="0.5" stroke-linecap="round" stroke-linejoin="round"/>
<path d="M37.005 160.3L30.4414 158.937L33.2235 162.722L28.4134 160.832L30.8435 164.781L26.0423 163.081" stroke="#212B5A" stroke-width="0.5" stroke-linecap="round" stroke-linejoin="round"/>
<path d="M21.3171 163.854C21.7516 164.087 22.1981 164.13 22.2958 163.956C22.3935 163.782 22.1221 163.414 21.6666 163.181C21.211 162.949 20.7856 162.905 20.6668 163.08C20.548 163.255 20.8616 163.621 21.3171 163.854Z" fill="#C9DEFF"/>
<path d="M23.1328 163.324C23.3288 163.442 23.5199 163.454 23.5764 163.303C23.6328 163.152 23.5654 163.071 23.2858 162.978C23.0063 162.885 22.8987 162.848 22.8634 162.998C22.8281 163.148 22.9377 163.227 23.1328 163.324Z" fill="#C9DEFF"/>
<path d="M118 85.5603C118 85.5603 122.958 87.1246 123.885 88.1635C125.565 89.4587 126.371 90.6667 126.841 92.7193" stroke="#212B5A" stroke-width="0.75" stroke-miterlimit="10" stroke-linecap="round"/>
<path d="M109.047 85.4012C109.047 85.4012 104.674 101.021 92.8969 93.192C92.8969 93.192 89.0642 92.5739 90.4771 95.7488C91.8901 98.9236 98.3016 100.059 98.3016 100.059C98.3016 100.059 102.693 98.0571 103.13 100.886C103.566 103.715 106.941 103.039 106.941 103.039C106.941 103.039 109.39 100.093 107.208 99.9353" fill="#FBB03B"/>
<path d="M109.047 85.4012C109.047 85.4012 104.674 101.021 92.8969 93.192C92.8969 93.192 89.0642 92.5739 90.4771 95.7488C91.8901 98.9236 98.3016 100.059 98.3016 100.059C98.3016 100.059 102.693 98.0571 103.13 100.886C103.566 103.715 106.941 103.039 106.941 103.039C106.941 103.039 109.39 100.093 107.208 99.9353" stroke="#212B5A" stroke-width="0.5" stroke-miterlimit="10"/>
<g opacity="0.25">
<path d="M93.3477 94.0884C93.4349 94.1091 93.517 94.1472 93.5892 94.2004C93.6551 94.2618 93.7106 94.3336 93.7534 94.4129C93.7891 94.4984 93.8096 94.5895 93.814 94.682C93.8021 94.7709 93.7829 94.8587 93.7565 94.9444C93.7141 95.0234 93.6562 95.093 93.5863 95.1491C93.5033 95.1924 93.4105 95.2133 93.317 95.2096C93.2388 95.2498 93.1516 95.2694 93.0637 95.2666C92.9746 95.2516 92.8911 95.213 92.8222 95.1546C92.6763 95.1021 92.5534 95.0003 92.4746 94.8669C92.3937 94.7282 92.3576 94.5678 92.3713 94.4078" fill="#FACD24"/>
<path d="M93.3477 94.0884C93.4349 94.1091 93.517 94.1472 93.5892 94.2004C93.6551 94.2618 93.7106 94.3336 93.7534 94.4129C93.7891 94.4984 93.8096 94.5895 93.814 94.682C93.8021 94.7709 93.7829 94.8587 93.7565 94.9444C93.7141 95.0234 93.6562 95.093 93.5863 95.1491C93.5033 95.1924 93.4105 95.2133 93.317 95.2096C93.2388 95.2498 93.1516 95.2694 93.0637 95.2666C92.9746 95.2516 92.8911 95.213 92.8222 95.1546C92.6763 95.1021 92.5534 95.0003 92.4746 94.8669C92.3937 94.7282 92.3576 94.5678 92.3713 94.4078" stroke="#662800" stroke-width="0.2" stroke-linecap="round" stroke-linejoin="round"/>
</g>
<g opacity="0.25">
<path d="M91.7062 93.7424C91.7892 93.8022 91.8496 93.8882 91.8776 93.9866C91.8997 94.0845 91.8876 94.187 91.8431 94.2771C91.7923 94.3679 91.7168 94.4426 91.6253 94.4924C91.5395 94.5434 91.4397 94.5659 91.3403 94.5565C91.26 94.5072 91.1971 94.4342 91.1602 94.3475C91.1127 94.2721 91.0926 94.1827 91.1032 94.0942" fill="#FACD24"/>
<path d="M91.7062 93.7424C91.7892 93.8022 91.8496 93.8882 91.8776 93.9866C91.8997 94.0845 91.8876 94.187 91.8431 94.2771C91.7923 94.3679 91.7168 94.4426 91.6253 94.4924C91.5395 94.5434 91.4397 94.5659 91.3403 94.5565C91.26 94.5072 91.1971 94.4342 91.1602 94.3475C91.1127 94.2721 91.0926 94.1827 91.1032 94.0942" stroke="#662800" stroke-width="0.2" stroke-linecap="round" stroke-linejoin="round"/>
</g>
<path d="M85.0723 125.422C88.3186 128.833 103.747 126.71 103.747 126.71C103.747 126.71 105.922 123.36 107.651 120.842" stroke="#212B5A" stroke-width="0.5" stroke-miterlimit="10"/>
<path d="M87.6191 118.479C87.2949 118.46 86.9706 118.512 86.668 118.629C86.3654 118.747 86.0914 118.928 85.8646 119.16C85.6378 119.392 85.4634 119.67 85.3532 119.976C85.2429 120.281 85.1994 120.606 85.2255 120.93" stroke="#212B5A" stroke-width="0.26" stroke-miterlimit="10"/>
<path d="M85.3495 125.692C79.0388 125.449 78.9448 120.962 79.223 118.871C79.3158 117.947 79.7038 117.079 80.3295 116.393C81.2901 115.412 83.0274 114.555 85.8025 116.093" stroke="#212B5A" stroke-width="0.5" stroke-miterlimit="10"/>
<path d="M92.2016 104.525C92.2016 104.525 100.418 98.0032 108.448 107.74C109.291 108.908 109.904 110.227 110.254 111.624C110.371 112.147 98.4887 106.587 98.4887 106.587L89.6746 107.123C89.6056 107.122 89.5381 107.102 89.479 107.067C89.4191 107.036 89.3685 106.99 89.3326 106.933C89.3006 106.87 89.2847 106.799 89.2863 106.728C89.2585 106.668 89.2439 106.603 89.2435 106.538L92.2016 104.525Z" fill="#212B5A" stroke="#212B5A" stroke-width="0.26" stroke-miterlimit="10"/>
<path d="M92.4693 108.755C92.1125 115.306 96.0359 115.587 96.9092 115.624C99.6544 115.771 104.341 113.453 104.255 109.597L97.1357 109.752L91.8327 108.366L88.6641 107.15" fill="#F2F2F2"/>
<path d="M92.4693 108.755C92.1125 115.306 96.0359 115.587 96.9092 115.624C99.6544 115.771 104.341 113.453 104.255 109.597L97.1357 109.752L91.8327 108.366L88.6641 107.15" stroke="#212B5A" stroke-width="0.75" stroke-miterlimit="10" stroke-linecap="round"/>
<path d="M95.5682 87.7673C95.1432 88.9107 95.6295 90.4812 96.3184 90.6589C97.0072 90.8365 98.2545 89.7244 98.5595 88.4915C98.8645 87.2587 98.3174 87.415 97.0461 87.385C96.3525 87.4079 95.7202 87.3339 95.5682 87.7673Z" fill="#212B5A" stroke="#212B5A" stroke-width="0.53" stroke-miterlimit="10"/>
<path d="M119.329 92.6516C119.014 93.837 119.237 95.2004 119.945 95.3904C120.654 95.5803 121.626 94.4302 121.965 93.2729C122.19 92.424 121.59 92.6421 120.952 92.3199C119.762 91.6895 119.661 91.4627 119.329 92.6516Z" fill="#212B5A" stroke="#212B5A" stroke-width="0.53" stroke-miterlimit="10"/>
<path d="M92.3829 83.4444C92.3829 83.4444 96.0582 82.4015 97.3568 82.1094C99.2447 81.2945 101.064 80.3291 102.797 79.2225" stroke="#212B5A" stroke-width="0.75" stroke-miterlimit="10" stroke-linecap="round"/>
<path d="M172.994 127.965C172.079 130.226 171.856 132.707 172.352 135.095C172.352 135.095 175.328 140.929 177.952 139.873C182.05 138.269 179.53 136.457 178.335 134.181L177.87 133.371L180.579 135.872C182.309 141.637 182.55 143.745 184.65 144.354C185.227 144.462 185.823 144.418 186.378 144.226C186.933 144.034 187.428 143.701 187.815 143.259C188.487 143.027 189.09 142.628 189.567 142.1C190.072 141.266 190.285 140.287 190.173 139.319L190.579 138.313C191.953 135.027 188.665 128.398 188.665 128.398C188.665 128.398 185.948 122.606 182.165 121.694" fill="#F2F2F2"/>
<path d="M172.994 127.965C172.079 130.226 171.856 132.707 172.352 135.095C172.352 135.095 175.328 140.929 177.952 139.873C182.05 138.269 179.53 136.457 178.335 134.181L177.87 133.371L180.579 135.872C182.309 141.637 182.55 143.745 184.65 144.354C185.227 144.462 185.823 144.418 186.378 144.226C186.933 144.034 187.428 143.701 187.815 143.259C188.487 143.027 189.09 142.628 189.567 142.1C190.072 141.266 190.285 140.287 190.173 139.319L190.579 138.313C191.953 135.027 188.665 128.398 188.665 128.398C188.665 128.398 185.948 122.606 182.165 121.694" stroke="#212B5A" stroke-width="0.5" stroke-linecap="round" stroke-linejoin="round"/>
<path d="M170.66 119.659C170.66 119.659 163.228 126.636 169.191 127.922C175.154 129.209 182.346 122.568 183.136 119.796C183.398 119.001 183.486 118.158 183.396 117.326C182.943 113.686 177.188 115.396 177.188 115.396L174.612 116.591" fill="#F2F2F2"/>
<path d="M170.66 119.659C170.66 119.659 163.228 126.636 169.191 127.922C175.154 129.209 182.346 122.568 183.136 119.796C183.398 119.001 183.486 118.158 183.396 117.326C182.943 113.686 177.188 115.396 177.188 115.396L174.612 116.591" stroke="#212B5A" stroke-width="0.5" stroke-linecap="round" stroke-linejoin="round"/>
<path d="M139.214 103.83C139.214 103.83 151.943 97.4736 156.871 98.3774C158.601 98.6703 175.623 118.276 175.623 118.276C175.623 118.276 176.385 121.664 172.676 121.151C170.96 120.921 155.254 103.614 155.254 103.614C155.254 103.614 148.958 102.103 137.226 110.231C137.226 110.231 132.836 107.576 139.214 103.83Z" fill="#FFF5BF" stroke="#212B5A" stroke-width="0.5" stroke-miterlimit="10"/>
<path d="M185.35 133.635C185.35 133.635 188.237 139.072 187.803 143.211L185.35 133.635Z" fill="#F2F2F2"/>
<path d="M185.35 133.635C185.35 133.635 188.237 139.072 187.803 143.211" stroke="#212B5A" stroke-width="0.5" stroke-linecap="round" stroke-linejoin="round"/>
<path d="M187.785 131.224C189.245 133.662 190.062 136.431 190.161 139.272L187.785 131.224Z" fill="#F2F2F2"/>
<path d="M187.785 131.224C189.245 133.662 190.062 136.431 190.161 139.272" stroke="#212B5A" stroke-width="0.5" stroke-linecap="round" stroke-linejoin="round"/>
<path d="M184.127 130.783C184.127 130.783 184.843 131.454 184.716 131.699" stroke="#212B5A" stroke-width="0.5" stroke-linecap="round" stroke-linejoin="round"/>
<path d="M187.039 128.714C187.202 128.861 187.328 129.045 187.406 129.25C187.484 129.455 187.512 129.676 187.487 129.894" stroke="#212B5A" stroke-width="0.5" stroke-linecap="round" stroke-linejoin="round"/>
<path d="M64.546 65.3073C64.546 65.3073 68.8766 66.5119 69.4027 69.8863C69.9288 73.2607 66.8623 77.6761 61.8985 80.2396C54.9249 83.854 52.9398 81.3899 52.0571 80.4242C51.1743 79.4585 52.1232 77.3158 52.1232 77.3158" fill="#F2F2F2"/>
<path d="M64.546 65.3073C64.546 65.3073 68.8766 66.5119 69.4027 69.8863C69.9288 73.2607 66.8623 77.6761 61.8985 80.2396C54.9249 83.854 52.9398 81.3899 52.0571 80.4242C51.1743 79.4585 52.1232 77.3158 52.1232 77.3158" stroke="#212B5A" stroke-width="0.5" stroke-miterlimit="10"/>
<path d="M58.0019 62.5001C57.0019 61.0001 55.0021 58.5883 53.6697 57.6059C53.1097 57.3015 52.4859 57.1332 51.8487 57.1147C51.2115 57.0962 50.5788 57.228 50.0021 57.4995C49.5807 57.7844 49.2248 58.1555 48.9578 58.5883C48.6909 59.0212 48.5191 59.5058 48.4537 60.01C48.4537 60.01 44.5977 59.2142 43.8202 61.6011C43.3478 62.9464 43.3602 64.4143 43.8553 65.7512C43.8553 65.7512 40.1849 72.3584 47.0017 74.9997L47.9337 75.8582C49.7643 76.9219 51.8132 77.5547 53.9251 77.7088C60.8803 78.0071 63.3361 69.4713 64.4579 65.3604C66.0016 62.0297 66.5023 59.0001 66.5023 59.0001C66.5023 59.0001 67.5021 54.3334 66.5024 54.0001C63.5021 52.9999 60.5139 54.0003 59.5021 56.5001C58.6569 58.5883 58.0019 62.5001 58.0019 62.5001Z" fill="#F2F2F2" stroke="#212B5A" stroke-width="0.5" stroke-miterlimit="10"/>
<path d="M50.002 61.5381C50.002 61.5381 52.3376 66.152 53.6112 66.4144L50.002 61.5381Z" fill="#F2F2F2"/>
<path d="M50.002 61.5381C50.002 61.5381 52.3376 66.152 53.6112 66.4144" stroke="#212B5A" stroke-width="0.5" stroke-miterlimit="10"/>
<path d="M52.8743 65.8199C52.8743 65.8199 55.7246 67.1746 56.8262 66.2283C58.3763 65.1312 57.502 62 57.502 62" fill="#F2F2F2"/>
<path d="M52.8743 65.8199C52.8743 65.8199 55.7246 67.1746 56.8262 66.2283C58.3763 65.1312 57.502 62 57.502 62" stroke="#212B5A" stroke-width="0.5" stroke-miterlimit="10"/>
<path d="M45.002 66.8423C45.002 66.8423 47.7133 71.0557 50.4883 70.4481C53.2633 69.8405 53.6484 68.2238 53.5828 67.3404C53.4951 66.7823 53.2508 66.2605 52.8782 65.8357" fill="#F2F2F2"/>
<path d="M45.002 66.8423C45.002 66.8423 47.7133 71.0557 50.4883 70.4481C53.2633 69.8405 53.6484 68.2238 53.5828 67.3404C53.4951 66.7823 53.2508 66.2605 52.8782 65.8357" stroke="#212B5A" stroke-width="0.5" stroke-miterlimit="10"/>
<path d="M46.7934 74.7386C46.7934 74.7386 49.2966 75.9552 50.5676 74.5051C51.0038 73.9083 51.2044 73.1717 51.131 72.4363C51.0577 71.7009 50.7156 71.0185 50.1703 70.5196" fill="#F2F2F2"/>
<path d="M46.7934 74.7386C46.7934 74.7386 49.2966 75.9552 50.5676 74.5051C51.0038 73.9083 51.2044 73.1717 51.131 72.4363C51.0577 71.7009 50.7156 71.0185 50.1703 70.5196" stroke="#212B5A" stroke-width="0.5" stroke-miterlimit="10"/>
<path d="M91.0793 71.131C91.0793 71.131 105.635 87.4661 142.085 86.635L149.475 86.2034C149.475 86.2034 150.824 86.2826 151.484 84.3377C152.078 80.7949 152.446 77.2179 152.586 73.6284C152.586 73.6284 129.924 71.2581 120.566 67.5253C110.566 63.4546 97.0384 62.4891 96.9104 60.5886C96.7824 58.6881 93.8248 60.185 93.8381 61.2797C93.1082 63.7848 92.1648 66.2228 91.0182 68.5668C90.7973 68.9604 90.6865 69.4062 90.6972 69.8573C90.7079 70.3085 90.8399 70.7484 91.0793 71.131Z" fill="#F2F2F2" stroke="#212B5A" stroke-width="0.5" stroke-miterlimit="10"/>
<path d="M106.508 24.7827L103.437 46.5628L96.396 59.6394C97.1703 61.2495 98.4288 62.5772 99.9954 63.4368C112.989 71.9402 152.585 73.6282 152.585 73.6282L159.105 52.3195L160.894 28.3164C154.241 29.5133 135.906 28.1823 130.441 28.5137C124.975 28.845 108.851 28.3969 106.508 24.7827Z" fill="#F2F2F2" stroke="#212B5A" stroke-width="0.5" stroke-linecap="square" stroke-linejoin="bevel"/>
<path d="M106.508 24.783C106.508 24.783 108.922 29.2295 129.083 28.6196C136.701 28.3863 144.826 28.854 150.926 28.8289C154.22 28.8278 157.511 28.6428 160.784 28.2746C147.507 16.1427 106.508 24.783 106.508 24.783Z" fill="#F2F2F2" stroke="#212B5A" stroke-width="0.5" stroke-linejoin="bevel"/>
<path d="M94.8971 65.0328C94.0823 67.0335 93.1616 68.9894 92.1388 70.8923C91.7417 71.1979 92.0397 72.0789 92.0397 72.0789" stroke="#212B5A" stroke-width="0.25" stroke-linejoin="bevel"/>
<path d="M95.6808 68.5156L94.1862 71.4131C94.0031 71.499 93.8411 71.6241 93.7117 71.7795C93.5823 71.935 93.4886 72.1169 93.4374 72.3125C93.3862 72.5081 93.3786 72.7126 93.4151 72.9115C93.4517 73.1103 93.5316 73.2987 93.6491 73.4633" stroke="#212B5A" stroke-width="0.25" stroke-linejoin="bevel"/>
<path d="M97.5694 69.9538L96.0514 73.3389C95.7665 73.8703 95.653 74.4768 95.7265 75.0751" stroke="#212B5A" stroke-width="0.25" stroke-linejoin="bevel"/>
<path d="M103.312 65.2357C103.312 65.2357 110.723 49.731 111.15 48.9696C111.578 48.2081 111.926 35.2567 111.926 35.2567" fill="#F2F2F2"/>
<path d="M103.312 65.2357C103.312 65.2357 110.723 49.731 111.15 48.9696C111.578 48.2081 111.926 35.2567 111.926 35.2567" stroke="#212B5A" stroke-width="0.5" stroke-miterlimit="10"/>
<path d="M112.118 68.2114L119.362 48.2701L118.437 36.9853" fill="#F2F2F2"/>
<path d="M112.118 68.2114L119.362 48.2701L118.437 36.9853" stroke="#212B5A" stroke-width="0.5" stroke-miterlimit="10"/>
<path d="M118.973 69.7631L126.341 48.8956L125.035 42.0542" fill="#F2F2F2"/>
<path d="M118.973 69.7631L126.341 48.8956L125.035 42.0542" stroke="#212B5A" stroke-width="0.5" stroke-miterlimit="10"/>
<path d="M113.578 25.5876C113.578 25.5876 132.093 22.687 145.403 24.9819L113.578 25.5876Z" fill="#F2F2F2"/>
<path d="M113.578 25.5876C113.578 25.5876 132.093 22.687 145.403 24.9819" stroke="#212B5A" stroke-width="0.25" stroke-miterlimit="10"/>
<path d="M149.82 78.1255L149.745 83.6312C149.958 84.0415 150.046 84.5051 149.998 84.9649C149.951 85.4248 149.77 85.8608 149.478 86.2192" fill="#F2F2F2"/>
<path d="M149.82 78.1255L149.745 83.6312C149.958 84.0415 150.046 84.5051 149.998 84.9649C149.951 85.4248 149.77 85.8608 149.478 86.2192" stroke="#212B5A" stroke-width="0.25" stroke-miterlimit="10"/>
<path d="M146.022 78.5475L145.528 83.748C145.832 84.1572 145.964 84.6686 145.898 85.1739C145.831 85.6792 145.571 86.139 145.172 86.4559" fill="#F2F2F2"/>
<path d="M146.022 78.5475L145.528 83.748C145.832 84.1572 145.964 84.6686 145.898 85.1739C145.831 85.6792 145.571 86.139 145.172 86.4559" stroke="#212B5A" stroke-width="0.25" stroke-miterlimit="10"/>
</g>
<defs>
<linearGradient id="paint0_linear_1020_27478" x1="132.259" y1="69.0543" x2="27.491" y2="132.242" gradientUnits="userSpaceOnUse">
<stop offset="0.08" stop-color="#FACC25" stop-opacity="0.95"/>
<stop offset="0.2" stop-color="#FACB26" stop-opacity="0.93"/>
<stop offset="0.33" stop-color="#FAC828" stop-opacity="0.88"/>
<stop offset="0.47" stop-color="#FAC42C" stop-opacity="0.79"/>
<stop offset="0.62" stop-color="#FBBD31" stop-opacity="0.66"/>
<stop offset="0.77" stop-color="#FBB537" stop-opacity="0.5"/>
<stop offset="0.85" stop-color="#FBB03B" stop-opacity="0.4"/>
</linearGradient>
<clipPath id="clip0_1020_27478">
<rect width="215" height="215" rx="31" fill="white"/>
</clipPath>
</defs>
</svg>
